%TF.GenerationSoftware,KiCad,Pcbnew,8.0.4*%
%TF.CreationDate,2024-11-24T10:18:26+11:00*%
%TF.ProjectId,cm4-bare-minimum,636d342d-6261-4726-952d-6d696e696d75,V0.1*%
%TF.SameCoordinates,Original*%
%TF.FileFunction,Component,L1,Top*%
%TF.FilePolarity,Positive*%
%FSLAX46Y46*%
G04 Gerber Fmt 4.6, Leading zero omitted, Abs format (unit mm)*
G04 Created by KiCad (PCBNEW 8.0.4) date 2024-11-24 10:18:26*
%MOMM*%
%LPD*%
G01*
G04 APERTURE LIST*
%TA.AperFunction,ComponentMain*%
%ADD10C,0.300000*%
%TD*%
%TA.AperFunction,ComponentOutline,Courtyard*%
%ADD11C,0.100000*%
%TD*%
%TA.AperFunction,ComponentPin*%
%ADD12P,0.360000X4X0.000000*%
%TD*%
%TA.AperFunction,ComponentPin*%
%ADD13C,0.100000*%
%TD*%
G04 APERTURE END LIST*
D10*
%TO.C,R11*%
%TO.CFtp,R_0402_1005Metric*%
%TO.CVal,NC*%
%TO.CLbN,Resistor_SMD*%
%TO.CMnt,SMD*%
%TO.CRot,180*%
X77775000Y-79275000D03*
D11*
X78704999Y-78805001D02*
X78704999Y-79744999D01*
X76845001Y-79744999D01*
X76845001Y-78805001D01*
X78704999Y-78805001D01*
D12*
%TO.P,R11,1*%
X78285000Y-79275000D03*
D13*
%TO.P,R11,2*%
X77265000Y-79275000D03*
%TD*%
D10*
%TO.C,C1*%
%TO.CFtp,C_0402_1005Metric*%
%TO.CVal,100n*%
%TO.CLbN,Capacitor_SMD*%
%TO.CMnt,SMD*%
%TO.CRot,-90*%
X79650000Y-63650000D03*
D11*
X80109999Y-62740001D02*
X80109999Y-64559999D01*
X79190001Y-64559999D01*
X79190001Y-62740001D01*
X80109999Y-62740001D01*
D12*
%TO.P,C1,1*%
X79650000Y-63170000D03*
D13*
%TO.P,C1,2*%
X79650000Y-64130000D03*
%TD*%
D10*
%TO.C,R2*%
%TO.CFtp,R_0603_1608Metric_Pad0.98x0.95mm_HandSolder*%
%TO.CVal,2.2K 1\u0025*%
%TO.CLbN,Resistor_SMD*%
%TO.CMnt,SMD*%
%TO.CRot,0*%
X52425000Y-63725000D03*
D11*
X54074999Y-62995001D02*
X54074999Y-64454999D01*
X50775001Y-64454999D01*
X50775001Y-62995001D01*
X54074999Y-62995001D01*
D12*
%TO.P,R2,1*%
X51512500Y-63725000D03*
D13*
%TO.P,R2,2*%
X53337500Y-63725000D03*
%TD*%
D10*
%TO.C,R3*%
%TO.CFtp,R_0603_1608Metric_Pad0.98x0.95mm_HandSolder*%
%TO.CVal,2.2K 1\u0025*%
%TO.CLbN,Resistor_SMD*%
%TO.CMnt,SMD*%
%TO.CRot,0*%
X52425000Y-66235000D03*
D11*
X54074999Y-65505001D02*
X54074999Y-66964999D01*
X50775001Y-66964999D01*
X50775001Y-65505001D01*
X54074999Y-65505001D01*
D12*
%TO.P,R3,1*%
X51512500Y-66235000D03*
D13*
%TO.P,R3,2*%
X53337500Y-66235000D03*
%TD*%
D10*
%TO.C,R17*%
%TO.CFtp,R_0402_1005Metric*%
%TO.CVal,NC*%
%TO.CLbN,Resistor_SMD*%
%TO.CMnt,SMD*%
%TO.CRot,0*%
X156650000Y-73900000D03*
D11*
X157579999Y-73430001D02*
X157579999Y-74369999D01*
X155720001Y-74369999D01*
X155720001Y-73430001D01*
X157579999Y-73430001D01*
D12*
%TO.P,R17,1*%
X156140000Y-73900000D03*
D13*
%TO.P,R17,2*%
X157160000Y-73900000D03*
%TD*%
D10*
%TO.C,C4*%
%TO.CFtp,C_0402_1005Metric*%
%TO.CVal,100n*%
%TO.CLbN,Capacitor_SMD*%
%TO.CMnt,SMD*%
%TO.CRot,0*%
X65800000Y-84775000D03*
D11*
X66709999Y-84315001D02*
X66709999Y-85234999D01*
X64890001Y-85234999D01*
X64890001Y-84315001D01*
X66709999Y-84315001D01*
D12*
%TO.P,C4,1*%
X65320000Y-84775000D03*
D13*
%TO.P,C4,2*%
X66280000Y-84775000D03*
%TD*%
D10*
%TO.C,D2*%
%TO.CFtp,LED_0603_1608Metric*%
%TO.CVal,LED Green*%
%TO.CLbN,LED_SMD*%
%TO.CMnt,SMD*%
%TO.CRot,-90*%
X154062500Y-69700000D03*
D11*
X154792499Y-68220001D02*
X154792499Y-71179999D01*
X153332501Y-71179999D01*
X153332501Y-68220001D01*
X154792499Y-68220001D01*
D12*
%TO.P,D2,1,K*%
X154062500Y-68912500D03*
D13*
%TO.P,D2,2,A*%
X154062500Y-70487500D03*
%TD*%
D10*
%TO.C,R4*%
%TO.CFtp,R_0402_1005Metric*%
%TO.CVal,NC*%
%TO.CLbN,Resistor_SMD*%
%TO.CMnt,SMD*%
%TO.CRot,90*%
X143875000Y-57075000D03*
D11*
X144344999Y-56145001D02*
X144344999Y-58004999D01*
X143405001Y-58004999D01*
X143405001Y-56145001D01*
X144344999Y-56145001D01*
D12*
%TO.P,R4,1*%
X143875000Y-57585000D03*
D13*
%TO.P,R4,2*%
X143875000Y-56565000D03*
%TD*%
D10*
%TO.C,R7*%
%TO.CFtp,R_0603_1608Metric_Pad0.98x0.95mm_HandSolder*%
%TO.CVal,5.1k*%
%TO.CLbN,Resistor_SMD*%
%TO.CMnt,SMD*%
%TO.CRot,0*%
X52250000Y-56450000D03*
D11*
X53899999Y-55720001D02*
X53899999Y-57179999D01*
X50600001Y-57179999D01*
X50600001Y-55720001D01*
X53899999Y-55720001D01*
D12*
%TO.P,R7,1*%
X51337500Y-56450000D03*
D13*
%TO.P,R7,2*%
X53162500Y-56450000D03*
%TD*%
D10*
%TO.C,U5*%
%TO.CFtp,TRJG0926HENL*%
%TO.CVal,MagJack-A70-112-331N126*%
%TO.CLbN,CM4IO*%
%TO.CMnt,TH*%
%TO.CRot,-90*%
X51237500Y-80725000D03*
D11*
X54947499Y-71475001D02*
X55947500Y-72475001D01*
X61987499Y-72475001D01*
X61987499Y-88974999D01*
X55947500Y-88974999D01*
X54947499Y-89974999D01*
X53667501Y-89974999D01*
X52667500Y-88974999D01*
X40087501Y-88974999D01*
X40087501Y-72475001D01*
X52667500Y-72475001D01*
X53667501Y-71475001D01*
X54947499Y-71475001D01*
D12*
%TO.P,U5,1,TRD0+*%
X60127500Y-75010000D03*
D13*
%TO.P,U5,*%
X51237500Y-75010000D03*
X51237500Y-86440000D03*
%TO.P,U5,2,TRD0-*%
X57587500Y-76280000D03*
%TO.P,U5,3,TRD1+*%
X60127500Y-77550000D03*
%TO.P,U5,4,CT*%
X57587500Y-78820000D03*
%TO.P,U5,5,CT*%
X60127500Y-80090000D03*
%TO.P,U5,6,TRD1-*%
X57587500Y-81360000D03*
%TO.P,U5,7,TRD2+*%
X60127500Y-82630000D03*
%TO.P,U5,8,TRD2-*%
X57587500Y-83900000D03*
%TO.P,U5,9,TRD3+*%
X60127500Y-85170000D03*
%TO.P,U5,10,TRD3-*%
X57587500Y-86440000D03*
%TO.P,U5,11,VC1*%
X55067500Y-75010000D03*
%TO.P,U5,12,VC2*%
X53797500Y-77550000D03*
%TO.P,U5,13,VC3*%
X53797500Y-83900000D03*
%TO.P,U5,14,VC4*%
X55067500Y-86440000D03*
%TO.P,U5,15,LEDG_A*%
X47177500Y-74095000D03*
%TO.P,U5,16,LEDG_K*%
X47177500Y-76635000D03*
%TO.P,U5,17,LEDY_A*%
X47177500Y-84815000D03*
%TO.P,U5,18,LEDY_K*%
X47177500Y-87355000D03*
%TO.P,U5,19,SHIELD*%
X54287500Y-72850000D03*
%TO.P,U5,20,SHIELD*%
X54287500Y-88600000D03*
%TD*%
D10*
%TO.C,R15*%
%TO.CFtp,R_0402_1005Metric*%
%TO.CVal,470R*%
%TO.CLbN,Resistor_SMD*%
%TO.CMnt,SMD*%
%TO.CRot,0*%
X49250000Y-70625000D03*
D11*
X50179999Y-70155001D02*
X50179999Y-71094999D01*
X48320001Y-71094999D01*
X48320001Y-70155001D01*
X50179999Y-70155001D01*
D12*
%TO.P,R15,1*%
X48740000Y-70625000D03*
D13*
%TO.P,R15,2*%
X49760000Y-70625000D03*
%TD*%
D10*
%TO.C,R1*%
%TO.CFtp,R_0402_1005Metric*%
%TO.CVal,36K 1\u0025*%
%TO.CLbN,Resistor_SMD*%
%TO.CMnt,SMD*%
%TO.CRot,-90*%
X79650000Y-61525000D03*
D11*
X80119999Y-60595001D02*
X80119999Y-62454999D01*
X79180001Y-62454999D01*
X79180001Y-60595001D01*
X80119999Y-60595001D01*
D12*
%TO.P,R1,1*%
X79650000Y-61015000D03*
D13*
%TO.P,R1,2*%
X79650000Y-62035000D03*
%TD*%
D10*
%TO.C,D1*%
%TO.CFtp,LED_0603_1608Metric*%
%TO.CVal,LED Red*%
%TO.CLbN,LED_SMD*%
%TO.CMnt,SMD*%
%TO.CRot,0*%
X152437500Y-72875000D03*
D11*
X153917499Y-72145001D02*
X153917499Y-73604999D01*
X150957501Y-73604999D01*
X150957501Y-72145001D01*
X153917499Y-72145001D01*
D12*
%TO.P,D1,1,K*%
X151650000Y-72875000D03*
D13*
%TO.P,D1,2,A*%
X153225000Y-72875000D03*
%TD*%
D10*
%TO.C,R9*%
%TO.CFtp,R_0402_1005Metric*%
%TO.CVal,NC*%
%TO.CLbN,Resistor_SMD*%
%TO.CMnt,SMD*%
%TO.CRot,-90*%
X155750000Y-80300000D03*
D11*
X156219999Y-79370001D02*
X156219999Y-81229999D01*
X155280001Y-81229999D01*
X155280001Y-79370001D01*
X156219999Y-79370001D01*
D12*
%TO.P,R9,1*%
X155750000Y-79790000D03*
D13*
%TO.P,R9,2*%
X155750000Y-80810000D03*
%TD*%
D10*
%TO.C,R8*%
%TO.CFtp,R_0402_1005Metric*%
%TO.CVal,12K 1\u0025*%
%TO.CLbN,Resistor_SMD*%
%TO.CMnt,SMD*%
%TO.CRot,180*%
X145300000Y-75150000D03*
D11*
X146229999Y-74680001D02*
X146229999Y-75619999D01*
X144370001Y-75619999D01*
X144370001Y-74680001D01*
X146229999Y-74680001D01*
D12*
%TO.P,R8,1*%
X145810000Y-75150000D03*
D13*
%TO.P,R8,2*%
X144790000Y-75150000D03*
%TD*%
D10*
%TO.C,J1*%
%TO.CFtp,FanPinHeader_1x04_P2.54mm_Vertical*%
%TO.CVal,Molex 470531000*%
%TO.CLbN,Connector*%
%TO.CMnt,TH*%
%TO.CRot,0*%
X67355000Y-53200000D03*
D11*
X76704999Y-50000001D02*
X76704999Y-56999999D01*
X65605001Y-56999999D01*
X65605001Y-50000001D01*
X76704999Y-50000001D01*
D12*
%TO.P,J1,1,Pin_1*%
X67355000Y-53200000D03*
D13*
%TO.P,J1,*%
X72435000Y-51040000D03*
%TO.P,J1,2,Pin_2*%
X69895000Y-53200000D03*
%TO.P,J1,3,Pin_3*%
X72435000Y-53200000D03*
%TO.P,J1,4,Pin_4*%
X74975000Y-53200000D03*
%TD*%
D10*
%TO.C,J5*%
%TO.CFtp,PinHeader_1x03_P2.54mm_Vertical*%
%TO.CVal,Conn_01x03*%
%TO.CLbN,Connector_PinHeader_2.54mm*%
%TO.CMnt,TH*%
%TO.CRot,0*%
X145525000Y-80725000D03*
D11*
X147324999Y-78925001D02*
X147324999Y-87574999D01*
X143725001Y-87574999D01*
X143725001Y-78925001D01*
X147324999Y-78925001D01*
D12*
%TO.P,J5,1,Pin_1*%
X145525000Y-80725000D03*
D13*
%TO.P,J5,2,Pin_2*%
X145525000Y-83265000D03*
%TO.P,J5,3,Pin_3*%
X145525000Y-85805000D03*
%TD*%
D10*
%TO.C,U4*%
%TO.CFtp,SOT-353_SC-70-5*%
%TO.CVal,74LVC1G07SE-7*%
%TO.CLbN,Package_TO_SOT_SMD*%
%TO.CMnt,SMD*%
%TO.CRot,90*%
X156412500Y-83650000D03*
D11*
X157812499Y-82050001D02*
X157812499Y-85249999D01*
X155012501Y-85249999D01*
X155012501Y-82050001D01*
X157812499Y-82050001D01*
D12*
%TO.P,U4,1*%
X155762500Y-84600000D03*
D13*
%TO.P,U4,2*%
X156412500Y-84600000D03*
%TO.P,U4,3,GND*%
X157062500Y-84600000D03*
%TO.P,U4,4*%
X157062500Y-82700000D03*
%TO.P,U4,5,VCC*%
X155762500Y-82700000D03*
%TD*%
D10*
%TO.C,R6*%
%TO.CFtp,R_0603_1608Metric_Pad0.98x0.95mm_HandSolder*%
%TO.CVal,5.1k*%
%TO.CLbN,Resistor_SMD*%
%TO.CMnt,SMD*%
%TO.CRot,0*%
X52400000Y-53725000D03*
D11*
X54049999Y-52995001D02*
X54049999Y-54454999D01*
X50750001Y-54454999D01*
X50750001Y-52995001D01*
X54049999Y-52995001D01*
D12*
%TO.P,R6,1*%
X51487500Y-53725000D03*
D13*
%TO.P,R6,2*%
X53312500Y-53725000D03*
%TD*%
D10*
%TO.C,U2*%
%TO.CFtp,MSOP-8_3x3mm_P0.65mm*%
%TO.CVal,EMC2301-1-ACZL-TR*%
%TO.CLbN,Package_SO*%
%TO.CMnt,SMD*%
%TO.CRot,90*%
X77400000Y-61500000D03*
D11*
X79149999Y-58320001D02*
X79149999Y-64679999D01*
X75650001Y-64679999D01*
X75650001Y-58320001D01*
X79149999Y-58320001D01*
D12*
%TO.P,U2,1,SDA*%
X76425000Y-63612500D03*
D13*
%TO.P,U2,2,SCL*%
X77075000Y-63612500D03*
%TO.P,U2,3,VDD*%
X77725000Y-63612500D03*
%TO.P,U2,4,GND*%
X78375000Y-63612500D03*
%TO.P,U2,5,PWM*%
X78375000Y-59387500D03*
%TO.P,U2,6,TACH*%
X77725000Y-59387500D03*
%TO.P,U2,7,CLK*%
X77075000Y-59387500D03*
%TO.P,U2,8,nALERT*%
X76425000Y-59387500D03*
%TD*%
D10*
%TO.C,J4*%
%TO.CFtp,GCT_USB4105-GF-A*%
%TO.CVal,USB4105-GF-A*%
%TO.CLbN,USB4105-GF-A*%
%TO.CMnt,SMD*%
%TO.CRot,-90*%
X42900000Y-55095000D03*
D11*
X48479999Y-50025001D02*
X48479999Y-60164999D01*
X40050001Y-60164999D01*
X40050001Y-50025001D01*
X48479999Y-50025001D01*
D13*
%TO.P,J4,*%
X46580000Y-52205000D03*
X46580000Y-57985000D03*
%TO.P,J4,A1_B12,GND*%
X47655000Y-51895000D03*
%TO.P,J4,A4_B9,VBUS*%
X47655000Y-52695000D03*
%TO.P,J4,A5,CC1*%
X47655000Y-53845000D03*
%TO.P,J4,A6,DP1*%
X47655000Y-54845000D03*
%TO.P,J4,A7,DN1*%
X47655000Y-55345000D03*
%TO.P,J4,A8,SBU1*%
X47655000Y-56345000D03*
%TO.P,J4,B1_A12,GND__1*%
X47655000Y-58295000D03*
%TO.P,J4,B4_A9,VBUS__1*%
X47655000Y-57495000D03*
%TO.P,J4,B5,CC2*%
X47655000Y-56845000D03*
%TO.P,J4,B6,DP2*%
X47655000Y-55845000D03*
%TO.P,J4,B7,DN2*%
X47655000Y-54345000D03*
%TO.P,J4,B8,SBU2*%
X47655000Y-53345000D03*
%TO.P,J4,SH1,SHELL_GND*%
X47080000Y-50775000D03*
%TO.P,J4,SH2,SHELL_GND__1*%
X47080000Y-59415000D03*
%TO.P,J4,SH3,SHELL_GND__2*%
X42900000Y-50775000D03*
%TO.P,J4,SH4,SHELL_GND__3*%
X42900000Y-59415000D03*
%TD*%
D10*
%TO.C,R16*%
%TO.CFtp,R_0402_1005Metric*%
%TO.CVal,NC*%
%TO.CLbN,Resistor_SMD*%
%TO.CMnt,SMD*%
%TO.CRot,0*%
X156625000Y-76125000D03*
D11*
X157554999Y-75655001D02*
X157554999Y-76594999D01*
X155695001Y-76594999D01*
X155695001Y-75655001D01*
X157554999Y-75655001D01*
D12*
%TO.P,R16,1*%
X156115000Y-76125000D03*
D13*
%TO.P,R16,2*%
X157135000Y-76125000D03*
%TD*%
D10*
%TO.C,J3*%
%TO.CFtp,SDCARD_MOLEX_503398-1892*%
%TO.CVal,Micro_SD_Card_Det*%
%TO.CLbN,CM4IO*%
%TO.CMnt,TH*%
%TO.CRot,180*%
X151400000Y-59675000D03*
D11*
X158399999Y-52175001D02*
X158399999Y-66924999D01*
X144400001Y-66924999D01*
X144400001Y-52175001D01*
X158399999Y-52175001D01*
D12*
%TO.P,J3,1,DAT2*%
X153780000Y-65300000D03*
D13*
%TO.P,J3,2,DAT3/CD*%
X152680000Y-65300000D03*
%TO.P,J3,3,CMD*%
X151580000Y-65300000D03*
%TO.P,J3,4,VDD*%
X150480000Y-65300000D03*
%TO.P,J3,5,CLK*%
X149380000Y-65300000D03*
%TO.P,J3,6,VSS*%
X148280000Y-65300000D03*
%TO.P,J3,7,DAT0*%
X147180000Y-65300000D03*
%TO.P,J3,8,DAT1*%
X146080000Y-65300000D03*
%TO.P,J3,9,DET_B*%
X155570000Y-52835000D03*
%TO.P,J3,10,DET_A*%
X151305000Y-52760000D03*
%TO.P,J3,11,SHIELD*%
X157880000Y-54035000D03*
X157660000Y-65285000D03*
X145000000Y-64800000D03*
X144920000Y-54035000D03*
%TD*%
D10*
%TO.C,C3*%
%TO.CFtp,C_0805_2012Metric*%
%TO.CVal,10u*%
%TO.CLbN,Capacitor_SMD*%
%TO.CMnt,SMD*%
%TO.CRot,0*%
X52375000Y-59900000D03*
D11*
X54074999Y-58920001D02*
X54074999Y-60879999D01*
X50675001Y-60879999D01*
X50675001Y-58920001D01*
X54074999Y-58920001D01*
D12*
%TO.P,C3,1*%
X51425000Y-59900000D03*
D13*
%TO.P,C3,2*%
X53325000Y-59900000D03*
%TD*%
D10*
%TO.C,R10*%
%TO.CFtp,R_0402_1005Metric*%
%TO.CVal,1k*%
%TO.CLbN,Resistor_SMD*%
%TO.CMnt,SMD*%
%TO.CRot,90*%
X150262500Y-72350000D03*
D11*
X150732499Y-71420001D02*
X150732499Y-73279999D01*
X149792501Y-73279999D01*
X149792501Y-71420001D01*
X150732499Y-71420001D01*
D12*
%TO.P,R10,1*%
X150262500Y-72860000D03*
D13*
%TO.P,R10,2*%
X150262500Y-71840000D03*
%TD*%
D10*
%TO.C,R12*%
%TO.CFtp,R_0402_1005Metric*%
%TO.CVal,1k*%
%TO.CLbN,Resistor_SMD*%
%TO.CMnt,SMD*%
%TO.CRot,-90*%
X156762500Y-69425000D03*
D11*
X157232499Y-68495001D02*
X157232499Y-70354999D01*
X156292501Y-70354999D01*
X156292501Y-68495001D01*
X157232499Y-68495001D01*
D12*
%TO.P,R12,1*%
X156762500Y-68915000D03*
D13*
%TO.P,R12,2*%
X156762500Y-69935000D03*
%TD*%
D10*
%TO.C,U3*%
%TO.CFtp,SOT-23-5*%
%TO.CVal,RT9742GGJ5*%
%TO.CLbN,Package_TO_SOT_SMD*%
%TO.CMnt,SMD*%
%TO.CRot,180*%
X146875000Y-71837500D03*
D11*
X148924999Y-70137501D02*
X148924999Y-73537499D01*
X144825001Y-73537499D01*
X144825001Y-70137501D01*
X148924999Y-70137501D01*
D12*
%TO.P,U3,1,OUT*%
X148012500Y-72787500D03*
D13*
%TO.P,U3,2,GND*%
X148012500Y-71837500D03*
%TO.P,U3,3,nFLG*%
X148012500Y-70887500D03*
%TO.P,U3,4,EN*%
X145737500Y-70887500D03*
%TO.P,U3,5,IN*%
X145737500Y-72787500D03*
%TD*%
D10*
%TO.C,J7*%
%TO.CFtp,PinHeader_2x02_P2.54mm_Vertical*%
%TO.CVal,THD-02-R*%
%TO.CLbN,Connector_PinHeader_2.54mm*%
%TO.CMnt,TH*%
%TO.CRot,0*%
X70575000Y-70700000D03*
D11*
X74924999Y-68900001D02*
X74924999Y-75049999D01*
X68775001Y-75049999D01*
X68775001Y-68900001D01*
X74924999Y-68900001D01*
D12*
%TO.P,J7,1,Pin_1*%
X70575000Y-70700000D03*
D13*
%TO.P,J7,2,Pin_2*%
X73115000Y-70700000D03*
%TO.P,J7,3,Pin_3*%
X70575000Y-73240000D03*
%TO.P,J7,4,Pin_4*%
X73115000Y-73240000D03*
%TD*%
D10*
%TO.C,Module1*%
%TO.CFtp,Raspberry-Pi-4-Compute-Module*%
%TO.CVal,ComputeModule4-CM4*%
%TO.CLbN,CM4IO*%
%TO.CMnt,SMD*%
%TO.CRot,90*%
X141074874Y-89975000D03*
D11*
X127499999Y-85045001D02*
X127499999Y-88824999D01*
X104700001Y-88824999D01*
X104700001Y-85045001D01*
X127499999Y-85045001D01*
X127499999Y-51125001D02*
X127499999Y-54904999D01*
X104700001Y-54904999D01*
X104700001Y-51125001D01*
X127499999Y-51125001D01*
D12*
%TO.P,Module1,1,GND*%
X106300000Y-88475000D03*
D13*
%TO.P,Module1,*%
X89600000Y-86475000D03*
X137600000Y-86475000D03*
X89600000Y-53475000D03*
X137600000Y-53475000D03*
%TO.P,Module1,2,GND*%
X106300000Y-85395000D03*
%TO.P,Module1,3,Ethernet_Pair3_P*%
X106700000Y-88475000D03*
%TO.P,Module1,4,Ethernet_Pair1_P*%
X106700000Y-85395000D03*
%TO.P,Module1,5,Ethernet_Pair3_N*%
X107100000Y-88475000D03*
%TO.P,Module1,6,Ethernet_Pair1_N*%
X107100000Y-85395000D03*
%TO.P,Module1,7,GND*%
X107500000Y-88475000D03*
%TO.P,Module1,8,GND*%
X107500000Y-85395000D03*
%TO.P,Module1,9,Ethernet_Pair2_N*%
X107900000Y-88475000D03*
%TO.P,Module1,10,Ethernet_Pair0_N*%
X107900000Y-85395000D03*
%TO.P,Module1,11,Ethernet_Pair2_P*%
X108300000Y-88475000D03*
%TO.P,Module1,12,Ethernet_Pair0_P*%
X108300000Y-85395000D03*
%TO.P,Module1,13,GND*%
X108700000Y-88475000D03*
%TO.P,Module1,14,GND*%
X108700000Y-85395000D03*
%TO.P,Module1,15,Ethernet_nLED3(3.3v)*%
X109100000Y-88475000D03*
%TO.P,Module1,16,Ethernet_SYNC_IN(1.8v)*%
X109100000Y-85395000D03*
%TO.P,Module1,17,Ethernet_nLED2(3.3v)*%
X109500000Y-88475000D03*
%TO.P,Module1,18,Ethernet_SYNC_OUT(1.8v)*%
X109500000Y-85395000D03*
%TO.P,Module1,19,Ethernet_nLED1(3.3v)*%
X109900000Y-88475000D03*
%TO.P,Module1,20,EEPROM_nWP*%
X109900000Y-85395000D03*
%TO.P,Module1,21,PI_nLED_Activity*%
X110300000Y-88475000D03*
%TO.P,Module1,22,GND*%
X110300000Y-85395000D03*
%TO.P,Module1,23,GND*%
X110700000Y-88475000D03*
%TO.P,Module1,24,GPIO26*%
X110700000Y-85395000D03*
%TO.P,Module1,25,GPIO21*%
X111100000Y-88475000D03*
%TO.P,Module1,26,GPIO19*%
X111100000Y-85395000D03*
%TO.P,Module1,27,GPIO20*%
X111500000Y-88475000D03*
%TO.P,Module1,28,GPIO13*%
X111500000Y-85395000D03*
%TO.P,Module1,29,GPIO16*%
X111900000Y-88475000D03*
%TO.P,Module1,30,GPIO6*%
X111900000Y-85395000D03*
%TO.P,Module1,31,GPIO12*%
X112300000Y-88475000D03*
%TO.P,Module1,32,GND*%
X112300000Y-85395000D03*
%TO.P,Module1,33,GND*%
X112700000Y-88475000D03*
%TO.P,Module1,34,GPIO5*%
X112700000Y-85395000D03*
%TO.P,Module1,35,ID_SC*%
X113100000Y-88475000D03*
%TO.P,Module1,36,ID_SD*%
X113100000Y-85395000D03*
%TO.P,Module1,37,GPIO7*%
X113500000Y-88475000D03*
%TO.P,Module1,38,GPIO11*%
X113500000Y-85395000D03*
%TO.P,Module1,39,GPIO8*%
X113900000Y-88475000D03*
%TO.P,Module1,40,GPIO9*%
X113900000Y-85395000D03*
%TO.P,Module1,41,GPIO25*%
X114300000Y-88475000D03*
%TO.P,Module1,42,GND*%
X114300000Y-85395000D03*
%TO.P,Module1,43,GND*%
X114700000Y-88475000D03*
%TO.P,Module1,44,GPIO10*%
X114700000Y-85395000D03*
%TO.P,Module1,45,GPIO24*%
X115100000Y-88475000D03*
%TO.P,Module1,46,GPIO22*%
X115100000Y-85395000D03*
%TO.P,Module1,47,GPIO23*%
X115500000Y-88475000D03*
%TO.P,Module1,48,GPIO27*%
X115500000Y-85395000D03*
%TO.P,Module1,49,GPIO18*%
X115900000Y-88475000D03*
%TO.P,Module1,50,GPIO17*%
X115900000Y-85395000D03*
%TO.P,Module1,51,GPIO15*%
X116300000Y-88475000D03*
%TO.P,Module1,52,GND*%
X116300000Y-85395000D03*
%TO.P,Module1,53,GND*%
X116700000Y-88475000D03*
%TO.P,Module1,54,GPIO4*%
X116700000Y-85395000D03*
%TO.P,Module1,55,GPIO14*%
X117100000Y-88475000D03*
%TO.P,Module1,56,GPIO3*%
X117100000Y-85395000D03*
%TO.P,Module1,57,SD_CLK*%
X117500000Y-88475000D03*
%TO.P,Module1,58,GPIO2*%
X117500000Y-85395000D03*
%TO.P,Module1,59,GND*%
X117900000Y-88475000D03*
%TO.P,Module1,60,GND*%
X117900000Y-85395000D03*
%TO.P,Module1,61,SD_DAT3*%
X118300000Y-88475000D03*
%TO.P,Module1,62,SD_CMD*%
X118300000Y-85395000D03*
%TO.P,Module1,63,SD_DAT0*%
X118700000Y-88475000D03*
%TO.P,Module1,64,SD_DAT5*%
X118700000Y-85395000D03*
%TO.P,Module1,65,GND*%
X119100000Y-88475000D03*
%TO.P,Module1,66,GND*%
X119100000Y-85395000D03*
%TO.P,Module1,67,SD_DAT1*%
X119500000Y-88475000D03*
%TO.P,Module1,68,SD_DAT4*%
X119500000Y-85395000D03*
%TO.P,Module1,69,SD_DAT2*%
X119900000Y-88475000D03*
%TO.P,Module1,70,SD_DAT7*%
X119900000Y-85395000D03*
%TO.P,Module1,71,GND*%
X120300000Y-88475000D03*
%TO.P,Module1,72,SD_DAT6*%
X120300000Y-85395000D03*
%TO.P,Module1,73,SD_VDD_Override*%
X120700000Y-88475000D03*
%TO.P,Module1,74,GND*%
X120700000Y-85395000D03*
%TO.P,Module1,75,SD_PWR_ON*%
X121100000Y-88475000D03*
%TO.P,Module1,76,Reserved*%
X121100000Y-85395000D03*
%TO.P,Module1,77,+5v_(Input)*%
X121500000Y-88475000D03*
%TO.P,Module1,78,GPIO_VREF(1.8v/3.3v_Input)*%
X121500000Y-85395000D03*
%TO.P,Module1,79,+5v_(Input)*%
X121900000Y-88475000D03*
%TO.P,Module1,80,SCL0*%
X121900000Y-85395000D03*
%TO.P,Module1,81,+5v_(Input)*%
X122300000Y-88475000D03*
%TO.P,Module1,82,SDA0*%
X122300000Y-85395000D03*
%TO.P,Module1,83,+5v_(Input)*%
X122700000Y-88475000D03*
%TO.P,Module1,84,+3.3v_(Output)*%
X122700000Y-85395000D03*
%TO.P,Module1,85,+5v_(Input)*%
X123100000Y-88475000D03*
%TO.P,Module1,86,+3.3v_(Output)*%
X123100000Y-85395000D03*
%TO.P,Module1,87,+5v_(Input)*%
X123500000Y-88475000D03*
%TO.P,Module1,88,+1.8v_(Output)*%
X123500000Y-85395000D03*
%TO.P,Module1,89,WiFi_nDisable*%
X123900000Y-88475000D03*
%TO.P,Module1,90,+1.8v_(Output)*%
X123900000Y-85395000D03*
%TO.P,Module1,91,BT_nDisable*%
X124300000Y-88475000D03*
%TO.P,Module1,92,RUN_PG*%
X124300000Y-85395000D03*
%TO.P,Module1,93,nRPIBOOT*%
X124700000Y-88475000D03*
%TO.P,Module1,94,AnalogIP1*%
X124700000Y-85395000D03*
%TO.P,Module1,95,nPI_LED_PWR*%
X125100000Y-88475000D03*
%TO.P,Module1,96,AnalogIP0*%
X125100000Y-85395000D03*
%TO.P,Module1,97,Camera_GPIO*%
X125500000Y-88475000D03*
%TO.P,Module1,98,GND*%
X125500000Y-85395000D03*
%TO.P,Module1,99,Global_EN*%
X125900000Y-88475000D03*
%TO.P,Module1,100,nEXTRST*%
X125900000Y-85395000D03*
%TO.P,Module1,101,USB_OTG_ID*%
X106300000Y-54555000D03*
%TO.P,Module1,102,PCIe_CLK_nREQ*%
X106300000Y-51475000D03*
%TO.P,Module1,103,USB2_N*%
X106700000Y-54555000D03*
%TO.P,Module1,104,Reserved*%
X106700000Y-51475000D03*
%TO.P,Module1,105,USB2_P*%
X107100000Y-54555000D03*
%TO.P,Module1,106,Reserved*%
X107100000Y-51475000D03*
%TO.P,Module1,107,GND*%
X107500000Y-54555000D03*
%TO.P,Module1,108,GND*%
X107500000Y-51475000D03*
%TO.P,Module1,109,PCIe_nRST*%
X107900000Y-54555000D03*
%TO.P,Module1,110,PCIe_CLK_P*%
X107900000Y-51475000D03*
%TO.P,Module1,111,VDAC_COMP*%
X108300000Y-54555000D03*
%TO.P,Module1,112,PCIe_CLK_N*%
X108300000Y-51475000D03*
%TO.P,Module1,113,GND*%
X108700000Y-54555000D03*
%TO.P,Module1,114,GND*%
X108700000Y-51475000D03*
%TO.P,Module1,115,CAM1_D0_N*%
X109100000Y-54555000D03*
%TO.P,Module1,116,PCIe_RX_P*%
X109100000Y-51475000D03*
%TO.P,Module1,117,CAM1_D0_P*%
X109500000Y-54555000D03*
%TO.P,Module1,118,PCIe_RX_N*%
X109500000Y-51475000D03*
%TO.P,Module1,119,GND*%
X109900000Y-54555000D03*
%TO.P,Module1,120,GND*%
X109900000Y-51475000D03*
%TO.P,Module1,121,CAM1_D1_N*%
X110300000Y-54555000D03*
%TO.P,Module1,122,PCIe_TX_P*%
X110300000Y-51475000D03*
%TO.P,Module1,123,CAM1_D1_P*%
X110700000Y-54555000D03*
%TO.P,Module1,124,PCIe_TX_N*%
X110700000Y-51475000D03*
%TO.P,Module1,125,GND*%
X111100000Y-54555000D03*
%TO.P,Module1,126,GND*%
X111100000Y-51475000D03*
%TO.P,Module1,127,CAM1_C_N*%
X111500000Y-54555000D03*
%TO.P,Module1,128,CAM0_D0_N*%
X111500000Y-51475000D03*
%TO.P,Module1,129,CAM1_C_P*%
X111900000Y-54555000D03*
%TO.P,Module1,130,CAM0_D0_P*%
X111900000Y-51475000D03*
%TO.P,Module1,131,GND*%
X112300000Y-54555000D03*
%TO.P,Module1,132,GND*%
X112300000Y-51475000D03*
%TO.P,Module1,133,CAM1_D2_N*%
X112700000Y-54555000D03*
%TO.P,Module1,134,CAM0_D1_N*%
X112700000Y-51475000D03*
%TO.P,Module1,135,CAM1_D2_P*%
X113100000Y-54555000D03*
%TO.P,Module1,136,CAM0_D1_P*%
X113100000Y-51475000D03*
%TO.P,Module1,137,GND*%
X113500000Y-54555000D03*
%TO.P,Module1,138,GND*%
X113500000Y-51475000D03*
%TO.P,Module1,139,CAM1_D3_N*%
X113900000Y-54555000D03*
%TO.P,Module1,140,CAM0_C_N*%
X113900000Y-51475000D03*
%TO.P,Module1,141,CAM1_D3_P*%
X114300000Y-54555000D03*
%TO.P,Module1,142,CAM0_C_P*%
X114300000Y-51475000D03*
%TO.P,Module1,143,HDMI1_HOTPLUG*%
X114700000Y-54555000D03*
%TO.P,Module1,144,GND*%
X114700000Y-51475000D03*
%TO.P,Module1,145,HDMI1_SDA*%
X115100000Y-54555000D03*
%TO.P,Module1,146,HDMI1_TX2_P*%
X115100000Y-51475000D03*
%TO.P,Module1,147,HDMI1_SCL*%
X115500000Y-54555000D03*
%TO.P,Module1,148,HDMI1_TX2_N*%
X115500000Y-51475000D03*
%TO.P,Module1,149,HDMI1_CEC*%
X115900000Y-54555000D03*
%TO.P,Module1,150,GND*%
X115900000Y-51475000D03*
%TO.P,Module1,151,HDMI0_CEC*%
X116300000Y-54555000D03*
%TO.P,Module1,152,HDMI1_TX1_P*%
X116300000Y-51475000D03*
%TO.P,Module1,153,HDMI0_HOTPLUG*%
X116700000Y-54555000D03*
%TO.P,Module1,154,HDMI1_TX1_N*%
X116700000Y-51475000D03*
%TO.P,Module1,155,GND*%
X117100000Y-54555000D03*
%TO.P,Module1,156,GND*%
X117100000Y-51475000D03*
%TO.P,Module1,157,DSI0_D0_N*%
X117500000Y-54555000D03*
%TO.P,Module1,158,HDMI1_TX0_P*%
X117500000Y-51475000D03*
%TO.P,Module1,159,DSI0_D0_P*%
X117900000Y-54555000D03*
%TO.P,Module1,160,HDMI1_TX0_N*%
X117900000Y-51475000D03*
%TO.P,Module1,161,GND*%
X118300000Y-54555000D03*
%TO.P,Module1,162,GND*%
X118300000Y-51475000D03*
%TO.P,Module1,163,DSI0_D1_N*%
X118700000Y-54555000D03*
%TO.P,Module1,164,HDMI1_CLK_P*%
X118700000Y-51475000D03*
%TO.P,Module1,165,DSI0_D1_P*%
X119100000Y-54555000D03*
%TO.P,Module1,166,HDMI1_CLK_N*%
X119100000Y-51475000D03*
%TO.P,Module1,167,GND*%
X119500000Y-54555000D03*
%TO.P,Module1,168,GND*%
X119500000Y-51475000D03*
%TO.P,Module1,169,DSI0_C_N*%
X119900000Y-54555000D03*
%TO.P,Module1,170,HDMI0_TX2_P*%
X119900000Y-51475000D03*
%TO.P,Module1,171,DSI0_C_P*%
X120300000Y-54555000D03*
%TO.P,Module1,172,HDMI0_TX2_N*%
X120300000Y-51475000D03*
%TO.P,Module1,173,GND*%
X120700000Y-54555000D03*
%TO.P,Module1,174,GND*%
X120700000Y-51475000D03*
%TO.P,Module1,175,DSI1_D0_N*%
X121100000Y-54555000D03*
%TO.P,Module1,176,HDMI0_TX1_P*%
X121100000Y-51475000D03*
%TO.P,Module1,177,DSI1_D0_P*%
X121500000Y-54555000D03*
%TO.P,Module1,178,HDMI0_TX1_N*%
X121500000Y-51475000D03*
%TO.P,Module1,179,GND*%
X121900000Y-54555000D03*
%TO.P,Module1,180,GND*%
X121900000Y-51475000D03*
%TO.P,Module1,181,DSI1_D1_N*%
X122300000Y-54555000D03*
%TO.P,Module1,182,HDMI0_TX0_P*%
X122300000Y-51475000D03*
%TO.P,Module1,183,DSI1_D1_P*%
X122700000Y-54555000D03*
%TO.P,Module1,184,HDMI0_TX0_N*%
X122700000Y-51475000D03*
%TO.P,Module1,185,GND*%
X123100000Y-54555000D03*
%TO.P,Module1,186,GND*%
X123100000Y-51475000D03*
%TO.P,Module1,187,DSI1_C_N*%
X123500000Y-54555000D03*
%TO.P,Module1,188,HDMI0_CLK_P*%
X123500000Y-51475000D03*
%TO.P,Module1,189,DSI1_C_P*%
X123900000Y-54555000D03*
%TO.P,Module1,190,HDMI0_CLK_N*%
X123900000Y-51475000D03*
%TO.P,Module1,191,GND*%
X124300000Y-54555000D03*
%TO.P,Module1,192,GND*%
X124300000Y-51475000D03*
%TO.P,Module1,193,DSI1_D2_N*%
X124700000Y-54555000D03*
%TO.P,Module1,194,DSI1_D3_N*%
X124700000Y-51475000D03*
%TO.P,Module1,195,DSI1_D2_P*%
X125100000Y-54555000D03*
%TO.P,Module1,196,DSI1_D3_P*%
X125100000Y-51475000D03*
%TO.P,Module1,197,GND*%
X125500000Y-54555000D03*
%TO.P,Module1,198,GND*%
X125500000Y-51475000D03*
%TO.P,Module1,199,HDMI0_SDA*%
X125900000Y-54555000D03*
%TO.P,Module1,200,HDMI0_SCL*%
X125900000Y-51475000D03*
%TD*%
D10*
%TO.C,R5*%
%TO.CFtp,R_0402_1005Metric*%
%TO.CVal,NC*%
%TO.CLbN,Resistor_SMD*%
%TO.CMnt,SMD*%
%TO.CRot,90*%
X143900000Y-58950000D03*
D11*
X144369999Y-58020001D02*
X144369999Y-59879999D01*
X143430001Y-59879999D01*
X143430001Y-58020001D01*
X144369999Y-58020001D01*
D12*
%TO.P,R5,1*%
X143900000Y-59460000D03*
D13*
%TO.P,R5,2*%
X143900000Y-58440000D03*
%TD*%
D10*
%TO.C,C2*%
%TO.CFtp,C_0805_2012Metric*%
%TO.CVal,10u*%
%TO.CLbN,Capacitor_SMD*%
%TO.CMnt,SMD*%
%TO.CRot,-90*%
X147575000Y-75525000D03*
D11*
X148554999Y-73825001D02*
X148554999Y-77224999D01*
X146595001Y-77224999D01*
X146595001Y-73825001D01*
X148554999Y-73825001D01*
D12*
%TO.P,C2,1*%
X147575000Y-74575000D03*
D13*
%TO.P,C2,2*%
X147575000Y-76475000D03*
%TD*%
D10*
%TO.C,R14*%
%TO.CFtp,R_0402_1005Metric*%
%TO.CVal,470R*%
%TO.CLbN,Resistor_SMD*%
%TO.CMnt,SMD*%
%TO.CRot,0*%
X45100000Y-70825000D03*
D11*
X46029999Y-70355001D02*
X46029999Y-71294999D01*
X44170001Y-71294999D01*
X44170001Y-70355001D01*
X46029999Y-70355001D01*
D12*
%TO.P,R14,1*%
X44590000Y-70825000D03*
D13*
%TO.P,R14,2*%
X45610000Y-70825000D03*
%TD*%
D10*
%TO.C,J2*%
%TO.CFtp,USB_Micro-B_EDAC_UCON00686*%
%TO.CVal,USB_OTG*%
%TO.CLbN,CM4IO*%
%TO.CMnt,SMD*%
%TO.CRot,-90*%
X42500000Y-65025000D03*
D11*
X46494999Y-60920001D02*
X46494999Y-69189999D01*
X40035001Y-69189999D01*
X40035001Y-60920001D01*
X46494999Y-60920001D01*
D12*
%TO.P,J2,1,VBUS*%
X45320000Y-63725000D03*
D13*
%TO.P,J2,2,D-*%
X45320000Y-64375000D03*
%TO.P,J2,3,D+*%
X45320000Y-65025000D03*
%TO.P,J2,4,ID*%
X45320000Y-65675000D03*
%TO.P,J2,5,GND*%
X45320000Y-66325000D03*
%TO.P,J2,6,Shield*%
X44200000Y-62037500D03*
X45560000Y-62175000D03*
X43430000Y-62300000D03*
X42500000Y-62300000D03*
X45530000Y-62600000D03*
X42250000Y-64062500D03*
X42250000Y-65987500D03*
X45530000Y-67450000D03*
X43430000Y-67750000D03*
X42500000Y-67750000D03*
X45560000Y-67925000D03*
X44200000Y-68012500D03*
%TD*%
D10*
%TO.C,U1*%
%TO.CFtp,Texas_DRT-3*%
%TO.CVal,TPD2EUSB30*%
%TO.CLbN,Package_TO_SOT_SMD*%
%TO.CMnt,SMD*%
%TO.CRot,90*%
X48262500Y-64947500D03*
D11*
X48962499Y-64147501D02*
X48962499Y-65747499D01*
X47562501Y-65747499D01*
X47562501Y-64147501D01*
X48962499Y-64147501D01*
D12*
%TO.P,U1,1,D+*%
X48687500Y-65297500D03*
D13*
%TO.P,U1,2,D-*%
X48687500Y-64597500D03*
%TO.P,U1,3,GND*%
X47837500Y-64947500D03*
%TD*%
D10*
%TO.C,J6*%
%TO.CFtp,PinHeader_1x03_P2.54mm_Vertical*%
%TO.CVal,Conn_01x03*%
%TO.CLbN,Connector_PinHeader_2.54mm*%
%TO.CMnt,TH*%
%TO.CRot,0*%
X149850000Y-80750000D03*
D11*
X151649999Y-78950001D02*
X151649999Y-87599999D01*
X148050001Y-87599999D01*
X148050001Y-78950001D01*
X151649999Y-78950001D01*
D12*
%TO.P,J6,1,Pin_1*%
X149850000Y-80750000D03*
D13*
%TO.P,J6,2,Pin_2*%
X149850000Y-83290000D03*
%TO.P,J6,3,Pin_3*%
X149850000Y-85830000D03*
%TD*%
D10*
%TO.C,R13*%
%TO.CFtp,R_0402_1005Metric*%
%TO.CVal,NC*%
%TO.CLbN,Resistor_SMD*%
%TO.CMnt,SMD*%
%TO.CRot,180*%
X77875000Y-77075000D03*
D11*
X78804999Y-76605001D02*
X78804999Y-77544999D01*
X76945001Y-77544999D01*
X76945001Y-76605001D01*
X78804999Y-76605001D01*
D12*
%TO.P,R13,1*%
X78385000Y-77075000D03*
D13*
%TO.P,R13,2*%
X77365000Y-77075000D03*
%TD*%
M02*
