%TF.GenerationSoftware,KiCad,Pcbnew,8.0.4*%
%TF.CreationDate,2024-11-24T10:16:15+11:00*%
%TF.ProjectId,cm4-bare-minimum,636d342d-6261-4726-952d-6d696e696d75,V0.1*%
%TF.SameCoordinates,Original*%
%TF.FileFunction,Legend,Top*%
%TF.FilePolarity,Positive*%
%FSLAX46Y46*%
G04 Gerber Fmt 4.6, Leading zero omitted, Abs format (unit mm)*
G04 Created by KiCad (PCBNEW 8.0.4) date 2024-11-24 10:16:15*
%MOMM*%
%LPD*%
G01*
G04 APERTURE LIST*
%ADD10C,0.100000*%
%ADD11C,0.150000*%
%ADD12C,0.300000*%
%ADD13C,0.400000*%
%ADD14C,0.120000*%
%ADD15C,0.200000*%
%ADD16C,0.127000*%
G04 APERTURE END LIST*
D10*
D11*
X90007200Y-104005800D02*
X198007200Y-104005800D01*
X198007200Y-136005800D01*
X90007200Y-136005800D01*
X90007200Y-104005800D01*
D10*
D11*
X10000000Y-10000000D02*
X200007200Y-10000000D01*
X200007200Y-138005800D01*
X10000000Y-138005800D01*
X10000000Y-10000000D01*
D10*
D11*
X12000000Y-12000000D02*
X198007200Y-12000000D01*
X198007200Y-136005800D01*
X12000000Y-136005800D01*
X12000000Y-12000000D01*
D10*
D11*
X60000000Y-12000000D02*
X60000000Y-10000000D01*
D10*
D11*
X110000000Y-12000000D02*
X110000000Y-10000000D01*
D10*
D11*
X160000000Y-12000000D02*
X160000000Y-10000000D01*
D10*
D11*
X36089160Y-11593604D02*
X35346303Y-11593604D01*
X35717731Y-11593604D02*
X35717731Y-10293604D01*
X35717731Y-10293604D02*
X35593922Y-10479319D01*
X35593922Y-10479319D02*
X35470112Y-10603128D01*
X35470112Y-10603128D02*
X35346303Y-10665033D01*
D10*
D11*
X85346303Y-10417414D02*
X85408207Y-10355509D01*
X85408207Y-10355509D02*
X85532017Y-10293604D01*
X85532017Y-10293604D02*
X85841541Y-10293604D01*
X85841541Y-10293604D02*
X85965350Y-10355509D01*
X85965350Y-10355509D02*
X86027255Y-10417414D01*
X86027255Y-10417414D02*
X86089160Y-10541223D01*
X86089160Y-10541223D02*
X86089160Y-10665033D01*
X86089160Y-10665033D02*
X86027255Y-10850747D01*
X86027255Y-10850747D02*
X85284398Y-11593604D01*
X85284398Y-11593604D02*
X86089160Y-11593604D01*
D10*
D11*
X135284398Y-10293604D02*
X136089160Y-10293604D01*
X136089160Y-10293604D02*
X135655826Y-10788842D01*
X135655826Y-10788842D02*
X135841541Y-10788842D01*
X135841541Y-10788842D02*
X135965350Y-10850747D01*
X135965350Y-10850747D02*
X136027255Y-10912652D01*
X136027255Y-10912652D02*
X136089160Y-11036461D01*
X136089160Y-11036461D02*
X136089160Y-11345985D01*
X136089160Y-11345985D02*
X136027255Y-11469795D01*
X136027255Y-11469795D02*
X135965350Y-11531700D01*
X135965350Y-11531700D02*
X135841541Y-11593604D01*
X135841541Y-11593604D02*
X135470112Y-11593604D01*
X135470112Y-11593604D02*
X135346303Y-11531700D01*
X135346303Y-11531700D02*
X135284398Y-11469795D01*
D10*
D11*
X185965350Y-10726938D02*
X185965350Y-11593604D01*
X185655826Y-10231700D02*
X185346303Y-11160271D01*
X185346303Y-11160271D02*
X186151064Y-11160271D01*
D10*
D11*
X60000000Y-136005800D02*
X60000000Y-138005800D01*
D10*
D11*
X110000000Y-136005800D02*
X110000000Y-138005800D01*
D10*
D11*
X160000000Y-136005800D02*
X160000000Y-138005800D01*
D10*
D11*
X36089160Y-137599404D02*
X35346303Y-137599404D01*
X35717731Y-137599404D02*
X35717731Y-136299404D01*
X35717731Y-136299404D02*
X35593922Y-136485119D01*
X35593922Y-136485119D02*
X35470112Y-136608928D01*
X35470112Y-136608928D02*
X35346303Y-136670833D01*
D10*
D11*
X85346303Y-136423214D02*
X85408207Y-136361309D01*
X85408207Y-136361309D02*
X85532017Y-136299404D01*
X85532017Y-136299404D02*
X85841541Y-136299404D01*
X85841541Y-136299404D02*
X85965350Y-136361309D01*
X85965350Y-136361309D02*
X86027255Y-136423214D01*
X86027255Y-136423214D02*
X86089160Y-136547023D01*
X86089160Y-136547023D02*
X86089160Y-136670833D01*
X86089160Y-136670833D02*
X86027255Y-136856547D01*
X86027255Y-136856547D02*
X85284398Y-137599404D01*
X85284398Y-137599404D02*
X86089160Y-137599404D01*
D10*
D11*
X135284398Y-136299404D02*
X136089160Y-136299404D01*
X136089160Y-136299404D02*
X135655826Y-136794642D01*
X135655826Y-136794642D02*
X135841541Y-136794642D01*
X135841541Y-136794642D02*
X135965350Y-136856547D01*
X135965350Y-136856547D02*
X136027255Y-136918452D01*
X136027255Y-136918452D02*
X136089160Y-137042261D01*
X136089160Y-137042261D02*
X136089160Y-137351785D01*
X136089160Y-137351785D02*
X136027255Y-137475595D01*
X136027255Y-137475595D02*
X135965350Y-137537500D01*
X135965350Y-137537500D02*
X135841541Y-137599404D01*
X135841541Y-137599404D02*
X135470112Y-137599404D01*
X135470112Y-137599404D02*
X135346303Y-137537500D01*
X135346303Y-137537500D02*
X135284398Y-137475595D01*
D10*
D11*
X185965350Y-136732738D02*
X185965350Y-137599404D01*
X185655826Y-136237500D02*
X185346303Y-137166071D01*
X185346303Y-137166071D02*
X186151064Y-137166071D01*
D10*
D11*
X10000000Y-60000000D02*
X12000000Y-60000000D01*
D10*
D11*
X10000000Y-110000000D02*
X12000000Y-110000000D01*
D10*
D11*
X10690476Y-35222176D02*
X11309523Y-35222176D01*
X10566666Y-35593604D02*
X10999999Y-34293604D01*
X10999999Y-34293604D02*
X11433333Y-35593604D01*
D10*
D11*
X11092857Y-84912652D02*
X11278571Y-84974557D01*
X11278571Y-84974557D02*
X11340476Y-85036461D01*
X11340476Y-85036461D02*
X11402380Y-85160271D01*
X11402380Y-85160271D02*
X11402380Y-85345985D01*
X11402380Y-85345985D02*
X11340476Y-85469795D01*
X11340476Y-85469795D02*
X11278571Y-85531700D01*
X11278571Y-85531700D02*
X11154761Y-85593604D01*
X11154761Y-85593604D02*
X10659523Y-85593604D01*
X10659523Y-85593604D02*
X10659523Y-84293604D01*
X10659523Y-84293604D02*
X11092857Y-84293604D01*
X11092857Y-84293604D02*
X11216666Y-84355509D01*
X11216666Y-84355509D02*
X11278571Y-84417414D01*
X11278571Y-84417414D02*
X11340476Y-84541223D01*
X11340476Y-84541223D02*
X11340476Y-84665033D01*
X11340476Y-84665033D02*
X11278571Y-84788842D01*
X11278571Y-84788842D02*
X11216666Y-84850747D01*
X11216666Y-84850747D02*
X11092857Y-84912652D01*
X11092857Y-84912652D02*
X10659523Y-84912652D01*
D10*
D11*
X11402380Y-135469795D02*
X11340476Y-135531700D01*
X11340476Y-135531700D02*
X11154761Y-135593604D01*
X11154761Y-135593604D02*
X11030952Y-135593604D01*
X11030952Y-135593604D02*
X10845238Y-135531700D01*
X10845238Y-135531700D02*
X10721428Y-135407890D01*
X10721428Y-135407890D02*
X10659523Y-135284080D01*
X10659523Y-135284080D02*
X10597619Y-135036461D01*
X10597619Y-135036461D02*
X10597619Y-134850747D01*
X10597619Y-134850747D02*
X10659523Y-134603128D01*
X10659523Y-134603128D02*
X10721428Y-134479319D01*
X10721428Y-134479319D02*
X10845238Y-134355509D01*
X10845238Y-134355509D02*
X11030952Y-134293604D01*
X11030952Y-134293604D02*
X11154761Y-134293604D01*
X11154761Y-134293604D02*
X11340476Y-134355509D01*
X11340476Y-134355509D02*
X11402380Y-134417414D01*
D10*
D11*
X200007200Y-60000000D02*
X198007200Y-60000000D01*
D10*
D11*
X200007200Y-110000000D02*
X198007200Y-110000000D01*
D10*
D11*
X198697676Y-35222176D02*
X199316723Y-35222176D01*
X198573866Y-35593604D02*
X199007199Y-34293604D01*
X199007199Y-34293604D02*
X199440533Y-35593604D01*
D10*
D11*
X199100057Y-84912652D02*
X199285771Y-84974557D01*
X199285771Y-84974557D02*
X199347676Y-85036461D01*
X199347676Y-85036461D02*
X199409580Y-85160271D01*
X199409580Y-85160271D02*
X199409580Y-85345985D01*
X199409580Y-85345985D02*
X199347676Y-85469795D01*
X199347676Y-85469795D02*
X199285771Y-85531700D01*
X199285771Y-85531700D02*
X199161961Y-85593604D01*
X199161961Y-85593604D02*
X198666723Y-85593604D01*
X198666723Y-85593604D02*
X198666723Y-84293604D01*
X198666723Y-84293604D02*
X199100057Y-84293604D01*
X199100057Y-84293604D02*
X199223866Y-84355509D01*
X199223866Y-84355509D02*
X199285771Y-84417414D01*
X199285771Y-84417414D02*
X199347676Y-84541223D01*
X199347676Y-84541223D02*
X199347676Y-84665033D01*
X199347676Y-84665033D02*
X199285771Y-84788842D01*
X199285771Y-84788842D02*
X199223866Y-84850747D01*
X199223866Y-84850747D02*
X199100057Y-84912652D01*
X199100057Y-84912652D02*
X198666723Y-84912652D01*
D10*
D11*
X199409580Y-135469795D02*
X199347676Y-135531700D01*
X199347676Y-135531700D02*
X199161961Y-135593604D01*
X199161961Y-135593604D02*
X199038152Y-135593604D01*
X199038152Y-135593604D02*
X198852438Y-135531700D01*
X198852438Y-135531700D02*
X198728628Y-135407890D01*
X198728628Y-135407890D02*
X198666723Y-135284080D01*
X198666723Y-135284080D02*
X198604819Y-135036461D01*
X198604819Y-135036461D02*
X198604819Y-134850747D01*
X198604819Y-134850747D02*
X198666723Y-134603128D01*
X198666723Y-134603128D02*
X198728628Y-134479319D01*
X198728628Y-134479319D02*
X198852438Y-134355509D01*
X198852438Y-134355509D02*
X199038152Y-134293604D01*
X199038152Y-134293604D02*
X199161961Y-134293604D01*
X199161961Y-134293604D02*
X199347676Y-134355509D01*
X199347676Y-134355509D02*
X199409580Y-134417414D01*
D10*
D11*
X113463026Y-131791928D02*
X113463026Y-130291928D01*
X113463026Y-130291928D02*
X113820169Y-130291928D01*
X113820169Y-130291928D02*
X114034455Y-130363357D01*
X114034455Y-130363357D02*
X114177312Y-130506214D01*
X114177312Y-130506214D02*
X114248741Y-130649071D01*
X114248741Y-130649071D02*
X114320169Y-130934785D01*
X114320169Y-130934785D02*
X114320169Y-131149071D01*
X114320169Y-131149071D02*
X114248741Y-131434785D01*
X114248741Y-131434785D02*
X114177312Y-131577642D01*
X114177312Y-131577642D02*
X114034455Y-131720500D01*
X114034455Y-131720500D02*
X113820169Y-131791928D01*
X113820169Y-131791928D02*
X113463026Y-131791928D01*
X115605884Y-131791928D02*
X115605884Y-131006214D01*
X115605884Y-131006214D02*
X115534455Y-130863357D01*
X115534455Y-130863357D02*
X115391598Y-130791928D01*
X115391598Y-130791928D02*
X115105884Y-130791928D01*
X115105884Y-130791928D02*
X114963026Y-130863357D01*
X115605884Y-131720500D02*
X115463026Y-131791928D01*
X115463026Y-131791928D02*
X115105884Y-131791928D01*
X115105884Y-131791928D02*
X114963026Y-131720500D01*
X114963026Y-131720500D02*
X114891598Y-131577642D01*
X114891598Y-131577642D02*
X114891598Y-131434785D01*
X114891598Y-131434785D02*
X114963026Y-131291928D01*
X114963026Y-131291928D02*
X115105884Y-131220500D01*
X115105884Y-131220500D02*
X115463026Y-131220500D01*
X115463026Y-131220500D02*
X115605884Y-131149071D01*
X116105884Y-130791928D02*
X116677312Y-130791928D01*
X116320169Y-130291928D02*
X116320169Y-131577642D01*
X116320169Y-131577642D02*
X116391598Y-131720500D01*
X116391598Y-131720500D02*
X116534455Y-131791928D01*
X116534455Y-131791928D02*
X116677312Y-131791928D01*
X117748741Y-131720500D02*
X117605884Y-131791928D01*
X117605884Y-131791928D02*
X117320170Y-131791928D01*
X117320170Y-131791928D02*
X117177312Y-131720500D01*
X117177312Y-131720500D02*
X117105884Y-131577642D01*
X117105884Y-131577642D02*
X117105884Y-131006214D01*
X117105884Y-131006214D02*
X117177312Y-130863357D01*
X117177312Y-130863357D02*
X117320170Y-130791928D01*
X117320170Y-130791928D02*
X117605884Y-130791928D01*
X117605884Y-130791928D02*
X117748741Y-130863357D01*
X117748741Y-130863357D02*
X117820170Y-131006214D01*
X117820170Y-131006214D02*
X117820170Y-131149071D01*
X117820170Y-131149071D02*
X117105884Y-131291928D01*
X118463026Y-131649071D02*
X118534455Y-131720500D01*
X118534455Y-131720500D02*
X118463026Y-131791928D01*
X118463026Y-131791928D02*
X118391598Y-131720500D01*
X118391598Y-131720500D02*
X118463026Y-131649071D01*
X118463026Y-131649071D02*
X118463026Y-131791928D01*
X118463026Y-130863357D02*
X118534455Y-130934785D01*
X118534455Y-130934785D02*
X118463026Y-131006214D01*
X118463026Y-131006214D02*
X118391598Y-130934785D01*
X118391598Y-130934785D02*
X118463026Y-130863357D01*
X118463026Y-130863357D02*
X118463026Y-131006214D01*
X120248741Y-130434785D02*
X120320169Y-130363357D01*
X120320169Y-130363357D02*
X120463027Y-130291928D01*
X120463027Y-130291928D02*
X120820169Y-130291928D01*
X120820169Y-130291928D02*
X120963027Y-130363357D01*
X120963027Y-130363357D02*
X121034455Y-130434785D01*
X121034455Y-130434785D02*
X121105884Y-130577642D01*
X121105884Y-130577642D02*
X121105884Y-130720500D01*
X121105884Y-130720500D02*
X121034455Y-130934785D01*
X121034455Y-130934785D02*
X120177312Y-131791928D01*
X120177312Y-131791928D02*
X121105884Y-131791928D01*
X122034455Y-130291928D02*
X122177312Y-130291928D01*
X122177312Y-130291928D02*
X122320169Y-130363357D01*
X122320169Y-130363357D02*
X122391598Y-130434785D01*
X122391598Y-130434785D02*
X122463026Y-130577642D01*
X122463026Y-130577642D02*
X122534455Y-130863357D01*
X122534455Y-130863357D02*
X122534455Y-131220500D01*
X122534455Y-131220500D02*
X122463026Y-131506214D01*
X122463026Y-131506214D02*
X122391598Y-131649071D01*
X122391598Y-131649071D02*
X122320169Y-131720500D01*
X122320169Y-131720500D02*
X122177312Y-131791928D01*
X122177312Y-131791928D02*
X122034455Y-131791928D01*
X122034455Y-131791928D02*
X121891598Y-131720500D01*
X121891598Y-131720500D02*
X121820169Y-131649071D01*
X121820169Y-131649071D02*
X121748740Y-131506214D01*
X121748740Y-131506214D02*
X121677312Y-131220500D01*
X121677312Y-131220500D02*
X121677312Y-130863357D01*
X121677312Y-130863357D02*
X121748740Y-130577642D01*
X121748740Y-130577642D02*
X121820169Y-130434785D01*
X121820169Y-130434785D02*
X121891598Y-130363357D01*
X121891598Y-130363357D02*
X122034455Y-130291928D01*
X123105883Y-130434785D02*
X123177311Y-130363357D01*
X123177311Y-130363357D02*
X123320169Y-130291928D01*
X123320169Y-130291928D02*
X123677311Y-130291928D01*
X123677311Y-130291928D02*
X123820169Y-130363357D01*
X123820169Y-130363357D02*
X123891597Y-130434785D01*
X123891597Y-130434785D02*
X123963026Y-130577642D01*
X123963026Y-130577642D02*
X123963026Y-130720500D01*
X123963026Y-130720500D02*
X123891597Y-130934785D01*
X123891597Y-130934785D02*
X123034454Y-131791928D01*
X123034454Y-131791928D02*
X123963026Y-131791928D01*
X125248740Y-130791928D02*
X125248740Y-131791928D01*
X124891597Y-130220500D02*
X124534454Y-131291928D01*
X124534454Y-131291928D02*
X125463025Y-131291928D01*
X126034453Y-131220500D02*
X127177311Y-131220500D01*
X128677311Y-131791928D02*
X127820168Y-131791928D01*
X128248739Y-131791928D02*
X128248739Y-130291928D01*
X128248739Y-130291928D02*
X128105882Y-130506214D01*
X128105882Y-130506214D02*
X127963025Y-130649071D01*
X127963025Y-130649071D02*
X127820168Y-130720500D01*
X130105882Y-131791928D02*
X129248739Y-131791928D01*
X129677310Y-131791928D02*
X129677310Y-130291928D01*
X129677310Y-130291928D02*
X129534453Y-130506214D01*
X129534453Y-130506214D02*
X129391596Y-130649071D01*
X129391596Y-130649071D02*
X129248739Y-130720500D01*
X130748738Y-131220500D02*
X131891596Y-131220500D01*
X132534453Y-130434785D02*
X132605881Y-130363357D01*
X132605881Y-130363357D02*
X132748739Y-130291928D01*
X132748739Y-130291928D02*
X133105881Y-130291928D01*
X133105881Y-130291928D02*
X133248739Y-130363357D01*
X133248739Y-130363357D02*
X133320167Y-130434785D01*
X133320167Y-130434785D02*
X133391596Y-130577642D01*
X133391596Y-130577642D02*
X133391596Y-130720500D01*
X133391596Y-130720500D02*
X133320167Y-130934785D01*
X133320167Y-130934785D02*
X132463024Y-131791928D01*
X132463024Y-131791928D02*
X133391596Y-131791928D01*
X134677310Y-130791928D02*
X134677310Y-131791928D01*
X134320167Y-130220500D02*
X133963024Y-131291928D01*
X133963024Y-131291928D02*
X134891595Y-131291928D01*
D10*
D11*
X90007200Y-132505800D02*
X198007200Y-132505800D01*
D10*
D11*
X91463026Y-134591928D02*
X91463026Y-133091928D01*
X92320169Y-134591928D02*
X91677312Y-133734785D01*
X92320169Y-133091928D02*
X91463026Y-133949071D01*
X92963026Y-134591928D02*
X92963026Y-133591928D01*
X92963026Y-133091928D02*
X92891598Y-133163357D01*
X92891598Y-133163357D02*
X92963026Y-133234785D01*
X92963026Y-133234785D02*
X93034455Y-133163357D01*
X93034455Y-133163357D02*
X92963026Y-133091928D01*
X92963026Y-133091928D02*
X92963026Y-133234785D01*
X94534455Y-134449071D02*
X94463027Y-134520500D01*
X94463027Y-134520500D02*
X94248741Y-134591928D01*
X94248741Y-134591928D02*
X94105884Y-134591928D01*
X94105884Y-134591928D02*
X93891598Y-134520500D01*
X93891598Y-134520500D02*
X93748741Y-134377642D01*
X93748741Y-134377642D02*
X93677312Y-134234785D01*
X93677312Y-134234785D02*
X93605884Y-133949071D01*
X93605884Y-133949071D02*
X93605884Y-133734785D01*
X93605884Y-133734785D02*
X93677312Y-133449071D01*
X93677312Y-133449071D02*
X93748741Y-133306214D01*
X93748741Y-133306214D02*
X93891598Y-133163357D01*
X93891598Y-133163357D02*
X94105884Y-133091928D01*
X94105884Y-133091928D02*
X94248741Y-133091928D01*
X94248741Y-133091928D02*
X94463027Y-133163357D01*
X94463027Y-133163357D02*
X94534455Y-133234785D01*
X95820170Y-134591928D02*
X95820170Y-133806214D01*
X95820170Y-133806214D02*
X95748741Y-133663357D01*
X95748741Y-133663357D02*
X95605884Y-133591928D01*
X95605884Y-133591928D02*
X95320170Y-133591928D01*
X95320170Y-133591928D02*
X95177312Y-133663357D01*
X95820170Y-134520500D02*
X95677312Y-134591928D01*
X95677312Y-134591928D02*
X95320170Y-134591928D01*
X95320170Y-134591928D02*
X95177312Y-134520500D01*
X95177312Y-134520500D02*
X95105884Y-134377642D01*
X95105884Y-134377642D02*
X95105884Y-134234785D01*
X95105884Y-134234785D02*
X95177312Y-134091928D01*
X95177312Y-134091928D02*
X95320170Y-134020500D01*
X95320170Y-134020500D02*
X95677312Y-134020500D01*
X95677312Y-134020500D02*
X95820170Y-133949071D01*
X97177313Y-134591928D02*
X97177313Y-133091928D01*
X97177313Y-134520500D02*
X97034455Y-134591928D01*
X97034455Y-134591928D02*
X96748741Y-134591928D01*
X96748741Y-134591928D02*
X96605884Y-134520500D01*
X96605884Y-134520500D02*
X96534455Y-134449071D01*
X96534455Y-134449071D02*
X96463027Y-134306214D01*
X96463027Y-134306214D02*
X96463027Y-133877642D01*
X96463027Y-133877642D02*
X96534455Y-133734785D01*
X96534455Y-133734785D02*
X96605884Y-133663357D01*
X96605884Y-133663357D02*
X96748741Y-133591928D01*
X96748741Y-133591928D02*
X97034455Y-133591928D01*
X97034455Y-133591928D02*
X97177313Y-133663357D01*
X99034455Y-133806214D02*
X99534455Y-133806214D01*
X99748741Y-134591928D02*
X99034455Y-134591928D01*
X99034455Y-134591928D02*
X99034455Y-133091928D01*
X99034455Y-133091928D02*
X99748741Y-133091928D01*
X100391598Y-134449071D02*
X100463027Y-134520500D01*
X100463027Y-134520500D02*
X100391598Y-134591928D01*
X100391598Y-134591928D02*
X100320170Y-134520500D01*
X100320170Y-134520500D02*
X100391598Y-134449071D01*
X100391598Y-134449071D02*
X100391598Y-134591928D01*
X101105884Y-134591928D02*
X101105884Y-133091928D01*
X101105884Y-133091928D02*
X101463027Y-133091928D01*
X101463027Y-133091928D02*
X101677313Y-133163357D01*
X101677313Y-133163357D02*
X101820170Y-133306214D01*
X101820170Y-133306214D02*
X101891599Y-133449071D01*
X101891599Y-133449071D02*
X101963027Y-133734785D01*
X101963027Y-133734785D02*
X101963027Y-133949071D01*
X101963027Y-133949071D02*
X101891599Y-134234785D01*
X101891599Y-134234785D02*
X101820170Y-134377642D01*
X101820170Y-134377642D02*
X101677313Y-134520500D01*
X101677313Y-134520500D02*
X101463027Y-134591928D01*
X101463027Y-134591928D02*
X101105884Y-134591928D01*
X102605884Y-134449071D02*
X102677313Y-134520500D01*
X102677313Y-134520500D02*
X102605884Y-134591928D01*
X102605884Y-134591928D02*
X102534456Y-134520500D01*
X102534456Y-134520500D02*
X102605884Y-134449071D01*
X102605884Y-134449071D02*
X102605884Y-134591928D01*
X103248742Y-134163357D02*
X103963028Y-134163357D01*
X103105885Y-134591928D02*
X103605885Y-133091928D01*
X103605885Y-133091928D02*
X104105885Y-134591928D01*
X104605884Y-134449071D02*
X104677313Y-134520500D01*
X104677313Y-134520500D02*
X104605884Y-134591928D01*
X104605884Y-134591928D02*
X104534456Y-134520500D01*
X104534456Y-134520500D02*
X104605884Y-134449071D01*
X104605884Y-134449071D02*
X104605884Y-134591928D01*
X106677313Y-133734785D02*
X106534456Y-133663357D01*
X106534456Y-133663357D02*
X106463027Y-133591928D01*
X106463027Y-133591928D02*
X106391599Y-133449071D01*
X106391599Y-133449071D02*
X106391599Y-133377642D01*
X106391599Y-133377642D02*
X106463027Y-133234785D01*
X106463027Y-133234785D02*
X106534456Y-133163357D01*
X106534456Y-133163357D02*
X106677313Y-133091928D01*
X106677313Y-133091928D02*
X106963027Y-133091928D01*
X106963027Y-133091928D02*
X107105885Y-133163357D01*
X107105885Y-133163357D02*
X107177313Y-133234785D01*
X107177313Y-133234785D02*
X107248742Y-133377642D01*
X107248742Y-133377642D02*
X107248742Y-133449071D01*
X107248742Y-133449071D02*
X107177313Y-133591928D01*
X107177313Y-133591928D02*
X107105885Y-133663357D01*
X107105885Y-133663357D02*
X106963027Y-133734785D01*
X106963027Y-133734785D02*
X106677313Y-133734785D01*
X106677313Y-133734785D02*
X106534456Y-133806214D01*
X106534456Y-133806214D02*
X106463027Y-133877642D01*
X106463027Y-133877642D02*
X106391599Y-134020500D01*
X106391599Y-134020500D02*
X106391599Y-134306214D01*
X106391599Y-134306214D02*
X106463027Y-134449071D01*
X106463027Y-134449071D02*
X106534456Y-134520500D01*
X106534456Y-134520500D02*
X106677313Y-134591928D01*
X106677313Y-134591928D02*
X106963027Y-134591928D01*
X106963027Y-134591928D02*
X107105885Y-134520500D01*
X107105885Y-134520500D02*
X107177313Y-134449071D01*
X107177313Y-134449071D02*
X107248742Y-134306214D01*
X107248742Y-134306214D02*
X107248742Y-134020500D01*
X107248742Y-134020500D02*
X107177313Y-133877642D01*
X107177313Y-133877642D02*
X107105885Y-133806214D01*
X107105885Y-133806214D02*
X106963027Y-133734785D01*
X107891598Y-134449071D02*
X107963027Y-134520500D01*
X107963027Y-134520500D02*
X107891598Y-134591928D01*
X107891598Y-134591928D02*
X107820170Y-134520500D01*
X107820170Y-134520500D02*
X107891598Y-134449071D01*
X107891598Y-134449071D02*
X107891598Y-134591928D01*
X108891599Y-133091928D02*
X109034456Y-133091928D01*
X109034456Y-133091928D02*
X109177313Y-133163357D01*
X109177313Y-133163357D02*
X109248742Y-133234785D01*
X109248742Y-133234785D02*
X109320170Y-133377642D01*
X109320170Y-133377642D02*
X109391599Y-133663357D01*
X109391599Y-133663357D02*
X109391599Y-134020500D01*
X109391599Y-134020500D02*
X109320170Y-134306214D01*
X109320170Y-134306214D02*
X109248742Y-134449071D01*
X109248742Y-134449071D02*
X109177313Y-134520500D01*
X109177313Y-134520500D02*
X109034456Y-134591928D01*
X109034456Y-134591928D02*
X108891599Y-134591928D01*
X108891599Y-134591928D02*
X108748742Y-134520500D01*
X108748742Y-134520500D02*
X108677313Y-134449071D01*
X108677313Y-134449071D02*
X108605884Y-134306214D01*
X108605884Y-134306214D02*
X108534456Y-134020500D01*
X108534456Y-134020500D02*
X108534456Y-133663357D01*
X108534456Y-133663357D02*
X108605884Y-133377642D01*
X108605884Y-133377642D02*
X108677313Y-133234785D01*
X108677313Y-133234785D02*
X108748742Y-133163357D01*
X108748742Y-133163357D02*
X108891599Y-133091928D01*
X110034455Y-134449071D02*
X110105884Y-134520500D01*
X110105884Y-134520500D02*
X110034455Y-134591928D01*
X110034455Y-134591928D02*
X109963027Y-134520500D01*
X109963027Y-134520500D02*
X110034455Y-134449071D01*
X110034455Y-134449071D02*
X110034455Y-134591928D01*
X111391599Y-133591928D02*
X111391599Y-134591928D01*
X111034456Y-133020500D02*
X110677313Y-134091928D01*
X110677313Y-134091928D02*
X111605884Y-134091928D01*
D10*
D11*
X90007200Y-129505800D02*
X198007200Y-129505800D01*
D10*
D12*
X177418853Y-131784128D02*
X176918853Y-131069842D01*
X176561710Y-131784128D02*
X176561710Y-130284128D01*
X176561710Y-130284128D02*
X177133139Y-130284128D01*
X177133139Y-130284128D02*
X177275996Y-130355557D01*
X177275996Y-130355557D02*
X177347425Y-130426985D01*
X177347425Y-130426985D02*
X177418853Y-130569842D01*
X177418853Y-130569842D02*
X177418853Y-130784128D01*
X177418853Y-130784128D02*
X177347425Y-130926985D01*
X177347425Y-130926985D02*
X177275996Y-130998414D01*
X177275996Y-130998414D02*
X177133139Y-131069842D01*
X177133139Y-131069842D02*
X176561710Y-131069842D01*
X178633139Y-131712700D02*
X178490282Y-131784128D01*
X178490282Y-131784128D02*
X178204568Y-131784128D01*
X178204568Y-131784128D02*
X178061710Y-131712700D01*
X178061710Y-131712700D02*
X177990282Y-131569842D01*
X177990282Y-131569842D02*
X177990282Y-130998414D01*
X177990282Y-130998414D02*
X178061710Y-130855557D01*
X178061710Y-130855557D02*
X178204568Y-130784128D01*
X178204568Y-130784128D02*
X178490282Y-130784128D01*
X178490282Y-130784128D02*
X178633139Y-130855557D01*
X178633139Y-130855557D02*
X178704568Y-130998414D01*
X178704568Y-130998414D02*
X178704568Y-131141271D01*
X178704568Y-131141271D02*
X177990282Y-131284128D01*
X179204567Y-130784128D02*
X179561710Y-131784128D01*
X179561710Y-131784128D02*
X179918853Y-130784128D01*
X180490281Y-131641271D02*
X180561710Y-131712700D01*
X180561710Y-131712700D02*
X180490281Y-131784128D01*
X180490281Y-131784128D02*
X180418853Y-131712700D01*
X180418853Y-131712700D02*
X180490281Y-131641271D01*
X180490281Y-131641271D02*
X180490281Y-131784128D01*
X180490281Y-130855557D02*
X180561710Y-130926985D01*
X180561710Y-130926985D02*
X180490281Y-130998414D01*
X180490281Y-130998414D02*
X180418853Y-130926985D01*
X180418853Y-130926985D02*
X180490281Y-130855557D01*
X180490281Y-130855557D02*
X180490281Y-130998414D01*
X182133139Y-130284128D02*
X182633139Y-131784128D01*
X182633139Y-131784128D02*
X183133139Y-130284128D01*
X183918853Y-130284128D02*
X184061710Y-130284128D01*
X184061710Y-130284128D02*
X184204567Y-130355557D01*
X184204567Y-130355557D02*
X184275996Y-130426985D01*
X184275996Y-130426985D02*
X184347424Y-130569842D01*
X184347424Y-130569842D02*
X184418853Y-130855557D01*
X184418853Y-130855557D02*
X184418853Y-131212700D01*
X184418853Y-131212700D02*
X184347424Y-131498414D01*
X184347424Y-131498414D02*
X184275996Y-131641271D01*
X184275996Y-131641271D02*
X184204567Y-131712700D01*
X184204567Y-131712700D02*
X184061710Y-131784128D01*
X184061710Y-131784128D02*
X183918853Y-131784128D01*
X183918853Y-131784128D02*
X183775996Y-131712700D01*
X183775996Y-131712700D02*
X183704567Y-131641271D01*
X183704567Y-131641271D02*
X183633138Y-131498414D01*
X183633138Y-131498414D02*
X183561710Y-131212700D01*
X183561710Y-131212700D02*
X183561710Y-130855557D01*
X183561710Y-130855557D02*
X183633138Y-130569842D01*
X183633138Y-130569842D02*
X183704567Y-130426985D01*
X183704567Y-130426985D02*
X183775996Y-130355557D01*
X183775996Y-130355557D02*
X183918853Y-130284128D01*
X185061709Y-131641271D02*
X185133138Y-131712700D01*
X185133138Y-131712700D02*
X185061709Y-131784128D01*
X185061709Y-131784128D02*
X184990281Y-131712700D01*
X184990281Y-131712700D02*
X185061709Y-131641271D01*
X185061709Y-131641271D02*
X185061709Y-131784128D01*
X186561710Y-131784128D02*
X185704567Y-131784128D01*
X186133138Y-131784128D02*
X186133138Y-130284128D01*
X186133138Y-130284128D02*
X185990281Y-130498414D01*
X185990281Y-130498414D02*
X185847424Y-130641271D01*
X185847424Y-130641271D02*
X185704567Y-130712700D01*
D10*
D11*
X91391598Y-131720500D02*
X91605884Y-131791928D01*
X91605884Y-131791928D02*
X91963026Y-131791928D01*
X91963026Y-131791928D02*
X92105884Y-131720500D01*
X92105884Y-131720500D02*
X92177312Y-131649071D01*
X92177312Y-131649071D02*
X92248741Y-131506214D01*
X92248741Y-131506214D02*
X92248741Y-131363357D01*
X92248741Y-131363357D02*
X92177312Y-131220500D01*
X92177312Y-131220500D02*
X92105884Y-131149071D01*
X92105884Y-131149071D02*
X91963026Y-131077642D01*
X91963026Y-131077642D02*
X91677312Y-131006214D01*
X91677312Y-131006214D02*
X91534455Y-130934785D01*
X91534455Y-130934785D02*
X91463026Y-130863357D01*
X91463026Y-130863357D02*
X91391598Y-130720500D01*
X91391598Y-130720500D02*
X91391598Y-130577642D01*
X91391598Y-130577642D02*
X91463026Y-130434785D01*
X91463026Y-130434785D02*
X91534455Y-130363357D01*
X91534455Y-130363357D02*
X91677312Y-130291928D01*
X91677312Y-130291928D02*
X92034455Y-130291928D01*
X92034455Y-130291928D02*
X92248741Y-130363357D01*
X92891597Y-131791928D02*
X92891597Y-130791928D01*
X92891597Y-130291928D02*
X92820169Y-130363357D01*
X92820169Y-130363357D02*
X92891597Y-130434785D01*
X92891597Y-130434785D02*
X92963026Y-130363357D01*
X92963026Y-130363357D02*
X92891597Y-130291928D01*
X92891597Y-130291928D02*
X92891597Y-130434785D01*
X93463026Y-130791928D02*
X94248741Y-130791928D01*
X94248741Y-130791928D02*
X93463026Y-131791928D01*
X93463026Y-131791928D02*
X94248741Y-131791928D01*
X95391598Y-131720500D02*
X95248741Y-131791928D01*
X95248741Y-131791928D02*
X94963027Y-131791928D01*
X94963027Y-131791928D02*
X94820169Y-131720500D01*
X94820169Y-131720500D02*
X94748741Y-131577642D01*
X94748741Y-131577642D02*
X94748741Y-131006214D01*
X94748741Y-131006214D02*
X94820169Y-130863357D01*
X94820169Y-130863357D02*
X94963027Y-130791928D01*
X94963027Y-130791928D02*
X95248741Y-130791928D01*
X95248741Y-130791928D02*
X95391598Y-130863357D01*
X95391598Y-130863357D02*
X95463027Y-131006214D01*
X95463027Y-131006214D02*
X95463027Y-131149071D01*
X95463027Y-131149071D02*
X94748741Y-131291928D01*
X96105883Y-131649071D02*
X96177312Y-131720500D01*
X96177312Y-131720500D02*
X96105883Y-131791928D01*
X96105883Y-131791928D02*
X96034455Y-131720500D01*
X96034455Y-131720500D02*
X96105883Y-131649071D01*
X96105883Y-131649071D02*
X96105883Y-131791928D01*
X96105883Y-130863357D02*
X96177312Y-130934785D01*
X96177312Y-130934785D02*
X96105883Y-131006214D01*
X96105883Y-131006214D02*
X96034455Y-130934785D01*
X96034455Y-130934785D02*
X96105883Y-130863357D01*
X96105883Y-130863357D02*
X96105883Y-131006214D01*
X97891598Y-131363357D02*
X98605884Y-131363357D01*
X97748741Y-131791928D02*
X98248741Y-130291928D01*
X98248741Y-130291928D02*
X98748741Y-131791928D01*
X99963026Y-130291928D02*
X99248740Y-130291928D01*
X99248740Y-130291928D02*
X99177312Y-131006214D01*
X99177312Y-131006214D02*
X99248740Y-130934785D01*
X99248740Y-130934785D02*
X99391598Y-130863357D01*
X99391598Y-130863357D02*
X99748740Y-130863357D01*
X99748740Y-130863357D02*
X99891598Y-130934785D01*
X99891598Y-130934785D02*
X99963026Y-131006214D01*
X99963026Y-131006214D02*
X100034455Y-131149071D01*
X100034455Y-131149071D02*
X100034455Y-131506214D01*
X100034455Y-131506214D02*
X99963026Y-131649071D01*
X99963026Y-131649071D02*
X99891598Y-131720500D01*
X99891598Y-131720500D02*
X99748740Y-131791928D01*
X99748740Y-131791928D02*
X99391598Y-131791928D01*
X99391598Y-131791928D02*
X99248740Y-131720500D01*
X99248740Y-131720500D02*
X99177312Y-131649071D01*
D10*
D11*
X176463026Y-134591928D02*
X176463026Y-133091928D01*
X177820170Y-134591928D02*
X177820170Y-133091928D01*
X177820170Y-134520500D02*
X177677312Y-134591928D01*
X177677312Y-134591928D02*
X177391598Y-134591928D01*
X177391598Y-134591928D02*
X177248741Y-134520500D01*
X177248741Y-134520500D02*
X177177312Y-134449071D01*
X177177312Y-134449071D02*
X177105884Y-134306214D01*
X177105884Y-134306214D02*
X177105884Y-133877642D01*
X177105884Y-133877642D02*
X177177312Y-133734785D01*
X177177312Y-133734785D02*
X177248741Y-133663357D01*
X177248741Y-133663357D02*
X177391598Y-133591928D01*
X177391598Y-133591928D02*
X177677312Y-133591928D01*
X177677312Y-133591928D02*
X177820170Y-133663357D01*
X178534455Y-134449071D02*
X178605884Y-134520500D01*
X178605884Y-134520500D02*
X178534455Y-134591928D01*
X178534455Y-134591928D02*
X178463027Y-134520500D01*
X178463027Y-134520500D02*
X178534455Y-134449071D01*
X178534455Y-134449071D02*
X178534455Y-134591928D01*
X178534455Y-133663357D02*
X178605884Y-133734785D01*
X178605884Y-133734785D02*
X178534455Y-133806214D01*
X178534455Y-133806214D02*
X178463027Y-133734785D01*
X178463027Y-133734785D02*
X178534455Y-133663357D01*
X178534455Y-133663357D02*
X178534455Y-133806214D01*
X181177313Y-134591928D02*
X180320170Y-134591928D01*
X180748741Y-134591928D02*
X180748741Y-133091928D01*
X180748741Y-133091928D02*
X180605884Y-133306214D01*
X180605884Y-133306214D02*
X180463027Y-133449071D01*
X180463027Y-133449071D02*
X180320170Y-133520500D01*
X182891598Y-133020500D02*
X181605884Y-134949071D01*
X184177313Y-134591928D02*
X183320170Y-134591928D01*
X183748741Y-134591928D02*
X183748741Y-133091928D01*
X183748741Y-133091928D02*
X183605884Y-133306214D01*
X183605884Y-133306214D02*
X183463027Y-133449071D01*
X183463027Y-133449071D02*
X183320170Y-133520500D01*
D10*
D11*
X90007200Y-125505800D02*
X198007200Y-125505800D01*
D10*
D13*
X91698928Y-126210238D02*
X92841785Y-126210238D01*
X92020357Y-128210238D02*
X92270357Y-126210238D01*
X93258452Y-128210238D02*
X93425119Y-126876904D01*
X93508452Y-126210238D02*
X93401309Y-126305476D01*
X93401309Y-126305476D02*
X93484643Y-126400714D01*
X93484643Y-126400714D02*
X93591786Y-126305476D01*
X93591786Y-126305476D02*
X93508452Y-126210238D01*
X93508452Y-126210238D02*
X93484643Y-126400714D01*
X94091786Y-126876904D02*
X94853690Y-126876904D01*
X94460833Y-126210238D02*
X94246548Y-127924523D01*
X94246548Y-127924523D02*
X94317976Y-128115000D01*
X94317976Y-128115000D02*
X94496548Y-128210238D01*
X94496548Y-128210238D02*
X94687024Y-128210238D01*
X95639405Y-128210238D02*
X95460833Y-128115000D01*
X95460833Y-128115000D02*
X95389405Y-127924523D01*
X95389405Y-127924523D02*
X95603690Y-126210238D01*
X97175119Y-128115000D02*
X96972738Y-128210238D01*
X96972738Y-128210238D02*
X96591785Y-128210238D01*
X96591785Y-128210238D02*
X96413214Y-128115000D01*
X96413214Y-128115000D02*
X96341785Y-127924523D01*
X96341785Y-127924523D02*
X96437024Y-127162619D01*
X96437024Y-127162619D02*
X96556071Y-126972142D01*
X96556071Y-126972142D02*
X96758452Y-126876904D01*
X96758452Y-126876904D02*
X97139404Y-126876904D01*
X97139404Y-126876904D02*
X97317976Y-126972142D01*
X97317976Y-126972142D02*
X97389404Y-127162619D01*
X97389404Y-127162619D02*
X97365595Y-127353095D01*
X97365595Y-127353095D02*
X96389404Y-127543571D01*
X98139405Y-128019761D02*
X98222738Y-128115000D01*
X98222738Y-128115000D02*
X98115595Y-128210238D01*
X98115595Y-128210238D02*
X98032262Y-128115000D01*
X98032262Y-128115000D02*
X98139405Y-128019761D01*
X98139405Y-128019761D02*
X98115595Y-128210238D01*
X98270357Y-126972142D02*
X98353690Y-127067380D01*
X98353690Y-127067380D02*
X98246548Y-127162619D01*
X98246548Y-127162619D02*
X98163214Y-127067380D01*
X98163214Y-127067380D02*
X98270357Y-126972142D01*
X98270357Y-126972142D02*
X98246548Y-127162619D01*
X100556072Y-126210238D02*
X100972739Y-128210238D01*
X100972739Y-128210238D02*
X101889405Y-126210238D01*
X103353691Y-128210238D02*
X102210834Y-128210238D01*
X102782263Y-128210238D02*
X103032263Y-126210238D01*
X103032263Y-126210238D02*
X102806072Y-126495952D01*
X102806072Y-126495952D02*
X102591787Y-126686428D01*
X102591787Y-126686428D02*
X102389406Y-126781666D01*
X105829882Y-127448333D02*
X107353692Y-127448333D01*
X110901311Y-128019761D02*
X110794168Y-128115000D01*
X110794168Y-128115000D02*
X110496549Y-128210238D01*
X110496549Y-128210238D02*
X110306073Y-128210238D01*
X110306073Y-128210238D02*
X110032263Y-128115000D01*
X110032263Y-128115000D02*
X109865597Y-127924523D01*
X109865597Y-127924523D02*
X109794168Y-127734047D01*
X109794168Y-127734047D02*
X109746549Y-127353095D01*
X109746549Y-127353095D02*
X109782263Y-127067380D01*
X109782263Y-127067380D02*
X109925120Y-126686428D01*
X109925120Y-126686428D02*
X110044168Y-126495952D01*
X110044168Y-126495952D02*
X110258454Y-126305476D01*
X110258454Y-126305476D02*
X110556073Y-126210238D01*
X110556073Y-126210238D02*
X110746549Y-126210238D01*
X110746549Y-126210238D02*
X111020359Y-126305476D01*
X111020359Y-126305476D02*
X111103692Y-126400714D01*
X111734644Y-128210238D02*
X111984644Y-126210238D01*
X111984644Y-126210238D02*
X112472739Y-127638809D01*
X112472739Y-127638809D02*
X113317978Y-126210238D01*
X113317978Y-126210238D02*
X113067978Y-128210238D01*
X115044168Y-126876904D02*
X114877501Y-128210238D01*
X114663215Y-126115000D02*
X114008453Y-127543571D01*
X114008453Y-127543571D02*
X115246549Y-127543571D01*
X118246549Y-127162619D02*
X118520359Y-127257857D01*
X118520359Y-127257857D02*
X118603692Y-127353095D01*
X118603692Y-127353095D02*
X118675121Y-127543571D01*
X118675121Y-127543571D02*
X118639406Y-127829285D01*
X118639406Y-127829285D02*
X118520359Y-128019761D01*
X118520359Y-128019761D02*
X118413216Y-128115000D01*
X118413216Y-128115000D02*
X118210835Y-128210238D01*
X118210835Y-128210238D02*
X117448930Y-128210238D01*
X117448930Y-128210238D02*
X117698930Y-126210238D01*
X117698930Y-126210238D02*
X118365597Y-126210238D01*
X118365597Y-126210238D02*
X118544168Y-126305476D01*
X118544168Y-126305476D02*
X118627502Y-126400714D01*
X118627502Y-126400714D02*
X118698930Y-126591190D01*
X118698930Y-126591190D02*
X118675121Y-126781666D01*
X118675121Y-126781666D02*
X118556073Y-126972142D01*
X118556073Y-126972142D02*
X118448930Y-127067380D01*
X118448930Y-127067380D02*
X118246549Y-127162619D01*
X118246549Y-127162619D02*
X117579883Y-127162619D01*
X119734645Y-128210238D02*
X119556073Y-128115000D01*
X119556073Y-128115000D02*
X119472740Y-128019761D01*
X119472740Y-128019761D02*
X119401311Y-127829285D01*
X119401311Y-127829285D02*
X119472740Y-127257857D01*
X119472740Y-127257857D02*
X119591787Y-127067380D01*
X119591787Y-127067380D02*
X119698930Y-126972142D01*
X119698930Y-126972142D02*
X119901311Y-126876904D01*
X119901311Y-126876904D02*
X120187025Y-126876904D01*
X120187025Y-126876904D02*
X120365597Y-126972142D01*
X120365597Y-126972142D02*
X120448930Y-127067380D01*
X120448930Y-127067380D02*
X120520359Y-127257857D01*
X120520359Y-127257857D02*
X120448930Y-127829285D01*
X120448930Y-127829285D02*
X120329883Y-128019761D01*
X120329883Y-128019761D02*
X120222740Y-128115000D01*
X120222740Y-128115000D02*
X120020359Y-128210238D01*
X120020359Y-128210238D02*
X119734645Y-128210238D01*
X122115597Y-128210238D02*
X122246549Y-127162619D01*
X122246549Y-127162619D02*
X122175121Y-126972142D01*
X122175121Y-126972142D02*
X121996549Y-126876904D01*
X121996549Y-126876904D02*
X121615597Y-126876904D01*
X121615597Y-126876904D02*
X121413216Y-126972142D01*
X122127502Y-128115000D02*
X121925121Y-128210238D01*
X121925121Y-128210238D02*
X121448930Y-128210238D01*
X121448930Y-128210238D02*
X121270359Y-128115000D01*
X121270359Y-128115000D02*
X121198930Y-127924523D01*
X121198930Y-127924523D02*
X121222740Y-127734047D01*
X121222740Y-127734047D02*
X121341788Y-127543571D01*
X121341788Y-127543571D02*
X121544169Y-127448333D01*
X121544169Y-127448333D02*
X122020359Y-127448333D01*
X122020359Y-127448333D02*
X122222740Y-127353095D01*
X123067978Y-128210238D02*
X123234645Y-126876904D01*
X123187026Y-127257857D02*
X123306073Y-127067380D01*
X123306073Y-127067380D02*
X123413216Y-126972142D01*
X123413216Y-126972142D02*
X123615597Y-126876904D01*
X123615597Y-126876904D02*
X123806073Y-126876904D01*
X125163216Y-128210238D02*
X125413216Y-126210238D01*
X125175121Y-128115000D02*
X124972740Y-128210238D01*
X124972740Y-128210238D02*
X124591788Y-128210238D01*
X124591788Y-128210238D02*
X124413216Y-128115000D01*
X124413216Y-128115000D02*
X124329883Y-128019761D01*
X124329883Y-128019761D02*
X124258454Y-127829285D01*
X124258454Y-127829285D02*
X124329883Y-127257857D01*
X124329883Y-127257857D02*
X124448930Y-127067380D01*
X124448930Y-127067380D02*
X124556073Y-126972142D01*
X124556073Y-126972142D02*
X124758454Y-126876904D01*
X124758454Y-126876904D02*
X125139407Y-126876904D01*
X125139407Y-126876904D02*
X125317978Y-126972142D01*
D10*
D11*
X91963026Y-123606214D02*
X91463026Y-123606214D01*
X91463026Y-124391928D02*
X91463026Y-122891928D01*
X91463026Y-122891928D02*
X92177312Y-122891928D01*
X92748740Y-124391928D02*
X92748740Y-123391928D01*
X92748740Y-122891928D02*
X92677312Y-122963357D01*
X92677312Y-122963357D02*
X92748740Y-123034785D01*
X92748740Y-123034785D02*
X92820169Y-122963357D01*
X92820169Y-122963357D02*
X92748740Y-122891928D01*
X92748740Y-122891928D02*
X92748740Y-123034785D01*
X93677312Y-124391928D02*
X93534455Y-124320500D01*
X93534455Y-124320500D02*
X93463026Y-124177642D01*
X93463026Y-124177642D02*
X93463026Y-122891928D01*
X94820169Y-124320500D02*
X94677312Y-124391928D01*
X94677312Y-124391928D02*
X94391598Y-124391928D01*
X94391598Y-124391928D02*
X94248740Y-124320500D01*
X94248740Y-124320500D02*
X94177312Y-124177642D01*
X94177312Y-124177642D02*
X94177312Y-123606214D01*
X94177312Y-123606214D02*
X94248740Y-123463357D01*
X94248740Y-123463357D02*
X94391598Y-123391928D01*
X94391598Y-123391928D02*
X94677312Y-123391928D01*
X94677312Y-123391928D02*
X94820169Y-123463357D01*
X94820169Y-123463357D02*
X94891598Y-123606214D01*
X94891598Y-123606214D02*
X94891598Y-123749071D01*
X94891598Y-123749071D02*
X94177312Y-123891928D01*
X95534454Y-124249071D02*
X95605883Y-124320500D01*
X95605883Y-124320500D02*
X95534454Y-124391928D01*
X95534454Y-124391928D02*
X95463026Y-124320500D01*
X95463026Y-124320500D02*
X95534454Y-124249071D01*
X95534454Y-124249071D02*
X95534454Y-124391928D01*
X95534454Y-123463357D02*
X95605883Y-123534785D01*
X95605883Y-123534785D02*
X95534454Y-123606214D01*
X95534454Y-123606214D02*
X95463026Y-123534785D01*
X95463026Y-123534785D02*
X95534454Y-123463357D01*
X95534454Y-123463357D02*
X95534454Y-123606214D01*
X98034455Y-124320500D02*
X97891597Y-124391928D01*
X97891597Y-124391928D02*
X97605883Y-124391928D01*
X97605883Y-124391928D02*
X97463026Y-124320500D01*
X97463026Y-124320500D02*
X97391597Y-124249071D01*
X97391597Y-124249071D02*
X97320169Y-124106214D01*
X97320169Y-124106214D02*
X97320169Y-123677642D01*
X97320169Y-123677642D02*
X97391597Y-123534785D01*
X97391597Y-123534785D02*
X97463026Y-123463357D01*
X97463026Y-123463357D02*
X97605883Y-123391928D01*
X97605883Y-123391928D02*
X97891597Y-123391928D01*
X97891597Y-123391928D02*
X98034455Y-123463357D01*
X98677311Y-124391928D02*
X98677311Y-123391928D01*
X98677311Y-123534785D02*
X98748740Y-123463357D01*
X98748740Y-123463357D02*
X98891597Y-123391928D01*
X98891597Y-123391928D02*
X99105883Y-123391928D01*
X99105883Y-123391928D02*
X99248740Y-123463357D01*
X99248740Y-123463357D02*
X99320169Y-123606214D01*
X99320169Y-123606214D02*
X99320169Y-124391928D01*
X99320169Y-123606214D02*
X99391597Y-123463357D01*
X99391597Y-123463357D02*
X99534454Y-123391928D01*
X99534454Y-123391928D02*
X99748740Y-123391928D01*
X99748740Y-123391928D02*
X99891597Y-123463357D01*
X99891597Y-123463357D02*
X99963026Y-123606214D01*
X99963026Y-123606214D02*
X99963026Y-124391928D01*
X101320169Y-123391928D02*
X101320169Y-124391928D01*
X100963026Y-122820500D02*
X100605883Y-123891928D01*
X100605883Y-123891928D02*
X101534454Y-123891928D01*
X102105882Y-123820500D02*
X103248740Y-123820500D01*
X103963025Y-124391928D02*
X103963025Y-122891928D01*
X103963025Y-123463357D02*
X104105883Y-123391928D01*
X104105883Y-123391928D02*
X104391597Y-123391928D01*
X104391597Y-123391928D02*
X104534454Y-123463357D01*
X104534454Y-123463357D02*
X104605883Y-123534785D01*
X104605883Y-123534785D02*
X104677311Y-123677642D01*
X104677311Y-123677642D02*
X104677311Y-124106214D01*
X104677311Y-124106214D02*
X104605883Y-124249071D01*
X104605883Y-124249071D02*
X104534454Y-124320500D01*
X104534454Y-124320500D02*
X104391597Y-124391928D01*
X104391597Y-124391928D02*
X104105883Y-124391928D01*
X104105883Y-124391928D02*
X103963025Y-124320500D01*
X105963026Y-124391928D02*
X105963026Y-123606214D01*
X105963026Y-123606214D02*
X105891597Y-123463357D01*
X105891597Y-123463357D02*
X105748740Y-123391928D01*
X105748740Y-123391928D02*
X105463026Y-123391928D01*
X105463026Y-123391928D02*
X105320168Y-123463357D01*
X105963026Y-124320500D02*
X105820168Y-124391928D01*
X105820168Y-124391928D02*
X105463026Y-124391928D01*
X105463026Y-124391928D02*
X105320168Y-124320500D01*
X105320168Y-124320500D02*
X105248740Y-124177642D01*
X105248740Y-124177642D02*
X105248740Y-124034785D01*
X105248740Y-124034785D02*
X105320168Y-123891928D01*
X105320168Y-123891928D02*
X105463026Y-123820500D01*
X105463026Y-123820500D02*
X105820168Y-123820500D01*
X105820168Y-123820500D02*
X105963026Y-123749071D01*
X106677311Y-124391928D02*
X106677311Y-123391928D01*
X106677311Y-123677642D02*
X106748740Y-123534785D01*
X106748740Y-123534785D02*
X106820169Y-123463357D01*
X106820169Y-123463357D02*
X106963026Y-123391928D01*
X106963026Y-123391928D02*
X107105883Y-123391928D01*
X108177311Y-124320500D02*
X108034454Y-124391928D01*
X108034454Y-124391928D02*
X107748740Y-124391928D01*
X107748740Y-124391928D02*
X107605882Y-124320500D01*
X107605882Y-124320500D02*
X107534454Y-124177642D01*
X107534454Y-124177642D02*
X107534454Y-123606214D01*
X107534454Y-123606214D02*
X107605882Y-123463357D01*
X107605882Y-123463357D02*
X107748740Y-123391928D01*
X107748740Y-123391928D02*
X108034454Y-123391928D01*
X108034454Y-123391928D02*
X108177311Y-123463357D01*
X108177311Y-123463357D02*
X108248740Y-123606214D01*
X108248740Y-123606214D02*
X108248740Y-123749071D01*
X108248740Y-123749071D02*
X107534454Y-123891928D01*
X108891596Y-123820500D02*
X110034454Y-123820500D01*
X110748739Y-124391928D02*
X110748739Y-123391928D01*
X110748739Y-123534785D02*
X110820168Y-123463357D01*
X110820168Y-123463357D02*
X110963025Y-123391928D01*
X110963025Y-123391928D02*
X111177311Y-123391928D01*
X111177311Y-123391928D02*
X111320168Y-123463357D01*
X111320168Y-123463357D02*
X111391597Y-123606214D01*
X111391597Y-123606214D02*
X111391597Y-124391928D01*
X111391597Y-123606214D02*
X111463025Y-123463357D01*
X111463025Y-123463357D02*
X111605882Y-123391928D01*
X111605882Y-123391928D02*
X111820168Y-123391928D01*
X111820168Y-123391928D02*
X111963025Y-123463357D01*
X111963025Y-123463357D02*
X112034454Y-123606214D01*
X112034454Y-123606214D02*
X112034454Y-124391928D01*
X112748739Y-124391928D02*
X112748739Y-123391928D01*
X112748739Y-122891928D02*
X112677311Y-122963357D01*
X112677311Y-122963357D02*
X112748739Y-123034785D01*
X112748739Y-123034785D02*
X112820168Y-122963357D01*
X112820168Y-122963357D02*
X112748739Y-122891928D01*
X112748739Y-122891928D02*
X112748739Y-123034785D01*
X113463025Y-123391928D02*
X113463025Y-124391928D01*
X113463025Y-123534785D02*
X113534454Y-123463357D01*
X113534454Y-123463357D02*
X113677311Y-123391928D01*
X113677311Y-123391928D02*
X113891597Y-123391928D01*
X113891597Y-123391928D02*
X114034454Y-123463357D01*
X114034454Y-123463357D02*
X114105883Y-123606214D01*
X114105883Y-123606214D02*
X114105883Y-124391928D01*
X114820168Y-124391928D02*
X114820168Y-123391928D01*
X114820168Y-122891928D02*
X114748740Y-122963357D01*
X114748740Y-122963357D02*
X114820168Y-123034785D01*
X114820168Y-123034785D02*
X114891597Y-122963357D01*
X114891597Y-122963357D02*
X114820168Y-122891928D01*
X114820168Y-122891928D02*
X114820168Y-123034785D01*
X115534454Y-124391928D02*
X115534454Y-123391928D01*
X115534454Y-123534785D02*
X115605883Y-123463357D01*
X115605883Y-123463357D02*
X115748740Y-123391928D01*
X115748740Y-123391928D02*
X115963026Y-123391928D01*
X115963026Y-123391928D02*
X116105883Y-123463357D01*
X116105883Y-123463357D02*
X116177312Y-123606214D01*
X116177312Y-123606214D02*
X116177312Y-124391928D01*
X116177312Y-123606214D02*
X116248740Y-123463357D01*
X116248740Y-123463357D02*
X116391597Y-123391928D01*
X116391597Y-123391928D02*
X116605883Y-123391928D01*
X116605883Y-123391928D02*
X116748740Y-123463357D01*
X116748740Y-123463357D02*
X116820169Y-123606214D01*
X116820169Y-123606214D02*
X116820169Y-124391928D01*
X118177312Y-123391928D02*
X118177312Y-124391928D01*
X117534454Y-123391928D02*
X117534454Y-124177642D01*
X117534454Y-124177642D02*
X117605883Y-124320500D01*
X117605883Y-124320500D02*
X117748740Y-124391928D01*
X117748740Y-124391928D02*
X117963026Y-124391928D01*
X117963026Y-124391928D02*
X118105883Y-124320500D01*
X118105883Y-124320500D02*
X118177312Y-124249071D01*
X118891597Y-124391928D02*
X118891597Y-123391928D01*
X118891597Y-123534785D02*
X118963026Y-123463357D01*
X118963026Y-123463357D02*
X119105883Y-123391928D01*
X119105883Y-123391928D02*
X119320169Y-123391928D01*
X119320169Y-123391928D02*
X119463026Y-123463357D01*
X119463026Y-123463357D02*
X119534455Y-123606214D01*
X119534455Y-123606214D02*
X119534455Y-124391928D01*
X119534455Y-123606214D02*
X119605883Y-123463357D01*
X119605883Y-123463357D02*
X119748740Y-123391928D01*
X119748740Y-123391928D02*
X119963026Y-123391928D01*
X119963026Y-123391928D02*
X120105883Y-123463357D01*
X120105883Y-123463357D02*
X120177312Y-123606214D01*
X120177312Y-123606214D02*
X120177312Y-124391928D01*
X120891597Y-124249071D02*
X120963026Y-124320500D01*
X120963026Y-124320500D02*
X120891597Y-124391928D01*
X120891597Y-124391928D02*
X120820169Y-124320500D01*
X120820169Y-124320500D02*
X120891597Y-124249071D01*
X120891597Y-124249071D02*
X120891597Y-124391928D01*
X121605883Y-124391928D02*
X121605883Y-122891928D01*
X121748741Y-123820500D02*
X122177312Y-124391928D01*
X122177312Y-123391928D02*
X121605883Y-123963357D01*
X122820169Y-124391928D02*
X122820169Y-123391928D01*
X122820169Y-122891928D02*
X122748741Y-122963357D01*
X122748741Y-122963357D02*
X122820169Y-123034785D01*
X122820169Y-123034785D02*
X122891598Y-122963357D01*
X122891598Y-122963357D02*
X122820169Y-122891928D01*
X122820169Y-122891928D02*
X122820169Y-123034785D01*
X124177313Y-124320500D02*
X124034455Y-124391928D01*
X124034455Y-124391928D02*
X123748741Y-124391928D01*
X123748741Y-124391928D02*
X123605884Y-124320500D01*
X123605884Y-124320500D02*
X123534455Y-124249071D01*
X123534455Y-124249071D02*
X123463027Y-124106214D01*
X123463027Y-124106214D02*
X123463027Y-123677642D01*
X123463027Y-123677642D02*
X123534455Y-123534785D01*
X123534455Y-123534785D02*
X123605884Y-123463357D01*
X123605884Y-123463357D02*
X123748741Y-123391928D01*
X123748741Y-123391928D02*
X124034455Y-123391928D01*
X124034455Y-123391928D02*
X124177313Y-123463357D01*
X125463027Y-124391928D02*
X125463027Y-123606214D01*
X125463027Y-123606214D02*
X125391598Y-123463357D01*
X125391598Y-123463357D02*
X125248741Y-123391928D01*
X125248741Y-123391928D02*
X124963027Y-123391928D01*
X124963027Y-123391928D02*
X124820169Y-123463357D01*
X125463027Y-124320500D02*
X125320169Y-124391928D01*
X125320169Y-124391928D02*
X124963027Y-124391928D01*
X124963027Y-124391928D02*
X124820169Y-124320500D01*
X124820169Y-124320500D02*
X124748741Y-124177642D01*
X124748741Y-124177642D02*
X124748741Y-124034785D01*
X124748741Y-124034785D02*
X124820169Y-123891928D01*
X124820169Y-123891928D02*
X124963027Y-123820500D01*
X124963027Y-123820500D02*
X125320169Y-123820500D01*
X125320169Y-123820500D02*
X125463027Y-123749071D01*
X126820170Y-124391928D02*
X126820170Y-122891928D01*
X126820170Y-124320500D02*
X126677312Y-124391928D01*
X126677312Y-124391928D02*
X126391598Y-124391928D01*
X126391598Y-124391928D02*
X126248741Y-124320500D01*
X126248741Y-124320500D02*
X126177312Y-124249071D01*
X126177312Y-124249071D02*
X126105884Y-124106214D01*
X126105884Y-124106214D02*
X126105884Y-123677642D01*
X126105884Y-123677642D02*
X126177312Y-123534785D01*
X126177312Y-123534785D02*
X126248741Y-123463357D01*
X126248741Y-123463357D02*
X126391598Y-123391928D01*
X126391598Y-123391928D02*
X126677312Y-123391928D01*
X126677312Y-123391928D02*
X126820170Y-123463357D01*
X127177313Y-124534785D02*
X128320170Y-124534785D01*
X128677312Y-123391928D02*
X128677312Y-124891928D01*
X128677312Y-123463357D02*
X128820170Y-123391928D01*
X128820170Y-123391928D02*
X129105884Y-123391928D01*
X129105884Y-123391928D02*
X129248741Y-123463357D01*
X129248741Y-123463357D02*
X129320170Y-123534785D01*
X129320170Y-123534785D02*
X129391598Y-123677642D01*
X129391598Y-123677642D02*
X129391598Y-124106214D01*
X129391598Y-124106214D02*
X129320170Y-124249071D01*
X129320170Y-124249071D02*
X129248741Y-124320500D01*
X129248741Y-124320500D02*
X129105884Y-124391928D01*
X129105884Y-124391928D02*
X128820170Y-124391928D01*
X128820170Y-124391928D02*
X128677312Y-124320500D01*
X130677313Y-124320500D02*
X130534455Y-124391928D01*
X130534455Y-124391928D02*
X130248741Y-124391928D01*
X130248741Y-124391928D02*
X130105884Y-124320500D01*
X130105884Y-124320500D02*
X130034455Y-124249071D01*
X130034455Y-124249071D02*
X129963027Y-124106214D01*
X129963027Y-124106214D02*
X129963027Y-123677642D01*
X129963027Y-123677642D02*
X130034455Y-123534785D01*
X130034455Y-123534785D02*
X130105884Y-123463357D01*
X130105884Y-123463357D02*
X130248741Y-123391928D01*
X130248741Y-123391928D02*
X130534455Y-123391928D01*
X130534455Y-123391928D02*
X130677313Y-123463357D01*
X131320169Y-124391928D02*
X131320169Y-122891928D01*
X131320169Y-123463357D02*
X131463027Y-123391928D01*
X131463027Y-123391928D02*
X131748741Y-123391928D01*
X131748741Y-123391928D02*
X131891598Y-123463357D01*
X131891598Y-123463357D02*
X131963027Y-123534785D01*
X131963027Y-123534785D02*
X132034455Y-123677642D01*
X132034455Y-123677642D02*
X132034455Y-124106214D01*
X132034455Y-124106214D02*
X131963027Y-124249071D01*
X131963027Y-124249071D02*
X131891598Y-124320500D01*
X131891598Y-124320500D02*
X131748741Y-124391928D01*
X131748741Y-124391928D02*
X131463027Y-124391928D01*
X131463027Y-124391928D02*
X131320169Y-124320500D01*
D10*
D11*
X90007200Y-119505800D02*
X198007200Y-119505800D01*
D10*
D11*
X91391598Y-121620500D02*
X91605884Y-121691928D01*
X91605884Y-121691928D02*
X91963026Y-121691928D01*
X91963026Y-121691928D02*
X92105884Y-121620500D01*
X92105884Y-121620500D02*
X92177312Y-121549071D01*
X92177312Y-121549071D02*
X92248741Y-121406214D01*
X92248741Y-121406214D02*
X92248741Y-121263357D01*
X92248741Y-121263357D02*
X92177312Y-121120500D01*
X92177312Y-121120500D02*
X92105884Y-121049071D01*
X92105884Y-121049071D02*
X91963026Y-120977642D01*
X91963026Y-120977642D02*
X91677312Y-120906214D01*
X91677312Y-120906214D02*
X91534455Y-120834785D01*
X91534455Y-120834785D02*
X91463026Y-120763357D01*
X91463026Y-120763357D02*
X91391598Y-120620500D01*
X91391598Y-120620500D02*
X91391598Y-120477642D01*
X91391598Y-120477642D02*
X91463026Y-120334785D01*
X91463026Y-120334785D02*
X91534455Y-120263357D01*
X91534455Y-120263357D02*
X91677312Y-120191928D01*
X91677312Y-120191928D02*
X92034455Y-120191928D01*
X92034455Y-120191928D02*
X92248741Y-120263357D01*
X92891597Y-121691928D02*
X92891597Y-120191928D01*
X93534455Y-121691928D02*
X93534455Y-120906214D01*
X93534455Y-120906214D02*
X93463026Y-120763357D01*
X93463026Y-120763357D02*
X93320169Y-120691928D01*
X93320169Y-120691928D02*
X93105883Y-120691928D01*
X93105883Y-120691928D02*
X92963026Y-120763357D01*
X92963026Y-120763357D02*
X92891597Y-120834785D01*
X94820169Y-121620500D02*
X94677312Y-121691928D01*
X94677312Y-121691928D02*
X94391598Y-121691928D01*
X94391598Y-121691928D02*
X94248740Y-121620500D01*
X94248740Y-121620500D02*
X94177312Y-121477642D01*
X94177312Y-121477642D02*
X94177312Y-120906214D01*
X94177312Y-120906214D02*
X94248740Y-120763357D01*
X94248740Y-120763357D02*
X94391598Y-120691928D01*
X94391598Y-120691928D02*
X94677312Y-120691928D01*
X94677312Y-120691928D02*
X94820169Y-120763357D01*
X94820169Y-120763357D02*
X94891598Y-120906214D01*
X94891598Y-120906214D02*
X94891598Y-121049071D01*
X94891598Y-121049071D02*
X94177312Y-121191928D01*
X96105883Y-121620500D02*
X95963026Y-121691928D01*
X95963026Y-121691928D02*
X95677312Y-121691928D01*
X95677312Y-121691928D02*
X95534454Y-121620500D01*
X95534454Y-121620500D02*
X95463026Y-121477642D01*
X95463026Y-121477642D02*
X95463026Y-120906214D01*
X95463026Y-120906214D02*
X95534454Y-120763357D01*
X95534454Y-120763357D02*
X95677312Y-120691928D01*
X95677312Y-120691928D02*
X95963026Y-120691928D01*
X95963026Y-120691928D02*
X96105883Y-120763357D01*
X96105883Y-120763357D02*
X96177312Y-120906214D01*
X96177312Y-120906214D02*
X96177312Y-121049071D01*
X96177312Y-121049071D02*
X95463026Y-121191928D01*
X96605883Y-120691928D02*
X97177311Y-120691928D01*
X96820168Y-120191928D02*
X96820168Y-121477642D01*
X96820168Y-121477642D02*
X96891597Y-121620500D01*
X96891597Y-121620500D02*
X97034454Y-121691928D01*
X97034454Y-121691928D02*
X97177311Y-121691928D01*
X97677311Y-121549071D02*
X97748740Y-121620500D01*
X97748740Y-121620500D02*
X97677311Y-121691928D01*
X97677311Y-121691928D02*
X97605883Y-121620500D01*
X97605883Y-121620500D02*
X97677311Y-121549071D01*
X97677311Y-121549071D02*
X97677311Y-121691928D01*
X97677311Y-120763357D02*
X97748740Y-120834785D01*
X97748740Y-120834785D02*
X97677311Y-120906214D01*
X97677311Y-120906214D02*
X97605883Y-120834785D01*
X97605883Y-120834785D02*
X97677311Y-120763357D01*
X97677311Y-120763357D02*
X97677311Y-120906214D01*
D10*
D12*
X92418853Y-118684128D02*
X91918853Y-117969842D01*
X91561710Y-118684128D02*
X91561710Y-117184128D01*
X91561710Y-117184128D02*
X92133139Y-117184128D01*
X92133139Y-117184128D02*
X92275996Y-117255557D01*
X92275996Y-117255557D02*
X92347425Y-117326985D01*
X92347425Y-117326985D02*
X92418853Y-117469842D01*
X92418853Y-117469842D02*
X92418853Y-117684128D01*
X92418853Y-117684128D02*
X92347425Y-117826985D01*
X92347425Y-117826985D02*
X92275996Y-117898414D01*
X92275996Y-117898414D02*
X92133139Y-117969842D01*
X92133139Y-117969842D02*
X91561710Y-117969842D01*
X93704568Y-118684128D02*
X93704568Y-117898414D01*
X93704568Y-117898414D02*
X93633139Y-117755557D01*
X93633139Y-117755557D02*
X93490282Y-117684128D01*
X93490282Y-117684128D02*
X93204568Y-117684128D01*
X93204568Y-117684128D02*
X93061710Y-117755557D01*
X93704568Y-118612700D02*
X93561710Y-118684128D01*
X93561710Y-118684128D02*
X93204568Y-118684128D01*
X93204568Y-118684128D02*
X93061710Y-118612700D01*
X93061710Y-118612700D02*
X92990282Y-118469842D01*
X92990282Y-118469842D02*
X92990282Y-118326985D01*
X92990282Y-118326985D02*
X93061710Y-118184128D01*
X93061710Y-118184128D02*
X93204568Y-118112700D01*
X93204568Y-118112700D02*
X93561710Y-118112700D01*
X93561710Y-118112700D02*
X93704568Y-118041271D01*
X94418853Y-117684128D02*
X94418853Y-119184128D01*
X94418853Y-117755557D02*
X94561711Y-117684128D01*
X94561711Y-117684128D02*
X94847425Y-117684128D01*
X94847425Y-117684128D02*
X94990282Y-117755557D01*
X94990282Y-117755557D02*
X95061711Y-117826985D01*
X95061711Y-117826985D02*
X95133139Y-117969842D01*
X95133139Y-117969842D02*
X95133139Y-118398414D01*
X95133139Y-118398414D02*
X95061711Y-118541271D01*
X95061711Y-118541271D02*
X94990282Y-118612700D01*
X94990282Y-118612700D02*
X94847425Y-118684128D01*
X94847425Y-118684128D02*
X94561711Y-118684128D01*
X94561711Y-118684128D02*
X94418853Y-118612700D01*
X95775996Y-118684128D02*
X95775996Y-117684128D01*
X95775996Y-117184128D02*
X95704568Y-117255557D01*
X95704568Y-117255557D02*
X95775996Y-117326985D01*
X95775996Y-117326985D02*
X95847425Y-117255557D01*
X95847425Y-117255557D02*
X95775996Y-117184128D01*
X95775996Y-117184128D02*
X95775996Y-117326985D01*
X97133140Y-118684128D02*
X97133140Y-117184128D01*
X97133140Y-118612700D02*
X96990282Y-118684128D01*
X96990282Y-118684128D02*
X96704568Y-118684128D01*
X96704568Y-118684128D02*
X96561711Y-118612700D01*
X96561711Y-118612700D02*
X96490282Y-118541271D01*
X96490282Y-118541271D02*
X96418854Y-118398414D01*
X96418854Y-118398414D02*
X96418854Y-117969842D01*
X96418854Y-117969842D02*
X96490282Y-117826985D01*
X96490282Y-117826985D02*
X96561711Y-117755557D01*
X96561711Y-117755557D02*
X96704568Y-117684128D01*
X96704568Y-117684128D02*
X96990282Y-117684128D01*
X96990282Y-117684128D02*
X97133140Y-117755557D01*
X98918854Y-118255557D02*
X99633140Y-118255557D01*
X98775997Y-118684128D02*
X99275997Y-117184128D01*
X99275997Y-117184128D02*
X99775997Y-118684128D01*
X100275996Y-117684128D02*
X100275996Y-118684128D01*
X100275996Y-117826985D02*
X100347425Y-117755557D01*
X100347425Y-117755557D02*
X100490282Y-117684128D01*
X100490282Y-117684128D02*
X100704568Y-117684128D01*
X100704568Y-117684128D02*
X100847425Y-117755557D01*
X100847425Y-117755557D02*
X100918854Y-117898414D01*
X100918854Y-117898414D02*
X100918854Y-118684128D01*
X102275997Y-118684128D02*
X102275997Y-117898414D01*
X102275997Y-117898414D02*
X102204568Y-117755557D01*
X102204568Y-117755557D02*
X102061711Y-117684128D01*
X102061711Y-117684128D02*
X101775997Y-117684128D01*
X101775997Y-117684128D02*
X101633139Y-117755557D01*
X102275997Y-118612700D02*
X102133139Y-118684128D01*
X102133139Y-118684128D02*
X101775997Y-118684128D01*
X101775997Y-118684128D02*
X101633139Y-118612700D01*
X101633139Y-118612700D02*
X101561711Y-118469842D01*
X101561711Y-118469842D02*
X101561711Y-118326985D01*
X101561711Y-118326985D02*
X101633139Y-118184128D01*
X101633139Y-118184128D02*
X101775997Y-118112700D01*
X101775997Y-118112700D02*
X102133139Y-118112700D01*
X102133139Y-118112700D02*
X102275997Y-118041271D01*
X103204568Y-118684128D02*
X103061711Y-118612700D01*
X103061711Y-118612700D02*
X102990282Y-118469842D01*
X102990282Y-118469842D02*
X102990282Y-117184128D01*
X103633139Y-117684128D02*
X103990282Y-118684128D01*
X104347425Y-117684128D02*
X103990282Y-118684128D01*
X103990282Y-118684128D02*
X103847425Y-119041271D01*
X103847425Y-119041271D02*
X103775996Y-119112700D01*
X103775996Y-119112700D02*
X103633139Y-119184128D01*
X104847425Y-118612700D02*
X104990282Y-118684128D01*
X104990282Y-118684128D02*
X105275996Y-118684128D01*
X105275996Y-118684128D02*
X105418853Y-118612700D01*
X105418853Y-118612700D02*
X105490282Y-118469842D01*
X105490282Y-118469842D02*
X105490282Y-118398414D01*
X105490282Y-118398414D02*
X105418853Y-118255557D01*
X105418853Y-118255557D02*
X105275996Y-118184128D01*
X105275996Y-118184128D02*
X105061711Y-118184128D01*
X105061711Y-118184128D02*
X104918853Y-118112700D01*
X104918853Y-118112700D02*
X104847425Y-117969842D01*
X104847425Y-117969842D02*
X104847425Y-117898414D01*
X104847425Y-117898414D02*
X104918853Y-117755557D01*
X104918853Y-117755557D02*
X105061711Y-117684128D01*
X105061711Y-117684128D02*
X105275996Y-117684128D01*
X105275996Y-117684128D02*
X105418853Y-117755557D01*
X106133139Y-118684128D02*
X106133139Y-117684128D01*
X106133139Y-117184128D02*
X106061711Y-117255557D01*
X106061711Y-117255557D02*
X106133139Y-117326985D01*
X106133139Y-117326985D02*
X106204568Y-117255557D01*
X106204568Y-117255557D02*
X106133139Y-117184128D01*
X106133139Y-117184128D02*
X106133139Y-117326985D01*
X106775997Y-118612700D02*
X106918854Y-118684128D01*
X106918854Y-118684128D02*
X107204568Y-118684128D01*
X107204568Y-118684128D02*
X107347425Y-118612700D01*
X107347425Y-118612700D02*
X107418854Y-118469842D01*
X107418854Y-118469842D02*
X107418854Y-118398414D01*
X107418854Y-118398414D02*
X107347425Y-118255557D01*
X107347425Y-118255557D02*
X107204568Y-118184128D01*
X107204568Y-118184128D02*
X106990283Y-118184128D01*
X106990283Y-118184128D02*
X106847425Y-118112700D01*
X106847425Y-118112700D02*
X106775997Y-117969842D01*
X106775997Y-117969842D02*
X106775997Y-117898414D01*
X106775997Y-117898414D02*
X106847425Y-117755557D01*
X106847425Y-117755557D02*
X106990283Y-117684128D01*
X106990283Y-117684128D02*
X107204568Y-117684128D01*
X107204568Y-117684128D02*
X107347425Y-117755557D01*
D10*
D11*
X91391598Y-115263357D02*
X92105884Y-115263357D01*
X91248741Y-115691928D02*
X91748741Y-114191928D01*
X91748741Y-114191928D02*
X92248741Y-115691928D01*
X93391598Y-114691928D02*
X93391598Y-115691928D01*
X92748740Y-114691928D02*
X92748740Y-115477642D01*
X92748740Y-115477642D02*
X92820169Y-115620500D01*
X92820169Y-115620500D02*
X92963026Y-115691928D01*
X92963026Y-115691928D02*
X93177312Y-115691928D01*
X93177312Y-115691928D02*
X93320169Y-115620500D01*
X93320169Y-115620500D02*
X93391598Y-115549071D01*
X93891598Y-114691928D02*
X94463026Y-114691928D01*
X94105883Y-114191928D02*
X94105883Y-115477642D01*
X94105883Y-115477642D02*
X94177312Y-115620500D01*
X94177312Y-115620500D02*
X94320169Y-115691928D01*
X94320169Y-115691928D02*
X94463026Y-115691928D01*
X94963026Y-115691928D02*
X94963026Y-114191928D01*
X95605884Y-115691928D02*
X95605884Y-114906214D01*
X95605884Y-114906214D02*
X95534455Y-114763357D01*
X95534455Y-114763357D02*
X95391598Y-114691928D01*
X95391598Y-114691928D02*
X95177312Y-114691928D01*
X95177312Y-114691928D02*
X95034455Y-114763357D01*
X95034455Y-114763357D02*
X94963026Y-114834785D01*
X96534455Y-115691928D02*
X96391598Y-115620500D01*
X96391598Y-115620500D02*
X96320169Y-115549071D01*
X96320169Y-115549071D02*
X96248741Y-115406214D01*
X96248741Y-115406214D02*
X96248741Y-114977642D01*
X96248741Y-114977642D02*
X96320169Y-114834785D01*
X96320169Y-114834785D02*
X96391598Y-114763357D01*
X96391598Y-114763357D02*
X96534455Y-114691928D01*
X96534455Y-114691928D02*
X96748741Y-114691928D01*
X96748741Y-114691928D02*
X96891598Y-114763357D01*
X96891598Y-114763357D02*
X96963027Y-114834785D01*
X96963027Y-114834785D02*
X97034455Y-114977642D01*
X97034455Y-114977642D02*
X97034455Y-115406214D01*
X97034455Y-115406214D02*
X96963027Y-115549071D01*
X96963027Y-115549071D02*
X96891598Y-115620500D01*
X96891598Y-115620500D02*
X96748741Y-115691928D01*
X96748741Y-115691928D02*
X96534455Y-115691928D01*
X97677312Y-115691928D02*
X97677312Y-114691928D01*
X97677312Y-114977642D02*
X97748741Y-114834785D01*
X97748741Y-114834785D02*
X97820170Y-114763357D01*
X97820170Y-114763357D02*
X97963027Y-114691928D01*
X97963027Y-114691928D02*
X98105884Y-114691928D01*
X98605883Y-115549071D02*
X98677312Y-115620500D01*
X98677312Y-115620500D02*
X98605883Y-115691928D01*
X98605883Y-115691928D02*
X98534455Y-115620500D01*
X98534455Y-115620500D02*
X98605883Y-115549071D01*
X98605883Y-115549071D02*
X98605883Y-115691928D01*
X98605883Y-114763357D02*
X98677312Y-114834785D01*
X98677312Y-114834785D02*
X98605883Y-114906214D01*
X98605883Y-114906214D02*
X98534455Y-114834785D01*
X98534455Y-114834785D02*
X98605883Y-114763357D01*
X98605883Y-114763357D02*
X98605883Y-114906214D01*
X100391598Y-115263357D02*
X101105884Y-115263357D01*
X100248741Y-115691928D02*
X100748741Y-114191928D01*
X100748741Y-114191928D02*
X101248741Y-115691928D01*
X101677312Y-115620500D02*
X101820169Y-115691928D01*
X101820169Y-115691928D02*
X102105883Y-115691928D01*
X102105883Y-115691928D02*
X102248740Y-115620500D01*
X102248740Y-115620500D02*
X102320169Y-115477642D01*
X102320169Y-115477642D02*
X102320169Y-115406214D01*
X102320169Y-115406214D02*
X102248740Y-115263357D01*
X102248740Y-115263357D02*
X102105883Y-115191928D01*
X102105883Y-115191928D02*
X101891598Y-115191928D01*
X101891598Y-115191928D02*
X101748740Y-115120500D01*
X101748740Y-115120500D02*
X101677312Y-114977642D01*
X101677312Y-114977642D02*
X101677312Y-114906214D01*
X101677312Y-114906214D02*
X101748740Y-114763357D01*
X101748740Y-114763357D02*
X101891598Y-114691928D01*
X101891598Y-114691928D02*
X102105883Y-114691928D01*
X102105883Y-114691928D02*
X102248740Y-114763357D01*
X103605884Y-115691928D02*
X103605884Y-114906214D01*
X103605884Y-114906214D02*
X103534455Y-114763357D01*
X103534455Y-114763357D02*
X103391598Y-114691928D01*
X103391598Y-114691928D02*
X103105884Y-114691928D01*
X103105884Y-114691928D02*
X102963026Y-114763357D01*
X103605884Y-115620500D02*
X103463026Y-115691928D01*
X103463026Y-115691928D02*
X103105884Y-115691928D01*
X103105884Y-115691928D02*
X102963026Y-115620500D01*
X102963026Y-115620500D02*
X102891598Y-115477642D01*
X102891598Y-115477642D02*
X102891598Y-115334785D01*
X102891598Y-115334785D02*
X102963026Y-115191928D01*
X102963026Y-115191928D02*
X103105884Y-115120500D01*
X103105884Y-115120500D02*
X103463026Y-115120500D01*
X103463026Y-115120500D02*
X103605884Y-115049071D01*
X104963027Y-115691928D02*
X104963027Y-114191928D01*
X104963027Y-115620500D02*
X104820169Y-115691928D01*
X104820169Y-115691928D02*
X104534455Y-115691928D01*
X104534455Y-115691928D02*
X104391598Y-115620500D01*
X104391598Y-115620500D02*
X104320169Y-115549071D01*
X104320169Y-115549071D02*
X104248741Y-115406214D01*
X104248741Y-115406214D02*
X104248741Y-114977642D01*
X104248741Y-114977642D02*
X104320169Y-114834785D01*
X104320169Y-114834785D02*
X104391598Y-114763357D01*
X104391598Y-114763357D02*
X104534455Y-114691928D01*
X104534455Y-114691928D02*
X104820169Y-114691928D01*
X104820169Y-114691928D02*
X104963027Y-114763357D01*
X106820169Y-115691928D02*
X106820169Y-114191928D01*
X107534455Y-115691928D02*
X107534455Y-114691928D01*
X107534455Y-114834785D02*
X107605884Y-114763357D01*
X107605884Y-114763357D02*
X107748741Y-114691928D01*
X107748741Y-114691928D02*
X107963027Y-114691928D01*
X107963027Y-114691928D02*
X108105884Y-114763357D01*
X108105884Y-114763357D02*
X108177313Y-114906214D01*
X108177313Y-114906214D02*
X108177313Y-115691928D01*
X108177313Y-114906214D02*
X108248741Y-114763357D01*
X108248741Y-114763357D02*
X108391598Y-114691928D01*
X108391598Y-114691928D02*
X108605884Y-114691928D01*
X108605884Y-114691928D02*
X108748741Y-114763357D01*
X108748741Y-114763357D02*
X108820170Y-114906214D01*
X108820170Y-114906214D02*
X108820170Y-115691928D01*
X109534455Y-115691928D02*
X109534455Y-114691928D01*
X109534455Y-114977642D02*
X109605884Y-114834785D01*
X109605884Y-114834785D02*
X109677313Y-114763357D01*
X109677313Y-114763357D02*
X109820170Y-114691928D01*
X109820170Y-114691928D02*
X109963027Y-114691928D01*
X111105884Y-115691928D02*
X111105884Y-114906214D01*
X111105884Y-114906214D02*
X111034455Y-114763357D01*
X111034455Y-114763357D02*
X110891598Y-114691928D01*
X110891598Y-114691928D02*
X110605884Y-114691928D01*
X110605884Y-114691928D02*
X110463026Y-114763357D01*
X111105884Y-115620500D02*
X110963026Y-115691928D01*
X110963026Y-115691928D02*
X110605884Y-115691928D01*
X110605884Y-115691928D02*
X110463026Y-115620500D01*
X110463026Y-115620500D02*
X110391598Y-115477642D01*
X110391598Y-115477642D02*
X110391598Y-115334785D01*
X110391598Y-115334785D02*
X110463026Y-115191928D01*
X110463026Y-115191928D02*
X110605884Y-115120500D01*
X110605884Y-115120500D02*
X110963026Y-115120500D01*
X110963026Y-115120500D02*
X111105884Y-115049071D01*
X111820169Y-114691928D02*
X111820169Y-115691928D01*
X111820169Y-114834785D02*
X111891598Y-114763357D01*
X111891598Y-114763357D02*
X112034455Y-114691928D01*
X112034455Y-114691928D02*
X112248741Y-114691928D01*
X112248741Y-114691928D02*
X112391598Y-114763357D01*
X112391598Y-114763357D02*
X112463027Y-114906214D01*
X112463027Y-114906214D02*
X112463027Y-115691928D01*
D10*
D11*
X110007200Y-129505800D02*
X110007200Y-132505800D01*
D10*
D11*
X174007200Y-129505800D02*
X174007200Y-136005800D01*
X77132142Y-80899819D02*
X76798809Y-80423628D01*
X76560714Y-80899819D02*
X76560714Y-79899819D01*
X76560714Y-79899819D02*
X76941666Y-79899819D01*
X76941666Y-79899819D02*
X77036904Y-79947438D01*
X77036904Y-79947438D02*
X77084523Y-79995057D01*
X77084523Y-79995057D02*
X77132142Y-80090295D01*
X77132142Y-80090295D02*
X77132142Y-80233152D01*
X77132142Y-80233152D02*
X77084523Y-80328390D01*
X77084523Y-80328390D02*
X77036904Y-80376009D01*
X77036904Y-80376009D02*
X76941666Y-80423628D01*
X76941666Y-80423628D02*
X76560714Y-80423628D01*
X78084523Y-80899819D02*
X77513095Y-80899819D01*
X77798809Y-80899819D02*
X77798809Y-79899819D01*
X77798809Y-79899819D02*
X77703571Y-80042676D01*
X77703571Y-80042676D02*
X77608333Y-80137914D01*
X77608333Y-80137914D02*
X77513095Y-80185533D01*
X79036904Y-80899819D02*
X78465476Y-80899819D01*
X78751190Y-80899819D02*
X78751190Y-79899819D01*
X78751190Y-79899819D02*
X78655952Y-80042676D01*
X78655952Y-80042676D02*
X78560714Y-80137914D01*
X78560714Y-80137914D02*
X78465476Y-80185533D01*
X81169580Y-63816666D02*
X81217200Y-63864285D01*
X81217200Y-63864285D02*
X81264819Y-64007142D01*
X81264819Y-64007142D02*
X81264819Y-64102380D01*
X81264819Y-64102380D02*
X81217200Y-64245237D01*
X81217200Y-64245237D02*
X81121961Y-64340475D01*
X81121961Y-64340475D02*
X81026723Y-64388094D01*
X81026723Y-64388094D02*
X80836247Y-64435713D01*
X80836247Y-64435713D02*
X80693390Y-64435713D01*
X80693390Y-64435713D02*
X80502914Y-64388094D01*
X80502914Y-64388094D02*
X80407676Y-64340475D01*
X80407676Y-64340475D02*
X80312438Y-64245237D01*
X80312438Y-64245237D02*
X80264819Y-64102380D01*
X80264819Y-64102380D02*
X80264819Y-64007142D01*
X80264819Y-64007142D02*
X80312438Y-63864285D01*
X80312438Y-63864285D02*
X80360057Y-63816666D01*
X81264819Y-62864285D02*
X81264819Y-63435713D01*
X81264819Y-63149999D02*
X80264819Y-63149999D01*
X80264819Y-63149999D02*
X80407676Y-63245237D01*
X80407676Y-63245237D02*
X80502914Y-63340475D01*
X80502914Y-63340475D02*
X80550533Y-63435713D01*
X52258333Y-62749819D02*
X51925000Y-62273628D01*
X51686905Y-62749819D02*
X51686905Y-61749819D01*
X51686905Y-61749819D02*
X52067857Y-61749819D01*
X52067857Y-61749819D02*
X52163095Y-61797438D01*
X52163095Y-61797438D02*
X52210714Y-61845057D01*
X52210714Y-61845057D02*
X52258333Y-61940295D01*
X52258333Y-61940295D02*
X52258333Y-62083152D01*
X52258333Y-62083152D02*
X52210714Y-62178390D01*
X52210714Y-62178390D02*
X52163095Y-62226009D01*
X52163095Y-62226009D02*
X52067857Y-62273628D01*
X52067857Y-62273628D02*
X51686905Y-62273628D01*
X52639286Y-61845057D02*
X52686905Y-61797438D01*
X52686905Y-61797438D02*
X52782143Y-61749819D01*
X52782143Y-61749819D02*
X53020238Y-61749819D01*
X53020238Y-61749819D02*
X53115476Y-61797438D01*
X53115476Y-61797438D02*
X53163095Y-61845057D01*
X53163095Y-61845057D02*
X53210714Y-61940295D01*
X53210714Y-61940295D02*
X53210714Y-62035533D01*
X53210714Y-62035533D02*
X53163095Y-62178390D01*
X53163095Y-62178390D02*
X52591667Y-62749819D01*
X52591667Y-62749819D02*
X53210714Y-62749819D01*
X52258333Y-65479819D02*
X51925000Y-65003628D01*
X51686905Y-65479819D02*
X51686905Y-64479819D01*
X51686905Y-64479819D02*
X52067857Y-64479819D01*
X52067857Y-64479819D02*
X52163095Y-64527438D01*
X52163095Y-64527438D02*
X52210714Y-64575057D01*
X52210714Y-64575057D02*
X52258333Y-64670295D01*
X52258333Y-64670295D02*
X52258333Y-64813152D01*
X52258333Y-64813152D02*
X52210714Y-64908390D01*
X52210714Y-64908390D02*
X52163095Y-64956009D01*
X52163095Y-64956009D02*
X52067857Y-65003628D01*
X52067857Y-65003628D02*
X51686905Y-65003628D01*
X52591667Y-64479819D02*
X53210714Y-64479819D01*
X53210714Y-64479819D02*
X52877381Y-64860771D01*
X52877381Y-64860771D02*
X53020238Y-64860771D01*
X53020238Y-64860771D02*
X53115476Y-64908390D01*
X53115476Y-64908390D02*
X53163095Y-64956009D01*
X53163095Y-64956009D02*
X53210714Y-65051247D01*
X53210714Y-65051247D02*
X53210714Y-65289342D01*
X53210714Y-65289342D02*
X53163095Y-65384580D01*
X53163095Y-65384580D02*
X53115476Y-65432200D01*
X53115476Y-65432200D02*
X53020238Y-65479819D01*
X53020238Y-65479819D02*
X52734524Y-65479819D01*
X52734524Y-65479819D02*
X52639286Y-65432200D01*
X52639286Y-65432200D02*
X52591667Y-65384580D01*
X156007142Y-73184819D02*
X155673809Y-72708628D01*
X155435714Y-73184819D02*
X155435714Y-72184819D01*
X155435714Y-72184819D02*
X155816666Y-72184819D01*
X155816666Y-72184819D02*
X155911904Y-72232438D01*
X155911904Y-72232438D02*
X155959523Y-72280057D01*
X155959523Y-72280057D02*
X156007142Y-72375295D01*
X156007142Y-72375295D02*
X156007142Y-72518152D01*
X156007142Y-72518152D02*
X155959523Y-72613390D01*
X155959523Y-72613390D02*
X155911904Y-72661009D01*
X155911904Y-72661009D02*
X155816666Y-72708628D01*
X155816666Y-72708628D02*
X155435714Y-72708628D01*
X156959523Y-73184819D02*
X156388095Y-73184819D01*
X156673809Y-73184819D02*
X156673809Y-72184819D01*
X156673809Y-72184819D02*
X156578571Y-72327676D01*
X156578571Y-72327676D02*
X156483333Y-72422914D01*
X156483333Y-72422914D02*
X156388095Y-72470533D01*
X157292857Y-72184819D02*
X157959523Y-72184819D01*
X157959523Y-72184819D02*
X157530952Y-73184819D01*
X65633333Y-83974580D02*
X65585714Y-84022200D01*
X65585714Y-84022200D02*
X65442857Y-84069819D01*
X65442857Y-84069819D02*
X65347619Y-84069819D01*
X65347619Y-84069819D02*
X65204762Y-84022200D01*
X65204762Y-84022200D02*
X65109524Y-83926961D01*
X65109524Y-83926961D02*
X65061905Y-83831723D01*
X65061905Y-83831723D02*
X65014286Y-83641247D01*
X65014286Y-83641247D02*
X65014286Y-83498390D01*
X65014286Y-83498390D02*
X65061905Y-83307914D01*
X65061905Y-83307914D02*
X65109524Y-83212676D01*
X65109524Y-83212676D02*
X65204762Y-83117438D01*
X65204762Y-83117438D02*
X65347619Y-83069819D01*
X65347619Y-83069819D02*
X65442857Y-83069819D01*
X65442857Y-83069819D02*
X65585714Y-83117438D01*
X65585714Y-83117438D02*
X65633333Y-83165057D01*
X66490476Y-83403152D02*
X66490476Y-84069819D01*
X66252381Y-83022200D02*
X66014286Y-83736485D01*
X66014286Y-83736485D02*
X66633333Y-83736485D01*
X155947319Y-70438094D02*
X154947319Y-70438094D01*
X154947319Y-70438094D02*
X154947319Y-70199999D01*
X154947319Y-70199999D02*
X154994938Y-70057142D01*
X154994938Y-70057142D02*
X155090176Y-69961904D01*
X155090176Y-69961904D02*
X155185414Y-69914285D01*
X155185414Y-69914285D02*
X155375890Y-69866666D01*
X155375890Y-69866666D02*
X155518747Y-69866666D01*
X155518747Y-69866666D02*
X155709223Y-69914285D01*
X155709223Y-69914285D02*
X155804461Y-69961904D01*
X155804461Y-69961904D02*
X155899700Y-70057142D01*
X155899700Y-70057142D02*
X155947319Y-70199999D01*
X155947319Y-70199999D02*
X155947319Y-70438094D01*
X155042557Y-69485713D02*
X154994938Y-69438094D01*
X154994938Y-69438094D02*
X154947319Y-69342856D01*
X154947319Y-69342856D02*
X154947319Y-69104761D01*
X154947319Y-69104761D02*
X154994938Y-69009523D01*
X154994938Y-69009523D02*
X155042557Y-68961904D01*
X155042557Y-68961904D02*
X155137795Y-68914285D01*
X155137795Y-68914285D02*
X155233033Y-68914285D01*
X155233033Y-68914285D02*
X155375890Y-68961904D01*
X155375890Y-68961904D02*
X155947319Y-69533332D01*
X155947319Y-69533332D02*
X155947319Y-68914285D01*
X143159819Y-57241666D02*
X142683628Y-57574999D01*
X143159819Y-57813094D02*
X142159819Y-57813094D01*
X142159819Y-57813094D02*
X142159819Y-57432142D01*
X142159819Y-57432142D02*
X142207438Y-57336904D01*
X142207438Y-57336904D02*
X142255057Y-57289285D01*
X142255057Y-57289285D02*
X142350295Y-57241666D01*
X142350295Y-57241666D02*
X142493152Y-57241666D01*
X142493152Y-57241666D02*
X142588390Y-57289285D01*
X142588390Y-57289285D02*
X142636009Y-57336904D01*
X142636009Y-57336904D02*
X142683628Y-57432142D01*
X142683628Y-57432142D02*
X142683628Y-57813094D01*
X142493152Y-56384523D02*
X143159819Y-56384523D01*
X142112200Y-56622618D02*
X142826485Y-56860713D01*
X142826485Y-56860713D02*
X142826485Y-56241666D01*
X52083333Y-55474819D02*
X51750000Y-54998628D01*
X51511905Y-55474819D02*
X51511905Y-54474819D01*
X51511905Y-54474819D02*
X51892857Y-54474819D01*
X51892857Y-54474819D02*
X51988095Y-54522438D01*
X51988095Y-54522438D02*
X52035714Y-54570057D01*
X52035714Y-54570057D02*
X52083333Y-54665295D01*
X52083333Y-54665295D02*
X52083333Y-54808152D01*
X52083333Y-54808152D02*
X52035714Y-54903390D01*
X52035714Y-54903390D02*
X51988095Y-54951009D01*
X51988095Y-54951009D02*
X51892857Y-54998628D01*
X51892857Y-54998628D02*
X51511905Y-54998628D01*
X52416667Y-54474819D02*
X53083333Y-54474819D01*
X53083333Y-54474819D02*
X52654762Y-55474819D01*
X62012319Y-81496904D02*
X62821842Y-81496904D01*
X62821842Y-81496904D02*
X62917080Y-81449285D01*
X62917080Y-81449285D02*
X62964700Y-81401666D01*
X62964700Y-81401666D02*
X63012319Y-81306428D01*
X63012319Y-81306428D02*
X63012319Y-81115952D01*
X63012319Y-81115952D02*
X62964700Y-81020714D01*
X62964700Y-81020714D02*
X62917080Y-80973095D01*
X62917080Y-80973095D02*
X62821842Y-80925476D01*
X62821842Y-80925476D02*
X62012319Y-80925476D01*
X62012319Y-79973095D02*
X62012319Y-80449285D01*
X62012319Y-80449285D02*
X62488509Y-80496904D01*
X62488509Y-80496904D02*
X62440890Y-80449285D01*
X62440890Y-80449285D02*
X62393271Y-80354047D01*
X62393271Y-80354047D02*
X62393271Y-80115952D01*
X62393271Y-80115952D02*
X62440890Y-80020714D01*
X62440890Y-80020714D02*
X62488509Y-79973095D01*
X62488509Y-79973095D02*
X62583747Y-79925476D01*
X62583747Y-79925476D02*
X62821842Y-79925476D01*
X62821842Y-79925476D02*
X62917080Y-79973095D01*
X62917080Y-79973095D02*
X62964700Y-80020714D01*
X62964700Y-80020714D02*
X63012319Y-80115952D01*
X63012319Y-80115952D02*
X63012319Y-80354047D01*
X63012319Y-80354047D02*
X62964700Y-80449285D01*
X62964700Y-80449285D02*
X62917080Y-80496904D01*
X48607142Y-69909819D02*
X48273809Y-69433628D01*
X48035714Y-69909819D02*
X48035714Y-68909819D01*
X48035714Y-68909819D02*
X48416666Y-68909819D01*
X48416666Y-68909819D02*
X48511904Y-68957438D01*
X48511904Y-68957438D02*
X48559523Y-69005057D01*
X48559523Y-69005057D02*
X48607142Y-69100295D01*
X48607142Y-69100295D02*
X48607142Y-69243152D01*
X48607142Y-69243152D02*
X48559523Y-69338390D01*
X48559523Y-69338390D02*
X48511904Y-69386009D01*
X48511904Y-69386009D02*
X48416666Y-69433628D01*
X48416666Y-69433628D02*
X48035714Y-69433628D01*
X49559523Y-69909819D02*
X48988095Y-69909819D01*
X49273809Y-69909819D02*
X49273809Y-68909819D01*
X49273809Y-68909819D02*
X49178571Y-69052676D01*
X49178571Y-69052676D02*
X49083333Y-69147914D01*
X49083333Y-69147914D02*
X48988095Y-69195533D01*
X50464285Y-68909819D02*
X49988095Y-68909819D01*
X49988095Y-68909819D02*
X49940476Y-69386009D01*
X49940476Y-69386009D02*
X49988095Y-69338390D01*
X49988095Y-69338390D02*
X50083333Y-69290771D01*
X50083333Y-69290771D02*
X50321428Y-69290771D01*
X50321428Y-69290771D02*
X50416666Y-69338390D01*
X50416666Y-69338390D02*
X50464285Y-69386009D01*
X50464285Y-69386009D02*
X50511904Y-69481247D01*
X50511904Y-69481247D02*
X50511904Y-69719342D01*
X50511904Y-69719342D02*
X50464285Y-69814580D01*
X50464285Y-69814580D02*
X50416666Y-69862200D01*
X50416666Y-69862200D02*
X50321428Y-69909819D01*
X50321428Y-69909819D02*
X50083333Y-69909819D01*
X50083333Y-69909819D02*
X49988095Y-69862200D01*
X49988095Y-69862200D02*
X49940476Y-69814580D01*
X81274819Y-61691666D02*
X80798628Y-62024999D01*
X81274819Y-62263094D02*
X80274819Y-62263094D01*
X80274819Y-62263094D02*
X80274819Y-61882142D01*
X80274819Y-61882142D02*
X80322438Y-61786904D01*
X80322438Y-61786904D02*
X80370057Y-61739285D01*
X80370057Y-61739285D02*
X80465295Y-61691666D01*
X80465295Y-61691666D02*
X80608152Y-61691666D01*
X80608152Y-61691666D02*
X80703390Y-61739285D01*
X80703390Y-61739285D02*
X80751009Y-61786904D01*
X80751009Y-61786904D02*
X80798628Y-61882142D01*
X80798628Y-61882142D02*
X80798628Y-62263094D01*
X81274819Y-60739285D02*
X81274819Y-61310713D01*
X81274819Y-61024999D02*
X80274819Y-61024999D01*
X80274819Y-61024999D02*
X80417676Y-61120237D01*
X80417676Y-61120237D02*
X80512914Y-61215475D01*
X80512914Y-61215475D02*
X80560533Y-61310713D01*
X151699405Y-71899819D02*
X151699405Y-70899819D01*
X151699405Y-70899819D02*
X151937500Y-70899819D01*
X151937500Y-70899819D02*
X152080357Y-70947438D01*
X152080357Y-70947438D02*
X152175595Y-71042676D01*
X152175595Y-71042676D02*
X152223214Y-71137914D01*
X152223214Y-71137914D02*
X152270833Y-71328390D01*
X152270833Y-71328390D02*
X152270833Y-71471247D01*
X152270833Y-71471247D02*
X152223214Y-71661723D01*
X152223214Y-71661723D02*
X152175595Y-71756961D01*
X152175595Y-71756961D02*
X152080357Y-71852200D01*
X152080357Y-71852200D02*
X151937500Y-71899819D01*
X151937500Y-71899819D02*
X151699405Y-71899819D01*
X153223214Y-71899819D02*
X152651786Y-71899819D01*
X152937500Y-71899819D02*
X152937500Y-70899819D01*
X152937500Y-70899819D02*
X152842262Y-71042676D01*
X152842262Y-71042676D02*
X152747024Y-71137914D01*
X152747024Y-71137914D02*
X152651786Y-71185533D01*
X157374819Y-80466666D02*
X156898628Y-80799999D01*
X157374819Y-81038094D02*
X156374819Y-81038094D01*
X156374819Y-81038094D02*
X156374819Y-80657142D01*
X156374819Y-80657142D02*
X156422438Y-80561904D01*
X156422438Y-80561904D02*
X156470057Y-80514285D01*
X156470057Y-80514285D02*
X156565295Y-80466666D01*
X156565295Y-80466666D02*
X156708152Y-80466666D01*
X156708152Y-80466666D02*
X156803390Y-80514285D01*
X156803390Y-80514285D02*
X156851009Y-80561904D01*
X156851009Y-80561904D02*
X156898628Y-80657142D01*
X156898628Y-80657142D02*
X156898628Y-81038094D01*
X157374819Y-79990475D02*
X157374819Y-79799999D01*
X157374819Y-79799999D02*
X157327200Y-79704761D01*
X157327200Y-79704761D02*
X157279580Y-79657142D01*
X157279580Y-79657142D02*
X157136723Y-79561904D01*
X157136723Y-79561904D02*
X156946247Y-79514285D01*
X156946247Y-79514285D02*
X156565295Y-79514285D01*
X156565295Y-79514285D02*
X156470057Y-79561904D01*
X156470057Y-79561904D02*
X156422438Y-79609523D01*
X156422438Y-79609523D02*
X156374819Y-79704761D01*
X156374819Y-79704761D02*
X156374819Y-79895237D01*
X156374819Y-79895237D02*
X156422438Y-79990475D01*
X156422438Y-79990475D02*
X156470057Y-80038094D01*
X156470057Y-80038094D02*
X156565295Y-80085713D01*
X156565295Y-80085713D02*
X156803390Y-80085713D01*
X156803390Y-80085713D02*
X156898628Y-80038094D01*
X156898628Y-80038094D02*
X156946247Y-79990475D01*
X156946247Y-79990475D02*
X156993866Y-79895237D01*
X156993866Y-79895237D02*
X156993866Y-79704761D01*
X156993866Y-79704761D02*
X156946247Y-79609523D01*
X156946247Y-79609523D02*
X156898628Y-79561904D01*
X156898628Y-79561904D02*
X156803390Y-79514285D01*
X145133333Y-76774819D02*
X144800000Y-76298628D01*
X144561905Y-76774819D02*
X144561905Y-75774819D01*
X144561905Y-75774819D02*
X144942857Y-75774819D01*
X144942857Y-75774819D02*
X145038095Y-75822438D01*
X145038095Y-75822438D02*
X145085714Y-75870057D01*
X145085714Y-75870057D02*
X145133333Y-75965295D01*
X145133333Y-75965295D02*
X145133333Y-76108152D01*
X145133333Y-76108152D02*
X145085714Y-76203390D01*
X145085714Y-76203390D02*
X145038095Y-76251009D01*
X145038095Y-76251009D02*
X144942857Y-76298628D01*
X144942857Y-76298628D02*
X144561905Y-76298628D01*
X145704762Y-76203390D02*
X145609524Y-76155771D01*
X145609524Y-76155771D02*
X145561905Y-76108152D01*
X145561905Y-76108152D02*
X145514286Y-76012914D01*
X145514286Y-76012914D02*
X145514286Y-75965295D01*
X145514286Y-75965295D02*
X145561905Y-75870057D01*
X145561905Y-75870057D02*
X145609524Y-75822438D01*
X145609524Y-75822438D02*
X145704762Y-75774819D01*
X145704762Y-75774819D02*
X145895238Y-75774819D01*
X145895238Y-75774819D02*
X145990476Y-75822438D01*
X145990476Y-75822438D02*
X146038095Y-75870057D01*
X146038095Y-75870057D02*
X146085714Y-75965295D01*
X146085714Y-75965295D02*
X146085714Y-76012914D01*
X146085714Y-76012914D02*
X146038095Y-76108152D01*
X146038095Y-76108152D02*
X145990476Y-76155771D01*
X145990476Y-76155771D02*
X145895238Y-76203390D01*
X145895238Y-76203390D02*
X145704762Y-76203390D01*
X145704762Y-76203390D02*
X145609524Y-76251009D01*
X145609524Y-76251009D02*
X145561905Y-76298628D01*
X145561905Y-76298628D02*
X145514286Y-76393866D01*
X145514286Y-76393866D02*
X145514286Y-76584342D01*
X145514286Y-76584342D02*
X145561905Y-76679580D01*
X145561905Y-76679580D02*
X145609524Y-76727200D01*
X145609524Y-76727200D02*
X145704762Y-76774819D01*
X145704762Y-76774819D02*
X145895238Y-76774819D01*
X145895238Y-76774819D02*
X145990476Y-76727200D01*
X145990476Y-76727200D02*
X146038095Y-76679580D01*
X146038095Y-76679580D02*
X146085714Y-76584342D01*
X146085714Y-76584342D02*
X146085714Y-76393866D01*
X146085714Y-76393866D02*
X146038095Y-76298628D01*
X146038095Y-76298628D02*
X145990476Y-76251009D01*
X145990476Y-76251009D02*
X145895238Y-76203390D01*
X64454819Y-53558333D02*
X65169104Y-53558333D01*
X65169104Y-53558333D02*
X65311961Y-53605952D01*
X65311961Y-53605952D02*
X65407200Y-53701190D01*
X65407200Y-53701190D02*
X65454819Y-53844047D01*
X65454819Y-53844047D02*
X65454819Y-53939285D01*
X65454819Y-52558333D02*
X65454819Y-53129761D01*
X65454819Y-52844047D02*
X64454819Y-52844047D01*
X64454819Y-52844047D02*
X64597676Y-52939285D01*
X64597676Y-52939285D02*
X64692914Y-53034523D01*
X64692914Y-53034523D02*
X64740533Y-53129761D01*
X145191666Y-77849819D02*
X145191666Y-78564104D01*
X145191666Y-78564104D02*
X145144047Y-78706961D01*
X145144047Y-78706961D02*
X145048809Y-78802200D01*
X145048809Y-78802200D02*
X144905952Y-78849819D01*
X144905952Y-78849819D02*
X144810714Y-78849819D01*
X146144047Y-77849819D02*
X145667857Y-77849819D01*
X145667857Y-77849819D02*
X145620238Y-78326009D01*
X145620238Y-78326009D02*
X145667857Y-78278390D01*
X145667857Y-78278390D02*
X145763095Y-78230771D01*
X145763095Y-78230771D02*
X146001190Y-78230771D01*
X146001190Y-78230771D02*
X146096428Y-78278390D01*
X146096428Y-78278390D02*
X146144047Y-78326009D01*
X146144047Y-78326009D02*
X146191666Y-78421247D01*
X146191666Y-78421247D02*
X146191666Y-78659342D01*
X146191666Y-78659342D02*
X146144047Y-78754580D01*
X146144047Y-78754580D02*
X146096428Y-78802200D01*
X146096428Y-78802200D02*
X146001190Y-78849819D01*
X146001190Y-78849819D02*
X145763095Y-78849819D01*
X145763095Y-78849819D02*
X145667857Y-78802200D01*
X145667857Y-78802200D02*
X145620238Y-78754580D01*
X153617319Y-84411904D02*
X154426842Y-84411904D01*
X154426842Y-84411904D02*
X154522080Y-84364285D01*
X154522080Y-84364285D02*
X154569700Y-84316666D01*
X154569700Y-84316666D02*
X154617319Y-84221428D01*
X154617319Y-84221428D02*
X154617319Y-84030952D01*
X154617319Y-84030952D02*
X154569700Y-83935714D01*
X154569700Y-83935714D02*
X154522080Y-83888095D01*
X154522080Y-83888095D02*
X154426842Y-83840476D01*
X154426842Y-83840476D02*
X153617319Y-83840476D01*
X153950652Y-82935714D02*
X154617319Y-82935714D01*
X153569700Y-83173809D02*
X154283985Y-83411904D01*
X154283985Y-83411904D02*
X154283985Y-82792857D01*
X52233333Y-52749819D02*
X51900000Y-52273628D01*
X51661905Y-52749819D02*
X51661905Y-51749819D01*
X51661905Y-51749819D02*
X52042857Y-51749819D01*
X52042857Y-51749819D02*
X52138095Y-51797438D01*
X52138095Y-51797438D02*
X52185714Y-51845057D01*
X52185714Y-51845057D02*
X52233333Y-51940295D01*
X52233333Y-51940295D02*
X52233333Y-52083152D01*
X52233333Y-52083152D02*
X52185714Y-52178390D01*
X52185714Y-52178390D02*
X52138095Y-52226009D01*
X52138095Y-52226009D02*
X52042857Y-52273628D01*
X52042857Y-52273628D02*
X51661905Y-52273628D01*
X53090476Y-51749819D02*
X52900000Y-51749819D01*
X52900000Y-51749819D02*
X52804762Y-51797438D01*
X52804762Y-51797438D02*
X52757143Y-51845057D01*
X52757143Y-51845057D02*
X52661905Y-51987914D01*
X52661905Y-51987914D02*
X52614286Y-52178390D01*
X52614286Y-52178390D02*
X52614286Y-52559342D01*
X52614286Y-52559342D02*
X52661905Y-52654580D01*
X52661905Y-52654580D02*
X52709524Y-52702200D01*
X52709524Y-52702200D02*
X52804762Y-52749819D01*
X52804762Y-52749819D02*
X52995238Y-52749819D01*
X52995238Y-52749819D02*
X53090476Y-52702200D01*
X53090476Y-52702200D02*
X53138095Y-52654580D01*
X53138095Y-52654580D02*
X53185714Y-52559342D01*
X53185714Y-52559342D02*
X53185714Y-52321247D01*
X53185714Y-52321247D02*
X53138095Y-52226009D01*
X53138095Y-52226009D02*
X53090476Y-52178390D01*
X53090476Y-52178390D02*
X52995238Y-52130771D01*
X52995238Y-52130771D02*
X52804762Y-52130771D01*
X52804762Y-52130771D02*
X52709524Y-52178390D01*
X52709524Y-52178390D02*
X52661905Y-52226009D01*
X52661905Y-52226009D02*
X52614286Y-52321247D01*
X74404819Y-62261904D02*
X75214342Y-62261904D01*
X75214342Y-62261904D02*
X75309580Y-62214285D01*
X75309580Y-62214285D02*
X75357200Y-62166666D01*
X75357200Y-62166666D02*
X75404819Y-62071428D01*
X75404819Y-62071428D02*
X75404819Y-61880952D01*
X75404819Y-61880952D02*
X75357200Y-61785714D01*
X75357200Y-61785714D02*
X75309580Y-61738095D01*
X75309580Y-61738095D02*
X75214342Y-61690476D01*
X75214342Y-61690476D02*
X74404819Y-61690476D01*
X74500057Y-61261904D02*
X74452438Y-61214285D01*
X74452438Y-61214285D02*
X74404819Y-61119047D01*
X74404819Y-61119047D02*
X74404819Y-60880952D01*
X74404819Y-60880952D02*
X74452438Y-60785714D01*
X74452438Y-60785714D02*
X74500057Y-60738095D01*
X74500057Y-60738095D02*
X74595295Y-60690476D01*
X74595295Y-60690476D02*
X74690533Y-60690476D01*
X74690533Y-60690476D02*
X74833390Y-60738095D01*
X74833390Y-60738095D02*
X75404819Y-61309523D01*
X75404819Y-61309523D02*
X75404819Y-60690476D01*
X48654819Y-55433333D02*
X49369104Y-55433333D01*
X49369104Y-55433333D02*
X49511961Y-55480952D01*
X49511961Y-55480952D02*
X49607200Y-55576190D01*
X49607200Y-55576190D02*
X49654819Y-55719047D01*
X49654819Y-55719047D02*
X49654819Y-55814285D01*
X48988152Y-54528571D02*
X49654819Y-54528571D01*
X48607200Y-54766666D02*
X49321485Y-55004761D01*
X49321485Y-55004761D02*
X49321485Y-54385714D01*
X155982142Y-75504819D02*
X155648809Y-75028628D01*
X155410714Y-75504819D02*
X155410714Y-74504819D01*
X155410714Y-74504819D02*
X155791666Y-74504819D01*
X155791666Y-74504819D02*
X155886904Y-74552438D01*
X155886904Y-74552438D02*
X155934523Y-74600057D01*
X155934523Y-74600057D02*
X155982142Y-74695295D01*
X155982142Y-74695295D02*
X155982142Y-74838152D01*
X155982142Y-74838152D02*
X155934523Y-74933390D01*
X155934523Y-74933390D02*
X155886904Y-74981009D01*
X155886904Y-74981009D02*
X155791666Y-75028628D01*
X155791666Y-75028628D02*
X155410714Y-75028628D01*
X156934523Y-75504819D02*
X156363095Y-75504819D01*
X156648809Y-75504819D02*
X156648809Y-74504819D01*
X156648809Y-74504819D02*
X156553571Y-74647676D01*
X156553571Y-74647676D02*
X156458333Y-74742914D01*
X156458333Y-74742914D02*
X156363095Y-74790533D01*
X157791666Y-74504819D02*
X157601190Y-74504819D01*
X157601190Y-74504819D02*
X157505952Y-74552438D01*
X157505952Y-74552438D02*
X157458333Y-74600057D01*
X157458333Y-74600057D02*
X157363095Y-74742914D01*
X157363095Y-74742914D02*
X157315476Y-74933390D01*
X157315476Y-74933390D02*
X157315476Y-75314342D01*
X157315476Y-75314342D02*
X157363095Y-75409580D01*
X157363095Y-75409580D02*
X157410714Y-75457200D01*
X157410714Y-75457200D02*
X157505952Y-75504819D01*
X157505952Y-75504819D02*
X157696428Y-75504819D01*
X157696428Y-75504819D02*
X157791666Y-75457200D01*
X157791666Y-75457200D02*
X157839285Y-75409580D01*
X157839285Y-75409580D02*
X157886904Y-75314342D01*
X157886904Y-75314342D02*
X157886904Y-75076247D01*
X157886904Y-75076247D02*
X157839285Y-74981009D01*
X157839285Y-74981009D02*
X157791666Y-74933390D01*
X157791666Y-74933390D02*
X157696428Y-74885771D01*
X157696428Y-74885771D02*
X157505952Y-74885771D01*
X157505952Y-74885771D02*
X157410714Y-74933390D01*
X157410714Y-74933390D02*
X157363095Y-74981009D01*
X157363095Y-74981009D02*
X157315476Y-75076247D01*
X151166438Y-67079451D02*
X151166438Y-67794226D01*
X151166438Y-67794226D02*
X151118786Y-67937181D01*
X151118786Y-67937181D02*
X151023483Y-68032485D01*
X151023483Y-68032485D02*
X150880528Y-68080136D01*
X150880528Y-68080136D02*
X150785225Y-68080136D01*
X151547652Y-67079451D02*
X152167123Y-67079451D01*
X152167123Y-67079451D02*
X151833562Y-67460665D01*
X151833562Y-67460665D02*
X151976517Y-67460665D01*
X151976517Y-67460665D02*
X152071820Y-67508316D01*
X152071820Y-67508316D02*
X152119472Y-67555968D01*
X152119472Y-67555968D02*
X152167123Y-67651271D01*
X152167123Y-67651271D02*
X152167123Y-67889530D01*
X152167123Y-67889530D02*
X152119472Y-67984833D01*
X152119472Y-67984833D02*
X152071820Y-68032485D01*
X152071820Y-68032485D02*
X151976517Y-68080136D01*
X151976517Y-68080136D02*
X151690607Y-68080136D01*
X151690607Y-68080136D02*
X151595303Y-68032485D01*
X151595303Y-68032485D02*
X151547652Y-67984833D01*
X52208333Y-58579580D02*
X52160714Y-58627200D01*
X52160714Y-58627200D02*
X52017857Y-58674819D01*
X52017857Y-58674819D02*
X51922619Y-58674819D01*
X51922619Y-58674819D02*
X51779762Y-58627200D01*
X51779762Y-58627200D02*
X51684524Y-58531961D01*
X51684524Y-58531961D02*
X51636905Y-58436723D01*
X51636905Y-58436723D02*
X51589286Y-58246247D01*
X51589286Y-58246247D02*
X51589286Y-58103390D01*
X51589286Y-58103390D02*
X51636905Y-57912914D01*
X51636905Y-57912914D02*
X51684524Y-57817676D01*
X51684524Y-57817676D02*
X51779762Y-57722438D01*
X51779762Y-57722438D02*
X51922619Y-57674819D01*
X51922619Y-57674819D02*
X52017857Y-57674819D01*
X52017857Y-57674819D02*
X52160714Y-57722438D01*
X52160714Y-57722438D02*
X52208333Y-57770057D01*
X52541667Y-57674819D02*
X53160714Y-57674819D01*
X53160714Y-57674819D02*
X52827381Y-58055771D01*
X52827381Y-58055771D02*
X52970238Y-58055771D01*
X52970238Y-58055771D02*
X53065476Y-58103390D01*
X53065476Y-58103390D02*
X53113095Y-58151009D01*
X53113095Y-58151009D02*
X53160714Y-58246247D01*
X53160714Y-58246247D02*
X53160714Y-58484342D01*
X53160714Y-58484342D02*
X53113095Y-58579580D01*
X53113095Y-58579580D02*
X53065476Y-58627200D01*
X53065476Y-58627200D02*
X52970238Y-58674819D01*
X52970238Y-58674819D02*
X52684524Y-58674819D01*
X52684524Y-58674819D02*
X52589286Y-58627200D01*
X52589286Y-58627200D02*
X52541667Y-58579580D01*
X149704819Y-73017857D02*
X149228628Y-73351190D01*
X149704819Y-73589285D02*
X148704819Y-73589285D01*
X148704819Y-73589285D02*
X148704819Y-73208333D01*
X148704819Y-73208333D02*
X148752438Y-73113095D01*
X148752438Y-73113095D02*
X148800057Y-73065476D01*
X148800057Y-73065476D02*
X148895295Y-73017857D01*
X148895295Y-73017857D02*
X149038152Y-73017857D01*
X149038152Y-73017857D02*
X149133390Y-73065476D01*
X149133390Y-73065476D02*
X149181009Y-73113095D01*
X149181009Y-73113095D02*
X149228628Y-73208333D01*
X149228628Y-73208333D02*
X149228628Y-73589285D01*
X149704819Y-72065476D02*
X149704819Y-72636904D01*
X149704819Y-72351190D02*
X148704819Y-72351190D01*
X148704819Y-72351190D02*
X148847676Y-72446428D01*
X148847676Y-72446428D02*
X148942914Y-72541666D01*
X148942914Y-72541666D02*
X148990533Y-72636904D01*
X148704819Y-71446428D02*
X148704819Y-71351190D01*
X148704819Y-71351190D02*
X148752438Y-71255952D01*
X148752438Y-71255952D02*
X148800057Y-71208333D01*
X148800057Y-71208333D02*
X148895295Y-71160714D01*
X148895295Y-71160714D02*
X149085771Y-71113095D01*
X149085771Y-71113095D02*
X149323866Y-71113095D01*
X149323866Y-71113095D02*
X149514342Y-71160714D01*
X149514342Y-71160714D02*
X149609580Y-71208333D01*
X149609580Y-71208333D02*
X149657200Y-71255952D01*
X149657200Y-71255952D02*
X149704819Y-71351190D01*
X149704819Y-71351190D02*
X149704819Y-71446428D01*
X149704819Y-71446428D02*
X149657200Y-71541666D01*
X149657200Y-71541666D02*
X149609580Y-71589285D01*
X149609580Y-71589285D02*
X149514342Y-71636904D01*
X149514342Y-71636904D02*
X149323866Y-71684523D01*
X149323866Y-71684523D02*
X149085771Y-71684523D01*
X149085771Y-71684523D02*
X148895295Y-71636904D01*
X148895295Y-71636904D02*
X148800057Y-71589285D01*
X148800057Y-71589285D02*
X148752438Y-71541666D01*
X148752438Y-71541666D02*
X148704819Y-71446428D01*
X158387319Y-70067857D02*
X157911128Y-70401190D01*
X158387319Y-70639285D02*
X157387319Y-70639285D01*
X157387319Y-70639285D02*
X157387319Y-70258333D01*
X157387319Y-70258333D02*
X157434938Y-70163095D01*
X157434938Y-70163095D02*
X157482557Y-70115476D01*
X157482557Y-70115476D02*
X157577795Y-70067857D01*
X157577795Y-70067857D02*
X157720652Y-70067857D01*
X157720652Y-70067857D02*
X157815890Y-70115476D01*
X157815890Y-70115476D02*
X157863509Y-70163095D01*
X157863509Y-70163095D02*
X157911128Y-70258333D01*
X157911128Y-70258333D02*
X157911128Y-70639285D01*
X158387319Y-69115476D02*
X158387319Y-69686904D01*
X158387319Y-69401190D02*
X157387319Y-69401190D01*
X157387319Y-69401190D02*
X157530176Y-69496428D01*
X157530176Y-69496428D02*
X157625414Y-69591666D01*
X157625414Y-69591666D02*
X157673033Y-69686904D01*
X157482557Y-68734523D02*
X157434938Y-68686904D01*
X157434938Y-68686904D02*
X157387319Y-68591666D01*
X157387319Y-68591666D02*
X157387319Y-68353571D01*
X157387319Y-68353571D02*
X157434938Y-68258333D01*
X157434938Y-68258333D02*
X157482557Y-68210714D01*
X157482557Y-68210714D02*
X157577795Y-68163095D01*
X157577795Y-68163095D02*
X157673033Y-68163095D01*
X157673033Y-68163095D02*
X157815890Y-68210714D01*
X157815890Y-68210714D02*
X158387319Y-68782142D01*
X158387319Y-68782142D02*
X158387319Y-68163095D01*
X146163095Y-69054819D02*
X146163095Y-69864342D01*
X146163095Y-69864342D02*
X146210714Y-69959580D01*
X146210714Y-69959580D02*
X146258333Y-70007200D01*
X146258333Y-70007200D02*
X146353571Y-70054819D01*
X146353571Y-70054819D02*
X146544047Y-70054819D01*
X146544047Y-70054819D02*
X146639285Y-70007200D01*
X146639285Y-70007200D02*
X146686904Y-69959580D01*
X146686904Y-69959580D02*
X146734523Y-69864342D01*
X146734523Y-69864342D02*
X146734523Y-69054819D01*
X147115476Y-69054819D02*
X147734523Y-69054819D01*
X147734523Y-69054819D02*
X147401190Y-69435771D01*
X147401190Y-69435771D02*
X147544047Y-69435771D01*
X147544047Y-69435771D02*
X147639285Y-69483390D01*
X147639285Y-69483390D02*
X147686904Y-69531009D01*
X147686904Y-69531009D02*
X147734523Y-69626247D01*
X147734523Y-69626247D02*
X147734523Y-69864342D01*
X147734523Y-69864342D02*
X147686904Y-69959580D01*
X147686904Y-69959580D02*
X147639285Y-70007200D01*
X147639285Y-70007200D02*
X147544047Y-70054819D01*
X147544047Y-70054819D02*
X147258333Y-70054819D01*
X147258333Y-70054819D02*
X147163095Y-70007200D01*
X147163095Y-70007200D02*
X147115476Y-69959580D01*
X71511666Y-67824819D02*
X71511666Y-68539104D01*
X71511666Y-68539104D02*
X71464047Y-68681961D01*
X71464047Y-68681961D02*
X71368809Y-68777200D01*
X71368809Y-68777200D02*
X71225952Y-68824819D01*
X71225952Y-68824819D02*
X71130714Y-68824819D01*
X71892619Y-67824819D02*
X72559285Y-67824819D01*
X72559285Y-67824819D02*
X72130714Y-68824819D01*
X129662857Y-68549819D02*
X129662857Y-67549819D01*
X129662857Y-67549819D02*
X129996190Y-68264104D01*
X129996190Y-68264104D02*
X130329523Y-67549819D01*
X130329523Y-67549819D02*
X130329523Y-68549819D01*
X130948571Y-68549819D02*
X130853333Y-68502200D01*
X130853333Y-68502200D02*
X130805714Y-68454580D01*
X130805714Y-68454580D02*
X130758095Y-68359342D01*
X130758095Y-68359342D02*
X130758095Y-68073628D01*
X130758095Y-68073628D02*
X130805714Y-67978390D01*
X130805714Y-67978390D02*
X130853333Y-67930771D01*
X130853333Y-67930771D02*
X130948571Y-67883152D01*
X130948571Y-67883152D02*
X131091428Y-67883152D01*
X131091428Y-67883152D02*
X131186666Y-67930771D01*
X131186666Y-67930771D02*
X131234285Y-67978390D01*
X131234285Y-67978390D02*
X131281904Y-68073628D01*
X131281904Y-68073628D02*
X131281904Y-68359342D01*
X131281904Y-68359342D02*
X131234285Y-68454580D01*
X131234285Y-68454580D02*
X131186666Y-68502200D01*
X131186666Y-68502200D02*
X131091428Y-68549819D01*
X131091428Y-68549819D02*
X130948571Y-68549819D01*
X132139047Y-68549819D02*
X132139047Y-67549819D01*
X132139047Y-68502200D02*
X132043809Y-68549819D01*
X132043809Y-68549819D02*
X131853333Y-68549819D01*
X131853333Y-68549819D02*
X131758095Y-68502200D01*
X131758095Y-68502200D02*
X131710476Y-68454580D01*
X131710476Y-68454580D02*
X131662857Y-68359342D01*
X131662857Y-68359342D02*
X131662857Y-68073628D01*
X131662857Y-68073628D02*
X131710476Y-67978390D01*
X131710476Y-67978390D02*
X131758095Y-67930771D01*
X131758095Y-67930771D02*
X131853333Y-67883152D01*
X131853333Y-67883152D02*
X132043809Y-67883152D01*
X132043809Y-67883152D02*
X132139047Y-67930771D01*
X133043809Y-67883152D02*
X133043809Y-68549819D01*
X132615238Y-67883152D02*
X132615238Y-68406961D01*
X132615238Y-68406961D02*
X132662857Y-68502200D01*
X132662857Y-68502200D02*
X132758095Y-68549819D01*
X132758095Y-68549819D02*
X132900952Y-68549819D01*
X132900952Y-68549819D02*
X132996190Y-68502200D01*
X132996190Y-68502200D02*
X133043809Y-68454580D01*
X133662857Y-68549819D02*
X133567619Y-68502200D01*
X133567619Y-68502200D02*
X133520000Y-68406961D01*
X133520000Y-68406961D02*
X133520000Y-67549819D01*
X134424762Y-68502200D02*
X134329524Y-68549819D01*
X134329524Y-68549819D02*
X134139048Y-68549819D01*
X134139048Y-68549819D02*
X134043810Y-68502200D01*
X134043810Y-68502200D02*
X133996191Y-68406961D01*
X133996191Y-68406961D02*
X133996191Y-68026009D01*
X133996191Y-68026009D02*
X134043810Y-67930771D01*
X134043810Y-67930771D02*
X134139048Y-67883152D01*
X134139048Y-67883152D02*
X134329524Y-67883152D01*
X134329524Y-67883152D02*
X134424762Y-67930771D01*
X134424762Y-67930771D02*
X134472381Y-68026009D01*
X134472381Y-68026009D02*
X134472381Y-68121247D01*
X134472381Y-68121247D02*
X133996191Y-68216485D01*
X135424762Y-68549819D02*
X134853334Y-68549819D01*
X135139048Y-68549819D02*
X135139048Y-67549819D01*
X135139048Y-67549819D02*
X135043810Y-67692676D01*
X135043810Y-67692676D02*
X134948572Y-67787914D01*
X134948572Y-67787914D02*
X134853334Y-67835533D01*
X143184819Y-59116666D02*
X142708628Y-59449999D01*
X143184819Y-59688094D02*
X142184819Y-59688094D01*
X142184819Y-59688094D02*
X142184819Y-59307142D01*
X142184819Y-59307142D02*
X142232438Y-59211904D01*
X142232438Y-59211904D02*
X142280057Y-59164285D01*
X142280057Y-59164285D02*
X142375295Y-59116666D01*
X142375295Y-59116666D02*
X142518152Y-59116666D01*
X142518152Y-59116666D02*
X142613390Y-59164285D01*
X142613390Y-59164285D02*
X142661009Y-59211904D01*
X142661009Y-59211904D02*
X142708628Y-59307142D01*
X142708628Y-59307142D02*
X142708628Y-59688094D01*
X142184819Y-58211904D02*
X142184819Y-58688094D01*
X142184819Y-58688094D02*
X142661009Y-58735713D01*
X142661009Y-58735713D02*
X142613390Y-58688094D01*
X142613390Y-58688094D02*
X142565771Y-58592856D01*
X142565771Y-58592856D02*
X142565771Y-58354761D01*
X142565771Y-58354761D02*
X142613390Y-58259523D01*
X142613390Y-58259523D02*
X142661009Y-58211904D01*
X142661009Y-58211904D02*
X142756247Y-58164285D01*
X142756247Y-58164285D02*
X142994342Y-58164285D01*
X142994342Y-58164285D02*
X143089580Y-58211904D01*
X143089580Y-58211904D02*
X143137200Y-58259523D01*
X143137200Y-58259523D02*
X143184819Y-58354761D01*
X143184819Y-58354761D02*
X143184819Y-58592856D01*
X143184819Y-58592856D02*
X143137200Y-58688094D01*
X143137200Y-58688094D02*
X143089580Y-58735713D01*
X149614580Y-75691666D02*
X149662200Y-75739285D01*
X149662200Y-75739285D02*
X149709819Y-75882142D01*
X149709819Y-75882142D02*
X149709819Y-75977380D01*
X149709819Y-75977380D02*
X149662200Y-76120237D01*
X149662200Y-76120237D02*
X149566961Y-76215475D01*
X149566961Y-76215475D02*
X149471723Y-76263094D01*
X149471723Y-76263094D02*
X149281247Y-76310713D01*
X149281247Y-76310713D02*
X149138390Y-76310713D01*
X149138390Y-76310713D02*
X148947914Y-76263094D01*
X148947914Y-76263094D02*
X148852676Y-76215475D01*
X148852676Y-76215475D02*
X148757438Y-76120237D01*
X148757438Y-76120237D02*
X148709819Y-75977380D01*
X148709819Y-75977380D02*
X148709819Y-75882142D01*
X148709819Y-75882142D02*
X148757438Y-75739285D01*
X148757438Y-75739285D02*
X148805057Y-75691666D01*
X148805057Y-75310713D02*
X148757438Y-75263094D01*
X148757438Y-75263094D02*
X148709819Y-75167856D01*
X148709819Y-75167856D02*
X148709819Y-74929761D01*
X148709819Y-74929761D02*
X148757438Y-74834523D01*
X148757438Y-74834523D02*
X148805057Y-74786904D01*
X148805057Y-74786904D02*
X148900295Y-74739285D01*
X148900295Y-74739285D02*
X148995533Y-74739285D01*
X148995533Y-74739285D02*
X149138390Y-74786904D01*
X149138390Y-74786904D02*
X149709819Y-75358332D01*
X149709819Y-75358332D02*
X149709819Y-74739285D01*
X44029819Y-71392857D02*
X43553628Y-71726190D01*
X44029819Y-71964285D02*
X43029819Y-71964285D01*
X43029819Y-71964285D02*
X43029819Y-71583333D01*
X43029819Y-71583333D02*
X43077438Y-71488095D01*
X43077438Y-71488095D02*
X43125057Y-71440476D01*
X43125057Y-71440476D02*
X43220295Y-71392857D01*
X43220295Y-71392857D02*
X43363152Y-71392857D01*
X43363152Y-71392857D02*
X43458390Y-71440476D01*
X43458390Y-71440476D02*
X43506009Y-71488095D01*
X43506009Y-71488095D02*
X43553628Y-71583333D01*
X43553628Y-71583333D02*
X43553628Y-71964285D01*
X44029819Y-70440476D02*
X44029819Y-71011904D01*
X44029819Y-70726190D02*
X43029819Y-70726190D01*
X43029819Y-70726190D02*
X43172676Y-70821428D01*
X43172676Y-70821428D02*
X43267914Y-70916666D01*
X43267914Y-70916666D02*
X43315533Y-71011904D01*
X43363152Y-69583333D02*
X44029819Y-69583333D01*
X42982200Y-69821428D02*
X43696485Y-70059523D01*
X43696485Y-70059523D02*
X43696485Y-69440476D01*
X46654819Y-63083333D02*
X47369104Y-63083333D01*
X47369104Y-63083333D02*
X47511961Y-63130952D01*
X47511961Y-63130952D02*
X47607200Y-63226190D01*
X47607200Y-63226190D02*
X47654819Y-63369047D01*
X47654819Y-63369047D02*
X47654819Y-63464285D01*
X46750057Y-62654761D02*
X46702438Y-62607142D01*
X46702438Y-62607142D02*
X46654819Y-62511904D01*
X46654819Y-62511904D02*
X46654819Y-62273809D01*
X46654819Y-62273809D02*
X46702438Y-62178571D01*
X46702438Y-62178571D02*
X46750057Y-62130952D01*
X46750057Y-62130952D02*
X46845295Y-62083333D01*
X46845295Y-62083333D02*
X46940533Y-62083333D01*
X46940533Y-62083333D02*
X47083390Y-62130952D01*
X47083390Y-62130952D02*
X47654819Y-62702380D01*
X47654819Y-62702380D02*
X47654819Y-62083333D01*
X49079819Y-65486904D02*
X49889342Y-65486904D01*
X49889342Y-65486904D02*
X49984580Y-65439285D01*
X49984580Y-65439285D02*
X50032200Y-65391666D01*
X50032200Y-65391666D02*
X50079819Y-65296428D01*
X50079819Y-65296428D02*
X50079819Y-65105952D01*
X50079819Y-65105952D02*
X50032200Y-65010714D01*
X50032200Y-65010714D02*
X49984580Y-64963095D01*
X49984580Y-64963095D02*
X49889342Y-64915476D01*
X49889342Y-64915476D02*
X49079819Y-64915476D01*
X50079819Y-63915476D02*
X50079819Y-64486904D01*
X50079819Y-64201190D02*
X49079819Y-64201190D01*
X49079819Y-64201190D02*
X49222676Y-64296428D01*
X49222676Y-64296428D02*
X49317914Y-64391666D01*
X49317914Y-64391666D02*
X49365533Y-64486904D01*
X149516666Y-77874819D02*
X149516666Y-78589104D01*
X149516666Y-78589104D02*
X149469047Y-78731961D01*
X149469047Y-78731961D02*
X149373809Y-78827200D01*
X149373809Y-78827200D02*
X149230952Y-78874819D01*
X149230952Y-78874819D02*
X149135714Y-78874819D01*
X150421428Y-77874819D02*
X150230952Y-77874819D01*
X150230952Y-77874819D02*
X150135714Y-77922438D01*
X150135714Y-77922438D02*
X150088095Y-77970057D01*
X150088095Y-77970057D02*
X149992857Y-78112914D01*
X149992857Y-78112914D02*
X149945238Y-78303390D01*
X149945238Y-78303390D02*
X149945238Y-78684342D01*
X149945238Y-78684342D02*
X149992857Y-78779580D01*
X149992857Y-78779580D02*
X150040476Y-78827200D01*
X150040476Y-78827200D02*
X150135714Y-78874819D01*
X150135714Y-78874819D02*
X150326190Y-78874819D01*
X150326190Y-78874819D02*
X150421428Y-78827200D01*
X150421428Y-78827200D02*
X150469047Y-78779580D01*
X150469047Y-78779580D02*
X150516666Y-78684342D01*
X150516666Y-78684342D02*
X150516666Y-78446247D01*
X150516666Y-78446247D02*
X150469047Y-78351009D01*
X150469047Y-78351009D02*
X150421428Y-78303390D01*
X150421428Y-78303390D02*
X150326190Y-78255771D01*
X150326190Y-78255771D02*
X150135714Y-78255771D01*
X150135714Y-78255771D02*
X150040476Y-78303390D01*
X150040476Y-78303390D02*
X149992857Y-78351009D01*
X149992857Y-78351009D02*
X149945238Y-78446247D01*
X77232142Y-78699819D02*
X76898809Y-78223628D01*
X76660714Y-78699819D02*
X76660714Y-77699819D01*
X76660714Y-77699819D02*
X77041666Y-77699819D01*
X77041666Y-77699819D02*
X77136904Y-77747438D01*
X77136904Y-77747438D02*
X77184523Y-77795057D01*
X77184523Y-77795057D02*
X77232142Y-77890295D01*
X77232142Y-77890295D02*
X77232142Y-78033152D01*
X77232142Y-78033152D02*
X77184523Y-78128390D01*
X77184523Y-78128390D02*
X77136904Y-78176009D01*
X77136904Y-78176009D02*
X77041666Y-78223628D01*
X77041666Y-78223628D02*
X76660714Y-78223628D01*
X78184523Y-78699819D02*
X77613095Y-78699819D01*
X77898809Y-78699819D02*
X77898809Y-77699819D01*
X77898809Y-77699819D02*
X77803571Y-77842676D01*
X77803571Y-77842676D02*
X77708333Y-77937914D01*
X77708333Y-77937914D02*
X77613095Y-77985533D01*
X78517857Y-77699819D02*
X79136904Y-77699819D01*
X79136904Y-77699819D02*
X78803571Y-78080771D01*
X78803571Y-78080771D02*
X78946428Y-78080771D01*
X78946428Y-78080771D02*
X79041666Y-78128390D01*
X79041666Y-78128390D02*
X79089285Y-78176009D01*
X79089285Y-78176009D02*
X79136904Y-78271247D01*
X79136904Y-78271247D02*
X79136904Y-78509342D01*
X79136904Y-78509342D02*
X79089285Y-78604580D01*
X79089285Y-78604580D02*
X79041666Y-78652200D01*
X79041666Y-78652200D02*
X78946428Y-78699819D01*
X78946428Y-78699819D02*
X78660714Y-78699819D01*
X78660714Y-78699819D02*
X78565476Y-78652200D01*
X78565476Y-78652200D02*
X78517857Y-78604580D01*
D14*
%TO.C,R11*%
X77928641Y-78895000D02*
X77621359Y-78895000D01*
X77928641Y-79655000D02*
X77621359Y-79655000D01*
%TO.C,C1*%
X79290000Y-63542164D02*
X79290000Y-63757836D01*
X80010000Y-63542164D02*
X80010000Y-63757836D01*
%TO.C,R2*%
X52170276Y-63202500D02*
X52679724Y-63202500D01*
X52170276Y-64247500D02*
X52679724Y-64247500D01*
%TO.C,R3*%
X52170276Y-65712500D02*
X52679724Y-65712500D01*
X52170276Y-66757500D02*
X52679724Y-66757500D01*
%TO.C,R17*%
X156496359Y-73520000D02*
X156803641Y-73520000D01*
X156496359Y-74280000D02*
X156803641Y-74280000D01*
%TO.C,C4*%
X65692164Y-84415000D02*
X65907836Y-84415000D01*
X65692164Y-85135000D02*
X65907836Y-85135000D01*
%TO.C,D2*%
X153327500Y-68215000D02*
X153327500Y-70500000D01*
X154797500Y-68215000D02*
X153327500Y-68215000D01*
X154797500Y-70500000D02*
X154797500Y-68215000D01*
%TO.C,R4*%
X143495000Y-57228641D02*
X143495000Y-56921359D01*
X144255000Y-57228641D02*
X144255000Y-56921359D01*
%TO.C,R7*%
X51995276Y-55927500D02*
X52504724Y-55927500D01*
X51995276Y-56972500D02*
X52504724Y-56972500D01*
%TO.C,U5*%
X40217500Y-88845000D02*
X40217500Y-72605000D01*
X40337500Y-72825000D02*
X40087500Y-72825000D01*
X40487500Y-72725000D02*
X40487500Y-72475000D01*
X52667500Y-72605000D02*
X40217500Y-72605000D01*
X52667500Y-88845000D02*
X40217500Y-88845000D01*
X61857500Y-72605000D02*
X55947500Y-72605000D01*
X61857500Y-72605000D02*
X61857500Y-88845000D01*
X61857500Y-88845000D02*
X55947500Y-88845000D01*
%TO.C,R15*%
X49096359Y-70245000D02*
X49403641Y-70245000D01*
X49096359Y-71005000D02*
X49403641Y-71005000D01*
%TO.C,R1*%
X79270000Y-61371359D02*
X79270000Y-61678641D01*
X80030000Y-61371359D02*
X80030000Y-61678641D01*
%TO.C,D1*%
X150952500Y-72140000D02*
X150952500Y-73610000D01*
X150952500Y-73610000D02*
X153237500Y-73610000D01*
X153237500Y-72140000D02*
X150952500Y-72140000D01*
%TO.C,R9*%
X155370000Y-80146359D02*
X155370000Y-80453641D01*
X156130000Y-80146359D02*
X156130000Y-80453641D01*
%TO.C,R8*%
X145453641Y-74770000D02*
X145146359Y-74770000D01*
X145453641Y-75530000D02*
X145146359Y-75530000D01*
%TO.C,J1*%
X66005000Y-50600000D02*
X71755000Y-50600000D01*
X66005000Y-56600000D02*
X66005000Y-50600000D01*
X67355000Y-55490000D02*
X72435000Y-55490000D01*
X67355000Y-56500000D02*
X67355000Y-55490000D01*
X72435000Y-55490000D02*
X72435000Y-56500000D01*
X73105000Y-50650000D02*
X76305000Y-50650000D01*
X76305000Y-50650000D02*
X76305000Y-56600000D01*
X76305000Y-56600000D02*
X66005000Y-56600000D01*
%TO.C,J5*%
X144195000Y-79395000D02*
X145525000Y-79395000D01*
X144195000Y-80725000D02*
X144195000Y-79395000D01*
X144195000Y-81995000D02*
X144195000Y-87135000D01*
X144195000Y-81995000D02*
X146855000Y-81995000D01*
X144195000Y-87135000D02*
X146855000Y-87135000D01*
X146855000Y-81995000D02*
X146855000Y-87135000D01*
%TO.C,U4*%
X155252500Y-84360000D02*
X155252500Y-82950000D01*
X157572500Y-84350000D02*
X157572500Y-82950000D01*
X155302500Y-84730000D02*
X154972500Y-84970000D01*
X154972500Y-84490000D01*
X155302500Y-84730000D01*
G36*
X155302500Y-84730000D02*
G01*
X154972500Y-84970000D01*
X154972500Y-84490000D01*
X155302500Y-84730000D01*
G37*
%TO.C,R6*%
X52145276Y-53202500D02*
X52654724Y-53202500D01*
X52145276Y-54247500D02*
X52654724Y-54247500D01*
%TO.C,U2*%
X75790000Y-61500000D02*
X75790000Y-60000000D01*
X75790000Y-61500000D02*
X75790000Y-63000000D01*
X79010000Y-61500000D02*
X79010000Y-60000000D01*
X79010000Y-61500000D02*
X79010000Y-63000000D01*
X75965000Y-63712500D02*
X75635000Y-63952500D01*
X75635000Y-63472500D01*
X75965000Y-63712500D01*
G36*
X75965000Y-63712500D02*
G01*
X75635000Y-63952500D01*
X75635000Y-63472500D01*
X75965000Y-63712500D01*
G37*
D15*
%TO.C,J4*%
X40300000Y-59565000D02*
X41580000Y-59565000D01*
X41580000Y-50625000D02*
X40300000Y-50625000D01*
X45550000Y-50625000D02*
X44300000Y-50625000D01*
X45550000Y-59565000D02*
X44300000Y-59565000D01*
X49000000Y-51845000D02*
G75*
G02*
X48800000Y-51845000I-100000J0D01*
G01*
X48800000Y-51845000D02*
G75*
G02*
X49000000Y-51845000I100000J0D01*
G01*
D14*
%TO.C,R16*%
X156471359Y-75745000D02*
X156778641Y-75745000D01*
X156471359Y-76505000D02*
X156778641Y-76505000D01*
D16*
%TO.C,J3*%
X150526000Y-52650000D02*
X145524000Y-52650000D01*
X157276000Y-52650000D02*
X156274000Y-52650000D01*
X157950000Y-58100000D02*
X157950000Y-56000000D01*
X157950000Y-64000000D02*
X157950000Y-61100000D01*
X157950000Y-66700000D02*
X144850000Y-66700000D01*
D15*
X153880000Y-67150000D02*
G75*
G02*
X153680000Y-67150000I-100000J0D01*
G01*
X153680000Y-67150000D02*
G75*
G02*
X153880000Y-67150000I100000J0D01*
G01*
D14*
%TO.C,C3*%
X52113748Y-59165000D02*
X52636252Y-59165000D01*
X52113748Y-60635000D02*
X52636252Y-60635000D01*
%TO.C,R10*%
X149882500Y-72503641D02*
X149882500Y-72196359D01*
X150642500Y-72503641D02*
X150642500Y-72196359D01*
%TO.C,R12*%
X156382500Y-69271359D02*
X156382500Y-69578641D01*
X157142500Y-69271359D02*
X157142500Y-69578641D01*
%TO.C,U3*%
X146875000Y-70277500D02*
X146075000Y-70277500D01*
X146875000Y-70277500D02*
X147675000Y-70277500D01*
X146875000Y-73397500D02*
X146075000Y-73397500D01*
X146875000Y-73397500D02*
X147675000Y-73397500D01*
X148415000Y-73677500D02*
X147935000Y-73677500D01*
X148175000Y-73347500D01*
X148415000Y-73677500D01*
G36*
X148415000Y-73677500D02*
G01*
X147935000Y-73677500D01*
X148175000Y-73347500D01*
X148415000Y-73677500D01*
G37*
%TO.C,J7*%
X69245000Y-69370000D02*
X70575000Y-69370000D01*
X69245000Y-70700000D02*
X69245000Y-69370000D01*
X69245000Y-71970000D02*
X69245000Y-74570000D01*
X69245000Y-71970000D02*
X71845000Y-71970000D01*
X69245000Y-74570000D02*
X74445000Y-74570000D01*
X71845000Y-69370000D02*
X74445000Y-69370000D01*
X71845000Y-71970000D02*
X71845000Y-69370000D01*
X74445000Y-69370000D02*
X74445000Y-74570000D01*
%TO.C,Module1*%
X86100000Y-53475000D02*
X86100000Y-86475000D01*
X89600000Y-89975000D02*
X137600000Y-89975000D01*
X104700000Y-51125000D02*
X105700000Y-51125000D01*
X104700000Y-54905000D02*
X104700000Y-51125000D01*
X104700000Y-54905000D02*
X105700000Y-54905000D01*
X104700000Y-88825000D02*
X104700000Y-85045000D01*
X127500000Y-51125000D02*
X126500000Y-51125000D01*
X127500000Y-54905000D02*
X126500000Y-54905000D01*
X127500000Y-54905000D02*
X127500000Y-51125000D01*
X127500000Y-85045000D02*
X126500000Y-85045000D01*
X127500000Y-88825000D02*
X126500000Y-88825000D01*
X127500000Y-88825000D02*
X127500000Y-85045000D01*
X137600000Y-49975000D02*
X89600000Y-49975000D01*
X141100000Y-86475000D02*
X141100000Y-53475000D01*
X86100000Y-53475000D02*
G75*
G02*
X89600000Y-49975026I3499974J0D01*
G01*
X89600000Y-89975000D02*
G75*
G02*
X86100000Y-86475000I-1J3499999D01*
G01*
X137600000Y-49975000D02*
G75*
G02*
X141099994Y-53475000I4J-3499990D01*
G01*
X141100000Y-86475000D02*
G75*
G02*
X137600000Y-89975000I-3499996J-4D01*
G01*
%TO.C,R5*%
X143520000Y-59103641D02*
X143520000Y-58796359D01*
X144280000Y-59103641D02*
X144280000Y-58796359D01*
%TO.C,C2*%
X146840000Y-75263748D02*
X146840000Y-75786252D01*
X148310000Y-75263748D02*
X148310000Y-75786252D01*
%TO.C,R14*%
X44946359Y-70445000D02*
X45253641Y-70445000D01*
X44946359Y-71205000D02*
X45253641Y-71205000D01*
%TO.C,J2*%
X40880000Y-61175000D02*
X43680000Y-61175000D01*
X40880000Y-68875000D02*
X43680000Y-68875000D01*
X43680000Y-60875000D02*
X43680000Y-61175000D01*
X43680000Y-60875000D02*
X45230000Y-60875000D01*
X43680000Y-68875000D02*
X43680000Y-69175000D01*
X43680000Y-69175000D02*
X45230000Y-69175000D01*
X46480000Y-63725000D02*
X46930000Y-63325000D01*
X46930000Y-63325000D02*
X46930000Y-64125000D01*
X46930000Y-64125000D02*
X46480000Y-63725000D01*
%TO.C,U1*%
X47712500Y-64297500D02*
X47712500Y-64497500D01*
X47712500Y-65597500D02*
X47712500Y-65397500D01*
X48262500Y-64297500D02*
X47712500Y-64297500D01*
X48262500Y-65597500D02*
X47712500Y-65597500D01*
X48692500Y-65987500D02*
X48692500Y-65707500D01*
X48972500Y-65707500D01*
X48692500Y-65987500D01*
G36*
X48692500Y-65987500D02*
G01*
X48692500Y-65707500D01*
X48972500Y-65707500D01*
X48692500Y-65987500D01*
G37*
%TO.C,J6*%
X148520000Y-79420000D02*
X149850000Y-79420000D01*
X148520000Y-80750000D02*
X148520000Y-79420000D01*
X148520000Y-82020000D02*
X148520000Y-87160000D01*
X148520000Y-82020000D02*
X151180000Y-82020000D01*
X148520000Y-87160000D02*
X151180000Y-87160000D01*
X151180000Y-82020000D02*
X151180000Y-87160000D01*
%TO.C,R13*%
X78028641Y-76695000D02*
X77721359Y-76695000D01*
X78028641Y-77455000D02*
X77721359Y-77455000D01*
%TD*%
M02*
