%TF.GenerationSoftware,KiCad,Pcbnew,8.0.4*%
%TF.CreationDate,2024-11-24T10:16:15+11:00*%
%TF.ProjectId,cm4-bare-minimum,636d342d-6261-4726-952d-6d696e696d75,V0.1*%
%TF.SameCoordinates,Original*%
%TF.FileFunction,Copper,L2,Bot*%
%TF.FilePolarity,Positive*%
%FSLAX46Y46*%
G04 Gerber Fmt 4.6, Leading zero omitted, Abs format (unit mm)*
G04 Created by KiCad (PCBNEW 8.0.4) date 2024-11-24 10:16:15*
%MOMM*%
%LPD*%
G01*
G04 APERTURE LIST*
G04 Aperture macros list*
%AMRoundRect*
0 Rectangle with rounded corners*
0 $1 Rounding radius*
0 $2 $3 $4 $5 $6 $7 $8 $9 X,Y pos of 4 corners*
0 Add a 4 corners polygon primitive as box body*
4,1,4,$2,$3,$4,$5,$6,$7,$8,$9,$2,$3,0*
0 Add four circle primitives for the rounded corners*
1,1,$1+$1,$2,$3*
1,1,$1+$1,$4,$5*
1,1,$1+$1,$6,$7*
1,1,$1+$1,$8,$9*
0 Add four rect primitives between the rounded corners*
20,1,$1+$1,$2,$3,$4,$5,0*
20,1,$1+$1,$4,$5,$6,$7,0*
20,1,$1+$1,$6,$7,$8,$9,0*
20,1,$1+$1,$8,$9,$2,$3,0*%
G04 Aperture macros list end*
%ADD10C,0.100000*%
%ADD11C,0.150000*%
%ADD12C,0.300000*%
%ADD13C,0.400000*%
%TA.AperFunction,ComponentPad*%
%ADD14RoundRect,0.250500X-0.499500X0.499500X-0.499500X-0.499500X0.499500X-0.499500X0.499500X0.499500X0*%
%TD*%
%TA.AperFunction,ComponentPad*%
%ADD15C,1.500000*%
%TD*%
%TA.AperFunction,ComponentPad*%
%ADD16C,2.500000*%
%TD*%
%TA.AperFunction,ComponentPad*%
%ADD17R,1.730000X2.030000*%
%TD*%
%TA.AperFunction,ComponentPad*%
%ADD18O,1.730000X2.030000*%
%TD*%
%TA.AperFunction,ComponentPad*%
%ADD19R,1.700000X1.700000*%
%TD*%
%TA.AperFunction,ComponentPad*%
%ADD20O,1.700000X1.700000*%
%TD*%
%TA.AperFunction,ComponentPad*%
%ADD21O,2.100000X1.000000*%
%TD*%
%TA.AperFunction,ComponentPad*%
%ADD22O,1.800000X1.000000*%
%TD*%
%TA.AperFunction,ComponentPad*%
%ADD23O,1.700000X1.300000*%
%TD*%
%TA.AperFunction,ComponentPad*%
%ADD24O,1.400000X1.000000*%
%TD*%
%TA.AperFunction,ViaPad*%
%ADD25C,0.300000*%
%TD*%
%TA.AperFunction,ViaPad*%
%ADD26C,0.500000*%
%TD*%
%TA.AperFunction,Conductor*%
%ADD27C,0.200000*%
%TD*%
%TA.AperFunction,Conductor*%
%ADD28C,0.500000*%
%TD*%
%TA.AperFunction,Conductor*%
%ADD29C,0.100000*%
%TD*%
G04 APERTURE END LIST*
D10*
D11*
X90007200Y-104005800D02*
X198007200Y-104005800D01*
X198007200Y-136005800D01*
X90007200Y-136005800D01*
X90007200Y-104005800D01*
D10*
D11*
X10000000Y-10000000D02*
X200007200Y-10000000D01*
X200007200Y-138005800D01*
X10000000Y-138005800D01*
X10000000Y-10000000D01*
D10*
D11*
X12000000Y-12000000D02*
X198007200Y-12000000D01*
X198007200Y-136005800D01*
X12000000Y-136005800D01*
X12000000Y-12000000D01*
D10*
D11*
X60000000Y-12000000D02*
X60000000Y-10000000D01*
D10*
D11*
X110000000Y-12000000D02*
X110000000Y-10000000D01*
D10*
D11*
X160000000Y-12000000D02*
X160000000Y-10000000D01*
D10*
D11*
X36089160Y-11593604D02*
X35346303Y-11593604D01*
X35717731Y-11593604D02*
X35717731Y-10293604D01*
X35717731Y-10293604D02*
X35593922Y-10479319D01*
X35593922Y-10479319D02*
X35470112Y-10603128D01*
X35470112Y-10603128D02*
X35346303Y-10665033D01*
D10*
D11*
X85346303Y-10417414D02*
X85408207Y-10355509D01*
X85408207Y-10355509D02*
X85532017Y-10293604D01*
X85532017Y-10293604D02*
X85841541Y-10293604D01*
X85841541Y-10293604D02*
X85965350Y-10355509D01*
X85965350Y-10355509D02*
X86027255Y-10417414D01*
X86027255Y-10417414D02*
X86089160Y-10541223D01*
X86089160Y-10541223D02*
X86089160Y-10665033D01*
X86089160Y-10665033D02*
X86027255Y-10850747D01*
X86027255Y-10850747D02*
X85284398Y-11593604D01*
X85284398Y-11593604D02*
X86089160Y-11593604D01*
D10*
D11*
X135284398Y-10293604D02*
X136089160Y-10293604D01*
X136089160Y-10293604D02*
X135655826Y-10788842D01*
X135655826Y-10788842D02*
X135841541Y-10788842D01*
X135841541Y-10788842D02*
X135965350Y-10850747D01*
X135965350Y-10850747D02*
X136027255Y-10912652D01*
X136027255Y-10912652D02*
X136089160Y-11036461D01*
X136089160Y-11036461D02*
X136089160Y-11345985D01*
X136089160Y-11345985D02*
X136027255Y-11469795D01*
X136027255Y-11469795D02*
X135965350Y-11531700D01*
X135965350Y-11531700D02*
X135841541Y-11593604D01*
X135841541Y-11593604D02*
X135470112Y-11593604D01*
X135470112Y-11593604D02*
X135346303Y-11531700D01*
X135346303Y-11531700D02*
X135284398Y-11469795D01*
D10*
D11*
X185965350Y-10726938D02*
X185965350Y-11593604D01*
X185655826Y-10231700D02*
X185346303Y-11160271D01*
X185346303Y-11160271D02*
X186151064Y-11160271D01*
D10*
D11*
X60000000Y-136005800D02*
X60000000Y-138005800D01*
D10*
D11*
X110000000Y-136005800D02*
X110000000Y-138005800D01*
D10*
D11*
X160000000Y-136005800D02*
X160000000Y-138005800D01*
D10*
D11*
X36089160Y-137599404D02*
X35346303Y-137599404D01*
X35717731Y-137599404D02*
X35717731Y-136299404D01*
X35717731Y-136299404D02*
X35593922Y-136485119D01*
X35593922Y-136485119D02*
X35470112Y-136608928D01*
X35470112Y-136608928D02*
X35346303Y-136670833D01*
D10*
D11*
X85346303Y-136423214D02*
X85408207Y-136361309D01*
X85408207Y-136361309D02*
X85532017Y-136299404D01*
X85532017Y-136299404D02*
X85841541Y-136299404D01*
X85841541Y-136299404D02*
X85965350Y-136361309D01*
X85965350Y-136361309D02*
X86027255Y-136423214D01*
X86027255Y-136423214D02*
X86089160Y-136547023D01*
X86089160Y-136547023D02*
X86089160Y-136670833D01*
X86089160Y-136670833D02*
X86027255Y-136856547D01*
X86027255Y-136856547D02*
X85284398Y-137599404D01*
X85284398Y-137599404D02*
X86089160Y-137599404D01*
D10*
D11*
X135284398Y-136299404D02*
X136089160Y-136299404D01*
X136089160Y-136299404D02*
X135655826Y-136794642D01*
X135655826Y-136794642D02*
X135841541Y-136794642D01*
X135841541Y-136794642D02*
X135965350Y-136856547D01*
X135965350Y-136856547D02*
X136027255Y-136918452D01*
X136027255Y-136918452D02*
X136089160Y-137042261D01*
X136089160Y-137042261D02*
X136089160Y-137351785D01*
X136089160Y-137351785D02*
X136027255Y-137475595D01*
X136027255Y-137475595D02*
X135965350Y-137537500D01*
X135965350Y-137537500D02*
X135841541Y-137599404D01*
X135841541Y-137599404D02*
X135470112Y-137599404D01*
X135470112Y-137599404D02*
X135346303Y-137537500D01*
X135346303Y-137537500D02*
X135284398Y-137475595D01*
D10*
D11*
X185965350Y-136732738D02*
X185965350Y-137599404D01*
X185655826Y-136237500D02*
X185346303Y-137166071D01*
X185346303Y-137166071D02*
X186151064Y-137166071D01*
D10*
D11*
X10000000Y-60000000D02*
X12000000Y-60000000D01*
D10*
D11*
X10000000Y-110000000D02*
X12000000Y-110000000D01*
D10*
D11*
X10690476Y-35222176D02*
X11309523Y-35222176D01*
X10566666Y-35593604D02*
X10999999Y-34293604D01*
X10999999Y-34293604D02*
X11433333Y-35593604D01*
D10*
D11*
X11092857Y-84912652D02*
X11278571Y-84974557D01*
X11278571Y-84974557D02*
X11340476Y-85036461D01*
X11340476Y-85036461D02*
X11402380Y-85160271D01*
X11402380Y-85160271D02*
X11402380Y-85345985D01*
X11402380Y-85345985D02*
X11340476Y-85469795D01*
X11340476Y-85469795D02*
X11278571Y-85531700D01*
X11278571Y-85531700D02*
X11154761Y-85593604D01*
X11154761Y-85593604D02*
X10659523Y-85593604D01*
X10659523Y-85593604D02*
X10659523Y-84293604D01*
X10659523Y-84293604D02*
X11092857Y-84293604D01*
X11092857Y-84293604D02*
X11216666Y-84355509D01*
X11216666Y-84355509D02*
X11278571Y-84417414D01*
X11278571Y-84417414D02*
X11340476Y-84541223D01*
X11340476Y-84541223D02*
X11340476Y-84665033D01*
X11340476Y-84665033D02*
X11278571Y-84788842D01*
X11278571Y-84788842D02*
X11216666Y-84850747D01*
X11216666Y-84850747D02*
X11092857Y-84912652D01*
X11092857Y-84912652D02*
X10659523Y-84912652D01*
D10*
D11*
X11402380Y-135469795D02*
X11340476Y-135531700D01*
X11340476Y-135531700D02*
X11154761Y-135593604D01*
X11154761Y-135593604D02*
X11030952Y-135593604D01*
X11030952Y-135593604D02*
X10845238Y-135531700D01*
X10845238Y-135531700D02*
X10721428Y-135407890D01*
X10721428Y-135407890D02*
X10659523Y-135284080D01*
X10659523Y-135284080D02*
X10597619Y-135036461D01*
X10597619Y-135036461D02*
X10597619Y-134850747D01*
X10597619Y-134850747D02*
X10659523Y-134603128D01*
X10659523Y-134603128D02*
X10721428Y-134479319D01*
X10721428Y-134479319D02*
X10845238Y-134355509D01*
X10845238Y-134355509D02*
X11030952Y-134293604D01*
X11030952Y-134293604D02*
X11154761Y-134293604D01*
X11154761Y-134293604D02*
X11340476Y-134355509D01*
X11340476Y-134355509D02*
X11402380Y-134417414D01*
D10*
D11*
X200007200Y-60000000D02*
X198007200Y-60000000D01*
D10*
D11*
X200007200Y-110000000D02*
X198007200Y-110000000D01*
D10*
D11*
X198697676Y-35222176D02*
X199316723Y-35222176D01*
X198573866Y-35593604D02*
X199007199Y-34293604D01*
X199007199Y-34293604D02*
X199440533Y-35593604D01*
D10*
D11*
X199100057Y-84912652D02*
X199285771Y-84974557D01*
X199285771Y-84974557D02*
X199347676Y-85036461D01*
X199347676Y-85036461D02*
X199409580Y-85160271D01*
X199409580Y-85160271D02*
X199409580Y-85345985D01*
X199409580Y-85345985D02*
X199347676Y-85469795D01*
X199347676Y-85469795D02*
X199285771Y-85531700D01*
X199285771Y-85531700D02*
X199161961Y-85593604D01*
X199161961Y-85593604D02*
X198666723Y-85593604D01*
X198666723Y-85593604D02*
X198666723Y-84293604D01*
X198666723Y-84293604D02*
X199100057Y-84293604D01*
X199100057Y-84293604D02*
X199223866Y-84355509D01*
X199223866Y-84355509D02*
X199285771Y-84417414D01*
X199285771Y-84417414D02*
X199347676Y-84541223D01*
X199347676Y-84541223D02*
X199347676Y-84665033D01*
X199347676Y-84665033D02*
X199285771Y-84788842D01*
X199285771Y-84788842D02*
X199223866Y-84850747D01*
X199223866Y-84850747D02*
X199100057Y-84912652D01*
X199100057Y-84912652D02*
X198666723Y-84912652D01*
D10*
D11*
X199409580Y-135469795D02*
X199347676Y-135531700D01*
X199347676Y-135531700D02*
X199161961Y-135593604D01*
X199161961Y-135593604D02*
X199038152Y-135593604D01*
X199038152Y-135593604D02*
X198852438Y-135531700D01*
X198852438Y-135531700D02*
X198728628Y-135407890D01*
X198728628Y-135407890D02*
X198666723Y-135284080D01*
X198666723Y-135284080D02*
X198604819Y-135036461D01*
X198604819Y-135036461D02*
X198604819Y-134850747D01*
X198604819Y-134850747D02*
X198666723Y-134603128D01*
X198666723Y-134603128D02*
X198728628Y-134479319D01*
X198728628Y-134479319D02*
X198852438Y-134355509D01*
X198852438Y-134355509D02*
X199038152Y-134293604D01*
X199038152Y-134293604D02*
X199161961Y-134293604D01*
X199161961Y-134293604D02*
X199347676Y-134355509D01*
X199347676Y-134355509D02*
X199409580Y-134417414D01*
D10*
D11*
X113463026Y-131791928D02*
X113463026Y-130291928D01*
X113463026Y-130291928D02*
X113820169Y-130291928D01*
X113820169Y-130291928D02*
X114034455Y-130363357D01*
X114034455Y-130363357D02*
X114177312Y-130506214D01*
X114177312Y-130506214D02*
X114248741Y-130649071D01*
X114248741Y-130649071D02*
X114320169Y-130934785D01*
X114320169Y-130934785D02*
X114320169Y-131149071D01*
X114320169Y-131149071D02*
X114248741Y-131434785D01*
X114248741Y-131434785D02*
X114177312Y-131577642D01*
X114177312Y-131577642D02*
X114034455Y-131720500D01*
X114034455Y-131720500D02*
X113820169Y-131791928D01*
X113820169Y-131791928D02*
X113463026Y-131791928D01*
X115605884Y-131791928D02*
X115605884Y-131006214D01*
X115605884Y-131006214D02*
X115534455Y-130863357D01*
X115534455Y-130863357D02*
X115391598Y-130791928D01*
X115391598Y-130791928D02*
X115105884Y-130791928D01*
X115105884Y-130791928D02*
X114963026Y-130863357D01*
X115605884Y-131720500D02*
X115463026Y-131791928D01*
X115463026Y-131791928D02*
X115105884Y-131791928D01*
X115105884Y-131791928D02*
X114963026Y-131720500D01*
X114963026Y-131720500D02*
X114891598Y-131577642D01*
X114891598Y-131577642D02*
X114891598Y-131434785D01*
X114891598Y-131434785D02*
X114963026Y-131291928D01*
X114963026Y-131291928D02*
X115105884Y-131220500D01*
X115105884Y-131220500D02*
X115463026Y-131220500D01*
X115463026Y-131220500D02*
X115605884Y-131149071D01*
X116105884Y-130791928D02*
X116677312Y-130791928D01*
X116320169Y-130291928D02*
X116320169Y-131577642D01*
X116320169Y-131577642D02*
X116391598Y-131720500D01*
X116391598Y-131720500D02*
X116534455Y-131791928D01*
X116534455Y-131791928D02*
X116677312Y-131791928D01*
X117748741Y-131720500D02*
X117605884Y-131791928D01*
X117605884Y-131791928D02*
X117320170Y-131791928D01*
X117320170Y-131791928D02*
X117177312Y-131720500D01*
X117177312Y-131720500D02*
X117105884Y-131577642D01*
X117105884Y-131577642D02*
X117105884Y-131006214D01*
X117105884Y-131006214D02*
X117177312Y-130863357D01*
X117177312Y-130863357D02*
X117320170Y-130791928D01*
X117320170Y-130791928D02*
X117605884Y-130791928D01*
X117605884Y-130791928D02*
X117748741Y-130863357D01*
X117748741Y-130863357D02*
X117820170Y-131006214D01*
X117820170Y-131006214D02*
X117820170Y-131149071D01*
X117820170Y-131149071D02*
X117105884Y-131291928D01*
X118463026Y-131649071D02*
X118534455Y-131720500D01*
X118534455Y-131720500D02*
X118463026Y-131791928D01*
X118463026Y-131791928D02*
X118391598Y-131720500D01*
X118391598Y-131720500D02*
X118463026Y-131649071D01*
X118463026Y-131649071D02*
X118463026Y-131791928D01*
X118463026Y-130863357D02*
X118534455Y-130934785D01*
X118534455Y-130934785D02*
X118463026Y-131006214D01*
X118463026Y-131006214D02*
X118391598Y-130934785D01*
X118391598Y-130934785D02*
X118463026Y-130863357D01*
X118463026Y-130863357D02*
X118463026Y-131006214D01*
X120248741Y-130434785D02*
X120320169Y-130363357D01*
X120320169Y-130363357D02*
X120463027Y-130291928D01*
X120463027Y-130291928D02*
X120820169Y-130291928D01*
X120820169Y-130291928D02*
X120963027Y-130363357D01*
X120963027Y-130363357D02*
X121034455Y-130434785D01*
X121034455Y-130434785D02*
X121105884Y-130577642D01*
X121105884Y-130577642D02*
X121105884Y-130720500D01*
X121105884Y-130720500D02*
X121034455Y-130934785D01*
X121034455Y-130934785D02*
X120177312Y-131791928D01*
X120177312Y-131791928D02*
X121105884Y-131791928D01*
X122034455Y-130291928D02*
X122177312Y-130291928D01*
X122177312Y-130291928D02*
X122320169Y-130363357D01*
X122320169Y-130363357D02*
X122391598Y-130434785D01*
X122391598Y-130434785D02*
X122463026Y-130577642D01*
X122463026Y-130577642D02*
X122534455Y-130863357D01*
X122534455Y-130863357D02*
X122534455Y-131220500D01*
X122534455Y-131220500D02*
X122463026Y-131506214D01*
X122463026Y-131506214D02*
X122391598Y-131649071D01*
X122391598Y-131649071D02*
X122320169Y-131720500D01*
X122320169Y-131720500D02*
X122177312Y-131791928D01*
X122177312Y-131791928D02*
X122034455Y-131791928D01*
X122034455Y-131791928D02*
X121891598Y-131720500D01*
X121891598Y-131720500D02*
X121820169Y-131649071D01*
X121820169Y-131649071D02*
X121748740Y-131506214D01*
X121748740Y-131506214D02*
X121677312Y-131220500D01*
X121677312Y-131220500D02*
X121677312Y-130863357D01*
X121677312Y-130863357D02*
X121748740Y-130577642D01*
X121748740Y-130577642D02*
X121820169Y-130434785D01*
X121820169Y-130434785D02*
X121891598Y-130363357D01*
X121891598Y-130363357D02*
X122034455Y-130291928D01*
X123105883Y-130434785D02*
X123177311Y-130363357D01*
X123177311Y-130363357D02*
X123320169Y-130291928D01*
X123320169Y-130291928D02*
X123677311Y-130291928D01*
X123677311Y-130291928D02*
X123820169Y-130363357D01*
X123820169Y-130363357D02*
X123891597Y-130434785D01*
X123891597Y-130434785D02*
X123963026Y-130577642D01*
X123963026Y-130577642D02*
X123963026Y-130720500D01*
X123963026Y-130720500D02*
X123891597Y-130934785D01*
X123891597Y-130934785D02*
X123034454Y-131791928D01*
X123034454Y-131791928D02*
X123963026Y-131791928D01*
X125248740Y-130791928D02*
X125248740Y-131791928D01*
X124891597Y-130220500D02*
X124534454Y-131291928D01*
X124534454Y-131291928D02*
X125463025Y-131291928D01*
X126034453Y-131220500D02*
X127177311Y-131220500D01*
X128677311Y-131791928D02*
X127820168Y-131791928D01*
X128248739Y-131791928D02*
X128248739Y-130291928D01*
X128248739Y-130291928D02*
X128105882Y-130506214D01*
X128105882Y-130506214D02*
X127963025Y-130649071D01*
X127963025Y-130649071D02*
X127820168Y-130720500D01*
X130105882Y-131791928D02*
X129248739Y-131791928D01*
X129677310Y-131791928D02*
X129677310Y-130291928D01*
X129677310Y-130291928D02*
X129534453Y-130506214D01*
X129534453Y-130506214D02*
X129391596Y-130649071D01*
X129391596Y-130649071D02*
X129248739Y-130720500D01*
X130748738Y-131220500D02*
X131891596Y-131220500D01*
X132534453Y-130434785D02*
X132605881Y-130363357D01*
X132605881Y-130363357D02*
X132748739Y-130291928D01*
X132748739Y-130291928D02*
X133105881Y-130291928D01*
X133105881Y-130291928D02*
X133248739Y-130363357D01*
X133248739Y-130363357D02*
X133320167Y-130434785D01*
X133320167Y-130434785D02*
X133391596Y-130577642D01*
X133391596Y-130577642D02*
X133391596Y-130720500D01*
X133391596Y-130720500D02*
X133320167Y-130934785D01*
X133320167Y-130934785D02*
X132463024Y-131791928D01*
X132463024Y-131791928D02*
X133391596Y-131791928D01*
X134677310Y-130791928D02*
X134677310Y-131791928D01*
X134320167Y-130220500D02*
X133963024Y-131291928D01*
X133963024Y-131291928D02*
X134891595Y-131291928D01*
D10*
D11*
X90007200Y-132505800D02*
X198007200Y-132505800D01*
D10*
D11*
X91463026Y-134591928D02*
X91463026Y-133091928D01*
X92320169Y-134591928D02*
X91677312Y-133734785D01*
X92320169Y-133091928D02*
X91463026Y-133949071D01*
X92963026Y-134591928D02*
X92963026Y-133591928D01*
X92963026Y-133091928D02*
X92891598Y-133163357D01*
X92891598Y-133163357D02*
X92963026Y-133234785D01*
X92963026Y-133234785D02*
X93034455Y-133163357D01*
X93034455Y-133163357D02*
X92963026Y-133091928D01*
X92963026Y-133091928D02*
X92963026Y-133234785D01*
X94534455Y-134449071D02*
X94463027Y-134520500D01*
X94463027Y-134520500D02*
X94248741Y-134591928D01*
X94248741Y-134591928D02*
X94105884Y-134591928D01*
X94105884Y-134591928D02*
X93891598Y-134520500D01*
X93891598Y-134520500D02*
X93748741Y-134377642D01*
X93748741Y-134377642D02*
X93677312Y-134234785D01*
X93677312Y-134234785D02*
X93605884Y-133949071D01*
X93605884Y-133949071D02*
X93605884Y-133734785D01*
X93605884Y-133734785D02*
X93677312Y-133449071D01*
X93677312Y-133449071D02*
X93748741Y-133306214D01*
X93748741Y-133306214D02*
X93891598Y-133163357D01*
X93891598Y-133163357D02*
X94105884Y-133091928D01*
X94105884Y-133091928D02*
X94248741Y-133091928D01*
X94248741Y-133091928D02*
X94463027Y-133163357D01*
X94463027Y-133163357D02*
X94534455Y-133234785D01*
X95820170Y-134591928D02*
X95820170Y-133806214D01*
X95820170Y-133806214D02*
X95748741Y-133663357D01*
X95748741Y-133663357D02*
X95605884Y-133591928D01*
X95605884Y-133591928D02*
X95320170Y-133591928D01*
X95320170Y-133591928D02*
X95177312Y-133663357D01*
X95820170Y-134520500D02*
X95677312Y-134591928D01*
X95677312Y-134591928D02*
X95320170Y-134591928D01*
X95320170Y-134591928D02*
X95177312Y-134520500D01*
X95177312Y-134520500D02*
X95105884Y-134377642D01*
X95105884Y-134377642D02*
X95105884Y-134234785D01*
X95105884Y-134234785D02*
X95177312Y-134091928D01*
X95177312Y-134091928D02*
X95320170Y-134020500D01*
X95320170Y-134020500D02*
X95677312Y-134020500D01*
X95677312Y-134020500D02*
X95820170Y-133949071D01*
X97177313Y-134591928D02*
X97177313Y-133091928D01*
X97177313Y-134520500D02*
X97034455Y-134591928D01*
X97034455Y-134591928D02*
X96748741Y-134591928D01*
X96748741Y-134591928D02*
X96605884Y-134520500D01*
X96605884Y-134520500D02*
X96534455Y-134449071D01*
X96534455Y-134449071D02*
X96463027Y-134306214D01*
X96463027Y-134306214D02*
X96463027Y-133877642D01*
X96463027Y-133877642D02*
X96534455Y-133734785D01*
X96534455Y-133734785D02*
X96605884Y-133663357D01*
X96605884Y-133663357D02*
X96748741Y-133591928D01*
X96748741Y-133591928D02*
X97034455Y-133591928D01*
X97034455Y-133591928D02*
X97177313Y-133663357D01*
X99034455Y-133806214D02*
X99534455Y-133806214D01*
X99748741Y-134591928D02*
X99034455Y-134591928D01*
X99034455Y-134591928D02*
X99034455Y-133091928D01*
X99034455Y-133091928D02*
X99748741Y-133091928D01*
X100391598Y-134449071D02*
X100463027Y-134520500D01*
X100463027Y-134520500D02*
X100391598Y-134591928D01*
X100391598Y-134591928D02*
X100320170Y-134520500D01*
X100320170Y-134520500D02*
X100391598Y-134449071D01*
X100391598Y-134449071D02*
X100391598Y-134591928D01*
X101105884Y-134591928D02*
X101105884Y-133091928D01*
X101105884Y-133091928D02*
X101463027Y-133091928D01*
X101463027Y-133091928D02*
X101677313Y-133163357D01*
X101677313Y-133163357D02*
X101820170Y-133306214D01*
X101820170Y-133306214D02*
X101891599Y-133449071D01*
X101891599Y-133449071D02*
X101963027Y-133734785D01*
X101963027Y-133734785D02*
X101963027Y-133949071D01*
X101963027Y-133949071D02*
X101891599Y-134234785D01*
X101891599Y-134234785D02*
X101820170Y-134377642D01*
X101820170Y-134377642D02*
X101677313Y-134520500D01*
X101677313Y-134520500D02*
X101463027Y-134591928D01*
X101463027Y-134591928D02*
X101105884Y-134591928D01*
X102605884Y-134449071D02*
X102677313Y-134520500D01*
X102677313Y-134520500D02*
X102605884Y-134591928D01*
X102605884Y-134591928D02*
X102534456Y-134520500D01*
X102534456Y-134520500D02*
X102605884Y-134449071D01*
X102605884Y-134449071D02*
X102605884Y-134591928D01*
X103248742Y-134163357D02*
X103963028Y-134163357D01*
X103105885Y-134591928D02*
X103605885Y-133091928D01*
X103605885Y-133091928D02*
X104105885Y-134591928D01*
X104605884Y-134449071D02*
X104677313Y-134520500D01*
X104677313Y-134520500D02*
X104605884Y-134591928D01*
X104605884Y-134591928D02*
X104534456Y-134520500D01*
X104534456Y-134520500D02*
X104605884Y-134449071D01*
X104605884Y-134449071D02*
X104605884Y-134591928D01*
X106677313Y-133734785D02*
X106534456Y-133663357D01*
X106534456Y-133663357D02*
X106463027Y-133591928D01*
X106463027Y-133591928D02*
X106391599Y-133449071D01*
X106391599Y-133449071D02*
X106391599Y-133377642D01*
X106391599Y-133377642D02*
X106463027Y-133234785D01*
X106463027Y-133234785D02*
X106534456Y-133163357D01*
X106534456Y-133163357D02*
X106677313Y-133091928D01*
X106677313Y-133091928D02*
X106963027Y-133091928D01*
X106963027Y-133091928D02*
X107105885Y-133163357D01*
X107105885Y-133163357D02*
X107177313Y-133234785D01*
X107177313Y-133234785D02*
X107248742Y-133377642D01*
X107248742Y-133377642D02*
X107248742Y-133449071D01*
X107248742Y-133449071D02*
X107177313Y-133591928D01*
X107177313Y-133591928D02*
X107105885Y-133663357D01*
X107105885Y-133663357D02*
X106963027Y-133734785D01*
X106963027Y-133734785D02*
X106677313Y-133734785D01*
X106677313Y-133734785D02*
X106534456Y-133806214D01*
X106534456Y-133806214D02*
X106463027Y-133877642D01*
X106463027Y-133877642D02*
X106391599Y-134020500D01*
X106391599Y-134020500D02*
X106391599Y-134306214D01*
X106391599Y-134306214D02*
X106463027Y-134449071D01*
X106463027Y-134449071D02*
X106534456Y-134520500D01*
X106534456Y-134520500D02*
X106677313Y-134591928D01*
X106677313Y-134591928D02*
X106963027Y-134591928D01*
X106963027Y-134591928D02*
X107105885Y-134520500D01*
X107105885Y-134520500D02*
X107177313Y-134449071D01*
X107177313Y-134449071D02*
X107248742Y-134306214D01*
X107248742Y-134306214D02*
X107248742Y-134020500D01*
X107248742Y-134020500D02*
X107177313Y-133877642D01*
X107177313Y-133877642D02*
X107105885Y-133806214D01*
X107105885Y-133806214D02*
X106963027Y-133734785D01*
X107891598Y-134449071D02*
X107963027Y-134520500D01*
X107963027Y-134520500D02*
X107891598Y-134591928D01*
X107891598Y-134591928D02*
X107820170Y-134520500D01*
X107820170Y-134520500D02*
X107891598Y-134449071D01*
X107891598Y-134449071D02*
X107891598Y-134591928D01*
X108891599Y-133091928D02*
X109034456Y-133091928D01*
X109034456Y-133091928D02*
X109177313Y-133163357D01*
X109177313Y-133163357D02*
X109248742Y-133234785D01*
X109248742Y-133234785D02*
X109320170Y-133377642D01*
X109320170Y-133377642D02*
X109391599Y-133663357D01*
X109391599Y-133663357D02*
X109391599Y-134020500D01*
X109391599Y-134020500D02*
X109320170Y-134306214D01*
X109320170Y-134306214D02*
X109248742Y-134449071D01*
X109248742Y-134449071D02*
X109177313Y-134520500D01*
X109177313Y-134520500D02*
X109034456Y-134591928D01*
X109034456Y-134591928D02*
X108891599Y-134591928D01*
X108891599Y-134591928D02*
X108748742Y-134520500D01*
X108748742Y-134520500D02*
X108677313Y-134449071D01*
X108677313Y-134449071D02*
X108605884Y-134306214D01*
X108605884Y-134306214D02*
X108534456Y-134020500D01*
X108534456Y-134020500D02*
X108534456Y-133663357D01*
X108534456Y-133663357D02*
X108605884Y-133377642D01*
X108605884Y-133377642D02*
X108677313Y-133234785D01*
X108677313Y-133234785D02*
X108748742Y-133163357D01*
X108748742Y-133163357D02*
X108891599Y-133091928D01*
X110034455Y-134449071D02*
X110105884Y-134520500D01*
X110105884Y-134520500D02*
X110034455Y-134591928D01*
X110034455Y-134591928D02*
X109963027Y-134520500D01*
X109963027Y-134520500D02*
X110034455Y-134449071D01*
X110034455Y-134449071D02*
X110034455Y-134591928D01*
X111391599Y-133591928D02*
X111391599Y-134591928D01*
X111034456Y-133020500D02*
X110677313Y-134091928D01*
X110677313Y-134091928D02*
X111605884Y-134091928D01*
D10*
D11*
X90007200Y-129505800D02*
X198007200Y-129505800D01*
D10*
D12*
X177418853Y-131784128D02*
X176918853Y-131069842D01*
X176561710Y-131784128D02*
X176561710Y-130284128D01*
X176561710Y-130284128D02*
X177133139Y-130284128D01*
X177133139Y-130284128D02*
X177275996Y-130355557D01*
X177275996Y-130355557D02*
X177347425Y-130426985D01*
X177347425Y-130426985D02*
X177418853Y-130569842D01*
X177418853Y-130569842D02*
X177418853Y-130784128D01*
X177418853Y-130784128D02*
X177347425Y-130926985D01*
X177347425Y-130926985D02*
X177275996Y-130998414D01*
X177275996Y-130998414D02*
X177133139Y-131069842D01*
X177133139Y-131069842D02*
X176561710Y-131069842D01*
X178633139Y-131712700D02*
X178490282Y-131784128D01*
X178490282Y-131784128D02*
X178204568Y-131784128D01*
X178204568Y-131784128D02*
X178061710Y-131712700D01*
X178061710Y-131712700D02*
X177990282Y-131569842D01*
X177990282Y-131569842D02*
X177990282Y-130998414D01*
X177990282Y-130998414D02*
X178061710Y-130855557D01*
X178061710Y-130855557D02*
X178204568Y-130784128D01*
X178204568Y-130784128D02*
X178490282Y-130784128D01*
X178490282Y-130784128D02*
X178633139Y-130855557D01*
X178633139Y-130855557D02*
X178704568Y-130998414D01*
X178704568Y-130998414D02*
X178704568Y-131141271D01*
X178704568Y-131141271D02*
X177990282Y-131284128D01*
X179204567Y-130784128D02*
X179561710Y-131784128D01*
X179561710Y-131784128D02*
X179918853Y-130784128D01*
X180490281Y-131641271D02*
X180561710Y-131712700D01*
X180561710Y-131712700D02*
X180490281Y-131784128D01*
X180490281Y-131784128D02*
X180418853Y-131712700D01*
X180418853Y-131712700D02*
X180490281Y-131641271D01*
X180490281Y-131641271D02*
X180490281Y-131784128D01*
X180490281Y-130855557D02*
X180561710Y-130926985D01*
X180561710Y-130926985D02*
X180490281Y-130998414D01*
X180490281Y-130998414D02*
X180418853Y-130926985D01*
X180418853Y-130926985D02*
X180490281Y-130855557D01*
X180490281Y-130855557D02*
X180490281Y-130998414D01*
X182133139Y-130284128D02*
X182633139Y-131784128D01*
X182633139Y-131784128D02*
X183133139Y-130284128D01*
X183918853Y-130284128D02*
X184061710Y-130284128D01*
X184061710Y-130284128D02*
X184204567Y-130355557D01*
X184204567Y-130355557D02*
X184275996Y-130426985D01*
X184275996Y-130426985D02*
X184347424Y-130569842D01*
X184347424Y-130569842D02*
X184418853Y-130855557D01*
X184418853Y-130855557D02*
X184418853Y-131212700D01*
X184418853Y-131212700D02*
X184347424Y-131498414D01*
X184347424Y-131498414D02*
X184275996Y-131641271D01*
X184275996Y-131641271D02*
X184204567Y-131712700D01*
X184204567Y-131712700D02*
X184061710Y-131784128D01*
X184061710Y-131784128D02*
X183918853Y-131784128D01*
X183918853Y-131784128D02*
X183775996Y-131712700D01*
X183775996Y-131712700D02*
X183704567Y-131641271D01*
X183704567Y-131641271D02*
X183633138Y-131498414D01*
X183633138Y-131498414D02*
X183561710Y-131212700D01*
X183561710Y-131212700D02*
X183561710Y-130855557D01*
X183561710Y-130855557D02*
X183633138Y-130569842D01*
X183633138Y-130569842D02*
X183704567Y-130426985D01*
X183704567Y-130426985D02*
X183775996Y-130355557D01*
X183775996Y-130355557D02*
X183918853Y-130284128D01*
X185061709Y-131641271D02*
X185133138Y-131712700D01*
X185133138Y-131712700D02*
X185061709Y-131784128D01*
X185061709Y-131784128D02*
X184990281Y-131712700D01*
X184990281Y-131712700D02*
X185061709Y-131641271D01*
X185061709Y-131641271D02*
X185061709Y-131784128D01*
X186561710Y-131784128D02*
X185704567Y-131784128D01*
X186133138Y-131784128D02*
X186133138Y-130284128D01*
X186133138Y-130284128D02*
X185990281Y-130498414D01*
X185990281Y-130498414D02*
X185847424Y-130641271D01*
X185847424Y-130641271D02*
X185704567Y-130712700D01*
D10*
D11*
X91391598Y-131720500D02*
X91605884Y-131791928D01*
X91605884Y-131791928D02*
X91963026Y-131791928D01*
X91963026Y-131791928D02*
X92105884Y-131720500D01*
X92105884Y-131720500D02*
X92177312Y-131649071D01*
X92177312Y-131649071D02*
X92248741Y-131506214D01*
X92248741Y-131506214D02*
X92248741Y-131363357D01*
X92248741Y-131363357D02*
X92177312Y-131220500D01*
X92177312Y-131220500D02*
X92105884Y-131149071D01*
X92105884Y-131149071D02*
X91963026Y-131077642D01*
X91963026Y-131077642D02*
X91677312Y-131006214D01*
X91677312Y-131006214D02*
X91534455Y-130934785D01*
X91534455Y-130934785D02*
X91463026Y-130863357D01*
X91463026Y-130863357D02*
X91391598Y-130720500D01*
X91391598Y-130720500D02*
X91391598Y-130577642D01*
X91391598Y-130577642D02*
X91463026Y-130434785D01*
X91463026Y-130434785D02*
X91534455Y-130363357D01*
X91534455Y-130363357D02*
X91677312Y-130291928D01*
X91677312Y-130291928D02*
X92034455Y-130291928D01*
X92034455Y-130291928D02*
X92248741Y-130363357D01*
X92891597Y-131791928D02*
X92891597Y-130791928D01*
X92891597Y-130291928D02*
X92820169Y-130363357D01*
X92820169Y-130363357D02*
X92891597Y-130434785D01*
X92891597Y-130434785D02*
X92963026Y-130363357D01*
X92963026Y-130363357D02*
X92891597Y-130291928D01*
X92891597Y-130291928D02*
X92891597Y-130434785D01*
X93463026Y-130791928D02*
X94248741Y-130791928D01*
X94248741Y-130791928D02*
X93463026Y-131791928D01*
X93463026Y-131791928D02*
X94248741Y-131791928D01*
X95391598Y-131720500D02*
X95248741Y-131791928D01*
X95248741Y-131791928D02*
X94963027Y-131791928D01*
X94963027Y-131791928D02*
X94820169Y-131720500D01*
X94820169Y-131720500D02*
X94748741Y-131577642D01*
X94748741Y-131577642D02*
X94748741Y-131006214D01*
X94748741Y-131006214D02*
X94820169Y-130863357D01*
X94820169Y-130863357D02*
X94963027Y-130791928D01*
X94963027Y-130791928D02*
X95248741Y-130791928D01*
X95248741Y-130791928D02*
X95391598Y-130863357D01*
X95391598Y-130863357D02*
X95463027Y-131006214D01*
X95463027Y-131006214D02*
X95463027Y-131149071D01*
X95463027Y-131149071D02*
X94748741Y-131291928D01*
X96105883Y-131649071D02*
X96177312Y-131720500D01*
X96177312Y-131720500D02*
X96105883Y-131791928D01*
X96105883Y-131791928D02*
X96034455Y-131720500D01*
X96034455Y-131720500D02*
X96105883Y-131649071D01*
X96105883Y-131649071D02*
X96105883Y-131791928D01*
X96105883Y-130863357D02*
X96177312Y-130934785D01*
X96177312Y-130934785D02*
X96105883Y-131006214D01*
X96105883Y-131006214D02*
X96034455Y-130934785D01*
X96034455Y-130934785D02*
X96105883Y-130863357D01*
X96105883Y-130863357D02*
X96105883Y-131006214D01*
X97891598Y-131363357D02*
X98605884Y-131363357D01*
X97748741Y-131791928D02*
X98248741Y-130291928D01*
X98248741Y-130291928D02*
X98748741Y-131791928D01*
X99963026Y-130291928D02*
X99248740Y-130291928D01*
X99248740Y-130291928D02*
X99177312Y-131006214D01*
X99177312Y-131006214D02*
X99248740Y-130934785D01*
X99248740Y-130934785D02*
X99391598Y-130863357D01*
X99391598Y-130863357D02*
X99748740Y-130863357D01*
X99748740Y-130863357D02*
X99891598Y-130934785D01*
X99891598Y-130934785D02*
X99963026Y-131006214D01*
X99963026Y-131006214D02*
X100034455Y-131149071D01*
X100034455Y-131149071D02*
X100034455Y-131506214D01*
X100034455Y-131506214D02*
X99963026Y-131649071D01*
X99963026Y-131649071D02*
X99891598Y-131720500D01*
X99891598Y-131720500D02*
X99748740Y-131791928D01*
X99748740Y-131791928D02*
X99391598Y-131791928D01*
X99391598Y-131791928D02*
X99248740Y-131720500D01*
X99248740Y-131720500D02*
X99177312Y-131649071D01*
D10*
D11*
X176463026Y-134591928D02*
X176463026Y-133091928D01*
X177820170Y-134591928D02*
X177820170Y-133091928D01*
X177820170Y-134520500D02*
X177677312Y-134591928D01*
X177677312Y-134591928D02*
X177391598Y-134591928D01*
X177391598Y-134591928D02*
X177248741Y-134520500D01*
X177248741Y-134520500D02*
X177177312Y-134449071D01*
X177177312Y-134449071D02*
X177105884Y-134306214D01*
X177105884Y-134306214D02*
X177105884Y-133877642D01*
X177105884Y-133877642D02*
X177177312Y-133734785D01*
X177177312Y-133734785D02*
X177248741Y-133663357D01*
X177248741Y-133663357D02*
X177391598Y-133591928D01*
X177391598Y-133591928D02*
X177677312Y-133591928D01*
X177677312Y-133591928D02*
X177820170Y-133663357D01*
X178534455Y-134449071D02*
X178605884Y-134520500D01*
X178605884Y-134520500D02*
X178534455Y-134591928D01*
X178534455Y-134591928D02*
X178463027Y-134520500D01*
X178463027Y-134520500D02*
X178534455Y-134449071D01*
X178534455Y-134449071D02*
X178534455Y-134591928D01*
X178534455Y-133663357D02*
X178605884Y-133734785D01*
X178605884Y-133734785D02*
X178534455Y-133806214D01*
X178534455Y-133806214D02*
X178463027Y-133734785D01*
X178463027Y-133734785D02*
X178534455Y-133663357D01*
X178534455Y-133663357D02*
X178534455Y-133806214D01*
X181177313Y-134591928D02*
X180320170Y-134591928D01*
X180748741Y-134591928D02*
X180748741Y-133091928D01*
X180748741Y-133091928D02*
X180605884Y-133306214D01*
X180605884Y-133306214D02*
X180463027Y-133449071D01*
X180463027Y-133449071D02*
X180320170Y-133520500D01*
X182891598Y-133020500D02*
X181605884Y-134949071D01*
X184177313Y-134591928D02*
X183320170Y-134591928D01*
X183748741Y-134591928D02*
X183748741Y-133091928D01*
X183748741Y-133091928D02*
X183605884Y-133306214D01*
X183605884Y-133306214D02*
X183463027Y-133449071D01*
X183463027Y-133449071D02*
X183320170Y-133520500D01*
D10*
D11*
X90007200Y-125505800D02*
X198007200Y-125505800D01*
D10*
D13*
X91698928Y-126210238D02*
X92841785Y-126210238D01*
X92020357Y-128210238D02*
X92270357Y-126210238D01*
X93258452Y-128210238D02*
X93425119Y-126876904D01*
X93508452Y-126210238D02*
X93401309Y-126305476D01*
X93401309Y-126305476D02*
X93484643Y-126400714D01*
X93484643Y-126400714D02*
X93591786Y-126305476D01*
X93591786Y-126305476D02*
X93508452Y-126210238D01*
X93508452Y-126210238D02*
X93484643Y-126400714D01*
X94091786Y-126876904D02*
X94853690Y-126876904D01*
X94460833Y-126210238D02*
X94246548Y-127924523D01*
X94246548Y-127924523D02*
X94317976Y-128115000D01*
X94317976Y-128115000D02*
X94496548Y-128210238D01*
X94496548Y-128210238D02*
X94687024Y-128210238D01*
X95639405Y-128210238D02*
X95460833Y-128115000D01*
X95460833Y-128115000D02*
X95389405Y-127924523D01*
X95389405Y-127924523D02*
X95603690Y-126210238D01*
X97175119Y-128115000D02*
X96972738Y-128210238D01*
X96972738Y-128210238D02*
X96591785Y-128210238D01*
X96591785Y-128210238D02*
X96413214Y-128115000D01*
X96413214Y-128115000D02*
X96341785Y-127924523D01*
X96341785Y-127924523D02*
X96437024Y-127162619D01*
X96437024Y-127162619D02*
X96556071Y-126972142D01*
X96556071Y-126972142D02*
X96758452Y-126876904D01*
X96758452Y-126876904D02*
X97139404Y-126876904D01*
X97139404Y-126876904D02*
X97317976Y-126972142D01*
X97317976Y-126972142D02*
X97389404Y-127162619D01*
X97389404Y-127162619D02*
X97365595Y-127353095D01*
X97365595Y-127353095D02*
X96389404Y-127543571D01*
X98139405Y-128019761D02*
X98222738Y-128115000D01*
X98222738Y-128115000D02*
X98115595Y-128210238D01*
X98115595Y-128210238D02*
X98032262Y-128115000D01*
X98032262Y-128115000D02*
X98139405Y-128019761D01*
X98139405Y-128019761D02*
X98115595Y-128210238D01*
X98270357Y-126972142D02*
X98353690Y-127067380D01*
X98353690Y-127067380D02*
X98246548Y-127162619D01*
X98246548Y-127162619D02*
X98163214Y-127067380D01*
X98163214Y-127067380D02*
X98270357Y-126972142D01*
X98270357Y-126972142D02*
X98246548Y-127162619D01*
X100556072Y-126210238D02*
X100972739Y-128210238D01*
X100972739Y-128210238D02*
X101889405Y-126210238D01*
X103353691Y-128210238D02*
X102210834Y-128210238D01*
X102782263Y-128210238D02*
X103032263Y-126210238D01*
X103032263Y-126210238D02*
X102806072Y-126495952D01*
X102806072Y-126495952D02*
X102591787Y-126686428D01*
X102591787Y-126686428D02*
X102389406Y-126781666D01*
X105829882Y-127448333D02*
X107353692Y-127448333D01*
X110901311Y-128019761D02*
X110794168Y-128115000D01*
X110794168Y-128115000D02*
X110496549Y-128210238D01*
X110496549Y-128210238D02*
X110306073Y-128210238D01*
X110306073Y-128210238D02*
X110032263Y-128115000D01*
X110032263Y-128115000D02*
X109865597Y-127924523D01*
X109865597Y-127924523D02*
X109794168Y-127734047D01*
X109794168Y-127734047D02*
X109746549Y-127353095D01*
X109746549Y-127353095D02*
X109782263Y-127067380D01*
X109782263Y-127067380D02*
X109925120Y-126686428D01*
X109925120Y-126686428D02*
X110044168Y-126495952D01*
X110044168Y-126495952D02*
X110258454Y-126305476D01*
X110258454Y-126305476D02*
X110556073Y-126210238D01*
X110556073Y-126210238D02*
X110746549Y-126210238D01*
X110746549Y-126210238D02*
X111020359Y-126305476D01*
X111020359Y-126305476D02*
X111103692Y-126400714D01*
X111734644Y-128210238D02*
X111984644Y-126210238D01*
X111984644Y-126210238D02*
X112472739Y-127638809D01*
X112472739Y-127638809D02*
X113317978Y-126210238D01*
X113317978Y-126210238D02*
X113067978Y-128210238D01*
X115044168Y-126876904D02*
X114877501Y-128210238D01*
X114663215Y-126115000D02*
X114008453Y-127543571D01*
X114008453Y-127543571D02*
X115246549Y-127543571D01*
X118246549Y-127162619D02*
X118520359Y-127257857D01*
X118520359Y-127257857D02*
X118603692Y-127353095D01*
X118603692Y-127353095D02*
X118675121Y-127543571D01*
X118675121Y-127543571D02*
X118639406Y-127829285D01*
X118639406Y-127829285D02*
X118520359Y-128019761D01*
X118520359Y-128019761D02*
X118413216Y-128115000D01*
X118413216Y-128115000D02*
X118210835Y-128210238D01*
X118210835Y-128210238D02*
X117448930Y-128210238D01*
X117448930Y-128210238D02*
X117698930Y-126210238D01*
X117698930Y-126210238D02*
X118365597Y-126210238D01*
X118365597Y-126210238D02*
X118544168Y-126305476D01*
X118544168Y-126305476D02*
X118627502Y-126400714D01*
X118627502Y-126400714D02*
X118698930Y-126591190D01*
X118698930Y-126591190D02*
X118675121Y-126781666D01*
X118675121Y-126781666D02*
X118556073Y-126972142D01*
X118556073Y-126972142D02*
X118448930Y-127067380D01*
X118448930Y-127067380D02*
X118246549Y-127162619D01*
X118246549Y-127162619D02*
X117579883Y-127162619D01*
X119734645Y-128210238D02*
X119556073Y-128115000D01*
X119556073Y-128115000D02*
X119472740Y-128019761D01*
X119472740Y-128019761D02*
X119401311Y-127829285D01*
X119401311Y-127829285D02*
X119472740Y-127257857D01*
X119472740Y-127257857D02*
X119591787Y-127067380D01*
X119591787Y-127067380D02*
X119698930Y-126972142D01*
X119698930Y-126972142D02*
X119901311Y-126876904D01*
X119901311Y-126876904D02*
X120187025Y-126876904D01*
X120187025Y-126876904D02*
X120365597Y-126972142D01*
X120365597Y-126972142D02*
X120448930Y-127067380D01*
X120448930Y-127067380D02*
X120520359Y-127257857D01*
X120520359Y-127257857D02*
X120448930Y-127829285D01*
X120448930Y-127829285D02*
X120329883Y-128019761D01*
X120329883Y-128019761D02*
X120222740Y-128115000D01*
X120222740Y-128115000D02*
X120020359Y-128210238D01*
X120020359Y-128210238D02*
X119734645Y-128210238D01*
X122115597Y-128210238D02*
X122246549Y-127162619D01*
X122246549Y-127162619D02*
X122175121Y-126972142D01*
X122175121Y-126972142D02*
X121996549Y-126876904D01*
X121996549Y-126876904D02*
X121615597Y-126876904D01*
X121615597Y-126876904D02*
X121413216Y-126972142D01*
X122127502Y-128115000D02*
X121925121Y-128210238D01*
X121925121Y-128210238D02*
X121448930Y-128210238D01*
X121448930Y-128210238D02*
X121270359Y-128115000D01*
X121270359Y-128115000D02*
X121198930Y-127924523D01*
X121198930Y-127924523D02*
X121222740Y-127734047D01*
X121222740Y-127734047D02*
X121341788Y-127543571D01*
X121341788Y-127543571D02*
X121544169Y-127448333D01*
X121544169Y-127448333D02*
X122020359Y-127448333D01*
X122020359Y-127448333D02*
X122222740Y-127353095D01*
X123067978Y-128210238D02*
X123234645Y-126876904D01*
X123187026Y-127257857D02*
X123306073Y-127067380D01*
X123306073Y-127067380D02*
X123413216Y-126972142D01*
X123413216Y-126972142D02*
X123615597Y-126876904D01*
X123615597Y-126876904D02*
X123806073Y-126876904D01*
X125163216Y-128210238D02*
X125413216Y-126210238D01*
X125175121Y-128115000D02*
X124972740Y-128210238D01*
X124972740Y-128210238D02*
X124591788Y-128210238D01*
X124591788Y-128210238D02*
X124413216Y-128115000D01*
X124413216Y-128115000D02*
X124329883Y-128019761D01*
X124329883Y-128019761D02*
X124258454Y-127829285D01*
X124258454Y-127829285D02*
X124329883Y-127257857D01*
X124329883Y-127257857D02*
X124448930Y-127067380D01*
X124448930Y-127067380D02*
X124556073Y-126972142D01*
X124556073Y-126972142D02*
X124758454Y-126876904D01*
X124758454Y-126876904D02*
X125139407Y-126876904D01*
X125139407Y-126876904D02*
X125317978Y-126972142D01*
D10*
D11*
X91963026Y-123606214D02*
X91463026Y-123606214D01*
X91463026Y-124391928D02*
X91463026Y-122891928D01*
X91463026Y-122891928D02*
X92177312Y-122891928D01*
X92748740Y-124391928D02*
X92748740Y-123391928D01*
X92748740Y-122891928D02*
X92677312Y-122963357D01*
X92677312Y-122963357D02*
X92748740Y-123034785D01*
X92748740Y-123034785D02*
X92820169Y-122963357D01*
X92820169Y-122963357D02*
X92748740Y-122891928D01*
X92748740Y-122891928D02*
X92748740Y-123034785D01*
X93677312Y-124391928D02*
X93534455Y-124320500D01*
X93534455Y-124320500D02*
X93463026Y-124177642D01*
X93463026Y-124177642D02*
X93463026Y-122891928D01*
X94820169Y-124320500D02*
X94677312Y-124391928D01*
X94677312Y-124391928D02*
X94391598Y-124391928D01*
X94391598Y-124391928D02*
X94248740Y-124320500D01*
X94248740Y-124320500D02*
X94177312Y-124177642D01*
X94177312Y-124177642D02*
X94177312Y-123606214D01*
X94177312Y-123606214D02*
X94248740Y-123463357D01*
X94248740Y-123463357D02*
X94391598Y-123391928D01*
X94391598Y-123391928D02*
X94677312Y-123391928D01*
X94677312Y-123391928D02*
X94820169Y-123463357D01*
X94820169Y-123463357D02*
X94891598Y-123606214D01*
X94891598Y-123606214D02*
X94891598Y-123749071D01*
X94891598Y-123749071D02*
X94177312Y-123891928D01*
X95534454Y-124249071D02*
X95605883Y-124320500D01*
X95605883Y-124320500D02*
X95534454Y-124391928D01*
X95534454Y-124391928D02*
X95463026Y-124320500D01*
X95463026Y-124320500D02*
X95534454Y-124249071D01*
X95534454Y-124249071D02*
X95534454Y-124391928D01*
X95534454Y-123463357D02*
X95605883Y-123534785D01*
X95605883Y-123534785D02*
X95534454Y-123606214D01*
X95534454Y-123606214D02*
X95463026Y-123534785D01*
X95463026Y-123534785D02*
X95534454Y-123463357D01*
X95534454Y-123463357D02*
X95534454Y-123606214D01*
X98034455Y-124320500D02*
X97891597Y-124391928D01*
X97891597Y-124391928D02*
X97605883Y-124391928D01*
X97605883Y-124391928D02*
X97463026Y-124320500D01*
X97463026Y-124320500D02*
X97391597Y-124249071D01*
X97391597Y-124249071D02*
X97320169Y-124106214D01*
X97320169Y-124106214D02*
X97320169Y-123677642D01*
X97320169Y-123677642D02*
X97391597Y-123534785D01*
X97391597Y-123534785D02*
X97463026Y-123463357D01*
X97463026Y-123463357D02*
X97605883Y-123391928D01*
X97605883Y-123391928D02*
X97891597Y-123391928D01*
X97891597Y-123391928D02*
X98034455Y-123463357D01*
X98677311Y-124391928D02*
X98677311Y-123391928D01*
X98677311Y-123534785D02*
X98748740Y-123463357D01*
X98748740Y-123463357D02*
X98891597Y-123391928D01*
X98891597Y-123391928D02*
X99105883Y-123391928D01*
X99105883Y-123391928D02*
X99248740Y-123463357D01*
X99248740Y-123463357D02*
X99320169Y-123606214D01*
X99320169Y-123606214D02*
X99320169Y-124391928D01*
X99320169Y-123606214D02*
X99391597Y-123463357D01*
X99391597Y-123463357D02*
X99534454Y-123391928D01*
X99534454Y-123391928D02*
X99748740Y-123391928D01*
X99748740Y-123391928D02*
X99891597Y-123463357D01*
X99891597Y-123463357D02*
X99963026Y-123606214D01*
X99963026Y-123606214D02*
X99963026Y-124391928D01*
X101320169Y-123391928D02*
X101320169Y-124391928D01*
X100963026Y-122820500D02*
X100605883Y-123891928D01*
X100605883Y-123891928D02*
X101534454Y-123891928D01*
X102105882Y-123820500D02*
X103248740Y-123820500D01*
X103963025Y-124391928D02*
X103963025Y-122891928D01*
X103963025Y-123463357D02*
X104105883Y-123391928D01*
X104105883Y-123391928D02*
X104391597Y-123391928D01*
X104391597Y-123391928D02*
X104534454Y-123463357D01*
X104534454Y-123463357D02*
X104605883Y-123534785D01*
X104605883Y-123534785D02*
X104677311Y-123677642D01*
X104677311Y-123677642D02*
X104677311Y-124106214D01*
X104677311Y-124106214D02*
X104605883Y-124249071D01*
X104605883Y-124249071D02*
X104534454Y-124320500D01*
X104534454Y-124320500D02*
X104391597Y-124391928D01*
X104391597Y-124391928D02*
X104105883Y-124391928D01*
X104105883Y-124391928D02*
X103963025Y-124320500D01*
X105963026Y-124391928D02*
X105963026Y-123606214D01*
X105963026Y-123606214D02*
X105891597Y-123463357D01*
X105891597Y-123463357D02*
X105748740Y-123391928D01*
X105748740Y-123391928D02*
X105463026Y-123391928D01*
X105463026Y-123391928D02*
X105320168Y-123463357D01*
X105963026Y-124320500D02*
X105820168Y-124391928D01*
X105820168Y-124391928D02*
X105463026Y-124391928D01*
X105463026Y-124391928D02*
X105320168Y-124320500D01*
X105320168Y-124320500D02*
X105248740Y-124177642D01*
X105248740Y-124177642D02*
X105248740Y-124034785D01*
X105248740Y-124034785D02*
X105320168Y-123891928D01*
X105320168Y-123891928D02*
X105463026Y-123820500D01*
X105463026Y-123820500D02*
X105820168Y-123820500D01*
X105820168Y-123820500D02*
X105963026Y-123749071D01*
X106677311Y-124391928D02*
X106677311Y-123391928D01*
X106677311Y-123677642D02*
X106748740Y-123534785D01*
X106748740Y-123534785D02*
X106820169Y-123463357D01*
X106820169Y-123463357D02*
X106963026Y-123391928D01*
X106963026Y-123391928D02*
X107105883Y-123391928D01*
X108177311Y-124320500D02*
X108034454Y-124391928D01*
X108034454Y-124391928D02*
X107748740Y-124391928D01*
X107748740Y-124391928D02*
X107605882Y-124320500D01*
X107605882Y-124320500D02*
X107534454Y-124177642D01*
X107534454Y-124177642D02*
X107534454Y-123606214D01*
X107534454Y-123606214D02*
X107605882Y-123463357D01*
X107605882Y-123463357D02*
X107748740Y-123391928D01*
X107748740Y-123391928D02*
X108034454Y-123391928D01*
X108034454Y-123391928D02*
X108177311Y-123463357D01*
X108177311Y-123463357D02*
X108248740Y-123606214D01*
X108248740Y-123606214D02*
X108248740Y-123749071D01*
X108248740Y-123749071D02*
X107534454Y-123891928D01*
X108891596Y-123820500D02*
X110034454Y-123820500D01*
X110748739Y-124391928D02*
X110748739Y-123391928D01*
X110748739Y-123534785D02*
X110820168Y-123463357D01*
X110820168Y-123463357D02*
X110963025Y-123391928D01*
X110963025Y-123391928D02*
X111177311Y-123391928D01*
X111177311Y-123391928D02*
X111320168Y-123463357D01*
X111320168Y-123463357D02*
X111391597Y-123606214D01*
X111391597Y-123606214D02*
X111391597Y-124391928D01*
X111391597Y-123606214D02*
X111463025Y-123463357D01*
X111463025Y-123463357D02*
X111605882Y-123391928D01*
X111605882Y-123391928D02*
X111820168Y-123391928D01*
X111820168Y-123391928D02*
X111963025Y-123463357D01*
X111963025Y-123463357D02*
X112034454Y-123606214D01*
X112034454Y-123606214D02*
X112034454Y-124391928D01*
X112748739Y-124391928D02*
X112748739Y-123391928D01*
X112748739Y-122891928D02*
X112677311Y-122963357D01*
X112677311Y-122963357D02*
X112748739Y-123034785D01*
X112748739Y-123034785D02*
X112820168Y-122963357D01*
X112820168Y-122963357D02*
X112748739Y-122891928D01*
X112748739Y-122891928D02*
X112748739Y-123034785D01*
X113463025Y-123391928D02*
X113463025Y-124391928D01*
X113463025Y-123534785D02*
X113534454Y-123463357D01*
X113534454Y-123463357D02*
X113677311Y-123391928D01*
X113677311Y-123391928D02*
X113891597Y-123391928D01*
X113891597Y-123391928D02*
X114034454Y-123463357D01*
X114034454Y-123463357D02*
X114105883Y-123606214D01*
X114105883Y-123606214D02*
X114105883Y-124391928D01*
X114820168Y-124391928D02*
X114820168Y-123391928D01*
X114820168Y-122891928D02*
X114748740Y-122963357D01*
X114748740Y-122963357D02*
X114820168Y-123034785D01*
X114820168Y-123034785D02*
X114891597Y-122963357D01*
X114891597Y-122963357D02*
X114820168Y-122891928D01*
X114820168Y-122891928D02*
X114820168Y-123034785D01*
X115534454Y-124391928D02*
X115534454Y-123391928D01*
X115534454Y-123534785D02*
X115605883Y-123463357D01*
X115605883Y-123463357D02*
X115748740Y-123391928D01*
X115748740Y-123391928D02*
X115963026Y-123391928D01*
X115963026Y-123391928D02*
X116105883Y-123463357D01*
X116105883Y-123463357D02*
X116177312Y-123606214D01*
X116177312Y-123606214D02*
X116177312Y-124391928D01*
X116177312Y-123606214D02*
X116248740Y-123463357D01*
X116248740Y-123463357D02*
X116391597Y-123391928D01*
X116391597Y-123391928D02*
X116605883Y-123391928D01*
X116605883Y-123391928D02*
X116748740Y-123463357D01*
X116748740Y-123463357D02*
X116820169Y-123606214D01*
X116820169Y-123606214D02*
X116820169Y-124391928D01*
X118177312Y-123391928D02*
X118177312Y-124391928D01*
X117534454Y-123391928D02*
X117534454Y-124177642D01*
X117534454Y-124177642D02*
X117605883Y-124320500D01*
X117605883Y-124320500D02*
X117748740Y-124391928D01*
X117748740Y-124391928D02*
X117963026Y-124391928D01*
X117963026Y-124391928D02*
X118105883Y-124320500D01*
X118105883Y-124320500D02*
X118177312Y-124249071D01*
X118891597Y-124391928D02*
X118891597Y-123391928D01*
X118891597Y-123534785D02*
X118963026Y-123463357D01*
X118963026Y-123463357D02*
X119105883Y-123391928D01*
X119105883Y-123391928D02*
X119320169Y-123391928D01*
X119320169Y-123391928D02*
X119463026Y-123463357D01*
X119463026Y-123463357D02*
X119534455Y-123606214D01*
X119534455Y-123606214D02*
X119534455Y-124391928D01*
X119534455Y-123606214D02*
X119605883Y-123463357D01*
X119605883Y-123463357D02*
X119748740Y-123391928D01*
X119748740Y-123391928D02*
X119963026Y-123391928D01*
X119963026Y-123391928D02*
X120105883Y-123463357D01*
X120105883Y-123463357D02*
X120177312Y-123606214D01*
X120177312Y-123606214D02*
X120177312Y-124391928D01*
X120891597Y-124249071D02*
X120963026Y-124320500D01*
X120963026Y-124320500D02*
X120891597Y-124391928D01*
X120891597Y-124391928D02*
X120820169Y-124320500D01*
X120820169Y-124320500D02*
X120891597Y-124249071D01*
X120891597Y-124249071D02*
X120891597Y-124391928D01*
X121605883Y-124391928D02*
X121605883Y-122891928D01*
X121748741Y-123820500D02*
X122177312Y-124391928D01*
X122177312Y-123391928D02*
X121605883Y-123963357D01*
X122820169Y-124391928D02*
X122820169Y-123391928D01*
X122820169Y-122891928D02*
X122748741Y-122963357D01*
X122748741Y-122963357D02*
X122820169Y-123034785D01*
X122820169Y-123034785D02*
X122891598Y-122963357D01*
X122891598Y-122963357D02*
X122820169Y-122891928D01*
X122820169Y-122891928D02*
X122820169Y-123034785D01*
X124177313Y-124320500D02*
X124034455Y-124391928D01*
X124034455Y-124391928D02*
X123748741Y-124391928D01*
X123748741Y-124391928D02*
X123605884Y-124320500D01*
X123605884Y-124320500D02*
X123534455Y-124249071D01*
X123534455Y-124249071D02*
X123463027Y-124106214D01*
X123463027Y-124106214D02*
X123463027Y-123677642D01*
X123463027Y-123677642D02*
X123534455Y-123534785D01*
X123534455Y-123534785D02*
X123605884Y-123463357D01*
X123605884Y-123463357D02*
X123748741Y-123391928D01*
X123748741Y-123391928D02*
X124034455Y-123391928D01*
X124034455Y-123391928D02*
X124177313Y-123463357D01*
X125463027Y-124391928D02*
X125463027Y-123606214D01*
X125463027Y-123606214D02*
X125391598Y-123463357D01*
X125391598Y-123463357D02*
X125248741Y-123391928D01*
X125248741Y-123391928D02*
X124963027Y-123391928D01*
X124963027Y-123391928D02*
X124820169Y-123463357D01*
X125463027Y-124320500D02*
X125320169Y-124391928D01*
X125320169Y-124391928D02*
X124963027Y-124391928D01*
X124963027Y-124391928D02*
X124820169Y-124320500D01*
X124820169Y-124320500D02*
X124748741Y-124177642D01*
X124748741Y-124177642D02*
X124748741Y-124034785D01*
X124748741Y-124034785D02*
X124820169Y-123891928D01*
X124820169Y-123891928D02*
X124963027Y-123820500D01*
X124963027Y-123820500D02*
X125320169Y-123820500D01*
X125320169Y-123820500D02*
X125463027Y-123749071D01*
X126820170Y-124391928D02*
X126820170Y-122891928D01*
X126820170Y-124320500D02*
X126677312Y-124391928D01*
X126677312Y-124391928D02*
X126391598Y-124391928D01*
X126391598Y-124391928D02*
X126248741Y-124320500D01*
X126248741Y-124320500D02*
X126177312Y-124249071D01*
X126177312Y-124249071D02*
X126105884Y-124106214D01*
X126105884Y-124106214D02*
X126105884Y-123677642D01*
X126105884Y-123677642D02*
X126177312Y-123534785D01*
X126177312Y-123534785D02*
X126248741Y-123463357D01*
X126248741Y-123463357D02*
X126391598Y-123391928D01*
X126391598Y-123391928D02*
X126677312Y-123391928D01*
X126677312Y-123391928D02*
X126820170Y-123463357D01*
X127177313Y-124534785D02*
X128320170Y-124534785D01*
X128677312Y-123391928D02*
X128677312Y-124891928D01*
X128677312Y-123463357D02*
X128820170Y-123391928D01*
X128820170Y-123391928D02*
X129105884Y-123391928D01*
X129105884Y-123391928D02*
X129248741Y-123463357D01*
X129248741Y-123463357D02*
X129320170Y-123534785D01*
X129320170Y-123534785D02*
X129391598Y-123677642D01*
X129391598Y-123677642D02*
X129391598Y-124106214D01*
X129391598Y-124106214D02*
X129320170Y-124249071D01*
X129320170Y-124249071D02*
X129248741Y-124320500D01*
X129248741Y-124320500D02*
X129105884Y-124391928D01*
X129105884Y-124391928D02*
X128820170Y-124391928D01*
X128820170Y-124391928D02*
X128677312Y-124320500D01*
X130677313Y-124320500D02*
X130534455Y-124391928D01*
X130534455Y-124391928D02*
X130248741Y-124391928D01*
X130248741Y-124391928D02*
X130105884Y-124320500D01*
X130105884Y-124320500D02*
X130034455Y-124249071D01*
X130034455Y-124249071D02*
X129963027Y-124106214D01*
X129963027Y-124106214D02*
X129963027Y-123677642D01*
X129963027Y-123677642D02*
X130034455Y-123534785D01*
X130034455Y-123534785D02*
X130105884Y-123463357D01*
X130105884Y-123463357D02*
X130248741Y-123391928D01*
X130248741Y-123391928D02*
X130534455Y-123391928D01*
X130534455Y-123391928D02*
X130677313Y-123463357D01*
X131320169Y-124391928D02*
X131320169Y-122891928D01*
X131320169Y-123463357D02*
X131463027Y-123391928D01*
X131463027Y-123391928D02*
X131748741Y-123391928D01*
X131748741Y-123391928D02*
X131891598Y-123463357D01*
X131891598Y-123463357D02*
X131963027Y-123534785D01*
X131963027Y-123534785D02*
X132034455Y-123677642D01*
X132034455Y-123677642D02*
X132034455Y-124106214D01*
X132034455Y-124106214D02*
X131963027Y-124249071D01*
X131963027Y-124249071D02*
X131891598Y-124320500D01*
X131891598Y-124320500D02*
X131748741Y-124391928D01*
X131748741Y-124391928D02*
X131463027Y-124391928D01*
X131463027Y-124391928D02*
X131320169Y-124320500D01*
D10*
D11*
X90007200Y-119505800D02*
X198007200Y-119505800D01*
D10*
D11*
X91391598Y-121620500D02*
X91605884Y-121691928D01*
X91605884Y-121691928D02*
X91963026Y-121691928D01*
X91963026Y-121691928D02*
X92105884Y-121620500D01*
X92105884Y-121620500D02*
X92177312Y-121549071D01*
X92177312Y-121549071D02*
X92248741Y-121406214D01*
X92248741Y-121406214D02*
X92248741Y-121263357D01*
X92248741Y-121263357D02*
X92177312Y-121120500D01*
X92177312Y-121120500D02*
X92105884Y-121049071D01*
X92105884Y-121049071D02*
X91963026Y-120977642D01*
X91963026Y-120977642D02*
X91677312Y-120906214D01*
X91677312Y-120906214D02*
X91534455Y-120834785D01*
X91534455Y-120834785D02*
X91463026Y-120763357D01*
X91463026Y-120763357D02*
X91391598Y-120620500D01*
X91391598Y-120620500D02*
X91391598Y-120477642D01*
X91391598Y-120477642D02*
X91463026Y-120334785D01*
X91463026Y-120334785D02*
X91534455Y-120263357D01*
X91534455Y-120263357D02*
X91677312Y-120191928D01*
X91677312Y-120191928D02*
X92034455Y-120191928D01*
X92034455Y-120191928D02*
X92248741Y-120263357D01*
X92891597Y-121691928D02*
X92891597Y-120191928D01*
X93534455Y-121691928D02*
X93534455Y-120906214D01*
X93534455Y-120906214D02*
X93463026Y-120763357D01*
X93463026Y-120763357D02*
X93320169Y-120691928D01*
X93320169Y-120691928D02*
X93105883Y-120691928D01*
X93105883Y-120691928D02*
X92963026Y-120763357D01*
X92963026Y-120763357D02*
X92891597Y-120834785D01*
X94820169Y-121620500D02*
X94677312Y-121691928D01*
X94677312Y-121691928D02*
X94391598Y-121691928D01*
X94391598Y-121691928D02*
X94248740Y-121620500D01*
X94248740Y-121620500D02*
X94177312Y-121477642D01*
X94177312Y-121477642D02*
X94177312Y-120906214D01*
X94177312Y-120906214D02*
X94248740Y-120763357D01*
X94248740Y-120763357D02*
X94391598Y-120691928D01*
X94391598Y-120691928D02*
X94677312Y-120691928D01*
X94677312Y-120691928D02*
X94820169Y-120763357D01*
X94820169Y-120763357D02*
X94891598Y-120906214D01*
X94891598Y-120906214D02*
X94891598Y-121049071D01*
X94891598Y-121049071D02*
X94177312Y-121191928D01*
X96105883Y-121620500D02*
X95963026Y-121691928D01*
X95963026Y-121691928D02*
X95677312Y-121691928D01*
X95677312Y-121691928D02*
X95534454Y-121620500D01*
X95534454Y-121620500D02*
X95463026Y-121477642D01*
X95463026Y-121477642D02*
X95463026Y-120906214D01*
X95463026Y-120906214D02*
X95534454Y-120763357D01*
X95534454Y-120763357D02*
X95677312Y-120691928D01*
X95677312Y-120691928D02*
X95963026Y-120691928D01*
X95963026Y-120691928D02*
X96105883Y-120763357D01*
X96105883Y-120763357D02*
X96177312Y-120906214D01*
X96177312Y-120906214D02*
X96177312Y-121049071D01*
X96177312Y-121049071D02*
X95463026Y-121191928D01*
X96605883Y-120691928D02*
X97177311Y-120691928D01*
X96820168Y-120191928D02*
X96820168Y-121477642D01*
X96820168Y-121477642D02*
X96891597Y-121620500D01*
X96891597Y-121620500D02*
X97034454Y-121691928D01*
X97034454Y-121691928D02*
X97177311Y-121691928D01*
X97677311Y-121549071D02*
X97748740Y-121620500D01*
X97748740Y-121620500D02*
X97677311Y-121691928D01*
X97677311Y-121691928D02*
X97605883Y-121620500D01*
X97605883Y-121620500D02*
X97677311Y-121549071D01*
X97677311Y-121549071D02*
X97677311Y-121691928D01*
X97677311Y-120763357D02*
X97748740Y-120834785D01*
X97748740Y-120834785D02*
X97677311Y-120906214D01*
X97677311Y-120906214D02*
X97605883Y-120834785D01*
X97605883Y-120834785D02*
X97677311Y-120763357D01*
X97677311Y-120763357D02*
X97677311Y-120906214D01*
D10*
D12*
X92418853Y-118684128D02*
X91918853Y-117969842D01*
X91561710Y-118684128D02*
X91561710Y-117184128D01*
X91561710Y-117184128D02*
X92133139Y-117184128D01*
X92133139Y-117184128D02*
X92275996Y-117255557D01*
X92275996Y-117255557D02*
X92347425Y-117326985D01*
X92347425Y-117326985D02*
X92418853Y-117469842D01*
X92418853Y-117469842D02*
X92418853Y-117684128D01*
X92418853Y-117684128D02*
X92347425Y-117826985D01*
X92347425Y-117826985D02*
X92275996Y-117898414D01*
X92275996Y-117898414D02*
X92133139Y-117969842D01*
X92133139Y-117969842D02*
X91561710Y-117969842D01*
X93704568Y-118684128D02*
X93704568Y-117898414D01*
X93704568Y-117898414D02*
X93633139Y-117755557D01*
X93633139Y-117755557D02*
X93490282Y-117684128D01*
X93490282Y-117684128D02*
X93204568Y-117684128D01*
X93204568Y-117684128D02*
X93061710Y-117755557D01*
X93704568Y-118612700D02*
X93561710Y-118684128D01*
X93561710Y-118684128D02*
X93204568Y-118684128D01*
X93204568Y-118684128D02*
X93061710Y-118612700D01*
X93061710Y-118612700D02*
X92990282Y-118469842D01*
X92990282Y-118469842D02*
X92990282Y-118326985D01*
X92990282Y-118326985D02*
X93061710Y-118184128D01*
X93061710Y-118184128D02*
X93204568Y-118112700D01*
X93204568Y-118112700D02*
X93561710Y-118112700D01*
X93561710Y-118112700D02*
X93704568Y-118041271D01*
X94418853Y-117684128D02*
X94418853Y-119184128D01*
X94418853Y-117755557D02*
X94561711Y-117684128D01*
X94561711Y-117684128D02*
X94847425Y-117684128D01*
X94847425Y-117684128D02*
X94990282Y-117755557D01*
X94990282Y-117755557D02*
X95061711Y-117826985D01*
X95061711Y-117826985D02*
X95133139Y-117969842D01*
X95133139Y-117969842D02*
X95133139Y-118398414D01*
X95133139Y-118398414D02*
X95061711Y-118541271D01*
X95061711Y-118541271D02*
X94990282Y-118612700D01*
X94990282Y-118612700D02*
X94847425Y-118684128D01*
X94847425Y-118684128D02*
X94561711Y-118684128D01*
X94561711Y-118684128D02*
X94418853Y-118612700D01*
X95775996Y-118684128D02*
X95775996Y-117684128D01*
X95775996Y-117184128D02*
X95704568Y-117255557D01*
X95704568Y-117255557D02*
X95775996Y-117326985D01*
X95775996Y-117326985D02*
X95847425Y-117255557D01*
X95847425Y-117255557D02*
X95775996Y-117184128D01*
X95775996Y-117184128D02*
X95775996Y-117326985D01*
X97133140Y-118684128D02*
X97133140Y-117184128D01*
X97133140Y-118612700D02*
X96990282Y-118684128D01*
X96990282Y-118684128D02*
X96704568Y-118684128D01*
X96704568Y-118684128D02*
X96561711Y-118612700D01*
X96561711Y-118612700D02*
X96490282Y-118541271D01*
X96490282Y-118541271D02*
X96418854Y-118398414D01*
X96418854Y-118398414D02*
X96418854Y-117969842D01*
X96418854Y-117969842D02*
X96490282Y-117826985D01*
X96490282Y-117826985D02*
X96561711Y-117755557D01*
X96561711Y-117755557D02*
X96704568Y-117684128D01*
X96704568Y-117684128D02*
X96990282Y-117684128D01*
X96990282Y-117684128D02*
X97133140Y-117755557D01*
X98918854Y-118255557D02*
X99633140Y-118255557D01*
X98775997Y-118684128D02*
X99275997Y-117184128D01*
X99275997Y-117184128D02*
X99775997Y-118684128D01*
X100275996Y-117684128D02*
X100275996Y-118684128D01*
X100275996Y-117826985D02*
X100347425Y-117755557D01*
X100347425Y-117755557D02*
X100490282Y-117684128D01*
X100490282Y-117684128D02*
X100704568Y-117684128D01*
X100704568Y-117684128D02*
X100847425Y-117755557D01*
X100847425Y-117755557D02*
X100918854Y-117898414D01*
X100918854Y-117898414D02*
X100918854Y-118684128D01*
X102275997Y-118684128D02*
X102275997Y-117898414D01*
X102275997Y-117898414D02*
X102204568Y-117755557D01*
X102204568Y-117755557D02*
X102061711Y-117684128D01*
X102061711Y-117684128D02*
X101775997Y-117684128D01*
X101775997Y-117684128D02*
X101633139Y-117755557D01*
X102275997Y-118612700D02*
X102133139Y-118684128D01*
X102133139Y-118684128D02*
X101775997Y-118684128D01*
X101775997Y-118684128D02*
X101633139Y-118612700D01*
X101633139Y-118612700D02*
X101561711Y-118469842D01*
X101561711Y-118469842D02*
X101561711Y-118326985D01*
X101561711Y-118326985D02*
X101633139Y-118184128D01*
X101633139Y-118184128D02*
X101775997Y-118112700D01*
X101775997Y-118112700D02*
X102133139Y-118112700D01*
X102133139Y-118112700D02*
X102275997Y-118041271D01*
X103204568Y-118684128D02*
X103061711Y-118612700D01*
X103061711Y-118612700D02*
X102990282Y-118469842D01*
X102990282Y-118469842D02*
X102990282Y-117184128D01*
X103633139Y-117684128D02*
X103990282Y-118684128D01*
X104347425Y-117684128D02*
X103990282Y-118684128D01*
X103990282Y-118684128D02*
X103847425Y-119041271D01*
X103847425Y-119041271D02*
X103775996Y-119112700D01*
X103775996Y-119112700D02*
X103633139Y-119184128D01*
X104847425Y-118612700D02*
X104990282Y-118684128D01*
X104990282Y-118684128D02*
X105275996Y-118684128D01*
X105275996Y-118684128D02*
X105418853Y-118612700D01*
X105418853Y-118612700D02*
X105490282Y-118469842D01*
X105490282Y-118469842D02*
X105490282Y-118398414D01*
X105490282Y-118398414D02*
X105418853Y-118255557D01*
X105418853Y-118255557D02*
X105275996Y-118184128D01*
X105275996Y-118184128D02*
X105061711Y-118184128D01*
X105061711Y-118184128D02*
X104918853Y-118112700D01*
X104918853Y-118112700D02*
X104847425Y-117969842D01*
X104847425Y-117969842D02*
X104847425Y-117898414D01*
X104847425Y-117898414D02*
X104918853Y-117755557D01*
X104918853Y-117755557D02*
X105061711Y-117684128D01*
X105061711Y-117684128D02*
X105275996Y-117684128D01*
X105275996Y-117684128D02*
X105418853Y-117755557D01*
X106133139Y-118684128D02*
X106133139Y-117684128D01*
X106133139Y-117184128D02*
X106061711Y-117255557D01*
X106061711Y-117255557D02*
X106133139Y-117326985D01*
X106133139Y-117326985D02*
X106204568Y-117255557D01*
X106204568Y-117255557D02*
X106133139Y-117184128D01*
X106133139Y-117184128D02*
X106133139Y-117326985D01*
X106775997Y-118612700D02*
X106918854Y-118684128D01*
X106918854Y-118684128D02*
X107204568Y-118684128D01*
X107204568Y-118684128D02*
X107347425Y-118612700D01*
X107347425Y-118612700D02*
X107418854Y-118469842D01*
X107418854Y-118469842D02*
X107418854Y-118398414D01*
X107418854Y-118398414D02*
X107347425Y-118255557D01*
X107347425Y-118255557D02*
X107204568Y-118184128D01*
X107204568Y-118184128D02*
X106990283Y-118184128D01*
X106990283Y-118184128D02*
X106847425Y-118112700D01*
X106847425Y-118112700D02*
X106775997Y-117969842D01*
X106775997Y-117969842D02*
X106775997Y-117898414D01*
X106775997Y-117898414D02*
X106847425Y-117755557D01*
X106847425Y-117755557D02*
X106990283Y-117684128D01*
X106990283Y-117684128D02*
X107204568Y-117684128D01*
X107204568Y-117684128D02*
X107347425Y-117755557D01*
D10*
D11*
X91391598Y-115263357D02*
X92105884Y-115263357D01*
X91248741Y-115691928D02*
X91748741Y-114191928D01*
X91748741Y-114191928D02*
X92248741Y-115691928D01*
X93391598Y-114691928D02*
X93391598Y-115691928D01*
X92748740Y-114691928D02*
X92748740Y-115477642D01*
X92748740Y-115477642D02*
X92820169Y-115620500D01*
X92820169Y-115620500D02*
X92963026Y-115691928D01*
X92963026Y-115691928D02*
X93177312Y-115691928D01*
X93177312Y-115691928D02*
X93320169Y-115620500D01*
X93320169Y-115620500D02*
X93391598Y-115549071D01*
X93891598Y-114691928D02*
X94463026Y-114691928D01*
X94105883Y-114191928D02*
X94105883Y-115477642D01*
X94105883Y-115477642D02*
X94177312Y-115620500D01*
X94177312Y-115620500D02*
X94320169Y-115691928D01*
X94320169Y-115691928D02*
X94463026Y-115691928D01*
X94963026Y-115691928D02*
X94963026Y-114191928D01*
X95605884Y-115691928D02*
X95605884Y-114906214D01*
X95605884Y-114906214D02*
X95534455Y-114763357D01*
X95534455Y-114763357D02*
X95391598Y-114691928D01*
X95391598Y-114691928D02*
X95177312Y-114691928D01*
X95177312Y-114691928D02*
X95034455Y-114763357D01*
X95034455Y-114763357D02*
X94963026Y-114834785D01*
X96534455Y-115691928D02*
X96391598Y-115620500D01*
X96391598Y-115620500D02*
X96320169Y-115549071D01*
X96320169Y-115549071D02*
X96248741Y-115406214D01*
X96248741Y-115406214D02*
X96248741Y-114977642D01*
X96248741Y-114977642D02*
X96320169Y-114834785D01*
X96320169Y-114834785D02*
X96391598Y-114763357D01*
X96391598Y-114763357D02*
X96534455Y-114691928D01*
X96534455Y-114691928D02*
X96748741Y-114691928D01*
X96748741Y-114691928D02*
X96891598Y-114763357D01*
X96891598Y-114763357D02*
X96963027Y-114834785D01*
X96963027Y-114834785D02*
X97034455Y-114977642D01*
X97034455Y-114977642D02*
X97034455Y-115406214D01*
X97034455Y-115406214D02*
X96963027Y-115549071D01*
X96963027Y-115549071D02*
X96891598Y-115620500D01*
X96891598Y-115620500D02*
X96748741Y-115691928D01*
X96748741Y-115691928D02*
X96534455Y-115691928D01*
X97677312Y-115691928D02*
X97677312Y-114691928D01*
X97677312Y-114977642D02*
X97748741Y-114834785D01*
X97748741Y-114834785D02*
X97820170Y-114763357D01*
X97820170Y-114763357D02*
X97963027Y-114691928D01*
X97963027Y-114691928D02*
X98105884Y-114691928D01*
X98605883Y-115549071D02*
X98677312Y-115620500D01*
X98677312Y-115620500D02*
X98605883Y-115691928D01*
X98605883Y-115691928D02*
X98534455Y-115620500D01*
X98534455Y-115620500D02*
X98605883Y-115549071D01*
X98605883Y-115549071D02*
X98605883Y-115691928D01*
X98605883Y-114763357D02*
X98677312Y-114834785D01*
X98677312Y-114834785D02*
X98605883Y-114906214D01*
X98605883Y-114906214D02*
X98534455Y-114834785D01*
X98534455Y-114834785D02*
X98605883Y-114763357D01*
X98605883Y-114763357D02*
X98605883Y-114906214D01*
X100391598Y-115263357D02*
X101105884Y-115263357D01*
X100248741Y-115691928D02*
X100748741Y-114191928D01*
X100748741Y-114191928D02*
X101248741Y-115691928D01*
X101677312Y-115620500D02*
X101820169Y-115691928D01*
X101820169Y-115691928D02*
X102105883Y-115691928D01*
X102105883Y-115691928D02*
X102248740Y-115620500D01*
X102248740Y-115620500D02*
X102320169Y-115477642D01*
X102320169Y-115477642D02*
X102320169Y-115406214D01*
X102320169Y-115406214D02*
X102248740Y-115263357D01*
X102248740Y-115263357D02*
X102105883Y-115191928D01*
X102105883Y-115191928D02*
X101891598Y-115191928D01*
X101891598Y-115191928D02*
X101748740Y-115120500D01*
X101748740Y-115120500D02*
X101677312Y-114977642D01*
X101677312Y-114977642D02*
X101677312Y-114906214D01*
X101677312Y-114906214D02*
X101748740Y-114763357D01*
X101748740Y-114763357D02*
X101891598Y-114691928D01*
X101891598Y-114691928D02*
X102105883Y-114691928D01*
X102105883Y-114691928D02*
X102248740Y-114763357D01*
X103605884Y-115691928D02*
X103605884Y-114906214D01*
X103605884Y-114906214D02*
X103534455Y-114763357D01*
X103534455Y-114763357D02*
X103391598Y-114691928D01*
X103391598Y-114691928D02*
X103105884Y-114691928D01*
X103105884Y-114691928D02*
X102963026Y-114763357D01*
X103605884Y-115620500D02*
X103463026Y-115691928D01*
X103463026Y-115691928D02*
X103105884Y-115691928D01*
X103105884Y-115691928D02*
X102963026Y-115620500D01*
X102963026Y-115620500D02*
X102891598Y-115477642D01*
X102891598Y-115477642D02*
X102891598Y-115334785D01*
X102891598Y-115334785D02*
X102963026Y-115191928D01*
X102963026Y-115191928D02*
X103105884Y-115120500D01*
X103105884Y-115120500D02*
X103463026Y-115120500D01*
X103463026Y-115120500D02*
X103605884Y-115049071D01*
X104963027Y-115691928D02*
X104963027Y-114191928D01*
X104963027Y-115620500D02*
X104820169Y-115691928D01*
X104820169Y-115691928D02*
X104534455Y-115691928D01*
X104534455Y-115691928D02*
X104391598Y-115620500D01*
X104391598Y-115620500D02*
X104320169Y-115549071D01*
X104320169Y-115549071D02*
X104248741Y-115406214D01*
X104248741Y-115406214D02*
X104248741Y-114977642D01*
X104248741Y-114977642D02*
X104320169Y-114834785D01*
X104320169Y-114834785D02*
X104391598Y-114763357D01*
X104391598Y-114763357D02*
X104534455Y-114691928D01*
X104534455Y-114691928D02*
X104820169Y-114691928D01*
X104820169Y-114691928D02*
X104963027Y-114763357D01*
X106820169Y-115691928D02*
X106820169Y-114191928D01*
X107534455Y-115691928D02*
X107534455Y-114691928D01*
X107534455Y-114834785D02*
X107605884Y-114763357D01*
X107605884Y-114763357D02*
X107748741Y-114691928D01*
X107748741Y-114691928D02*
X107963027Y-114691928D01*
X107963027Y-114691928D02*
X108105884Y-114763357D01*
X108105884Y-114763357D02*
X108177313Y-114906214D01*
X108177313Y-114906214D02*
X108177313Y-115691928D01*
X108177313Y-114906214D02*
X108248741Y-114763357D01*
X108248741Y-114763357D02*
X108391598Y-114691928D01*
X108391598Y-114691928D02*
X108605884Y-114691928D01*
X108605884Y-114691928D02*
X108748741Y-114763357D01*
X108748741Y-114763357D02*
X108820170Y-114906214D01*
X108820170Y-114906214D02*
X108820170Y-115691928D01*
X109534455Y-115691928D02*
X109534455Y-114691928D01*
X109534455Y-114977642D02*
X109605884Y-114834785D01*
X109605884Y-114834785D02*
X109677313Y-114763357D01*
X109677313Y-114763357D02*
X109820170Y-114691928D01*
X109820170Y-114691928D02*
X109963027Y-114691928D01*
X111105884Y-115691928D02*
X111105884Y-114906214D01*
X111105884Y-114906214D02*
X111034455Y-114763357D01*
X111034455Y-114763357D02*
X110891598Y-114691928D01*
X110891598Y-114691928D02*
X110605884Y-114691928D01*
X110605884Y-114691928D02*
X110463026Y-114763357D01*
X111105884Y-115620500D02*
X110963026Y-115691928D01*
X110963026Y-115691928D02*
X110605884Y-115691928D01*
X110605884Y-115691928D02*
X110463026Y-115620500D01*
X110463026Y-115620500D02*
X110391598Y-115477642D01*
X110391598Y-115477642D02*
X110391598Y-115334785D01*
X110391598Y-115334785D02*
X110463026Y-115191928D01*
X110463026Y-115191928D02*
X110605884Y-115120500D01*
X110605884Y-115120500D02*
X110963026Y-115120500D01*
X110963026Y-115120500D02*
X111105884Y-115049071D01*
X111820169Y-114691928D02*
X111820169Y-115691928D01*
X111820169Y-114834785D02*
X111891598Y-114763357D01*
X111891598Y-114763357D02*
X112034455Y-114691928D01*
X112034455Y-114691928D02*
X112248741Y-114691928D01*
X112248741Y-114691928D02*
X112391598Y-114763357D01*
X112391598Y-114763357D02*
X112463027Y-114906214D01*
X112463027Y-114906214D02*
X112463027Y-115691928D01*
D10*
D11*
X110007200Y-129505800D02*
X110007200Y-132505800D01*
D10*
D11*
X174007200Y-129505800D02*
X174007200Y-136005800D01*
D14*
%TO.P,U5,1,TRD0+*%
%TO.N,/TRD0_P*%
X60127500Y-75010000D03*
D15*
%TO.P,U5,2,TRD0-*%
%TO.N,/TRD0_N*%
X57587500Y-76280000D03*
%TO.P,U5,3,TRD1+*%
%TO.N,/TRD1_P*%
X60127500Y-77550000D03*
%TO.P,U5,4,CT*%
%TO.N,Net-(C4-Pad1)*%
X57587500Y-78820000D03*
%TO.P,U5,5,CT*%
X60127500Y-80090000D03*
%TO.P,U5,6,TRD1-*%
%TO.N,/TRD1_N*%
X57587500Y-81360000D03*
%TO.P,U5,7,TRD2+*%
%TO.N,/TRD2_P*%
X60127500Y-82630000D03*
%TO.P,U5,8,TRD2-*%
%TO.N,/TRD2_N*%
X57587500Y-83900000D03*
%TO.P,U5,9,TRD3+*%
%TO.N,/TRD3_P*%
X60127500Y-85170000D03*
%TO.P,U5,10,TRD3-*%
%TO.N,/TRD3_N*%
X57587500Y-86440000D03*
%TO.P,U5,11,VC1*%
%TO.N,/TR0_TAP*%
X55067500Y-75010000D03*
%TO.P,U5,12,VC2*%
%TO.N,/TR1_TAP*%
X53797500Y-77550000D03*
%TO.P,U5,13,VC3*%
%TO.N,/TR2_TAP*%
X53797500Y-83900000D03*
%TO.P,U5,14,VC4*%
%TO.N,/TR3_TAP*%
X55067500Y-86440000D03*
%TO.P,U5,15,LEDG_A*%
%TO.N,/CM4_3V3*%
X47177500Y-74095000D03*
%TO.P,U5,16,LEDG_K*%
%TO.N,Net-(U5-LEDG_K)*%
X47177500Y-76635000D03*
%TO.P,U5,17,LEDY_A*%
%TO.N,/CM4_3V3*%
X47177500Y-84815000D03*
%TO.P,U5,18,LEDY_K*%
%TO.N,Net-(U5-LEDY_K)*%
X47177500Y-87355000D03*
D16*
%TO.P,U5,19,SHIELD*%
%TO.N,GND*%
X54287500Y-72850000D03*
%TO.P,U5,20,SHIELD*%
X54287500Y-88600000D03*
%TD*%
D17*
%TO.P,J1,1,Pin_1*%
%TO.N,GND*%
X67355000Y-53200000D03*
D18*
%TO.P,J1,2,Pin_2*%
%TO.N,/CM4_5V*%
X69895000Y-53200000D03*
%TO.P,J1,3,Pin_3*%
%TO.N,Net-(J1-Pin_3)*%
X72435000Y-53200000D03*
%TO.P,J1,4,Pin_4*%
%TO.N,Net-(J1-Pin_4)*%
X74975000Y-53200000D03*
%TD*%
D19*
%TO.P,J5,1,Pin_1*%
%TO.N,/Global_EN*%
X145525000Y-80725000D03*
D20*
%TO.P,J5,2,Pin_2*%
%TO.N,GND*%
X145525000Y-83265000D03*
%TO.P,J5,3,Pin_3*%
%TO.N,/RUN_PG*%
X145525000Y-85805000D03*
%TD*%
D21*
%TO.P,J4,SH1,SHELL_GND*%
%TO.N,GND*%
X47080000Y-50775000D03*
%TO.P,J4,SH2,SHELL_GND__1*%
X47080000Y-59415000D03*
D22*
%TO.P,J4,SH3,SHELL_GND__2*%
X42900000Y-50775000D03*
%TO.P,J4,SH4,SHELL_GND__3*%
X42900000Y-59415000D03*
%TD*%
D19*
%TO.P,J7,1,Pin_1*%
%TO.N,/TR1_TAP*%
X70575000Y-70700000D03*
D20*
%TO.P,J7,2,Pin_2*%
%TO.N,/TR2_TAP*%
X73115000Y-70700000D03*
%TO.P,J7,3,Pin_3*%
%TO.N,/TR0_TAP*%
X70575000Y-73240000D03*
%TO.P,J7,4,Pin_4*%
%TO.N,/TR3_TAP*%
X73115000Y-73240000D03*
%TD*%
D23*
%TO.P,J2,6,Shield*%
%TO.N,GND*%
X42500000Y-62300000D03*
D24*
X45530000Y-62600000D03*
X45530000Y-67450000D03*
D23*
X42500000Y-67750000D03*
%TD*%
D19*
%TO.P,J6,1,Pin_1*%
%TO.N,Net-(J6-Pin_1)*%
X149850000Y-80750000D03*
D20*
%TO.P,J6,2,Pin_2*%
%TO.N,/nRPIBOOT*%
X149850000Y-83290000D03*
%TO.P,J6,3,Pin_3*%
%TO.N,GND*%
X149850000Y-85830000D03*
%TD*%
D25*
%TO.N,GND*%
X101425000Y-67775000D03*
X111525000Y-86925000D03*
X118200000Y-69150000D03*
X107500001Y-54024721D03*
X113050000Y-86900000D03*
X94175000Y-70325000D03*
X109900001Y-54024721D03*
X117099999Y-54024721D03*
X113400000Y-70250000D03*
X118299999Y-52005279D03*
X117875000Y-89425000D03*
X82200000Y-70150000D03*
X111425000Y-70250000D03*
X108700001Y-54024721D03*
X117100001Y-52005279D03*
X158950000Y-69900000D03*
X95650000Y-62425000D03*
X123325000Y-73875000D03*
X120275000Y-89325000D03*
X62300000Y-54975000D03*
X123099999Y-52005278D03*
X106075000Y-85400000D03*
X121475000Y-81000000D03*
X60750000Y-56775000D03*
X120925000Y-71725000D03*
X123950000Y-75450000D03*
X108699999Y-52005279D03*
X78375000Y-64650000D03*
X106750000Y-68025000D03*
X158875000Y-61500000D03*
D26*
X46775000Y-66325000D03*
D25*
X54925000Y-53400000D03*
X119275000Y-73475000D03*
X121900001Y-54024721D03*
X62675000Y-66400000D03*
X158850000Y-68425000D03*
X58775000Y-53325000D03*
X158925000Y-65250000D03*
X120700000Y-75000000D03*
X125499999Y-52005278D03*
X123100001Y-54024721D03*
X99400000Y-64475000D03*
X144000000Y-51650000D03*
X120699874Y-52025000D03*
X92725000Y-64825000D03*
X116225000Y-68075000D03*
X115400000Y-70325000D03*
X142750000Y-54900000D03*
X110299999Y-85925279D03*
X158875000Y-57225000D03*
X113499999Y-52005279D03*
X59025000Y-56775000D03*
X113499999Y-54024722D03*
X75725000Y-70875000D03*
X121475000Y-79475000D03*
X99575000Y-85325000D03*
X121475000Y-78200000D03*
X116675000Y-89300000D03*
X146925000Y-69975000D03*
X148925000Y-76575000D03*
X66525000Y-66025000D03*
X107500001Y-52005279D03*
X158850000Y-54375000D03*
X102250000Y-85400000D03*
X119499999Y-52005279D03*
X44750000Y-54700000D03*
X149350000Y-51700000D03*
X86925000Y-66125000D03*
X78300000Y-66125000D03*
X107500000Y-56575000D03*
X105675000Y-58525000D03*
X90250000Y-66075000D03*
X116550000Y-70850000D03*
X112925000Y-84500000D03*
X104275000Y-67975000D03*
X44650000Y-52150000D03*
X76350000Y-71950000D03*
X109525000Y-86925000D03*
X108699999Y-85925279D03*
X98125000Y-85225000D03*
X114450000Y-67875000D03*
X100975000Y-56975000D03*
X79425000Y-71175000D03*
X120700001Y-54024721D03*
X109899999Y-52005279D03*
X55475000Y-64100000D03*
X86750000Y-70225000D03*
X96975000Y-70300000D03*
X59775000Y-66400000D03*
X80550000Y-66125000D03*
X154075000Y-51675000D03*
X115896757Y-52010570D03*
X121425000Y-76750000D03*
X103700000Y-54650000D03*
X125950000Y-84625000D03*
X124303210Y-52010518D03*
D26*
X47400000Y-64950000D03*
D25*
X112699999Y-87944721D03*
X112300001Y-52005279D03*
X110699999Y-87944721D03*
X107500001Y-87944721D03*
X121725000Y-72400000D03*
X62300000Y-56775000D03*
X75650000Y-69700000D03*
X98700000Y-88200000D03*
X56700000Y-53325000D03*
X150300000Y-67450000D03*
X124300001Y-54024721D03*
X111100001Y-54024722D03*
X158900000Y-59200000D03*
X146350000Y-51650000D03*
X123950000Y-78600000D03*
X91850000Y-70225000D03*
X119825000Y-84175000D03*
X125500001Y-54024722D03*
X106292703Y-87957460D03*
D26*
X54275000Y-66250000D03*
D25*
X100725000Y-63050000D03*
X96975000Y-60825000D03*
X78375000Y-72375000D03*
X152175000Y-74625000D03*
X119150000Y-84000000D03*
X101500000Y-70250000D03*
X111100001Y-52005279D03*
X102800000Y-88200000D03*
X157675000Y-51550000D03*
X114700001Y-87944721D03*
X100650000Y-88200000D03*
X112299999Y-54024721D03*
X71825000Y-66500000D03*
X84125000Y-66000000D03*
X44625000Y-57750000D03*
X119500001Y-54024721D03*
X55200000Y-56800000D03*
X114699999Y-52005279D03*
X108695244Y-87937031D03*
X111400000Y-67975000D03*
X84650000Y-70200000D03*
X99450000Y-58475000D03*
X98575000Y-67675000D03*
X117550000Y-84500000D03*
X116675000Y-84525000D03*
X121475000Y-82125000D03*
X102475000Y-61200000D03*
X99200000Y-70200000D03*
X80675000Y-70325000D03*
X109175000Y-68025000D03*
X100875000Y-85350000D03*
X109300000Y-70200000D03*
X69050000Y-66225000D03*
X96175000Y-67800000D03*
X107499999Y-85925279D03*
X104750000Y-70275000D03*
X74600000Y-66300000D03*
X98050000Y-65775000D03*
X119125000Y-89300000D03*
X149025000Y-67250000D03*
X121899999Y-52005279D03*
X89150000Y-70275000D03*
X118300001Y-54024721D03*
X113750000Y-84550000D03*
X149875000Y-70150000D03*
X57250000Y-56800000D03*
X44725000Y-53375000D03*
X60650000Y-53525000D03*
X44725000Y-56075000D03*
X107125000Y-70175000D03*
X57050000Y-65850000D03*
X104225000Y-59750000D03*
X142925000Y-52950000D03*
X123875000Y-80125000D03*
X158875000Y-66800000D03*
D26*
%TO.N,/RUN_PG*%
X124872500Y-84172500D03*
X131725000Y-83325000D03*
D25*
%TO.N,/CM4_3V3*%
X159575000Y-71500000D03*
D26*
X140725000Y-57450000D03*
X91275000Y-68925000D03*
X83325000Y-61000000D03*
D25*
X159575000Y-70900000D03*
D26*
X116875000Y-68950000D03*
D25*
X151829657Y-78445343D03*
X159575000Y-76750000D03*
X159575000Y-77304999D03*
X145800000Y-76800000D03*
%TO.N,/SD_DAT1*%
X118975000Y-87425000D03*
X146075000Y-59050000D03*
%TO.N,/SD_CLK*%
X117325643Y-87798327D03*
X148450000Y-57950000D03*
%TO.N,/SD_DAT0*%
X118234481Y-87440519D03*
X147150000Y-59050000D03*
%TO.N,/SD_DAT2*%
X153775000Y-63625000D03*
X119570343Y-87454657D03*
%TO.N,/SD_CMD*%
X151575000Y-63550000D03*
D26*
X118325000Y-73375000D03*
D25*
%TO.N,/SD_DAT3*%
X152700000Y-61400000D03*
X117722653Y-87494377D03*
%TO.N,Net-(C4-Pad1)*%
X64700000Y-84800000D03*
D26*
%TO.N,/Global_EN*%
X129825000Y-81925000D03*
D25*
%TO.N,/BT_nDisable*%
X126590276Y-86816483D03*
X133900003Y-81725000D03*
%TO.N,/nRPIBOOT*%
X127025000Y-87225000D03*
%TO.N,/nPI_LED_PWR*%
X131905699Y-87769301D03*
X128669301Y-87769301D03*
%TO.N,/WiFi_nDisable*%
X133400000Y-81725000D03*
X126825000Y-86375000D03*
%TO.N,/SD_PWR_ON*%
X144775000Y-76275000D03*
X129750000Y-79600000D03*
%TO.N,/Reserved*%
X121112500Y-84212500D03*
X143900000Y-73775000D03*
%TO.N,/SCL0*%
X77100000Y-65300000D03*
X78237199Y-71462570D03*
%TO.N,/SD_VDD_Override*%
X120634139Y-87864846D03*
X117625000Y-83475000D03*
X109500000Y-83475000D03*
X110300000Y-83475000D03*
%TO.N,/SDA0*%
X77667775Y-71458832D03*
X76425000Y-65300000D03*
%TO.N,Net-(J1-Pin_4)*%
X78375000Y-58450000D03*
%TO.N,Net-(J1-Pin_3)*%
X77725000Y-58425000D03*
%TO.N,/ETH_LEDG*%
X109506869Y-89365620D03*
X47050000Y-70875000D03*
%TO.N,/ETH_LEDY*%
X109100000Y-89075000D03*
X51700000Y-70575000D03*
%TO.N,Net-(R10-Pad2)*%
X157100000Y-81475000D03*
X150250000Y-70925000D03*
%TO.N,/PI_nLED_Activity*%
X110300000Y-87450000D03*
X151575000Y-70800000D03*
X139575000Y-56850000D03*
X143400000Y-65300000D03*
%TD*%
D27*
%TO.N,/RUN_PG*%
X131725000Y-83325000D02*
X125720000Y-83325000D01*
X125720000Y-83325000D02*
X124872500Y-84172500D01*
D28*
%TO.N,/CM4_3V3*%
X159575000Y-71500000D02*
X159575000Y-76750000D01*
X159575000Y-76750000D02*
X159575000Y-77304999D01*
D27*
X145800000Y-76800000D02*
X145800000Y-77425000D01*
D28*
X45977500Y-83615000D02*
X47177500Y-84815000D01*
X142125000Y-56050000D02*
X142125000Y-52575000D01*
X128375000Y-57450000D02*
X140725000Y-57450000D01*
X143800000Y-50900000D02*
X158325000Y-50900000D01*
D27*
X83325000Y-61000000D02*
X91250000Y-68925000D01*
D28*
X142125000Y-52575000D02*
X143800000Y-50900000D01*
X159575000Y-52150000D02*
X159575000Y-70900000D01*
D27*
X145800000Y-77425000D02*
X146820343Y-78445343D01*
D28*
X47177500Y-74095000D02*
X45977500Y-75295000D01*
X159575000Y-70900000D02*
X159575000Y-71500000D01*
X140725000Y-57450000D02*
X142125000Y-56050000D01*
D27*
X91250000Y-68925000D02*
X91275000Y-68925000D01*
D28*
X158325000Y-50900000D02*
X159575000Y-52150000D01*
D27*
X146820343Y-78445343D02*
X151829657Y-78445343D01*
D28*
X45977500Y-75295000D02*
X45977500Y-83615000D01*
X116875000Y-68950000D02*
X128375000Y-57450000D01*
D29*
%TO.N,/SD_DAT1*%
X118344377Y-86794377D02*
X117432703Y-86794377D01*
X116496119Y-86798327D02*
X115600001Y-85902209D01*
X117432703Y-86794377D02*
X117428753Y-86798327D01*
X115600000Y-74968629D02*
X131518629Y-59050000D01*
X117428753Y-86798327D02*
X116496119Y-86798327D01*
X115600000Y-74968629D02*
X115600001Y-85902209D01*
X118975000Y-87425000D02*
X118344377Y-86794377D01*
X131518629Y-59050000D02*
X146075000Y-59050000D01*
%TO.N,/SD_CLK*%
X114700001Y-86275001D02*
X114700001Y-73735785D01*
X117302316Y-87775000D02*
X116200000Y-87775000D01*
X116200000Y-87775000D02*
X114700001Y-86275001D01*
X114700001Y-73735785D02*
X130485786Y-57950000D01*
X130485786Y-57950000D02*
X148450000Y-57950000D01*
X117325643Y-87798327D02*
X117302316Y-87775000D01*
%TO.N,/SD_DAT0*%
X116371855Y-87098327D02*
X115300001Y-86026473D01*
X117556967Y-87094377D02*
X117553017Y-87098327D01*
X146750000Y-58650000D02*
X147150000Y-59050000D01*
X117553017Y-87098327D02*
X116371855Y-87098327D01*
X115300000Y-73984314D02*
X130634314Y-58650000D01*
X115300000Y-73984314D02*
X115300001Y-86026473D01*
X118234481Y-87440519D02*
X117888339Y-87094377D01*
X117888339Y-87094377D02*
X117556967Y-87094377D01*
X130634314Y-58650000D02*
X146750000Y-58650000D01*
%TO.N,/SD_DAT2*%
X115900000Y-84769377D02*
X115900000Y-75092893D01*
X117625000Y-86494377D02*
X115900000Y-84769377D01*
X131542893Y-59450000D02*
X149600000Y-59450000D01*
X115900000Y-75092893D02*
X131542893Y-59450000D01*
X149600000Y-59450000D02*
X153775000Y-63625000D01*
X119570343Y-87454657D02*
X118610063Y-86494377D01*
X118610063Y-86494377D02*
X117625000Y-86494377D01*
D27*
%TO.N,/SD_CMD*%
X118325000Y-73375000D02*
X118325000Y-73263603D01*
X118325000Y-73263603D02*
X131788603Y-59800000D01*
X131788603Y-59800000D02*
X147825000Y-59800000D01*
X147825000Y-59800000D02*
X151575000Y-63550000D01*
D29*
%TO.N,/SD_DAT3*%
X149650000Y-58350000D02*
X152700000Y-61400000D01*
X115000001Y-73860049D02*
X130510050Y-58350000D01*
X117722653Y-87494377D02*
X117626603Y-87398327D01*
X117626603Y-87398327D02*
X116247591Y-87398327D01*
X116247591Y-87398327D02*
X115000001Y-86150737D01*
X115000001Y-86150737D02*
X115000001Y-73860049D01*
X130510050Y-58350000D02*
X149650000Y-58350000D01*
%TO.N,Net-(C4-Pad1)*%
X63140000Y-80090000D02*
X60127500Y-80090000D01*
X64700000Y-81650000D02*
X63140000Y-80090000D01*
X64700000Y-84800000D02*
X64700000Y-81650000D01*
D27*
%TO.N,/Global_EN*%
X129825000Y-81925000D02*
X131025000Y-80725000D01*
X131025000Y-80725000D02*
X145525000Y-80725000D01*
D29*
%TO.N,/BT_nDisable*%
X126590276Y-86816483D02*
X129364888Y-86816483D01*
X129364888Y-86816483D02*
X133900003Y-82281368D01*
X133900003Y-82281368D02*
X133900003Y-81725000D01*
%TO.N,/nRPIBOOT*%
X127025000Y-87225000D02*
X129380635Y-87225000D01*
X153325000Y-84400000D02*
X152215000Y-83290000D01*
X152215000Y-83290000D02*
X149850000Y-83290000D01*
X144875000Y-88875000D02*
X152150000Y-88875000D01*
X133230635Y-83375000D02*
X139375000Y-83375000D01*
X152150000Y-88875000D02*
X153325000Y-87700000D01*
X153325000Y-87700000D02*
X153325000Y-84400000D01*
X129380635Y-87225000D02*
X133230635Y-83375000D01*
X139375000Y-83375000D02*
X144875000Y-88875000D01*
%TO.N,/nPI_LED_PWR*%
X128669301Y-87769301D02*
X131905699Y-87769301D01*
%TO.N,/WiFi_nDisable*%
X126825000Y-86375000D02*
X129382107Y-86375000D01*
X129382107Y-86375000D02*
X133400000Y-82357107D01*
X133400000Y-82357107D02*
X133400000Y-81725000D01*
D27*
%TO.N,/SD_PWR_ON*%
X129750000Y-79600000D02*
X141450000Y-79600000D01*
X141450000Y-79600000D02*
X144775000Y-76275000D01*
D29*
%TO.N,/Reserved*%
X143900000Y-75745712D02*
X142345712Y-77300000D01*
X142345712Y-77300000D02*
X128025000Y-77300000D01*
X143900000Y-73775000D02*
X143900000Y-75745712D01*
X128025000Y-77300000D02*
X121112500Y-84212500D01*
%TO.N,/SCL0*%
X77100000Y-70325371D02*
X78237199Y-71462570D01*
X77100000Y-65300000D02*
X77100000Y-70325371D01*
%TO.N,/SD_VDD_Override*%
X120634139Y-86425103D02*
X120634139Y-87864846D01*
X117684036Y-83475000D02*
X120634139Y-86425103D01*
X117625000Y-83475000D02*
X117684036Y-83475000D01*
X109500000Y-83475000D02*
X110300000Y-83475000D01*
%TO.N,/SDA0*%
X76425000Y-70216057D02*
X76425000Y-65300000D01*
X77667775Y-71458832D02*
X76425000Y-70216057D01*
D27*
%TO.N,Net-(J1-Pin_4)*%
X78375000Y-56600000D02*
X74975000Y-53200000D01*
X78375000Y-58450000D02*
X78375000Y-56600000D01*
%TO.N,Net-(J1-Pin_3)*%
X77725000Y-56515686D02*
X75734314Y-54525000D01*
X77725000Y-58425000D02*
X77725000Y-56515686D01*
X73760000Y-54525000D02*
X72435000Y-53200000D01*
X75734314Y-54525000D02*
X73760000Y-54525000D01*
D29*
%TO.N,/ETH_LEDG*%
X97025736Y-89375000D02*
X89450736Y-81800000D01*
X109506869Y-89365620D02*
X109397489Y-89475000D01*
X108500000Y-89375000D02*
X97025736Y-89375000D01*
X72575736Y-81800000D02*
X61650736Y-70875000D01*
X51965686Y-70875000D02*
X51865686Y-70975000D01*
X61650736Y-70875000D02*
X51965686Y-70875000D01*
X89450736Y-81800000D02*
X72575736Y-81800000D01*
X51865686Y-70975000D02*
X47150000Y-70975000D01*
X108600000Y-89475000D02*
X108500000Y-89375000D01*
X109397489Y-89475000D02*
X108600000Y-89475000D01*
X47150000Y-70975000D02*
X47050000Y-70875000D01*
%TO.N,/ETH_LEDY*%
X61775000Y-70575000D02*
X72700000Y-81500000D01*
X89575000Y-81500000D02*
X97150000Y-89075000D01*
X51700000Y-70575000D02*
X61775000Y-70575000D01*
X97150000Y-89075000D02*
X109100000Y-89075000D01*
X72700000Y-81500000D02*
X89575000Y-81500000D01*
%TO.N,Net-(R10-Pad2)*%
X155425000Y-81475000D02*
X149425000Y-75475000D01*
X149425000Y-75475000D02*
X149425000Y-71750000D01*
X149425000Y-71750000D02*
X150250000Y-70925000D01*
X157100000Y-81475000D02*
X155425000Y-81475000D01*
%TO.N,/PI_nLED_Activity*%
X151575000Y-70800000D02*
X150050000Y-69275000D01*
X147375000Y-69275000D02*
X143400000Y-65300000D01*
X128267893Y-56850000D02*
X139575000Y-56850000D01*
X150050000Y-69275000D02*
X147375000Y-69275000D01*
X108725000Y-76392893D02*
X128267893Y-56850000D01*
X110300000Y-86650000D02*
X108725000Y-85075000D01*
X108725000Y-85075000D02*
X108725000Y-76392893D01*
X110300000Y-87450000D02*
X110300000Y-86650000D01*
%TD*%
%TA.AperFunction,Conductor*%
%TO.N,GND*%
G36*
X41643183Y-50030185D02*
G01*
X41688938Y-50082989D01*
X41698882Y-50152147D01*
X41679246Y-50203391D01*
X41613814Y-50301315D01*
X41613807Y-50301328D01*
X41538430Y-50483307D01*
X41538430Y-50483309D01*
X41530138Y-50525000D01*
X42333012Y-50525000D01*
X42315795Y-50534940D01*
X42259940Y-50590795D01*
X42220444Y-50659204D01*
X42200000Y-50735504D01*
X42200000Y-50814496D01*
X42220444Y-50890796D01*
X42259940Y-50959205D01*
X42315795Y-51015060D01*
X42333012Y-51025000D01*
X41530138Y-51025000D01*
X41538430Y-51066690D01*
X41538430Y-51066692D01*
X41613807Y-51248671D01*
X41613814Y-51248684D01*
X41723248Y-51412462D01*
X41723251Y-51412466D01*
X41862533Y-51551748D01*
X41862537Y-51551751D01*
X42026315Y-51661185D01*
X42026328Y-51661192D01*
X42208306Y-51736569D01*
X42208318Y-51736572D01*
X42401504Y-51774999D01*
X42401508Y-51775000D01*
X42650000Y-51775000D01*
X42650000Y-51075000D01*
X43150000Y-51075000D01*
X43150000Y-51775000D01*
X43398492Y-51775000D01*
X43398495Y-51774999D01*
X43591681Y-51736572D01*
X43591693Y-51736569D01*
X43773671Y-51661192D01*
X43773684Y-51661185D01*
X43937462Y-51551751D01*
X43937466Y-51551748D01*
X44076748Y-51412466D01*
X44076751Y-51412462D01*
X44186185Y-51248684D01*
X44186192Y-51248671D01*
X44261569Y-51066692D01*
X44261569Y-51066690D01*
X44269862Y-51025000D01*
X43466988Y-51025000D01*
X43484205Y-51015060D01*
X43540060Y-50959205D01*
X43579556Y-50890796D01*
X43600000Y-50814496D01*
X43600000Y-50735504D01*
X43579556Y-50659204D01*
X43540060Y-50590795D01*
X43484205Y-50534940D01*
X43466988Y-50525000D01*
X44269862Y-50525000D01*
X44261569Y-50483309D01*
X44261569Y-50483307D01*
X44186192Y-50301328D01*
X44186185Y-50301315D01*
X44120754Y-50203391D01*
X44099876Y-50136714D01*
X44118360Y-50069333D01*
X44170339Y-50022643D01*
X44223856Y-50010500D01*
X45606144Y-50010500D01*
X45673183Y-50030185D01*
X45718938Y-50082989D01*
X45728882Y-50152147D01*
X45709246Y-50203391D01*
X45643814Y-50301315D01*
X45643807Y-50301328D01*
X45568430Y-50483307D01*
X45568430Y-50483309D01*
X45560138Y-50525000D01*
X46363012Y-50525000D01*
X46345795Y-50534940D01*
X46289940Y-50590795D01*
X46250444Y-50659204D01*
X46230000Y-50735504D01*
X46230000Y-50814496D01*
X46250444Y-50890796D01*
X46289940Y-50959205D01*
X46345795Y-51015060D01*
X46363012Y-51025000D01*
X45560138Y-51025000D01*
X45568430Y-51066690D01*
X45568430Y-51066692D01*
X45643807Y-51248671D01*
X45643814Y-51248684D01*
X45753248Y-51412462D01*
X45753251Y-51412466D01*
X45892533Y-51551748D01*
X45892537Y-51551751D01*
X46056315Y-51661185D01*
X46056328Y-51661192D01*
X46238306Y-51736569D01*
X46238318Y-51736572D01*
X46431504Y-51774999D01*
X46431508Y-51775000D01*
X46830000Y-51775000D01*
X46830000Y-51075000D01*
X47330000Y-51075000D01*
X47330000Y-51775000D01*
X47728492Y-51775000D01*
X47728495Y-51774999D01*
X47921681Y-51736572D01*
X47921693Y-51736569D01*
X48103671Y-51661192D01*
X48103684Y-51661185D01*
X48267462Y-51551751D01*
X48267466Y-51551748D01*
X48406748Y-51412466D01*
X48406751Y-51412462D01*
X48516185Y-51248684D01*
X48516192Y-51248671D01*
X48591569Y-51066692D01*
X48591569Y-51066690D01*
X48599862Y-51025000D01*
X47796988Y-51025000D01*
X47814205Y-51015060D01*
X47870060Y-50959205D01*
X47909556Y-50890796D01*
X47930000Y-50814496D01*
X47930000Y-50735504D01*
X47909556Y-50659204D01*
X47870060Y-50590795D01*
X47814205Y-50534940D01*
X47796988Y-50525000D01*
X48599862Y-50525000D01*
X48591569Y-50483309D01*
X48591569Y-50483307D01*
X48516192Y-50301328D01*
X48516185Y-50301315D01*
X48450754Y-50203391D01*
X48429876Y-50136714D01*
X48448360Y-50069333D01*
X48500339Y-50022643D01*
X48553856Y-50010500D01*
X143371594Y-50010500D01*
X143438633Y-50030185D01*
X143484388Y-50082989D01*
X143494332Y-50152147D01*
X143465307Y-50215703D01*
X143440483Y-50237603D01*
X143395269Y-50267813D01*
X143321588Y-50317044D01*
X143321580Y-50317050D01*
X141542048Y-52096583D01*
X141520645Y-52128616D01*
X141499384Y-52160437D01*
X141459919Y-52219499D01*
X141459912Y-52219511D01*
X141403343Y-52356082D01*
X141403340Y-52356092D01*
X141374500Y-52501079D01*
X141374500Y-55687770D01*
X141354815Y-55754809D01*
X141338181Y-55775451D01*
X140450451Y-56663181D01*
X140389128Y-56696666D01*
X140362770Y-56699500D01*
X140299224Y-56699500D01*
X140232185Y-56679815D01*
X140186430Y-56627011D01*
X140183282Y-56619471D01*
X140155220Y-56545477D01*
X140065483Y-56415470D01*
X139947240Y-56310717D01*
X139947238Y-56310716D01*
X139947237Y-56310715D01*
X139807365Y-56237303D01*
X139653986Y-56199500D01*
X139653985Y-56199500D01*
X139496015Y-56199500D01*
X139496014Y-56199500D01*
X139423615Y-56217344D01*
X139353813Y-56214274D01*
X139296751Y-56173954D01*
X139270546Y-56109185D01*
X139283519Y-56040530D01*
X139327970Y-55991953D01*
X139368013Y-55966792D01*
X139368012Y-55966792D01*
X139368018Y-55966789D01*
X139635893Y-55753166D01*
X139878166Y-55510893D01*
X140091789Y-55243018D01*
X140274076Y-54952910D01*
X140422736Y-54644215D01*
X140535897Y-54320817D01*
X140612139Y-53986783D01*
X140650500Y-53646312D01*
X140650500Y-53303688D01*
X140637713Y-53190197D01*
X140612141Y-52963231D01*
X140612140Y-52963226D01*
X140612139Y-52963217D01*
X140535897Y-52629183D01*
X140422736Y-52305785D01*
X140274076Y-51997090D01*
X140091789Y-51706982D01*
X139878166Y-51439107D01*
X139635893Y-51196834D01*
X139368018Y-50983211D01*
X139077910Y-50800924D01*
X139077907Y-50800922D01*
X138769216Y-50652264D01*
X138445818Y-50539103D01*
X138445816Y-50539102D01*
X138188024Y-50480262D01*
X138111783Y-50462861D01*
X138111780Y-50462860D01*
X138111768Y-50462858D01*
X137771318Y-50424500D01*
X137771312Y-50424500D01*
X137428688Y-50424500D01*
X137428681Y-50424500D01*
X137088231Y-50462858D01*
X137088217Y-50462861D01*
X136754183Y-50539102D01*
X136754181Y-50539103D01*
X136430783Y-50652264D01*
X136122092Y-50800922D01*
X135831983Y-50983210D01*
X135564107Y-51196833D01*
X135321833Y-51439107D01*
X135108210Y-51706983D01*
X134925922Y-51997092D01*
X134777264Y-52305783D01*
X134664103Y-52629181D01*
X134664102Y-52629183D01*
X134587861Y-52963217D01*
X134587858Y-52963231D01*
X134549500Y-53303681D01*
X134549500Y-53646318D01*
X134587858Y-53986768D01*
X134587860Y-53986780D01*
X134587861Y-53986783D01*
X134595564Y-54020532D01*
X134664102Y-54320816D01*
X134664103Y-54320818D01*
X134777264Y-54644216D01*
X134925922Y-54952907D01*
X134925924Y-54952910D01*
X135108211Y-55243018D01*
X135321834Y-55510893D01*
X135564107Y-55753166D01*
X135831982Y-55966789D01*
X135997047Y-56070506D01*
X136043338Y-56122841D01*
X136053986Y-56191894D01*
X136025611Y-56255743D01*
X135967222Y-56294115D01*
X135931075Y-56299500D01*
X128195418Y-56299500D01*
X128090410Y-56327637D01*
X128055407Y-56337016D01*
X127929879Y-56409489D01*
X127929876Y-56409491D01*
X108284491Y-76054876D01*
X108284487Y-76054881D01*
X108220936Y-76164957D01*
X108212018Y-76180403D01*
X108212016Y-76180406D01*
X108205247Y-76205670D01*
X108174500Y-76320418D01*
X108174500Y-85147475D01*
X108197827Y-85234530D01*
X108197826Y-85234530D01*
X108212015Y-85287483D01*
X108212016Y-85287485D01*
X108270034Y-85387977D01*
X108284489Y-85413013D01*
X108284491Y-85413016D01*
X109713181Y-86841706D01*
X109746666Y-86903029D01*
X109749500Y-86929387D01*
X109749500Y-87063780D01*
X109729815Y-87130819D01*
X109727552Y-87134217D01*
X109719780Y-87145476D01*
X109663762Y-87293181D01*
X109644722Y-87449999D01*
X109644722Y-87450000D01*
X109663762Y-87606818D01*
X109718065Y-87750000D01*
X109719780Y-87754523D01*
X109809517Y-87884530D01*
X109927760Y-87989283D01*
X109927762Y-87989284D01*
X110067634Y-88062696D01*
X110221014Y-88100500D01*
X110221015Y-88100500D01*
X110378985Y-88100500D01*
X110532365Y-88062696D01*
X110579998Y-88037696D01*
X110672240Y-87989283D01*
X110790483Y-87884530D01*
X110880220Y-87754523D01*
X110936237Y-87606818D01*
X110955278Y-87450000D01*
X110939593Y-87320817D01*
X110936237Y-87293181D01*
X110902641Y-87204597D01*
X110880220Y-87145477D01*
X110872448Y-87134217D01*
X110850567Y-87067862D01*
X110850500Y-87063780D01*
X110850500Y-86577527D01*
X110850500Y-86577525D01*
X110812984Y-86437515D01*
X110810743Y-86433634D01*
X110805918Y-86425276D01*
X110805917Y-86425273D01*
X110740514Y-86311991D01*
X110740508Y-86311983D01*
X109311819Y-84883294D01*
X109278334Y-84821971D01*
X109275500Y-84795613D01*
X109275500Y-84247798D01*
X109295185Y-84180759D01*
X109347989Y-84135004D01*
X109414450Y-84124703D01*
X109421012Y-84125500D01*
X109421015Y-84125500D01*
X109578985Y-84125500D01*
X109732365Y-84087696D01*
X109823805Y-84039703D01*
X109881431Y-84025500D01*
X109918569Y-84025500D01*
X109976194Y-84039703D01*
X110067635Y-84087696D01*
X110090859Y-84093420D01*
X110221014Y-84125500D01*
X110221015Y-84125500D01*
X110378985Y-84125500D01*
X110532365Y-84087696D01*
X110571517Y-84067147D01*
X110672240Y-84014283D01*
X110790483Y-83909530D01*
X110880220Y-83779523D01*
X110936237Y-83631818D01*
X110955278Y-83475000D01*
X110952486Y-83452001D01*
X110936237Y-83318181D01*
X110913276Y-83257638D01*
X110880220Y-83170477D01*
X110790483Y-83040470D01*
X110672240Y-82935717D01*
X110672238Y-82935716D01*
X110672237Y-82935715D01*
X110532365Y-82862303D01*
X110378986Y-82824500D01*
X110378985Y-82824500D01*
X110221015Y-82824500D01*
X110221014Y-82824500D01*
X110067636Y-82862303D01*
X110021763Y-82886379D01*
X109976194Y-82910296D01*
X109918569Y-82924500D01*
X109881431Y-82924500D01*
X109823805Y-82910296D01*
X109732365Y-82862304D01*
X109732364Y-82862303D01*
X109732363Y-82862303D01*
X109578986Y-82824500D01*
X109578985Y-82824500D01*
X109421015Y-82824500D01*
X109414440Y-82825298D01*
X109345517Y-82813834D01*
X109293734Y-82766927D01*
X109275500Y-82702201D01*
X109275500Y-76672280D01*
X109295185Y-76605241D01*
X109311819Y-76584599D01*
X112798482Y-73097936D01*
X116304606Y-69591811D01*
X116365927Y-69558328D01*
X116435619Y-69563312D01*
X116458250Y-69574496D01*
X116465322Y-69578939D01*
X116468238Y-69580828D01*
X116519506Y-69615084D01*
X116519638Y-69615138D01*
X116538163Y-69624708D01*
X116547310Y-69630456D01*
X116604028Y-69650301D01*
X116610464Y-69652759D01*
X116656088Y-69671658D01*
X116664866Y-69673404D01*
X116668339Y-69674095D01*
X116685104Y-69678672D01*
X116689611Y-69680249D01*
X116706941Y-69686313D01*
X116754404Y-69691660D01*
X116764693Y-69693261D01*
X116801079Y-69700500D01*
X116801083Y-69700500D01*
X116825890Y-69700500D01*
X116839774Y-69701280D01*
X116874998Y-69705249D01*
X116875000Y-69705249D01*
X116875002Y-69705249D01*
X116910226Y-69701280D01*
X116924110Y-69700500D01*
X116948912Y-69700500D01*
X116948917Y-69700500D01*
X116985320Y-69693257D01*
X116995590Y-69691660D01*
X117043059Y-69686313D01*
X117064906Y-69678667D01*
X117081664Y-69674093D01*
X117093912Y-69671658D01*
X117139547Y-69652753D01*
X117145987Y-69650295D01*
X117202690Y-69630456D01*
X117211838Y-69624706D01*
X117230355Y-69615141D01*
X117230494Y-69615084D01*
X117281799Y-69580802D01*
X117284617Y-69578976D01*
X117345890Y-69540477D01*
X117346335Y-69540031D01*
X117346349Y-69540021D01*
X117346348Y-69540020D01*
X128649549Y-58236819D01*
X128710872Y-58203334D01*
X128737230Y-58200500D01*
X129157399Y-58200500D01*
X129224438Y-58220185D01*
X129270193Y-58272989D01*
X129280137Y-58342147D01*
X129251112Y-58405703D01*
X129245080Y-58412181D01*
X114259492Y-73397768D01*
X114259490Y-73397771D01*
X114231311Y-73446579D01*
X114214665Y-73475413D01*
X114203133Y-73495387D01*
X114203131Y-73495389D01*
X114187019Y-73523294D01*
X114187018Y-73523295D01*
X114172461Y-73577622D01*
X114149501Y-73663310D01*
X114149501Y-86347476D01*
X114176296Y-86447474D01*
X114187017Y-86487486D01*
X114259491Y-86613016D01*
X115861985Y-88215510D01*
X115977644Y-88282285D01*
X115987515Y-88287984D01*
X116127525Y-88325500D01*
X116127526Y-88325500D01*
X116272474Y-88325500D01*
X116899766Y-88325500D01*
X116957392Y-88339704D01*
X117093277Y-88411023D01*
X117246657Y-88448827D01*
X117246658Y-88448827D01*
X117404628Y-88448827D01*
X117558008Y-88411023D01*
X117571143Y-88404129D01*
X117697883Y-88337610D01*
X117816126Y-88232857D01*
X117865559Y-88161238D01*
X117919840Y-88117249D01*
X117937931Y-88111284D01*
X117955018Y-88107073D01*
X117998253Y-88084380D01*
X118066760Y-88070655D01*
X118085551Y-88073779D01*
X118155496Y-88091019D01*
X118313466Y-88091019D01*
X118466846Y-88053215D01*
X118561899Y-88003327D01*
X118630407Y-87989601D01*
X118677150Y-88003326D01*
X118742635Y-88037696D01*
X118896015Y-88075500D01*
X119053985Y-88075500D01*
X119207365Y-88037696D01*
X119207366Y-88037694D01*
X119212130Y-88036521D01*
X119281932Y-88039590D01*
X119299430Y-88047121D01*
X119337978Y-88067353D01*
X119400362Y-88082729D01*
X119491357Y-88105157D01*
X119491358Y-88105157D01*
X119649328Y-88105157D01*
X119802708Y-88067353D01*
X119856015Y-88039374D01*
X119924522Y-88025649D01*
X119989576Y-88051141D01*
X120029582Y-88105199D01*
X120053919Y-88169369D01*
X120143656Y-88299376D01*
X120261899Y-88404129D01*
X120261901Y-88404130D01*
X120401773Y-88477542D01*
X120555153Y-88515346D01*
X120555154Y-88515346D01*
X120713124Y-88515346D01*
X120866504Y-88477542D01*
X120934028Y-88442102D01*
X121006379Y-88404129D01*
X121124622Y-88299376D01*
X121214359Y-88169369D01*
X121270376Y-88021664D01*
X121289417Y-87864846D01*
X121286121Y-87837696D01*
X121270376Y-87708027D01*
X121236830Y-87619575D01*
X121214359Y-87560323D01*
X121206587Y-87549063D01*
X121184706Y-87482708D01*
X121184639Y-87478626D01*
X121184639Y-86352630D01*
X121184639Y-86352628D01*
X121147123Y-86212618D01*
X121118196Y-86162515D01*
X121118196Y-86162514D01*
X121074653Y-86087095D01*
X121074647Y-86087087D01*
X118252868Y-83265308D01*
X118224606Y-83221596D01*
X118216103Y-83199174D01*
X118205220Y-83170477D01*
X118115483Y-83040470D01*
X117997240Y-82935717D01*
X117997238Y-82935716D01*
X117997237Y-82935715D01*
X117857365Y-82862303D01*
X117703986Y-82824500D01*
X117703985Y-82824500D01*
X117546015Y-82824500D01*
X117546014Y-82824500D01*
X117392634Y-82862303D01*
X117252762Y-82935715D01*
X117134516Y-83040471D01*
X117044781Y-83170475D01*
X117044780Y-83170476D01*
X116988762Y-83318181D01*
X116969722Y-83474999D01*
X116969722Y-83475000D01*
X116988762Y-83631818D01*
X117034973Y-83753664D01*
X117044780Y-83779523D01*
X117134517Y-83909530D01*
X117252760Y-84014283D01*
X117252762Y-84014284D01*
X117392634Y-84087696D01*
X117392633Y-84087696D01*
X117504241Y-84115204D01*
X117515500Y-84117979D01*
X117525717Y-84120497D01*
X117583724Y-84153213D01*
X118818490Y-85387979D01*
X120047320Y-86616808D01*
X120080805Y-86678131D01*
X120083639Y-86704489D01*
X120083639Y-86784284D01*
X120063954Y-86851323D01*
X120011150Y-86897078D01*
X119941992Y-86907022D01*
X119902013Y-86894080D01*
X119802710Y-86841961D01*
X119747969Y-86828469D01*
X119689964Y-86795753D01*
X118948079Y-86053868D01*
X118948078Y-86053867D01*
X118822548Y-85981393D01*
X118822549Y-85981393D01*
X118720313Y-85953999D01*
X118720313Y-85953998D01*
X118682538Y-85943877D01*
X117904387Y-85943877D01*
X117837348Y-85924192D01*
X117816706Y-85907558D01*
X116486819Y-84577671D01*
X116453334Y-84516348D01*
X116450500Y-84489990D01*
X116450500Y-75372279D01*
X116470185Y-75305240D01*
X116486814Y-75284603D01*
X117754606Y-74016810D01*
X117815927Y-73983327D01*
X117885619Y-73988311D01*
X117908253Y-73999497D01*
X117935809Y-74016812D01*
X117997306Y-74055454D01*
X117997307Y-74055454D01*
X117997310Y-74055456D01*
X118098249Y-74090776D01*
X118156943Y-74111314D01*
X118324997Y-74130249D01*
X118325000Y-74130249D01*
X118325003Y-74130249D01*
X118493056Y-74111314D01*
X118493059Y-74111313D01*
X118652690Y-74055456D01*
X118652692Y-74055454D01*
X118652694Y-74055454D01*
X118652697Y-74055452D01*
X118795884Y-73965481D01*
X118795885Y-73965480D01*
X118795890Y-73965477D01*
X118915477Y-73845890D01*
X118920075Y-73838573D01*
X119005452Y-73702697D01*
X119005454Y-73702694D01*
X119005454Y-73702692D01*
X119005456Y-73702690D01*
X119061313Y-73543059D01*
X119061313Y-73543057D01*
X119061314Y-73543055D01*
X119077602Y-73398493D01*
X119104668Y-73334079D01*
X119113131Y-73324705D01*
X132001019Y-60436819D01*
X132062342Y-60403334D01*
X132088700Y-60400500D01*
X132351767Y-60400500D01*
X132418806Y-60420185D01*
X132464561Y-60472989D01*
X132475767Y-60524318D01*
X132499341Y-76625318D01*
X132479754Y-76692387D01*
X132427018Y-76738219D01*
X132375341Y-76749500D01*
X127952525Y-76749500D01*
X127847517Y-76777637D01*
X127812514Y-76787016D01*
X127686986Y-76859489D01*
X127686983Y-76859491D01*
X120992877Y-83553596D01*
X120934872Y-83586311D01*
X120880138Y-83599802D01*
X120880134Y-83599803D01*
X120740262Y-83673215D01*
X120622016Y-83777971D01*
X120532281Y-83907975D01*
X120532280Y-83907976D01*
X120476262Y-84055681D01*
X120457222Y-84212499D01*
X120457222Y-84212500D01*
X120476262Y-84369318D01*
X120519838Y-84484217D01*
X120532280Y-84517023D01*
X120622017Y-84647030D01*
X120740260Y-84751783D01*
X120740262Y-84751784D01*
X120880134Y-84825196D01*
X121033514Y-84863000D01*
X121033515Y-84863000D01*
X121191485Y-84863000D01*
X121344865Y-84825196D01*
X121364288Y-84815002D01*
X121484740Y-84751783D01*
X121602983Y-84647030D01*
X121692720Y-84517023D01*
X121748177Y-84370794D01*
X121776435Y-84327088D01*
X128216706Y-77886819D01*
X128278029Y-77853334D01*
X128304387Y-77850500D01*
X142050903Y-77850500D01*
X142117942Y-77870185D01*
X142163697Y-77922989D01*
X142173641Y-77992147D01*
X142144616Y-78055703D01*
X142138584Y-78062181D01*
X141237584Y-78963181D01*
X141176261Y-78996666D01*
X141149903Y-78999500D01*
X130036166Y-78999500D01*
X129990069Y-78988137D01*
X129989377Y-78989963D01*
X129982365Y-78987303D01*
X129828986Y-78949500D01*
X129828985Y-78949500D01*
X129671015Y-78949500D01*
X129671014Y-78949500D01*
X129517634Y-78987303D01*
X129377762Y-79060715D01*
X129259516Y-79165471D01*
X129169781Y-79295475D01*
X129169780Y-79295476D01*
X129113762Y-79443181D01*
X129094722Y-79599999D01*
X129094722Y-79600000D01*
X129113762Y-79756818D01*
X129149912Y-79852135D01*
X129169780Y-79904523D01*
X129259517Y-80034530D01*
X129377760Y-80139283D01*
X129377762Y-80139284D01*
X129517634Y-80212696D01*
X129671014Y-80250500D01*
X129671015Y-80250500D01*
X129828985Y-80250500D01*
X129982365Y-80212696D01*
X129989377Y-80210037D01*
X129990069Y-80211862D01*
X130036166Y-80200500D01*
X130400902Y-80200500D01*
X130467941Y-80220185D01*
X130513696Y-80272989D01*
X130523640Y-80342147D01*
X130494615Y-80405703D01*
X130488583Y-80412181D01*
X129749759Y-81151004D01*
X129688436Y-81184489D01*
X129675966Y-81186543D01*
X129667673Y-81187477D01*
X129656941Y-81188687D01*
X129656940Y-81188687D01*
X129497307Y-81244544D01*
X129497302Y-81244547D01*
X129354115Y-81334518D01*
X129354109Y-81334523D01*
X129234523Y-81454109D01*
X129234518Y-81454115D01*
X129144547Y-81597302D01*
X129144545Y-81597305D01*
X129088685Y-81756943D01*
X129069751Y-81924997D01*
X129069751Y-81925002D01*
X129088685Y-82093056D01*
X129144545Y-82252694D01*
X129144547Y-82252697D01*
X129234518Y-82395884D01*
X129234523Y-82395890D01*
X129351452Y-82512819D01*
X129384937Y-82574142D01*
X129379953Y-82643834D01*
X129338081Y-82699767D01*
X129272617Y-82724184D01*
X129263771Y-82724500D01*
X125806669Y-82724500D01*
X125806653Y-82724499D01*
X125799057Y-82724499D01*
X125640943Y-82724499D01*
X125526397Y-82755192D01*
X125488214Y-82765423D01*
X125472381Y-82774564D01*
X125468140Y-82777014D01*
X125468138Y-82777015D01*
X125468135Y-82777016D01*
X125351290Y-82844475D01*
X125351282Y-82844481D01*
X125239478Y-82956286D01*
X124797259Y-83398504D01*
X124735936Y-83431989D01*
X124723466Y-83434043D01*
X124715173Y-83434977D01*
X124704441Y-83436187D01*
X124704440Y-83436187D01*
X124544807Y-83492044D01*
X124544802Y-83492047D01*
X124401615Y-83582018D01*
X124401609Y-83582023D01*
X124282023Y-83701609D01*
X124282018Y-83701615D01*
X124192047Y-83844802D01*
X124192045Y-83844805D01*
X124136185Y-84004443D01*
X124117251Y-84172497D01*
X124117251Y-84172502D01*
X124136185Y-84340556D01*
X124192045Y-84500194D01*
X124192047Y-84500197D01*
X124282018Y-84643384D01*
X124282023Y-84643390D01*
X124401609Y-84762976D01*
X124401615Y-84762981D01*
X124544802Y-84852952D01*
X124544805Y-84852954D01*
X124544809Y-84852955D01*
X124544810Y-84852956D01*
X124617413Y-84878360D01*
X124704443Y-84908814D01*
X124872497Y-84927749D01*
X124872500Y-84927749D01*
X124872503Y-84927749D01*
X125040556Y-84908814D01*
X125040559Y-84908813D01*
X125200190Y-84852956D01*
X125200192Y-84852954D01*
X125200194Y-84852954D01*
X125200197Y-84852952D01*
X125343384Y-84762981D01*
X125343385Y-84762980D01*
X125343390Y-84762977D01*
X125462977Y-84643390D01*
X125463108Y-84643182D01*
X125552952Y-84500197D01*
X125552955Y-84500191D01*
X125552956Y-84500190D01*
X125608813Y-84340559D01*
X125610956Y-84321537D01*
X125638019Y-84257125D01*
X125646475Y-84247758D01*
X125932417Y-83961816D01*
X125993739Y-83928334D01*
X126020097Y-83925500D01*
X130753720Y-83925500D01*
X130820759Y-83945185D01*
X130866514Y-83997989D01*
X130876458Y-84067147D01*
X130847433Y-84130703D01*
X130841401Y-84137181D01*
X129190401Y-85788181D01*
X129129078Y-85821666D01*
X129102720Y-85824500D01*
X127206431Y-85824500D01*
X127148805Y-85810296D01*
X127057365Y-85762304D01*
X127057364Y-85762303D01*
X127057363Y-85762303D01*
X126903986Y-85724500D01*
X126903985Y-85724500D01*
X126746015Y-85724500D01*
X126746014Y-85724500D01*
X126592634Y-85762303D01*
X126452762Y-85835715D01*
X126452760Y-85835717D01*
X126350974Y-85925891D01*
X126334516Y-85940471D01*
X126244781Y-86070475D01*
X126244780Y-86070476D01*
X126188763Y-86218178D01*
X126188762Y-86218183D01*
X126182872Y-86266690D01*
X126155248Y-86330868D01*
X126142005Y-86344555D01*
X126099794Y-86381951D01*
X126099791Y-86381955D01*
X126010057Y-86511958D01*
X126010056Y-86511959D01*
X125954038Y-86659664D01*
X125934998Y-86816482D01*
X125934998Y-86816483D01*
X125954038Y-86973301D01*
X125994088Y-87078903D01*
X126010056Y-87121006D01*
X126099793Y-87251013D01*
X126218036Y-87355766D01*
X126357911Y-87429179D01*
X126357919Y-87429181D01*
X126362741Y-87431010D01*
X126418445Y-87473187D01*
X126434714Y-87502981D01*
X126444780Y-87529524D01*
X126474774Y-87572977D01*
X126534517Y-87659530D01*
X126652760Y-87764283D01*
X126652762Y-87764284D01*
X126792634Y-87837696D01*
X126946014Y-87875500D01*
X126946015Y-87875500D01*
X127103985Y-87875500D01*
X127257365Y-87837696D01*
X127348805Y-87789703D01*
X127406431Y-87775500D01*
X127904921Y-87775500D01*
X127971960Y-87795185D01*
X128017715Y-87847989D01*
X128028017Y-87884553D01*
X128031408Y-87912485D01*
X128033064Y-87926119D01*
X128089081Y-88073824D01*
X128178818Y-88203831D01*
X128297061Y-88308584D01*
X128297063Y-88308585D01*
X128436935Y-88381997D01*
X128590315Y-88419801D01*
X128590316Y-88419801D01*
X128748286Y-88419801D01*
X128901666Y-88381997D01*
X128993106Y-88334004D01*
X129050732Y-88319801D01*
X131524268Y-88319801D01*
X131581893Y-88334004D01*
X131673334Y-88381997D01*
X131750024Y-88400899D01*
X131826713Y-88419801D01*
X131826714Y-88419801D01*
X131984684Y-88419801D01*
X132138064Y-88381997D01*
X132277939Y-88308584D01*
X132396182Y-88203831D01*
X132485919Y-88073824D01*
X132541936Y-87926119D01*
X132560977Y-87769301D01*
X132558634Y-87750000D01*
X132541936Y-87612482D01*
X132509555Y-87527102D01*
X132485919Y-87464778D01*
X132396182Y-87334771D01*
X132277939Y-87230018D01*
X132277937Y-87230017D01*
X132277936Y-87230016D01*
X132138064Y-87156604D01*
X131984685Y-87118801D01*
X131984684Y-87118801D01*
X131826714Y-87118801D01*
X131826713Y-87118801D01*
X131673335Y-87156604D01*
X131627462Y-87180680D01*
X131581893Y-87204597D01*
X131524268Y-87218801D01*
X130464721Y-87218801D01*
X130397682Y-87199116D01*
X130351927Y-87146312D01*
X130341983Y-87077154D01*
X130371008Y-87013598D01*
X130377040Y-87007120D01*
X133422341Y-83961819D01*
X133483664Y-83928334D01*
X133510022Y-83925500D01*
X135549977Y-83925500D01*
X135617016Y-83945185D01*
X135662771Y-83997989D01*
X135672715Y-84067147D01*
X135643690Y-84130703D01*
X135627290Y-84146447D01*
X135564107Y-84196833D01*
X135321833Y-84439107D01*
X135108210Y-84706983D01*
X134925922Y-84997092D01*
X134777264Y-85305783D01*
X134664103Y-85629181D01*
X134664102Y-85629183D01*
X134587861Y-85963217D01*
X134587858Y-85963231D01*
X134549500Y-86303681D01*
X134549500Y-86646318D01*
X134587858Y-86986768D01*
X134587860Y-86986780D01*
X134587861Y-86986783D01*
X134595472Y-87020127D01*
X134664102Y-87320816D01*
X134664103Y-87320818D01*
X134777264Y-87644216D01*
X134925922Y-87952907D01*
X134925924Y-87952910D01*
X135108211Y-88243018D01*
X135321834Y-88510893D01*
X135564107Y-88753166D01*
X135831982Y-88966789D01*
X136122090Y-89149076D01*
X136430785Y-89297736D01*
X136754183Y-89410897D01*
X137088217Y-89487139D01*
X137088226Y-89487140D01*
X137088231Y-89487141D01*
X137315197Y-89512713D01*
X137428682Y-89525499D01*
X137428685Y-89525500D01*
X137428688Y-89525500D01*
X137771315Y-89525500D01*
X137771316Y-89525499D01*
X137945311Y-89505895D01*
X138111768Y-89487141D01*
X138111771Y-89487140D01*
X138111783Y-89487139D01*
X138445817Y-89410897D01*
X138769215Y-89297736D01*
X139077910Y-89149076D01*
X139368018Y-88966789D01*
X139635893Y-88753166D01*
X139878166Y-88510893D01*
X140091789Y-88243018D01*
X140274076Y-87952910D01*
X140422736Y-87644215D01*
X140535897Y-87320817D01*
X140612139Y-86986783D01*
X140613013Y-86979032D01*
X140641368Y-86727361D01*
X140650500Y-86646312D01*
X140650500Y-86303688D01*
X140650499Y-86303683D01*
X140650499Y-86303681D01*
X140649350Y-86293486D01*
X140627519Y-86099723D01*
X140612141Y-85963231D01*
X140612140Y-85963226D01*
X140612139Y-85963217D01*
X140538583Y-85640951D01*
X140542856Y-85571214D01*
X140584155Y-85514856D01*
X140649366Y-85489773D01*
X140717787Y-85503927D01*
X140747155Y-85525679D01*
X144536986Y-89315510D01*
X144644947Y-89377841D01*
X144644948Y-89377842D01*
X144662511Y-89387982D01*
X144662512Y-89387982D01*
X144662515Y-89387984D01*
X144802525Y-89425500D01*
X144802526Y-89425500D01*
X144802528Y-89425500D01*
X152222472Y-89425500D01*
X152222474Y-89425500D01*
X152222475Y-89425500D01*
X152362485Y-89387984D01*
X152380053Y-89377841D01*
X152488015Y-89315510D01*
X153765510Y-88038015D01*
X153837984Y-87912485D01*
X153842624Y-87895167D01*
X153875500Y-87772475D01*
X153875500Y-84327525D01*
X153837984Y-84187515D01*
X153837982Y-84187512D01*
X153837982Y-84187510D01*
X153837981Y-84187509D01*
X153816037Y-84149501D01*
X153816035Y-84149499D01*
X153808923Y-84137181D01*
X153765510Y-84061985D01*
X152553015Y-82849490D01*
X152427485Y-82777016D01*
X152427480Y-82777014D01*
X152384221Y-82765422D01*
X152384221Y-82765423D01*
X152334166Y-82752011D01*
X152287475Y-82739500D01*
X152287474Y-82739500D01*
X151162407Y-82739500D01*
X151095368Y-82719815D01*
X151050025Y-82667906D01*
X151038800Y-82643834D01*
X151024035Y-82612171D01*
X151012857Y-82596207D01*
X150888496Y-82418600D01*
X150840081Y-82370185D01*
X150766567Y-82296671D01*
X150733084Y-82235351D01*
X150738068Y-82165659D01*
X150779939Y-82109725D01*
X150810915Y-82092810D01*
X150942331Y-82043796D01*
X151057546Y-81957546D01*
X151143796Y-81842331D01*
X151194091Y-81707483D01*
X151200500Y-81647873D01*
X151200499Y-79852128D01*
X151194091Y-79792517D01*
X151190018Y-79781598D01*
X151143797Y-79657671D01*
X151143793Y-79657664D01*
X151057547Y-79542455D01*
X151057544Y-79542452D01*
X150942335Y-79456206D01*
X150942328Y-79456202D01*
X150807482Y-79405908D01*
X150807483Y-79405908D01*
X150747883Y-79399501D01*
X150747881Y-79399500D01*
X150747873Y-79399500D01*
X150747864Y-79399500D01*
X148952129Y-79399500D01*
X148952123Y-79399501D01*
X148892516Y-79405908D01*
X148757671Y-79456202D01*
X148757664Y-79456206D01*
X148642455Y-79542452D01*
X148642452Y-79542455D01*
X148556206Y-79657664D01*
X148556202Y-79657671D01*
X148505908Y-79792517D01*
X148502187Y-79827135D01*
X148499501Y-79852123D01*
X148499500Y-79852135D01*
X148499500Y-81647870D01*
X148499501Y-81647876D01*
X148505908Y-81707483D01*
X148556202Y-81842328D01*
X148556206Y-81842335D01*
X148642452Y-81957544D01*
X148642455Y-81957547D01*
X148757664Y-82043793D01*
X148757671Y-82043797D01*
X148889081Y-82092810D01*
X148945015Y-82134681D01*
X148969432Y-82200145D01*
X148954580Y-82268418D01*
X148933430Y-82296673D01*
X148811503Y-82418600D01*
X148675965Y-82612169D01*
X148675964Y-82612171D01*
X148587673Y-82801513D01*
X148576582Y-82825298D01*
X148576098Y-82826335D01*
X148576094Y-82826344D01*
X148514938Y-83054586D01*
X148514936Y-83054596D01*
X148494341Y-83289999D01*
X148494341Y-83290000D01*
X148514936Y-83525403D01*
X148514938Y-83525413D01*
X148576094Y-83753655D01*
X148576096Y-83753659D01*
X148576097Y-83753663D01*
X148644334Y-83899997D01*
X148675965Y-83967830D01*
X148675967Y-83967834D01*
X148811501Y-84161395D01*
X148811506Y-84161402D01*
X148978597Y-84328493D01*
X148978603Y-84328498D01*
X148979793Y-84329331D01*
X149128017Y-84433119D01*
X149164594Y-84458730D01*
X149208219Y-84513307D01*
X149215413Y-84582805D01*
X149183890Y-84645160D01*
X149164595Y-84661880D01*
X148978922Y-84791890D01*
X148978920Y-84791891D01*
X148811891Y-84958920D01*
X148811886Y-84958926D01*
X148676400Y-85152420D01*
X148676399Y-85152422D01*
X148576570Y-85366507D01*
X148576567Y-85366513D01*
X148519364Y-85579999D01*
X148519364Y-85580000D01*
X149416988Y-85580000D01*
X149384075Y-85637007D01*
X149350000Y-85764174D01*
X149350000Y-85895826D01*
X149384075Y-86022993D01*
X149416988Y-86080000D01*
X148519364Y-86080000D01*
X148576567Y-86293486D01*
X148576570Y-86293492D01*
X148676399Y-86507578D01*
X148811894Y-86701082D01*
X148978917Y-86868105D01*
X149172421Y-87003600D01*
X149386507Y-87103429D01*
X149386516Y-87103433D01*
X149600000Y-87160634D01*
X149600000Y-86263012D01*
X149657007Y-86295925D01*
X149784174Y-86330000D01*
X149915826Y-86330000D01*
X150042993Y-86295925D01*
X150100000Y-86263012D01*
X150100000Y-87160633D01*
X150313483Y-87103433D01*
X150313492Y-87103429D01*
X150527578Y-87003600D01*
X150721082Y-86868105D01*
X150888105Y-86701082D01*
X151023600Y-86507578D01*
X151123429Y-86293492D01*
X151123432Y-86293486D01*
X151180636Y-86080000D01*
X150283012Y-86080000D01*
X150315925Y-86022993D01*
X150350000Y-85895826D01*
X150350000Y-85764174D01*
X150315925Y-85637007D01*
X150283012Y-85580000D01*
X151180636Y-85580000D01*
X151180635Y-85579999D01*
X151123432Y-85366513D01*
X151123429Y-85366507D01*
X151023600Y-85152422D01*
X151023599Y-85152420D01*
X150888113Y-84958926D01*
X150888108Y-84958920D01*
X150721078Y-84791890D01*
X150535405Y-84661879D01*
X150491780Y-84607302D01*
X150484588Y-84537804D01*
X150516110Y-84475449D01*
X150535406Y-84458730D01*
X150548815Y-84449341D01*
X150721401Y-84328495D01*
X150888495Y-84161401D01*
X151024035Y-83967830D01*
X151050025Y-83912093D01*
X151096198Y-83859655D01*
X151162407Y-83840500D01*
X151935613Y-83840500D01*
X152002652Y-83860185D01*
X152023294Y-83876819D01*
X152738181Y-84591706D01*
X152771666Y-84653029D01*
X152774500Y-84679387D01*
X152774500Y-87420613D01*
X152754815Y-87487652D01*
X152738181Y-87508294D01*
X151958294Y-88288181D01*
X151896971Y-88321666D01*
X151870613Y-88324500D01*
X145154386Y-88324500D01*
X145087347Y-88304815D01*
X145066705Y-88288181D01*
X142407707Y-85629183D01*
X139713015Y-82934490D01*
X139587485Y-82862016D01*
X139587482Y-82862015D01*
X139557981Y-82854109D01*
X139557981Y-82854110D01*
X139502727Y-82839305D01*
X139447475Y-82824500D01*
X139447474Y-82824500D01*
X134434568Y-82824500D01*
X134367529Y-82804815D01*
X134321774Y-82752011D01*
X134311830Y-82682853D01*
X134336194Y-82625011D01*
X134340509Y-82619386D01*
X134340513Y-82619383D01*
X134412987Y-82493853D01*
X134416959Y-82479029D01*
X134425515Y-82447101D01*
X134434913Y-82412024D01*
X134450503Y-82353843D01*
X134450503Y-82111219D01*
X134470188Y-82044180D01*
X134472437Y-82040802D01*
X134480223Y-82029523D01*
X134536240Y-81881818D01*
X134555281Y-81725000D01*
X134536240Y-81568182D01*
X134507906Y-81493471D01*
X134502539Y-81423808D01*
X134535686Y-81362302D01*
X134596825Y-81328480D01*
X134623848Y-81325500D01*
X144050501Y-81325500D01*
X144117540Y-81345185D01*
X144163295Y-81397989D01*
X144174501Y-81449500D01*
X144174501Y-81622876D01*
X144180908Y-81682483D01*
X144231202Y-81817328D01*
X144231206Y-81817335D01*
X144317452Y-81932544D01*
X144317455Y-81932547D01*
X144432664Y-82018793D01*
X144432671Y-82018797D01*
X144488726Y-82039704D01*
X144564598Y-82068002D01*
X144620531Y-82109873D01*
X144644949Y-82175337D01*
X144630098Y-82243610D01*
X144608947Y-82271865D01*
X144486886Y-82393926D01*
X144351400Y-82587420D01*
X144351399Y-82587422D01*
X144251570Y-82801507D01*
X144251567Y-82801513D01*
X144194364Y-83014999D01*
X144194364Y-83015000D01*
X145091988Y-83015000D01*
X145059075Y-83072007D01*
X145025000Y-83199174D01*
X145025000Y-83330826D01*
X145059075Y-83457993D01*
X145091988Y-83515000D01*
X144194364Y-83515000D01*
X144251567Y-83728486D01*
X144251570Y-83728492D01*
X144351399Y-83942578D01*
X144486894Y-84136082D01*
X144653917Y-84303105D01*
X144839595Y-84433119D01*
X144883219Y-84487696D01*
X144890412Y-84557195D01*
X144858890Y-84619549D01*
X144839595Y-84636269D01*
X144653594Y-84766508D01*
X144486505Y-84933597D01*
X144350965Y-85127169D01*
X144350964Y-85127171D01*
X144251098Y-85341335D01*
X144251094Y-85341344D01*
X144189938Y-85569586D01*
X144189936Y-85569596D01*
X144169341Y-85804999D01*
X144169341Y-85805000D01*
X144189936Y-86040403D01*
X144189938Y-86040413D01*
X144251094Y-86268655D01*
X144251096Y-86268659D01*
X144251097Y-86268663D01*
X144315235Y-86406206D01*
X144350965Y-86482830D01*
X144350967Y-86482834D01*
X144442121Y-86613014D01*
X144486505Y-86676401D01*
X144653599Y-86843495D01*
X144737871Y-86902503D01*
X144847165Y-86979032D01*
X144847167Y-86979033D01*
X144847170Y-86979035D01*
X145061337Y-87078903D01*
X145061343Y-87078904D01*
X145061344Y-87078905D01*
X145116285Y-87093626D01*
X145289592Y-87140063D01*
X145477918Y-87156539D01*
X145524999Y-87160659D01*
X145525000Y-87160659D01*
X145525001Y-87160659D01*
X145571348Y-87156604D01*
X145760408Y-87140063D01*
X145988663Y-87078903D01*
X146202830Y-86979035D01*
X146396401Y-86843495D01*
X146563495Y-86676401D01*
X146699035Y-86482830D01*
X146798903Y-86268663D01*
X146860063Y-86040408D01*
X146880659Y-85805000D01*
X146879187Y-85788181D01*
X146865621Y-85633121D01*
X146860063Y-85569592D01*
X146802001Y-85352898D01*
X146798905Y-85341344D01*
X146798904Y-85341343D01*
X146798903Y-85341337D01*
X146699035Y-85127171D01*
X146683178Y-85104524D01*
X146563494Y-84933597D01*
X146396402Y-84766506D01*
X146396401Y-84766505D01*
X146210405Y-84636269D01*
X146166781Y-84581692D01*
X146159588Y-84512193D01*
X146191110Y-84449839D01*
X146210405Y-84433119D01*
X146396082Y-84303105D01*
X146563105Y-84136082D01*
X146698600Y-83942578D01*
X146798429Y-83728492D01*
X146798432Y-83728486D01*
X146855636Y-83515000D01*
X145958012Y-83515000D01*
X145990925Y-83457993D01*
X146025000Y-83330826D01*
X146025000Y-83199174D01*
X145990925Y-83072007D01*
X145958012Y-83015000D01*
X146855636Y-83015000D01*
X146855635Y-83014999D01*
X146798432Y-82801513D01*
X146798429Y-82801507D01*
X146698600Y-82587422D01*
X146698599Y-82587420D01*
X146563113Y-82393926D01*
X146563108Y-82393920D01*
X146441053Y-82271865D01*
X146407568Y-82210542D01*
X146412552Y-82140850D01*
X146454424Y-82084917D01*
X146485400Y-82068002D01*
X146588549Y-82029531D01*
X146617326Y-82018798D01*
X146617326Y-82018797D01*
X146617331Y-82018796D01*
X146732546Y-81932546D01*
X146818796Y-81817331D01*
X146869091Y-81682483D01*
X146875500Y-81622873D01*
X146875499Y-79827128D01*
X146869091Y-79767517D01*
X146829242Y-79660677D01*
X146818797Y-79632671D01*
X146818793Y-79632664D01*
X146732547Y-79517455D01*
X146732544Y-79517452D01*
X146617335Y-79431206D01*
X146617328Y-79431202D01*
X146482482Y-79380908D01*
X146482483Y-79380908D01*
X146422883Y-79374501D01*
X146422881Y-79374500D01*
X146422873Y-79374500D01*
X146422864Y-79374500D01*
X144627129Y-79374500D01*
X144627123Y-79374501D01*
X144567516Y-79380908D01*
X144432671Y-79431202D01*
X144432664Y-79431206D01*
X144317455Y-79517452D01*
X144317452Y-79517455D01*
X144231206Y-79632664D01*
X144231202Y-79632671D01*
X144180908Y-79767517D01*
X144174501Y-79827116D01*
X144174501Y-79827123D01*
X144174500Y-79827135D01*
X144174500Y-80000500D01*
X144154815Y-80067539D01*
X144102011Y-80113294D01*
X144050500Y-80124500D01*
X142074096Y-80124500D01*
X142007057Y-80104815D01*
X141961302Y-80052011D01*
X141951358Y-79982853D01*
X141980383Y-79919297D01*
X141986415Y-79912819D01*
X143387641Y-78511593D01*
X144967287Y-76931946D01*
X145028608Y-76898463D01*
X145098300Y-76903447D01*
X145154233Y-76945319D01*
X145170908Y-76975657D01*
X145191442Y-77029800D01*
X145199500Y-77073772D01*
X145199500Y-77338330D01*
X145199499Y-77338348D01*
X145199499Y-77504054D01*
X145199498Y-77504054D01*
X145240423Y-77656785D01*
X145269358Y-77706900D01*
X145269359Y-77706904D01*
X145269360Y-77706904D01*
X145319479Y-77793714D01*
X145319481Y-77793717D01*
X145438349Y-77912585D01*
X145438355Y-77912590D01*
X146335482Y-78809717D01*
X146335492Y-78809728D01*
X146339822Y-78814058D01*
X146339823Y-78814059D01*
X146451627Y-78925863D01*
X146527866Y-78969879D01*
X146588558Y-79004920D01*
X146741286Y-79045844D01*
X146741289Y-79045844D01*
X146906996Y-79045844D01*
X146907012Y-79045843D01*
X151543491Y-79045843D01*
X151589587Y-79057205D01*
X151590280Y-79055380D01*
X151597291Y-79058039D01*
X151750671Y-79095843D01*
X151750672Y-79095843D01*
X151908642Y-79095843D01*
X152062022Y-79058039D01*
X152091072Y-79042792D01*
X152159580Y-79029065D01*
X152224634Y-79054556D01*
X152236381Y-79064906D01*
X155086985Y-81915510D01*
X155174278Y-81965908D01*
X155212515Y-81987984D01*
X155352525Y-82025500D01*
X156718569Y-82025500D01*
X156776194Y-82039703D01*
X156867635Y-82087696D01*
X156919580Y-82100499D01*
X157021014Y-82125500D01*
X157021015Y-82125500D01*
X157178985Y-82125500D01*
X157332365Y-82087696D01*
X157369888Y-82068002D01*
X157472240Y-82014283D01*
X157590483Y-81909530D01*
X157680220Y-81779523D01*
X157736237Y-81631818D01*
X157755278Y-81475000D01*
X157754325Y-81467147D01*
X157736237Y-81318181D01*
X157685534Y-81184489D01*
X157680220Y-81170477D01*
X157590483Y-81040470D01*
X157472240Y-80935717D01*
X157472238Y-80935716D01*
X157472237Y-80935715D01*
X157332365Y-80862303D01*
X157178986Y-80824500D01*
X157178985Y-80824500D01*
X157021015Y-80824500D01*
X157021014Y-80824500D01*
X156867636Y-80862303D01*
X156821763Y-80886379D01*
X156776194Y-80910296D01*
X156718569Y-80924500D01*
X155704387Y-80924500D01*
X155637348Y-80904815D01*
X155616706Y-80888181D01*
X150011819Y-75283294D01*
X149978334Y-75221971D01*
X149975500Y-75195613D01*
X149975500Y-72029386D01*
X149995185Y-71962347D01*
X150011815Y-71941709D01*
X150369623Y-71583900D01*
X150427628Y-71551186D01*
X150458959Y-71543464D01*
X150482362Y-71537697D01*
X150482363Y-71537696D01*
X150482365Y-71537696D01*
X150622240Y-71464283D01*
X150740483Y-71359530D01*
X150830220Y-71229523D01*
X150835389Y-71215891D01*
X150877564Y-71160190D01*
X150943161Y-71136131D01*
X151011352Y-71151356D01*
X151053381Y-71189422D01*
X151084517Y-71234530D01*
X151202760Y-71339283D01*
X151202762Y-71339284D01*
X151342634Y-71412696D01*
X151496014Y-71450500D01*
X151496015Y-71450500D01*
X151653985Y-71450500D01*
X151807365Y-71412696D01*
X151873788Y-71377834D01*
X151947240Y-71339283D01*
X152065483Y-71234530D01*
X152155220Y-71104523D01*
X152211237Y-70956818D01*
X152230278Y-70800000D01*
X152220344Y-70718181D01*
X152211237Y-70643181D01*
X152177441Y-70554070D01*
X152155220Y-70495477D01*
X152065483Y-70365470D01*
X151947240Y-70260717D01*
X151947238Y-70260716D01*
X151947237Y-70260715D01*
X151807366Y-70187304D01*
X151752626Y-70173812D01*
X151694620Y-70141096D01*
X151045979Y-69492455D01*
X150388015Y-68834490D01*
X150262485Y-68762016D01*
X150262486Y-68762016D01*
X150147061Y-68731088D01*
X150147061Y-68731087D01*
X150122475Y-68724500D01*
X147654387Y-68724500D01*
X147587348Y-68704815D01*
X147566706Y-68688181D01*
X144063937Y-65185412D01*
X144035676Y-65141702D01*
X144018067Y-65095274D01*
X143980220Y-64995477D01*
X143890483Y-64865470D01*
X143772240Y-64760717D01*
X143772238Y-64760716D01*
X143772237Y-64760715D01*
X143632365Y-64687303D01*
X143478986Y-64649500D01*
X143478985Y-64649500D01*
X143321015Y-64649500D01*
X143321014Y-64649500D01*
X143167634Y-64687303D01*
X143027762Y-64760715D01*
X142909516Y-64865471D01*
X142819781Y-64995475D01*
X142819780Y-64995476D01*
X142763762Y-65143181D01*
X142744722Y-65299999D01*
X142744722Y-65300000D01*
X142763762Y-65456818D01*
X142819780Y-65604523D01*
X142909517Y-65734530D01*
X143027760Y-65839283D01*
X143167635Y-65912696D01*
X143222369Y-65926186D01*
X143280377Y-65958902D01*
X147036985Y-69715510D01*
X147162515Y-69787984D01*
X147302525Y-69825500D01*
X147302526Y-69825500D01*
X147447474Y-69825500D01*
X149770613Y-69825500D01*
X149837652Y-69845185D01*
X149858294Y-69861819D01*
X150095745Y-70099270D01*
X150129230Y-70160593D01*
X150124246Y-70230285D01*
X150082374Y-70286218D01*
X150037742Y-70307347D01*
X150017635Y-70312303D01*
X150017634Y-70312303D01*
X149877762Y-70385715D01*
X149759516Y-70490471D01*
X149669781Y-70620475D01*
X149669780Y-70620476D01*
X149614325Y-70766699D01*
X149586064Y-70810409D01*
X148984491Y-71411983D01*
X148984489Y-71411985D01*
X148959082Y-71455992D01*
X148933675Y-71500000D01*
X148912016Y-71537515D01*
X148874500Y-71677525D01*
X148874500Y-75547475D01*
X148908242Y-75673402D01*
X148909500Y-75678096D01*
X148912016Y-75687487D01*
X148984487Y-75813011D01*
X148984491Y-75813016D01*
X150804637Y-77633162D01*
X150838122Y-77694485D01*
X150833138Y-77764177D01*
X150791266Y-77820110D01*
X150725802Y-77844527D01*
X150716956Y-77844843D01*
X147120440Y-77844843D01*
X147053401Y-77825158D01*
X147032759Y-77808524D01*
X146436819Y-77212584D01*
X146403334Y-77151261D01*
X146400500Y-77124903D01*
X146400500Y-77073772D01*
X146408558Y-77029800D01*
X146436237Y-76956817D01*
X146443323Y-76898463D01*
X146455278Y-76800000D01*
X146453702Y-76787016D01*
X146436237Y-76643181D01*
X146414019Y-76584599D01*
X146380220Y-76495477D01*
X146290483Y-76365470D01*
X146172240Y-76260717D01*
X146172238Y-76260716D01*
X146172237Y-76260715D01*
X146032365Y-76187303D01*
X145878986Y-76149500D01*
X145878985Y-76149500D01*
X145721015Y-76149500D01*
X145567635Y-76187304D01*
X145567634Y-76187304D01*
X145560353Y-76189099D01*
X145559899Y-76187260D01*
X145500078Y-76191858D01*
X145438578Y-76158700D01*
X145409850Y-76114525D01*
X145403242Y-76097102D01*
X145355220Y-75970477D01*
X145265483Y-75840470D01*
X145147240Y-75735717D01*
X145147238Y-75735716D01*
X145147237Y-75735715D01*
X145007365Y-75662303D01*
X144853986Y-75624500D01*
X144853985Y-75624500D01*
X144696015Y-75624500D01*
X144696014Y-75624500D01*
X144604174Y-75647136D01*
X144534372Y-75644067D01*
X144477310Y-75603747D01*
X144451105Y-75538977D01*
X144450500Y-75526739D01*
X144450500Y-74161219D01*
X144470185Y-74094180D01*
X144472434Y-74090802D01*
X144480220Y-74079523D01*
X144536237Y-73931818D01*
X144555278Y-73775000D01*
X144555132Y-73773793D01*
X144536237Y-73618181D01*
X144495299Y-73510238D01*
X144480220Y-73470477D01*
X144390483Y-73340470D01*
X144272240Y-73235717D01*
X144272238Y-73235716D01*
X144272237Y-73235715D01*
X144132365Y-73162303D01*
X143978986Y-73124500D01*
X143978985Y-73124500D01*
X143821015Y-73124500D01*
X143821014Y-73124500D01*
X143667634Y-73162303D01*
X143527762Y-73235715D01*
X143522925Y-73240000D01*
X143427324Y-73324695D01*
X143409516Y-73340471D01*
X143319781Y-73470475D01*
X143319780Y-73470476D01*
X143263762Y-73618181D01*
X143244722Y-73774999D01*
X143244722Y-73775000D01*
X143263762Y-73931818D01*
X143319780Y-74079523D01*
X143327548Y-74090777D01*
X143349433Y-74157130D01*
X143349500Y-74161219D01*
X143349500Y-75466324D01*
X143329815Y-75533363D01*
X143313181Y-75554005D01*
X142710208Y-76156977D01*
X142648885Y-76190462D01*
X142579193Y-76185478D01*
X142523260Y-76143606D01*
X142498843Y-76078142D01*
X142498527Y-76069495D01*
X142479307Y-62941914D01*
X142475768Y-60524682D01*
X142495355Y-60457613D01*
X142548091Y-60411781D01*
X142599768Y-60400500D01*
X147524903Y-60400500D01*
X147591942Y-60420185D01*
X147612584Y-60436819D01*
X150954263Y-63778498D01*
X150982523Y-63822206D01*
X150994779Y-63854521D01*
X150994780Y-63854523D01*
X151084517Y-63984530D01*
X151202760Y-64089283D01*
X151202762Y-64089284D01*
X151342634Y-64162696D01*
X151496014Y-64200500D01*
X151496015Y-64200500D01*
X151653985Y-64200500D01*
X151807365Y-64162696D01*
X151947240Y-64089283D01*
X152065483Y-63984530D01*
X152155220Y-63854523D01*
X152211237Y-63706818D01*
X152230278Y-63550000D01*
X152220344Y-63468181D01*
X152211237Y-63393181D01*
X152183663Y-63320475D01*
X152155220Y-63245477D01*
X152065483Y-63115470D01*
X151947240Y-63010717D01*
X151947238Y-63010716D01*
X151947237Y-63010715D01*
X151947233Y-63010712D01*
X151832859Y-62950684D01*
X151802804Y-62928569D01*
X149086416Y-60212181D01*
X149052931Y-60150858D01*
X149057915Y-60081166D01*
X149099787Y-60025233D01*
X149165251Y-60000816D01*
X149174097Y-60000500D01*
X149320613Y-60000500D01*
X149387652Y-60020185D01*
X149408294Y-60036819D01*
X153111063Y-63739587D01*
X153139323Y-63783296D01*
X153194780Y-63929523D01*
X153284517Y-64059530D01*
X153402760Y-64164283D01*
X153402762Y-64164284D01*
X153542634Y-64237696D01*
X153696014Y-64275500D01*
X153696015Y-64275500D01*
X153853985Y-64275500D01*
X154007365Y-64237696D01*
X154078235Y-64200500D01*
X154147240Y-64164283D01*
X154265483Y-64059530D01*
X154355220Y-63929523D01*
X154411237Y-63781818D01*
X154430278Y-63625000D01*
X154427243Y-63600000D01*
X154411237Y-63468181D01*
X154376562Y-63376751D01*
X154355220Y-63320477D01*
X154265483Y-63190470D01*
X154147240Y-63085717D01*
X154147238Y-63085716D01*
X154147237Y-63085715D01*
X154007366Y-63012304D01*
X153952626Y-62998812D01*
X153894620Y-62966096D01*
X153056501Y-62127977D01*
X153023016Y-62066654D01*
X153028000Y-61996962D01*
X153067075Y-61944763D01*
X153066626Y-61944256D01*
X153069091Y-61942072D01*
X153069872Y-61941029D01*
X153071980Y-61939512D01*
X153072236Y-61939284D01*
X153072240Y-61939283D01*
X153190483Y-61834530D01*
X153280220Y-61704523D01*
X153336237Y-61556818D01*
X153355278Y-61400000D01*
X153336237Y-61243182D01*
X153332850Y-61234252D01*
X153307747Y-61168059D01*
X153280220Y-61095477D01*
X153190483Y-60965470D01*
X153072240Y-60860717D01*
X153072238Y-60860716D01*
X153072237Y-60860715D01*
X152932367Y-60787304D01*
X152877626Y-60773812D01*
X152819621Y-60741096D01*
X149988016Y-57909491D01*
X149988015Y-57909490D01*
X149862485Y-57837016D01*
X149862486Y-57837016D01*
X149827482Y-57827637D01*
X149722475Y-57799500D01*
X149722472Y-57799500D01*
X149174224Y-57799500D01*
X149107185Y-57779815D01*
X149061430Y-57727011D01*
X149058282Y-57719471D01*
X149030220Y-57645477D01*
X148940483Y-57515470D01*
X148822240Y-57410717D01*
X148822238Y-57410716D01*
X148822237Y-57410715D01*
X148682365Y-57337303D01*
X148528986Y-57299500D01*
X148528985Y-57299500D01*
X148371015Y-57299500D01*
X148371014Y-57299500D01*
X148217636Y-57337303D01*
X148171763Y-57361379D01*
X148126194Y-57385296D01*
X148068569Y-57399500D01*
X142136230Y-57399500D01*
X142069191Y-57379815D01*
X142023436Y-57327011D01*
X142013492Y-57257853D01*
X142042517Y-57194297D01*
X142048549Y-57187819D01*
X142707948Y-56528420D01*
X142707952Y-56528416D01*
X142779244Y-56421718D01*
X142790084Y-56405495D01*
X142846658Y-56268913D01*
X142857527Y-56214274D01*
X142875500Y-56123920D01*
X142875500Y-52937230D01*
X142895185Y-52870191D01*
X142911819Y-52849549D01*
X144074549Y-51686819D01*
X144135872Y-51653334D01*
X144162230Y-51650500D01*
X157962770Y-51650500D01*
X158029809Y-51670185D01*
X158050451Y-51686819D01*
X158788181Y-52424549D01*
X158821666Y-52485872D01*
X158824500Y-52512230D01*
X158824500Y-70826082D01*
X158824500Y-71426082D01*
X158824500Y-76676082D01*
X158824500Y-77378917D01*
X158824500Y-77378919D01*
X158824499Y-77378919D01*
X158853340Y-77523906D01*
X158853343Y-77523916D01*
X158909912Y-77660487D01*
X158909919Y-77660500D01*
X158992048Y-77783414D01*
X158992051Y-77783418D01*
X159096580Y-77887947D01*
X159096584Y-77887950D01*
X159219498Y-77970079D01*
X159219511Y-77970086D01*
X159323408Y-78013121D01*
X159356087Y-78026657D01*
X159356091Y-78026657D01*
X159356092Y-78026658D01*
X159501079Y-78055499D01*
X159501082Y-78055499D01*
X159648920Y-78055499D01*
X159746462Y-78036095D01*
X159793913Y-78026657D01*
X159810991Y-78019582D01*
X159880458Y-78012111D01*
X159942938Y-78043384D01*
X159978593Y-78103471D01*
X159982446Y-78134219D01*
X159975115Y-89865577D01*
X159955389Y-89932605D01*
X159902556Y-89978327D01*
X159851115Y-89989500D01*
X110102915Y-89989500D01*
X110035876Y-89969815D01*
X109990121Y-89917011D01*
X109980177Y-89847853D01*
X110000865Y-89795060D01*
X110087089Y-89670143D01*
X110143106Y-89522438D01*
X110162147Y-89365620D01*
X110153905Y-89297736D01*
X110143106Y-89208801D01*
X110117712Y-89141844D01*
X110087089Y-89061097D01*
X109997352Y-88931090D01*
X109879109Y-88826337D01*
X109879107Y-88826336D01*
X109879106Y-88826335D01*
X109739235Y-88752924D01*
X109699182Y-88743052D01*
X109638801Y-88707896D01*
X109626807Y-88693095D01*
X109590483Y-88640470D01*
X109544800Y-88599999D01*
X109472240Y-88535717D01*
X109472238Y-88535716D01*
X109472237Y-88535715D01*
X109332365Y-88462303D01*
X109178986Y-88424500D01*
X109178985Y-88424500D01*
X109021015Y-88424500D01*
X109021014Y-88424500D01*
X108867636Y-88462303D01*
X108821763Y-88486379D01*
X108776194Y-88510296D01*
X108718569Y-88524500D01*
X97429387Y-88524500D01*
X97362348Y-88504815D01*
X97341706Y-88488181D01*
X89913016Y-81059491D01*
X89913015Y-81059490D01*
X89787485Y-80987016D01*
X89787486Y-80987016D01*
X89752482Y-80977637D01*
X89647475Y-80949500D01*
X89647472Y-80949500D01*
X72979387Y-80949500D01*
X72912348Y-80929815D01*
X72891706Y-80913181D01*
X65218524Y-73239999D01*
X69219341Y-73239999D01*
X69219341Y-73240000D01*
X69239936Y-73475403D01*
X69239938Y-73475413D01*
X69301094Y-73703655D01*
X69301096Y-73703659D01*
X69301097Y-73703663D01*
X69381004Y-73875023D01*
X69400965Y-73917830D01*
X69400967Y-73917834D01*
X69492393Y-74048403D01*
X69536505Y-74111401D01*
X69703599Y-74278495D01*
X69754584Y-74314195D01*
X69897165Y-74414032D01*
X69897167Y-74414033D01*
X69897170Y-74414035D01*
X70111337Y-74513903D01*
X70111343Y-74513904D01*
X70111344Y-74513905D01*
X70150255Y-74524331D01*
X70339592Y-74575063D01*
X70527918Y-74591539D01*
X70574999Y-74595659D01*
X70575000Y-74595659D01*
X70575001Y-74595659D01*
X70614234Y-74592226D01*
X70810408Y-74575063D01*
X71038663Y-74513903D01*
X71252830Y-74414035D01*
X71446401Y-74278495D01*
X71613495Y-74111401D01*
X71732537Y-73941392D01*
X71743425Y-73925842D01*
X71798002Y-73882217D01*
X71867500Y-73875023D01*
X71929855Y-73906546D01*
X71946575Y-73925842D01*
X72076500Y-74111395D01*
X72076505Y-74111401D01*
X72243599Y-74278495D01*
X72294584Y-74314195D01*
X72437165Y-74414032D01*
X72437167Y-74414033D01*
X72437170Y-74414035D01*
X72651337Y-74513903D01*
X72651343Y-74513904D01*
X72651344Y-74513905D01*
X72690255Y-74524331D01*
X72879592Y-74575063D01*
X73067918Y-74591539D01*
X73114999Y-74595659D01*
X73115000Y-74595659D01*
X73115001Y-74595659D01*
X73154234Y-74592226D01*
X73350408Y-74575063D01*
X73578663Y-74513903D01*
X73792830Y-74414035D01*
X73986401Y-74278495D01*
X74153495Y-74111401D01*
X74289035Y-73917830D01*
X74388903Y-73703663D01*
X74450063Y-73475408D01*
X74470659Y-73240000D01*
X74450063Y-73004592D01*
X74388903Y-72776337D01*
X74289035Y-72562171D01*
X74283425Y-72554158D01*
X74153494Y-72368597D01*
X73986402Y-72201506D01*
X73986396Y-72201501D01*
X73800842Y-72071575D01*
X73757217Y-72016998D01*
X73750023Y-71947500D01*
X73781546Y-71885145D01*
X73800842Y-71868425D01*
X73896525Y-71801427D01*
X73986401Y-71738495D01*
X74153495Y-71571401D01*
X74289035Y-71377830D01*
X74388903Y-71163663D01*
X74450063Y-70935408D01*
X74470659Y-70700000D01*
X74450063Y-70464592D01*
X74395861Y-70262304D01*
X74388905Y-70236344D01*
X74388904Y-70236343D01*
X74388903Y-70236337D01*
X74289035Y-70022171D01*
X74247116Y-69962303D01*
X74153494Y-69828597D01*
X73986402Y-69661506D01*
X73986395Y-69661501D01*
X73972019Y-69651435D01*
X73942060Y-69630457D01*
X73792834Y-69525967D01*
X73792830Y-69525965D01*
X73770336Y-69515476D01*
X73578663Y-69426097D01*
X73578659Y-69426096D01*
X73578655Y-69426094D01*
X73350413Y-69364938D01*
X73350403Y-69364936D01*
X73115001Y-69344341D01*
X73114999Y-69344341D01*
X72879596Y-69364936D01*
X72879586Y-69364938D01*
X72651344Y-69426094D01*
X72651335Y-69426098D01*
X72437171Y-69525964D01*
X72437169Y-69525965D01*
X72243600Y-69661503D01*
X72121673Y-69783430D01*
X72060350Y-69816914D01*
X71990658Y-69811930D01*
X71934725Y-69770058D01*
X71917810Y-69739081D01*
X71868797Y-69607671D01*
X71868793Y-69607664D01*
X71782547Y-69492455D01*
X71782544Y-69492452D01*
X71667335Y-69406206D01*
X71667328Y-69406202D01*
X71532482Y-69355908D01*
X71532483Y-69355908D01*
X71472883Y-69349501D01*
X71472881Y-69349500D01*
X71472873Y-69349500D01*
X71472864Y-69349500D01*
X69677129Y-69349500D01*
X69677123Y-69349501D01*
X69617516Y-69355908D01*
X69482671Y-69406202D01*
X69482664Y-69406206D01*
X69367455Y-69492452D01*
X69367452Y-69492455D01*
X69281206Y-69607664D01*
X69281202Y-69607671D01*
X69230908Y-69742517D01*
X69224501Y-69802116D01*
X69224500Y-69802135D01*
X69224500Y-71597870D01*
X69224501Y-71597876D01*
X69230908Y-71657483D01*
X69281202Y-71792328D01*
X69281206Y-71792335D01*
X69367452Y-71907544D01*
X69367455Y-71907547D01*
X69482664Y-71993793D01*
X69482671Y-71993797D01*
X69614081Y-72042810D01*
X69670015Y-72084681D01*
X69694432Y-72150145D01*
X69679580Y-72218418D01*
X69658430Y-72246673D01*
X69536503Y-72368600D01*
X69400965Y-72562169D01*
X69400964Y-72562171D01*
X69301098Y-72776335D01*
X69301094Y-72776344D01*
X69239938Y-73004586D01*
X69239936Y-73004596D01*
X69219341Y-73239999D01*
X65218524Y-73239999D01*
X62113016Y-70134491D01*
X62113015Y-70134490D01*
X61987485Y-70062016D01*
X61987480Y-70062014D01*
X61944374Y-70050463D01*
X61944374Y-70050464D01*
X61889337Y-70035717D01*
X61847475Y-70024500D01*
X61847474Y-70024500D01*
X52081431Y-70024500D01*
X52023805Y-70010296D01*
X51932365Y-69962304D01*
X51932364Y-69962303D01*
X51932363Y-69962303D01*
X51778986Y-69924500D01*
X51778985Y-69924500D01*
X51621015Y-69924500D01*
X51621014Y-69924500D01*
X51467634Y-69962303D01*
X51327762Y-70035715D01*
X51209516Y-70140471D01*
X51119781Y-70270475D01*
X51119780Y-70270476D01*
X51091718Y-70344471D01*
X51049540Y-70400174D01*
X50983942Y-70424231D01*
X50975776Y-70424500D01*
X47569483Y-70424500D01*
X47502444Y-70404815D01*
X47487256Y-70393316D01*
X47422240Y-70335717D01*
X47422238Y-70335716D01*
X47422237Y-70335715D01*
X47282365Y-70262303D01*
X47128986Y-70224500D01*
X47128985Y-70224500D01*
X46971015Y-70224500D01*
X46971014Y-70224500D01*
X46817634Y-70262303D01*
X46677762Y-70335715D01*
X46559516Y-70440471D01*
X46469781Y-70570475D01*
X46469780Y-70570476D01*
X46413762Y-70718181D01*
X46394722Y-70874999D01*
X46394722Y-70875000D01*
X46413762Y-71031818D01*
X46461634Y-71158045D01*
X46469780Y-71179523D01*
X46559517Y-71309530D01*
X46677760Y-71414283D01*
X46677762Y-71414284D01*
X46817634Y-71487696D01*
X46971014Y-71525500D01*
X46971015Y-71525500D01*
X51938158Y-71525500D01*
X51938160Y-71525500D01*
X51938161Y-71525500D01*
X52078171Y-71487984D01*
X52083263Y-71485044D01*
X52157625Y-71442112D01*
X52219624Y-71425500D01*
X53165191Y-71425500D01*
X53232230Y-71445185D01*
X53252872Y-71461819D01*
X53886938Y-72095885D01*
X53884874Y-72096740D01*
X53745656Y-72189762D01*
X53627262Y-72308156D01*
X53534240Y-72447374D01*
X53533385Y-72449437D01*
X52885374Y-71801427D01*
X52837528Y-71861425D01*
X52706383Y-72088573D01*
X52610558Y-72332729D01*
X52552193Y-72588449D01*
X52552192Y-72588454D01*
X52532593Y-72849995D01*
X52532593Y-72850004D01*
X52552192Y-73111545D01*
X52552193Y-73111550D01*
X52610558Y-73367270D01*
X52706383Y-73611426D01*
X52706382Y-73611426D01*
X52837527Y-73838573D01*
X52885374Y-73898571D01*
X53533384Y-73250561D01*
X53534240Y-73252626D01*
X53627262Y-73391844D01*
X53745656Y-73510238D01*
X53884874Y-73603260D01*
X53886937Y-73604114D01*
X53238330Y-74252720D01*
X53410046Y-74369793D01*
X53410050Y-74369795D01*
X53646354Y-74483594D01*
X53646358Y-74483595D01*
X53779368Y-74524624D01*
X53837627Y-74563194D01*
X53865785Y-74627139D01*
X53862593Y-74675208D01*
X53831293Y-74792020D01*
X53831293Y-74792023D01*
X53812223Y-75010000D01*
X53827279Y-75182101D01*
X53831293Y-75227975D01*
X53831293Y-75227979D01*
X53887922Y-75439322D01*
X53887924Y-75439326D01*
X53887925Y-75439330D01*
X53931773Y-75533363D01*
X53980397Y-75637638D01*
X53990706Y-75652361D01*
X54105902Y-75816877D01*
X54260623Y-75971598D01*
X54439861Y-76097102D01*
X54638170Y-76189575D01*
X54849523Y-76246207D01*
X55032426Y-76262208D01*
X55067498Y-76265277D01*
X55067500Y-76265277D01*
X55067502Y-76265277D01*
X55095754Y-76262805D01*
X55285477Y-76246207D01*
X55496830Y-76189575D01*
X55695139Y-76097102D01*
X55874377Y-75971598D01*
X56029098Y-75816877D01*
X56154602Y-75637639D01*
X56247075Y-75439330D01*
X56303707Y-75227977D01*
X56322777Y-75010000D01*
X56303707Y-74792023D01*
X56247075Y-74580670D01*
X56154602Y-74382362D01*
X56154600Y-74382359D01*
X56154599Y-74382357D01*
X56029099Y-74203124D01*
X55956224Y-74130249D01*
X55874377Y-74048402D01*
X55783688Y-73984901D01*
X55740067Y-73930327D01*
X55732874Y-73860828D01*
X55747428Y-73821328D01*
X55868618Y-73611423D01*
X55964441Y-73367270D01*
X56022806Y-73111550D01*
X56022807Y-73111545D01*
X56042407Y-72850004D01*
X56042407Y-72849995D01*
X56022807Y-72588454D01*
X56022806Y-72588449D01*
X55964441Y-72332729D01*
X55868616Y-72088573D01*
X55868617Y-72088573D01*
X55737472Y-71861426D01*
X55689624Y-71801427D01*
X55041614Y-72449437D01*
X55040760Y-72447374D01*
X54947738Y-72308156D01*
X54829344Y-72189762D01*
X54690126Y-72096740D01*
X54688062Y-72095885D01*
X55322127Y-71461819D01*
X55383450Y-71428334D01*
X55409808Y-71425500D01*
X61371349Y-71425500D01*
X61438388Y-71445185D01*
X61459030Y-71461819D01*
X72237721Y-82240510D01*
X72237723Y-82240511D01*
X72237727Y-82240514D01*
X72358158Y-82310044D01*
X72358159Y-82310044D01*
X72363251Y-82312984D01*
X72503261Y-82350500D01*
X89171349Y-82350500D01*
X89238388Y-82370185D01*
X89259030Y-82386819D01*
X90112847Y-83240636D01*
X90146332Y-83301959D01*
X90141348Y-83371651D01*
X90099476Y-83427584D01*
X90034012Y-83452001D01*
X90011283Y-83451537D01*
X89771318Y-83424500D01*
X89771312Y-83424500D01*
X89428688Y-83424500D01*
X89428681Y-83424500D01*
X89088231Y-83462858D01*
X89088217Y-83462861D01*
X88754183Y-83539102D01*
X88754181Y-83539103D01*
X88430783Y-83652264D01*
X88122092Y-83800922D01*
X87852219Y-83970495D01*
X87831982Y-83983211D01*
X87800742Y-84008124D01*
X87564107Y-84196833D01*
X87321833Y-84439107D01*
X87108210Y-84706983D01*
X86925922Y-84997092D01*
X86777264Y-85305783D01*
X86664103Y-85629181D01*
X86664102Y-85629183D01*
X86587861Y-85963217D01*
X86587858Y-85963231D01*
X86549500Y-86303681D01*
X86549500Y-86646318D01*
X86587858Y-86986768D01*
X86587860Y-86986780D01*
X86587861Y-86986783D01*
X86595472Y-87020127D01*
X86664102Y-87320816D01*
X86664103Y-87320818D01*
X86777264Y-87644216D01*
X86925922Y-87952907D01*
X86925924Y-87952910D01*
X87108211Y-88243018D01*
X87321834Y-88510893D01*
X87564107Y-88753166D01*
X87831982Y-88966789D01*
X88122090Y-89149076D01*
X88430785Y-89297736D01*
X88754183Y-89410897D01*
X89088217Y-89487139D01*
X89088226Y-89487140D01*
X89088231Y-89487141D01*
X89315197Y-89512713D01*
X89428682Y-89525499D01*
X89428685Y-89525500D01*
X89428688Y-89525500D01*
X89771315Y-89525500D01*
X89771316Y-89525499D01*
X89945311Y-89505895D01*
X90111768Y-89487141D01*
X90111771Y-89487140D01*
X90111783Y-89487139D01*
X90445817Y-89410897D01*
X90769215Y-89297736D01*
X91077910Y-89149076D01*
X91368018Y-88966789D01*
X91635893Y-88753166D01*
X91878166Y-88510893D01*
X92091789Y-88243018D01*
X92274076Y-87952910D01*
X92422736Y-87644215D01*
X92535897Y-87320817D01*
X92612139Y-86986783D01*
X92613013Y-86979032D01*
X92641368Y-86727361D01*
X92650500Y-86646312D01*
X92650500Y-86303688D01*
X92623462Y-86063715D01*
X92635516Y-85994895D01*
X92682865Y-85943515D01*
X92750476Y-85925891D01*
X92816882Y-85947617D01*
X92834363Y-85962152D01*
X96650030Y-89777819D01*
X96683515Y-89839142D01*
X96678531Y-89908834D01*
X96636659Y-89964767D01*
X96571195Y-89989184D01*
X96562349Y-89989500D01*
X55374809Y-89989500D01*
X55307770Y-89969815D01*
X55287128Y-89953181D01*
X54688061Y-89354114D01*
X54690126Y-89353260D01*
X54829344Y-89260238D01*
X54947738Y-89141844D01*
X55040760Y-89002626D01*
X55041614Y-89000561D01*
X55689625Y-89648572D01*
X55737471Y-89588573D01*
X55868616Y-89361426D01*
X55964441Y-89117270D01*
X56022806Y-88861550D01*
X56022807Y-88861545D01*
X56042407Y-88600004D01*
X56042407Y-88599995D01*
X56022807Y-88338454D01*
X56022806Y-88338449D01*
X55964441Y-88082729D01*
X55868618Y-87838576D01*
X55747428Y-87628672D01*
X55730955Y-87560772D01*
X55753807Y-87494745D01*
X55783687Y-87465099D01*
X55874377Y-87401598D01*
X56029098Y-87246877D01*
X56154602Y-87067639D01*
X56215119Y-86937859D01*
X56261290Y-86885422D01*
X56328484Y-86866270D01*
X56395365Y-86886486D01*
X56439880Y-86937859D01*
X56500398Y-87067639D01*
X56625902Y-87246877D01*
X56780623Y-87401598D01*
X56959861Y-87527102D01*
X57158170Y-87619575D01*
X57369523Y-87676207D01*
X57552426Y-87692208D01*
X57587498Y-87695277D01*
X57587500Y-87695277D01*
X57587502Y-87695277D01*
X57615754Y-87692805D01*
X57805477Y-87676207D01*
X58016830Y-87619575D01*
X58215139Y-87527102D01*
X58394377Y-87401598D01*
X58549098Y-87246877D01*
X58674602Y-87067639D01*
X58767075Y-86869330D01*
X58823707Y-86657977D01*
X58842777Y-86440000D01*
X58842559Y-86437512D01*
X58837699Y-86381953D01*
X58823707Y-86222023D01*
X58767075Y-86010670D01*
X58674602Y-85812362D01*
X58674600Y-85812359D01*
X58674599Y-85812357D01*
X58549099Y-85633124D01*
X58485561Y-85569586D01*
X58394377Y-85478402D01*
X58215139Y-85352898D01*
X58063914Y-85282381D01*
X58011477Y-85236210D01*
X57992325Y-85169016D01*
X58012541Y-85102135D01*
X58063914Y-85057618D01*
X58215139Y-84987102D01*
X58394377Y-84861598D01*
X58549098Y-84706877D01*
X58674602Y-84527639D01*
X58767075Y-84329330D01*
X58823707Y-84117977D01*
X58841943Y-83909530D01*
X58842777Y-83900002D01*
X58842777Y-83899997D01*
X58837948Y-83844802D01*
X58823707Y-83682023D01*
X58767075Y-83470670D01*
X58674602Y-83272362D01*
X58674600Y-83272359D01*
X58674599Y-83272357D01*
X58549099Y-83093124D01*
X58496445Y-83040470D01*
X58394377Y-82938402D01*
X58215139Y-82812898D01*
X58063914Y-82742381D01*
X58011477Y-82696210D01*
X57992325Y-82629016D01*
X58012541Y-82562135D01*
X58063914Y-82517618D01*
X58215139Y-82447102D01*
X58394377Y-82321598D01*
X58549098Y-82166877D01*
X58674602Y-81987639D01*
X58767075Y-81789330D01*
X58823707Y-81577977D01*
X58842777Y-81360000D01*
X58839118Y-81318182D01*
X58838576Y-81311985D01*
X58823707Y-81142023D01*
X58782173Y-80987016D01*
X58767077Y-80930677D01*
X58767076Y-80930676D01*
X58767075Y-80930670D01*
X58674602Y-80732362D01*
X58674600Y-80732359D01*
X58674599Y-80732357D01*
X58549099Y-80553124D01*
X58515297Y-80519322D01*
X58394377Y-80398402D01*
X58215139Y-80272898D01*
X58063914Y-80202381D01*
X58011477Y-80156210D01*
X57992325Y-80089016D01*
X58012541Y-80022135D01*
X58063914Y-79977618D01*
X58215139Y-79907102D01*
X58394377Y-79781598D01*
X58549098Y-79626877D01*
X58674602Y-79447639D01*
X58767075Y-79249330D01*
X58823707Y-79037977D01*
X58842777Y-78820000D01*
X58841878Y-78809728D01*
X58839069Y-78777618D01*
X58823707Y-78602023D01*
X58767075Y-78390670D01*
X58674602Y-78192362D01*
X58674600Y-78192359D01*
X58674599Y-78192357D01*
X58549099Y-78013124D01*
X58506054Y-77970079D01*
X58394377Y-77858402D01*
X58215139Y-77732898D01*
X58063914Y-77662381D01*
X58011477Y-77616210D01*
X57992325Y-77549016D01*
X58012541Y-77482135D01*
X58063914Y-77437618D01*
X58215139Y-77367102D01*
X58394377Y-77241598D01*
X58549098Y-77086877D01*
X58674602Y-76907639D01*
X58767075Y-76709330D01*
X58823707Y-76497977D01*
X58842777Y-76280000D01*
X58825140Y-76078409D01*
X58838906Y-76009913D01*
X58887522Y-75959730D01*
X58955550Y-75943796D01*
X59021394Y-75967171D01*
X59036349Y-75979924D01*
X59159032Y-76102607D01*
X59308453Y-76194771D01*
X59463926Y-76246289D01*
X59521371Y-76286061D01*
X59548194Y-76350577D01*
X59535879Y-76419353D01*
X59496045Y-76465570D01*
X59320621Y-76588402D01*
X59165902Y-76743121D01*
X59040400Y-76922357D01*
X59040398Y-76922361D01*
X58947926Y-77120668D01*
X58947922Y-77120677D01*
X58891293Y-77332020D01*
X58891293Y-77332024D01*
X58872223Y-77549997D01*
X58872223Y-77550002D01*
X58880134Y-77640425D01*
X58884863Y-77694485D01*
X58891293Y-77767975D01*
X58891293Y-77767979D01*
X58947922Y-77979322D01*
X58947924Y-77979326D01*
X58947925Y-77979330D01*
X58977794Y-78043384D01*
X59040397Y-78177638D01*
X59050706Y-78192361D01*
X59165902Y-78356877D01*
X59320623Y-78511598D01*
X59449765Y-78602024D01*
X59499861Y-78637102D01*
X59651083Y-78707618D01*
X59703522Y-78753790D01*
X59722674Y-78820984D01*
X59702458Y-78887865D01*
X59651083Y-78932382D01*
X59499861Y-79002898D01*
X59499857Y-79002900D01*
X59320621Y-79128402D01*
X59165902Y-79283121D01*
X59040400Y-79462357D01*
X59040398Y-79462361D01*
X58995660Y-79558302D01*
X58949324Y-79657671D01*
X58947926Y-79660668D01*
X58947922Y-79660677D01*
X58891293Y-79872020D01*
X58891293Y-79872024D01*
X58872223Y-80089997D01*
X58872223Y-80090002D01*
X58891293Y-80307975D01*
X58891293Y-80307979D01*
X58947922Y-80519322D01*
X58947924Y-80519326D01*
X58947925Y-80519330D01*
X58994161Y-80618484D01*
X59040397Y-80717638D01*
X59050706Y-80732361D01*
X59165902Y-80896877D01*
X59320623Y-81051598D01*
X59490397Y-81170475D01*
X59499861Y-81177102D01*
X59651083Y-81247618D01*
X59703522Y-81293790D01*
X59722674Y-81360984D01*
X59702458Y-81427865D01*
X59651083Y-81472382D01*
X59499861Y-81542898D01*
X59499857Y-81542900D01*
X59320621Y-81668402D01*
X59165902Y-81823121D01*
X59040400Y-82002357D01*
X59040398Y-82002361D01*
X58947926Y-82200668D01*
X58947922Y-82200677D01*
X58891293Y-82412020D01*
X58891293Y-82412024D01*
X58872223Y-82629997D01*
X58872223Y-82630002D01*
X58880081Y-82719815D01*
X58889400Y-82826344D01*
X58891293Y-82847975D01*
X58891293Y-82847979D01*
X58947922Y-83059322D01*
X58947924Y-83059326D01*
X58947925Y-83059330D01*
X58994161Y-83158484D01*
X59040397Y-83257638D01*
X59050706Y-83272361D01*
X59165902Y-83436877D01*
X59320623Y-83591598D01*
X59499860Y-83717101D01*
X59499861Y-83717102D01*
X59651083Y-83787618D01*
X59703522Y-83833790D01*
X59722674Y-83900984D01*
X59702458Y-83967865D01*
X59651083Y-84012382D01*
X59499861Y-84082898D01*
X59499857Y-84082900D01*
X59320621Y-84208402D01*
X59165902Y-84363121D01*
X59040400Y-84542357D01*
X59040398Y-84542361D01*
X58947926Y-84740668D01*
X58947922Y-84740677D01*
X58891293Y-84952020D01*
X58891293Y-84952024D01*
X58874194Y-85147475D01*
X58872223Y-85170000D01*
X58887212Y-85341335D01*
X58891293Y-85387975D01*
X58891293Y-85387979D01*
X58947922Y-85599322D01*
X58947924Y-85599326D01*
X58947925Y-85599330D01*
X58965494Y-85637007D01*
X59040397Y-85797638D01*
X59050706Y-85812361D01*
X59165902Y-85976877D01*
X59320623Y-86131598D01*
X59499861Y-86257102D01*
X59698170Y-86349575D01*
X59909523Y-86406207D01*
X60092426Y-86422208D01*
X60127498Y-86425277D01*
X60127500Y-86425277D01*
X60127502Y-86425277D01*
X60155754Y-86422805D01*
X60345477Y-86406207D01*
X60556830Y-86349575D01*
X60755139Y-86257102D01*
X60934377Y-86131598D01*
X61089098Y-85976877D01*
X61214602Y-85797639D01*
X61307075Y-85599330D01*
X61363707Y-85387977D01*
X61382777Y-85170000D01*
X61379820Y-85136206D01*
X61377017Y-85104165D01*
X61363707Y-84952023D01*
X61313998Y-84766506D01*
X61307077Y-84740677D01*
X61307076Y-84740676D01*
X61307075Y-84740670D01*
X61214602Y-84542362D01*
X61214600Y-84542359D01*
X61214599Y-84542357D01*
X61089099Y-84363124D01*
X61029080Y-84303105D01*
X60934377Y-84208402D01*
X60755139Y-84082898D01*
X60603914Y-84012381D01*
X60551477Y-83966210D01*
X60532325Y-83899016D01*
X60552541Y-83832135D01*
X60603914Y-83787618D01*
X60755139Y-83717102D01*
X60934377Y-83591598D01*
X61089098Y-83436877D01*
X61214602Y-83257639D01*
X61307075Y-83059330D01*
X61363707Y-82847977D01*
X61382777Y-82630000D01*
X61363707Y-82412023D01*
X61307075Y-82200670D01*
X61214602Y-82002362D01*
X61214600Y-82002359D01*
X61214599Y-82002357D01*
X61089099Y-81823124D01*
X61022916Y-81756941D01*
X60934377Y-81668402D01*
X60755139Y-81542898D01*
X60603914Y-81472381D01*
X60551477Y-81426210D01*
X60532325Y-81359016D01*
X60552541Y-81292135D01*
X60603914Y-81247618D01*
X60755139Y-81177102D01*
X60934377Y-81051598D01*
X61089098Y-80896877D01*
X61214602Y-80717639D01*
X61217185Y-80712098D01*
X61263356Y-80659658D01*
X61329569Y-80640500D01*
X62860613Y-80640500D01*
X62927652Y-80660185D01*
X62948294Y-80676819D01*
X64113181Y-81841706D01*
X64146666Y-81903029D01*
X64149500Y-81929387D01*
X64149500Y-84413780D01*
X64129815Y-84480819D01*
X64127552Y-84484217D01*
X64119780Y-84495476D01*
X64063762Y-84643181D01*
X64044722Y-84799999D01*
X64044722Y-84800000D01*
X64063762Y-84956818D01*
X64092645Y-85032975D01*
X64119780Y-85104523D01*
X64209517Y-85234530D01*
X64327760Y-85339283D01*
X64327762Y-85339284D01*
X64467634Y-85412696D01*
X64621014Y-85450500D01*
X64621015Y-85450500D01*
X64778985Y-85450500D01*
X64932365Y-85412696D01*
X65072240Y-85339283D01*
X65190483Y-85234530D01*
X65280220Y-85104523D01*
X65336237Y-84956818D01*
X65355278Y-84800000D01*
X65354294Y-84791891D01*
X65336237Y-84643181D01*
X65311392Y-84577671D01*
X65280220Y-84495477D01*
X65272448Y-84484217D01*
X65250567Y-84417862D01*
X65250500Y-84413780D01*
X65250500Y-81577527D01*
X65250500Y-81577525D01*
X65212984Y-81437515D01*
X65212982Y-81437512D01*
X65212982Y-81437510D01*
X65212981Y-81437509D01*
X65192784Y-81402527D01*
X65192782Y-81402525D01*
X65190163Y-81397989D01*
X65140510Y-81311985D01*
X63478015Y-79649490D01*
X63352485Y-79577016D01*
X63282644Y-79558302D01*
X63282643Y-79558301D01*
X63223499Y-79542454D01*
X63212475Y-79539500D01*
X63212474Y-79539500D01*
X61329568Y-79539500D01*
X61262529Y-79519815D01*
X61217185Y-79467903D01*
X61214602Y-79462362D01*
X61130932Y-79342869D01*
X61089099Y-79283124D01*
X61055297Y-79249322D01*
X60934377Y-79128402D01*
X60755139Y-79002898D01*
X60603914Y-78932381D01*
X60551477Y-78886210D01*
X60532325Y-78819016D01*
X60552541Y-78752135D01*
X60603914Y-78707618D01*
X60755139Y-78637102D01*
X60934377Y-78511598D01*
X61089098Y-78356877D01*
X61214602Y-78177639D01*
X61307075Y-77979330D01*
X61363707Y-77767977D01*
X61382777Y-77550000D01*
X61363707Y-77332023D01*
X61307075Y-77120670D01*
X61214602Y-76922362D01*
X61214600Y-76922359D01*
X61214599Y-76922357D01*
X61089099Y-76743124D01*
X61018255Y-76672280D01*
X60934377Y-76588402D01*
X60758952Y-76465568D01*
X60715329Y-76410993D01*
X60708137Y-76341494D01*
X60739659Y-76279140D01*
X60791074Y-76246289D01*
X60946547Y-76194771D01*
X61095968Y-76102607D01*
X61220107Y-75978468D01*
X61312271Y-75829047D01*
X61367492Y-75662399D01*
X61378000Y-75559546D01*
X61378000Y-74460454D01*
X61367492Y-74357601D01*
X61312271Y-74190953D01*
X61220107Y-74041532D01*
X61095968Y-73917393D01*
X60946547Y-73825229D01*
X60779899Y-73770008D01*
X60677053Y-73759500D01*
X60677046Y-73759500D01*
X59577954Y-73759500D01*
X59577946Y-73759500D01*
X59475100Y-73770008D01*
X59308455Y-73825228D01*
X59308450Y-73825230D01*
X59159030Y-73917394D01*
X59034894Y-74041530D01*
X58942730Y-74190950D01*
X58942728Y-74190955D01*
X58887508Y-74357600D01*
X58877000Y-74460446D01*
X58877000Y-75548138D01*
X58857315Y-75615177D01*
X58804511Y-75660932D01*
X58735353Y-75670876D01*
X58671797Y-75641851D01*
X58651425Y-75619261D01*
X58549099Y-75473124D01*
X58474768Y-75398793D01*
X58394377Y-75318402D01*
X58255386Y-75221079D01*
X58215138Y-75192897D01*
X58115984Y-75146661D01*
X58016830Y-75100425D01*
X58016826Y-75100424D01*
X58016822Y-75100422D01*
X57805477Y-75043793D01*
X57587502Y-75024723D01*
X57587498Y-75024723D01*
X57442182Y-75037436D01*
X57369523Y-75043793D01*
X57369520Y-75043793D01*
X57158177Y-75100422D01*
X57158168Y-75100426D01*
X56959861Y-75192898D01*
X56959857Y-75192900D01*
X56780621Y-75318402D01*
X56625902Y-75473121D01*
X56500400Y-75652357D01*
X56500398Y-75652361D01*
X56407926Y-75850668D01*
X56407922Y-75850677D01*
X56351293Y-76062020D01*
X56351293Y-76062024D01*
X56332223Y-76279997D01*
X56332223Y-76280002D01*
X56339700Y-76365470D01*
X56344414Y-76419353D01*
X56351293Y-76497975D01*
X56351293Y-76497979D01*
X56407922Y-76709322D01*
X56407924Y-76709326D01*
X56407925Y-76709330D01*
X56426657Y-76749500D01*
X56500397Y-76907638D01*
X56510706Y-76922361D01*
X56625902Y-77086877D01*
X56780623Y-77241598D01*
X56929643Y-77345943D01*
X56959861Y-77367102D01*
X57111083Y-77437618D01*
X57163522Y-77483790D01*
X57182674Y-77550984D01*
X57162458Y-77617865D01*
X57111083Y-77662382D01*
X56959861Y-77732898D01*
X56959857Y-77732900D01*
X56780621Y-77858402D01*
X56625902Y-78013121D01*
X56500400Y-78192357D01*
X56500398Y-78192361D01*
X56407926Y-78390668D01*
X56407922Y-78390677D01*
X56351293Y-78602020D01*
X56351293Y-78602024D01*
X56333122Y-78809728D01*
X56332223Y-78820000D01*
X56348004Y-79000388D01*
X56351293Y-79037975D01*
X56351293Y-79037979D01*
X56407922Y-79249322D01*
X56407924Y-79249326D01*
X56407925Y-79249330D01*
X56429444Y-79295477D01*
X56500397Y-79447638D01*
X56525498Y-79483486D01*
X56625902Y-79626877D01*
X56780623Y-79781598D01*
X56909765Y-79872024D01*
X56959861Y-79907102D01*
X57111083Y-79977618D01*
X57163522Y-80023790D01*
X57182674Y-80090984D01*
X57162458Y-80157865D01*
X57111083Y-80202382D01*
X56959861Y-80272898D01*
X56959857Y-80272900D01*
X56780621Y-80398402D01*
X56625902Y-80553121D01*
X56500400Y-80732357D01*
X56500398Y-80732361D01*
X56407926Y-80930668D01*
X56407922Y-80930677D01*
X56351293Y-81142020D01*
X56351293Y-81142024D01*
X56332223Y-81359997D01*
X56332223Y-81360002D01*
X56340053Y-81449500D01*
X56351253Y-81577525D01*
X56351293Y-81577975D01*
X56351293Y-81577979D01*
X56407922Y-81789322D01*
X56407924Y-81789326D01*
X56407925Y-81789330D01*
X56432640Y-81842331D01*
X56500397Y-81987638D01*
X56510706Y-82002361D01*
X56625902Y-82166877D01*
X56780623Y-82321598D01*
X56959861Y-82447102D01*
X57060108Y-82493848D01*
X57111083Y-82517618D01*
X57163522Y-82563790D01*
X57182674Y-82630984D01*
X57162458Y-82697865D01*
X57111083Y-82742382D01*
X56959861Y-82812898D01*
X56959857Y-82812900D01*
X56780621Y-82938402D01*
X56625902Y-83093121D01*
X56500400Y-83272357D01*
X56500398Y-83272361D01*
X56407926Y-83470668D01*
X56407922Y-83470677D01*
X56351293Y-83682020D01*
X56351293Y-83682023D01*
X56349579Y-83701610D01*
X56332223Y-83899997D01*
X56332223Y-83900002D01*
X56338160Y-83967865D01*
X56348813Y-84089634D01*
X56351293Y-84117975D01*
X56351293Y-84117979D01*
X56407922Y-84329322D01*
X56407924Y-84329326D01*
X56407925Y-84329330D01*
X56426572Y-84369318D01*
X56500397Y-84527638D01*
X56510706Y-84542361D01*
X56625902Y-84706877D01*
X56780623Y-84861598D01*
X56919613Y-84958920D01*
X56959861Y-84987102D01*
X57111083Y-85057618D01*
X57163522Y-85103790D01*
X57182674Y-85170984D01*
X57162458Y-85237865D01*
X57111083Y-85282382D01*
X56959861Y-85352898D01*
X56959857Y-85352900D01*
X56780621Y-85478402D01*
X56625902Y-85633121D01*
X56500400Y-85812357D01*
X56500398Y-85812362D01*
X56439882Y-85942138D01*
X56393709Y-85994577D01*
X56326516Y-86013729D01*
X56259635Y-85993513D01*
X56215118Y-85942138D01*
X56198993Y-85907558D01*
X56154602Y-85812362D01*
X56154599Y-85812358D01*
X56154599Y-85812357D01*
X56029099Y-85633124D01*
X55965561Y-85569586D01*
X55874377Y-85478402D01*
X55714575Y-85366507D01*
X55695138Y-85352897D01*
X55554856Y-85287483D01*
X55496830Y-85260425D01*
X55496826Y-85260424D01*
X55496822Y-85260422D01*
X55285477Y-85203793D01*
X55067502Y-85184723D01*
X55067498Y-85184723D01*
X54922182Y-85197436D01*
X54849523Y-85203793D01*
X54849520Y-85203793D01*
X54638177Y-85260422D01*
X54638168Y-85260426D01*
X54439861Y-85352898D01*
X54439857Y-85352900D01*
X54260621Y-85478402D01*
X54105902Y-85633121D01*
X53980400Y-85812357D01*
X53980398Y-85812361D01*
X53927458Y-85925891D01*
X53895926Y-85993513D01*
X53887926Y-86010668D01*
X53887922Y-86010677D01*
X53831293Y-86222020D01*
X53831293Y-86222023D01*
X53828224Y-86257102D01*
X53812223Y-86439997D01*
X53812223Y-86440002D01*
X53821682Y-86548121D01*
X53830272Y-86646312D01*
X53831293Y-86657975D01*
X53831293Y-86657979D01*
X53862593Y-86774791D01*
X53860930Y-86844641D01*
X53821767Y-86902503D01*
X53779368Y-86925375D01*
X53646358Y-86966403D01*
X53646354Y-86966405D01*
X53410047Y-87080205D01*
X53410039Y-87080210D01*
X53238330Y-87197277D01*
X53886938Y-87845885D01*
X53884874Y-87846740D01*
X53745656Y-87939762D01*
X53627262Y-88058156D01*
X53534240Y-88197374D01*
X53533385Y-88199437D01*
X52885374Y-87551427D01*
X52837528Y-87611425D01*
X52706383Y-87838573D01*
X52610558Y-88082729D01*
X52552193Y-88338449D01*
X52552192Y-88338454D01*
X52532593Y-88599995D01*
X52532593Y-88600004D01*
X52552192Y-88861545D01*
X52552193Y-88861550D01*
X52610558Y-89117270D01*
X52706383Y-89361426D01*
X52706382Y-89361426D01*
X52837527Y-89588573D01*
X52885374Y-89648571D01*
X53533384Y-89000561D01*
X53534240Y-89002626D01*
X53627262Y-89141844D01*
X53745656Y-89260238D01*
X53884874Y-89353260D01*
X53886938Y-89354114D01*
X53287872Y-89953181D01*
X53226549Y-89986666D01*
X53200191Y-89989500D01*
X40134500Y-89989500D01*
X40067461Y-89969815D01*
X40021706Y-89917011D01*
X40010500Y-89865500D01*
X40010500Y-83688920D01*
X45226999Y-83688920D01*
X45255840Y-83833907D01*
X45255843Y-83833917D01*
X45312414Y-83970493D01*
X45312418Y-83970499D01*
X45320911Y-83983209D01*
X45320913Y-83983211D01*
X45387520Y-84082898D01*
X45394551Y-84093420D01*
X45394552Y-84093421D01*
X45896935Y-84595803D01*
X45930420Y-84657126D01*
X45932782Y-84694290D01*
X45923919Y-84795613D01*
X45922223Y-84815000D01*
X45937279Y-84987101D01*
X45941293Y-85032975D01*
X45941293Y-85032979D01*
X45997922Y-85244322D01*
X45997924Y-85244326D01*
X45997925Y-85244330D01*
X46005431Y-85260426D01*
X46090397Y-85442638D01*
X46090398Y-85442639D01*
X46215902Y-85621877D01*
X46370623Y-85776598D01*
X46540898Y-85895826D01*
X46549861Y-85902102D01*
X46701083Y-85972618D01*
X46753522Y-86018790D01*
X46772674Y-86085984D01*
X46752458Y-86152865D01*
X46701083Y-86197382D01*
X46549861Y-86267898D01*
X46549857Y-86267900D01*
X46370621Y-86393402D01*
X46215902Y-86548121D01*
X46090400Y-86727357D01*
X46090398Y-86727361D01*
X45997926Y-86925668D01*
X45997922Y-86925677D01*
X45941293Y-87137020D01*
X45941293Y-87137023D01*
X45940553Y-87145477D01*
X45923993Y-87334772D01*
X45922223Y-87355000D01*
X45937491Y-87529524D01*
X45941293Y-87572975D01*
X45941293Y-87572979D01*
X45997922Y-87784322D01*
X45997924Y-87784326D01*
X45997925Y-87784330D01*
X46027027Y-87846740D01*
X46090397Y-87982638D01*
X46090398Y-87982639D01*
X46215902Y-88161877D01*
X46370623Y-88316598D01*
X46549861Y-88442102D01*
X46748170Y-88534575D01*
X46748176Y-88534576D01*
X46748177Y-88534577D01*
X46752432Y-88535717D01*
X46959523Y-88591207D01*
X47142426Y-88607208D01*
X47177498Y-88610277D01*
X47177500Y-88610277D01*
X47177502Y-88610277D01*
X47205754Y-88607805D01*
X47395477Y-88591207D01*
X47606830Y-88534575D01*
X47805139Y-88442102D01*
X47984377Y-88316598D01*
X48139098Y-88161877D01*
X48264602Y-87982639D01*
X48357075Y-87784330D01*
X48413707Y-87572977D01*
X48432777Y-87355000D01*
X48429786Y-87320817D01*
X48427369Y-87293181D01*
X48413707Y-87137023D01*
X48357075Y-86925670D01*
X48264602Y-86727362D01*
X48264600Y-86727359D01*
X48264599Y-86727357D01*
X48139099Y-86548124D01*
X48073805Y-86482830D01*
X47984377Y-86393402D01*
X47805139Y-86267898D01*
X47653914Y-86197381D01*
X47601477Y-86151210D01*
X47582325Y-86084016D01*
X47602541Y-86017135D01*
X47653914Y-85972618D01*
X47805139Y-85902102D01*
X47984377Y-85776598D01*
X48139098Y-85621877D01*
X48264602Y-85442639D01*
X48357075Y-85244330D01*
X48413707Y-85032977D01*
X48432777Y-84815000D01*
X48413707Y-84597023D01*
X48357075Y-84385670D01*
X48264602Y-84187362D01*
X48264600Y-84187359D01*
X48264599Y-84187357D01*
X48139099Y-84008124D01*
X48064768Y-83933793D01*
X48030972Y-83899997D01*
X52542223Y-83899997D01*
X52542223Y-83900002D01*
X52548160Y-83967865D01*
X52558813Y-84089634D01*
X52561293Y-84117975D01*
X52561293Y-84117979D01*
X52617922Y-84329322D01*
X52617924Y-84329326D01*
X52617925Y-84329330D01*
X52636572Y-84369318D01*
X52710397Y-84527638D01*
X52720706Y-84542361D01*
X52835902Y-84706877D01*
X52990623Y-84861598D01*
X53169861Y-84987102D01*
X53368170Y-85079575D01*
X53579523Y-85136207D01*
X53762426Y-85152208D01*
X53797498Y-85155277D01*
X53797500Y-85155277D01*
X53797502Y-85155277D01*
X53825754Y-85152805D01*
X54015477Y-85136207D01*
X54226830Y-85079575D01*
X54425139Y-84987102D01*
X54604377Y-84861598D01*
X54759098Y-84706877D01*
X54884602Y-84527639D01*
X54977075Y-84329330D01*
X55033707Y-84117977D01*
X55051943Y-83909530D01*
X55052777Y-83900002D01*
X55052777Y-83899997D01*
X55047948Y-83844802D01*
X55033707Y-83682023D01*
X54977075Y-83470670D01*
X54884602Y-83272362D01*
X54884600Y-83272359D01*
X54884599Y-83272357D01*
X54759099Y-83093124D01*
X54706445Y-83040470D01*
X54604377Y-82938402D01*
X54442848Y-82825298D01*
X54425138Y-82812897D01*
X54325984Y-82766661D01*
X54226830Y-82720425D01*
X54226826Y-82720424D01*
X54226822Y-82720422D01*
X54015477Y-82663793D01*
X53797502Y-82644723D01*
X53797498Y-82644723D01*
X53652182Y-82657436D01*
X53579523Y-82663793D01*
X53579520Y-82663793D01*
X53368177Y-82720422D01*
X53368168Y-82720426D01*
X53169861Y-82812898D01*
X53169857Y-82812900D01*
X52990621Y-82938402D01*
X52835902Y-83093121D01*
X52710400Y-83272357D01*
X52710398Y-83272361D01*
X52617926Y-83470668D01*
X52617922Y-83470677D01*
X52561293Y-83682020D01*
X52561293Y-83682023D01*
X52559579Y-83701610D01*
X52542223Y-83899997D01*
X48030972Y-83899997D01*
X47984377Y-83853402D01*
X47809462Y-83730925D01*
X47805138Y-83727897D01*
X47642941Y-83652264D01*
X47606830Y-83635425D01*
X47606826Y-83635424D01*
X47606822Y-83635422D01*
X47395477Y-83578793D01*
X47177502Y-83559723D01*
X47177497Y-83559723D01*
X47056790Y-83570282D01*
X46988290Y-83556515D01*
X46958303Y-83534435D01*
X46764319Y-83340451D01*
X46730834Y-83279128D01*
X46728000Y-83252770D01*
X46728000Y-77970770D01*
X46747685Y-77903731D01*
X46800489Y-77857976D01*
X46869647Y-77848032D01*
X46884081Y-77850992D01*
X46959523Y-77871207D01*
X47137974Y-77886819D01*
X47177498Y-77890277D01*
X47177500Y-77890277D01*
X47177502Y-77890277D01*
X47205754Y-77887805D01*
X47395477Y-77871207D01*
X47606830Y-77814575D01*
X47805139Y-77722102D01*
X47984377Y-77596598D01*
X48030978Y-77549997D01*
X52542223Y-77549997D01*
X52542223Y-77550002D01*
X52550134Y-77640425D01*
X52554863Y-77694485D01*
X52561293Y-77767975D01*
X52561293Y-77767979D01*
X52617922Y-77979322D01*
X52617924Y-77979326D01*
X52617925Y-77979330D01*
X52647794Y-78043384D01*
X52710397Y-78177638D01*
X52720706Y-78192361D01*
X52835902Y-78356877D01*
X52990623Y-78511598D01*
X53169861Y-78637102D01*
X53368170Y-78729575D01*
X53579523Y-78786207D01*
X53762426Y-78802208D01*
X53797498Y-78805277D01*
X53797500Y-78805277D01*
X53797502Y-78805277D01*
X53825754Y-78802805D01*
X54015477Y-78786207D01*
X54226830Y-78729575D01*
X54425139Y-78637102D01*
X54604377Y-78511598D01*
X54759098Y-78356877D01*
X54884602Y-78177639D01*
X54977075Y-77979330D01*
X55033707Y-77767977D01*
X55052777Y-77550000D01*
X55033707Y-77332023D01*
X54977075Y-77120670D01*
X54884602Y-76922362D01*
X54884600Y-76922359D01*
X54884599Y-76922357D01*
X54759099Y-76743124D01*
X54688255Y-76672280D01*
X54604377Y-76588402D01*
X54425139Y-76462898D01*
X54425140Y-76462898D01*
X54425138Y-76462897D01*
X54313828Y-76410993D01*
X54226830Y-76370425D01*
X54226826Y-76370424D01*
X54226822Y-76370422D01*
X54015477Y-76313793D01*
X53797502Y-76294723D01*
X53797498Y-76294723D01*
X53652182Y-76307436D01*
X53579523Y-76313793D01*
X53579520Y-76313793D01*
X53368177Y-76370422D01*
X53368168Y-76370426D01*
X53169861Y-76462898D01*
X53169857Y-76462900D01*
X52990621Y-76588402D01*
X52835902Y-76743121D01*
X52710400Y-76922357D01*
X52710398Y-76922361D01*
X52617926Y-77120668D01*
X52617922Y-77120677D01*
X52561293Y-77332020D01*
X52561293Y-77332024D01*
X52542223Y-77549997D01*
X48030978Y-77549997D01*
X48139098Y-77441877D01*
X48264602Y-77262639D01*
X48357075Y-77064330D01*
X48413707Y-76852977D01*
X48432777Y-76635000D01*
X48430173Y-76605241D01*
X48428368Y-76584599D01*
X48413707Y-76417023D01*
X48357075Y-76205670D01*
X48264602Y-76007362D01*
X48264600Y-76007359D01*
X48264599Y-76007357D01*
X48139099Y-75828124D01*
X48123986Y-75813011D01*
X47984377Y-75673402D01*
X47805139Y-75547898D01*
X47653914Y-75477381D01*
X47601477Y-75431210D01*
X47582325Y-75364016D01*
X47602541Y-75297135D01*
X47653914Y-75252618D01*
X47805139Y-75182102D01*
X47984377Y-75056598D01*
X48139098Y-74901877D01*
X48264602Y-74722639D01*
X48357075Y-74524330D01*
X48413707Y-74312977D01*
X48432777Y-74095000D01*
X48432705Y-74094180D01*
X48428099Y-74041530D01*
X48413707Y-73877023D01*
X48369498Y-73712032D01*
X48357077Y-73665677D01*
X48357076Y-73665676D01*
X48357075Y-73665670D01*
X48264602Y-73467362D01*
X48264600Y-73467359D01*
X48264599Y-73467357D01*
X48139099Y-73288124D01*
X48086690Y-73235715D01*
X47984377Y-73133402D01*
X47805139Y-73007898D01*
X47805140Y-73007898D01*
X47805138Y-73007897D01*
X47646059Y-72933718D01*
X47606830Y-72915425D01*
X47606826Y-72915424D01*
X47606822Y-72915422D01*
X47395477Y-72858793D01*
X47177502Y-72839723D01*
X47177498Y-72839723D01*
X47060030Y-72850000D01*
X46959523Y-72858793D01*
X46959520Y-72858793D01*
X46748177Y-72915422D01*
X46748168Y-72915426D01*
X46549861Y-73007898D01*
X46549857Y-73007900D01*
X46370621Y-73133402D01*
X46215902Y-73288121D01*
X46090400Y-73467357D01*
X46090398Y-73467361D01*
X46020070Y-73618181D01*
X45999026Y-73663310D01*
X45997926Y-73665668D01*
X45997922Y-73665677D01*
X45941293Y-73877020D01*
X45941293Y-73877024D01*
X45922223Y-74094997D01*
X45922223Y-74095003D01*
X45932782Y-74215708D01*
X45919015Y-74284208D01*
X45896935Y-74314195D01*
X45394548Y-74816583D01*
X45373323Y-74848349D01*
X45352239Y-74879906D01*
X45337556Y-74901881D01*
X45312416Y-74939504D01*
X45312412Y-74939511D01*
X45255843Y-75076082D01*
X45255840Y-75076092D01*
X45227000Y-75221079D01*
X45227000Y-75221082D01*
X45227000Y-83688918D01*
X45227000Y-83688920D01*
X45226999Y-83688920D01*
X40010500Y-83688920D01*
X40010500Y-67500000D01*
X41175261Y-67500000D01*
X42005025Y-67500000D01*
X41969930Y-67535095D01*
X41923852Y-67614905D01*
X41900000Y-67703922D01*
X41900000Y-67796078D01*
X41923852Y-67885095D01*
X41969930Y-67964905D01*
X42005025Y-68000000D01*
X41175261Y-68000000D01*
X41178315Y-68019285D01*
X41178318Y-68019295D01*
X41234250Y-68191441D01*
X41234252Y-68191447D01*
X41316434Y-68352734D01*
X41422823Y-68499169D01*
X41550830Y-68627176D01*
X41697265Y-68733565D01*
X41858552Y-68815747D01*
X41858555Y-68815748D01*
X42030706Y-68871682D01*
X42209494Y-68900000D01*
X42250000Y-68900000D01*
X42250000Y-68100000D01*
X42750000Y-68100000D01*
X42750000Y-68900000D01*
X42790506Y-68900000D01*
X42969293Y-68871682D01*
X43141444Y-68815748D01*
X43141447Y-68815747D01*
X43302734Y-68733565D01*
X43449169Y-68627176D01*
X43577176Y-68499169D01*
X43683565Y-68352734D01*
X43765747Y-68191447D01*
X43765749Y-68191441D01*
X43821681Y-68019295D01*
X43821684Y-68019285D01*
X43824739Y-68000000D01*
X42994975Y-68000000D01*
X43030070Y-67964905D01*
X43076148Y-67885095D01*
X43100000Y-67796078D01*
X43100000Y-67703922D01*
X43076148Y-67614905D01*
X43030070Y-67535095D01*
X42994975Y-67500000D01*
X43824739Y-67500000D01*
X43821684Y-67480714D01*
X43821681Y-67480704D01*
X43765749Y-67308558D01*
X43765747Y-67308552D01*
X43710436Y-67200000D01*
X44360138Y-67200000D01*
X45120382Y-67200000D01*
X45069936Y-67250446D01*
X45027149Y-67324555D01*
X45005000Y-67407213D01*
X45005000Y-67492787D01*
X45027149Y-67575445D01*
X45069936Y-67649554D01*
X45120382Y-67700000D01*
X44360138Y-67700000D01*
X44368430Y-67741690D01*
X44368430Y-67741692D01*
X44443807Y-67923671D01*
X44443814Y-67923684D01*
X44553248Y-68087462D01*
X44553251Y-68087466D01*
X44692533Y-68226748D01*
X44692537Y-68226751D01*
X44856315Y-68336185D01*
X44856328Y-68336192D01*
X45038306Y-68411569D01*
X45038318Y-68411572D01*
X45231504Y-68449999D01*
X45231508Y-68450000D01*
X45280000Y-68450000D01*
X45280000Y-67773067D01*
X45287213Y-67775000D01*
X45772787Y-67775000D01*
X45780000Y-67773067D01*
X45780000Y-68450000D01*
X45828492Y-68450000D01*
X45828495Y-68449999D01*
X46021681Y-68411572D01*
X46021693Y-68411569D01*
X46203671Y-68336192D01*
X46203684Y-68336185D01*
X46367462Y-68226751D01*
X46367466Y-68226748D01*
X46506748Y-68087466D01*
X46506751Y-68087462D01*
X46616185Y-67923684D01*
X46616192Y-67923671D01*
X46691569Y-67741692D01*
X46691569Y-67741690D01*
X46699862Y-67700000D01*
X45939618Y-67700000D01*
X45990064Y-67649554D01*
X46032851Y-67575445D01*
X46055000Y-67492787D01*
X46055000Y-67407213D01*
X46032851Y-67324555D01*
X45990064Y-67250446D01*
X45939618Y-67200000D01*
X46699862Y-67200000D01*
X46691569Y-67158309D01*
X46691569Y-67158307D01*
X46616192Y-66976328D01*
X46616185Y-66976315D01*
X46506751Y-66812537D01*
X46506748Y-66812533D01*
X46367466Y-66673251D01*
X46367462Y-66673248D01*
X46203684Y-66563814D01*
X46203671Y-66563807D01*
X46021693Y-66488430D01*
X46021681Y-66488427D01*
X45828495Y-66450000D01*
X45780000Y-66450000D01*
X45780000Y-67126932D01*
X45772787Y-67125000D01*
X45287213Y-67125000D01*
X45280000Y-67126932D01*
X45280000Y-66450000D01*
X45231504Y-66450000D01*
X45038318Y-66488427D01*
X45038306Y-66488430D01*
X44856328Y-66563807D01*
X44856315Y-66563814D01*
X44692537Y-66673248D01*
X44692533Y-66673251D01*
X44553251Y-66812533D01*
X44553248Y-66812537D01*
X44443814Y-66976315D01*
X44443807Y-66976328D01*
X44368430Y-67158307D01*
X44368430Y-67158309D01*
X44360138Y-67200000D01*
X43710436Y-67200000D01*
X43683565Y-67147265D01*
X43577176Y-67000830D01*
X43449169Y-66872823D01*
X43302734Y-66766434D01*
X43141447Y-66684252D01*
X43141444Y-66684251D01*
X42969293Y-66628317D01*
X42790506Y-66600000D01*
X42750000Y-66600000D01*
X42750000Y-67400000D01*
X42250000Y-67400000D01*
X42250000Y-66600000D01*
X42209494Y-66600000D01*
X42030706Y-66628317D01*
X41858555Y-66684251D01*
X41858552Y-66684252D01*
X41697265Y-66766434D01*
X41550830Y-66872823D01*
X41422823Y-67000830D01*
X41316434Y-67147265D01*
X41234252Y-67308552D01*
X41234250Y-67308558D01*
X41178318Y-67480704D01*
X41178315Y-67480714D01*
X41175261Y-67500000D01*
X40010500Y-67500000D01*
X40010500Y-65299999D01*
X75769722Y-65299999D01*
X75769722Y-65300000D01*
X75788762Y-65456818D01*
X75844780Y-65604523D01*
X75852548Y-65615777D01*
X75874433Y-65682130D01*
X75874500Y-65686219D01*
X75874500Y-70288533D01*
X75888278Y-70339955D01*
X75912014Y-70428537D01*
X75912016Y-70428542D01*
X75984489Y-70554070D01*
X75984491Y-70554073D01*
X77003838Y-71573420D01*
X77032099Y-71617130D01*
X77047403Y-71657483D01*
X77087555Y-71763355D01*
X77177292Y-71893362D01*
X77295535Y-71998115D01*
X77295537Y-71998116D01*
X77435409Y-72071528D01*
X77588789Y-72109332D01*
X77588790Y-72109332D01*
X77746760Y-72109332D01*
X77900140Y-72071528D01*
X77900146Y-72071524D01*
X77904592Y-72069839D01*
X77974255Y-72064467D01*
X77997703Y-72072919D01*
X77997822Y-72072607D01*
X78004833Y-72075266D01*
X78158213Y-72113070D01*
X78158214Y-72113070D01*
X78316184Y-72113070D01*
X78469564Y-72075266D01*
X78474630Y-72072607D01*
X78609439Y-72001853D01*
X78727682Y-71897100D01*
X78817419Y-71767093D01*
X78873436Y-71619388D01*
X78892477Y-71462570D01*
X78891012Y-71450500D01*
X78873436Y-71305751D01*
X78846424Y-71234528D01*
X78817419Y-71158047D01*
X78727682Y-71028040D01*
X78609439Y-70923287D01*
X78609437Y-70923286D01*
X78609436Y-70923285D01*
X78469566Y-70849874D01*
X78414825Y-70836382D01*
X78356820Y-70803666D01*
X77686819Y-70133665D01*
X77653334Y-70072342D01*
X77650500Y-70045984D01*
X77650500Y-65686219D01*
X77670185Y-65619180D01*
X77672434Y-65615802D01*
X77680220Y-65604523D01*
X77736237Y-65456818D01*
X77755278Y-65300000D01*
X77736237Y-65143182D01*
X77680220Y-64995477D01*
X77590483Y-64865470D01*
X77472240Y-64760717D01*
X77472238Y-64760716D01*
X77472237Y-64760715D01*
X77332365Y-64687303D01*
X77178986Y-64649500D01*
X77178985Y-64649500D01*
X77021015Y-64649500D01*
X76867635Y-64687303D01*
X76820125Y-64712239D01*
X76751616Y-64725963D01*
X76704875Y-64712239D01*
X76657364Y-64687303D01*
X76503985Y-64649500D01*
X76346015Y-64649500D01*
X76346014Y-64649500D01*
X76192634Y-64687303D01*
X76052762Y-64760715D01*
X75934516Y-64865471D01*
X75844781Y-64995475D01*
X75844780Y-64995476D01*
X75788762Y-65143181D01*
X75769722Y-65299999D01*
X40010500Y-65299999D01*
X40010500Y-62050000D01*
X41175261Y-62050000D01*
X42005025Y-62050000D01*
X41969930Y-62085095D01*
X41923852Y-62164905D01*
X41900000Y-62253922D01*
X41900000Y-62346078D01*
X41923852Y-62435095D01*
X41969930Y-62514905D01*
X42005025Y-62550000D01*
X41175261Y-62550000D01*
X41178315Y-62569285D01*
X41178318Y-62569295D01*
X41234250Y-62741441D01*
X41234252Y-62741447D01*
X41316434Y-62902734D01*
X41422823Y-63049169D01*
X41550830Y-63177176D01*
X41697265Y-63283565D01*
X41858552Y-63365747D01*
X41858555Y-63365748D01*
X42030706Y-63421682D01*
X42209494Y-63450000D01*
X42250000Y-63450000D01*
X42250000Y-62650000D01*
X42750000Y-62650000D01*
X42750000Y-63450000D01*
X42790506Y-63450000D01*
X42969293Y-63421682D01*
X43141444Y-63365748D01*
X43141447Y-63365747D01*
X43302734Y-63283565D01*
X43449169Y-63177176D01*
X43577176Y-63049169D01*
X43683565Y-62902734D01*
X43765747Y-62741447D01*
X43765749Y-62741441D01*
X43821681Y-62569295D01*
X43821684Y-62569285D01*
X43824739Y-62550000D01*
X42994975Y-62550000D01*
X43030070Y-62514905D01*
X43076148Y-62435095D01*
X43098949Y-62350000D01*
X44360138Y-62350000D01*
X45120382Y-62350000D01*
X45069936Y-62400446D01*
X45027149Y-62474555D01*
X45005000Y-62557213D01*
X45005000Y-62642787D01*
X45027149Y-62725445D01*
X45069936Y-62799554D01*
X45120382Y-62850000D01*
X44360138Y-62850000D01*
X44368430Y-62891690D01*
X44368430Y-62891692D01*
X44443807Y-63073671D01*
X44443814Y-63073684D01*
X44553248Y-63237462D01*
X44553251Y-63237466D01*
X44692533Y-63376748D01*
X44692537Y-63376751D01*
X44856315Y-63486185D01*
X44856328Y-63486192D01*
X45038306Y-63561569D01*
X45038318Y-63561572D01*
X45231504Y-63599999D01*
X45231508Y-63600000D01*
X45280000Y-63600000D01*
X45280000Y-62923067D01*
X45287213Y-62925000D01*
X45772787Y-62925000D01*
X45780000Y-62923067D01*
X45780000Y-63600000D01*
X45828492Y-63600000D01*
X45828495Y-63599999D01*
X46021681Y-63561572D01*
X46021693Y-63561569D01*
X46203671Y-63486192D01*
X46203684Y-63486185D01*
X46367462Y-63376751D01*
X46367466Y-63376748D01*
X46506748Y-63237466D01*
X46506751Y-63237462D01*
X46616185Y-63073684D01*
X46616192Y-63073671D01*
X46691569Y-62891692D01*
X46691569Y-62891690D01*
X46699862Y-62850000D01*
X45939618Y-62850000D01*
X45990064Y-62799554D01*
X46032851Y-62725445D01*
X46055000Y-62642787D01*
X46055000Y-62557213D01*
X46032851Y-62474555D01*
X45990064Y-62400446D01*
X45939618Y-62350000D01*
X46699862Y-62350000D01*
X46691569Y-62308309D01*
X46691569Y-62308307D01*
X46616192Y-62126328D01*
X46616185Y-62126315D01*
X46506751Y-61962537D01*
X46506748Y-61962533D01*
X46367466Y-61823251D01*
X46367462Y-61823248D01*
X46203684Y-61713814D01*
X46203671Y-61713807D01*
X46021693Y-61638430D01*
X46021681Y-61638427D01*
X45828495Y-61600000D01*
X45780000Y-61600000D01*
X45780000Y-62276932D01*
X45772787Y-62275000D01*
X45287213Y-62275000D01*
X45280000Y-62276932D01*
X45280000Y-61600000D01*
X45231504Y-61600000D01*
X45038318Y-61638427D01*
X45038306Y-61638430D01*
X44856328Y-61713807D01*
X44856315Y-61713814D01*
X44692537Y-61823248D01*
X44692533Y-61823251D01*
X44553251Y-61962533D01*
X44553248Y-61962537D01*
X44443814Y-62126315D01*
X44443807Y-62126328D01*
X44368430Y-62308307D01*
X44368430Y-62308309D01*
X44360138Y-62350000D01*
X43098949Y-62350000D01*
X43100000Y-62346078D01*
X43100000Y-62253922D01*
X43076148Y-62164905D01*
X43030070Y-62085095D01*
X42994975Y-62050000D01*
X43824739Y-62050000D01*
X43821684Y-62030714D01*
X43821681Y-62030704D01*
X43765749Y-61858558D01*
X43765747Y-61858552D01*
X43683565Y-61697265D01*
X43577176Y-61550830D01*
X43449169Y-61422823D01*
X43302734Y-61316434D01*
X43141447Y-61234252D01*
X43141444Y-61234251D01*
X42969293Y-61178317D01*
X42790506Y-61150000D01*
X42750000Y-61150000D01*
X42750000Y-61950000D01*
X42250000Y-61950000D01*
X42250000Y-61150000D01*
X42209494Y-61150000D01*
X42030706Y-61178317D01*
X41858555Y-61234251D01*
X41858552Y-61234252D01*
X41697265Y-61316434D01*
X41550830Y-61422823D01*
X41422823Y-61550830D01*
X41316434Y-61697265D01*
X41234252Y-61858552D01*
X41234250Y-61858558D01*
X41178318Y-62030704D01*
X41178315Y-62030714D01*
X41175261Y-62050000D01*
X40010500Y-62050000D01*
X40010500Y-60999997D01*
X82569751Y-60999997D01*
X82569751Y-61000002D01*
X82588685Y-61168056D01*
X82644545Y-61327694D01*
X82644547Y-61327697D01*
X82734518Y-61470884D01*
X82734523Y-61470890D01*
X82854109Y-61590476D01*
X82854115Y-61590481D01*
X82997302Y-61680452D01*
X82997308Y-61680455D01*
X82997310Y-61680456D01*
X83156941Y-61736313D01*
X83175961Y-61738455D01*
X83240373Y-61765520D01*
X83249760Y-61773995D01*
X90504512Y-69028747D01*
X90537719Y-69088821D01*
X90538685Y-69093052D01*
X90594544Y-69252692D01*
X90594547Y-69252697D01*
X90684518Y-69395884D01*
X90684523Y-69395890D01*
X90804109Y-69515476D01*
X90804115Y-69515481D01*
X90947302Y-69605452D01*
X90947305Y-69605454D01*
X90947309Y-69605455D01*
X90947310Y-69605456D01*
X91002335Y-69624710D01*
X91106943Y-69661314D01*
X91274997Y-69680249D01*
X91275000Y-69680249D01*
X91275003Y-69680249D01*
X91443056Y-69661314D01*
X91443059Y-69661313D01*
X91602690Y-69605456D01*
X91602692Y-69605454D01*
X91602694Y-69605454D01*
X91602697Y-69605452D01*
X91745884Y-69515481D01*
X91745885Y-69515480D01*
X91745890Y-69515477D01*
X91865477Y-69395890D01*
X91890599Y-69355909D01*
X91955452Y-69252697D01*
X91955454Y-69252694D01*
X91955454Y-69252692D01*
X91955456Y-69252690D01*
X92011313Y-69093059D01*
X92011313Y-69093058D01*
X92011314Y-69093056D01*
X92030249Y-68925002D01*
X92030249Y-68924997D01*
X92011314Y-68756943D01*
X91980860Y-68669913D01*
X91955456Y-68597310D01*
X91955455Y-68597309D01*
X91955454Y-68597305D01*
X91955452Y-68597302D01*
X91865481Y-68454115D01*
X91865476Y-68454109D01*
X91745890Y-68334523D01*
X91745884Y-68334518D01*
X91602697Y-68244547D01*
X91602694Y-68244545D01*
X91443055Y-68188685D01*
X91395861Y-68183368D01*
X91331447Y-68156301D01*
X91322064Y-68147829D01*
X84098995Y-60924760D01*
X84065510Y-60863437D01*
X84063457Y-60850973D01*
X84061313Y-60831941D01*
X84005456Y-60672310D01*
X84005453Y-60672305D01*
X84005452Y-60672302D01*
X83915481Y-60529115D01*
X83915476Y-60529109D01*
X83795890Y-60409523D01*
X83795884Y-60409518D01*
X83652697Y-60319547D01*
X83652694Y-60319545D01*
X83493056Y-60263685D01*
X83325003Y-60244751D01*
X83324997Y-60244751D01*
X83156943Y-60263685D01*
X82997305Y-60319545D01*
X82997302Y-60319547D01*
X82854115Y-60409518D01*
X82854109Y-60409523D01*
X82734523Y-60529109D01*
X82734518Y-60529115D01*
X82644547Y-60672302D01*
X82644545Y-60672305D01*
X82588685Y-60831943D01*
X82569751Y-60999997D01*
X40010500Y-60999997D01*
X40010500Y-59165000D01*
X41530138Y-59165000D01*
X42333012Y-59165000D01*
X42315795Y-59174940D01*
X42259940Y-59230795D01*
X42220444Y-59299204D01*
X42200000Y-59375504D01*
X42200000Y-59454496D01*
X42220444Y-59530796D01*
X42259940Y-59599205D01*
X42315795Y-59655060D01*
X42333012Y-59665000D01*
X41530138Y-59665000D01*
X41538430Y-59706690D01*
X41538430Y-59706692D01*
X41613807Y-59888671D01*
X41613814Y-59888684D01*
X41723248Y-60052462D01*
X41723251Y-60052466D01*
X41862533Y-60191748D01*
X41862537Y-60191751D01*
X42026315Y-60301185D01*
X42026328Y-60301192D01*
X42208306Y-60376569D01*
X42208318Y-60376572D01*
X42401504Y-60414999D01*
X42401508Y-60415000D01*
X42650000Y-60415000D01*
X42650000Y-59715000D01*
X43150000Y-59715000D01*
X43150000Y-60415000D01*
X43398492Y-60415000D01*
X43398495Y-60414999D01*
X43591681Y-60376572D01*
X43591693Y-60376569D01*
X43773671Y-60301192D01*
X43773684Y-60301185D01*
X43937462Y-60191751D01*
X43937466Y-60191748D01*
X44076748Y-60052466D01*
X44076751Y-60052462D01*
X44186185Y-59888684D01*
X44186192Y-59888671D01*
X44261569Y-59706692D01*
X44261569Y-59706690D01*
X44269862Y-59665000D01*
X43466988Y-59665000D01*
X43484205Y-59655060D01*
X43540060Y-59599205D01*
X43579556Y-59530796D01*
X43600000Y-59454496D01*
X43600000Y-59375504D01*
X43579556Y-59299204D01*
X43540060Y-59230795D01*
X43484205Y-59174940D01*
X43466988Y-59165000D01*
X44269862Y-59165000D01*
X45560138Y-59165000D01*
X46363012Y-59165000D01*
X46345795Y-59174940D01*
X46289940Y-59230795D01*
X46250444Y-59299204D01*
X46230000Y-59375504D01*
X46230000Y-59454496D01*
X46250444Y-59530796D01*
X46289940Y-59599205D01*
X46345795Y-59655060D01*
X46363012Y-59665000D01*
X45560138Y-59665000D01*
X45568430Y-59706690D01*
X45568430Y-59706692D01*
X45643807Y-59888671D01*
X45643814Y-59888684D01*
X45753248Y-60052462D01*
X45753251Y-60052466D01*
X45892533Y-60191748D01*
X45892537Y-60191751D01*
X46056315Y-60301185D01*
X46056328Y-60301192D01*
X46238306Y-60376569D01*
X46238318Y-60376572D01*
X46431504Y-60414999D01*
X46431508Y-60415000D01*
X46830000Y-60415000D01*
X46830000Y-59715000D01*
X47330000Y-59715000D01*
X47330000Y-60415000D01*
X47728492Y-60415000D01*
X47728495Y-60414999D01*
X47921681Y-60376572D01*
X47921693Y-60376569D01*
X48103671Y-60301192D01*
X48103684Y-60301185D01*
X48267462Y-60191751D01*
X48267466Y-60191748D01*
X48406748Y-60052466D01*
X48406751Y-60052462D01*
X48516185Y-59888684D01*
X48516192Y-59888671D01*
X48591569Y-59706692D01*
X48591569Y-59706690D01*
X48599862Y-59665000D01*
X47796988Y-59665000D01*
X47814205Y-59655060D01*
X47870060Y-59599205D01*
X47909556Y-59530796D01*
X47930000Y-59454496D01*
X47930000Y-59375504D01*
X47909556Y-59299204D01*
X47870060Y-59230795D01*
X47814205Y-59174940D01*
X47796988Y-59165000D01*
X48599862Y-59165000D01*
X48591569Y-59123309D01*
X48591569Y-59123307D01*
X48516192Y-58941328D01*
X48516185Y-58941315D01*
X48406751Y-58777537D01*
X48406748Y-58777533D01*
X48267466Y-58638251D01*
X48267462Y-58638248D01*
X48103684Y-58528814D01*
X48103671Y-58528807D01*
X47921693Y-58453430D01*
X47921681Y-58453427D01*
X47728495Y-58415000D01*
X47330000Y-58415000D01*
X47330000Y-59115000D01*
X46830000Y-59115000D01*
X46830000Y-58415000D01*
X46431504Y-58415000D01*
X46238318Y-58453427D01*
X46238306Y-58453430D01*
X46056328Y-58528807D01*
X46056315Y-58528814D01*
X45892537Y-58638248D01*
X45892533Y-58638251D01*
X45753251Y-58777533D01*
X45753248Y-58777537D01*
X45643814Y-58941315D01*
X45643807Y-58941328D01*
X45568430Y-59123307D01*
X45568430Y-59123309D01*
X45560138Y-59165000D01*
X44269862Y-59165000D01*
X44261569Y-59123309D01*
X44261569Y-59123307D01*
X44186192Y-58941328D01*
X44186185Y-58941315D01*
X44076751Y-58777537D01*
X44076748Y-58777533D01*
X43937466Y-58638251D01*
X43937462Y-58638248D01*
X43773684Y-58528814D01*
X43773671Y-58528807D01*
X43591693Y-58453430D01*
X43591681Y-58453427D01*
X43398495Y-58415000D01*
X43150000Y-58415000D01*
X43150000Y-59115000D01*
X42650000Y-59115000D01*
X42650000Y-58415000D01*
X42401504Y-58415000D01*
X42208318Y-58453427D01*
X42208306Y-58453430D01*
X42026328Y-58528807D01*
X42026315Y-58528814D01*
X41862537Y-58638248D01*
X41862533Y-58638251D01*
X41723251Y-58777533D01*
X41723248Y-58777537D01*
X41613814Y-58941315D01*
X41613807Y-58941328D01*
X41538430Y-59123307D01*
X41538430Y-59123309D01*
X41530138Y-59165000D01*
X40010500Y-59165000D01*
X40010500Y-52137155D01*
X65990000Y-52137155D01*
X65990000Y-52950000D01*
X66910440Y-52950000D01*
X66879755Y-53003147D01*
X66845000Y-53132857D01*
X66845000Y-53267143D01*
X66879755Y-53396853D01*
X66910440Y-53450000D01*
X65990000Y-53450000D01*
X65990000Y-54262844D01*
X65996401Y-54322372D01*
X65996403Y-54322379D01*
X66046645Y-54457086D01*
X66046649Y-54457093D01*
X66132809Y-54572187D01*
X66132812Y-54572190D01*
X66247906Y-54658350D01*
X66247913Y-54658354D01*
X66382620Y-54708596D01*
X66382627Y-54708598D01*
X66442155Y-54714999D01*
X66442172Y-54715000D01*
X67105000Y-54715000D01*
X67105000Y-53644560D01*
X67158147Y-53675245D01*
X67287857Y-53710000D01*
X67422143Y-53710000D01*
X67551853Y-53675245D01*
X67605000Y-53644560D01*
X67605000Y-54715000D01*
X68267828Y-54715000D01*
X68267844Y-54714999D01*
X68327372Y-54708598D01*
X68327379Y-54708596D01*
X68462086Y-54658354D01*
X68462093Y-54658350D01*
X68577187Y-54572190D01*
X68577190Y-54572187D01*
X68663350Y-54457093D01*
X68663355Y-54457084D01*
X68706659Y-54340979D01*
X68748529Y-54285045D01*
X68813994Y-54260627D01*
X68882267Y-54275478D01*
X68910522Y-54296630D01*
X69005437Y-54391545D01*
X69179322Y-54517880D01*
X69273251Y-54565739D01*
X69370829Y-54615458D01*
X69370832Y-54615459D01*
X69561494Y-54677408D01*
X69575245Y-54681876D01*
X69787533Y-54715500D01*
X69787534Y-54715500D01*
X70002466Y-54715500D01*
X70002467Y-54715500D01*
X70214755Y-54681876D01*
X70214758Y-54681875D01*
X70214759Y-54681875D01*
X70419167Y-54615459D01*
X70419170Y-54615458D01*
X70504088Y-54572190D01*
X70610678Y-54517880D01*
X70784563Y-54391545D01*
X70936545Y-54239563D01*
X71062880Y-54065678D01*
X71062879Y-54065678D01*
X71064682Y-54063198D01*
X71120012Y-54020532D01*
X71189625Y-54014553D01*
X71251420Y-54047159D01*
X71265318Y-54063198D01*
X71267120Y-54065678D01*
X71393455Y-54239563D01*
X71545437Y-54391545D01*
X71719322Y-54517880D01*
X71813251Y-54565739D01*
X71910829Y-54615458D01*
X71910832Y-54615459D01*
X72101494Y-54677408D01*
X72115245Y-54681876D01*
X72327533Y-54715500D01*
X72327534Y-54715500D01*
X72542466Y-54715500D01*
X72542467Y-54715500D01*
X72754755Y-54681876D01*
X72754758Y-54681875D01*
X72754759Y-54681875D01*
X72870664Y-54644215D01*
X72918642Y-54628625D01*
X72988483Y-54626631D01*
X73044641Y-54658876D01*
X73275139Y-54889374D01*
X73275149Y-54889385D01*
X73279479Y-54893715D01*
X73279480Y-54893716D01*
X73391284Y-55005520D01*
X73478095Y-55055639D01*
X73478097Y-55055641D01*
X73516151Y-55077611D01*
X73528215Y-55084577D01*
X73680943Y-55125501D01*
X73680946Y-55125501D01*
X73846653Y-55125501D01*
X73846669Y-55125500D01*
X75434217Y-55125500D01*
X75501256Y-55145185D01*
X75521898Y-55161819D01*
X77088181Y-56728102D01*
X77121666Y-56789425D01*
X77124500Y-56815783D01*
X77124500Y-58151227D01*
X77116442Y-58195198D01*
X77088763Y-58268181D01*
X77069722Y-58424999D01*
X77069722Y-58425000D01*
X77088762Y-58581818D01*
X77110165Y-58638251D01*
X77144780Y-58729523D01*
X77234517Y-58859530D01*
X77352760Y-58964283D01*
X77352762Y-58964284D01*
X77492634Y-59037696D01*
X77646014Y-59075500D01*
X77646015Y-59075500D01*
X77803985Y-59075500D01*
X77957365Y-59037696D01*
X77961747Y-59035395D01*
X77968556Y-59031823D01*
X78037064Y-59018096D01*
X78083810Y-59031821D01*
X78142635Y-59062696D01*
X78194584Y-59075500D01*
X78296014Y-59100500D01*
X78296015Y-59100500D01*
X78453985Y-59100500D01*
X78607365Y-59062696D01*
X78654998Y-59037696D01*
X78747240Y-58989283D01*
X78865483Y-58884530D01*
X78955220Y-58754523D01*
X79011237Y-58606818D01*
X79030278Y-58450000D01*
X79011237Y-58293182D01*
X78983558Y-58220198D01*
X78975500Y-58176227D01*
X78975500Y-56520945D01*
X78975500Y-56520943D01*
X78947239Y-56415470D01*
X78934577Y-56368215D01*
X78894904Y-56299500D01*
X78855520Y-56231284D01*
X78743716Y-56119480D01*
X78739385Y-56115149D01*
X78739374Y-56115139D01*
X76349790Y-53725555D01*
X76316305Y-53664232D01*
X76314998Y-53618476D01*
X76340500Y-53457465D01*
X76340500Y-53303681D01*
X86549500Y-53303681D01*
X86549500Y-53646318D01*
X86587858Y-53986768D01*
X86587860Y-53986780D01*
X86587861Y-53986783D01*
X86595564Y-54020532D01*
X86664102Y-54320816D01*
X86664103Y-54320818D01*
X86777264Y-54644216D01*
X86925922Y-54952907D01*
X86925924Y-54952910D01*
X87108211Y-55243018D01*
X87321834Y-55510893D01*
X87564107Y-55753166D01*
X87831982Y-55966789D01*
X88122090Y-56149076D01*
X88430785Y-56297736D01*
X88754183Y-56410897D01*
X89088217Y-56487139D01*
X89088226Y-56487140D01*
X89088231Y-56487141D01*
X89315197Y-56512713D01*
X89428682Y-56525499D01*
X89428685Y-56525500D01*
X89428688Y-56525500D01*
X89771315Y-56525500D01*
X89771316Y-56525499D01*
X89945311Y-56505895D01*
X90111768Y-56487141D01*
X90111771Y-56487140D01*
X90111783Y-56487139D01*
X90445817Y-56410897D01*
X90769215Y-56297736D01*
X91077910Y-56149076D01*
X91368018Y-55966789D01*
X91635893Y-55753166D01*
X91878166Y-55510893D01*
X92091789Y-55243018D01*
X92274076Y-54952910D01*
X92422736Y-54644215D01*
X92535897Y-54320817D01*
X92612139Y-53986783D01*
X92650500Y-53646312D01*
X92650500Y-53303688D01*
X92637713Y-53190197D01*
X92612141Y-52963231D01*
X92612140Y-52963226D01*
X92612139Y-52963217D01*
X92535897Y-52629183D01*
X92422736Y-52305785D01*
X92274076Y-51997090D01*
X92091789Y-51706982D01*
X91878166Y-51439107D01*
X91635893Y-51196834D01*
X91368018Y-50983211D01*
X91077910Y-50800924D01*
X91077907Y-50800922D01*
X90769216Y-50652264D01*
X90445818Y-50539103D01*
X90445816Y-50539102D01*
X90188024Y-50480262D01*
X90111783Y-50462861D01*
X90111780Y-50462860D01*
X90111768Y-50462858D01*
X89771318Y-50424500D01*
X89771312Y-50424500D01*
X89428688Y-50424500D01*
X89428681Y-50424500D01*
X89088231Y-50462858D01*
X89088217Y-50462861D01*
X88754183Y-50539102D01*
X88754181Y-50539103D01*
X88430783Y-50652264D01*
X88122092Y-50800922D01*
X87831983Y-50983210D01*
X87564107Y-51196833D01*
X87321833Y-51439107D01*
X87108210Y-51706983D01*
X86925922Y-51997092D01*
X86777264Y-52305783D01*
X86664103Y-52629181D01*
X86664102Y-52629183D01*
X86587861Y-52963217D01*
X86587858Y-52963231D01*
X86549500Y-53303681D01*
X76340500Y-53303681D01*
X76340500Y-52942534D01*
X76316641Y-52791898D01*
X76306876Y-52730245D01*
X76306875Y-52730241D01*
X76306875Y-52730240D01*
X76240459Y-52525832D01*
X76240458Y-52525829D01*
X76153972Y-52356092D01*
X76142880Y-52334322D01*
X76016545Y-52160437D01*
X75864563Y-52008455D01*
X75690678Y-51882120D01*
X75499170Y-51784541D01*
X75499167Y-51784540D01*
X75294757Y-51718124D01*
X75153229Y-51695708D01*
X75082467Y-51684500D01*
X74867533Y-51684500D01*
X74796770Y-51695708D01*
X74655243Y-51718124D01*
X74655240Y-51718124D01*
X74450832Y-51784540D01*
X74450829Y-51784541D01*
X74259321Y-51882120D01*
X74175657Y-51942906D01*
X74085437Y-52008455D01*
X74085435Y-52008457D01*
X74085434Y-52008457D01*
X73933457Y-52160434D01*
X73933457Y-52160435D01*
X73933455Y-52160437D01*
X73890544Y-52219499D01*
X73805318Y-52336802D01*
X73749988Y-52379467D01*
X73680374Y-52385446D01*
X73618579Y-52352840D01*
X73604682Y-52336802D01*
X73582145Y-52305783D01*
X73476545Y-52160437D01*
X73324563Y-52008455D01*
X73150678Y-51882120D01*
X72959170Y-51784541D01*
X72959167Y-51784540D01*
X72754757Y-51718124D01*
X72613229Y-51695708D01*
X72542467Y-51684500D01*
X72327533Y-51684500D01*
X72256770Y-51695708D01*
X72115243Y-51718124D01*
X72115240Y-51718124D01*
X71910832Y-51784540D01*
X71910829Y-51784541D01*
X71719321Y-51882120D01*
X71635657Y-51942906D01*
X71545437Y-52008455D01*
X71545435Y-52008457D01*
X71545434Y-52008457D01*
X71393457Y-52160434D01*
X71393457Y-52160435D01*
X71393455Y-52160437D01*
X71350544Y-52219499D01*
X71265318Y-52336802D01*
X71209988Y-52379467D01*
X71140374Y-52385446D01*
X71078579Y-52352840D01*
X71064682Y-52336802D01*
X71042145Y-52305783D01*
X70936545Y-52160437D01*
X70784563Y-52008455D01*
X70610678Y-51882120D01*
X70419170Y-51784541D01*
X70419167Y-51784540D01*
X70214757Y-51718124D01*
X70073229Y-51695708D01*
X70002467Y-51684500D01*
X69787533Y-51684500D01*
X69716770Y-51695708D01*
X69575243Y-51718124D01*
X69575240Y-51718124D01*
X69370832Y-51784540D01*
X69370829Y-51784541D01*
X69179321Y-51882120D01*
X69005438Y-52008454D01*
X68910522Y-52103370D01*
X68849198Y-52136854D01*
X68779507Y-52131870D01*
X68723574Y-52089998D01*
X68706659Y-52059021D01*
X68663354Y-51942913D01*
X68663350Y-51942906D01*
X68577190Y-51827812D01*
X68577187Y-51827809D01*
X68462093Y-51741649D01*
X68462086Y-51741645D01*
X68327379Y-51691403D01*
X68327372Y-51691401D01*
X68267844Y-51685000D01*
X67605000Y-51685000D01*
X67605000Y-52755439D01*
X67551853Y-52724755D01*
X67422143Y-52690000D01*
X67287857Y-52690000D01*
X67158147Y-52724755D01*
X67105000Y-52755439D01*
X67105000Y-51685000D01*
X66442155Y-51685000D01*
X66382627Y-51691401D01*
X66382620Y-51691403D01*
X66247913Y-51741645D01*
X66247906Y-51741649D01*
X66132812Y-51827809D01*
X66132809Y-51827812D01*
X66046649Y-51942906D01*
X66046645Y-51942913D01*
X65996403Y-52077620D01*
X65996401Y-52077627D01*
X65990000Y-52137155D01*
X40010500Y-52137155D01*
X40010500Y-50134500D01*
X40030185Y-50067461D01*
X40082989Y-50021706D01*
X40134500Y-50010500D01*
X41576144Y-50010500D01*
X41643183Y-50030185D01*
G37*
%TD.AperFunction*%
%TD*%
M02*
