%TF.GenerationSoftware,KiCad,Pcbnew,8.0.4*%
%TF.CreationDate,2024-11-24T00:57:01+11:00*%
%TF.ProjectId,cm4-bare-minimum,636d342d-6261-4726-952d-6d696e696d75,V0.1*%
%TF.SameCoordinates,Original*%
%TF.FileFunction,Plated,1,2,PTH,Mixed*%
%TF.FilePolarity,Positive*%
%FSLAX46Y46*%
G04 Gerber Fmt 4.6, Leading zero omitted, Abs format (unit mm)*
G04 Created by KiCad (PCBNEW 8.0.4) date 2024-11-24 00:57:01*
%MOMM*%
%LPD*%
G01*
G04 APERTURE LIST*
%TA.AperFunction,ViaDrill*%
%ADD10C,0.200000*%
%TD*%
%TA.AperFunction,ViaDrill*%
%ADD11C,0.300000*%
%TD*%
G04 aperture for slot hole*
%TA.AperFunction,ComponentDrill*%
%ADD12C,0.600000*%
%TD*%
G04 aperture for slot hole*
%TA.AperFunction,ComponentDrill*%
%ADD13C,0.650000*%
%TD*%
G04 aperture for slot hole*
%TA.AperFunction,ComponentDrill*%
%ADD14C,0.700000*%
%TD*%
%TA.AperFunction,ComponentDrill*%
%ADD15C,0.900000*%
%TD*%
%TA.AperFunction,ComponentDrill*%
%ADD16C,1.000000*%
%TD*%
%TA.AperFunction,ComponentDrill*%
%ADD17C,1.020000*%
%TD*%
%TA.AperFunction,ComponentDrill*%
%ADD18C,1.700000*%
%TD*%
G04 APERTURE END LIST*
D10*
X44625000Y-57750000D03*
X44650000Y-52150000D03*
X44725000Y-53375000D03*
X44725000Y-56075000D03*
X44750000Y-54700000D03*
X47050000Y-70875000D03*
X51700000Y-70575000D03*
X54925000Y-53400000D03*
X55200000Y-56800000D03*
X55475000Y-64100000D03*
X56700000Y-53325000D03*
X57050000Y-65850000D03*
X57250000Y-56800000D03*
X58775000Y-53325000D03*
X59025000Y-56775000D03*
X59775000Y-66400000D03*
X60650000Y-53525000D03*
X60750000Y-56775000D03*
X62300000Y-54975000D03*
X62300000Y-56775000D03*
X62675000Y-66400000D03*
X64700000Y-84800000D03*
X66525000Y-66025000D03*
X69050000Y-66225000D03*
X71825000Y-66500000D03*
X74600000Y-66300000D03*
X75650000Y-69700000D03*
X75725000Y-70875000D03*
X76350000Y-71950000D03*
X76425000Y-65300000D03*
X77100000Y-65300000D03*
X77667775Y-71458832D03*
X77725000Y-58425000D03*
X78237199Y-71462570D03*
X78300000Y-66125000D03*
X78375000Y-58450000D03*
X78375000Y-64650000D03*
X78375000Y-72375000D03*
X79425000Y-71175000D03*
X80550000Y-66125000D03*
X80675000Y-70325000D03*
X82200000Y-70150000D03*
X84125000Y-66000000D03*
X84650000Y-70200000D03*
X86750000Y-70225000D03*
X86925000Y-66125000D03*
X89150000Y-70275000D03*
X90250000Y-66075000D03*
X91850000Y-70225000D03*
X92725000Y-64825000D03*
X94175000Y-70325000D03*
X95650000Y-62425000D03*
X96175000Y-67800000D03*
X96975000Y-60825000D03*
X96975000Y-70300000D03*
X98050000Y-65775000D03*
X98125000Y-85225000D03*
X98575000Y-67675000D03*
X98700000Y-88200000D03*
X99200000Y-70200000D03*
X99400000Y-64475000D03*
X99450000Y-58475000D03*
X99575000Y-85325000D03*
X100650000Y-88200000D03*
X100725000Y-63050000D03*
X100875000Y-85350000D03*
X100975000Y-56975000D03*
X101425000Y-67775000D03*
X101500000Y-70250000D03*
X102250000Y-85400000D03*
X102475000Y-61200000D03*
X102800000Y-88200000D03*
X103700000Y-54650000D03*
X104225000Y-59750000D03*
X104275000Y-67975000D03*
X104750000Y-70275000D03*
X105675000Y-58525000D03*
X106075000Y-85400000D03*
X106292703Y-87957460D03*
X106750000Y-68025000D03*
X107125000Y-70175000D03*
X107499999Y-85925279D03*
X107500000Y-56575000D03*
X107500001Y-52005279D03*
X107500001Y-54024721D03*
X107500001Y-87944721D03*
X108695244Y-87937031D03*
X108699999Y-52005279D03*
X108699999Y-85925279D03*
X108700001Y-54024721D03*
X109100000Y-89075000D03*
X109175000Y-68025000D03*
X109300000Y-70200000D03*
X109500000Y-83475000D03*
X109506869Y-89365620D03*
X109525000Y-86925000D03*
X109899999Y-52005279D03*
X109900001Y-54024721D03*
X110299999Y-85925279D03*
X110300000Y-83475000D03*
X110300000Y-87450000D03*
X110699999Y-87944721D03*
X111100001Y-52005279D03*
X111100001Y-54024722D03*
X111400000Y-67975000D03*
X111425000Y-70250000D03*
X111525000Y-86925000D03*
X112299999Y-54024721D03*
X112300001Y-52005279D03*
X112699999Y-87944721D03*
X112925000Y-84500000D03*
X113050000Y-86900000D03*
X113400000Y-70250000D03*
X113499999Y-52005279D03*
X113499999Y-54024722D03*
X113750000Y-84550000D03*
X114450000Y-67875000D03*
X114699999Y-52005279D03*
X114700001Y-87944721D03*
X115400000Y-70325000D03*
X115896757Y-52010570D03*
X116225000Y-68075000D03*
X116550000Y-70850000D03*
X116675000Y-84525000D03*
X116675000Y-89300000D03*
X117099999Y-54024721D03*
X117100001Y-52005279D03*
X117325643Y-87798327D03*
X117550000Y-84500000D03*
X117625000Y-83475000D03*
X117722653Y-87494377D03*
X117875000Y-89425000D03*
X118200000Y-69150000D03*
X118234481Y-87440519D03*
X118299999Y-52005279D03*
X118300001Y-54024721D03*
X118975000Y-87425000D03*
X119125000Y-89300000D03*
X119150000Y-84000000D03*
X119275000Y-73475000D03*
X119499999Y-52005279D03*
X119500001Y-54024721D03*
X119570343Y-87454657D03*
X119825000Y-84175000D03*
X120275000Y-89325000D03*
X120634139Y-87864846D03*
X120699874Y-52025000D03*
X120700000Y-75000000D03*
X120700001Y-54024721D03*
X120925000Y-71725000D03*
X121112500Y-84212500D03*
X121425000Y-76750000D03*
X121475000Y-78200000D03*
X121475000Y-79475000D03*
X121475000Y-81000000D03*
X121475000Y-82125000D03*
X121725000Y-72400000D03*
X121899999Y-52005279D03*
X121900001Y-54024721D03*
X123099999Y-52005278D03*
X123100001Y-54024721D03*
X123325000Y-73875000D03*
X123875000Y-80125000D03*
X123950000Y-75450000D03*
X123950000Y-78600000D03*
X124300001Y-54024721D03*
X124303210Y-52010518D03*
X125499999Y-52005278D03*
X125500001Y-54024722D03*
X125950000Y-84625000D03*
X126590276Y-86816483D03*
X126825000Y-86375000D03*
X127025000Y-87225000D03*
X128669301Y-87769301D03*
X129750000Y-79600000D03*
X131905699Y-87769301D03*
X133400000Y-81725000D03*
X133900003Y-81725000D03*
X139575000Y-56850000D03*
X142750000Y-54900000D03*
X142925000Y-52950000D03*
X143400000Y-65300000D03*
X143900000Y-73775000D03*
X144000000Y-51650000D03*
X144775000Y-76275000D03*
X145800000Y-76800000D03*
X146075000Y-59050000D03*
X146350000Y-51650000D03*
X146925000Y-69975000D03*
X147150000Y-59050000D03*
X148450000Y-57950000D03*
X148925000Y-76575000D03*
X149025000Y-67250000D03*
X149350000Y-51700000D03*
X149875000Y-70150000D03*
X150250000Y-70925000D03*
X150300000Y-67450000D03*
X151575000Y-63550000D03*
X151575000Y-70800000D03*
X151829657Y-78445343D03*
X152175000Y-74625000D03*
X152700000Y-61400000D03*
X153775000Y-63625000D03*
X154075000Y-51675000D03*
X157100000Y-81475000D03*
X157675000Y-51550000D03*
X158850000Y-54375000D03*
X158850000Y-68425000D03*
X158875000Y-57225000D03*
X158875000Y-61500000D03*
X158875000Y-66800000D03*
X158900000Y-59200000D03*
X158925000Y-65250000D03*
X158950000Y-69900000D03*
X159575000Y-70900000D03*
X159575000Y-71500000D03*
X159575000Y-76750000D03*
X159575000Y-77304999D03*
D11*
X46775000Y-66325000D03*
X47400000Y-64950000D03*
X54275000Y-66250000D03*
X83325000Y-61000000D03*
X91275000Y-68925000D03*
X116875000Y-68950000D03*
X118325000Y-73375000D03*
X124872500Y-84172500D03*
X129825000Y-81925000D03*
X131725000Y-83325000D03*
X140725000Y-57450000D03*
D12*
%TO.C,J4*%
X42500000Y-50775000D02*
X43300000Y-50775000D01*
X42500000Y-59415000D02*
X43300000Y-59415000D01*
X46530000Y-50775000D02*
X47630000Y-50775000D01*
X46530000Y-59415000D02*
X47630000Y-59415000D01*
D13*
%TO.C,J2*%
X45730000Y-62600000D02*
X45330000Y-62600000D01*
X45730000Y-67450000D02*
X45330000Y-67450000D01*
D14*
X42750000Y-62300000D02*
X42250000Y-62300000D01*
X42750000Y-67750000D02*
X42250000Y-67750000D01*
D15*
%TO.C,U5*%
X53797500Y-77550000D03*
X53797500Y-83900000D03*
X55067500Y-75010000D03*
X55067500Y-86440000D03*
X57587500Y-76280000D03*
X57587500Y-78820000D03*
X57587500Y-81360000D03*
X57587500Y-83900000D03*
X57587500Y-86440000D03*
X60127500Y-75010000D03*
X60127500Y-77550000D03*
X60127500Y-80090000D03*
X60127500Y-82630000D03*
X60127500Y-85170000D03*
D16*
%TO.C,J7*%
X70575000Y-70700000D03*
X70575000Y-73240000D03*
X73115000Y-70700000D03*
X73115000Y-73240000D03*
%TO.C,J5*%
X145525000Y-80725000D03*
X145525000Y-83265000D03*
X145525000Y-85805000D03*
%TO.C,J6*%
X149850000Y-80750000D03*
X149850000Y-83290000D03*
X149850000Y-85830000D03*
D17*
%TO.C,U5*%
X47177500Y-74095000D03*
X47177500Y-76635000D03*
X47177500Y-84815000D03*
X47177500Y-87355000D03*
%TO.C,J1*%
X67355000Y-53200000D03*
X69895000Y-53200000D03*
X72435000Y-53200000D03*
X74975000Y-53200000D03*
D18*
%TO.C,U5*%
X54287500Y-72850000D03*
X54287500Y-88600000D03*
M02*
