%TF.GenerationSoftware,KiCad,Pcbnew,8.0.4*%
%TF.CreationDate,2024-11-24T00:57:04+11:00*%
%TF.ProjectId,cm4-bare-minimum,636d342d-6261-4726-952d-6d696e696d75,V0.1*%
%TF.SameCoordinates,Original*%
%TF.FileFunction,Drillmap*%
%TF.FilePolarity,Positive*%
%FSLAX45Y45*%
G04 Gerber Fmt 4.5, Leading zero omitted, Abs format (unit mm)*
G04 Created by KiCad (PCBNEW 8.0.4) date 2024-11-24 00:57:04*
%MOMM*%
%LPD*%
G01*
G04 APERTURE LIST*
%ADD10C,0.100000*%
%ADD11C,0.200000*%
%ADD12C,0.102000*%
%ADD13C,0.170000*%
G04 APERTURE END LIST*
D10*
X4000000Y-5000000D02*
X16000000Y-5000000D01*
X16000000Y-9000000D01*
X4000000Y-9000000D01*
X4000000Y-5000000D01*
D11*
D10*
X4452500Y-5765000D02*
X4472500Y-5785000D01*
X4472500Y-5765000D02*
X4452500Y-5785000D01*
X4455000Y-5205000D02*
X4475000Y-5225000D01*
X4475000Y-5205000D02*
X4455000Y-5225000D01*
X4462500Y-5327500D02*
X4482500Y-5347500D01*
X4482500Y-5327500D02*
X4462500Y-5347500D01*
X4462500Y-5597500D02*
X4482500Y-5617500D01*
X4482500Y-5597500D02*
X4462500Y-5617500D01*
X4465000Y-5460000D02*
X4485000Y-5480000D01*
X4485000Y-5460000D02*
X4465000Y-5480000D01*
X4695000Y-7077500D02*
X4715000Y-7097500D01*
X4715000Y-7077500D02*
X4695000Y-7097500D01*
X5160000Y-7047500D02*
X5180000Y-7067500D01*
X5180000Y-7047500D02*
X5160000Y-7067500D01*
X5482500Y-5330000D02*
X5502500Y-5350000D01*
X5502500Y-5330000D02*
X5482500Y-5350000D01*
X5510000Y-5670000D02*
X5530000Y-5690000D01*
X5530000Y-5670000D02*
X5510000Y-5690000D01*
X5537500Y-6400000D02*
X5557500Y-6420000D01*
X5557500Y-6400000D02*
X5537500Y-6420000D01*
X5660000Y-5322500D02*
X5680000Y-5342500D01*
X5680000Y-5322500D02*
X5660000Y-5342500D01*
X5695000Y-6575000D02*
X5715000Y-6595000D01*
X5715000Y-6575000D02*
X5695000Y-6595000D01*
X5715000Y-5670000D02*
X5735000Y-5690000D01*
X5735000Y-5670000D02*
X5715000Y-5690000D01*
X5867500Y-5322500D02*
X5887500Y-5342500D01*
X5887500Y-5322500D02*
X5867500Y-5342500D01*
X5892500Y-5667500D02*
X5912500Y-5687500D01*
X5912500Y-5667500D02*
X5892500Y-5687500D01*
X5967500Y-6630000D02*
X5987500Y-6650000D01*
X5987500Y-6630000D02*
X5967500Y-6650000D01*
X6055000Y-5342500D02*
X6075000Y-5362500D01*
X6075000Y-5342500D02*
X6055000Y-5362500D01*
X6065000Y-5667500D02*
X6085000Y-5687500D01*
X6085000Y-5667500D02*
X6065000Y-5687500D01*
X6220000Y-5487500D02*
X6240000Y-5507500D01*
X6240000Y-5487500D02*
X6220000Y-5507500D01*
X6220000Y-5667500D02*
X6240000Y-5687500D01*
X6240000Y-5667500D02*
X6220000Y-5687500D01*
X6257500Y-6630000D02*
X6277500Y-6650000D01*
X6277500Y-6630000D02*
X6257500Y-6650000D01*
X6460000Y-8470000D02*
X6480000Y-8490000D01*
X6480000Y-8470000D02*
X6460000Y-8490000D01*
X6642500Y-6592500D02*
X6662500Y-6612500D01*
X6662500Y-6592500D02*
X6642500Y-6612500D01*
X6895000Y-6612500D02*
X6915000Y-6632500D01*
X6915000Y-6612500D02*
X6895000Y-6632500D01*
X7172500Y-6640000D02*
X7192500Y-6660000D01*
X7192500Y-6640000D02*
X7172500Y-6660000D01*
X7450000Y-6620000D02*
X7470000Y-6640000D01*
X7470000Y-6620000D02*
X7450000Y-6640000D01*
X7555000Y-6960000D02*
X7575000Y-6980000D01*
X7575000Y-6960000D02*
X7555000Y-6980000D01*
X7562500Y-7077500D02*
X7582500Y-7097500D01*
X7582500Y-7077500D02*
X7562500Y-7097500D01*
X7625000Y-7185000D02*
X7645000Y-7205000D01*
X7645000Y-7185000D02*
X7625000Y-7205000D01*
X7632500Y-6520000D02*
X7652500Y-6540000D01*
X7652500Y-6520000D02*
X7632500Y-6540000D01*
X7700000Y-6520000D02*
X7720000Y-6540000D01*
X7720000Y-6520000D02*
X7700000Y-6540000D01*
X7756777Y-7135883D02*
X7776777Y-7155883D01*
X7776777Y-7135883D02*
X7756777Y-7155883D01*
X7762500Y-5832500D02*
X7782500Y-5852500D01*
X7782500Y-5832500D02*
X7762500Y-5852500D01*
X7813720Y-7136257D02*
X7833720Y-7156257D01*
X7833720Y-7136257D02*
X7813720Y-7156257D01*
X7820000Y-6602500D02*
X7840000Y-6622500D01*
X7840000Y-6602500D02*
X7820000Y-6622500D01*
X7827500Y-5835000D02*
X7847500Y-5855000D01*
X7847500Y-5835000D02*
X7827500Y-5855000D01*
X7827500Y-6455000D02*
X7847500Y-6475000D01*
X7847500Y-6455000D02*
X7827500Y-6475000D01*
X7827500Y-7227500D02*
X7847500Y-7247500D01*
X7847500Y-7227500D02*
X7827500Y-7247500D01*
X7932500Y-7107500D02*
X7952500Y-7127500D01*
X7952500Y-7107500D02*
X7932500Y-7127500D01*
X8045000Y-6602500D02*
X8065000Y-6622500D01*
X8065000Y-6602500D02*
X8045000Y-6622500D01*
X8057500Y-7022500D02*
X8077500Y-7042500D01*
X8077500Y-7022500D02*
X8057500Y-7042500D01*
X8210000Y-7005000D02*
X8230000Y-7025000D01*
X8230000Y-7005000D02*
X8210000Y-7025000D01*
X8402500Y-6590000D02*
X8422500Y-6610000D01*
X8422500Y-6590000D02*
X8402500Y-6610000D01*
X8455000Y-7010000D02*
X8475000Y-7030000D01*
X8475000Y-7010000D02*
X8455000Y-7030000D01*
X8665000Y-7012500D02*
X8685000Y-7032500D01*
X8685000Y-7012500D02*
X8665000Y-7032500D01*
X8682500Y-6602500D02*
X8702500Y-6622500D01*
X8702500Y-6602500D02*
X8682500Y-6622500D01*
X8905000Y-7017500D02*
X8925000Y-7037500D01*
X8925000Y-7017500D02*
X8905000Y-7037500D01*
X9015000Y-6597500D02*
X9035000Y-6617500D01*
X9035000Y-6597500D02*
X9015000Y-6617500D01*
X9175000Y-7012500D02*
X9195000Y-7032500D01*
X9195000Y-7012500D02*
X9175000Y-7032500D01*
X9262500Y-6472500D02*
X9282500Y-6492500D01*
X9282500Y-6472500D02*
X9262500Y-6492500D01*
X9407500Y-7022500D02*
X9427500Y-7042500D01*
X9427500Y-7022500D02*
X9407500Y-7042500D01*
X9555000Y-6232500D02*
X9575000Y-6252500D01*
X9575000Y-6232500D02*
X9555000Y-6252500D01*
X9607500Y-6770000D02*
X9627500Y-6790000D01*
X9627500Y-6770000D02*
X9607500Y-6790000D01*
X9687500Y-6072500D02*
X9707500Y-6092500D01*
X9707500Y-6072500D02*
X9687500Y-6092500D01*
X9687500Y-7020000D02*
X9707500Y-7040000D01*
X9707500Y-7020000D02*
X9687500Y-7040000D01*
X9795000Y-6567500D02*
X9815000Y-6587500D01*
X9815000Y-6567500D02*
X9795000Y-6587500D01*
X9802500Y-8512500D02*
X9822500Y-8532500D01*
X9822500Y-8512500D02*
X9802500Y-8532500D01*
X9847500Y-6757500D02*
X9867500Y-6777500D01*
X9867500Y-6757500D02*
X9847500Y-6777500D01*
X9860000Y-8810000D02*
X9880000Y-8830000D01*
X9880000Y-8810000D02*
X9860000Y-8830000D01*
X9910000Y-7010000D02*
X9930000Y-7030000D01*
X9930000Y-7010000D02*
X9910000Y-7030000D01*
X9930000Y-6437500D02*
X9950000Y-6457500D01*
X9950000Y-6437500D02*
X9930000Y-6457500D01*
X9935000Y-5837500D02*
X9955000Y-5857500D01*
X9955000Y-5837500D02*
X9935000Y-5857500D01*
X9947500Y-8522500D02*
X9967500Y-8542500D01*
X9967500Y-8522500D02*
X9947500Y-8542500D01*
X10055000Y-8810000D02*
X10075000Y-8830000D01*
X10075000Y-8810000D02*
X10055000Y-8830000D01*
X10062500Y-6295000D02*
X10082500Y-6315000D01*
X10082500Y-6295000D02*
X10062500Y-6315000D01*
X10077500Y-8525000D02*
X10097500Y-8545000D01*
X10097500Y-8525000D02*
X10077500Y-8545000D01*
X10087500Y-5687500D02*
X10107500Y-5707500D01*
X10107500Y-5687500D02*
X10087500Y-5707500D01*
X10132500Y-6767500D02*
X10152500Y-6787500D01*
X10152500Y-6767500D02*
X10132500Y-6787500D01*
X10140000Y-7015000D02*
X10160000Y-7035000D01*
X10160000Y-7015000D02*
X10140000Y-7035000D01*
X10215000Y-8530000D02*
X10235000Y-8550000D01*
X10235000Y-8530000D02*
X10215000Y-8550000D01*
X10237500Y-6110000D02*
X10257500Y-6130000D01*
X10257500Y-6110000D02*
X10237500Y-6130000D01*
X10270000Y-8810000D02*
X10290000Y-8830000D01*
X10290000Y-8810000D02*
X10270000Y-8830000D01*
X10360000Y-5455000D02*
X10380000Y-5475000D01*
X10380000Y-5455000D02*
X10360000Y-5475000D01*
X10412500Y-5965000D02*
X10432500Y-5985000D01*
X10432500Y-5965000D02*
X10412500Y-5985000D01*
X10417500Y-6787500D02*
X10437500Y-6807500D01*
X10437500Y-6787500D02*
X10417500Y-6807500D01*
X10465000Y-7017500D02*
X10485000Y-7037500D01*
X10485000Y-7017500D02*
X10465000Y-7037500D01*
X10557500Y-5842500D02*
X10577500Y-5862500D01*
X10577500Y-5842500D02*
X10557500Y-5862500D01*
X10597500Y-8530000D02*
X10617500Y-8550000D01*
X10617500Y-8530000D02*
X10597500Y-8550000D01*
X10619270Y-8785746D02*
X10639270Y-8805746D01*
X10639270Y-8785746D02*
X10619270Y-8805746D01*
X10665000Y-6792500D02*
X10685000Y-6812500D01*
X10685000Y-6792500D02*
X10665000Y-6812500D01*
X10702500Y-7007500D02*
X10722500Y-7027500D01*
X10722500Y-7007500D02*
X10702500Y-7027500D01*
X10740000Y-8582528D02*
X10760000Y-8602528D01*
X10760000Y-8582528D02*
X10740000Y-8602528D01*
X10740000Y-5647500D02*
X10760000Y-5667500D01*
X10760000Y-5647500D02*
X10740000Y-5667500D01*
X10740000Y-5190528D02*
X10760000Y-5210528D01*
X10760000Y-5190528D02*
X10740000Y-5210528D01*
X10740000Y-5392472D02*
X10760000Y-5412472D01*
X10760000Y-5392472D02*
X10740000Y-5412472D01*
X10740000Y-8784472D02*
X10760000Y-8804472D01*
X10760000Y-8784472D02*
X10740000Y-8804472D01*
X10859524Y-8783703D02*
X10879524Y-8803703D01*
X10879524Y-8783703D02*
X10859524Y-8803703D01*
X10860000Y-5190528D02*
X10880000Y-5210528D01*
X10880000Y-5190528D02*
X10860000Y-5210528D01*
X10860000Y-8582528D02*
X10880000Y-8602528D01*
X10880000Y-8582528D02*
X10860000Y-8602528D01*
X10860000Y-5392472D02*
X10880000Y-5412472D01*
X10880000Y-5392472D02*
X10860000Y-5412472D01*
X10900000Y-8897500D02*
X10920000Y-8917500D01*
X10920000Y-8897500D02*
X10900000Y-8917500D01*
X10907500Y-6792500D02*
X10927500Y-6812500D01*
X10927500Y-6792500D02*
X10907500Y-6812500D01*
X10920000Y-7010000D02*
X10940000Y-7030000D01*
X10940000Y-7010000D02*
X10920000Y-7030000D01*
X10940000Y-8337500D02*
X10960000Y-8357500D01*
X10960000Y-8337500D02*
X10940000Y-8357500D01*
X10940687Y-8926562D02*
X10960687Y-8946562D01*
X10960687Y-8926562D02*
X10940687Y-8946562D01*
X10942500Y-8682500D02*
X10962500Y-8702500D01*
X10962500Y-8682500D02*
X10942500Y-8702500D01*
X10980000Y-5190528D02*
X11000000Y-5210528D01*
X11000000Y-5190528D02*
X10980000Y-5210528D01*
X10980000Y-5392472D02*
X11000000Y-5412472D01*
X11000000Y-5392472D02*
X10980000Y-5412472D01*
X11020000Y-8582528D02*
X11040000Y-8602528D01*
X11040000Y-8582528D02*
X11020000Y-8602528D01*
X11020000Y-8337500D02*
X11040000Y-8357500D01*
X11040000Y-8337500D02*
X11020000Y-8357500D01*
X11020000Y-8735000D02*
X11040000Y-8755000D01*
X11040000Y-8735000D02*
X11020000Y-8755000D01*
X11060000Y-8784472D02*
X11080000Y-8804472D01*
X11080000Y-8784472D02*
X11060000Y-8804472D01*
X11100000Y-5190528D02*
X11120000Y-5210528D01*
X11120000Y-5190528D02*
X11100000Y-5210528D01*
X11100000Y-5392472D02*
X11120000Y-5412472D01*
X11120000Y-5392472D02*
X11100000Y-5412472D01*
X11130000Y-6787500D02*
X11150000Y-6807500D01*
X11150000Y-6787500D02*
X11130000Y-6807500D01*
X11132500Y-7015000D02*
X11152500Y-7035000D01*
X11152500Y-7015000D02*
X11132500Y-7035000D01*
X11142500Y-8682500D02*
X11162500Y-8702500D01*
X11162500Y-8682500D02*
X11142500Y-8702500D01*
X11220000Y-5392472D02*
X11240000Y-5412472D01*
X11240000Y-5392472D02*
X11220000Y-5412472D01*
X11220000Y-5190528D02*
X11240000Y-5210528D01*
X11240000Y-5190528D02*
X11220000Y-5210528D01*
X11260000Y-8784472D02*
X11280000Y-8804472D01*
X11280000Y-8784472D02*
X11260000Y-8804472D01*
X11282500Y-8440000D02*
X11302500Y-8460000D01*
X11302500Y-8440000D02*
X11282500Y-8460000D01*
X11295000Y-8680000D02*
X11315000Y-8700000D01*
X11315000Y-8680000D02*
X11295000Y-8700000D01*
X11330000Y-7015000D02*
X11350000Y-7035000D01*
X11350000Y-7015000D02*
X11330000Y-7035000D01*
X11340000Y-5190528D02*
X11360000Y-5210528D01*
X11360000Y-5190528D02*
X11340000Y-5210528D01*
X11340000Y-5392472D02*
X11360000Y-5412472D01*
X11360000Y-5392472D02*
X11340000Y-5412472D01*
X11365000Y-8445000D02*
X11385000Y-8465000D01*
X11385000Y-8445000D02*
X11365000Y-8465000D01*
X11435000Y-6777500D02*
X11455000Y-6797500D01*
X11455000Y-6777500D02*
X11435000Y-6797500D01*
X11460000Y-5190528D02*
X11480000Y-5210528D01*
X11480000Y-5190528D02*
X11460000Y-5210528D01*
X11460000Y-8784472D02*
X11480000Y-8804472D01*
X11480000Y-8784472D02*
X11460000Y-8804472D01*
X11530000Y-7022500D02*
X11550000Y-7042500D01*
X11550000Y-7022500D02*
X11530000Y-7042500D01*
X11579676Y-5191057D02*
X11599676Y-5211057D01*
X11599676Y-5191057D02*
X11579676Y-5211057D01*
X11612500Y-6797500D02*
X11632500Y-6817500D01*
X11632500Y-6797500D02*
X11612500Y-6817500D01*
X11645000Y-7075000D02*
X11665000Y-7095000D01*
X11665000Y-7075000D02*
X11645000Y-7095000D01*
X11657500Y-8442500D02*
X11677500Y-8462500D01*
X11677500Y-8442500D02*
X11657500Y-8462500D01*
X11657500Y-8920000D02*
X11677500Y-8940000D01*
X11677500Y-8920000D02*
X11657500Y-8940000D01*
X11700000Y-5392472D02*
X11720000Y-5412472D01*
X11720000Y-5392472D02*
X11700000Y-5412472D01*
X11700000Y-5190528D02*
X11720000Y-5210528D01*
X11720000Y-5190528D02*
X11700000Y-5210528D01*
X11722564Y-8769833D02*
X11742564Y-8789833D01*
X11742564Y-8769833D02*
X11722564Y-8789833D01*
X11745000Y-8440000D02*
X11765000Y-8460000D01*
X11765000Y-8440000D02*
X11745000Y-8460000D01*
X11752500Y-8337500D02*
X11772500Y-8357500D01*
X11772500Y-8337500D02*
X11752500Y-8357500D01*
X11762265Y-8739438D02*
X11782265Y-8759438D01*
X11782265Y-8739438D02*
X11762265Y-8759438D01*
X11777500Y-8932500D02*
X11797500Y-8952500D01*
X11797500Y-8932500D02*
X11777500Y-8952500D01*
X11810000Y-6905000D02*
X11830000Y-6925000D01*
X11830000Y-6905000D02*
X11810000Y-6925000D01*
X11813448Y-8734052D02*
X11833448Y-8754052D01*
X11833448Y-8734052D02*
X11813448Y-8754052D01*
X11820000Y-5190528D02*
X11840000Y-5210528D01*
X11840000Y-5190528D02*
X11820000Y-5210528D01*
X11820000Y-5392472D02*
X11840000Y-5412472D01*
X11840000Y-5392472D02*
X11820000Y-5412472D01*
X11887500Y-8732500D02*
X11907500Y-8752500D01*
X11907500Y-8732500D02*
X11887500Y-8752500D01*
X11902500Y-8920000D02*
X11922500Y-8940000D01*
X11922500Y-8920000D02*
X11902500Y-8940000D01*
X11905000Y-8390000D02*
X11925000Y-8410000D01*
X11925000Y-8390000D02*
X11905000Y-8410000D01*
X11917500Y-7337500D02*
X11937500Y-7357500D01*
X11937500Y-7337500D02*
X11917500Y-7357500D01*
X11940000Y-5190528D02*
X11960000Y-5210528D01*
X11960000Y-5190528D02*
X11940000Y-5210528D01*
X11940000Y-5392472D02*
X11960000Y-5412472D01*
X11960000Y-5392472D02*
X11940000Y-5412472D01*
X11947034Y-8735466D02*
X11967034Y-8755466D01*
X11967034Y-8735466D02*
X11947034Y-8755466D01*
X11972500Y-8407500D02*
X11992500Y-8427500D01*
X11992500Y-8407500D02*
X11972500Y-8427500D01*
X12017500Y-8922500D02*
X12037500Y-8942500D01*
X12037500Y-8922500D02*
X12017500Y-8942500D01*
X12053414Y-8776485D02*
X12073414Y-8796485D01*
X12073414Y-8776485D02*
X12053414Y-8796485D01*
X12059987Y-5192500D02*
X12079987Y-5212500D01*
X12079987Y-5192500D02*
X12059987Y-5212500D01*
X12060000Y-7490000D02*
X12080000Y-7510000D01*
X12080000Y-7490000D02*
X12060000Y-7510000D01*
X12060000Y-5392472D02*
X12080000Y-5412472D01*
X12080000Y-5392472D02*
X12060000Y-5412472D01*
X12082500Y-7162500D02*
X12102500Y-7182500D01*
X12102500Y-7162500D02*
X12082500Y-7182500D01*
X12101250Y-8411250D02*
X12121250Y-8431250D01*
X12121250Y-8411250D02*
X12101250Y-8431250D01*
X12132500Y-7665000D02*
X12152500Y-7685000D01*
X12152500Y-7665000D02*
X12132500Y-7685000D01*
X12137500Y-7810000D02*
X12157500Y-7830000D01*
X12157500Y-7810000D02*
X12137500Y-7830000D01*
X12137500Y-7937500D02*
X12157500Y-7957500D01*
X12157500Y-7937500D02*
X12137500Y-7957500D01*
X12137500Y-8090000D02*
X12157500Y-8110000D01*
X12157500Y-8090000D02*
X12137500Y-8110000D01*
X12137500Y-8202500D02*
X12157500Y-8222500D01*
X12157500Y-8202500D02*
X12137500Y-8222500D01*
X12162500Y-7230000D02*
X12182500Y-7250000D01*
X12182500Y-7230000D02*
X12162500Y-7250000D01*
X12180000Y-5190528D02*
X12200000Y-5210528D01*
X12200000Y-5190528D02*
X12180000Y-5210528D01*
X12180000Y-5392472D02*
X12200000Y-5412472D01*
X12200000Y-5392472D02*
X12180000Y-5412472D01*
X12300000Y-5190528D02*
X12320000Y-5210528D01*
X12320000Y-5190528D02*
X12300000Y-5210528D01*
X12300000Y-5392472D02*
X12320000Y-5412472D01*
X12320000Y-5392472D02*
X12300000Y-5412472D01*
X12322500Y-7377500D02*
X12342500Y-7397500D01*
X12342500Y-7377500D02*
X12322500Y-7397500D01*
X12377500Y-8002500D02*
X12397500Y-8022500D01*
X12397500Y-8002500D02*
X12377500Y-8022500D01*
X12385000Y-7535000D02*
X12405000Y-7555000D01*
X12405000Y-7535000D02*
X12385000Y-7555000D01*
X12385000Y-7850000D02*
X12405000Y-7870000D01*
X12405000Y-7850000D02*
X12385000Y-7870000D01*
X12420000Y-5392472D02*
X12440000Y-5412472D01*
X12440000Y-5392472D02*
X12420000Y-5412472D01*
X12420321Y-5191052D02*
X12440321Y-5211052D01*
X12440321Y-5191052D02*
X12420321Y-5211052D01*
X12540000Y-5190528D02*
X12560000Y-5210528D01*
X12560000Y-5190528D02*
X12540000Y-5210528D01*
X12540000Y-5392472D02*
X12560000Y-5412472D01*
X12560000Y-5392472D02*
X12540000Y-5412472D01*
X12585000Y-8452500D02*
X12605000Y-8472500D01*
X12605000Y-8452500D02*
X12585000Y-8472500D01*
X12649028Y-8671648D02*
X12669028Y-8691648D01*
X12669028Y-8671648D02*
X12649028Y-8691648D01*
X12672500Y-8627500D02*
X12692500Y-8647500D01*
X12692500Y-8627500D02*
X12672500Y-8647500D01*
X12692500Y-8712500D02*
X12712500Y-8732500D01*
X12712500Y-8712500D02*
X12692500Y-8732500D01*
X12856930Y-8766930D02*
X12876930Y-8786930D01*
X12876930Y-8766930D02*
X12856930Y-8786930D01*
X12965000Y-7950000D02*
X12985000Y-7970000D01*
X12985000Y-7950000D02*
X12965000Y-7970000D01*
X13180570Y-8766930D02*
X13200570Y-8786930D01*
X13200570Y-8766930D02*
X13180570Y-8786930D01*
X13330000Y-8162500D02*
X13350000Y-8182500D01*
X13350000Y-8162500D02*
X13330000Y-8182500D01*
X13380000Y-8162500D02*
X13400000Y-8182500D01*
X13400000Y-8162500D02*
X13380000Y-8182500D01*
X13947500Y-5675000D02*
X13967500Y-5695000D01*
X13967500Y-5675000D02*
X13947500Y-5695000D01*
X14265000Y-5480000D02*
X14285000Y-5500000D01*
X14285000Y-5480000D02*
X14265000Y-5500000D01*
X14282500Y-5285000D02*
X14302500Y-5305000D01*
X14302500Y-5285000D02*
X14282500Y-5305000D01*
X14330000Y-6520000D02*
X14350000Y-6540000D01*
X14350000Y-6520000D02*
X14330000Y-6540000D01*
X14380000Y-7367500D02*
X14400000Y-7387500D01*
X14400000Y-7367500D02*
X14380000Y-7387500D01*
X14390000Y-5155000D02*
X14410000Y-5175000D01*
X14410000Y-5155000D02*
X14390000Y-5175000D01*
X14467500Y-7617500D02*
X14487500Y-7637500D01*
X14487500Y-7617500D02*
X14467500Y-7637500D01*
X14570000Y-7670000D02*
X14590000Y-7690000D01*
X14590000Y-7670000D02*
X14570000Y-7690000D01*
X14597500Y-5895000D02*
X14617500Y-5915000D01*
X14617500Y-5895000D02*
X14597500Y-5915000D01*
X14625000Y-5155000D02*
X14645000Y-5175000D01*
X14645000Y-5155000D02*
X14625000Y-5175000D01*
X14682500Y-6987500D02*
X14702500Y-7007500D01*
X14702500Y-6987500D02*
X14682500Y-7007500D01*
X14705000Y-5895000D02*
X14725000Y-5915000D01*
X14725000Y-5895000D02*
X14705000Y-5915000D01*
X14835000Y-5785000D02*
X14855000Y-5805000D01*
X14855000Y-5785000D02*
X14835000Y-5805000D01*
X14882500Y-7647500D02*
X14902500Y-7667500D01*
X14902500Y-7647500D02*
X14882500Y-7667500D01*
X14892500Y-6715000D02*
X14912500Y-6735000D01*
X14912500Y-6715000D02*
X14892500Y-6735000D01*
X14925000Y-5160000D02*
X14945000Y-5180000D01*
X14945000Y-5160000D02*
X14925000Y-5180000D01*
X14977500Y-7005000D02*
X14997500Y-7025000D01*
X14997500Y-7005000D02*
X14977500Y-7025000D01*
X15015000Y-7082500D02*
X15035000Y-7102500D01*
X15035000Y-7082500D02*
X15015000Y-7102500D01*
X15020000Y-6735000D02*
X15040000Y-6755000D01*
X15040000Y-6735000D02*
X15020000Y-6755000D01*
X15147500Y-6345000D02*
X15167500Y-6365000D01*
X15167500Y-6345000D02*
X15147500Y-6365000D01*
X15147500Y-7070000D02*
X15167500Y-7090000D01*
X15167500Y-7070000D02*
X15147500Y-7090000D01*
X15172966Y-7834534D02*
X15192966Y-7854534D01*
X15192966Y-7834534D02*
X15172966Y-7854534D01*
X15207500Y-7452500D02*
X15227500Y-7472500D01*
X15227500Y-7452500D02*
X15207500Y-7472500D01*
X15260000Y-6130000D02*
X15280000Y-6150000D01*
X15280000Y-6130000D02*
X15260000Y-6150000D01*
X15367500Y-6352500D02*
X15387500Y-6372500D01*
X15387500Y-6352500D02*
X15367500Y-6372500D01*
X15397500Y-5157500D02*
X15417500Y-5177500D01*
X15417500Y-5157500D02*
X15397500Y-5177500D01*
X15700000Y-8137500D02*
X15720000Y-8157500D01*
X15720000Y-8137500D02*
X15700000Y-8157500D01*
X15757500Y-5145000D02*
X15777500Y-5165000D01*
X15777500Y-5145000D02*
X15757500Y-5165000D01*
X15875000Y-5427500D02*
X15895000Y-5447500D01*
X15895000Y-5427500D02*
X15875000Y-5447500D01*
X15875000Y-6832500D02*
X15895000Y-6852500D01*
X15895000Y-6832500D02*
X15875000Y-6852500D01*
X15877500Y-5712500D02*
X15897500Y-5732500D01*
X15897500Y-5712500D02*
X15877500Y-5732500D01*
X15877500Y-6140000D02*
X15897500Y-6160000D01*
X15897500Y-6140000D02*
X15877500Y-6160000D01*
X15877500Y-6670000D02*
X15897500Y-6690000D01*
X15897500Y-6670000D02*
X15877500Y-6690000D01*
X15880000Y-5910000D02*
X15900000Y-5930000D01*
X15900000Y-5910000D02*
X15880000Y-5930000D01*
X15882500Y-6515000D02*
X15902500Y-6535000D01*
X15902500Y-6515000D02*
X15882500Y-6535000D01*
X15885000Y-6980000D02*
X15905000Y-7000000D01*
X15905000Y-6980000D02*
X15885000Y-7000000D01*
X15947500Y-7080000D02*
X15967500Y-7100000D01*
X15967500Y-7080000D02*
X15947500Y-7100000D01*
X15947500Y-7140000D02*
X15967500Y-7160000D01*
X15967500Y-7140000D02*
X15947500Y-7160000D01*
X15947500Y-7665000D02*
X15967500Y-7685000D01*
X15967500Y-7665000D02*
X15947500Y-7685000D01*
X15947500Y-7720500D02*
X15967500Y-7740500D01*
X15967500Y-7720500D02*
X15947500Y-7740500D01*
X4692500Y-6632500D02*
G75*
G02*
X4662500Y-6632500I-15000J0D01*
G01*
X4662500Y-6632500D02*
G75*
G02*
X4692500Y-6632500I15000J0D01*
G01*
X4755000Y-6495000D02*
G75*
G02*
X4725000Y-6495000I-15000J0D01*
G01*
X4725000Y-6495000D02*
G75*
G02*
X4755000Y-6495000I15000J0D01*
G01*
X5442500Y-6625000D02*
G75*
G02*
X5412500Y-6625000I-15000J0D01*
G01*
X5412500Y-6625000D02*
G75*
G02*
X5442500Y-6625000I15000J0D01*
G01*
X8347500Y-6100000D02*
G75*
G02*
X8317500Y-6100000I-15000J0D01*
G01*
X8317500Y-6100000D02*
G75*
G02*
X8347500Y-6100000I15000J0D01*
G01*
X9142500Y-6892500D02*
G75*
G02*
X9112500Y-6892500I-15000J0D01*
G01*
X9112500Y-6892500D02*
G75*
G02*
X9142500Y-6892500I15000J0D01*
G01*
X11702500Y-6895000D02*
G75*
G02*
X11672500Y-6895000I-15000J0D01*
G01*
X11672500Y-6895000D02*
G75*
G02*
X11702500Y-6895000I15000J0D01*
G01*
X11847500Y-7337500D02*
G75*
G02*
X11817500Y-7337500I-15000J0D01*
G01*
X11817500Y-7337500D02*
G75*
G02*
X11847500Y-7337500I15000J0D01*
G01*
X12502250Y-8417250D02*
G75*
G02*
X12472250Y-8417250I-15000J0D01*
G01*
X12472250Y-8417250D02*
G75*
G02*
X12502250Y-8417250I15000J0D01*
G01*
X12997500Y-8192500D02*
G75*
G02*
X12967500Y-8192500I-15000J0D01*
G01*
X12967500Y-8192500D02*
G75*
G02*
X12997500Y-8192500I15000J0D01*
G01*
X13187500Y-8332500D02*
G75*
G02*
X13157500Y-8332500I-15000J0D01*
G01*
X13157500Y-8332500D02*
G75*
G02*
X13187500Y-8332500I15000J0D01*
G01*
X14087500Y-5745000D02*
G75*
G02*
X14057500Y-5745000I-15000J0D01*
G01*
X14057500Y-5745000D02*
G75*
G02*
X14087500Y-5745000I15000J0D01*
G01*
X4290000Y-5047500D02*
X4290000Y-5107500D01*
X4260000Y-5077500D02*
X4320000Y-5077500D01*
X4330000Y-5047500D02*
X4250000Y-5047500D01*
X4250000Y-5107500D02*
G75*
G02*
X4250000Y-5047500I0J30000D01*
G01*
X4250000Y-5107500D02*
X4330000Y-5107500D01*
X4330000Y-5107500D02*
G75*
G03*
X4330000Y-5047500I0J30000D01*
G01*
X4290000Y-5911500D02*
X4290000Y-5971500D01*
X4260000Y-5941500D02*
X4320000Y-5941500D01*
X4330000Y-5911500D02*
X4250000Y-5911500D01*
X4250000Y-5971500D02*
G75*
G02*
X4250000Y-5911500I0J30000D01*
G01*
X4250000Y-5971500D02*
X4330000Y-5971500D01*
X4330000Y-5971500D02*
G75*
G03*
X4330000Y-5911500I0J30000D01*
G01*
X4708000Y-5047500D02*
X4708000Y-5107500D01*
X4678000Y-5077500D02*
X4738000Y-5077500D01*
X4763000Y-5047500D02*
X4653000Y-5047500D01*
X4653000Y-5107500D02*
G75*
G02*
X4653000Y-5047500I0J30000D01*
G01*
X4653000Y-5107500D02*
X4763000Y-5107500D01*
X4763000Y-5107500D02*
G75*
G03*
X4763000Y-5047500I0J30000D01*
G01*
X4708000Y-5911500D02*
X4708000Y-5971500D01*
X4678000Y-5941500D02*
X4738000Y-5941500D01*
X4763000Y-5911500D02*
X4653000Y-5911500D01*
X4653000Y-5971500D02*
G75*
G02*
X4653000Y-5911500I0J30000D01*
G01*
X4653000Y-5971500D02*
X4763000Y-5971500D01*
X4763000Y-5971500D02*
G75*
G03*
X4763000Y-5911500I0J30000D01*
G01*
X4575981Y-6282981D02*
X4575981Y-6237019D01*
X4530019Y-6237019D01*
X4530019Y-6282981D01*
X4575981Y-6282981D01*
X4533000Y-6292500D02*
X4573000Y-6292500D01*
X4573000Y-6227500D02*
G75*
G02*
X4573000Y-6292500I0J-32500D01*
G01*
X4573000Y-6227500D02*
X4533000Y-6227500D01*
X4533000Y-6227500D02*
G75*
G03*
X4533000Y-6292500I0J-32500D01*
G01*
X4575981Y-6767981D02*
X4575981Y-6722019D01*
X4530019Y-6722019D01*
X4530019Y-6767981D01*
X4575981Y-6767981D01*
X4533000Y-6777500D02*
X4573000Y-6777500D01*
X4573000Y-6712500D02*
G75*
G02*
X4573000Y-6777500I0J-32500D01*
G01*
X4573000Y-6712500D02*
X4533000Y-6712500D01*
X4533000Y-6712500D02*
G75*
G03*
X4533000Y-6777500I0J-32500D01*
G01*
X4250000Y-6265000D02*
X4285000Y-6230000D01*
X4250000Y-6195000D01*
X4215000Y-6230000D01*
X4250000Y-6265000D01*
X4225000Y-6265000D02*
X4275000Y-6265000D01*
X4275000Y-6195000D02*
G75*
G02*
X4275000Y-6265000I0J-35000D01*
G01*
X4275000Y-6195000D02*
X4225000Y-6195000D01*
X4225000Y-6195000D02*
G75*
G03*
X4225000Y-6265000I0J-35000D01*
G01*
X4250000Y-6810000D02*
X4285000Y-6775000D01*
X4250000Y-6740000D01*
X4215000Y-6775000D01*
X4250000Y-6810000D01*
X4225000Y-6810000D02*
X4275000Y-6810000D01*
X4275000Y-6740000D02*
G75*
G02*
X4275000Y-6810000I0J-35000D01*
G01*
X4275000Y-6740000D02*
X4225000Y-6740000D01*
X4225000Y-6740000D02*
G75*
G03*
X4225000Y-6810000I0J-35000D01*
G01*
X5334750Y-7710000D02*
X5424750Y-7800000D01*
X5424750Y-7710000D02*
X5334750Y-7800000D01*
X5424750Y-7755000D02*
G75*
G02*
X5334750Y-7755000I-45000J0D01*
G01*
X5334750Y-7755000D02*
G75*
G02*
X5424750Y-7755000I45000J0D01*
G01*
X5334750Y-8345000D02*
X5424750Y-8435000D01*
X5424750Y-8345000D02*
X5334750Y-8435000D01*
X5424750Y-8390000D02*
G75*
G02*
X5334750Y-8390000I-45000J0D01*
G01*
X5334750Y-8390000D02*
G75*
G02*
X5424750Y-8390000I45000J0D01*
G01*
X5461750Y-7456000D02*
X5551750Y-7546000D01*
X5551750Y-7456000D02*
X5461750Y-7546000D01*
X5551750Y-7501000D02*
G75*
G02*
X5461750Y-7501000I-45000J0D01*
G01*
X5461750Y-7501000D02*
G75*
G02*
X5551750Y-7501000I45000J0D01*
G01*
X5461750Y-8599000D02*
X5551750Y-8689000D01*
X5551750Y-8599000D02*
X5461750Y-8689000D01*
X5551750Y-8644000D02*
G75*
G02*
X5461750Y-8644000I-45000J0D01*
G01*
X5461750Y-8644000D02*
G75*
G02*
X5551750Y-8644000I45000J0D01*
G01*
X5713750Y-7583000D02*
X5803750Y-7673000D01*
X5803750Y-7583000D02*
X5713750Y-7673000D01*
X5803750Y-7628000D02*
G75*
G02*
X5713750Y-7628000I-45000J0D01*
G01*
X5713750Y-7628000D02*
G75*
G02*
X5803750Y-7628000I45000J0D01*
G01*
X5713750Y-7837000D02*
X5803750Y-7927000D01*
X5803750Y-7837000D02*
X5713750Y-7927000D01*
X5803750Y-7882000D02*
G75*
G02*
X5713750Y-7882000I-45000J0D01*
G01*
X5713750Y-7882000D02*
G75*
G02*
X5803750Y-7882000I45000J0D01*
G01*
X5713750Y-8091000D02*
X5803750Y-8181000D01*
X5803750Y-8091000D02*
X5713750Y-8181000D01*
X5803750Y-8136000D02*
G75*
G02*
X5713750Y-8136000I-45000J0D01*
G01*
X5713750Y-8136000D02*
G75*
G02*
X5803750Y-8136000I45000J0D01*
G01*
X5713750Y-8345000D02*
X5803750Y-8435000D01*
X5803750Y-8345000D02*
X5713750Y-8435000D01*
X5803750Y-8390000D02*
G75*
G02*
X5713750Y-8390000I-45000J0D01*
G01*
X5713750Y-8390000D02*
G75*
G02*
X5803750Y-8390000I45000J0D01*
G01*
X5713750Y-8599000D02*
X5803750Y-8689000D01*
X5803750Y-8599000D02*
X5713750Y-8689000D01*
X5803750Y-8644000D02*
G75*
G02*
X5713750Y-8644000I-45000J0D01*
G01*
X5713750Y-8644000D02*
G75*
G02*
X5803750Y-8644000I45000J0D01*
G01*
X5967750Y-7456000D02*
X6057750Y-7546000D01*
X6057750Y-7456000D02*
X5967750Y-7546000D01*
X6057750Y-7501000D02*
G75*
G02*
X5967750Y-7501000I-45000J0D01*
G01*
X5967750Y-7501000D02*
G75*
G02*
X6057750Y-7501000I45000J0D01*
G01*
X5967750Y-7710000D02*
X6057750Y-7800000D01*
X6057750Y-7710000D02*
X5967750Y-7800000D01*
X6057750Y-7755000D02*
G75*
G02*
X5967750Y-7755000I-45000J0D01*
G01*
X5967750Y-7755000D02*
G75*
G02*
X6057750Y-7755000I45000J0D01*
G01*
X5967750Y-7964000D02*
X6057750Y-8054000D01*
X6057750Y-7964000D02*
X5967750Y-8054000D01*
X6057750Y-8009000D02*
G75*
G02*
X5967750Y-8009000I-45000J0D01*
G01*
X5967750Y-8009000D02*
G75*
G02*
X6057750Y-8009000I45000J0D01*
G01*
X5967750Y-8218000D02*
X6057750Y-8308000D01*
X6057750Y-8218000D02*
X5967750Y-8308000D01*
X6057750Y-8263000D02*
G75*
G02*
X5967750Y-8263000I-45000J0D01*
G01*
X5967750Y-8263000D02*
G75*
G02*
X6057750Y-8263000I45000J0D01*
G01*
X5967750Y-8472000D02*
X6057750Y-8562000D01*
X6057750Y-8472000D02*
X5967750Y-8562000D01*
X6057750Y-8517000D02*
G75*
G02*
X5967750Y-8517000I-45000J0D01*
G01*
X5967750Y-8517000D02*
G75*
G02*
X6057750Y-8517000I45000J0D01*
G01*
X7007500Y-7020000D02*
X7107500Y-7120000D01*
X7107500Y-7020000D02*
X7007500Y-7120000D01*
X7057500Y-7020000D02*
X7057500Y-7120000D01*
X7007500Y-7070000D02*
X7107500Y-7070000D01*
X7007500Y-7274000D02*
X7107500Y-7374000D01*
X7107500Y-7274000D02*
X7007500Y-7374000D01*
X7057500Y-7274000D02*
X7057500Y-7374000D01*
X7007500Y-7324000D02*
X7107500Y-7324000D01*
X7261500Y-7020000D02*
X7361500Y-7120000D01*
X7361500Y-7020000D02*
X7261500Y-7120000D01*
X7311500Y-7020000D02*
X7311500Y-7120000D01*
X7261500Y-7070000D02*
X7361500Y-7070000D01*
X7261500Y-7274000D02*
X7361500Y-7374000D01*
X7361500Y-7274000D02*
X7261500Y-7374000D01*
X7311500Y-7274000D02*
X7311500Y-7374000D01*
X7261500Y-7324000D02*
X7361500Y-7324000D01*
X14502500Y-8022500D02*
X14602500Y-8122500D01*
X14602500Y-8022500D02*
X14502500Y-8122500D01*
X14552500Y-8022500D02*
X14552500Y-8122500D01*
X14502500Y-8072500D02*
X14602500Y-8072500D01*
X14502500Y-8276500D02*
X14602500Y-8376500D01*
X14602500Y-8276500D02*
X14502500Y-8376500D01*
X14552500Y-8276500D02*
X14552500Y-8376500D01*
X14502500Y-8326500D02*
X14602500Y-8326500D01*
X14502500Y-8530500D02*
X14602500Y-8630500D01*
X14602500Y-8530500D02*
X14502500Y-8630500D01*
X14552500Y-8530500D02*
X14552500Y-8630500D01*
X14502500Y-8580500D02*
X14602500Y-8580500D01*
X14935000Y-8025000D02*
X15035000Y-8125000D01*
X15035000Y-8025000D02*
X14935000Y-8125000D01*
X14985000Y-8025000D02*
X14985000Y-8125000D01*
X14935000Y-8075000D02*
X15035000Y-8075000D01*
X14935000Y-8279000D02*
X15035000Y-8379000D01*
X15035000Y-8279000D02*
X14935000Y-8379000D01*
X14985000Y-8279000D02*
X14985000Y-8379000D01*
X14935000Y-8329000D02*
X15035000Y-8329000D01*
X14935000Y-8533000D02*
X15035000Y-8633000D01*
X15035000Y-8533000D02*
X14935000Y-8633000D01*
X14985000Y-8533000D02*
X14985000Y-8633000D01*
X14935000Y-8583000D02*
X15035000Y-8583000D01*
D12*
X4666750Y-7358500D02*
X4768750Y-7460500D01*
X4768750Y-7358500D02*
X4666750Y-7460500D01*
X4753813Y-7445563D02*
X4753813Y-7373437D01*
X4681687Y-7373437D01*
X4681687Y-7445563D01*
X4753813Y-7445563D01*
X4666750Y-7612500D02*
X4768750Y-7714500D01*
X4768750Y-7612500D02*
X4666750Y-7714500D01*
X4753813Y-7699563D02*
X4753813Y-7627437D01*
X4681687Y-7627437D01*
X4681687Y-7699563D01*
X4753813Y-7699563D01*
X4666750Y-8430500D02*
X4768750Y-8532500D01*
X4768750Y-8430500D02*
X4666750Y-8532500D01*
X4753813Y-8517563D02*
X4753813Y-8445437D01*
X4681687Y-8445437D01*
X4681687Y-8517563D01*
X4753813Y-8517563D01*
X4666750Y-8684500D02*
X4768750Y-8786500D01*
X4768750Y-8684500D02*
X4666750Y-8786500D01*
X4753813Y-8771563D02*
X4753813Y-8699437D01*
X4681687Y-8699437D01*
X4681687Y-8771563D01*
X4753813Y-8771563D01*
X6684500Y-5269000D02*
X6786500Y-5371000D01*
X6786500Y-5269000D02*
X6684500Y-5371000D01*
X6771563Y-5356063D02*
X6771563Y-5283937D01*
X6699437Y-5283937D01*
X6699437Y-5356063D01*
X6771563Y-5356063D01*
X6938500Y-5269000D02*
X7040500Y-5371000D01*
X7040500Y-5269000D02*
X6938500Y-5371000D01*
X7025563Y-5356063D02*
X7025563Y-5283937D01*
X6953437Y-5283937D01*
X6953437Y-5356063D01*
X7025563Y-5356063D01*
X7192500Y-5269000D02*
X7294500Y-5371000D01*
X7294500Y-5269000D02*
X7192500Y-5371000D01*
X7279563Y-5356063D02*
X7279563Y-5283937D01*
X7207437Y-5283937D01*
X7207437Y-5356063D01*
X7279563Y-5356063D01*
X7446500Y-5269000D02*
X7548500Y-5371000D01*
X7548500Y-5269000D02*
X7446500Y-5371000D01*
X7533563Y-5356063D02*
X7533563Y-5283937D01*
X7461437Y-5283937D01*
X7461437Y-5356063D01*
X7533563Y-5356063D01*
D13*
X5343750Y-7200000D02*
X5513750Y-7370000D01*
X5513750Y-7200000D02*
X5343750Y-7370000D01*
X5428750Y-7370000D02*
X5513750Y-7285000D01*
X5428750Y-7200000D01*
X5343750Y-7285000D01*
X5428750Y-7370000D01*
X5343750Y-8775000D02*
X5513750Y-8945000D01*
X5513750Y-8775000D02*
X5343750Y-8945000D01*
X5428750Y-8945000D02*
X5513750Y-8860000D01*
X5428750Y-8775000D01*
X5343750Y-8860000D01*
X5428750Y-8945000D01*
D11*
X4255777Y-9316484D02*
X4255777Y-9116484D01*
X4255777Y-9116484D02*
X4303396Y-9116484D01*
X4303396Y-9116484D02*
X4331967Y-9126008D01*
X4331967Y-9126008D02*
X4351015Y-9145055D01*
X4351015Y-9145055D02*
X4360539Y-9164103D01*
X4360539Y-9164103D02*
X4370063Y-9202198D01*
X4370063Y-9202198D02*
X4370063Y-9230770D01*
X4370063Y-9230770D02*
X4360539Y-9268865D01*
X4360539Y-9268865D02*
X4351015Y-9287912D01*
X4351015Y-9287912D02*
X4331967Y-9306960D01*
X4331967Y-9306960D02*
X4303396Y-9316484D01*
X4303396Y-9316484D02*
X4255777Y-9316484D01*
X4455777Y-9316484D02*
X4455777Y-9183150D01*
X4455777Y-9221246D02*
X4465301Y-9202198D01*
X4465301Y-9202198D02*
X4474824Y-9192674D01*
X4474824Y-9192674D02*
X4493872Y-9183150D01*
X4493872Y-9183150D02*
X4512920Y-9183150D01*
X4579586Y-9316484D02*
X4579586Y-9183150D01*
X4579586Y-9116484D02*
X4570063Y-9126008D01*
X4570063Y-9126008D02*
X4579586Y-9135531D01*
X4579586Y-9135531D02*
X4589110Y-9126008D01*
X4589110Y-9126008D02*
X4579586Y-9116484D01*
X4579586Y-9116484D02*
X4579586Y-9135531D01*
X4703396Y-9316484D02*
X4684348Y-9306960D01*
X4684348Y-9306960D02*
X4674824Y-9287912D01*
X4674824Y-9287912D02*
X4674824Y-9116484D01*
X4808158Y-9316484D02*
X4789110Y-9306960D01*
X4789110Y-9306960D02*
X4779586Y-9287912D01*
X4779586Y-9287912D02*
X4779586Y-9116484D01*
X5036729Y-9316484D02*
X5036729Y-9116484D01*
X5036729Y-9116484D02*
X5103396Y-9259341D01*
X5103396Y-9259341D02*
X5170063Y-9116484D01*
X5170063Y-9116484D02*
X5170063Y-9316484D01*
X5351015Y-9316484D02*
X5351015Y-9211722D01*
X5351015Y-9211722D02*
X5341491Y-9192674D01*
X5341491Y-9192674D02*
X5322444Y-9183150D01*
X5322444Y-9183150D02*
X5284348Y-9183150D01*
X5284348Y-9183150D02*
X5265301Y-9192674D01*
X5351015Y-9306960D02*
X5331967Y-9316484D01*
X5331967Y-9316484D02*
X5284348Y-9316484D01*
X5284348Y-9316484D02*
X5265301Y-9306960D01*
X5265301Y-9306960D02*
X5255777Y-9287912D01*
X5255777Y-9287912D02*
X5255777Y-9268865D01*
X5255777Y-9268865D02*
X5265301Y-9249817D01*
X5265301Y-9249817D02*
X5284348Y-9240293D01*
X5284348Y-9240293D02*
X5331967Y-9240293D01*
X5331967Y-9240293D02*
X5351015Y-9230770D01*
X5446253Y-9183150D02*
X5446253Y-9383150D01*
X5446253Y-9192674D02*
X5465301Y-9183150D01*
X5465301Y-9183150D02*
X5503396Y-9183150D01*
X5503396Y-9183150D02*
X5522444Y-9192674D01*
X5522444Y-9192674D02*
X5531967Y-9202198D01*
X5531967Y-9202198D02*
X5541491Y-9221246D01*
X5541491Y-9221246D02*
X5541491Y-9278389D01*
X5541491Y-9278389D02*
X5531967Y-9297436D01*
X5531967Y-9297436D02*
X5522444Y-9306960D01*
X5522444Y-9306960D02*
X5503396Y-9316484D01*
X5503396Y-9316484D02*
X5465301Y-9316484D01*
X5465301Y-9316484D02*
X5446253Y-9306960D01*
X5627205Y-9297436D02*
X5636729Y-9306960D01*
X5636729Y-9306960D02*
X5627205Y-9316484D01*
X5627205Y-9316484D02*
X5617682Y-9306960D01*
X5617682Y-9306960D02*
X5627205Y-9297436D01*
X5627205Y-9297436D02*
X5627205Y-9316484D01*
X5627205Y-9192674D02*
X5636729Y-9202198D01*
X5636729Y-9202198D02*
X5627205Y-9211722D01*
X5627205Y-9211722D02*
X5617682Y-9202198D01*
X5617682Y-9202198D02*
X5627205Y-9192674D01*
X5627205Y-9192674D02*
X5627205Y-9211722D01*
D10*
X3975000Y-9635000D02*
X3995000Y-9655000D01*
X3995000Y-9635000D02*
X3975000Y-9655000D01*
D11*
X4293872Y-9536484D02*
X4312920Y-9536484D01*
X4312920Y-9536484D02*
X4331967Y-9546008D01*
X4331967Y-9546008D02*
X4341491Y-9555531D01*
X4341491Y-9555531D02*
X4351015Y-9574579D01*
X4351015Y-9574579D02*
X4360539Y-9612674D01*
X4360539Y-9612674D02*
X4360539Y-9660293D01*
X4360539Y-9660293D02*
X4351015Y-9698389D01*
X4351015Y-9698389D02*
X4341491Y-9717436D01*
X4341491Y-9717436D02*
X4331967Y-9726960D01*
X4331967Y-9726960D02*
X4312920Y-9736484D01*
X4312920Y-9736484D02*
X4293872Y-9736484D01*
X4293872Y-9736484D02*
X4274824Y-9726960D01*
X4274824Y-9726960D02*
X4265301Y-9717436D01*
X4265301Y-9717436D02*
X4255777Y-9698389D01*
X4255777Y-9698389D02*
X4246253Y-9660293D01*
X4246253Y-9660293D02*
X4246253Y-9612674D01*
X4246253Y-9612674D02*
X4255777Y-9574579D01*
X4255777Y-9574579D02*
X4265301Y-9555531D01*
X4265301Y-9555531D02*
X4274824Y-9546008D01*
X4274824Y-9546008D02*
X4293872Y-9536484D01*
X4446253Y-9717436D02*
X4455777Y-9726960D01*
X4455777Y-9726960D02*
X4446253Y-9736484D01*
X4446253Y-9736484D02*
X4436729Y-9726960D01*
X4436729Y-9726960D02*
X4446253Y-9717436D01*
X4446253Y-9717436D02*
X4446253Y-9736484D01*
X4531967Y-9555531D02*
X4541491Y-9546008D01*
X4541491Y-9546008D02*
X4560539Y-9536484D01*
X4560539Y-9536484D02*
X4608158Y-9536484D01*
X4608158Y-9536484D02*
X4627205Y-9546008D01*
X4627205Y-9546008D02*
X4636729Y-9555531D01*
X4636729Y-9555531D02*
X4646253Y-9574579D01*
X4646253Y-9574579D02*
X4646253Y-9593627D01*
X4646253Y-9593627D02*
X4636729Y-9622198D01*
X4636729Y-9622198D02*
X4522444Y-9736484D01*
X4522444Y-9736484D02*
X4646253Y-9736484D01*
X4770063Y-9536484D02*
X4789110Y-9536484D01*
X4789110Y-9536484D02*
X4808158Y-9546008D01*
X4808158Y-9546008D02*
X4817682Y-9555531D01*
X4817682Y-9555531D02*
X4827205Y-9574579D01*
X4827205Y-9574579D02*
X4836729Y-9612674D01*
X4836729Y-9612674D02*
X4836729Y-9660293D01*
X4836729Y-9660293D02*
X4827205Y-9698389D01*
X4827205Y-9698389D02*
X4817682Y-9717436D01*
X4817682Y-9717436D02*
X4808158Y-9726960D01*
X4808158Y-9726960D02*
X4789110Y-9736484D01*
X4789110Y-9736484D02*
X4770063Y-9736484D01*
X4770063Y-9736484D02*
X4751015Y-9726960D01*
X4751015Y-9726960D02*
X4741491Y-9717436D01*
X4741491Y-9717436D02*
X4731967Y-9698389D01*
X4731967Y-9698389D02*
X4722444Y-9660293D01*
X4722444Y-9660293D02*
X4722444Y-9612674D01*
X4722444Y-9612674D02*
X4731967Y-9574579D01*
X4731967Y-9574579D02*
X4741491Y-9555531D01*
X4741491Y-9555531D02*
X4751015Y-9546008D01*
X4751015Y-9546008D02*
X4770063Y-9536484D01*
X4960539Y-9536484D02*
X4979586Y-9536484D01*
X4979586Y-9536484D02*
X4998634Y-9546008D01*
X4998634Y-9546008D02*
X5008158Y-9555531D01*
X5008158Y-9555531D02*
X5017682Y-9574579D01*
X5017682Y-9574579D02*
X5027205Y-9612674D01*
X5027205Y-9612674D02*
X5027205Y-9660293D01*
X5027205Y-9660293D02*
X5017682Y-9698389D01*
X5017682Y-9698389D02*
X5008158Y-9717436D01*
X5008158Y-9717436D02*
X4998634Y-9726960D01*
X4998634Y-9726960D02*
X4979586Y-9736484D01*
X4979586Y-9736484D02*
X4960539Y-9736484D01*
X4960539Y-9736484D02*
X4941491Y-9726960D01*
X4941491Y-9726960D02*
X4931967Y-9717436D01*
X4931967Y-9717436D02*
X4922444Y-9698389D01*
X4922444Y-9698389D02*
X4912920Y-9660293D01*
X4912920Y-9660293D02*
X4912920Y-9612674D01*
X4912920Y-9612674D02*
X4922444Y-9574579D01*
X4922444Y-9574579D02*
X4931967Y-9555531D01*
X4931967Y-9555531D02*
X4941491Y-9546008D01*
X4941491Y-9546008D02*
X4960539Y-9536484D01*
X5112920Y-9736484D02*
X5112920Y-9603150D01*
X5112920Y-9622198D02*
X5122444Y-9612674D01*
X5122444Y-9612674D02*
X5141491Y-9603150D01*
X5141491Y-9603150D02*
X5170063Y-9603150D01*
X5170063Y-9603150D02*
X5189110Y-9612674D01*
X5189110Y-9612674D02*
X5198634Y-9631722D01*
X5198634Y-9631722D02*
X5198634Y-9736484D01*
X5198634Y-9631722D02*
X5208158Y-9612674D01*
X5208158Y-9612674D02*
X5227205Y-9603150D01*
X5227205Y-9603150D02*
X5255777Y-9603150D01*
X5255777Y-9603150D02*
X5274825Y-9612674D01*
X5274825Y-9612674D02*
X5284348Y-9631722D01*
X5284348Y-9631722D02*
X5284348Y-9736484D01*
X5379586Y-9736484D02*
X5379586Y-9603150D01*
X5379586Y-9622198D02*
X5389110Y-9612674D01*
X5389110Y-9612674D02*
X5408158Y-9603150D01*
X5408158Y-9603150D02*
X5436729Y-9603150D01*
X5436729Y-9603150D02*
X5455777Y-9612674D01*
X5455777Y-9612674D02*
X5465301Y-9631722D01*
X5465301Y-9631722D02*
X5465301Y-9736484D01*
X5465301Y-9631722D02*
X5474825Y-9612674D01*
X5474825Y-9612674D02*
X5493872Y-9603150D01*
X5493872Y-9603150D02*
X5522444Y-9603150D01*
X5522444Y-9603150D02*
X5541491Y-9612674D01*
X5541491Y-9612674D02*
X5551015Y-9631722D01*
X5551015Y-9631722D02*
X5551015Y-9736484D01*
X5941491Y-9526960D02*
X5770063Y-9784103D01*
X6198634Y-9536484D02*
X6217682Y-9536484D01*
X6217682Y-9536484D02*
X6236729Y-9546008D01*
X6236729Y-9546008D02*
X6246253Y-9555531D01*
X6246253Y-9555531D02*
X6255777Y-9574579D01*
X6255777Y-9574579D02*
X6265301Y-9612674D01*
X6265301Y-9612674D02*
X6265301Y-9660293D01*
X6265301Y-9660293D02*
X6255777Y-9698389D01*
X6255777Y-9698389D02*
X6246253Y-9717436D01*
X6246253Y-9717436D02*
X6236729Y-9726960D01*
X6236729Y-9726960D02*
X6217682Y-9736484D01*
X6217682Y-9736484D02*
X6198634Y-9736484D01*
X6198634Y-9736484D02*
X6179586Y-9726960D01*
X6179586Y-9726960D02*
X6170063Y-9717436D01*
X6170063Y-9717436D02*
X6160539Y-9698389D01*
X6160539Y-9698389D02*
X6151015Y-9660293D01*
X6151015Y-9660293D02*
X6151015Y-9612674D01*
X6151015Y-9612674D02*
X6160539Y-9574579D01*
X6160539Y-9574579D02*
X6170063Y-9555531D01*
X6170063Y-9555531D02*
X6179586Y-9546008D01*
X6179586Y-9546008D02*
X6198634Y-9536484D01*
X6351015Y-9717436D02*
X6360539Y-9726960D01*
X6360539Y-9726960D02*
X6351015Y-9736484D01*
X6351015Y-9736484D02*
X6341491Y-9726960D01*
X6341491Y-9726960D02*
X6351015Y-9717436D01*
X6351015Y-9717436D02*
X6351015Y-9736484D01*
X6484348Y-9536484D02*
X6503396Y-9536484D01*
X6503396Y-9536484D02*
X6522444Y-9546008D01*
X6522444Y-9546008D02*
X6531967Y-9555531D01*
X6531967Y-9555531D02*
X6541491Y-9574579D01*
X6541491Y-9574579D02*
X6551015Y-9612674D01*
X6551015Y-9612674D02*
X6551015Y-9660293D01*
X6551015Y-9660293D02*
X6541491Y-9698389D01*
X6541491Y-9698389D02*
X6531967Y-9717436D01*
X6531967Y-9717436D02*
X6522444Y-9726960D01*
X6522444Y-9726960D02*
X6503396Y-9736484D01*
X6503396Y-9736484D02*
X6484348Y-9736484D01*
X6484348Y-9736484D02*
X6465301Y-9726960D01*
X6465301Y-9726960D02*
X6455777Y-9717436D01*
X6455777Y-9717436D02*
X6446253Y-9698389D01*
X6446253Y-9698389D02*
X6436729Y-9660293D01*
X6436729Y-9660293D02*
X6436729Y-9612674D01*
X6436729Y-9612674D02*
X6446253Y-9574579D01*
X6446253Y-9574579D02*
X6455777Y-9555531D01*
X6455777Y-9555531D02*
X6465301Y-9546008D01*
X6465301Y-9546008D02*
X6484348Y-9536484D01*
X6674825Y-9536484D02*
X6693872Y-9536484D01*
X6693872Y-9536484D02*
X6712920Y-9546008D01*
X6712920Y-9546008D02*
X6722444Y-9555531D01*
X6722444Y-9555531D02*
X6731967Y-9574579D01*
X6731967Y-9574579D02*
X6741491Y-9612674D01*
X6741491Y-9612674D02*
X6741491Y-9660293D01*
X6741491Y-9660293D02*
X6731967Y-9698389D01*
X6731967Y-9698389D02*
X6722444Y-9717436D01*
X6722444Y-9717436D02*
X6712920Y-9726960D01*
X6712920Y-9726960D02*
X6693872Y-9736484D01*
X6693872Y-9736484D02*
X6674825Y-9736484D01*
X6674825Y-9736484D02*
X6655777Y-9726960D01*
X6655777Y-9726960D02*
X6646253Y-9717436D01*
X6646253Y-9717436D02*
X6636729Y-9698389D01*
X6636729Y-9698389D02*
X6627206Y-9660293D01*
X6627206Y-9660293D02*
X6627206Y-9612674D01*
X6627206Y-9612674D02*
X6636729Y-9574579D01*
X6636729Y-9574579D02*
X6646253Y-9555531D01*
X6646253Y-9555531D02*
X6655777Y-9546008D01*
X6655777Y-9546008D02*
X6674825Y-9536484D01*
X6808158Y-9536484D02*
X6941491Y-9536484D01*
X6941491Y-9536484D02*
X6855777Y-9736484D01*
X7027206Y-9736484D02*
X7065301Y-9736484D01*
X7065301Y-9736484D02*
X7084348Y-9726960D01*
X7084348Y-9726960D02*
X7093872Y-9717436D01*
X7093872Y-9717436D02*
X7112920Y-9688865D01*
X7112920Y-9688865D02*
X7122444Y-9650770D01*
X7122444Y-9650770D02*
X7122444Y-9574579D01*
X7122444Y-9574579D02*
X7112920Y-9555531D01*
X7112920Y-9555531D02*
X7103396Y-9546008D01*
X7103396Y-9546008D02*
X7084348Y-9536484D01*
X7084348Y-9536484D02*
X7046253Y-9536484D01*
X7046253Y-9536484D02*
X7027206Y-9546008D01*
X7027206Y-9546008D02*
X7017682Y-9555531D01*
X7017682Y-9555531D02*
X7008158Y-9574579D01*
X7008158Y-9574579D02*
X7008158Y-9622198D01*
X7008158Y-9622198D02*
X7017682Y-9641246D01*
X7017682Y-9641246D02*
X7027206Y-9650770D01*
X7027206Y-9650770D02*
X7046253Y-9660293D01*
X7046253Y-9660293D02*
X7084348Y-9660293D01*
X7084348Y-9660293D02*
X7103396Y-9650770D01*
X7103396Y-9650770D02*
X7112920Y-9641246D01*
X7112920Y-9641246D02*
X7122444Y-9622198D01*
X7198634Y-9536484D02*
X7198634Y-9574579D01*
X7274825Y-9536484D02*
X7274825Y-9574579D01*
X7570063Y-9812674D02*
X7560539Y-9803150D01*
X7560539Y-9803150D02*
X7541491Y-9774579D01*
X7541491Y-9774579D02*
X7531968Y-9755531D01*
X7531968Y-9755531D02*
X7522444Y-9726960D01*
X7522444Y-9726960D02*
X7512920Y-9679341D01*
X7512920Y-9679341D02*
X7512920Y-9641246D01*
X7512920Y-9641246D02*
X7522444Y-9593627D01*
X7522444Y-9593627D02*
X7531968Y-9565055D01*
X7531968Y-9565055D02*
X7541491Y-9546008D01*
X7541491Y-9546008D02*
X7560539Y-9517436D01*
X7560539Y-9517436D02*
X7570063Y-9507912D01*
X7636729Y-9555531D02*
X7646253Y-9546008D01*
X7646253Y-9546008D02*
X7665301Y-9536484D01*
X7665301Y-9536484D02*
X7712920Y-9536484D01*
X7712920Y-9536484D02*
X7731968Y-9546008D01*
X7731968Y-9546008D02*
X7741491Y-9555531D01*
X7741491Y-9555531D02*
X7751015Y-9574579D01*
X7751015Y-9574579D02*
X7751015Y-9593627D01*
X7751015Y-9593627D02*
X7741491Y-9622198D01*
X7741491Y-9622198D02*
X7627206Y-9736484D01*
X7627206Y-9736484D02*
X7751015Y-9736484D01*
X7941491Y-9736484D02*
X7827206Y-9736484D01*
X7884348Y-9736484D02*
X7884348Y-9536484D01*
X7884348Y-9536484D02*
X7865301Y-9565055D01*
X7865301Y-9565055D02*
X7846253Y-9584103D01*
X7846253Y-9584103D02*
X7827206Y-9593627D01*
X8055777Y-9622198D02*
X8036729Y-9612674D01*
X8036729Y-9612674D02*
X8027206Y-9603150D01*
X8027206Y-9603150D02*
X8017682Y-9584103D01*
X8017682Y-9584103D02*
X8017682Y-9574579D01*
X8017682Y-9574579D02*
X8027206Y-9555531D01*
X8027206Y-9555531D02*
X8036729Y-9546008D01*
X8036729Y-9546008D02*
X8055777Y-9536484D01*
X8055777Y-9536484D02*
X8093872Y-9536484D01*
X8093872Y-9536484D02*
X8112920Y-9546008D01*
X8112920Y-9546008D02*
X8122444Y-9555531D01*
X8122444Y-9555531D02*
X8131968Y-9574579D01*
X8131968Y-9574579D02*
X8131968Y-9584103D01*
X8131968Y-9584103D02*
X8122444Y-9603150D01*
X8122444Y-9603150D02*
X8112920Y-9612674D01*
X8112920Y-9612674D02*
X8093872Y-9622198D01*
X8093872Y-9622198D02*
X8055777Y-9622198D01*
X8055777Y-9622198D02*
X8036729Y-9631722D01*
X8036729Y-9631722D02*
X8027206Y-9641246D01*
X8027206Y-9641246D02*
X8017682Y-9660293D01*
X8017682Y-9660293D02*
X8017682Y-9698389D01*
X8017682Y-9698389D02*
X8027206Y-9717436D01*
X8027206Y-9717436D02*
X8036729Y-9726960D01*
X8036729Y-9726960D02*
X8055777Y-9736484D01*
X8055777Y-9736484D02*
X8093872Y-9736484D01*
X8093872Y-9736484D02*
X8112920Y-9726960D01*
X8112920Y-9726960D02*
X8122444Y-9717436D01*
X8122444Y-9717436D02*
X8131968Y-9698389D01*
X8131968Y-9698389D02*
X8131968Y-9660293D01*
X8131968Y-9660293D02*
X8122444Y-9641246D01*
X8122444Y-9641246D02*
X8112920Y-9631722D01*
X8112920Y-9631722D02*
X8093872Y-9622198D01*
X8370063Y-9736484D02*
X8370063Y-9536484D01*
X8455777Y-9736484D02*
X8455777Y-9631722D01*
X8455777Y-9631722D02*
X8446253Y-9612674D01*
X8446253Y-9612674D02*
X8427206Y-9603150D01*
X8427206Y-9603150D02*
X8398634Y-9603150D01*
X8398634Y-9603150D02*
X8379587Y-9612674D01*
X8379587Y-9612674D02*
X8370063Y-9622198D01*
X8579587Y-9736484D02*
X8560539Y-9726960D01*
X8560539Y-9726960D02*
X8551015Y-9717436D01*
X8551015Y-9717436D02*
X8541492Y-9698389D01*
X8541492Y-9698389D02*
X8541492Y-9641246D01*
X8541492Y-9641246D02*
X8551015Y-9622198D01*
X8551015Y-9622198D02*
X8560539Y-9612674D01*
X8560539Y-9612674D02*
X8579587Y-9603150D01*
X8579587Y-9603150D02*
X8608158Y-9603150D01*
X8608158Y-9603150D02*
X8627206Y-9612674D01*
X8627206Y-9612674D02*
X8636730Y-9622198D01*
X8636730Y-9622198D02*
X8646253Y-9641246D01*
X8646253Y-9641246D02*
X8646253Y-9698389D01*
X8646253Y-9698389D02*
X8636730Y-9717436D01*
X8636730Y-9717436D02*
X8627206Y-9726960D01*
X8627206Y-9726960D02*
X8608158Y-9736484D01*
X8608158Y-9736484D02*
X8579587Y-9736484D01*
X8760539Y-9736484D02*
X8741492Y-9726960D01*
X8741492Y-9726960D02*
X8731968Y-9707912D01*
X8731968Y-9707912D02*
X8731968Y-9536484D01*
X8912920Y-9726960D02*
X8893873Y-9736484D01*
X8893873Y-9736484D02*
X8855777Y-9736484D01*
X8855777Y-9736484D02*
X8836730Y-9726960D01*
X8836730Y-9726960D02*
X8827206Y-9707912D01*
X8827206Y-9707912D02*
X8827206Y-9631722D01*
X8827206Y-9631722D02*
X8836730Y-9612674D01*
X8836730Y-9612674D02*
X8855777Y-9603150D01*
X8855777Y-9603150D02*
X8893873Y-9603150D01*
X8893873Y-9603150D02*
X8912920Y-9612674D01*
X8912920Y-9612674D02*
X8922444Y-9631722D01*
X8922444Y-9631722D02*
X8922444Y-9650770D01*
X8922444Y-9650770D02*
X8827206Y-9669817D01*
X8998634Y-9726960D02*
X9017682Y-9736484D01*
X9017682Y-9736484D02*
X9055777Y-9736484D01*
X9055777Y-9736484D02*
X9074825Y-9726960D01*
X9074825Y-9726960D02*
X9084349Y-9707912D01*
X9084349Y-9707912D02*
X9084349Y-9698389D01*
X9084349Y-9698389D02*
X9074825Y-9679341D01*
X9074825Y-9679341D02*
X9055777Y-9669817D01*
X9055777Y-9669817D02*
X9027206Y-9669817D01*
X9027206Y-9669817D02*
X9008158Y-9660293D01*
X9008158Y-9660293D02*
X8998634Y-9641246D01*
X8998634Y-9641246D02*
X8998634Y-9631722D01*
X8998634Y-9631722D02*
X9008158Y-9612674D01*
X9008158Y-9612674D02*
X9027206Y-9603150D01*
X9027206Y-9603150D02*
X9055777Y-9603150D01*
X9055777Y-9603150D02*
X9074825Y-9612674D01*
X9151015Y-9812674D02*
X9160539Y-9803150D01*
X9160539Y-9803150D02*
X9179587Y-9774579D01*
X9179587Y-9774579D02*
X9189111Y-9755531D01*
X9189111Y-9755531D02*
X9198634Y-9726960D01*
X9198634Y-9726960D02*
X9208158Y-9679341D01*
X9208158Y-9679341D02*
X9208158Y-9641246D01*
X9208158Y-9641246D02*
X9198634Y-9593627D01*
X9198634Y-9593627D02*
X9189111Y-9565055D01*
X9189111Y-9565055D02*
X9179587Y-9546008D01*
X9179587Y-9546008D02*
X9160539Y-9517436D01*
X9160539Y-9517436D02*
X9151015Y-9507912D01*
D10*
X3995000Y-9909000D02*
G75*
G02*
X3965000Y-9909000I-15000J0D01*
G01*
X3965000Y-9909000D02*
G75*
G02*
X3995000Y-9909000I15000J0D01*
G01*
D11*
X4293872Y-9800484D02*
X4312920Y-9800484D01*
X4312920Y-9800484D02*
X4331967Y-9810008D01*
X4331967Y-9810008D02*
X4341491Y-9819531D01*
X4341491Y-9819531D02*
X4351015Y-9838579D01*
X4351015Y-9838579D02*
X4360539Y-9876674D01*
X4360539Y-9876674D02*
X4360539Y-9924293D01*
X4360539Y-9924293D02*
X4351015Y-9962389D01*
X4351015Y-9962389D02*
X4341491Y-9981436D01*
X4341491Y-9981436D02*
X4331967Y-9990960D01*
X4331967Y-9990960D02*
X4312920Y-10000484D01*
X4312920Y-10000484D02*
X4293872Y-10000484D01*
X4293872Y-10000484D02*
X4274824Y-9990960D01*
X4274824Y-9990960D02*
X4265301Y-9981436D01*
X4265301Y-9981436D02*
X4255777Y-9962389D01*
X4255777Y-9962389D02*
X4246253Y-9924293D01*
X4246253Y-9924293D02*
X4246253Y-9876674D01*
X4246253Y-9876674D02*
X4255777Y-9838579D01*
X4255777Y-9838579D02*
X4265301Y-9819531D01*
X4265301Y-9819531D02*
X4274824Y-9810008D01*
X4274824Y-9810008D02*
X4293872Y-9800484D01*
X4446253Y-9981436D02*
X4455777Y-9990960D01*
X4455777Y-9990960D02*
X4446253Y-10000484D01*
X4446253Y-10000484D02*
X4436729Y-9990960D01*
X4436729Y-9990960D02*
X4446253Y-9981436D01*
X4446253Y-9981436D02*
X4446253Y-10000484D01*
X4522444Y-9800484D02*
X4646253Y-9800484D01*
X4646253Y-9800484D02*
X4579586Y-9876674D01*
X4579586Y-9876674D02*
X4608158Y-9876674D01*
X4608158Y-9876674D02*
X4627205Y-9886198D01*
X4627205Y-9886198D02*
X4636729Y-9895722D01*
X4636729Y-9895722D02*
X4646253Y-9914770D01*
X4646253Y-9914770D02*
X4646253Y-9962389D01*
X4646253Y-9962389D02*
X4636729Y-9981436D01*
X4636729Y-9981436D02*
X4627205Y-9990960D01*
X4627205Y-9990960D02*
X4608158Y-10000484D01*
X4608158Y-10000484D02*
X4551015Y-10000484D01*
X4551015Y-10000484D02*
X4531967Y-9990960D01*
X4531967Y-9990960D02*
X4522444Y-9981436D01*
X4770063Y-9800484D02*
X4789110Y-9800484D01*
X4789110Y-9800484D02*
X4808158Y-9810008D01*
X4808158Y-9810008D02*
X4817682Y-9819531D01*
X4817682Y-9819531D02*
X4827205Y-9838579D01*
X4827205Y-9838579D02*
X4836729Y-9876674D01*
X4836729Y-9876674D02*
X4836729Y-9924293D01*
X4836729Y-9924293D02*
X4827205Y-9962389D01*
X4827205Y-9962389D02*
X4817682Y-9981436D01*
X4817682Y-9981436D02*
X4808158Y-9990960D01*
X4808158Y-9990960D02*
X4789110Y-10000484D01*
X4789110Y-10000484D02*
X4770063Y-10000484D01*
X4770063Y-10000484D02*
X4751015Y-9990960D01*
X4751015Y-9990960D02*
X4741491Y-9981436D01*
X4741491Y-9981436D02*
X4731967Y-9962389D01*
X4731967Y-9962389D02*
X4722444Y-9924293D01*
X4722444Y-9924293D02*
X4722444Y-9876674D01*
X4722444Y-9876674D02*
X4731967Y-9838579D01*
X4731967Y-9838579D02*
X4741491Y-9819531D01*
X4741491Y-9819531D02*
X4751015Y-9810008D01*
X4751015Y-9810008D02*
X4770063Y-9800484D01*
X4960539Y-9800484D02*
X4979586Y-9800484D01*
X4979586Y-9800484D02*
X4998634Y-9810008D01*
X4998634Y-9810008D02*
X5008158Y-9819531D01*
X5008158Y-9819531D02*
X5017682Y-9838579D01*
X5017682Y-9838579D02*
X5027205Y-9876674D01*
X5027205Y-9876674D02*
X5027205Y-9924293D01*
X5027205Y-9924293D02*
X5017682Y-9962389D01*
X5017682Y-9962389D02*
X5008158Y-9981436D01*
X5008158Y-9981436D02*
X4998634Y-9990960D01*
X4998634Y-9990960D02*
X4979586Y-10000484D01*
X4979586Y-10000484D02*
X4960539Y-10000484D01*
X4960539Y-10000484D02*
X4941491Y-9990960D01*
X4941491Y-9990960D02*
X4931967Y-9981436D01*
X4931967Y-9981436D02*
X4922444Y-9962389D01*
X4922444Y-9962389D02*
X4912920Y-9924293D01*
X4912920Y-9924293D02*
X4912920Y-9876674D01*
X4912920Y-9876674D02*
X4922444Y-9838579D01*
X4922444Y-9838579D02*
X4931967Y-9819531D01*
X4931967Y-9819531D02*
X4941491Y-9810008D01*
X4941491Y-9810008D02*
X4960539Y-9800484D01*
X5112920Y-10000484D02*
X5112920Y-9867150D01*
X5112920Y-9886198D02*
X5122444Y-9876674D01*
X5122444Y-9876674D02*
X5141491Y-9867150D01*
X5141491Y-9867150D02*
X5170063Y-9867150D01*
X5170063Y-9867150D02*
X5189110Y-9876674D01*
X5189110Y-9876674D02*
X5198634Y-9895722D01*
X5198634Y-9895722D02*
X5198634Y-10000484D01*
X5198634Y-9895722D02*
X5208158Y-9876674D01*
X5208158Y-9876674D02*
X5227205Y-9867150D01*
X5227205Y-9867150D02*
X5255777Y-9867150D01*
X5255777Y-9867150D02*
X5274825Y-9876674D01*
X5274825Y-9876674D02*
X5284348Y-9895722D01*
X5284348Y-9895722D02*
X5284348Y-10000484D01*
X5379586Y-10000484D02*
X5379586Y-9867150D01*
X5379586Y-9886198D02*
X5389110Y-9876674D01*
X5389110Y-9876674D02*
X5408158Y-9867150D01*
X5408158Y-9867150D02*
X5436729Y-9867150D01*
X5436729Y-9867150D02*
X5455777Y-9876674D01*
X5455777Y-9876674D02*
X5465301Y-9895722D01*
X5465301Y-9895722D02*
X5465301Y-10000484D01*
X5465301Y-9895722D02*
X5474825Y-9876674D01*
X5474825Y-9876674D02*
X5493872Y-9867150D01*
X5493872Y-9867150D02*
X5522444Y-9867150D01*
X5522444Y-9867150D02*
X5541491Y-9876674D01*
X5541491Y-9876674D02*
X5551015Y-9895722D01*
X5551015Y-9895722D02*
X5551015Y-10000484D01*
X5941491Y-9790960D02*
X5770063Y-10048103D01*
X6198634Y-9800484D02*
X6217682Y-9800484D01*
X6217682Y-9800484D02*
X6236729Y-9810008D01*
X6236729Y-9810008D02*
X6246253Y-9819531D01*
X6246253Y-9819531D02*
X6255777Y-9838579D01*
X6255777Y-9838579D02*
X6265301Y-9876674D01*
X6265301Y-9876674D02*
X6265301Y-9924293D01*
X6265301Y-9924293D02*
X6255777Y-9962389D01*
X6255777Y-9962389D02*
X6246253Y-9981436D01*
X6246253Y-9981436D02*
X6236729Y-9990960D01*
X6236729Y-9990960D02*
X6217682Y-10000484D01*
X6217682Y-10000484D02*
X6198634Y-10000484D01*
X6198634Y-10000484D02*
X6179586Y-9990960D01*
X6179586Y-9990960D02*
X6170063Y-9981436D01*
X6170063Y-9981436D02*
X6160539Y-9962389D01*
X6160539Y-9962389D02*
X6151015Y-9924293D01*
X6151015Y-9924293D02*
X6151015Y-9876674D01*
X6151015Y-9876674D02*
X6160539Y-9838579D01*
X6160539Y-9838579D02*
X6170063Y-9819531D01*
X6170063Y-9819531D02*
X6179586Y-9810008D01*
X6179586Y-9810008D02*
X6198634Y-9800484D01*
X6351015Y-9981436D02*
X6360539Y-9990960D01*
X6360539Y-9990960D02*
X6351015Y-10000484D01*
X6351015Y-10000484D02*
X6341491Y-9990960D01*
X6341491Y-9990960D02*
X6351015Y-9981436D01*
X6351015Y-9981436D02*
X6351015Y-10000484D01*
X6484348Y-9800484D02*
X6503396Y-9800484D01*
X6503396Y-9800484D02*
X6522444Y-9810008D01*
X6522444Y-9810008D02*
X6531967Y-9819531D01*
X6531967Y-9819531D02*
X6541491Y-9838579D01*
X6541491Y-9838579D02*
X6551015Y-9876674D01*
X6551015Y-9876674D02*
X6551015Y-9924293D01*
X6551015Y-9924293D02*
X6541491Y-9962389D01*
X6541491Y-9962389D02*
X6531967Y-9981436D01*
X6531967Y-9981436D02*
X6522444Y-9990960D01*
X6522444Y-9990960D02*
X6503396Y-10000484D01*
X6503396Y-10000484D02*
X6484348Y-10000484D01*
X6484348Y-10000484D02*
X6465301Y-9990960D01*
X6465301Y-9990960D02*
X6455777Y-9981436D01*
X6455777Y-9981436D02*
X6446253Y-9962389D01*
X6446253Y-9962389D02*
X6436729Y-9924293D01*
X6436729Y-9924293D02*
X6436729Y-9876674D01*
X6436729Y-9876674D02*
X6446253Y-9838579D01*
X6446253Y-9838579D02*
X6455777Y-9819531D01*
X6455777Y-9819531D02*
X6465301Y-9810008D01*
X6465301Y-9810008D02*
X6484348Y-9800484D01*
X6741491Y-10000484D02*
X6627206Y-10000484D01*
X6684348Y-10000484D02*
X6684348Y-9800484D01*
X6684348Y-9800484D02*
X6665301Y-9829055D01*
X6665301Y-9829055D02*
X6646253Y-9848103D01*
X6646253Y-9848103D02*
X6627206Y-9857627D01*
X6931967Y-10000484D02*
X6817682Y-10000484D01*
X6874825Y-10000484D02*
X6874825Y-9800484D01*
X6874825Y-9800484D02*
X6855777Y-9829055D01*
X6855777Y-9829055D02*
X6836729Y-9848103D01*
X6836729Y-9848103D02*
X6817682Y-9857627D01*
X7046253Y-9886198D02*
X7027206Y-9876674D01*
X7027206Y-9876674D02*
X7017682Y-9867150D01*
X7017682Y-9867150D02*
X7008158Y-9848103D01*
X7008158Y-9848103D02*
X7008158Y-9838579D01*
X7008158Y-9838579D02*
X7017682Y-9819531D01*
X7017682Y-9819531D02*
X7027206Y-9810008D01*
X7027206Y-9810008D02*
X7046253Y-9800484D01*
X7046253Y-9800484D02*
X7084348Y-9800484D01*
X7084348Y-9800484D02*
X7103396Y-9810008D01*
X7103396Y-9810008D02*
X7112920Y-9819531D01*
X7112920Y-9819531D02*
X7122444Y-9838579D01*
X7122444Y-9838579D02*
X7122444Y-9848103D01*
X7122444Y-9848103D02*
X7112920Y-9867150D01*
X7112920Y-9867150D02*
X7103396Y-9876674D01*
X7103396Y-9876674D02*
X7084348Y-9886198D01*
X7084348Y-9886198D02*
X7046253Y-9886198D01*
X7046253Y-9886198D02*
X7027206Y-9895722D01*
X7027206Y-9895722D02*
X7017682Y-9905246D01*
X7017682Y-9905246D02*
X7008158Y-9924293D01*
X7008158Y-9924293D02*
X7008158Y-9962389D01*
X7008158Y-9962389D02*
X7017682Y-9981436D01*
X7017682Y-9981436D02*
X7027206Y-9990960D01*
X7027206Y-9990960D02*
X7046253Y-10000484D01*
X7046253Y-10000484D02*
X7084348Y-10000484D01*
X7084348Y-10000484D02*
X7103396Y-9990960D01*
X7103396Y-9990960D02*
X7112920Y-9981436D01*
X7112920Y-9981436D02*
X7122444Y-9962389D01*
X7122444Y-9962389D02*
X7122444Y-9924293D01*
X7122444Y-9924293D02*
X7112920Y-9905246D01*
X7112920Y-9905246D02*
X7103396Y-9895722D01*
X7103396Y-9895722D02*
X7084348Y-9886198D01*
X7198634Y-9800484D02*
X7198634Y-9838579D01*
X7274825Y-9800484D02*
X7274825Y-9838579D01*
X7570063Y-10076674D02*
X7560539Y-10067150D01*
X7560539Y-10067150D02*
X7541491Y-10038579D01*
X7541491Y-10038579D02*
X7531968Y-10019531D01*
X7531968Y-10019531D02*
X7522444Y-9990960D01*
X7522444Y-9990960D02*
X7512920Y-9943341D01*
X7512920Y-9943341D02*
X7512920Y-9905246D01*
X7512920Y-9905246D02*
X7522444Y-9857627D01*
X7522444Y-9857627D02*
X7531968Y-9829055D01*
X7531968Y-9829055D02*
X7541491Y-9810008D01*
X7541491Y-9810008D02*
X7560539Y-9781436D01*
X7560539Y-9781436D02*
X7570063Y-9771912D01*
X7751015Y-10000484D02*
X7636729Y-10000484D01*
X7693872Y-10000484D02*
X7693872Y-9800484D01*
X7693872Y-9800484D02*
X7674825Y-9829055D01*
X7674825Y-9829055D02*
X7655777Y-9848103D01*
X7655777Y-9848103D02*
X7636729Y-9857627D01*
X7941491Y-10000484D02*
X7827206Y-10000484D01*
X7884348Y-10000484D02*
X7884348Y-9800484D01*
X7884348Y-9800484D02*
X7865301Y-9829055D01*
X7865301Y-9829055D02*
X7846253Y-9848103D01*
X7846253Y-9848103D02*
X7827206Y-9857627D01*
X8179587Y-10000484D02*
X8179587Y-9800484D01*
X8265301Y-10000484D02*
X8265301Y-9895722D01*
X8265301Y-9895722D02*
X8255777Y-9876674D01*
X8255777Y-9876674D02*
X8236730Y-9867150D01*
X8236730Y-9867150D02*
X8208158Y-9867150D01*
X8208158Y-9867150D02*
X8189110Y-9876674D01*
X8189110Y-9876674D02*
X8179587Y-9886198D01*
X8389111Y-10000484D02*
X8370063Y-9990960D01*
X8370063Y-9990960D02*
X8360539Y-9981436D01*
X8360539Y-9981436D02*
X8351015Y-9962389D01*
X8351015Y-9962389D02*
X8351015Y-9905246D01*
X8351015Y-9905246D02*
X8360539Y-9886198D01*
X8360539Y-9886198D02*
X8370063Y-9876674D01*
X8370063Y-9876674D02*
X8389111Y-9867150D01*
X8389111Y-9867150D02*
X8417682Y-9867150D01*
X8417682Y-9867150D02*
X8436730Y-9876674D01*
X8436730Y-9876674D02*
X8446253Y-9886198D01*
X8446253Y-9886198D02*
X8455777Y-9905246D01*
X8455777Y-9905246D02*
X8455777Y-9962389D01*
X8455777Y-9962389D02*
X8446253Y-9981436D01*
X8446253Y-9981436D02*
X8436730Y-9990960D01*
X8436730Y-9990960D02*
X8417682Y-10000484D01*
X8417682Y-10000484D02*
X8389111Y-10000484D01*
X8570063Y-10000484D02*
X8551015Y-9990960D01*
X8551015Y-9990960D02*
X8541492Y-9971912D01*
X8541492Y-9971912D02*
X8541492Y-9800484D01*
X8722444Y-9990960D02*
X8703396Y-10000484D01*
X8703396Y-10000484D02*
X8665301Y-10000484D01*
X8665301Y-10000484D02*
X8646253Y-9990960D01*
X8646253Y-9990960D02*
X8636730Y-9971912D01*
X8636730Y-9971912D02*
X8636730Y-9895722D01*
X8636730Y-9895722D02*
X8646253Y-9876674D01*
X8646253Y-9876674D02*
X8665301Y-9867150D01*
X8665301Y-9867150D02*
X8703396Y-9867150D01*
X8703396Y-9867150D02*
X8722444Y-9876674D01*
X8722444Y-9876674D02*
X8731968Y-9895722D01*
X8731968Y-9895722D02*
X8731968Y-9914770D01*
X8731968Y-9914770D02*
X8636730Y-9933817D01*
X8808158Y-9990960D02*
X8827206Y-10000484D01*
X8827206Y-10000484D02*
X8865301Y-10000484D01*
X8865301Y-10000484D02*
X8884349Y-9990960D01*
X8884349Y-9990960D02*
X8893873Y-9971912D01*
X8893873Y-9971912D02*
X8893873Y-9962389D01*
X8893873Y-9962389D02*
X8884349Y-9943341D01*
X8884349Y-9943341D02*
X8865301Y-9933817D01*
X8865301Y-9933817D02*
X8836730Y-9933817D01*
X8836730Y-9933817D02*
X8817682Y-9924293D01*
X8817682Y-9924293D02*
X8808158Y-9905246D01*
X8808158Y-9905246D02*
X8808158Y-9895722D01*
X8808158Y-9895722D02*
X8817682Y-9876674D01*
X8817682Y-9876674D02*
X8836730Y-9867150D01*
X8836730Y-9867150D02*
X8865301Y-9867150D01*
X8865301Y-9867150D02*
X8884349Y-9876674D01*
X8960539Y-10076674D02*
X8970063Y-10067150D01*
X8970063Y-10067150D02*
X8989111Y-10038579D01*
X8989111Y-10038579D02*
X8998634Y-10019531D01*
X8998634Y-10019531D02*
X9008158Y-9990960D01*
X9008158Y-9990960D02*
X9017682Y-9943341D01*
X9017682Y-9943341D02*
X9017682Y-9905246D01*
X9017682Y-9905246D02*
X9008158Y-9857627D01*
X9008158Y-9857627D02*
X8998634Y-9829055D01*
X8998634Y-9829055D02*
X8989111Y-9810008D01*
X8989111Y-9810008D02*
X8970063Y-9781436D01*
X8970063Y-9781436D02*
X8960539Y-9771912D01*
D10*
X3965000Y-10143000D02*
X3965000Y-10203000D01*
X3935000Y-10173000D02*
X3995000Y-10173000D01*
D11*
X4293872Y-10064484D02*
X4312920Y-10064484D01*
X4312920Y-10064484D02*
X4331967Y-10074008D01*
X4331967Y-10074008D02*
X4341491Y-10083531D01*
X4341491Y-10083531D02*
X4351015Y-10102579D01*
X4351015Y-10102579D02*
X4360539Y-10140674D01*
X4360539Y-10140674D02*
X4360539Y-10188293D01*
X4360539Y-10188293D02*
X4351015Y-10226389D01*
X4351015Y-10226389D02*
X4341491Y-10245436D01*
X4341491Y-10245436D02*
X4331967Y-10254960D01*
X4331967Y-10254960D02*
X4312920Y-10264484D01*
X4312920Y-10264484D02*
X4293872Y-10264484D01*
X4293872Y-10264484D02*
X4274824Y-10254960D01*
X4274824Y-10254960D02*
X4265301Y-10245436D01*
X4265301Y-10245436D02*
X4255777Y-10226389D01*
X4255777Y-10226389D02*
X4246253Y-10188293D01*
X4246253Y-10188293D02*
X4246253Y-10140674D01*
X4246253Y-10140674D02*
X4255777Y-10102579D01*
X4255777Y-10102579D02*
X4265301Y-10083531D01*
X4265301Y-10083531D02*
X4274824Y-10074008D01*
X4274824Y-10074008D02*
X4293872Y-10064484D01*
X4446253Y-10245436D02*
X4455777Y-10254960D01*
X4455777Y-10254960D02*
X4446253Y-10264484D01*
X4446253Y-10264484D02*
X4436729Y-10254960D01*
X4436729Y-10254960D02*
X4446253Y-10245436D01*
X4446253Y-10245436D02*
X4446253Y-10264484D01*
X4627205Y-10064484D02*
X4589110Y-10064484D01*
X4589110Y-10064484D02*
X4570063Y-10074008D01*
X4570063Y-10074008D02*
X4560539Y-10083531D01*
X4560539Y-10083531D02*
X4541491Y-10112103D01*
X4541491Y-10112103D02*
X4531967Y-10150198D01*
X4531967Y-10150198D02*
X4531967Y-10226389D01*
X4531967Y-10226389D02*
X4541491Y-10245436D01*
X4541491Y-10245436D02*
X4551015Y-10254960D01*
X4551015Y-10254960D02*
X4570063Y-10264484D01*
X4570063Y-10264484D02*
X4608158Y-10264484D01*
X4608158Y-10264484D02*
X4627205Y-10254960D01*
X4627205Y-10254960D02*
X4636729Y-10245436D01*
X4636729Y-10245436D02*
X4646253Y-10226389D01*
X4646253Y-10226389D02*
X4646253Y-10178770D01*
X4646253Y-10178770D02*
X4636729Y-10159722D01*
X4636729Y-10159722D02*
X4627205Y-10150198D01*
X4627205Y-10150198D02*
X4608158Y-10140674D01*
X4608158Y-10140674D02*
X4570063Y-10140674D01*
X4570063Y-10140674D02*
X4551015Y-10150198D01*
X4551015Y-10150198D02*
X4541491Y-10159722D01*
X4541491Y-10159722D02*
X4531967Y-10178770D01*
X4770063Y-10064484D02*
X4789110Y-10064484D01*
X4789110Y-10064484D02*
X4808158Y-10074008D01*
X4808158Y-10074008D02*
X4817682Y-10083531D01*
X4817682Y-10083531D02*
X4827205Y-10102579D01*
X4827205Y-10102579D02*
X4836729Y-10140674D01*
X4836729Y-10140674D02*
X4836729Y-10188293D01*
X4836729Y-10188293D02*
X4827205Y-10226389D01*
X4827205Y-10226389D02*
X4817682Y-10245436D01*
X4817682Y-10245436D02*
X4808158Y-10254960D01*
X4808158Y-10254960D02*
X4789110Y-10264484D01*
X4789110Y-10264484D02*
X4770063Y-10264484D01*
X4770063Y-10264484D02*
X4751015Y-10254960D01*
X4751015Y-10254960D02*
X4741491Y-10245436D01*
X4741491Y-10245436D02*
X4731967Y-10226389D01*
X4731967Y-10226389D02*
X4722444Y-10188293D01*
X4722444Y-10188293D02*
X4722444Y-10140674D01*
X4722444Y-10140674D02*
X4731967Y-10102579D01*
X4731967Y-10102579D02*
X4741491Y-10083531D01*
X4741491Y-10083531D02*
X4751015Y-10074008D01*
X4751015Y-10074008D02*
X4770063Y-10064484D01*
X4960539Y-10064484D02*
X4979586Y-10064484D01*
X4979586Y-10064484D02*
X4998634Y-10074008D01*
X4998634Y-10074008D02*
X5008158Y-10083531D01*
X5008158Y-10083531D02*
X5017682Y-10102579D01*
X5017682Y-10102579D02*
X5027205Y-10140674D01*
X5027205Y-10140674D02*
X5027205Y-10188293D01*
X5027205Y-10188293D02*
X5017682Y-10226389D01*
X5017682Y-10226389D02*
X5008158Y-10245436D01*
X5008158Y-10245436D02*
X4998634Y-10254960D01*
X4998634Y-10254960D02*
X4979586Y-10264484D01*
X4979586Y-10264484D02*
X4960539Y-10264484D01*
X4960539Y-10264484D02*
X4941491Y-10254960D01*
X4941491Y-10254960D02*
X4931967Y-10245436D01*
X4931967Y-10245436D02*
X4922444Y-10226389D01*
X4922444Y-10226389D02*
X4912920Y-10188293D01*
X4912920Y-10188293D02*
X4912920Y-10140674D01*
X4912920Y-10140674D02*
X4922444Y-10102579D01*
X4922444Y-10102579D02*
X4931967Y-10083531D01*
X4931967Y-10083531D02*
X4941491Y-10074008D01*
X4941491Y-10074008D02*
X4960539Y-10064484D01*
X5112920Y-10264484D02*
X5112920Y-10131150D01*
X5112920Y-10150198D02*
X5122444Y-10140674D01*
X5122444Y-10140674D02*
X5141491Y-10131150D01*
X5141491Y-10131150D02*
X5170063Y-10131150D01*
X5170063Y-10131150D02*
X5189110Y-10140674D01*
X5189110Y-10140674D02*
X5198634Y-10159722D01*
X5198634Y-10159722D02*
X5198634Y-10264484D01*
X5198634Y-10159722D02*
X5208158Y-10140674D01*
X5208158Y-10140674D02*
X5227205Y-10131150D01*
X5227205Y-10131150D02*
X5255777Y-10131150D01*
X5255777Y-10131150D02*
X5274825Y-10140674D01*
X5274825Y-10140674D02*
X5284348Y-10159722D01*
X5284348Y-10159722D02*
X5284348Y-10264484D01*
X5379586Y-10264484D02*
X5379586Y-10131150D01*
X5379586Y-10150198D02*
X5389110Y-10140674D01*
X5389110Y-10140674D02*
X5408158Y-10131150D01*
X5408158Y-10131150D02*
X5436729Y-10131150D01*
X5436729Y-10131150D02*
X5455777Y-10140674D01*
X5455777Y-10140674D02*
X5465301Y-10159722D01*
X5465301Y-10159722D02*
X5465301Y-10264484D01*
X5465301Y-10159722D02*
X5474825Y-10140674D01*
X5474825Y-10140674D02*
X5493872Y-10131150D01*
X5493872Y-10131150D02*
X5522444Y-10131150D01*
X5522444Y-10131150D02*
X5541491Y-10140674D01*
X5541491Y-10140674D02*
X5551015Y-10159722D01*
X5551015Y-10159722D02*
X5551015Y-10264484D01*
X5941491Y-10054960D02*
X5770063Y-10312103D01*
X6198634Y-10064484D02*
X6217682Y-10064484D01*
X6217682Y-10064484D02*
X6236729Y-10074008D01*
X6236729Y-10074008D02*
X6246253Y-10083531D01*
X6246253Y-10083531D02*
X6255777Y-10102579D01*
X6255777Y-10102579D02*
X6265301Y-10140674D01*
X6265301Y-10140674D02*
X6265301Y-10188293D01*
X6265301Y-10188293D02*
X6255777Y-10226389D01*
X6255777Y-10226389D02*
X6246253Y-10245436D01*
X6246253Y-10245436D02*
X6236729Y-10254960D01*
X6236729Y-10254960D02*
X6217682Y-10264484D01*
X6217682Y-10264484D02*
X6198634Y-10264484D01*
X6198634Y-10264484D02*
X6179586Y-10254960D01*
X6179586Y-10254960D02*
X6170063Y-10245436D01*
X6170063Y-10245436D02*
X6160539Y-10226389D01*
X6160539Y-10226389D02*
X6151015Y-10188293D01*
X6151015Y-10188293D02*
X6151015Y-10140674D01*
X6151015Y-10140674D02*
X6160539Y-10102579D01*
X6160539Y-10102579D02*
X6170063Y-10083531D01*
X6170063Y-10083531D02*
X6179586Y-10074008D01*
X6179586Y-10074008D02*
X6198634Y-10064484D01*
X6351015Y-10245436D02*
X6360539Y-10254960D01*
X6360539Y-10254960D02*
X6351015Y-10264484D01*
X6351015Y-10264484D02*
X6341491Y-10254960D01*
X6341491Y-10254960D02*
X6351015Y-10245436D01*
X6351015Y-10245436D02*
X6351015Y-10264484D01*
X6484348Y-10064484D02*
X6503396Y-10064484D01*
X6503396Y-10064484D02*
X6522444Y-10074008D01*
X6522444Y-10074008D02*
X6531967Y-10083531D01*
X6531967Y-10083531D02*
X6541491Y-10102579D01*
X6541491Y-10102579D02*
X6551015Y-10140674D01*
X6551015Y-10140674D02*
X6551015Y-10188293D01*
X6551015Y-10188293D02*
X6541491Y-10226389D01*
X6541491Y-10226389D02*
X6531967Y-10245436D01*
X6531967Y-10245436D02*
X6522444Y-10254960D01*
X6522444Y-10254960D02*
X6503396Y-10264484D01*
X6503396Y-10264484D02*
X6484348Y-10264484D01*
X6484348Y-10264484D02*
X6465301Y-10254960D01*
X6465301Y-10254960D02*
X6455777Y-10245436D01*
X6455777Y-10245436D02*
X6446253Y-10226389D01*
X6446253Y-10226389D02*
X6436729Y-10188293D01*
X6436729Y-10188293D02*
X6436729Y-10140674D01*
X6436729Y-10140674D02*
X6446253Y-10102579D01*
X6446253Y-10102579D02*
X6455777Y-10083531D01*
X6455777Y-10083531D02*
X6465301Y-10074008D01*
X6465301Y-10074008D02*
X6484348Y-10064484D01*
X6627206Y-10083531D02*
X6636729Y-10074008D01*
X6636729Y-10074008D02*
X6655777Y-10064484D01*
X6655777Y-10064484D02*
X6703396Y-10064484D01*
X6703396Y-10064484D02*
X6722444Y-10074008D01*
X6722444Y-10074008D02*
X6731967Y-10083531D01*
X6731967Y-10083531D02*
X6741491Y-10102579D01*
X6741491Y-10102579D02*
X6741491Y-10121627D01*
X6741491Y-10121627D02*
X6731967Y-10150198D01*
X6731967Y-10150198D02*
X6617682Y-10264484D01*
X6617682Y-10264484D02*
X6741491Y-10264484D01*
X6808158Y-10064484D02*
X6931967Y-10064484D01*
X6931967Y-10064484D02*
X6865301Y-10140674D01*
X6865301Y-10140674D02*
X6893872Y-10140674D01*
X6893872Y-10140674D02*
X6912920Y-10150198D01*
X6912920Y-10150198D02*
X6922444Y-10159722D01*
X6922444Y-10159722D02*
X6931967Y-10178770D01*
X6931967Y-10178770D02*
X6931967Y-10226389D01*
X6931967Y-10226389D02*
X6922444Y-10245436D01*
X6922444Y-10245436D02*
X6912920Y-10254960D01*
X6912920Y-10254960D02*
X6893872Y-10264484D01*
X6893872Y-10264484D02*
X6836729Y-10264484D01*
X6836729Y-10264484D02*
X6817682Y-10254960D01*
X6817682Y-10254960D02*
X6808158Y-10245436D01*
X7103396Y-10064484D02*
X7065301Y-10064484D01*
X7065301Y-10064484D02*
X7046253Y-10074008D01*
X7046253Y-10074008D02*
X7036729Y-10083531D01*
X7036729Y-10083531D02*
X7017682Y-10112103D01*
X7017682Y-10112103D02*
X7008158Y-10150198D01*
X7008158Y-10150198D02*
X7008158Y-10226389D01*
X7008158Y-10226389D02*
X7017682Y-10245436D01*
X7017682Y-10245436D02*
X7027206Y-10254960D01*
X7027206Y-10254960D02*
X7046253Y-10264484D01*
X7046253Y-10264484D02*
X7084348Y-10264484D01*
X7084348Y-10264484D02*
X7103396Y-10254960D01*
X7103396Y-10254960D02*
X7112920Y-10245436D01*
X7112920Y-10245436D02*
X7122444Y-10226389D01*
X7122444Y-10226389D02*
X7122444Y-10178770D01*
X7122444Y-10178770D02*
X7112920Y-10159722D01*
X7112920Y-10159722D02*
X7103396Y-10150198D01*
X7103396Y-10150198D02*
X7084348Y-10140674D01*
X7084348Y-10140674D02*
X7046253Y-10140674D01*
X7046253Y-10140674D02*
X7027206Y-10150198D01*
X7027206Y-10150198D02*
X7017682Y-10159722D01*
X7017682Y-10159722D02*
X7008158Y-10178770D01*
X7198634Y-10064484D02*
X7198634Y-10102579D01*
X7274825Y-10064484D02*
X7274825Y-10102579D01*
X7570063Y-10340674D02*
X7560539Y-10331150D01*
X7560539Y-10331150D02*
X7541491Y-10302579D01*
X7541491Y-10302579D02*
X7531968Y-10283531D01*
X7531968Y-10283531D02*
X7522444Y-10254960D01*
X7522444Y-10254960D02*
X7512920Y-10207341D01*
X7512920Y-10207341D02*
X7512920Y-10169246D01*
X7512920Y-10169246D02*
X7522444Y-10121627D01*
X7522444Y-10121627D02*
X7531968Y-10093055D01*
X7531968Y-10093055D02*
X7541491Y-10074008D01*
X7541491Y-10074008D02*
X7560539Y-10045436D01*
X7560539Y-10045436D02*
X7570063Y-10035912D01*
X7684348Y-10064484D02*
X7703396Y-10064484D01*
X7703396Y-10064484D02*
X7722444Y-10074008D01*
X7722444Y-10074008D02*
X7731968Y-10083531D01*
X7731968Y-10083531D02*
X7741491Y-10102579D01*
X7741491Y-10102579D02*
X7751015Y-10140674D01*
X7751015Y-10140674D02*
X7751015Y-10188293D01*
X7751015Y-10188293D02*
X7741491Y-10226389D01*
X7741491Y-10226389D02*
X7731968Y-10245436D01*
X7731968Y-10245436D02*
X7722444Y-10254960D01*
X7722444Y-10254960D02*
X7703396Y-10264484D01*
X7703396Y-10264484D02*
X7684348Y-10264484D01*
X7684348Y-10264484D02*
X7665301Y-10254960D01*
X7665301Y-10254960D02*
X7655777Y-10245436D01*
X7655777Y-10245436D02*
X7646253Y-10226389D01*
X7646253Y-10226389D02*
X7636729Y-10188293D01*
X7636729Y-10188293D02*
X7636729Y-10140674D01*
X7636729Y-10140674D02*
X7646253Y-10102579D01*
X7646253Y-10102579D02*
X7655777Y-10083531D01*
X7655777Y-10083531D02*
X7665301Y-10074008D01*
X7665301Y-10074008D02*
X7684348Y-10064484D01*
X7989110Y-10264484D02*
X7989110Y-10064484D01*
X8074825Y-10264484D02*
X8074825Y-10159722D01*
X8074825Y-10159722D02*
X8065301Y-10140674D01*
X8065301Y-10140674D02*
X8046253Y-10131150D01*
X8046253Y-10131150D02*
X8017682Y-10131150D01*
X8017682Y-10131150D02*
X7998634Y-10140674D01*
X7998634Y-10140674D02*
X7989110Y-10150198D01*
X8198634Y-10264484D02*
X8179587Y-10254960D01*
X8179587Y-10254960D02*
X8170063Y-10245436D01*
X8170063Y-10245436D02*
X8160539Y-10226389D01*
X8160539Y-10226389D02*
X8160539Y-10169246D01*
X8160539Y-10169246D02*
X8170063Y-10150198D01*
X8170063Y-10150198D02*
X8179587Y-10140674D01*
X8179587Y-10140674D02*
X8198634Y-10131150D01*
X8198634Y-10131150D02*
X8227206Y-10131150D01*
X8227206Y-10131150D02*
X8246253Y-10140674D01*
X8246253Y-10140674D02*
X8255777Y-10150198D01*
X8255777Y-10150198D02*
X8265301Y-10169246D01*
X8265301Y-10169246D02*
X8265301Y-10226389D01*
X8265301Y-10226389D02*
X8255777Y-10245436D01*
X8255777Y-10245436D02*
X8246253Y-10254960D01*
X8246253Y-10254960D02*
X8227206Y-10264484D01*
X8227206Y-10264484D02*
X8198634Y-10264484D01*
X8379587Y-10264484D02*
X8360539Y-10254960D01*
X8360539Y-10254960D02*
X8351015Y-10235912D01*
X8351015Y-10235912D02*
X8351015Y-10064484D01*
X8531968Y-10254960D02*
X8512920Y-10264484D01*
X8512920Y-10264484D02*
X8474825Y-10264484D01*
X8474825Y-10264484D02*
X8455777Y-10254960D01*
X8455777Y-10254960D02*
X8446253Y-10235912D01*
X8446253Y-10235912D02*
X8446253Y-10159722D01*
X8446253Y-10159722D02*
X8455777Y-10140674D01*
X8455777Y-10140674D02*
X8474825Y-10131150D01*
X8474825Y-10131150D02*
X8512920Y-10131150D01*
X8512920Y-10131150D02*
X8531968Y-10140674D01*
X8531968Y-10140674D02*
X8541492Y-10159722D01*
X8541492Y-10159722D02*
X8541492Y-10178770D01*
X8541492Y-10178770D02*
X8446253Y-10197817D01*
X8617682Y-10254960D02*
X8636730Y-10264484D01*
X8636730Y-10264484D02*
X8674825Y-10264484D01*
X8674825Y-10264484D02*
X8693873Y-10254960D01*
X8693873Y-10254960D02*
X8703396Y-10235912D01*
X8703396Y-10235912D02*
X8703396Y-10226389D01*
X8703396Y-10226389D02*
X8693873Y-10207341D01*
X8693873Y-10207341D02*
X8674825Y-10197817D01*
X8674825Y-10197817D02*
X8646253Y-10197817D01*
X8646253Y-10197817D02*
X8627206Y-10188293D01*
X8627206Y-10188293D02*
X8617682Y-10169246D01*
X8617682Y-10169246D02*
X8617682Y-10159722D01*
X8617682Y-10159722D02*
X8627206Y-10140674D01*
X8627206Y-10140674D02*
X8646253Y-10131150D01*
X8646253Y-10131150D02*
X8674825Y-10131150D01*
X8674825Y-10131150D02*
X8693873Y-10140674D01*
X8941492Y-10188293D02*
X9093873Y-10188293D01*
X9017682Y-10264484D02*
X9017682Y-10112103D01*
X9427206Y-10131150D02*
X9427206Y-10264484D01*
X9379587Y-10054960D02*
X9331968Y-10197817D01*
X9331968Y-10197817D02*
X9455777Y-10197817D01*
X9674825Y-10254960D02*
X9693873Y-10264484D01*
X9693873Y-10264484D02*
X9731968Y-10264484D01*
X9731968Y-10264484D02*
X9751016Y-10254960D01*
X9751016Y-10254960D02*
X9760539Y-10235912D01*
X9760539Y-10235912D02*
X9760539Y-10226389D01*
X9760539Y-10226389D02*
X9751016Y-10207341D01*
X9751016Y-10207341D02*
X9731968Y-10197817D01*
X9731968Y-10197817D02*
X9703396Y-10197817D01*
X9703396Y-10197817D02*
X9684349Y-10188293D01*
X9684349Y-10188293D02*
X9674825Y-10169246D01*
X9674825Y-10169246D02*
X9674825Y-10159722D01*
X9674825Y-10159722D02*
X9684349Y-10140674D01*
X9684349Y-10140674D02*
X9703396Y-10131150D01*
X9703396Y-10131150D02*
X9731968Y-10131150D01*
X9731968Y-10131150D02*
X9751016Y-10140674D01*
X9874825Y-10264484D02*
X9855777Y-10254960D01*
X9855777Y-10254960D02*
X9846254Y-10235912D01*
X9846254Y-10235912D02*
X9846254Y-10064484D01*
X9979587Y-10264484D02*
X9960539Y-10254960D01*
X9960539Y-10254960D02*
X9951016Y-10245436D01*
X9951016Y-10245436D02*
X9941492Y-10226389D01*
X9941492Y-10226389D02*
X9941492Y-10169246D01*
X9941492Y-10169246D02*
X9951016Y-10150198D01*
X9951016Y-10150198D02*
X9960539Y-10140674D01*
X9960539Y-10140674D02*
X9979587Y-10131150D01*
X9979587Y-10131150D02*
X10008158Y-10131150D01*
X10008158Y-10131150D02*
X10027206Y-10140674D01*
X10027206Y-10140674D02*
X10036730Y-10150198D01*
X10036730Y-10150198D02*
X10046254Y-10169246D01*
X10046254Y-10169246D02*
X10046254Y-10226389D01*
X10046254Y-10226389D02*
X10036730Y-10245436D01*
X10036730Y-10245436D02*
X10027206Y-10254960D01*
X10027206Y-10254960D02*
X10008158Y-10264484D01*
X10008158Y-10264484D02*
X9979587Y-10264484D01*
X10103397Y-10131150D02*
X10179587Y-10131150D01*
X10131968Y-10064484D02*
X10131968Y-10235912D01*
X10131968Y-10235912D02*
X10141492Y-10254960D01*
X10141492Y-10254960D02*
X10160539Y-10264484D01*
X10160539Y-10264484D02*
X10179587Y-10264484D01*
X10236730Y-10254960D02*
X10255777Y-10264484D01*
X10255777Y-10264484D02*
X10293873Y-10264484D01*
X10293873Y-10264484D02*
X10312920Y-10254960D01*
X10312920Y-10254960D02*
X10322444Y-10235912D01*
X10322444Y-10235912D02*
X10322444Y-10226389D01*
X10322444Y-10226389D02*
X10312920Y-10207341D01*
X10312920Y-10207341D02*
X10293873Y-10197817D01*
X10293873Y-10197817D02*
X10265301Y-10197817D01*
X10265301Y-10197817D02*
X10246254Y-10188293D01*
X10246254Y-10188293D02*
X10236730Y-10169246D01*
X10236730Y-10169246D02*
X10236730Y-10159722D01*
X10236730Y-10159722D02*
X10246254Y-10140674D01*
X10246254Y-10140674D02*
X10265301Y-10131150D01*
X10265301Y-10131150D02*
X10293873Y-10131150D01*
X10293873Y-10131150D02*
X10312920Y-10140674D01*
X10389111Y-10340674D02*
X10398635Y-10331150D01*
X10398635Y-10331150D02*
X10417682Y-10302579D01*
X10417682Y-10302579D02*
X10427206Y-10283531D01*
X10427206Y-10283531D02*
X10436730Y-10254960D01*
X10436730Y-10254960D02*
X10446254Y-10207341D01*
X10446254Y-10207341D02*
X10446254Y-10169246D01*
X10446254Y-10169246D02*
X10436730Y-10121627D01*
X10436730Y-10121627D02*
X10427206Y-10093055D01*
X10427206Y-10093055D02*
X10417682Y-10074008D01*
X10417682Y-10074008D02*
X10398635Y-10045436D01*
X10398635Y-10045436D02*
X10389111Y-10035912D01*
D10*
X3985481Y-10459981D02*
X3985481Y-10414019D01*
X3939519Y-10414019D01*
X3939519Y-10459981D01*
X3985481Y-10459981D01*
D11*
X4293872Y-10328484D02*
X4312920Y-10328484D01*
X4312920Y-10328484D02*
X4331967Y-10338008D01*
X4331967Y-10338008D02*
X4341491Y-10347531D01*
X4341491Y-10347531D02*
X4351015Y-10366579D01*
X4351015Y-10366579D02*
X4360539Y-10404674D01*
X4360539Y-10404674D02*
X4360539Y-10452293D01*
X4360539Y-10452293D02*
X4351015Y-10490389D01*
X4351015Y-10490389D02*
X4341491Y-10509436D01*
X4341491Y-10509436D02*
X4331967Y-10518960D01*
X4331967Y-10518960D02*
X4312920Y-10528484D01*
X4312920Y-10528484D02*
X4293872Y-10528484D01*
X4293872Y-10528484D02*
X4274824Y-10518960D01*
X4274824Y-10518960D02*
X4265301Y-10509436D01*
X4265301Y-10509436D02*
X4255777Y-10490389D01*
X4255777Y-10490389D02*
X4246253Y-10452293D01*
X4246253Y-10452293D02*
X4246253Y-10404674D01*
X4246253Y-10404674D02*
X4255777Y-10366579D01*
X4255777Y-10366579D02*
X4265301Y-10347531D01*
X4265301Y-10347531D02*
X4274824Y-10338008D01*
X4274824Y-10338008D02*
X4293872Y-10328484D01*
X4446253Y-10509436D02*
X4455777Y-10518960D01*
X4455777Y-10518960D02*
X4446253Y-10528484D01*
X4446253Y-10528484D02*
X4436729Y-10518960D01*
X4436729Y-10518960D02*
X4446253Y-10509436D01*
X4446253Y-10509436D02*
X4446253Y-10528484D01*
X4627205Y-10328484D02*
X4589110Y-10328484D01*
X4589110Y-10328484D02*
X4570063Y-10338008D01*
X4570063Y-10338008D02*
X4560539Y-10347531D01*
X4560539Y-10347531D02*
X4541491Y-10376103D01*
X4541491Y-10376103D02*
X4531967Y-10414198D01*
X4531967Y-10414198D02*
X4531967Y-10490389D01*
X4531967Y-10490389D02*
X4541491Y-10509436D01*
X4541491Y-10509436D02*
X4551015Y-10518960D01*
X4551015Y-10518960D02*
X4570063Y-10528484D01*
X4570063Y-10528484D02*
X4608158Y-10528484D01*
X4608158Y-10528484D02*
X4627205Y-10518960D01*
X4627205Y-10518960D02*
X4636729Y-10509436D01*
X4636729Y-10509436D02*
X4646253Y-10490389D01*
X4646253Y-10490389D02*
X4646253Y-10442770D01*
X4646253Y-10442770D02*
X4636729Y-10423722D01*
X4636729Y-10423722D02*
X4627205Y-10414198D01*
X4627205Y-10414198D02*
X4608158Y-10404674D01*
X4608158Y-10404674D02*
X4570063Y-10404674D01*
X4570063Y-10404674D02*
X4551015Y-10414198D01*
X4551015Y-10414198D02*
X4541491Y-10423722D01*
X4541491Y-10423722D02*
X4531967Y-10442770D01*
X4827205Y-10328484D02*
X4731967Y-10328484D01*
X4731967Y-10328484D02*
X4722444Y-10423722D01*
X4722444Y-10423722D02*
X4731967Y-10414198D01*
X4731967Y-10414198D02*
X4751015Y-10404674D01*
X4751015Y-10404674D02*
X4798634Y-10404674D01*
X4798634Y-10404674D02*
X4817682Y-10414198D01*
X4817682Y-10414198D02*
X4827205Y-10423722D01*
X4827205Y-10423722D02*
X4836729Y-10442770D01*
X4836729Y-10442770D02*
X4836729Y-10490389D01*
X4836729Y-10490389D02*
X4827205Y-10509436D01*
X4827205Y-10509436D02*
X4817682Y-10518960D01*
X4817682Y-10518960D02*
X4798634Y-10528484D01*
X4798634Y-10528484D02*
X4751015Y-10528484D01*
X4751015Y-10528484D02*
X4731967Y-10518960D01*
X4731967Y-10518960D02*
X4722444Y-10509436D01*
X4960539Y-10328484D02*
X4979586Y-10328484D01*
X4979586Y-10328484D02*
X4998634Y-10338008D01*
X4998634Y-10338008D02*
X5008158Y-10347531D01*
X5008158Y-10347531D02*
X5017682Y-10366579D01*
X5017682Y-10366579D02*
X5027205Y-10404674D01*
X5027205Y-10404674D02*
X5027205Y-10452293D01*
X5027205Y-10452293D02*
X5017682Y-10490389D01*
X5017682Y-10490389D02*
X5008158Y-10509436D01*
X5008158Y-10509436D02*
X4998634Y-10518960D01*
X4998634Y-10518960D02*
X4979586Y-10528484D01*
X4979586Y-10528484D02*
X4960539Y-10528484D01*
X4960539Y-10528484D02*
X4941491Y-10518960D01*
X4941491Y-10518960D02*
X4931967Y-10509436D01*
X4931967Y-10509436D02*
X4922444Y-10490389D01*
X4922444Y-10490389D02*
X4912920Y-10452293D01*
X4912920Y-10452293D02*
X4912920Y-10404674D01*
X4912920Y-10404674D02*
X4922444Y-10366579D01*
X4922444Y-10366579D02*
X4931967Y-10347531D01*
X4931967Y-10347531D02*
X4941491Y-10338008D01*
X4941491Y-10338008D02*
X4960539Y-10328484D01*
X5112920Y-10528484D02*
X5112920Y-10395150D01*
X5112920Y-10414198D02*
X5122444Y-10404674D01*
X5122444Y-10404674D02*
X5141491Y-10395150D01*
X5141491Y-10395150D02*
X5170063Y-10395150D01*
X5170063Y-10395150D02*
X5189110Y-10404674D01*
X5189110Y-10404674D02*
X5198634Y-10423722D01*
X5198634Y-10423722D02*
X5198634Y-10528484D01*
X5198634Y-10423722D02*
X5208158Y-10404674D01*
X5208158Y-10404674D02*
X5227205Y-10395150D01*
X5227205Y-10395150D02*
X5255777Y-10395150D01*
X5255777Y-10395150D02*
X5274825Y-10404674D01*
X5274825Y-10404674D02*
X5284348Y-10423722D01*
X5284348Y-10423722D02*
X5284348Y-10528484D01*
X5379586Y-10528484D02*
X5379586Y-10395150D01*
X5379586Y-10414198D02*
X5389110Y-10404674D01*
X5389110Y-10404674D02*
X5408158Y-10395150D01*
X5408158Y-10395150D02*
X5436729Y-10395150D01*
X5436729Y-10395150D02*
X5455777Y-10404674D01*
X5455777Y-10404674D02*
X5465301Y-10423722D01*
X5465301Y-10423722D02*
X5465301Y-10528484D01*
X5465301Y-10423722D02*
X5474825Y-10404674D01*
X5474825Y-10404674D02*
X5493872Y-10395150D01*
X5493872Y-10395150D02*
X5522444Y-10395150D01*
X5522444Y-10395150D02*
X5541491Y-10404674D01*
X5541491Y-10404674D02*
X5551015Y-10423722D01*
X5551015Y-10423722D02*
X5551015Y-10528484D01*
X5941491Y-10318960D02*
X5770063Y-10576103D01*
X6198634Y-10328484D02*
X6217682Y-10328484D01*
X6217682Y-10328484D02*
X6236729Y-10338008D01*
X6236729Y-10338008D02*
X6246253Y-10347531D01*
X6246253Y-10347531D02*
X6255777Y-10366579D01*
X6255777Y-10366579D02*
X6265301Y-10404674D01*
X6265301Y-10404674D02*
X6265301Y-10452293D01*
X6265301Y-10452293D02*
X6255777Y-10490389D01*
X6255777Y-10490389D02*
X6246253Y-10509436D01*
X6246253Y-10509436D02*
X6236729Y-10518960D01*
X6236729Y-10518960D02*
X6217682Y-10528484D01*
X6217682Y-10528484D02*
X6198634Y-10528484D01*
X6198634Y-10528484D02*
X6179586Y-10518960D01*
X6179586Y-10518960D02*
X6170063Y-10509436D01*
X6170063Y-10509436D02*
X6160539Y-10490389D01*
X6160539Y-10490389D02*
X6151015Y-10452293D01*
X6151015Y-10452293D02*
X6151015Y-10404674D01*
X6151015Y-10404674D02*
X6160539Y-10366579D01*
X6160539Y-10366579D02*
X6170063Y-10347531D01*
X6170063Y-10347531D02*
X6179586Y-10338008D01*
X6179586Y-10338008D02*
X6198634Y-10328484D01*
X6351015Y-10509436D02*
X6360539Y-10518960D01*
X6360539Y-10518960D02*
X6351015Y-10528484D01*
X6351015Y-10528484D02*
X6341491Y-10518960D01*
X6341491Y-10518960D02*
X6351015Y-10509436D01*
X6351015Y-10509436D02*
X6351015Y-10528484D01*
X6484348Y-10328484D02*
X6503396Y-10328484D01*
X6503396Y-10328484D02*
X6522444Y-10338008D01*
X6522444Y-10338008D02*
X6531967Y-10347531D01*
X6531967Y-10347531D02*
X6541491Y-10366579D01*
X6541491Y-10366579D02*
X6551015Y-10404674D01*
X6551015Y-10404674D02*
X6551015Y-10452293D01*
X6551015Y-10452293D02*
X6541491Y-10490389D01*
X6541491Y-10490389D02*
X6531967Y-10509436D01*
X6531967Y-10509436D02*
X6522444Y-10518960D01*
X6522444Y-10518960D02*
X6503396Y-10528484D01*
X6503396Y-10528484D02*
X6484348Y-10528484D01*
X6484348Y-10528484D02*
X6465301Y-10518960D01*
X6465301Y-10518960D02*
X6455777Y-10509436D01*
X6455777Y-10509436D02*
X6446253Y-10490389D01*
X6446253Y-10490389D02*
X6436729Y-10452293D01*
X6436729Y-10452293D02*
X6436729Y-10404674D01*
X6436729Y-10404674D02*
X6446253Y-10366579D01*
X6446253Y-10366579D02*
X6455777Y-10347531D01*
X6455777Y-10347531D02*
X6465301Y-10338008D01*
X6465301Y-10338008D02*
X6484348Y-10328484D01*
X6627206Y-10347531D02*
X6636729Y-10338008D01*
X6636729Y-10338008D02*
X6655777Y-10328484D01*
X6655777Y-10328484D02*
X6703396Y-10328484D01*
X6703396Y-10328484D02*
X6722444Y-10338008D01*
X6722444Y-10338008D02*
X6731967Y-10347531D01*
X6731967Y-10347531D02*
X6741491Y-10366579D01*
X6741491Y-10366579D02*
X6741491Y-10385627D01*
X6741491Y-10385627D02*
X6731967Y-10414198D01*
X6731967Y-10414198D02*
X6617682Y-10528484D01*
X6617682Y-10528484D02*
X6741491Y-10528484D01*
X6922444Y-10328484D02*
X6827206Y-10328484D01*
X6827206Y-10328484D02*
X6817682Y-10423722D01*
X6817682Y-10423722D02*
X6827206Y-10414198D01*
X6827206Y-10414198D02*
X6846253Y-10404674D01*
X6846253Y-10404674D02*
X6893872Y-10404674D01*
X6893872Y-10404674D02*
X6912920Y-10414198D01*
X6912920Y-10414198D02*
X6922444Y-10423722D01*
X6922444Y-10423722D02*
X6931967Y-10442770D01*
X6931967Y-10442770D02*
X6931967Y-10490389D01*
X6931967Y-10490389D02*
X6922444Y-10509436D01*
X6922444Y-10509436D02*
X6912920Y-10518960D01*
X6912920Y-10518960D02*
X6893872Y-10528484D01*
X6893872Y-10528484D02*
X6846253Y-10528484D01*
X6846253Y-10528484D02*
X6827206Y-10518960D01*
X6827206Y-10518960D02*
X6817682Y-10509436D01*
X7103396Y-10328484D02*
X7065301Y-10328484D01*
X7065301Y-10328484D02*
X7046253Y-10338008D01*
X7046253Y-10338008D02*
X7036729Y-10347531D01*
X7036729Y-10347531D02*
X7017682Y-10376103D01*
X7017682Y-10376103D02*
X7008158Y-10414198D01*
X7008158Y-10414198D02*
X7008158Y-10490389D01*
X7008158Y-10490389D02*
X7017682Y-10509436D01*
X7017682Y-10509436D02*
X7027206Y-10518960D01*
X7027206Y-10518960D02*
X7046253Y-10528484D01*
X7046253Y-10528484D02*
X7084348Y-10528484D01*
X7084348Y-10528484D02*
X7103396Y-10518960D01*
X7103396Y-10518960D02*
X7112920Y-10509436D01*
X7112920Y-10509436D02*
X7122444Y-10490389D01*
X7122444Y-10490389D02*
X7122444Y-10442770D01*
X7122444Y-10442770D02*
X7112920Y-10423722D01*
X7112920Y-10423722D02*
X7103396Y-10414198D01*
X7103396Y-10414198D02*
X7084348Y-10404674D01*
X7084348Y-10404674D02*
X7046253Y-10404674D01*
X7046253Y-10404674D02*
X7027206Y-10414198D01*
X7027206Y-10414198D02*
X7017682Y-10423722D01*
X7017682Y-10423722D02*
X7008158Y-10442770D01*
X7198634Y-10328484D02*
X7198634Y-10366579D01*
X7274825Y-10328484D02*
X7274825Y-10366579D01*
X7570063Y-10604674D02*
X7560539Y-10595150D01*
X7560539Y-10595150D02*
X7541491Y-10566579D01*
X7541491Y-10566579D02*
X7531968Y-10547531D01*
X7531968Y-10547531D02*
X7522444Y-10518960D01*
X7522444Y-10518960D02*
X7512920Y-10471341D01*
X7512920Y-10471341D02*
X7512920Y-10433246D01*
X7512920Y-10433246D02*
X7522444Y-10385627D01*
X7522444Y-10385627D02*
X7531968Y-10357055D01*
X7531968Y-10357055D02*
X7541491Y-10338008D01*
X7541491Y-10338008D02*
X7560539Y-10309436D01*
X7560539Y-10309436D02*
X7570063Y-10299912D01*
X7684348Y-10328484D02*
X7703396Y-10328484D01*
X7703396Y-10328484D02*
X7722444Y-10338008D01*
X7722444Y-10338008D02*
X7731968Y-10347531D01*
X7731968Y-10347531D02*
X7741491Y-10366579D01*
X7741491Y-10366579D02*
X7751015Y-10404674D01*
X7751015Y-10404674D02*
X7751015Y-10452293D01*
X7751015Y-10452293D02*
X7741491Y-10490389D01*
X7741491Y-10490389D02*
X7731968Y-10509436D01*
X7731968Y-10509436D02*
X7722444Y-10518960D01*
X7722444Y-10518960D02*
X7703396Y-10528484D01*
X7703396Y-10528484D02*
X7684348Y-10528484D01*
X7684348Y-10528484D02*
X7665301Y-10518960D01*
X7665301Y-10518960D02*
X7655777Y-10509436D01*
X7655777Y-10509436D02*
X7646253Y-10490389D01*
X7646253Y-10490389D02*
X7636729Y-10452293D01*
X7636729Y-10452293D02*
X7636729Y-10404674D01*
X7636729Y-10404674D02*
X7646253Y-10366579D01*
X7646253Y-10366579D02*
X7655777Y-10347531D01*
X7655777Y-10347531D02*
X7665301Y-10338008D01*
X7665301Y-10338008D02*
X7684348Y-10328484D01*
X7989110Y-10528484D02*
X7989110Y-10328484D01*
X8074825Y-10528484D02*
X8074825Y-10423722D01*
X8074825Y-10423722D02*
X8065301Y-10404674D01*
X8065301Y-10404674D02*
X8046253Y-10395150D01*
X8046253Y-10395150D02*
X8017682Y-10395150D01*
X8017682Y-10395150D02*
X7998634Y-10404674D01*
X7998634Y-10404674D02*
X7989110Y-10414198D01*
X8198634Y-10528484D02*
X8179587Y-10518960D01*
X8179587Y-10518960D02*
X8170063Y-10509436D01*
X8170063Y-10509436D02*
X8160539Y-10490389D01*
X8160539Y-10490389D02*
X8160539Y-10433246D01*
X8160539Y-10433246D02*
X8170063Y-10414198D01*
X8170063Y-10414198D02*
X8179587Y-10404674D01*
X8179587Y-10404674D02*
X8198634Y-10395150D01*
X8198634Y-10395150D02*
X8227206Y-10395150D01*
X8227206Y-10395150D02*
X8246253Y-10404674D01*
X8246253Y-10404674D02*
X8255777Y-10414198D01*
X8255777Y-10414198D02*
X8265301Y-10433246D01*
X8265301Y-10433246D02*
X8265301Y-10490389D01*
X8265301Y-10490389D02*
X8255777Y-10509436D01*
X8255777Y-10509436D02*
X8246253Y-10518960D01*
X8246253Y-10518960D02*
X8227206Y-10528484D01*
X8227206Y-10528484D02*
X8198634Y-10528484D01*
X8379587Y-10528484D02*
X8360539Y-10518960D01*
X8360539Y-10518960D02*
X8351015Y-10499912D01*
X8351015Y-10499912D02*
X8351015Y-10328484D01*
X8531968Y-10518960D02*
X8512920Y-10528484D01*
X8512920Y-10528484D02*
X8474825Y-10528484D01*
X8474825Y-10528484D02*
X8455777Y-10518960D01*
X8455777Y-10518960D02*
X8446253Y-10499912D01*
X8446253Y-10499912D02*
X8446253Y-10423722D01*
X8446253Y-10423722D02*
X8455777Y-10404674D01*
X8455777Y-10404674D02*
X8474825Y-10395150D01*
X8474825Y-10395150D02*
X8512920Y-10395150D01*
X8512920Y-10395150D02*
X8531968Y-10404674D01*
X8531968Y-10404674D02*
X8541492Y-10423722D01*
X8541492Y-10423722D02*
X8541492Y-10442770D01*
X8541492Y-10442770D02*
X8446253Y-10461817D01*
X8617682Y-10518960D02*
X8636730Y-10528484D01*
X8636730Y-10528484D02*
X8674825Y-10528484D01*
X8674825Y-10528484D02*
X8693873Y-10518960D01*
X8693873Y-10518960D02*
X8703396Y-10499912D01*
X8703396Y-10499912D02*
X8703396Y-10490389D01*
X8703396Y-10490389D02*
X8693873Y-10471341D01*
X8693873Y-10471341D02*
X8674825Y-10461817D01*
X8674825Y-10461817D02*
X8646253Y-10461817D01*
X8646253Y-10461817D02*
X8627206Y-10452293D01*
X8627206Y-10452293D02*
X8617682Y-10433246D01*
X8617682Y-10433246D02*
X8617682Y-10423722D01*
X8617682Y-10423722D02*
X8627206Y-10404674D01*
X8627206Y-10404674D02*
X8646253Y-10395150D01*
X8646253Y-10395150D02*
X8674825Y-10395150D01*
X8674825Y-10395150D02*
X8693873Y-10404674D01*
X8941492Y-10452293D02*
X9093873Y-10452293D01*
X9017682Y-10528484D02*
X9017682Y-10376103D01*
X9331968Y-10347531D02*
X9341492Y-10338008D01*
X9341492Y-10338008D02*
X9360539Y-10328484D01*
X9360539Y-10328484D02*
X9408158Y-10328484D01*
X9408158Y-10328484D02*
X9427206Y-10338008D01*
X9427206Y-10338008D02*
X9436730Y-10347531D01*
X9436730Y-10347531D02*
X9446254Y-10366579D01*
X9446254Y-10366579D02*
X9446254Y-10385627D01*
X9446254Y-10385627D02*
X9436730Y-10414198D01*
X9436730Y-10414198D02*
X9322444Y-10528484D01*
X9322444Y-10528484D02*
X9446254Y-10528484D01*
X9674825Y-10518960D02*
X9693873Y-10528484D01*
X9693873Y-10528484D02*
X9731968Y-10528484D01*
X9731968Y-10528484D02*
X9751016Y-10518960D01*
X9751016Y-10518960D02*
X9760539Y-10499912D01*
X9760539Y-10499912D02*
X9760539Y-10490389D01*
X9760539Y-10490389D02*
X9751016Y-10471341D01*
X9751016Y-10471341D02*
X9731968Y-10461817D01*
X9731968Y-10461817D02*
X9703396Y-10461817D01*
X9703396Y-10461817D02*
X9684349Y-10452293D01*
X9684349Y-10452293D02*
X9674825Y-10433246D01*
X9674825Y-10433246D02*
X9674825Y-10423722D01*
X9674825Y-10423722D02*
X9684349Y-10404674D01*
X9684349Y-10404674D02*
X9703396Y-10395150D01*
X9703396Y-10395150D02*
X9731968Y-10395150D01*
X9731968Y-10395150D02*
X9751016Y-10404674D01*
X9874825Y-10528484D02*
X9855777Y-10518960D01*
X9855777Y-10518960D02*
X9846254Y-10499912D01*
X9846254Y-10499912D02*
X9846254Y-10328484D01*
X9979587Y-10528484D02*
X9960539Y-10518960D01*
X9960539Y-10518960D02*
X9951016Y-10509436D01*
X9951016Y-10509436D02*
X9941492Y-10490389D01*
X9941492Y-10490389D02*
X9941492Y-10433246D01*
X9941492Y-10433246D02*
X9951016Y-10414198D01*
X9951016Y-10414198D02*
X9960539Y-10404674D01*
X9960539Y-10404674D02*
X9979587Y-10395150D01*
X9979587Y-10395150D02*
X10008158Y-10395150D01*
X10008158Y-10395150D02*
X10027206Y-10404674D01*
X10027206Y-10404674D02*
X10036730Y-10414198D01*
X10036730Y-10414198D02*
X10046254Y-10433246D01*
X10046254Y-10433246D02*
X10046254Y-10490389D01*
X10046254Y-10490389D02*
X10036730Y-10509436D01*
X10036730Y-10509436D02*
X10027206Y-10518960D01*
X10027206Y-10518960D02*
X10008158Y-10528484D01*
X10008158Y-10528484D02*
X9979587Y-10528484D01*
X10103397Y-10395150D02*
X10179587Y-10395150D01*
X10131968Y-10328484D02*
X10131968Y-10499912D01*
X10131968Y-10499912D02*
X10141492Y-10518960D01*
X10141492Y-10518960D02*
X10160539Y-10528484D01*
X10160539Y-10528484D02*
X10179587Y-10528484D01*
X10236730Y-10518960D02*
X10255777Y-10528484D01*
X10255777Y-10528484D02*
X10293873Y-10528484D01*
X10293873Y-10528484D02*
X10312920Y-10518960D01*
X10312920Y-10518960D02*
X10322444Y-10499912D01*
X10322444Y-10499912D02*
X10322444Y-10490389D01*
X10322444Y-10490389D02*
X10312920Y-10471341D01*
X10312920Y-10471341D02*
X10293873Y-10461817D01*
X10293873Y-10461817D02*
X10265301Y-10461817D01*
X10265301Y-10461817D02*
X10246254Y-10452293D01*
X10246254Y-10452293D02*
X10236730Y-10433246D01*
X10236730Y-10433246D02*
X10236730Y-10423722D01*
X10236730Y-10423722D02*
X10246254Y-10404674D01*
X10246254Y-10404674D02*
X10265301Y-10395150D01*
X10265301Y-10395150D02*
X10293873Y-10395150D01*
X10293873Y-10395150D02*
X10312920Y-10404674D01*
X10389111Y-10604674D02*
X10398635Y-10595150D01*
X10398635Y-10595150D02*
X10417682Y-10566579D01*
X10417682Y-10566579D02*
X10427206Y-10547531D01*
X10427206Y-10547531D02*
X10436730Y-10518960D01*
X10436730Y-10518960D02*
X10446254Y-10471341D01*
X10446254Y-10471341D02*
X10446254Y-10433246D01*
X10446254Y-10433246D02*
X10436730Y-10385627D01*
X10436730Y-10385627D02*
X10427206Y-10357055D01*
X10427206Y-10357055D02*
X10417682Y-10338008D01*
X10417682Y-10338008D02*
X10398635Y-10309436D01*
X10398635Y-10309436D02*
X10389111Y-10299912D01*
D10*
X3960000Y-10736000D02*
X3995000Y-10701000D01*
X3960000Y-10666000D01*
X3925000Y-10701000D01*
X3960000Y-10736000D01*
D11*
X4293872Y-10592484D02*
X4312920Y-10592484D01*
X4312920Y-10592484D02*
X4331967Y-10602008D01*
X4331967Y-10602008D02*
X4341491Y-10611531D01*
X4341491Y-10611531D02*
X4351015Y-10630579D01*
X4351015Y-10630579D02*
X4360539Y-10668674D01*
X4360539Y-10668674D02*
X4360539Y-10716293D01*
X4360539Y-10716293D02*
X4351015Y-10754389D01*
X4351015Y-10754389D02*
X4341491Y-10773436D01*
X4341491Y-10773436D02*
X4331967Y-10782960D01*
X4331967Y-10782960D02*
X4312920Y-10792484D01*
X4312920Y-10792484D02*
X4293872Y-10792484D01*
X4293872Y-10792484D02*
X4274824Y-10782960D01*
X4274824Y-10782960D02*
X4265301Y-10773436D01*
X4265301Y-10773436D02*
X4255777Y-10754389D01*
X4255777Y-10754389D02*
X4246253Y-10716293D01*
X4246253Y-10716293D02*
X4246253Y-10668674D01*
X4246253Y-10668674D02*
X4255777Y-10630579D01*
X4255777Y-10630579D02*
X4265301Y-10611531D01*
X4265301Y-10611531D02*
X4274824Y-10602008D01*
X4274824Y-10602008D02*
X4293872Y-10592484D01*
X4446253Y-10773436D02*
X4455777Y-10782960D01*
X4455777Y-10782960D02*
X4446253Y-10792484D01*
X4446253Y-10792484D02*
X4436729Y-10782960D01*
X4436729Y-10782960D02*
X4446253Y-10773436D01*
X4446253Y-10773436D02*
X4446253Y-10792484D01*
X4522444Y-10592484D02*
X4655777Y-10592484D01*
X4655777Y-10592484D02*
X4570063Y-10792484D01*
X4770063Y-10592484D02*
X4789110Y-10592484D01*
X4789110Y-10592484D02*
X4808158Y-10602008D01*
X4808158Y-10602008D02*
X4817682Y-10611531D01*
X4817682Y-10611531D02*
X4827205Y-10630579D01*
X4827205Y-10630579D02*
X4836729Y-10668674D01*
X4836729Y-10668674D02*
X4836729Y-10716293D01*
X4836729Y-10716293D02*
X4827205Y-10754389D01*
X4827205Y-10754389D02*
X4817682Y-10773436D01*
X4817682Y-10773436D02*
X4808158Y-10782960D01*
X4808158Y-10782960D02*
X4789110Y-10792484D01*
X4789110Y-10792484D02*
X4770063Y-10792484D01*
X4770063Y-10792484D02*
X4751015Y-10782960D01*
X4751015Y-10782960D02*
X4741491Y-10773436D01*
X4741491Y-10773436D02*
X4731967Y-10754389D01*
X4731967Y-10754389D02*
X4722444Y-10716293D01*
X4722444Y-10716293D02*
X4722444Y-10668674D01*
X4722444Y-10668674D02*
X4731967Y-10630579D01*
X4731967Y-10630579D02*
X4741491Y-10611531D01*
X4741491Y-10611531D02*
X4751015Y-10602008D01*
X4751015Y-10602008D02*
X4770063Y-10592484D01*
X4960539Y-10592484D02*
X4979586Y-10592484D01*
X4979586Y-10592484D02*
X4998634Y-10602008D01*
X4998634Y-10602008D02*
X5008158Y-10611531D01*
X5008158Y-10611531D02*
X5017682Y-10630579D01*
X5017682Y-10630579D02*
X5027205Y-10668674D01*
X5027205Y-10668674D02*
X5027205Y-10716293D01*
X5027205Y-10716293D02*
X5017682Y-10754389D01*
X5017682Y-10754389D02*
X5008158Y-10773436D01*
X5008158Y-10773436D02*
X4998634Y-10782960D01*
X4998634Y-10782960D02*
X4979586Y-10792484D01*
X4979586Y-10792484D02*
X4960539Y-10792484D01*
X4960539Y-10792484D02*
X4941491Y-10782960D01*
X4941491Y-10782960D02*
X4931967Y-10773436D01*
X4931967Y-10773436D02*
X4922444Y-10754389D01*
X4922444Y-10754389D02*
X4912920Y-10716293D01*
X4912920Y-10716293D02*
X4912920Y-10668674D01*
X4912920Y-10668674D02*
X4922444Y-10630579D01*
X4922444Y-10630579D02*
X4931967Y-10611531D01*
X4931967Y-10611531D02*
X4941491Y-10602008D01*
X4941491Y-10602008D02*
X4960539Y-10592484D01*
X5112920Y-10792484D02*
X5112920Y-10659150D01*
X5112920Y-10678198D02*
X5122444Y-10668674D01*
X5122444Y-10668674D02*
X5141491Y-10659150D01*
X5141491Y-10659150D02*
X5170063Y-10659150D01*
X5170063Y-10659150D02*
X5189110Y-10668674D01*
X5189110Y-10668674D02*
X5198634Y-10687722D01*
X5198634Y-10687722D02*
X5198634Y-10792484D01*
X5198634Y-10687722D02*
X5208158Y-10668674D01*
X5208158Y-10668674D02*
X5227205Y-10659150D01*
X5227205Y-10659150D02*
X5255777Y-10659150D01*
X5255777Y-10659150D02*
X5274825Y-10668674D01*
X5274825Y-10668674D02*
X5284348Y-10687722D01*
X5284348Y-10687722D02*
X5284348Y-10792484D01*
X5379586Y-10792484D02*
X5379586Y-10659150D01*
X5379586Y-10678198D02*
X5389110Y-10668674D01*
X5389110Y-10668674D02*
X5408158Y-10659150D01*
X5408158Y-10659150D02*
X5436729Y-10659150D01*
X5436729Y-10659150D02*
X5455777Y-10668674D01*
X5455777Y-10668674D02*
X5465301Y-10687722D01*
X5465301Y-10687722D02*
X5465301Y-10792484D01*
X5465301Y-10687722D02*
X5474825Y-10668674D01*
X5474825Y-10668674D02*
X5493872Y-10659150D01*
X5493872Y-10659150D02*
X5522444Y-10659150D01*
X5522444Y-10659150D02*
X5541491Y-10668674D01*
X5541491Y-10668674D02*
X5551015Y-10687722D01*
X5551015Y-10687722D02*
X5551015Y-10792484D01*
X5941491Y-10582960D02*
X5770063Y-10840103D01*
X6198634Y-10592484D02*
X6217682Y-10592484D01*
X6217682Y-10592484D02*
X6236729Y-10602008D01*
X6236729Y-10602008D02*
X6246253Y-10611531D01*
X6246253Y-10611531D02*
X6255777Y-10630579D01*
X6255777Y-10630579D02*
X6265301Y-10668674D01*
X6265301Y-10668674D02*
X6265301Y-10716293D01*
X6265301Y-10716293D02*
X6255777Y-10754389D01*
X6255777Y-10754389D02*
X6246253Y-10773436D01*
X6246253Y-10773436D02*
X6236729Y-10782960D01*
X6236729Y-10782960D02*
X6217682Y-10792484D01*
X6217682Y-10792484D02*
X6198634Y-10792484D01*
X6198634Y-10792484D02*
X6179586Y-10782960D01*
X6179586Y-10782960D02*
X6170063Y-10773436D01*
X6170063Y-10773436D02*
X6160539Y-10754389D01*
X6160539Y-10754389D02*
X6151015Y-10716293D01*
X6151015Y-10716293D02*
X6151015Y-10668674D01*
X6151015Y-10668674D02*
X6160539Y-10630579D01*
X6160539Y-10630579D02*
X6170063Y-10611531D01*
X6170063Y-10611531D02*
X6179586Y-10602008D01*
X6179586Y-10602008D02*
X6198634Y-10592484D01*
X6351015Y-10773436D02*
X6360539Y-10782960D01*
X6360539Y-10782960D02*
X6351015Y-10792484D01*
X6351015Y-10792484D02*
X6341491Y-10782960D01*
X6341491Y-10782960D02*
X6351015Y-10773436D01*
X6351015Y-10773436D02*
X6351015Y-10792484D01*
X6484348Y-10592484D02*
X6503396Y-10592484D01*
X6503396Y-10592484D02*
X6522444Y-10602008D01*
X6522444Y-10602008D02*
X6531967Y-10611531D01*
X6531967Y-10611531D02*
X6541491Y-10630579D01*
X6541491Y-10630579D02*
X6551015Y-10668674D01*
X6551015Y-10668674D02*
X6551015Y-10716293D01*
X6551015Y-10716293D02*
X6541491Y-10754389D01*
X6541491Y-10754389D02*
X6531967Y-10773436D01*
X6531967Y-10773436D02*
X6522444Y-10782960D01*
X6522444Y-10782960D02*
X6503396Y-10792484D01*
X6503396Y-10792484D02*
X6484348Y-10792484D01*
X6484348Y-10792484D02*
X6465301Y-10782960D01*
X6465301Y-10782960D02*
X6455777Y-10773436D01*
X6455777Y-10773436D02*
X6446253Y-10754389D01*
X6446253Y-10754389D02*
X6436729Y-10716293D01*
X6436729Y-10716293D02*
X6436729Y-10668674D01*
X6436729Y-10668674D02*
X6446253Y-10630579D01*
X6446253Y-10630579D02*
X6455777Y-10611531D01*
X6455777Y-10611531D02*
X6465301Y-10602008D01*
X6465301Y-10602008D02*
X6484348Y-10592484D01*
X6627206Y-10611531D02*
X6636729Y-10602008D01*
X6636729Y-10602008D02*
X6655777Y-10592484D01*
X6655777Y-10592484D02*
X6703396Y-10592484D01*
X6703396Y-10592484D02*
X6722444Y-10602008D01*
X6722444Y-10602008D02*
X6731967Y-10611531D01*
X6731967Y-10611531D02*
X6741491Y-10630579D01*
X6741491Y-10630579D02*
X6741491Y-10649627D01*
X6741491Y-10649627D02*
X6731967Y-10678198D01*
X6731967Y-10678198D02*
X6617682Y-10792484D01*
X6617682Y-10792484D02*
X6741491Y-10792484D01*
X6808158Y-10592484D02*
X6941491Y-10592484D01*
X6941491Y-10592484D02*
X6855777Y-10792484D01*
X7103396Y-10592484D02*
X7065301Y-10592484D01*
X7065301Y-10592484D02*
X7046253Y-10602008D01*
X7046253Y-10602008D02*
X7036729Y-10611531D01*
X7036729Y-10611531D02*
X7017682Y-10640103D01*
X7017682Y-10640103D02*
X7008158Y-10678198D01*
X7008158Y-10678198D02*
X7008158Y-10754389D01*
X7008158Y-10754389D02*
X7017682Y-10773436D01*
X7017682Y-10773436D02*
X7027206Y-10782960D01*
X7027206Y-10782960D02*
X7046253Y-10792484D01*
X7046253Y-10792484D02*
X7084348Y-10792484D01*
X7084348Y-10792484D02*
X7103396Y-10782960D01*
X7103396Y-10782960D02*
X7112920Y-10773436D01*
X7112920Y-10773436D02*
X7122444Y-10754389D01*
X7122444Y-10754389D02*
X7122444Y-10706770D01*
X7122444Y-10706770D02*
X7112920Y-10687722D01*
X7112920Y-10687722D02*
X7103396Y-10678198D01*
X7103396Y-10678198D02*
X7084348Y-10668674D01*
X7084348Y-10668674D02*
X7046253Y-10668674D01*
X7046253Y-10668674D02*
X7027206Y-10678198D01*
X7027206Y-10678198D02*
X7017682Y-10687722D01*
X7017682Y-10687722D02*
X7008158Y-10706770D01*
X7198634Y-10592484D02*
X7198634Y-10630579D01*
X7274825Y-10592484D02*
X7274825Y-10630579D01*
X7570063Y-10868674D02*
X7560539Y-10859150D01*
X7560539Y-10859150D02*
X7541491Y-10830579D01*
X7541491Y-10830579D02*
X7531968Y-10811531D01*
X7531968Y-10811531D02*
X7522444Y-10782960D01*
X7522444Y-10782960D02*
X7512920Y-10735341D01*
X7512920Y-10735341D02*
X7512920Y-10697246D01*
X7512920Y-10697246D02*
X7522444Y-10649627D01*
X7522444Y-10649627D02*
X7531968Y-10621055D01*
X7531968Y-10621055D02*
X7541491Y-10602008D01*
X7541491Y-10602008D02*
X7560539Y-10573436D01*
X7560539Y-10573436D02*
X7570063Y-10563912D01*
X7684348Y-10592484D02*
X7703396Y-10592484D01*
X7703396Y-10592484D02*
X7722444Y-10602008D01*
X7722444Y-10602008D02*
X7731968Y-10611531D01*
X7731968Y-10611531D02*
X7741491Y-10630579D01*
X7741491Y-10630579D02*
X7751015Y-10668674D01*
X7751015Y-10668674D02*
X7751015Y-10716293D01*
X7751015Y-10716293D02*
X7741491Y-10754389D01*
X7741491Y-10754389D02*
X7731968Y-10773436D01*
X7731968Y-10773436D02*
X7722444Y-10782960D01*
X7722444Y-10782960D02*
X7703396Y-10792484D01*
X7703396Y-10792484D02*
X7684348Y-10792484D01*
X7684348Y-10792484D02*
X7665301Y-10782960D01*
X7665301Y-10782960D02*
X7655777Y-10773436D01*
X7655777Y-10773436D02*
X7646253Y-10754389D01*
X7646253Y-10754389D02*
X7636729Y-10716293D01*
X7636729Y-10716293D02*
X7636729Y-10668674D01*
X7636729Y-10668674D02*
X7646253Y-10630579D01*
X7646253Y-10630579D02*
X7655777Y-10611531D01*
X7655777Y-10611531D02*
X7665301Y-10602008D01*
X7665301Y-10602008D02*
X7684348Y-10592484D01*
X7989110Y-10792484D02*
X7989110Y-10592484D01*
X8074825Y-10792484D02*
X8074825Y-10687722D01*
X8074825Y-10687722D02*
X8065301Y-10668674D01*
X8065301Y-10668674D02*
X8046253Y-10659150D01*
X8046253Y-10659150D02*
X8017682Y-10659150D01*
X8017682Y-10659150D02*
X7998634Y-10668674D01*
X7998634Y-10668674D02*
X7989110Y-10678198D01*
X8198634Y-10792484D02*
X8179587Y-10782960D01*
X8179587Y-10782960D02*
X8170063Y-10773436D01*
X8170063Y-10773436D02*
X8160539Y-10754389D01*
X8160539Y-10754389D02*
X8160539Y-10697246D01*
X8160539Y-10697246D02*
X8170063Y-10678198D01*
X8170063Y-10678198D02*
X8179587Y-10668674D01*
X8179587Y-10668674D02*
X8198634Y-10659150D01*
X8198634Y-10659150D02*
X8227206Y-10659150D01*
X8227206Y-10659150D02*
X8246253Y-10668674D01*
X8246253Y-10668674D02*
X8255777Y-10678198D01*
X8255777Y-10678198D02*
X8265301Y-10697246D01*
X8265301Y-10697246D02*
X8265301Y-10754389D01*
X8265301Y-10754389D02*
X8255777Y-10773436D01*
X8255777Y-10773436D02*
X8246253Y-10782960D01*
X8246253Y-10782960D02*
X8227206Y-10792484D01*
X8227206Y-10792484D02*
X8198634Y-10792484D01*
X8379587Y-10792484D02*
X8360539Y-10782960D01*
X8360539Y-10782960D02*
X8351015Y-10763912D01*
X8351015Y-10763912D02*
X8351015Y-10592484D01*
X8531968Y-10782960D02*
X8512920Y-10792484D01*
X8512920Y-10792484D02*
X8474825Y-10792484D01*
X8474825Y-10792484D02*
X8455777Y-10782960D01*
X8455777Y-10782960D02*
X8446253Y-10763912D01*
X8446253Y-10763912D02*
X8446253Y-10687722D01*
X8446253Y-10687722D02*
X8455777Y-10668674D01*
X8455777Y-10668674D02*
X8474825Y-10659150D01*
X8474825Y-10659150D02*
X8512920Y-10659150D01*
X8512920Y-10659150D02*
X8531968Y-10668674D01*
X8531968Y-10668674D02*
X8541492Y-10687722D01*
X8541492Y-10687722D02*
X8541492Y-10706770D01*
X8541492Y-10706770D02*
X8446253Y-10725817D01*
X8617682Y-10782960D02*
X8636730Y-10792484D01*
X8636730Y-10792484D02*
X8674825Y-10792484D01*
X8674825Y-10792484D02*
X8693873Y-10782960D01*
X8693873Y-10782960D02*
X8703396Y-10763912D01*
X8703396Y-10763912D02*
X8703396Y-10754389D01*
X8703396Y-10754389D02*
X8693873Y-10735341D01*
X8693873Y-10735341D02*
X8674825Y-10725817D01*
X8674825Y-10725817D02*
X8646253Y-10725817D01*
X8646253Y-10725817D02*
X8627206Y-10716293D01*
X8627206Y-10716293D02*
X8617682Y-10697246D01*
X8617682Y-10697246D02*
X8617682Y-10687722D01*
X8617682Y-10687722D02*
X8627206Y-10668674D01*
X8627206Y-10668674D02*
X8646253Y-10659150D01*
X8646253Y-10659150D02*
X8674825Y-10659150D01*
X8674825Y-10659150D02*
X8693873Y-10668674D01*
X8941492Y-10716293D02*
X9093873Y-10716293D01*
X9017682Y-10792484D02*
X9017682Y-10640103D01*
X9331968Y-10611531D02*
X9341492Y-10602008D01*
X9341492Y-10602008D02*
X9360539Y-10592484D01*
X9360539Y-10592484D02*
X9408158Y-10592484D01*
X9408158Y-10592484D02*
X9427206Y-10602008D01*
X9427206Y-10602008D02*
X9436730Y-10611531D01*
X9436730Y-10611531D02*
X9446254Y-10630579D01*
X9446254Y-10630579D02*
X9446254Y-10649627D01*
X9446254Y-10649627D02*
X9436730Y-10678198D01*
X9436730Y-10678198D02*
X9322444Y-10792484D01*
X9322444Y-10792484D02*
X9446254Y-10792484D01*
X9674825Y-10782960D02*
X9693873Y-10792484D01*
X9693873Y-10792484D02*
X9731968Y-10792484D01*
X9731968Y-10792484D02*
X9751016Y-10782960D01*
X9751016Y-10782960D02*
X9760539Y-10763912D01*
X9760539Y-10763912D02*
X9760539Y-10754389D01*
X9760539Y-10754389D02*
X9751016Y-10735341D01*
X9751016Y-10735341D02*
X9731968Y-10725817D01*
X9731968Y-10725817D02*
X9703396Y-10725817D01*
X9703396Y-10725817D02*
X9684349Y-10716293D01*
X9684349Y-10716293D02*
X9674825Y-10697246D01*
X9674825Y-10697246D02*
X9674825Y-10687722D01*
X9674825Y-10687722D02*
X9684349Y-10668674D01*
X9684349Y-10668674D02*
X9703396Y-10659150D01*
X9703396Y-10659150D02*
X9731968Y-10659150D01*
X9731968Y-10659150D02*
X9751016Y-10668674D01*
X9874825Y-10792484D02*
X9855777Y-10782960D01*
X9855777Y-10782960D02*
X9846254Y-10763912D01*
X9846254Y-10763912D02*
X9846254Y-10592484D01*
X9979587Y-10792484D02*
X9960539Y-10782960D01*
X9960539Y-10782960D02*
X9951016Y-10773436D01*
X9951016Y-10773436D02*
X9941492Y-10754389D01*
X9941492Y-10754389D02*
X9941492Y-10697246D01*
X9941492Y-10697246D02*
X9951016Y-10678198D01*
X9951016Y-10678198D02*
X9960539Y-10668674D01*
X9960539Y-10668674D02*
X9979587Y-10659150D01*
X9979587Y-10659150D02*
X10008158Y-10659150D01*
X10008158Y-10659150D02*
X10027206Y-10668674D01*
X10027206Y-10668674D02*
X10036730Y-10678198D01*
X10036730Y-10678198D02*
X10046254Y-10697246D01*
X10046254Y-10697246D02*
X10046254Y-10754389D01*
X10046254Y-10754389D02*
X10036730Y-10773436D01*
X10036730Y-10773436D02*
X10027206Y-10782960D01*
X10027206Y-10782960D02*
X10008158Y-10792484D01*
X10008158Y-10792484D02*
X9979587Y-10792484D01*
X10103397Y-10659150D02*
X10179587Y-10659150D01*
X10131968Y-10592484D02*
X10131968Y-10763912D01*
X10131968Y-10763912D02*
X10141492Y-10782960D01*
X10141492Y-10782960D02*
X10160539Y-10792484D01*
X10160539Y-10792484D02*
X10179587Y-10792484D01*
X10236730Y-10782960D02*
X10255777Y-10792484D01*
X10255777Y-10792484D02*
X10293873Y-10792484D01*
X10293873Y-10792484D02*
X10312920Y-10782960D01*
X10312920Y-10782960D02*
X10322444Y-10763912D01*
X10322444Y-10763912D02*
X10322444Y-10754389D01*
X10322444Y-10754389D02*
X10312920Y-10735341D01*
X10312920Y-10735341D02*
X10293873Y-10725817D01*
X10293873Y-10725817D02*
X10265301Y-10725817D01*
X10265301Y-10725817D02*
X10246254Y-10716293D01*
X10246254Y-10716293D02*
X10236730Y-10697246D01*
X10236730Y-10697246D02*
X10236730Y-10687722D01*
X10236730Y-10687722D02*
X10246254Y-10668674D01*
X10246254Y-10668674D02*
X10265301Y-10659150D01*
X10265301Y-10659150D02*
X10293873Y-10659150D01*
X10293873Y-10659150D02*
X10312920Y-10668674D01*
X10389111Y-10868674D02*
X10398635Y-10859150D01*
X10398635Y-10859150D02*
X10417682Y-10830579D01*
X10417682Y-10830579D02*
X10427206Y-10811531D01*
X10427206Y-10811531D02*
X10436730Y-10782960D01*
X10436730Y-10782960D02*
X10446254Y-10735341D01*
X10446254Y-10735341D02*
X10446254Y-10697246D01*
X10446254Y-10697246D02*
X10436730Y-10649627D01*
X10436730Y-10649627D02*
X10427206Y-10621055D01*
X10427206Y-10621055D02*
X10417682Y-10602008D01*
X10417682Y-10602008D02*
X10398635Y-10573436D01*
X10398635Y-10573436D02*
X10389111Y-10563912D01*
D10*
X3905000Y-10920000D02*
X3995000Y-11010000D01*
X3995000Y-10920000D02*
X3905000Y-11010000D01*
X3995000Y-10965000D02*
G75*
G02*
X3905000Y-10965000I-45000J0D01*
G01*
X3905000Y-10965000D02*
G75*
G02*
X3995000Y-10965000I45000J0D01*
G01*
D11*
X4293872Y-10856484D02*
X4312920Y-10856484D01*
X4312920Y-10856484D02*
X4331967Y-10866008D01*
X4331967Y-10866008D02*
X4341491Y-10875531D01*
X4341491Y-10875531D02*
X4351015Y-10894579D01*
X4351015Y-10894579D02*
X4360539Y-10932674D01*
X4360539Y-10932674D02*
X4360539Y-10980293D01*
X4360539Y-10980293D02*
X4351015Y-11018389D01*
X4351015Y-11018389D02*
X4341491Y-11037436D01*
X4341491Y-11037436D02*
X4331967Y-11046960D01*
X4331967Y-11046960D02*
X4312920Y-11056484D01*
X4312920Y-11056484D02*
X4293872Y-11056484D01*
X4293872Y-11056484D02*
X4274824Y-11046960D01*
X4274824Y-11046960D02*
X4265301Y-11037436D01*
X4265301Y-11037436D02*
X4255777Y-11018389D01*
X4255777Y-11018389D02*
X4246253Y-10980293D01*
X4246253Y-10980293D02*
X4246253Y-10932674D01*
X4246253Y-10932674D02*
X4255777Y-10894579D01*
X4255777Y-10894579D02*
X4265301Y-10875531D01*
X4265301Y-10875531D02*
X4274824Y-10866008D01*
X4274824Y-10866008D02*
X4293872Y-10856484D01*
X4446253Y-11037436D02*
X4455777Y-11046960D01*
X4455777Y-11046960D02*
X4446253Y-11056484D01*
X4446253Y-11056484D02*
X4436729Y-11046960D01*
X4436729Y-11046960D02*
X4446253Y-11037436D01*
X4446253Y-11037436D02*
X4446253Y-11056484D01*
X4551015Y-11056484D02*
X4589110Y-11056484D01*
X4589110Y-11056484D02*
X4608158Y-11046960D01*
X4608158Y-11046960D02*
X4617682Y-11037436D01*
X4617682Y-11037436D02*
X4636729Y-11008865D01*
X4636729Y-11008865D02*
X4646253Y-10970770D01*
X4646253Y-10970770D02*
X4646253Y-10894579D01*
X4646253Y-10894579D02*
X4636729Y-10875531D01*
X4636729Y-10875531D02*
X4627205Y-10866008D01*
X4627205Y-10866008D02*
X4608158Y-10856484D01*
X4608158Y-10856484D02*
X4570063Y-10856484D01*
X4570063Y-10856484D02*
X4551015Y-10866008D01*
X4551015Y-10866008D02*
X4541491Y-10875531D01*
X4541491Y-10875531D02*
X4531967Y-10894579D01*
X4531967Y-10894579D02*
X4531967Y-10942198D01*
X4531967Y-10942198D02*
X4541491Y-10961246D01*
X4541491Y-10961246D02*
X4551015Y-10970770D01*
X4551015Y-10970770D02*
X4570063Y-10980293D01*
X4570063Y-10980293D02*
X4608158Y-10980293D01*
X4608158Y-10980293D02*
X4627205Y-10970770D01*
X4627205Y-10970770D02*
X4636729Y-10961246D01*
X4636729Y-10961246D02*
X4646253Y-10942198D01*
X4770063Y-10856484D02*
X4789110Y-10856484D01*
X4789110Y-10856484D02*
X4808158Y-10866008D01*
X4808158Y-10866008D02*
X4817682Y-10875531D01*
X4817682Y-10875531D02*
X4827205Y-10894579D01*
X4827205Y-10894579D02*
X4836729Y-10932674D01*
X4836729Y-10932674D02*
X4836729Y-10980293D01*
X4836729Y-10980293D02*
X4827205Y-11018389D01*
X4827205Y-11018389D02*
X4817682Y-11037436D01*
X4817682Y-11037436D02*
X4808158Y-11046960D01*
X4808158Y-11046960D02*
X4789110Y-11056484D01*
X4789110Y-11056484D02*
X4770063Y-11056484D01*
X4770063Y-11056484D02*
X4751015Y-11046960D01*
X4751015Y-11046960D02*
X4741491Y-11037436D01*
X4741491Y-11037436D02*
X4731967Y-11018389D01*
X4731967Y-11018389D02*
X4722444Y-10980293D01*
X4722444Y-10980293D02*
X4722444Y-10932674D01*
X4722444Y-10932674D02*
X4731967Y-10894579D01*
X4731967Y-10894579D02*
X4741491Y-10875531D01*
X4741491Y-10875531D02*
X4751015Y-10866008D01*
X4751015Y-10866008D02*
X4770063Y-10856484D01*
X4960539Y-10856484D02*
X4979586Y-10856484D01*
X4979586Y-10856484D02*
X4998634Y-10866008D01*
X4998634Y-10866008D02*
X5008158Y-10875531D01*
X5008158Y-10875531D02*
X5017682Y-10894579D01*
X5017682Y-10894579D02*
X5027205Y-10932674D01*
X5027205Y-10932674D02*
X5027205Y-10980293D01*
X5027205Y-10980293D02*
X5017682Y-11018389D01*
X5017682Y-11018389D02*
X5008158Y-11037436D01*
X5008158Y-11037436D02*
X4998634Y-11046960D01*
X4998634Y-11046960D02*
X4979586Y-11056484D01*
X4979586Y-11056484D02*
X4960539Y-11056484D01*
X4960539Y-11056484D02*
X4941491Y-11046960D01*
X4941491Y-11046960D02*
X4931967Y-11037436D01*
X4931967Y-11037436D02*
X4922444Y-11018389D01*
X4922444Y-11018389D02*
X4912920Y-10980293D01*
X4912920Y-10980293D02*
X4912920Y-10932674D01*
X4912920Y-10932674D02*
X4922444Y-10894579D01*
X4922444Y-10894579D02*
X4931967Y-10875531D01*
X4931967Y-10875531D02*
X4941491Y-10866008D01*
X4941491Y-10866008D02*
X4960539Y-10856484D01*
X5112920Y-11056484D02*
X5112920Y-10923150D01*
X5112920Y-10942198D02*
X5122444Y-10932674D01*
X5122444Y-10932674D02*
X5141491Y-10923150D01*
X5141491Y-10923150D02*
X5170063Y-10923150D01*
X5170063Y-10923150D02*
X5189110Y-10932674D01*
X5189110Y-10932674D02*
X5198634Y-10951722D01*
X5198634Y-10951722D02*
X5198634Y-11056484D01*
X5198634Y-10951722D02*
X5208158Y-10932674D01*
X5208158Y-10932674D02*
X5227205Y-10923150D01*
X5227205Y-10923150D02*
X5255777Y-10923150D01*
X5255777Y-10923150D02*
X5274825Y-10932674D01*
X5274825Y-10932674D02*
X5284348Y-10951722D01*
X5284348Y-10951722D02*
X5284348Y-11056484D01*
X5379586Y-11056484D02*
X5379586Y-10923150D01*
X5379586Y-10942198D02*
X5389110Y-10932674D01*
X5389110Y-10932674D02*
X5408158Y-10923150D01*
X5408158Y-10923150D02*
X5436729Y-10923150D01*
X5436729Y-10923150D02*
X5455777Y-10932674D01*
X5455777Y-10932674D02*
X5465301Y-10951722D01*
X5465301Y-10951722D02*
X5465301Y-11056484D01*
X5465301Y-10951722D02*
X5474825Y-10932674D01*
X5474825Y-10932674D02*
X5493872Y-10923150D01*
X5493872Y-10923150D02*
X5522444Y-10923150D01*
X5522444Y-10923150D02*
X5541491Y-10932674D01*
X5541491Y-10932674D02*
X5551015Y-10951722D01*
X5551015Y-10951722D02*
X5551015Y-11056484D01*
X5941491Y-10846960D02*
X5770063Y-11104103D01*
X6198634Y-10856484D02*
X6217682Y-10856484D01*
X6217682Y-10856484D02*
X6236729Y-10866008D01*
X6236729Y-10866008D02*
X6246253Y-10875531D01*
X6246253Y-10875531D02*
X6255777Y-10894579D01*
X6255777Y-10894579D02*
X6265301Y-10932674D01*
X6265301Y-10932674D02*
X6265301Y-10980293D01*
X6265301Y-10980293D02*
X6255777Y-11018389D01*
X6255777Y-11018389D02*
X6246253Y-11037436D01*
X6246253Y-11037436D02*
X6236729Y-11046960D01*
X6236729Y-11046960D02*
X6217682Y-11056484D01*
X6217682Y-11056484D02*
X6198634Y-11056484D01*
X6198634Y-11056484D02*
X6179586Y-11046960D01*
X6179586Y-11046960D02*
X6170063Y-11037436D01*
X6170063Y-11037436D02*
X6160539Y-11018389D01*
X6160539Y-11018389D02*
X6151015Y-10980293D01*
X6151015Y-10980293D02*
X6151015Y-10932674D01*
X6151015Y-10932674D02*
X6160539Y-10894579D01*
X6160539Y-10894579D02*
X6170063Y-10875531D01*
X6170063Y-10875531D02*
X6179586Y-10866008D01*
X6179586Y-10866008D02*
X6198634Y-10856484D01*
X6351015Y-11037436D02*
X6360539Y-11046960D01*
X6360539Y-11046960D02*
X6351015Y-11056484D01*
X6351015Y-11056484D02*
X6341491Y-11046960D01*
X6341491Y-11046960D02*
X6351015Y-11037436D01*
X6351015Y-11037436D02*
X6351015Y-11056484D01*
X6484348Y-10856484D02*
X6503396Y-10856484D01*
X6503396Y-10856484D02*
X6522444Y-10866008D01*
X6522444Y-10866008D02*
X6531967Y-10875531D01*
X6531967Y-10875531D02*
X6541491Y-10894579D01*
X6541491Y-10894579D02*
X6551015Y-10932674D01*
X6551015Y-10932674D02*
X6551015Y-10980293D01*
X6551015Y-10980293D02*
X6541491Y-11018389D01*
X6541491Y-11018389D02*
X6531967Y-11037436D01*
X6531967Y-11037436D02*
X6522444Y-11046960D01*
X6522444Y-11046960D02*
X6503396Y-11056484D01*
X6503396Y-11056484D02*
X6484348Y-11056484D01*
X6484348Y-11056484D02*
X6465301Y-11046960D01*
X6465301Y-11046960D02*
X6455777Y-11037436D01*
X6455777Y-11037436D02*
X6446253Y-11018389D01*
X6446253Y-11018389D02*
X6436729Y-10980293D01*
X6436729Y-10980293D02*
X6436729Y-10932674D01*
X6436729Y-10932674D02*
X6446253Y-10894579D01*
X6446253Y-10894579D02*
X6455777Y-10875531D01*
X6455777Y-10875531D02*
X6465301Y-10866008D01*
X6465301Y-10866008D02*
X6484348Y-10856484D01*
X6617682Y-10856484D02*
X6741491Y-10856484D01*
X6741491Y-10856484D02*
X6674825Y-10932674D01*
X6674825Y-10932674D02*
X6703396Y-10932674D01*
X6703396Y-10932674D02*
X6722444Y-10942198D01*
X6722444Y-10942198D02*
X6731967Y-10951722D01*
X6731967Y-10951722D02*
X6741491Y-10970770D01*
X6741491Y-10970770D02*
X6741491Y-11018389D01*
X6741491Y-11018389D02*
X6731967Y-11037436D01*
X6731967Y-11037436D02*
X6722444Y-11046960D01*
X6722444Y-11046960D02*
X6703396Y-11056484D01*
X6703396Y-11056484D02*
X6646253Y-11056484D01*
X6646253Y-11056484D02*
X6627206Y-11046960D01*
X6627206Y-11046960D02*
X6617682Y-11037436D01*
X6922444Y-10856484D02*
X6827206Y-10856484D01*
X6827206Y-10856484D02*
X6817682Y-10951722D01*
X6817682Y-10951722D02*
X6827206Y-10942198D01*
X6827206Y-10942198D02*
X6846253Y-10932674D01*
X6846253Y-10932674D02*
X6893872Y-10932674D01*
X6893872Y-10932674D02*
X6912920Y-10942198D01*
X6912920Y-10942198D02*
X6922444Y-10951722D01*
X6922444Y-10951722D02*
X6931967Y-10970770D01*
X6931967Y-10970770D02*
X6931967Y-11018389D01*
X6931967Y-11018389D02*
X6922444Y-11037436D01*
X6922444Y-11037436D02*
X6912920Y-11046960D01*
X6912920Y-11046960D02*
X6893872Y-11056484D01*
X6893872Y-11056484D02*
X6846253Y-11056484D01*
X6846253Y-11056484D02*
X6827206Y-11046960D01*
X6827206Y-11046960D02*
X6817682Y-11037436D01*
X7103396Y-10923150D02*
X7103396Y-11056484D01*
X7055777Y-10846960D02*
X7008158Y-10989817D01*
X7008158Y-10989817D02*
X7131967Y-10989817D01*
X7198634Y-10856484D02*
X7198634Y-10894579D01*
X7274825Y-10856484D02*
X7274825Y-10894579D01*
X7570063Y-11132674D02*
X7560539Y-11123150D01*
X7560539Y-11123150D02*
X7541491Y-11094579D01*
X7541491Y-11094579D02*
X7531968Y-11075531D01*
X7531968Y-11075531D02*
X7522444Y-11046960D01*
X7522444Y-11046960D02*
X7512920Y-10999341D01*
X7512920Y-10999341D02*
X7512920Y-10961246D01*
X7512920Y-10961246D02*
X7522444Y-10913627D01*
X7522444Y-10913627D02*
X7531968Y-10885055D01*
X7531968Y-10885055D02*
X7541491Y-10866008D01*
X7541491Y-10866008D02*
X7560539Y-10837436D01*
X7560539Y-10837436D02*
X7570063Y-10827912D01*
X7751015Y-11056484D02*
X7636729Y-11056484D01*
X7693872Y-11056484D02*
X7693872Y-10856484D01*
X7693872Y-10856484D02*
X7674825Y-10885055D01*
X7674825Y-10885055D02*
X7655777Y-10904103D01*
X7655777Y-10904103D02*
X7636729Y-10913627D01*
X7922444Y-10923150D02*
X7922444Y-11056484D01*
X7874825Y-10846960D02*
X7827206Y-10989817D01*
X7827206Y-10989817D02*
X7951015Y-10989817D01*
X8179587Y-11056484D02*
X8179587Y-10856484D01*
X8265301Y-11056484D02*
X8265301Y-10951722D01*
X8265301Y-10951722D02*
X8255777Y-10932674D01*
X8255777Y-10932674D02*
X8236730Y-10923150D01*
X8236730Y-10923150D02*
X8208158Y-10923150D01*
X8208158Y-10923150D02*
X8189110Y-10932674D01*
X8189110Y-10932674D02*
X8179587Y-10942198D01*
X8389111Y-11056484D02*
X8370063Y-11046960D01*
X8370063Y-11046960D02*
X8360539Y-11037436D01*
X8360539Y-11037436D02*
X8351015Y-11018389D01*
X8351015Y-11018389D02*
X8351015Y-10961246D01*
X8351015Y-10961246D02*
X8360539Y-10942198D01*
X8360539Y-10942198D02*
X8370063Y-10932674D01*
X8370063Y-10932674D02*
X8389111Y-10923150D01*
X8389111Y-10923150D02*
X8417682Y-10923150D01*
X8417682Y-10923150D02*
X8436730Y-10932674D01*
X8436730Y-10932674D02*
X8446253Y-10942198D01*
X8446253Y-10942198D02*
X8455777Y-10961246D01*
X8455777Y-10961246D02*
X8455777Y-11018389D01*
X8455777Y-11018389D02*
X8446253Y-11037436D01*
X8446253Y-11037436D02*
X8436730Y-11046960D01*
X8436730Y-11046960D02*
X8417682Y-11056484D01*
X8417682Y-11056484D02*
X8389111Y-11056484D01*
X8570063Y-11056484D02*
X8551015Y-11046960D01*
X8551015Y-11046960D02*
X8541492Y-11027912D01*
X8541492Y-11027912D02*
X8541492Y-10856484D01*
X8722444Y-11046960D02*
X8703396Y-11056484D01*
X8703396Y-11056484D02*
X8665301Y-11056484D01*
X8665301Y-11056484D02*
X8646253Y-11046960D01*
X8646253Y-11046960D02*
X8636730Y-11027912D01*
X8636730Y-11027912D02*
X8636730Y-10951722D01*
X8636730Y-10951722D02*
X8646253Y-10932674D01*
X8646253Y-10932674D02*
X8665301Y-10923150D01*
X8665301Y-10923150D02*
X8703396Y-10923150D01*
X8703396Y-10923150D02*
X8722444Y-10932674D01*
X8722444Y-10932674D02*
X8731968Y-10951722D01*
X8731968Y-10951722D02*
X8731968Y-10970770D01*
X8731968Y-10970770D02*
X8636730Y-10989817D01*
X8808158Y-11046960D02*
X8827206Y-11056484D01*
X8827206Y-11056484D02*
X8865301Y-11056484D01*
X8865301Y-11056484D02*
X8884349Y-11046960D01*
X8884349Y-11046960D02*
X8893873Y-11027912D01*
X8893873Y-11027912D02*
X8893873Y-11018389D01*
X8893873Y-11018389D02*
X8884349Y-10999341D01*
X8884349Y-10999341D02*
X8865301Y-10989817D01*
X8865301Y-10989817D02*
X8836730Y-10989817D01*
X8836730Y-10989817D02*
X8817682Y-10980293D01*
X8817682Y-10980293D02*
X8808158Y-10961246D01*
X8808158Y-10961246D02*
X8808158Y-10951722D01*
X8808158Y-10951722D02*
X8817682Y-10932674D01*
X8817682Y-10932674D02*
X8836730Y-10923150D01*
X8836730Y-10923150D02*
X8865301Y-10923150D01*
X8865301Y-10923150D02*
X8884349Y-10932674D01*
X8960539Y-11132674D02*
X8970063Y-11123150D01*
X8970063Y-11123150D02*
X8989111Y-11094579D01*
X8989111Y-11094579D02*
X8998634Y-11075531D01*
X8998634Y-11075531D02*
X9008158Y-11046960D01*
X9008158Y-11046960D02*
X9017682Y-10999341D01*
X9017682Y-10999341D02*
X9017682Y-10961246D01*
X9017682Y-10961246D02*
X9008158Y-10913627D01*
X9008158Y-10913627D02*
X8998634Y-10885055D01*
X8998634Y-10885055D02*
X8989111Y-10866008D01*
X8989111Y-10866008D02*
X8970063Y-10837436D01*
X8970063Y-10837436D02*
X8960539Y-10827912D01*
D10*
X3895000Y-11179000D02*
X3995000Y-11279000D01*
X3995000Y-11179000D02*
X3895000Y-11279000D01*
X3945000Y-11179000D02*
X3945000Y-11279000D01*
X3895000Y-11229000D02*
X3995000Y-11229000D01*
D11*
X4360539Y-11320484D02*
X4246253Y-11320484D01*
X4303396Y-11320484D02*
X4303396Y-11120484D01*
X4303396Y-11120484D02*
X4284348Y-11149055D01*
X4284348Y-11149055D02*
X4265301Y-11168103D01*
X4265301Y-11168103D02*
X4246253Y-11177627D01*
X4446253Y-11301436D02*
X4455777Y-11310960D01*
X4455777Y-11310960D02*
X4446253Y-11320484D01*
X4446253Y-11320484D02*
X4436729Y-11310960D01*
X4436729Y-11310960D02*
X4446253Y-11301436D01*
X4446253Y-11301436D02*
X4446253Y-11320484D01*
X4579586Y-11120484D02*
X4598634Y-11120484D01*
X4598634Y-11120484D02*
X4617682Y-11130008D01*
X4617682Y-11130008D02*
X4627205Y-11139531D01*
X4627205Y-11139531D02*
X4636729Y-11158579D01*
X4636729Y-11158579D02*
X4646253Y-11196674D01*
X4646253Y-11196674D02*
X4646253Y-11244293D01*
X4646253Y-11244293D02*
X4636729Y-11282388D01*
X4636729Y-11282388D02*
X4627205Y-11301436D01*
X4627205Y-11301436D02*
X4617682Y-11310960D01*
X4617682Y-11310960D02*
X4598634Y-11320484D01*
X4598634Y-11320484D02*
X4579586Y-11320484D01*
X4579586Y-11320484D02*
X4560539Y-11310960D01*
X4560539Y-11310960D02*
X4551015Y-11301436D01*
X4551015Y-11301436D02*
X4541491Y-11282388D01*
X4541491Y-11282388D02*
X4531967Y-11244293D01*
X4531967Y-11244293D02*
X4531967Y-11196674D01*
X4531967Y-11196674D02*
X4541491Y-11158579D01*
X4541491Y-11158579D02*
X4551015Y-11139531D01*
X4551015Y-11139531D02*
X4560539Y-11130008D01*
X4560539Y-11130008D02*
X4579586Y-11120484D01*
X4770063Y-11120484D02*
X4789110Y-11120484D01*
X4789110Y-11120484D02*
X4808158Y-11130008D01*
X4808158Y-11130008D02*
X4817682Y-11139531D01*
X4817682Y-11139531D02*
X4827205Y-11158579D01*
X4827205Y-11158579D02*
X4836729Y-11196674D01*
X4836729Y-11196674D02*
X4836729Y-11244293D01*
X4836729Y-11244293D02*
X4827205Y-11282388D01*
X4827205Y-11282388D02*
X4817682Y-11301436D01*
X4817682Y-11301436D02*
X4808158Y-11310960D01*
X4808158Y-11310960D02*
X4789110Y-11320484D01*
X4789110Y-11320484D02*
X4770063Y-11320484D01*
X4770063Y-11320484D02*
X4751015Y-11310960D01*
X4751015Y-11310960D02*
X4741491Y-11301436D01*
X4741491Y-11301436D02*
X4731967Y-11282388D01*
X4731967Y-11282388D02*
X4722444Y-11244293D01*
X4722444Y-11244293D02*
X4722444Y-11196674D01*
X4722444Y-11196674D02*
X4731967Y-11158579D01*
X4731967Y-11158579D02*
X4741491Y-11139531D01*
X4741491Y-11139531D02*
X4751015Y-11130008D01*
X4751015Y-11130008D02*
X4770063Y-11120484D01*
X4960539Y-11120484D02*
X4979586Y-11120484D01*
X4979586Y-11120484D02*
X4998634Y-11130008D01*
X4998634Y-11130008D02*
X5008158Y-11139531D01*
X5008158Y-11139531D02*
X5017682Y-11158579D01*
X5017682Y-11158579D02*
X5027205Y-11196674D01*
X5027205Y-11196674D02*
X5027205Y-11244293D01*
X5027205Y-11244293D02*
X5017682Y-11282388D01*
X5017682Y-11282388D02*
X5008158Y-11301436D01*
X5008158Y-11301436D02*
X4998634Y-11310960D01*
X4998634Y-11310960D02*
X4979586Y-11320484D01*
X4979586Y-11320484D02*
X4960539Y-11320484D01*
X4960539Y-11320484D02*
X4941491Y-11310960D01*
X4941491Y-11310960D02*
X4931967Y-11301436D01*
X4931967Y-11301436D02*
X4922444Y-11282388D01*
X4922444Y-11282388D02*
X4912920Y-11244293D01*
X4912920Y-11244293D02*
X4912920Y-11196674D01*
X4912920Y-11196674D02*
X4922444Y-11158579D01*
X4922444Y-11158579D02*
X4931967Y-11139531D01*
X4931967Y-11139531D02*
X4941491Y-11130008D01*
X4941491Y-11130008D02*
X4960539Y-11120484D01*
X5112920Y-11320484D02*
X5112920Y-11187150D01*
X5112920Y-11206198D02*
X5122444Y-11196674D01*
X5122444Y-11196674D02*
X5141491Y-11187150D01*
X5141491Y-11187150D02*
X5170063Y-11187150D01*
X5170063Y-11187150D02*
X5189110Y-11196674D01*
X5189110Y-11196674D02*
X5198634Y-11215722D01*
X5198634Y-11215722D02*
X5198634Y-11320484D01*
X5198634Y-11215722D02*
X5208158Y-11196674D01*
X5208158Y-11196674D02*
X5227205Y-11187150D01*
X5227205Y-11187150D02*
X5255777Y-11187150D01*
X5255777Y-11187150D02*
X5274825Y-11196674D01*
X5274825Y-11196674D02*
X5284348Y-11215722D01*
X5284348Y-11215722D02*
X5284348Y-11320484D01*
X5379586Y-11320484D02*
X5379586Y-11187150D01*
X5379586Y-11206198D02*
X5389110Y-11196674D01*
X5389110Y-11196674D02*
X5408158Y-11187150D01*
X5408158Y-11187150D02*
X5436729Y-11187150D01*
X5436729Y-11187150D02*
X5455777Y-11196674D01*
X5455777Y-11196674D02*
X5465301Y-11215722D01*
X5465301Y-11215722D02*
X5465301Y-11320484D01*
X5465301Y-11215722D02*
X5474825Y-11196674D01*
X5474825Y-11196674D02*
X5493872Y-11187150D01*
X5493872Y-11187150D02*
X5522444Y-11187150D01*
X5522444Y-11187150D02*
X5541491Y-11196674D01*
X5541491Y-11196674D02*
X5551015Y-11215722D01*
X5551015Y-11215722D02*
X5551015Y-11320484D01*
X5941491Y-11110960D02*
X5770063Y-11368103D01*
X6198634Y-11120484D02*
X6217682Y-11120484D01*
X6217682Y-11120484D02*
X6236729Y-11130008D01*
X6236729Y-11130008D02*
X6246253Y-11139531D01*
X6246253Y-11139531D02*
X6255777Y-11158579D01*
X6255777Y-11158579D02*
X6265301Y-11196674D01*
X6265301Y-11196674D02*
X6265301Y-11244293D01*
X6265301Y-11244293D02*
X6255777Y-11282388D01*
X6255777Y-11282388D02*
X6246253Y-11301436D01*
X6246253Y-11301436D02*
X6236729Y-11310960D01*
X6236729Y-11310960D02*
X6217682Y-11320484D01*
X6217682Y-11320484D02*
X6198634Y-11320484D01*
X6198634Y-11320484D02*
X6179586Y-11310960D01*
X6179586Y-11310960D02*
X6170063Y-11301436D01*
X6170063Y-11301436D02*
X6160539Y-11282388D01*
X6160539Y-11282388D02*
X6151015Y-11244293D01*
X6151015Y-11244293D02*
X6151015Y-11196674D01*
X6151015Y-11196674D02*
X6160539Y-11158579D01*
X6160539Y-11158579D02*
X6170063Y-11139531D01*
X6170063Y-11139531D02*
X6179586Y-11130008D01*
X6179586Y-11130008D02*
X6198634Y-11120484D01*
X6351015Y-11301436D02*
X6360539Y-11310960D01*
X6360539Y-11310960D02*
X6351015Y-11320484D01*
X6351015Y-11320484D02*
X6341491Y-11310960D01*
X6341491Y-11310960D02*
X6351015Y-11301436D01*
X6351015Y-11301436D02*
X6351015Y-11320484D01*
X6484348Y-11120484D02*
X6503396Y-11120484D01*
X6503396Y-11120484D02*
X6522444Y-11130008D01*
X6522444Y-11130008D02*
X6531967Y-11139531D01*
X6531967Y-11139531D02*
X6541491Y-11158579D01*
X6541491Y-11158579D02*
X6551015Y-11196674D01*
X6551015Y-11196674D02*
X6551015Y-11244293D01*
X6551015Y-11244293D02*
X6541491Y-11282388D01*
X6541491Y-11282388D02*
X6531967Y-11301436D01*
X6531967Y-11301436D02*
X6522444Y-11310960D01*
X6522444Y-11310960D02*
X6503396Y-11320484D01*
X6503396Y-11320484D02*
X6484348Y-11320484D01*
X6484348Y-11320484D02*
X6465301Y-11310960D01*
X6465301Y-11310960D02*
X6455777Y-11301436D01*
X6455777Y-11301436D02*
X6446253Y-11282388D01*
X6446253Y-11282388D02*
X6436729Y-11244293D01*
X6436729Y-11244293D02*
X6436729Y-11196674D01*
X6436729Y-11196674D02*
X6446253Y-11158579D01*
X6446253Y-11158579D02*
X6455777Y-11139531D01*
X6455777Y-11139531D02*
X6465301Y-11130008D01*
X6465301Y-11130008D02*
X6484348Y-11120484D01*
X6617682Y-11120484D02*
X6741491Y-11120484D01*
X6741491Y-11120484D02*
X6674825Y-11196674D01*
X6674825Y-11196674D02*
X6703396Y-11196674D01*
X6703396Y-11196674D02*
X6722444Y-11206198D01*
X6722444Y-11206198D02*
X6731967Y-11215722D01*
X6731967Y-11215722D02*
X6741491Y-11234769D01*
X6741491Y-11234769D02*
X6741491Y-11282388D01*
X6741491Y-11282388D02*
X6731967Y-11301436D01*
X6731967Y-11301436D02*
X6722444Y-11310960D01*
X6722444Y-11310960D02*
X6703396Y-11320484D01*
X6703396Y-11320484D02*
X6646253Y-11320484D01*
X6646253Y-11320484D02*
X6627206Y-11310960D01*
X6627206Y-11310960D02*
X6617682Y-11301436D01*
X6836729Y-11320484D02*
X6874825Y-11320484D01*
X6874825Y-11320484D02*
X6893872Y-11310960D01*
X6893872Y-11310960D02*
X6903396Y-11301436D01*
X6903396Y-11301436D02*
X6922444Y-11272865D01*
X6922444Y-11272865D02*
X6931967Y-11234769D01*
X6931967Y-11234769D02*
X6931967Y-11158579D01*
X6931967Y-11158579D02*
X6922444Y-11139531D01*
X6922444Y-11139531D02*
X6912920Y-11130008D01*
X6912920Y-11130008D02*
X6893872Y-11120484D01*
X6893872Y-11120484D02*
X6855777Y-11120484D01*
X6855777Y-11120484D02*
X6836729Y-11130008D01*
X6836729Y-11130008D02*
X6827206Y-11139531D01*
X6827206Y-11139531D02*
X6817682Y-11158579D01*
X6817682Y-11158579D02*
X6817682Y-11206198D01*
X6817682Y-11206198D02*
X6827206Y-11225246D01*
X6827206Y-11225246D02*
X6836729Y-11234769D01*
X6836729Y-11234769D02*
X6855777Y-11244293D01*
X6855777Y-11244293D02*
X6893872Y-11244293D01*
X6893872Y-11244293D02*
X6912920Y-11234769D01*
X6912920Y-11234769D02*
X6922444Y-11225246D01*
X6922444Y-11225246D02*
X6931967Y-11206198D01*
X7103396Y-11187150D02*
X7103396Y-11320484D01*
X7055777Y-11110960D02*
X7008158Y-11253817D01*
X7008158Y-11253817D02*
X7131967Y-11253817D01*
X7198634Y-11120484D02*
X7198634Y-11158579D01*
X7274825Y-11120484D02*
X7274825Y-11158579D01*
X7570063Y-11396674D02*
X7560539Y-11387150D01*
X7560539Y-11387150D02*
X7541491Y-11358579D01*
X7541491Y-11358579D02*
X7531968Y-11339531D01*
X7531968Y-11339531D02*
X7522444Y-11310960D01*
X7522444Y-11310960D02*
X7512920Y-11263341D01*
X7512920Y-11263341D02*
X7512920Y-11225246D01*
X7512920Y-11225246D02*
X7522444Y-11177627D01*
X7522444Y-11177627D02*
X7531968Y-11149055D01*
X7531968Y-11149055D02*
X7541491Y-11130008D01*
X7541491Y-11130008D02*
X7560539Y-11101436D01*
X7560539Y-11101436D02*
X7570063Y-11091912D01*
X7751015Y-11320484D02*
X7636729Y-11320484D01*
X7693872Y-11320484D02*
X7693872Y-11120484D01*
X7693872Y-11120484D02*
X7674825Y-11149055D01*
X7674825Y-11149055D02*
X7655777Y-11168103D01*
X7655777Y-11168103D02*
X7636729Y-11177627D01*
X7874825Y-11120484D02*
X7893872Y-11120484D01*
X7893872Y-11120484D02*
X7912920Y-11130008D01*
X7912920Y-11130008D02*
X7922444Y-11139531D01*
X7922444Y-11139531D02*
X7931968Y-11158579D01*
X7931968Y-11158579D02*
X7941491Y-11196674D01*
X7941491Y-11196674D02*
X7941491Y-11244293D01*
X7941491Y-11244293D02*
X7931968Y-11282388D01*
X7931968Y-11282388D02*
X7922444Y-11301436D01*
X7922444Y-11301436D02*
X7912920Y-11310960D01*
X7912920Y-11310960D02*
X7893872Y-11320484D01*
X7893872Y-11320484D02*
X7874825Y-11320484D01*
X7874825Y-11320484D02*
X7855777Y-11310960D01*
X7855777Y-11310960D02*
X7846253Y-11301436D01*
X7846253Y-11301436D02*
X7836729Y-11282388D01*
X7836729Y-11282388D02*
X7827206Y-11244293D01*
X7827206Y-11244293D02*
X7827206Y-11196674D01*
X7827206Y-11196674D02*
X7836729Y-11158579D01*
X7836729Y-11158579D02*
X7846253Y-11139531D01*
X7846253Y-11139531D02*
X7855777Y-11130008D01*
X7855777Y-11130008D02*
X7874825Y-11120484D01*
X8179587Y-11320484D02*
X8179587Y-11120484D01*
X8265301Y-11320484D02*
X8265301Y-11215722D01*
X8265301Y-11215722D02*
X8255777Y-11196674D01*
X8255777Y-11196674D02*
X8236730Y-11187150D01*
X8236730Y-11187150D02*
X8208158Y-11187150D01*
X8208158Y-11187150D02*
X8189110Y-11196674D01*
X8189110Y-11196674D02*
X8179587Y-11206198D01*
X8389111Y-11320484D02*
X8370063Y-11310960D01*
X8370063Y-11310960D02*
X8360539Y-11301436D01*
X8360539Y-11301436D02*
X8351015Y-11282388D01*
X8351015Y-11282388D02*
X8351015Y-11225246D01*
X8351015Y-11225246D02*
X8360539Y-11206198D01*
X8360539Y-11206198D02*
X8370063Y-11196674D01*
X8370063Y-11196674D02*
X8389111Y-11187150D01*
X8389111Y-11187150D02*
X8417682Y-11187150D01*
X8417682Y-11187150D02*
X8436730Y-11196674D01*
X8436730Y-11196674D02*
X8446253Y-11206198D01*
X8446253Y-11206198D02*
X8455777Y-11225246D01*
X8455777Y-11225246D02*
X8455777Y-11282388D01*
X8455777Y-11282388D02*
X8446253Y-11301436D01*
X8446253Y-11301436D02*
X8436730Y-11310960D01*
X8436730Y-11310960D02*
X8417682Y-11320484D01*
X8417682Y-11320484D02*
X8389111Y-11320484D01*
X8570063Y-11320484D02*
X8551015Y-11310960D01*
X8551015Y-11310960D02*
X8541492Y-11291912D01*
X8541492Y-11291912D02*
X8541492Y-11120484D01*
X8722444Y-11310960D02*
X8703396Y-11320484D01*
X8703396Y-11320484D02*
X8665301Y-11320484D01*
X8665301Y-11320484D02*
X8646253Y-11310960D01*
X8646253Y-11310960D02*
X8636730Y-11291912D01*
X8636730Y-11291912D02*
X8636730Y-11215722D01*
X8636730Y-11215722D02*
X8646253Y-11196674D01*
X8646253Y-11196674D02*
X8665301Y-11187150D01*
X8665301Y-11187150D02*
X8703396Y-11187150D01*
X8703396Y-11187150D02*
X8722444Y-11196674D01*
X8722444Y-11196674D02*
X8731968Y-11215722D01*
X8731968Y-11215722D02*
X8731968Y-11234769D01*
X8731968Y-11234769D02*
X8636730Y-11253817D01*
X8808158Y-11310960D02*
X8827206Y-11320484D01*
X8827206Y-11320484D02*
X8865301Y-11320484D01*
X8865301Y-11320484D02*
X8884349Y-11310960D01*
X8884349Y-11310960D02*
X8893873Y-11291912D01*
X8893873Y-11291912D02*
X8893873Y-11282388D01*
X8893873Y-11282388D02*
X8884349Y-11263341D01*
X8884349Y-11263341D02*
X8865301Y-11253817D01*
X8865301Y-11253817D02*
X8836730Y-11253817D01*
X8836730Y-11253817D02*
X8817682Y-11244293D01*
X8817682Y-11244293D02*
X8808158Y-11225246D01*
X8808158Y-11225246D02*
X8808158Y-11215722D01*
X8808158Y-11215722D02*
X8817682Y-11196674D01*
X8817682Y-11196674D02*
X8836730Y-11187150D01*
X8836730Y-11187150D02*
X8865301Y-11187150D01*
X8865301Y-11187150D02*
X8884349Y-11196674D01*
X8960539Y-11396674D02*
X8970063Y-11387150D01*
X8970063Y-11387150D02*
X8989111Y-11358579D01*
X8989111Y-11358579D02*
X8998634Y-11339531D01*
X8998634Y-11339531D02*
X9008158Y-11310960D01*
X9008158Y-11310960D02*
X9017682Y-11263341D01*
X9017682Y-11263341D02*
X9017682Y-11225246D01*
X9017682Y-11225246D02*
X9008158Y-11177627D01*
X9008158Y-11177627D02*
X8998634Y-11149055D01*
X8998634Y-11149055D02*
X8989111Y-11130008D01*
X8989111Y-11130008D02*
X8970063Y-11101436D01*
X8970063Y-11101436D02*
X8960539Y-11091912D01*
D12*
X3893000Y-11442000D02*
X3995000Y-11544000D01*
X3995000Y-11442000D02*
X3893000Y-11544000D01*
X3980063Y-11529063D02*
X3980063Y-11456937D01*
X3907937Y-11456937D01*
X3907937Y-11529063D01*
X3980063Y-11529063D01*
D11*
X4360539Y-11584484D02*
X4246253Y-11584484D01*
X4303396Y-11584484D02*
X4303396Y-11384484D01*
X4303396Y-11384484D02*
X4284348Y-11413055D01*
X4284348Y-11413055D02*
X4265301Y-11432103D01*
X4265301Y-11432103D02*
X4246253Y-11441627D01*
X4446253Y-11565436D02*
X4455777Y-11574960D01*
X4455777Y-11574960D02*
X4446253Y-11584484D01*
X4446253Y-11584484D02*
X4436729Y-11574960D01*
X4436729Y-11574960D02*
X4446253Y-11565436D01*
X4446253Y-11565436D02*
X4446253Y-11584484D01*
X4579586Y-11384484D02*
X4598634Y-11384484D01*
X4598634Y-11384484D02*
X4617682Y-11394008D01*
X4617682Y-11394008D02*
X4627205Y-11403531D01*
X4627205Y-11403531D02*
X4636729Y-11422579D01*
X4636729Y-11422579D02*
X4646253Y-11460674D01*
X4646253Y-11460674D02*
X4646253Y-11508293D01*
X4646253Y-11508293D02*
X4636729Y-11546388D01*
X4636729Y-11546388D02*
X4627205Y-11565436D01*
X4627205Y-11565436D02*
X4617682Y-11574960D01*
X4617682Y-11574960D02*
X4598634Y-11584484D01*
X4598634Y-11584484D02*
X4579586Y-11584484D01*
X4579586Y-11584484D02*
X4560539Y-11574960D01*
X4560539Y-11574960D02*
X4551015Y-11565436D01*
X4551015Y-11565436D02*
X4541491Y-11546388D01*
X4541491Y-11546388D02*
X4531967Y-11508293D01*
X4531967Y-11508293D02*
X4531967Y-11460674D01*
X4531967Y-11460674D02*
X4541491Y-11422579D01*
X4541491Y-11422579D02*
X4551015Y-11403531D01*
X4551015Y-11403531D02*
X4560539Y-11394008D01*
X4560539Y-11394008D02*
X4579586Y-11384484D01*
X4722444Y-11403531D02*
X4731967Y-11394008D01*
X4731967Y-11394008D02*
X4751015Y-11384484D01*
X4751015Y-11384484D02*
X4798634Y-11384484D01*
X4798634Y-11384484D02*
X4817682Y-11394008D01*
X4817682Y-11394008D02*
X4827205Y-11403531D01*
X4827205Y-11403531D02*
X4836729Y-11422579D01*
X4836729Y-11422579D02*
X4836729Y-11441627D01*
X4836729Y-11441627D02*
X4827205Y-11470198D01*
X4827205Y-11470198D02*
X4712920Y-11584484D01*
X4712920Y-11584484D02*
X4836729Y-11584484D01*
X4960539Y-11384484D02*
X4979586Y-11384484D01*
X4979586Y-11384484D02*
X4998634Y-11394008D01*
X4998634Y-11394008D02*
X5008158Y-11403531D01*
X5008158Y-11403531D02*
X5017682Y-11422579D01*
X5017682Y-11422579D02*
X5027205Y-11460674D01*
X5027205Y-11460674D02*
X5027205Y-11508293D01*
X5027205Y-11508293D02*
X5017682Y-11546388D01*
X5017682Y-11546388D02*
X5008158Y-11565436D01*
X5008158Y-11565436D02*
X4998634Y-11574960D01*
X4998634Y-11574960D02*
X4979586Y-11584484D01*
X4979586Y-11584484D02*
X4960539Y-11584484D01*
X4960539Y-11584484D02*
X4941491Y-11574960D01*
X4941491Y-11574960D02*
X4931967Y-11565436D01*
X4931967Y-11565436D02*
X4922444Y-11546388D01*
X4922444Y-11546388D02*
X4912920Y-11508293D01*
X4912920Y-11508293D02*
X4912920Y-11460674D01*
X4912920Y-11460674D02*
X4922444Y-11422579D01*
X4922444Y-11422579D02*
X4931967Y-11403531D01*
X4931967Y-11403531D02*
X4941491Y-11394008D01*
X4941491Y-11394008D02*
X4960539Y-11384484D01*
X5112920Y-11584484D02*
X5112920Y-11451150D01*
X5112920Y-11470198D02*
X5122444Y-11460674D01*
X5122444Y-11460674D02*
X5141491Y-11451150D01*
X5141491Y-11451150D02*
X5170063Y-11451150D01*
X5170063Y-11451150D02*
X5189110Y-11460674D01*
X5189110Y-11460674D02*
X5198634Y-11479722D01*
X5198634Y-11479722D02*
X5198634Y-11584484D01*
X5198634Y-11479722D02*
X5208158Y-11460674D01*
X5208158Y-11460674D02*
X5227205Y-11451150D01*
X5227205Y-11451150D02*
X5255777Y-11451150D01*
X5255777Y-11451150D02*
X5274825Y-11460674D01*
X5274825Y-11460674D02*
X5284348Y-11479722D01*
X5284348Y-11479722D02*
X5284348Y-11584484D01*
X5379586Y-11584484D02*
X5379586Y-11451150D01*
X5379586Y-11470198D02*
X5389110Y-11460674D01*
X5389110Y-11460674D02*
X5408158Y-11451150D01*
X5408158Y-11451150D02*
X5436729Y-11451150D01*
X5436729Y-11451150D02*
X5455777Y-11460674D01*
X5455777Y-11460674D02*
X5465301Y-11479722D01*
X5465301Y-11479722D02*
X5465301Y-11584484D01*
X5465301Y-11479722D02*
X5474825Y-11460674D01*
X5474825Y-11460674D02*
X5493872Y-11451150D01*
X5493872Y-11451150D02*
X5522444Y-11451150D01*
X5522444Y-11451150D02*
X5541491Y-11460674D01*
X5541491Y-11460674D02*
X5551015Y-11479722D01*
X5551015Y-11479722D02*
X5551015Y-11584484D01*
X5941491Y-11374960D02*
X5770063Y-11632103D01*
X6198634Y-11384484D02*
X6217682Y-11384484D01*
X6217682Y-11384484D02*
X6236729Y-11394008D01*
X6236729Y-11394008D02*
X6246253Y-11403531D01*
X6246253Y-11403531D02*
X6255777Y-11422579D01*
X6255777Y-11422579D02*
X6265301Y-11460674D01*
X6265301Y-11460674D02*
X6265301Y-11508293D01*
X6265301Y-11508293D02*
X6255777Y-11546388D01*
X6255777Y-11546388D02*
X6246253Y-11565436D01*
X6246253Y-11565436D02*
X6236729Y-11574960D01*
X6236729Y-11574960D02*
X6217682Y-11584484D01*
X6217682Y-11584484D02*
X6198634Y-11584484D01*
X6198634Y-11584484D02*
X6179586Y-11574960D01*
X6179586Y-11574960D02*
X6170063Y-11565436D01*
X6170063Y-11565436D02*
X6160539Y-11546388D01*
X6160539Y-11546388D02*
X6151015Y-11508293D01*
X6151015Y-11508293D02*
X6151015Y-11460674D01*
X6151015Y-11460674D02*
X6160539Y-11422579D01*
X6160539Y-11422579D02*
X6170063Y-11403531D01*
X6170063Y-11403531D02*
X6179586Y-11394008D01*
X6179586Y-11394008D02*
X6198634Y-11384484D01*
X6351015Y-11565436D02*
X6360539Y-11574960D01*
X6360539Y-11574960D02*
X6351015Y-11584484D01*
X6351015Y-11584484D02*
X6341491Y-11574960D01*
X6341491Y-11574960D02*
X6351015Y-11565436D01*
X6351015Y-11565436D02*
X6351015Y-11584484D01*
X6484348Y-11384484D02*
X6503396Y-11384484D01*
X6503396Y-11384484D02*
X6522444Y-11394008D01*
X6522444Y-11394008D02*
X6531967Y-11403531D01*
X6531967Y-11403531D02*
X6541491Y-11422579D01*
X6541491Y-11422579D02*
X6551015Y-11460674D01*
X6551015Y-11460674D02*
X6551015Y-11508293D01*
X6551015Y-11508293D02*
X6541491Y-11546388D01*
X6541491Y-11546388D02*
X6531967Y-11565436D01*
X6531967Y-11565436D02*
X6522444Y-11574960D01*
X6522444Y-11574960D02*
X6503396Y-11584484D01*
X6503396Y-11584484D02*
X6484348Y-11584484D01*
X6484348Y-11584484D02*
X6465301Y-11574960D01*
X6465301Y-11574960D02*
X6455777Y-11565436D01*
X6455777Y-11565436D02*
X6446253Y-11546388D01*
X6446253Y-11546388D02*
X6436729Y-11508293D01*
X6436729Y-11508293D02*
X6436729Y-11460674D01*
X6436729Y-11460674D02*
X6446253Y-11422579D01*
X6446253Y-11422579D02*
X6455777Y-11403531D01*
X6455777Y-11403531D02*
X6465301Y-11394008D01*
X6465301Y-11394008D02*
X6484348Y-11384484D01*
X6722444Y-11451150D02*
X6722444Y-11584484D01*
X6674825Y-11374960D02*
X6627206Y-11517817D01*
X6627206Y-11517817D02*
X6751015Y-11517817D01*
X6865301Y-11384484D02*
X6884348Y-11384484D01*
X6884348Y-11384484D02*
X6903396Y-11394008D01*
X6903396Y-11394008D02*
X6912920Y-11403531D01*
X6912920Y-11403531D02*
X6922444Y-11422579D01*
X6922444Y-11422579D02*
X6931967Y-11460674D01*
X6931967Y-11460674D02*
X6931967Y-11508293D01*
X6931967Y-11508293D02*
X6922444Y-11546388D01*
X6922444Y-11546388D02*
X6912920Y-11565436D01*
X6912920Y-11565436D02*
X6903396Y-11574960D01*
X6903396Y-11574960D02*
X6884348Y-11584484D01*
X6884348Y-11584484D02*
X6865301Y-11584484D01*
X6865301Y-11584484D02*
X6846253Y-11574960D01*
X6846253Y-11574960D02*
X6836729Y-11565436D01*
X6836729Y-11565436D02*
X6827206Y-11546388D01*
X6827206Y-11546388D02*
X6817682Y-11508293D01*
X6817682Y-11508293D02*
X6817682Y-11460674D01*
X6817682Y-11460674D02*
X6827206Y-11422579D01*
X6827206Y-11422579D02*
X6836729Y-11403531D01*
X6836729Y-11403531D02*
X6846253Y-11394008D01*
X6846253Y-11394008D02*
X6865301Y-11384484D01*
X7008158Y-11403531D02*
X7017682Y-11394008D01*
X7017682Y-11394008D02*
X7036729Y-11384484D01*
X7036729Y-11384484D02*
X7084348Y-11384484D01*
X7084348Y-11384484D02*
X7103396Y-11394008D01*
X7103396Y-11394008D02*
X7112920Y-11403531D01*
X7112920Y-11403531D02*
X7122444Y-11422579D01*
X7122444Y-11422579D02*
X7122444Y-11441627D01*
X7122444Y-11441627D02*
X7112920Y-11470198D01*
X7112920Y-11470198D02*
X6998634Y-11584484D01*
X6998634Y-11584484D02*
X7122444Y-11584484D01*
X7198634Y-11384484D02*
X7198634Y-11422579D01*
X7274825Y-11384484D02*
X7274825Y-11422579D01*
X7570063Y-11660674D02*
X7560539Y-11651150D01*
X7560539Y-11651150D02*
X7541491Y-11622579D01*
X7541491Y-11622579D02*
X7531968Y-11603531D01*
X7531968Y-11603531D02*
X7522444Y-11574960D01*
X7522444Y-11574960D02*
X7512920Y-11527341D01*
X7512920Y-11527341D02*
X7512920Y-11489246D01*
X7512920Y-11489246D02*
X7522444Y-11441627D01*
X7522444Y-11441627D02*
X7531968Y-11413055D01*
X7531968Y-11413055D02*
X7541491Y-11394008D01*
X7541491Y-11394008D02*
X7560539Y-11365436D01*
X7560539Y-11365436D02*
X7570063Y-11355912D01*
X7674825Y-11470198D02*
X7655777Y-11460674D01*
X7655777Y-11460674D02*
X7646253Y-11451150D01*
X7646253Y-11451150D02*
X7636729Y-11432103D01*
X7636729Y-11432103D02*
X7636729Y-11422579D01*
X7636729Y-11422579D02*
X7646253Y-11403531D01*
X7646253Y-11403531D02*
X7655777Y-11394008D01*
X7655777Y-11394008D02*
X7674825Y-11384484D01*
X7674825Y-11384484D02*
X7712920Y-11384484D01*
X7712920Y-11384484D02*
X7731968Y-11394008D01*
X7731968Y-11394008D02*
X7741491Y-11403531D01*
X7741491Y-11403531D02*
X7751015Y-11422579D01*
X7751015Y-11422579D02*
X7751015Y-11432103D01*
X7751015Y-11432103D02*
X7741491Y-11451150D01*
X7741491Y-11451150D02*
X7731968Y-11460674D01*
X7731968Y-11460674D02*
X7712920Y-11470198D01*
X7712920Y-11470198D02*
X7674825Y-11470198D01*
X7674825Y-11470198D02*
X7655777Y-11479722D01*
X7655777Y-11479722D02*
X7646253Y-11489246D01*
X7646253Y-11489246D02*
X7636729Y-11508293D01*
X7636729Y-11508293D02*
X7636729Y-11546388D01*
X7636729Y-11546388D02*
X7646253Y-11565436D01*
X7646253Y-11565436D02*
X7655777Y-11574960D01*
X7655777Y-11574960D02*
X7674825Y-11584484D01*
X7674825Y-11584484D02*
X7712920Y-11584484D01*
X7712920Y-11584484D02*
X7731968Y-11574960D01*
X7731968Y-11574960D02*
X7741491Y-11565436D01*
X7741491Y-11565436D02*
X7751015Y-11546388D01*
X7751015Y-11546388D02*
X7751015Y-11508293D01*
X7751015Y-11508293D02*
X7741491Y-11489246D01*
X7741491Y-11489246D02*
X7731968Y-11479722D01*
X7731968Y-11479722D02*
X7712920Y-11470198D01*
X7989110Y-11584484D02*
X7989110Y-11384484D01*
X8074825Y-11584484D02*
X8074825Y-11479722D01*
X8074825Y-11479722D02*
X8065301Y-11460674D01*
X8065301Y-11460674D02*
X8046253Y-11451150D01*
X8046253Y-11451150D02*
X8017682Y-11451150D01*
X8017682Y-11451150D02*
X7998634Y-11460674D01*
X7998634Y-11460674D02*
X7989110Y-11470198D01*
X8198634Y-11584484D02*
X8179587Y-11574960D01*
X8179587Y-11574960D02*
X8170063Y-11565436D01*
X8170063Y-11565436D02*
X8160539Y-11546388D01*
X8160539Y-11546388D02*
X8160539Y-11489246D01*
X8160539Y-11489246D02*
X8170063Y-11470198D01*
X8170063Y-11470198D02*
X8179587Y-11460674D01*
X8179587Y-11460674D02*
X8198634Y-11451150D01*
X8198634Y-11451150D02*
X8227206Y-11451150D01*
X8227206Y-11451150D02*
X8246253Y-11460674D01*
X8246253Y-11460674D02*
X8255777Y-11470198D01*
X8255777Y-11470198D02*
X8265301Y-11489246D01*
X8265301Y-11489246D02*
X8265301Y-11546388D01*
X8265301Y-11546388D02*
X8255777Y-11565436D01*
X8255777Y-11565436D02*
X8246253Y-11574960D01*
X8246253Y-11574960D02*
X8227206Y-11584484D01*
X8227206Y-11584484D02*
X8198634Y-11584484D01*
X8379587Y-11584484D02*
X8360539Y-11574960D01*
X8360539Y-11574960D02*
X8351015Y-11555912D01*
X8351015Y-11555912D02*
X8351015Y-11384484D01*
X8531968Y-11574960D02*
X8512920Y-11584484D01*
X8512920Y-11584484D02*
X8474825Y-11584484D01*
X8474825Y-11584484D02*
X8455777Y-11574960D01*
X8455777Y-11574960D02*
X8446253Y-11555912D01*
X8446253Y-11555912D02*
X8446253Y-11479722D01*
X8446253Y-11479722D02*
X8455777Y-11460674D01*
X8455777Y-11460674D02*
X8474825Y-11451150D01*
X8474825Y-11451150D02*
X8512920Y-11451150D01*
X8512920Y-11451150D02*
X8531968Y-11460674D01*
X8531968Y-11460674D02*
X8541492Y-11479722D01*
X8541492Y-11479722D02*
X8541492Y-11498769D01*
X8541492Y-11498769D02*
X8446253Y-11517817D01*
X8617682Y-11574960D02*
X8636730Y-11584484D01*
X8636730Y-11584484D02*
X8674825Y-11584484D01*
X8674825Y-11584484D02*
X8693873Y-11574960D01*
X8693873Y-11574960D02*
X8703396Y-11555912D01*
X8703396Y-11555912D02*
X8703396Y-11546388D01*
X8703396Y-11546388D02*
X8693873Y-11527341D01*
X8693873Y-11527341D02*
X8674825Y-11517817D01*
X8674825Y-11517817D02*
X8646253Y-11517817D01*
X8646253Y-11517817D02*
X8627206Y-11508293D01*
X8627206Y-11508293D02*
X8617682Y-11489246D01*
X8617682Y-11489246D02*
X8617682Y-11479722D01*
X8617682Y-11479722D02*
X8627206Y-11460674D01*
X8627206Y-11460674D02*
X8646253Y-11451150D01*
X8646253Y-11451150D02*
X8674825Y-11451150D01*
X8674825Y-11451150D02*
X8693873Y-11460674D01*
X8770063Y-11660674D02*
X8779587Y-11651150D01*
X8779587Y-11651150D02*
X8798634Y-11622579D01*
X8798634Y-11622579D02*
X8808158Y-11603531D01*
X8808158Y-11603531D02*
X8817682Y-11574960D01*
X8817682Y-11574960D02*
X8827206Y-11527341D01*
X8827206Y-11527341D02*
X8827206Y-11489246D01*
X8827206Y-11489246D02*
X8817682Y-11441627D01*
X8817682Y-11441627D02*
X8808158Y-11413055D01*
X8808158Y-11413055D02*
X8798634Y-11394008D01*
X8798634Y-11394008D02*
X8779587Y-11365436D01*
X8779587Y-11365436D02*
X8770063Y-11355912D01*
D13*
X3825000Y-11672000D02*
X3995000Y-11842000D01*
X3995000Y-11672000D02*
X3825000Y-11842000D01*
X3910000Y-11842000D02*
X3995000Y-11757000D01*
X3910000Y-11672000D01*
X3825000Y-11757000D01*
X3910000Y-11842000D01*
D11*
X4360539Y-11848484D02*
X4246253Y-11848484D01*
X4303396Y-11848484D02*
X4303396Y-11648484D01*
X4303396Y-11648484D02*
X4284348Y-11677055D01*
X4284348Y-11677055D02*
X4265301Y-11696103D01*
X4265301Y-11696103D02*
X4246253Y-11705627D01*
X4446253Y-11829436D02*
X4455777Y-11838960D01*
X4455777Y-11838960D02*
X4446253Y-11848484D01*
X4446253Y-11848484D02*
X4436729Y-11838960D01*
X4436729Y-11838960D02*
X4446253Y-11829436D01*
X4446253Y-11829436D02*
X4446253Y-11848484D01*
X4522444Y-11648484D02*
X4655777Y-11648484D01*
X4655777Y-11648484D02*
X4570063Y-11848484D01*
X4770063Y-11648484D02*
X4789110Y-11648484D01*
X4789110Y-11648484D02*
X4808158Y-11658008D01*
X4808158Y-11658008D02*
X4817682Y-11667531D01*
X4817682Y-11667531D02*
X4827205Y-11686579D01*
X4827205Y-11686579D02*
X4836729Y-11724674D01*
X4836729Y-11724674D02*
X4836729Y-11772293D01*
X4836729Y-11772293D02*
X4827205Y-11810388D01*
X4827205Y-11810388D02*
X4817682Y-11829436D01*
X4817682Y-11829436D02*
X4808158Y-11838960D01*
X4808158Y-11838960D02*
X4789110Y-11848484D01*
X4789110Y-11848484D02*
X4770063Y-11848484D01*
X4770063Y-11848484D02*
X4751015Y-11838960D01*
X4751015Y-11838960D02*
X4741491Y-11829436D01*
X4741491Y-11829436D02*
X4731967Y-11810388D01*
X4731967Y-11810388D02*
X4722444Y-11772293D01*
X4722444Y-11772293D02*
X4722444Y-11724674D01*
X4722444Y-11724674D02*
X4731967Y-11686579D01*
X4731967Y-11686579D02*
X4741491Y-11667531D01*
X4741491Y-11667531D02*
X4751015Y-11658008D01*
X4751015Y-11658008D02*
X4770063Y-11648484D01*
X4960539Y-11648484D02*
X4979586Y-11648484D01*
X4979586Y-11648484D02*
X4998634Y-11658008D01*
X4998634Y-11658008D02*
X5008158Y-11667531D01*
X5008158Y-11667531D02*
X5017682Y-11686579D01*
X5017682Y-11686579D02*
X5027205Y-11724674D01*
X5027205Y-11724674D02*
X5027205Y-11772293D01*
X5027205Y-11772293D02*
X5017682Y-11810388D01*
X5017682Y-11810388D02*
X5008158Y-11829436D01*
X5008158Y-11829436D02*
X4998634Y-11838960D01*
X4998634Y-11838960D02*
X4979586Y-11848484D01*
X4979586Y-11848484D02*
X4960539Y-11848484D01*
X4960539Y-11848484D02*
X4941491Y-11838960D01*
X4941491Y-11838960D02*
X4931967Y-11829436D01*
X4931967Y-11829436D02*
X4922444Y-11810388D01*
X4922444Y-11810388D02*
X4912920Y-11772293D01*
X4912920Y-11772293D02*
X4912920Y-11724674D01*
X4912920Y-11724674D02*
X4922444Y-11686579D01*
X4922444Y-11686579D02*
X4931967Y-11667531D01*
X4931967Y-11667531D02*
X4941491Y-11658008D01*
X4941491Y-11658008D02*
X4960539Y-11648484D01*
X5112920Y-11848484D02*
X5112920Y-11715150D01*
X5112920Y-11734198D02*
X5122444Y-11724674D01*
X5122444Y-11724674D02*
X5141491Y-11715150D01*
X5141491Y-11715150D02*
X5170063Y-11715150D01*
X5170063Y-11715150D02*
X5189110Y-11724674D01*
X5189110Y-11724674D02*
X5198634Y-11743722D01*
X5198634Y-11743722D02*
X5198634Y-11848484D01*
X5198634Y-11743722D02*
X5208158Y-11724674D01*
X5208158Y-11724674D02*
X5227205Y-11715150D01*
X5227205Y-11715150D02*
X5255777Y-11715150D01*
X5255777Y-11715150D02*
X5274825Y-11724674D01*
X5274825Y-11724674D02*
X5284348Y-11743722D01*
X5284348Y-11743722D02*
X5284348Y-11848484D01*
X5379586Y-11848484D02*
X5379586Y-11715150D01*
X5379586Y-11734198D02*
X5389110Y-11724674D01*
X5389110Y-11724674D02*
X5408158Y-11715150D01*
X5408158Y-11715150D02*
X5436729Y-11715150D01*
X5436729Y-11715150D02*
X5455777Y-11724674D01*
X5455777Y-11724674D02*
X5465301Y-11743722D01*
X5465301Y-11743722D02*
X5465301Y-11848484D01*
X5465301Y-11743722D02*
X5474825Y-11724674D01*
X5474825Y-11724674D02*
X5493872Y-11715150D01*
X5493872Y-11715150D02*
X5522444Y-11715150D01*
X5522444Y-11715150D02*
X5541491Y-11724674D01*
X5541491Y-11724674D02*
X5551015Y-11743722D01*
X5551015Y-11743722D02*
X5551015Y-11848484D01*
X5941491Y-11638960D02*
X5770063Y-11896103D01*
X6198634Y-11648484D02*
X6217682Y-11648484D01*
X6217682Y-11648484D02*
X6236729Y-11658008D01*
X6236729Y-11658008D02*
X6246253Y-11667531D01*
X6246253Y-11667531D02*
X6255777Y-11686579D01*
X6255777Y-11686579D02*
X6265301Y-11724674D01*
X6265301Y-11724674D02*
X6265301Y-11772293D01*
X6265301Y-11772293D02*
X6255777Y-11810388D01*
X6255777Y-11810388D02*
X6246253Y-11829436D01*
X6246253Y-11829436D02*
X6236729Y-11838960D01*
X6236729Y-11838960D02*
X6217682Y-11848484D01*
X6217682Y-11848484D02*
X6198634Y-11848484D01*
X6198634Y-11848484D02*
X6179586Y-11838960D01*
X6179586Y-11838960D02*
X6170063Y-11829436D01*
X6170063Y-11829436D02*
X6160539Y-11810388D01*
X6160539Y-11810388D02*
X6151015Y-11772293D01*
X6151015Y-11772293D02*
X6151015Y-11724674D01*
X6151015Y-11724674D02*
X6160539Y-11686579D01*
X6160539Y-11686579D02*
X6170063Y-11667531D01*
X6170063Y-11667531D02*
X6179586Y-11658008D01*
X6179586Y-11658008D02*
X6198634Y-11648484D01*
X6351015Y-11829436D02*
X6360539Y-11838960D01*
X6360539Y-11838960D02*
X6351015Y-11848484D01*
X6351015Y-11848484D02*
X6341491Y-11838960D01*
X6341491Y-11838960D02*
X6351015Y-11829436D01*
X6351015Y-11829436D02*
X6351015Y-11848484D01*
X6484348Y-11648484D02*
X6503396Y-11648484D01*
X6503396Y-11648484D02*
X6522444Y-11658008D01*
X6522444Y-11658008D02*
X6531967Y-11667531D01*
X6531967Y-11667531D02*
X6541491Y-11686579D01*
X6541491Y-11686579D02*
X6551015Y-11724674D01*
X6551015Y-11724674D02*
X6551015Y-11772293D01*
X6551015Y-11772293D02*
X6541491Y-11810388D01*
X6541491Y-11810388D02*
X6531967Y-11829436D01*
X6531967Y-11829436D02*
X6522444Y-11838960D01*
X6522444Y-11838960D02*
X6503396Y-11848484D01*
X6503396Y-11848484D02*
X6484348Y-11848484D01*
X6484348Y-11848484D02*
X6465301Y-11838960D01*
X6465301Y-11838960D02*
X6455777Y-11829436D01*
X6455777Y-11829436D02*
X6446253Y-11810388D01*
X6446253Y-11810388D02*
X6436729Y-11772293D01*
X6436729Y-11772293D02*
X6436729Y-11724674D01*
X6436729Y-11724674D02*
X6446253Y-11686579D01*
X6446253Y-11686579D02*
X6455777Y-11667531D01*
X6455777Y-11667531D02*
X6465301Y-11658008D01*
X6465301Y-11658008D02*
X6484348Y-11648484D01*
X6722444Y-11648484D02*
X6684348Y-11648484D01*
X6684348Y-11648484D02*
X6665301Y-11658008D01*
X6665301Y-11658008D02*
X6655777Y-11667531D01*
X6655777Y-11667531D02*
X6636729Y-11696103D01*
X6636729Y-11696103D02*
X6627206Y-11734198D01*
X6627206Y-11734198D02*
X6627206Y-11810388D01*
X6627206Y-11810388D02*
X6636729Y-11829436D01*
X6636729Y-11829436D02*
X6646253Y-11838960D01*
X6646253Y-11838960D02*
X6665301Y-11848484D01*
X6665301Y-11848484D02*
X6703396Y-11848484D01*
X6703396Y-11848484D02*
X6722444Y-11838960D01*
X6722444Y-11838960D02*
X6731967Y-11829436D01*
X6731967Y-11829436D02*
X6741491Y-11810388D01*
X6741491Y-11810388D02*
X6741491Y-11762769D01*
X6741491Y-11762769D02*
X6731967Y-11743722D01*
X6731967Y-11743722D02*
X6722444Y-11734198D01*
X6722444Y-11734198D02*
X6703396Y-11724674D01*
X6703396Y-11724674D02*
X6665301Y-11724674D01*
X6665301Y-11724674D02*
X6646253Y-11734198D01*
X6646253Y-11734198D02*
X6636729Y-11743722D01*
X6636729Y-11743722D02*
X6627206Y-11762769D01*
X6912920Y-11648484D02*
X6874825Y-11648484D01*
X6874825Y-11648484D02*
X6855777Y-11658008D01*
X6855777Y-11658008D02*
X6846253Y-11667531D01*
X6846253Y-11667531D02*
X6827206Y-11696103D01*
X6827206Y-11696103D02*
X6817682Y-11734198D01*
X6817682Y-11734198D02*
X6817682Y-11810388D01*
X6817682Y-11810388D02*
X6827206Y-11829436D01*
X6827206Y-11829436D02*
X6836729Y-11838960D01*
X6836729Y-11838960D02*
X6855777Y-11848484D01*
X6855777Y-11848484D02*
X6893872Y-11848484D01*
X6893872Y-11848484D02*
X6912920Y-11838960D01*
X6912920Y-11838960D02*
X6922444Y-11829436D01*
X6922444Y-11829436D02*
X6931967Y-11810388D01*
X6931967Y-11810388D02*
X6931967Y-11762769D01*
X6931967Y-11762769D02*
X6922444Y-11743722D01*
X6922444Y-11743722D02*
X6912920Y-11734198D01*
X6912920Y-11734198D02*
X6893872Y-11724674D01*
X6893872Y-11724674D02*
X6855777Y-11724674D01*
X6855777Y-11724674D02*
X6836729Y-11734198D01*
X6836729Y-11734198D02*
X6827206Y-11743722D01*
X6827206Y-11743722D02*
X6817682Y-11762769D01*
X7027206Y-11848484D02*
X7065301Y-11848484D01*
X7065301Y-11848484D02*
X7084348Y-11838960D01*
X7084348Y-11838960D02*
X7093872Y-11829436D01*
X7093872Y-11829436D02*
X7112920Y-11800865D01*
X7112920Y-11800865D02*
X7122444Y-11762769D01*
X7122444Y-11762769D02*
X7122444Y-11686579D01*
X7122444Y-11686579D02*
X7112920Y-11667531D01*
X7112920Y-11667531D02*
X7103396Y-11658008D01*
X7103396Y-11658008D02*
X7084348Y-11648484D01*
X7084348Y-11648484D02*
X7046253Y-11648484D01*
X7046253Y-11648484D02*
X7027206Y-11658008D01*
X7027206Y-11658008D02*
X7017682Y-11667531D01*
X7017682Y-11667531D02*
X7008158Y-11686579D01*
X7008158Y-11686579D02*
X7008158Y-11734198D01*
X7008158Y-11734198D02*
X7017682Y-11753246D01*
X7017682Y-11753246D02*
X7027206Y-11762769D01*
X7027206Y-11762769D02*
X7046253Y-11772293D01*
X7046253Y-11772293D02*
X7084348Y-11772293D01*
X7084348Y-11772293D02*
X7103396Y-11762769D01*
X7103396Y-11762769D02*
X7112920Y-11753246D01*
X7112920Y-11753246D02*
X7122444Y-11734198D01*
X7198634Y-11648484D02*
X7198634Y-11686579D01*
X7274825Y-11648484D02*
X7274825Y-11686579D01*
X7570063Y-11924674D02*
X7560539Y-11915150D01*
X7560539Y-11915150D02*
X7541491Y-11886579D01*
X7541491Y-11886579D02*
X7531968Y-11867531D01*
X7531968Y-11867531D02*
X7522444Y-11838960D01*
X7522444Y-11838960D02*
X7512920Y-11791341D01*
X7512920Y-11791341D02*
X7512920Y-11753246D01*
X7512920Y-11753246D02*
X7522444Y-11705627D01*
X7522444Y-11705627D02*
X7531968Y-11677055D01*
X7531968Y-11677055D02*
X7541491Y-11658008D01*
X7541491Y-11658008D02*
X7560539Y-11629436D01*
X7560539Y-11629436D02*
X7570063Y-11619912D01*
X7636729Y-11667531D02*
X7646253Y-11658008D01*
X7646253Y-11658008D02*
X7665301Y-11648484D01*
X7665301Y-11648484D02*
X7712920Y-11648484D01*
X7712920Y-11648484D02*
X7731968Y-11658008D01*
X7731968Y-11658008D02*
X7741491Y-11667531D01*
X7741491Y-11667531D02*
X7751015Y-11686579D01*
X7751015Y-11686579D02*
X7751015Y-11705627D01*
X7751015Y-11705627D02*
X7741491Y-11734198D01*
X7741491Y-11734198D02*
X7627206Y-11848484D01*
X7627206Y-11848484D02*
X7751015Y-11848484D01*
X7989110Y-11848484D02*
X7989110Y-11648484D01*
X8074825Y-11848484D02*
X8074825Y-11743722D01*
X8074825Y-11743722D02*
X8065301Y-11724674D01*
X8065301Y-11724674D02*
X8046253Y-11715150D01*
X8046253Y-11715150D02*
X8017682Y-11715150D01*
X8017682Y-11715150D02*
X7998634Y-11724674D01*
X7998634Y-11724674D02*
X7989110Y-11734198D01*
X8198634Y-11848484D02*
X8179587Y-11838960D01*
X8179587Y-11838960D02*
X8170063Y-11829436D01*
X8170063Y-11829436D02*
X8160539Y-11810388D01*
X8160539Y-11810388D02*
X8160539Y-11753246D01*
X8160539Y-11753246D02*
X8170063Y-11734198D01*
X8170063Y-11734198D02*
X8179587Y-11724674D01*
X8179587Y-11724674D02*
X8198634Y-11715150D01*
X8198634Y-11715150D02*
X8227206Y-11715150D01*
X8227206Y-11715150D02*
X8246253Y-11724674D01*
X8246253Y-11724674D02*
X8255777Y-11734198D01*
X8255777Y-11734198D02*
X8265301Y-11753246D01*
X8265301Y-11753246D02*
X8265301Y-11810388D01*
X8265301Y-11810388D02*
X8255777Y-11829436D01*
X8255777Y-11829436D02*
X8246253Y-11838960D01*
X8246253Y-11838960D02*
X8227206Y-11848484D01*
X8227206Y-11848484D02*
X8198634Y-11848484D01*
X8379587Y-11848484D02*
X8360539Y-11838960D01*
X8360539Y-11838960D02*
X8351015Y-11819912D01*
X8351015Y-11819912D02*
X8351015Y-11648484D01*
X8531968Y-11838960D02*
X8512920Y-11848484D01*
X8512920Y-11848484D02*
X8474825Y-11848484D01*
X8474825Y-11848484D02*
X8455777Y-11838960D01*
X8455777Y-11838960D02*
X8446253Y-11819912D01*
X8446253Y-11819912D02*
X8446253Y-11743722D01*
X8446253Y-11743722D02*
X8455777Y-11724674D01*
X8455777Y-11724674D02*
X8474825Y-11715150D01*
X8474825Y-11715150D02*
X8512920Y-11715150D01*
X8512920Y-11715150D02*
X8531968Y-11724674D01*
X8531968Y-11724674D02*
X8541492Y-11743722D01*
X8541492Y-11743722D02*
X8541492Y-11762769D01*
X8541492Y-11762769D02*
X8446253Y-11781817D01*
X8617682Y-11838960D02*
X8636730Y-11848484D01*
X8636730Y-11848484D02*
X8674825Y-11848484D01*
X8674825Y-11848484D02*
X8693873Y-11838960D01*
X8693873Y-11838960D02*
X8703396Y-11819912D01*
X8703396Y-11819912D02*
X8703396Y-11810388D01*
X8703396Y-11810388D02*
X8693873Y-11791341D01*
X8693873Y-11791341D02*
X8674825Y-11781817D01*
X8674825Y-11781817D02*
X8646253Y-11781817D01*
X8646253Y-11781817D02*
X8627206Y-11772293D01*
X8627206Y-11772293D02*
X8617682Y-11753246D01*
X8617682Y-11753246D02*
X8617682Y-11743722D01*
X8617682Y-11743722D02*
X8627206Y-11724674D01*
X8627206Y-11724674D02*
X8646253Y-11715150D01*
X8646253Y-11715150D02*
X8674825Y-11715150D01*
X8674825Y-11715150D02*
X8693873Y-11724674D01*
X8770063Y-11924674D02*
X8779587Y-11915150D01*
X8779587Y-11915150D02*
X8798634Y-11886579D01*
X8798634Y-11886579D02*
X8808158Y-11867531D01*
X8808158Y-11867531D02*
X8817682Y-11838960D01*
X8817682Y-11838960D02*
X8827206Y-11791341D01*
X8827206Y-11791341D02*
X8827206Y-11753246D01*
X8827206Y-11753246D02*
X8817682Y-11705627D01*
X8817682Y-11705627D02*
X8808158Y-11677055D01*
X8808158Y-11677055D02*
X8798634Y-11658008D01*
X8798634Y-11658008D02*
X8779587Y-11629436D01*
X8779587Y-11629436D02*
X8770063Y-11619912D01*
M02*
