%TF.GenerationSoftware,KiCad,Pcbnew,8.0.4*%
%TF.CreationDate,2024-11-24T01:25:47+11:00*%
%TF.ProjectId,cm4-bare-minimum,636d342d-6261-4726-952d-6d696e696d75,V0.1*%
%TF.SameCoordinates,Original*%
%TF.FileFunction,Drillmap*%
%TF.FilePolarity,Positive*%
%FSLAX45Y45*%
G04 Gerber Fmt 4.5, Leading zero omitted, Abs format (unit mm)*
G04 Created by KiCad (PCBNEW 8.0.4) date 2024-11-24 01:25:47*
%MOMM*%
%LPD*%
G01*
G04 APERTURE LIST*
%ADD10C,0.100000*%
%ADD11C,0.200000*%
%ADD12C,0.110000*%
%ADD13C,0.270000*%
%ADD14C,0.320000*%
G04 APERTURE END LIST*
D10*
X4000000Y-5000000D02*
X16000000Y-5000000D01*
X16000000Y-9000000D01*
X4000000Y-9000000D01*
X4000000Y-5000000D01*
D11*
D10*
X4625500Y-5188000D02*
X4690500Y-5253000D01*
X4690500Y-5188000D02*
X4625500Y-5253000D01*
X4625500Y-5766000D02*
X4690500Y-5831000D01*
X4690500Y-5766000D02*
X4625500Y-5831000D01*
D12*
X7298500Y-5104000D02*
G75*
G02*
X7188500Y-5104000I-55000J0D01*
G01*
X7188500Y-5104000D02*
G75*
G02*
X7298500Y-5104000I55000J0D01*
G01*
D13*
X8960000Y-5212500D02*
X8960000Y-5482500D01*
X8825000Y-5347500D02*
X9095000Y-5347500D01*
X8960000Y-8512500D02*
X8960000Y-8782500D01*
X8825000Y-8647500D02*
X9095000Y-8647500D01*
X13760000Y-5212500D02*
X13760000Y-5482500D01*
X13625000Y-5347500D02*
X13895000Y-5347500D01*
X13760000Y-8512500D02*
X13760000Y-8782500D01*
X13625000Y-8647500D02*
X13895000Y-8647500D01*
D14*
X5236888Y-7614138D02*
X5236888Y-7387862D01*
X5010612Y-7387862D01*
X5010612Y-7614138D01*
X5236888Y-7614138D01*
X5236888Y-8757138D02*
X5236888Y-8530862D01*
X5010612Y-8530862D01*
X5010612Y-8757138D01*
X5236888Y-8757138D01*
D11*
X4255777Y-9316484D02*
X4255777Y-9116484D01*
X4255777Y-9116484D02*
X4303396Y-9116484D01*
X4303396Y-9116484D02*
X4331967Y-9126008D01*
X4331967Y-9126008D02*
X4351015Y-9145055D01*
X4351015Y-9145055D02*
X4360539Y-9164103D01*
X4360539Y-9164103D02*
X4370063Y-9202198D01*
X4370063Y-9202198D02*
X4370063Y-9230770D01*
X4370063Y-9230770D02*
X4360539Y-9268865D01*
X4360539Y-9268865D02*
X4351015Y-9287912D01*
X4351015Y-9287912D02*
X4331967Y-9306960D01*
X4331967Y-9306960D02*
X4303396Y-9316484D01*
X4303396Y-9316484D02*
X4255777Y-9316484D01*
X4455777Y-9316484D02*
X4455777Y-9183150D01*
X4455777Y-9221246D02*
X4465301Y-9202198D01*
X4465301Y-9202198D02*
X4474824Y-9192674D01*
X4474824Y-9192674D02*
X4493872Y-9183150D01*
X4493872Y-9183150D02*
X4512920Y-9183150D01*
X4579586Y-9316484D02*
X4579586Y-9183150D01*
X4579586Y-9116484D02*
X4570063Y-9126008D01*
X4570063Y-9126008D02*
X4579586Y-9135531D01*
X4579586Y-9135531D02*
X4589110Y-9126008D01*
X4589110Y-9126008D02*
X4579586Y-9116484D01*
X4579586Y-9116484D02*
X4579586Y-9135531D01*
X4703396Y-9316484D02*
X4684348Y-9306960D01*
X4684348Y-9306960D02*
X4674824Y-9287912D01*
X4674824Y-9287912D02*
X4674824Y-9116484D01*
X4808158Y-9316484D02*
X4789110Y-9306960D01*
X4789110Y-9306960D02*
X4779586Y-9287912D01*
X4779586Y-9287912D02*
X4779586Y-9116484D01*
X5036729Y-9316484D02*
X5036729Y-9116484D01*
X5036729Y-9116484D02*
X5103396Y-9259341D01*
X5103396Y-9259341D02*
X5170063Y-9116484D01*
X5170063Y-9116484D02*
X5170063Y-9316484D01*
X5351015Y-9316484D02*
X5351015Y-9211722D01*
X5351015Y-9211722D02*
X5341491Y-9192674D01*
X5341491Y-9192674D02*
X5322444Y-9183150D01*
X5322444Y-9183150D02*
X5284348Y-9183150D01*
X5284348Y-9183150D02*
X5265301Y-9192674D01*
X5351015Y-9306960D02*
X5331967Y-9316484D01*
X5331967Y-9316484D02*
X5284348Y-9316484D01*
X5284348Y-9316484D02*
X5265301Y-9306960D01*
X5265301Y-9306960D02*
X5255777Y-9287912D01*
X5255777Y-9287912D02*
X5255777Y-9268865D01*
X5255777Y-9268865D02*
X5265301Y-9249817D01*
X5265301Y-9249817D02*
X5284348Y-9240293D01*
X5284348Y-9240293D02*
X5331967Y-9240293D01*
X5331967Y-9240293D02*
X5351015Y-9230770D01*
X5446253Y-9183150D02*
X5446253Y-9383150D01*
X5446253Y-9192674D02*
X5465301Y-9183150D01*
X5465301Y-9183150D02*
X5503396Y-9183150D01*
X5503396Y-9183150D02*
X5522444Y-9192674D01*
X5522444Y-9192674D02*
X5531967Y-9202198D01*
X5531967Y-9202198D02*
X5541491Y-9221246D01*
X5541491Y-9221246D02*
X5541491Y-9278389D01*
X5541491Y-9278389D02*
X5531967Y-9297436D01*
X5531967Y-9297436D02*
X5522444Y-9306960D01*
X5522444Y-9306960D02*
X5503396Y-9316484D01*
X5503396Y-9316484D02*
X5465301Y-9316484D01*
X5465301Y-9316484D02*
X5446253Y-9306960D01*
X5627205Y-9297436D02*
X5636729Y-9306960D01*
X5636729Y-9306960D02*
X5627205Y-9316484D01*
X5627205Y-9316484D02*
X5617682Y-9306960D01*
X5617682Y-9306960D02*
X5627205Y-9297436D01*
X5627205Y-9297436D02*
X5627205Y-9316484D01*
X5627205Y-9192674D02*
X5636729Y-9202198D01*
X5636729Y-9202198D02*
X5627205Y-9211722D01*
X5627205Y-9211722D02*
X5617682Y-9202198D01*
X5617682Y-9202198D02*
X5627205Y-9192674D01*
X5627205Y-9192674D02*
X5627205Y-9211722D01*
D10*
X3930000Y-9612500D02*
X3995000Y-9677500D01*
X3995000Y-9612500D02*
X3930000Y-9677500D01*
D11*
X4293872Y-9536484D02*
X4312920Y-9536484D01*
X4312920Y-9536484D02*
X4331967Y-9546008D01*
X4331967Y-9546008D02*
X4341491Y-9555531D01*
X4341491Y-9555531D02*
X4351015Y-9574579D01*
X4351015Y-9574579D02*
X4360539Y-9612674D01*
X4360539Y-9612674D02*
X4360539Y-9660293D01*
X4360539Y-9660293D02*
X4351015Y-9698389D01*
X4351015Y-9698389D02*
X4341491Y-9717436D01*
X4341491Y-9717436D02*
X4331967Y-9726960D01*
X4331967Y-9726960D02*
X4312920Y-9736484D01*
X4312920Y-9736484D02*
X4293872Y-9736484D01*
X4293872Y-9736484D02*
X4274824Y-9726960D01*
X4274824Y-9726960D02*
X4265301Y-9717436D01*
X4265301Y-9717436D02*
X4255777Y-9698389D01*
X4255777Y-9698389D02*
X4246253Y-9660293D01*
X4246253Y-9660293D02*
X4246253Y-9612674D01*
X4246253Y-9612674D02*
X4255777Y-9574579D01*
X4255777Y-9574579D02*
X4265301Y-9555531D01*
X4265301Y-9555531D02*
X4274824Y-9546008D01*
X4274824Y-9546008D02*
X4293872Y-9536484D01*
X4446253Y-9717436D02*
X4455777Y-9726960D01*
X4455777Y-9726960D02*
X4446253Y-9736484D01*
X4446253Y-9736484D02*
X4436729Y-9726960D01*
X4436729Y-9726960D02*
X4446253Y-9717436D01*
X4446253Y-9717436D02*
X4446253Y-9736484D01*
X4627205Y-9536484D02*
X4589110Y-9536484D01*
X4589110Y-9536484D02*
X4570063Y-9546008D01*
X4570063Y-9546008D02*
X4560539Y-9555531D01*
X4560539Y-9555531D02*
X4541491Y-9584103D01*
X4541491Y-9584103D02*
X4531967Y-9622198D01*
X4531967Y-9622198D02*
X4531967Y-9698389D01*
X4531967Y-9698389D02*
X4541491Y-9717436D01*
X4541491Y-9717436D02*
X4551015Y-9726960D01*
X4551015Y-9726960D02*
X4570063Y-9736484D01*
X4570063Y-9736484D02*
X4608158Y-9736484D01*
X4608158Y-9736484D02*
X4627205Y-9726960D01*
X4627205Y-9726960D02*
X4636729Y-9717436D01*
X4636729Y-9717436D02*
X4646253Y-9698389D01*
X4646253Y-9698389D02*
X4646253Y-9650770D01*
X4646253Y-9650770D02*
X4636729Y-9631722D01*
X4636729Y-9631722D02*
X4627205Y-9622198D01*
X4627205Y-9622198D02*
X4608158Y-9612674D01*
X4608158Y-9612674D02*
X4570063Y-9612674D01*
X4570063Y-9612674D02*
X4551015Y-9622198D01*
X4551015Y-9622198D02*
X4541491Y-9631722D01*
X4541491Y-9631722D02*
X4531967Y-9650770D01*
X4827205Y-9536484D02*
X4731967Y-9536484D01*
X4731967Y-9536484D02*
X4722444Y-9631722D01*
X4722444Y-9631722D02*
X4731967Y-9622198D01*
X4731967Y-9622198D02*
X4751015Y-9612674D01*
X4751015Y-9612674D02*
X4798634Y-9612674D01*
X4798634Y-9612674D02*
X4817682Y-9622198D01*
X4817682Y-9622198D02*
X4827205Y-9631722D01*
X4827205Y-9631722D02*
X4836729Y-9650770D01*
X4836729Y-9650770D02*
X4836729Y-9698389D01*
X4836729Y-9698389D02*
X4827205Y-9717436D01*
X4827205Y-9717436D02*
X4817682Y-9726960D01*
X4817682Y-9726960D02*
X4798634Y-9736484D01*
X4798634Y-9736484D02*
X4751015Y-9736484D01*
X4751015Y-9736484D02*
X4731967Y-9726960D01*
X4731967Y-9726960D02*
X4722444Y-9717436D01*
X4960539Y-9536484D02*
X4979586Y-9536484D01*
X4979586Y-9536484D02*
X4998634Y-9546008D01*
X4998634Y-9546008D02*
X5008158Y-9555531D01*
X5008158Y-9555531D02*
X5017682Y-9574579D01*
X5017682Y-9574579D02*
X5027205Y-9612674D01*
X5027205Y-9612674D02*
X5027205Y-9660293D01*
X5027205Y-9660293D02*
X5017682Y-9698389D01*
X5017682Y-9698389D02*
X5008158Y-9717436D01*
X5008158Y-9717436D02*
X4998634Y-9726960D01*
X4998634Y-9726960D02*
X4979586Y-9736484D01*
X4979586Y-9736484D02*
X4960539Y-9736484D01*
X4960539Y-9736484D02*
X4941491Y-9726960D01*
X4941491Y-9726960D02*
X4931967Y-9717436D01*
X4931967Y-9717436D02*
X4922444Y-9698389D01*
X4922444Y-9698389D02*
X4912920Y-9660293D01*
X4912920Y-9660293D02*
X4912920Y-9612674D01*
X4912920Y-9612674D02*
X4922444Y-9574579D01*
X4922444Y-9574579D02*
X4931967Y-9555531D01*
X4931967Y-9555531D02*
X4941491Y-9546008D01*
X4941491Y-9546008D02*
X4960539Y-9536484D01*
X5112920Y-9736484D02*
X5112920Y-9603150D01*
X5112920Y-9622198D02*
X5122444Y-9612674D01*
X5122444Y-9612674D02*
X5141491Y-9603150D01*
X5141491Y-9603150D02*
X5170063Y-9603150D01*
X5170063Y-9603150D02*
X5189110Y-9612674D01*
X5189110Y-9612674D02*
X5198634Y-9631722D01*
X5198634Y-9631722D02*
X5198634Y-9736484D01*
X5198634Y-9631722D02*
X5208158Y-9612674D01*
X5208158Y-9612674D02*
X5227205Y-9603150D01*
X5227205Y-9603150D02*
X5255777Y-9603150D01*
X5255777Y-9603150D02*
X5274825Y-9612674D01*
X5274825Y-9612674D02*
X5284348Y-9631722D01*
X5284348Y-9631722D02*
X5284348Y-9736484D01*
X5379586Y-9736484D02*
X5379586Y-9603150D01*
X5379586Y-9622198D02*
X5389110Y-9612674D01*
X5389110Y-9612674D02*
X5408158Y-9603150D01*
X5408158Y-9603150D02*
X5436729Y-9603150D01*
X5436729Y-9603150D02*
X5455777Y-9612674D01*
X5455777Y-9612674D02*
X5465301Y-9631722D01*
X5465301Y-9631722D02*
X5465301Y-9736484D01*
X5465301Y-9631722D02*
X5474825Y-9612674D01*
X5474825Y-9612674D02*
X5493872Y-9603150D01*
X5493872Y-9603150D02*
X5522444Y-9603150D01*
X5522444Y-9603150D02*
X5541491Y-9612674D01*
X5541491Y-9612674D02*
X5551015Y-9631722D01*
X5551015Y-9631722D02*
X5551015Y-9736484D01*
X5941491Y-9526960D02*
X5770063Y-9784103D01*
X6198634Y-9536484D02*
X6217682Y-9536484D01*
X6217682Y-9536484D02*
X6236729Y-9546008D01*
X6236729Y-9546008D02*
X6246253Y-9555531D01*
X6246253Y-9555531D02*
X6255777Y-9574579D01*
X6255777Y-9574579D02*
X6265301Y-9612674D01*
X6265301Y-9612674D02*
X6265301Y-9660293D01*
X6265301Y-9660293D02*
X6255777Y-9698389D01*
X6255777Y-9698389D02*
X6246253Y-9717436D01*
X6246253Y-9717436D02*
X6236729Y-9726960D01*
X6236729Y-9726960D02*
X6217682Y-9736484D01*
X6217682Y-9736484D02*
X6198634Y-9736484D01*
X6198634Y-9736484D02*
X6179586Y-9726960D01*
X6179586Y-9726960D02*
X6170063Y-9717436D01*
X6170063Y-9717436D02*
X6160539Y-9698389D01*
X6160539Y-9698389D02*
X6151015Y-9660293D01*
X6151015Y-9660293D02*
X6151015Y-9612674D01*
X6151015Y-9612674D02*
X6160539Y-9574579D01*
X6160539Y-9574579D02*
X6170063Y-9555531D01*
X6170063Y-9555531D02*
X6179586Y-9546008D01*
X6179586Y-9546008D02*
X6198634Y-9536484D01*
X6351015Y-9717436D02*
X6360539Y-9726960D01*
X6360539Y-9726960D02*
X6351015Y-9736484D01*
X6351015Y-9736484D02*
X6341491Y-9726960D01*
X6341491Y-9726960D02*
X6351015Y-9717436D01*
X6351015Y-9717436D02*
X6351015Y-9736484D01*
X6484348Y-9536484D02*
X6503396Y-9536484D01*
X6503396Y-9536484D02*
X6522444Y-9546008D01*
X6522444Y-9546008D02*
X6531967Y-9555531D01*
X6531967Y-9555531D02*
X6541491Y-9574579D01*
X6541491Y-9574579D02*
X6551015Y-9612674D01*
X6551015Y-9612674D02*
X6551015Y-9660293D01*
X6551015Y-9660293D02*
X6541491Y-9698389D01*
X6541491Y-9698389D02*
X6531967Y-9717436D01*
X6531967Y-9717436D02*
X6522444Y-9726960D01*
X6522444Y-9726960D02*
X6503396Y-9736484D01*
X6503396Y-9736484D02*
X6484348Y-9736484D01*
X6484348Y-9736484D02*
X6465301Y-9726960D01*
X6465301Y-9726960D02*
X6455777Y-9717436D01*
X6455777Y-9717436D02*
X6446253Y-9698389D01*
X6446253Y-9698389D02*
X6436729Y-9660293D01*
X6436729Y-9660293D02*
X6436729Y-9612674D01*
X6436729Y-9612674D02*
X6446253Y-9574579D01*
X6446253Y-9574579D02*
X6455777Y-9555531D01*
X6455777Y-9555531D02*
X6465301Y-9546008D01*
X6465301Y-9546008D02*
X6484348Y-9536484D01*
X6627206Y-9555531D02*
X6636729Y-9546008D01*
X6636729Y-9546008D02*
X6655777Y-9536484D01*
X6655777Y-9536484D02*
X6703396Y-9536484D01*
X6703396Y-9536484D02*
X6722444Y-9546008D01*
X6722444Y-9546008D02*
X6731967Y-9555531D01*
X6731967Y-9555531D02*
X6741491Y-9574579D01*
X6741491Y-9574579D02*
X6741491Y-9593627D01*
X6741491Y-9593627D02*
X6731967Y-9622198D01*
X6731967Y-9622198D02*
X6617682Y-9736484D01*
X6617682Y-9736484D02*
X6741491Y-9736484D01*
X6922444Y-9536484D02*
X6827206Y-9536484D01*
X6827206Y-9536484D02*
X6817682Y-9631722D01*
X6817682Y-9631722D02*
X6827206Y-9622198D01*
X6827206Y-9622198D02*
X6846253Y-9612674D01*
X6846253Y-9612674D02*
X6893872Y-9612674D01*
X6893872Y-9612674D02*
X6912920Y-9622198D01*
X6912920Y-9622198D02*
X6922444Y-9631722D01*
X6922444Y-9631722D02*
X6931967Y-9650770D01*
X6931967Y-9650770D02*
X6931967Y-9698389D01*
X6931967Y-9698389D02*
X6922444Y-9717436D01*
X6922444Y-9717436D02*
X6912920Y-9726960D01*
X6912920Y-9726960D02*
X6893872Y-9736484D01*
X6893872Y-9736484D02*
X6846253Y-9736484D01*
X6846253Y-9736484D02*
X6827206Y-9726960D01*
X6827206Y-9726960D02*
X6817682Y-9717436D01*
X7103396Y-9536484D02*
X7065301Y-9536484D01*
X7065301Y-9536484D02*
X7046253Y-9546008D01*
X7046253Y-9546008D02*
X7036729Y-9555531D01*
X7036729Y-9555531D02*
X7017682Y-9584103D01*
X7017682Y-9584103D02*
X7008158Y-9622198D01*
X7008158Y-9622198D02*
X7008158Y-9698389D01*
X7008158Y-9698389D02*
X7017682Y-9717436D01*
X7017682Y-9717436D02*
X7027206Y-9726960D01*
X7027206Y-9726960D02*
X7046253Y-9736484D01*
X7046253Y-9736484D02*
X7084348Y-9736484D01*
X7084348Y-9736484D02*
X7103396Y-9726960D01*
X7103396Y-9726960D02*
X7112920Y-9717436D01*
X7112920Y-9717436D02*
X7122444Y-9698389D01*
X7122444Y-9698389D02*
X7122444Y-9650770D01*
X7122444Y-9650770D02*
X7112920Y-9631722D01*
X7112920Y-9631722D02*
X7103396Y-9622198D01*
X7103396Y-9622198D02*
X7084348Y-9612674D01*
X7084348Y-9612674D02*
X7046253Y-9612674D01*
X7046253Y-9612674D02*
X7027206Y-9622198D01*
X7027206Y-9622198D02*
X7017682Y-9631722D01*
X7017682Y-9631722D02*
X7008158Y-9650770D01*
X7198634Y-9536484D02*
X7198634Y-9574579D01*
X7274825Y-9536484D02*
X7274825Y-9574579D01*
X7570063Y-9812674D02*
X7560539Y-9803150D01*
X7560539Y-9803150D02*
X7541491Y-9774579D01*
X7541491Y-9774579D02*
X7531968Y-9755531D01*
X7531968Y-9755531D02*
X7522444Y-9726960D01*
X7522444Y-9726960D02*
X7512920Y-9679341D01*
X7512920Y-9679341D02*
X7512920Y-9641246D01*
X7512920Y-9641246D02*
X7522444Y-9593627D01*
X7522444Y-9593627D02*
X7531968Y-9565055D01*
X7531968Y-9565055D02*
X7541491Y-9546008D01*
X7541491Y-9546008D02*
X7560539Y-9517436D01*
X7560539Y-9517436D02*
X7570063Y-9507912D01*
X7636729Y-9555531D02*
X7646253Y-9546008D01*
X7646253Y-9546008D02*
X7665301Y-9536484D01*
X7665301Y-9536484D02*
X7712920Y-9536484D01*
X7712920Y-9536484D02*
X7731968Y-9546008D01*
X7731968Y-9546008D02*
X7741491Y-9555531D01*
X7741491Y-9555531D02*
X7751015Y-9574579D01*
X7751015Y-9574579D02*
X7751015Y-9593627D01*
X7751015Y-9593627D02*
X7741491Y-9622198D01*
X7741491Y-9622198D02*
X7627206Y-9736484D01*
X7627206Y-9736484D02*
X7751015Y-9736484D01*
X7989110Y-9736484D02*
X7989110Y-9536484D01*
X8074825Y-9736484D02*
X8074825Y-9631722D01*
X8074825Y-9631722D02*
X8065301Y-9612674D01*
X8065301Y-9612674D02*
X8046253Y-9603150D01*
X8046253Y-9603150D02*
X8017682Y-9603150D01*
X8017682Y-9603150D02*
X7998634Y-9612674D01*
X7998634Y-9612674D02*
X7989110Y-9622198D01*
X8198634Y-9736484D02*
X8179587Y-9726960D01*
X8179587Y-9726960D02*
X8170063Y-9717436D01*
X8170063Y-9717436D02*
X8160539Y-9698389D01*
X8160539Y-9698389D02*
X8160539Y-9641246D01*
X8160539Y-9641246D02*
X8170063Y-9622198D01*
X8170063Y-9622198D02*
X8179587Y-9612674D01*
X8179587Y-9612674D02*
X8198634Y-9603150D01*
X8198634Y-9603150D02*
X8227206Y-9603150D01*
X8227206Y-9603150D02*
X8246253Y-9612674D01*
X8246253Y-9612674D02*
X8255777Y-9622198D01*
X8255777Y-9622198D02*
X8265301Y-9641246D01*
X8265301Y-9641246D02*
X8265301Y-9698389D01*
X8265301Y-9698389D02*
X8255777Y-9717436D01*
X8255777Y-9717436D02*
X8246253Y-9726960D01*
X8246253Y-9726960D02*
X8227206Y-9736484D01*
X8227206Y-9736484D02*
X8198634Y-9736484D01*
X8379587Y-9736484D02*
X8360539Y-9726960D01*
X8360539Y-9726960D02*
X8351015Y-9707912D01*
X8351015Y-9707912D02*
X8351015Y-9536484D01*
X8531968Y-9726960D02*
X8512920Y-9736484D01*
X8512920Y-9736484D02*
X8474825Y-9736484D01*
X8474825Y-9736484D02*
X8455777Y-9726960D01*
X8455777Y-9726960D02*
X8446253Y-9707912D01*
X8446253Y-9707912D02*
X8446253Y-9631722D01*
X8446253Y-9631722D02*
X8455777Y-9612674D01*
X8455777Y-9612674D02*
X8474825Y-9603150D01*
X8474825Y-9603150D02*
X8512920Y-9603150D01*
X8512920Y-9603150D02*
X8531968Y-9612674D01*
X8531968Y-9612674D02*
X8541492Y-9631722D01*
X8541492Y-9631722D02*
X8541492Y-9650770D01*
X8541492Y-9650770D02*
X8446253Y-9669817D01*
X8617682Y-9726960D02*
X8636730Y-9736484D01*
X8636730Y-9736484D02*
X8674825Y-9736484D01*
X8674825Y-9736484D02*
X8693873Y-9726960D01*
X8693873Y-9726960D02*
X8703396Y-9707912D01*
X8703396Y-9707912D02*
X8703396Y-9698389D01*
X8703396Y-9698389D02*
X8693873Y-9679341D01*
X8693873Y-9679341D02*
X8674825Y-9669817D01*
X8674825Y-9669817D02*
X8646253Y-9669817D01*
X8646253Y-9669817D02*
X8627206Y-9660293D01*
X8627206Y-9660293D02*
X8617682Y-9641246D01*
X8617682Y-9641246D02*
X8617682Y-9631722D01*
X8617682Y-9631722D02*
X8627206Y-9612674D01*
X8627206Y-9612674D02*
X8646253Y-9603150D01*
X8646253Y-9603150D02*
X8674825Y-9603150D01*
X8674825Y-9603150D02*
X8693873Y-9612674D01*
X8770063Y-9812674D02*
X8779587Y-9803150D01*
X8779587Y-9803150D02*
X8798634Y-9774579D01*
X8798634Y-9774579D02*
X8808158Y-9755531D01*
X8808158Y-9755531D02*
X8817682Y-9726960D01*
X8817682Y-9726960D02*
X8827206Y-9679341D01*
X8827206Y-9679341D02*
X8827206Y-9641246D01*
X8827206Y-9641246D02*
X8817682Y-9593627D01*
X8817682Y-9593627D02*
X8808158Y-9565055D01*
X8808158Y-9565055D02*
X8798634Y-9546008D01*
X8798634Y-9546008D02*
X8779587Y-9517436D01*
X8779587Y-9517436D02*
X8770063Y-9507912D01*
X9131968Y-9812674D02*
X9122444Y-9803150D01*
X9122444Y-9803150D02*
X9103396Y-9774579D01*
X9103396Y-9774579D02*
X9093873Y-9755531D01*
X9093873Y-9755531D02*
X9084349Y-9726960D01*
X9084349Y-9726960D02*
X9074825Y-9679341D01*
X9074825Y-9679341D02*
X9074825Y-9641246D01*
X9074825Y-9641246D02*
X9084349Y-9593627D01*
X9084349Y-9593627D02*
X9093873Y-9565055D01*
X9093873Y-9565055D02*
X9103396Y-9546008D01*
X9103396Y-9546008D02*
X9122444Y-9517436D01*
X9122444Y-9517436D02*
X9131968Y-9507912D01*
X9208158Y-9603150D02*
X9208158Y-9736484D01*
X9208158Y-9622198D02*
X9217682Y-9612674D01*
X9217682Y-9612674D02*
X9236730Y-9603150D01*
X9236730Y-9603150D02*
X9265301Y-9603150D01*
X9265301Y-9603150D02*
X9284349Y-9612674D01*
X9284349Y-9612674D02*
X9293873Y-9631722D01*
X9293873Y-9631722D02*
X9293873Y-9736484D01*
X9417682Y-9736484D02*
X9398634Y-9726960D01*
X9398634Y-9726960D02*
X9389111Y-9717436D01*
X9389111Y-9717436D02*
X9379587Y-9698389D01*
X9379587Y-9698389D02*
X9379587Y-9641246D01*
X9379587Y-9641246D02*
X9389111Y-9622198D01*
X9389111Y-9622198D02*
X9398634Y-9612674D01*
X9398634Y-9612674D02*
X9417682Y-9603150D01*
X9417682Y-9603150D02*
X9446254Y-9603150D01*
X9446254Y-9603150D02*
X9465301Y-9612674D01*
X9465301Y-9612674D02*
X9474825Y-9622198D01*
X9474825Y-9622198D02*
X9484349Y-9641246D01*
X9484349Y-9641246D02*
X9484349Y-9698389D01*
X9484349Y-9698389D02*
X9474825Y-9717436D01*
X9474825Y-9717436D02*
X9465301Y-9726960D01*
X9465301Y-9726960D02*
X9446254Y-9736484D01*
X9446254Y-9736484D02*
X9417682Y-9736484D01*
X9541492Y-9603150D02*
X9617682Y-9603150D01*
X9570063Y-9536484D02*
X9570063Y-9707912D01*
X9570063Y-9707912D02*
X9579587Y-9726960D01*
X9579587Y-9726960D02*
X9598634Y-9736484D01*
X9598634Y-9736484D02*
X9617682Y-9736484D01*
X9836730Y-9603150D02*
X9836730Y-9803150D01*
X9836730Y-9612674D02*
X9855777Y-9603150D01*
X9855777Y-9603150D02*
X9893873Y-9603150D01*
X9893873Y-9603150D02*
X9912920Y-9612674D01*
X9912920Y-9612674D02*
X9922444Y-9622198D01*
X9922444Y-9622198D02*
X9931968Y-9641246D01*
X9931968Y-9641246D02*
X9931968Y-9698389D01*
X9931968Y-9698389D02*
X9922444Y-9717436D01*
X9922444Y-9717436D02*
X9912920Y-9726960D01*
X9912920Y-9726960D02*
X9893873Y-9736484D01*
X9893873Y-9736484D02*
X9855777Y-9736484D01*
X9855777Y-9736484D02*
X9836730Y-9726960D01*
X10046254Y-9736484D02*
X10027206Y-9726960D01*
X10027206Y-9726960D02*
X10017682Y-9707912D01*
X10017682Y-9707912D02*
X10017682Y-9536484D01*
X10208158Y-9736484D02*
X10208158Y-9631722D01*
X10208158Y-9631722D02*
X10198635Y-9612674D01*
X10198635Y-9612674D02*
X10179587Y-9603150D01*
X10179587Y-9603150D02*
X10141492Y-9603150D01*
X10141492Y-9603150D02*
X10122444Y-9612674D01*
X10208158Y-9726960D02*
X10189111Y-9736484D01*
X10189111Y-9736484D02*
X10141492Y-9736484D01*
X10141492Y-9736484D02*
X10122444Y-9726960D01*
X10122444Y-9726960D02*
X10112920Y-9707912D01*
X10112920Y-9707912D02*
X10112920Y-9688865D01*
X10112920Y-9688865D02*
X10122444Y-9669817D01*
X10122444Y-9669817D02*
X10141492Y-9660293D01*
X10141492Y-9660293D02*
X10189111Y-9660293D01*
X10189111Y-9660293D02*
X10208158Y-9650770D01*
X10274825Y-9603150D02*
X10351015Y-9603150D01*
X10303396Y-9536484D02*
X10303396Y-9707912D01*
X10303396Y-9707912D02*
X10312920Y-9726960D01*
X10312920Y-9726960D02*
X10331968Y-9736484D01*
X10331968Y-9736484D02*
X10351015Y-9736484D01*
X10493873Y-9726960D02*
X10474825Y-9736484D01*
X10474825Y-9736484D02*
X10436730Y-9736484D01*
X10436730Y-9736484D02*
X10417682Y-9726960D01*
X10417682Y-9726960D02*
X10408158Y-9707912D01*
X10408158Y-9707912D02*
X10408158Y-9631722D01*
X10408158Y-9631722D02*
X10417682Y-9612674D01*
X10417682Y-9612674D02*
X10436730Y-9603150D01*
X10436730Y-9603150D02*
X10474825Y-9603150D01*
X10474825Y-9603150D02*
X10493873Y-9612674D01*
X10493873Y-9612674D02*
X10503396Y-9631722D01*
X10503396Y-9631722D02*
X10503396Y-9650770D01*
X10503396Y-9650770D02*
X10408158Y-9669817D01*
X10674825Y-9736484D02*
X10674825Y-9536484D01*
X10674825Y-9726960D02*
X10655777Y-9736484D01*
X10655777Y-9736484D02*
X10617682Y-9736484D01*
X10617682Y-9736484D02*
X10598635Y-9726960D01*
X10598635Y-9726960D02*
X10589111Y-9717436D01*
X10589111Y-9717436D02*
X10579587Y-9698389D01*
X10579587Y-9698389D02*
X10579587Y-9641246D01*
X10579587Y-9641246D02*
X10589111Y-9622198D01*
X10589111Y-9622198D02*
X10598635Y-9612674D01*
X10598635Y-9612674D02*
X10617682Y-9603150D01*
X10617682Y-9603150D02*
X10655777Y-9603150D01*
X10655777Y-9603150D02*
X10674825Y-9612674D01*
X10751016Y-9812674D02*
X10760539Y-9803150D01*
X10760539Y-9803150D02*
X10779587Y-9774579D01*
X10779587Y-9774579D02*
X10789111Y-9755531D01*
X10789111Y-9755531D02*
X10798635Y-9726960D01*
X10798635Y-9726960D02*
X10808158Y-9679341D01*
X10808158Y-9679341D02*
X10808158Y-9641246D01*
X10808158Y-9641246D02*
X10798635Y-9593627D01*
X10798635Y-9593627D02*
X10789111Y-9565055D01*
X10789111Y-9565055D02*
X10779587Y-9546008D01*
X10779587Y-9546008D02*
X10760539Y-9517436D01*
X10760539Y-9517436D02*
X10751016Y-9507912D01*
D12*
X3995000Y-9909000D02*
G75*
G02*
X3885000Y-9909000I-55000J0D01*
G01*
X3885000Y-9909000D02*
G75*
G02*
X3995000Y-9909000I55000J0D01*
G01*
D11*
X4360539Y-10000484D02*
X4246253Y-10000484D01*
X4303396Y-10000484D02*
X4303396Y-9800484D01*
X4303396Y-9800484D02*
X4284348Y-9829055D01*
X4284348Y-9829055D02*
X4265301Y-9848103D01*
X4265301Y-9848103D02*
X4246253Y-9857627D01*
X4446253Y-9981436D02*
X4455777Y-9990960D01*
X4455777Y-9990960D02*
X4446253Y-10000484D01*
X4446253Y-10000484D02*
X4436729Y-9990960D01*
X4436729Y-9990960D02*
X4446253Y-9981436D01*
X4446253Y-9981436D02*
X4446253Y-10000484D01*
X4646253Y-10000484D02*
X4531967Y-10000484D01*
X4589110Y-10000484D02*
X4589110Y-9800484D01*
X4589110Y-9800484D02*
X4570063Y-9829055D01*
X4570063Y-9829055D02*
X4551015Y-9848103D01*
X4551015Y-9848103D02*
X4531967Y-9857627D01*
X4770063Y-9800484D02*
X4789110Y-9800484D01*
X4789110Y-9800484D02*
X4808158Y-9810008D01*
X4808158Y-9810008D02*
X4817682Y-9819531D01*
X4817682Y-9819531D02*
X4827205Y-9838579D01*
X4827205Y-9838579D02*
X4836729Y-9876674D01*
X4836729Y-9876674D02*
X4836729Y-9924293D01*
X4836729Y-9924293D02*
X4827205Y-9962389D01*
X4827205Y-9962389D02*
X4817682Y-9981436D01*
X4817682Y-9981436D02*
X4808158Y-9990960D01*
X4808158Y-9990960D02*
X4789110Y-10000484D01*
X4789110Y-10000484D02*
X4770063Y-10000484D01*
X4770063Y-10000484D02*
X4751015Y-9990960D01*
X4751015Y-9990960D02*
X4741491Y-9981436D01*
X4741491Y-9981436D02*
X4731967Y-9962389D01*
X4731967Y-9962389D02*
X4722444Y-9924293D01*
X4722444Y-9924293D02*
X4722444Y-9876674D01*
X4722444Y-9876674D02*
X4731967Y-9838579D01*
X4731967Y-9838579D02*
X4741491Y-9819531D01*
X4741491Y-9819531D02*
X4751015Y-9810008D01*
X4751015Y-9810008D02*
X4770063Y-9800484D01*
X4960539Y-9800484D02*
X4979586Y-9800484D01*
X4979586Y-9800484D02*
X4998634Y-9810008D01*
X4998634Y-9810008D02*
X5008158Y-9819531D01*
X5008158Y-9819531D02*
X5017682Y-9838579D01*
X5017682Y-9838579D02*
X5027205Y-9876674D01*
X5027205Y-9876674D02*
X5027205Y-9924293D01*
X5027205Y-9924293D02*
X5017682Y-9962389D01*
X5017682Y-9962389D02*
X5008158Y-9981436D01*
X5008158Y-9981436D02*
X4998634Y-9990960D01*
X4998634Y-9990960D02*
X4979586Y-10000484D01*
X4979586Y-10000484D02*
X4960539Y-10000484D01*
X4960539Y-10000484D02*
X4941491Y-9990960D01*
X4941491Y-9990960D02*
X4931967Y-9981436D01*
X4931967Y-9981436D02*
X4922444Y-9962389D01*
X4922444Y-9962389D02*
X4912920Y-9924293D01*
X4912920Y-9924293D02*
X4912920Y-9876674D01*
X4912920Y-9876674D02*
X4922444Y-9838579D01*
X4922444Y-9838579D02*
X4931967Y-9819531D01*
X4931967Y-9819531D02*
X4941491Y-9810008D01*
X4941491Y-9810008D02*
X4960539Y-9800484D01*
X5112920Y-10000484D02*
X5112920Y-9867150D01*
X5112920Y-9886198D02*
X5122444Y-9876674D01*
X5122444Y-9876674D02*
X5141491Y-9867150D01*
X5141491Y-9867150D02*
X5170063Y-9867150D01*
X5170063Y-9867150D02*
X5189110Y-9876674D01*
X5189110Y-9876674D02*
X5198634Y-9895722D01*
X5198634Y-9895722D02*
X5198634Y-10000484D01*
X5198634Y-9895722D02*
X5208158Y-9876674D01*
X5208158Y-9876674D02*
X5227205Y-9867150D01*
X5227205Y-9867150D02*
X5255777Y-9867150D01*
X5255777Y-9867150D02*
X5274825Y-9876674D01*
X5274825Y-9876674D02*
X5284348Y-9895722D01*
X5284348Y-9895722D02*
X5284348Y-10000484D01*
X5379586Y-10000484D02*
X5379586Y-9867150D01*
X5379586Y-9886198D02*
X5389110Y-9876674D01*
X5389110Y-9876674D02*
X5408158Y-9867150D01*
X5408158Y-9867150D02*
X5436729Y-9867150D01*
X5436729Y-9867150D02*
X5455777Y-9876674D01*
X5455777Y-9876674D02*
X5465301Y-9895722D01*
X5465301Y-9895722D02*
X5465301Y-10000484D01*
X5465301Y-9895722D02*
X5474825Y-9876674D01*
X5474825Y-9876674D02*
X5493872Y-9867150D01*
X5493872Y-9867150D02*
X5522444Y-9867150D01*
X5522444Y-9867150D02*
X5541491Y-9876674D01*
X5541491Y-9876674D02*
X5551015Y-9895722D01*
X5551015Y-9895722D02*
X5551015Y-10000484D01*
X5941491Y-9790960D02*
X5770063Y-10048103D01*
X6198634Y-9800484D02*
X6217682Y-9800484D01*
X6217682Y-9800484D02*
X6236729Y-9810008D01*
X6236729Y-9810008D02*
X6246253Y-9819531D01*
X6246253Y-9819531D02*
X6255777Y-9838579D01*
X6255777Y-9838579D02*
X6265301Y-9876674D01*
X6265301Y-9876674D02*
X6265301Y-9924293D01*
X6265301Y-9924293D02*
X6255777Y-9962389D01*
X6255777Y-9962389D02*
X6246253Y-9981436D01*
X6246253Y-9981436D02*
X6236729Y-9990960D01*
X6236729Y-9990960D02*
X6217682Y-10000484D01*
X6217682Y-10000484D02*
X6198634Y-10000484D01*
X6198634Y-10000484D02*
X6179586Y-9990960D01*
X6179586Y-9990960D02*
X6170063Y-9981436D01*
X6170063Y-9981436D02*
X6160539Y-9962389D01*
X6160539Y-9962389D02*
X6151015Y-9924293D01*
X6151015Y-9924293D02*
X6151015Y-9876674D01*
X6151015Y-9876674D02*
X6160539Y-9838579D01*
X6160539Y-9838579D02*
X6170063Y-9819531D01*
X6170063Y-9819531D02*
X6179586Y-9810008D01*
X6179586Y-9810008D02*
X6198634Y-9800484D01*
X6351015Y-9981436D02*
X6360539Y-9990960D01*
X6360539Y-9990960D02*
X6351015Y-10000484D01*
X6351015Y-10000484D02*
X6341491Y-9990960D01*
X6341491Y-9990960D02*
X6351015Y-9981436D01*
X6351015Y-9981436D02*
X6351015Y-10000484D01*
X6484348Y-9800484D02*
X6503396Y-9800484D01*
X6503396Y-9800484D02*
X6522444Y-9810008D01*
X6522444Y-9810008D02*
X6531967Y-9819531D01*
X6531967Y-9819531D02*
X6541491Y-9838579D01*
X6541491Y-9838579D02*
X6551015Y-9876674D01*
X6551015Y-9876674D02*
X6551015Y-9924293D01*
X6551015Y-9924293D02*
X6541491Y-9962389D01*
X6541491Y-9962389D02*
X6531967Y-9981436D01*
X6531967Y-9981436D02*
X6522444Y-9990960D01*
X6522444Y-9990960D02*
X6503396Y-10000484D01*
X6503396Y-10000484D02*
X6484348Y-10000484D01*
X6484348Y-10000484D02*
X6465301Y-9990960D01*
X6465301Y-9990960D02*
X6455777Y-9981436D01*
X6455777Y-9981436D02*
X6446253Y-9962389D01*
X6446253Y-9962389D02*
X6436729Y-9924293D01*
X6436729Y-9924293D02*
X6436729Y-9876674D01*
X6436729Y-9876674D02*
X6446253Y-9838579D01*
X6446253Y-9838579D02*
X6455777Y-9819531D01*
X6455777Y-9819531D02*
X6465301Y-9810008D01*
X6465301Y-9810008D02*
X6484348Y-9800484D01*
X6722444Y-9867150D02*
X6722444Y-10000484D01*
X6674825Y-9790960D02*
X6627206Y-9933817D01*
X6627206Y-9933817D02*
X6751015Y-9933817D01*
X6808158Y-9800484D02*
X6931967Y-9800484D01*
X6931967Y-9800484D02*
X6865301Y-9876674D01*
X6865301Y-9876674D02*
X6893872Y-9876674D01*
X6893872Y-9876674D02*
X6912920Y-9886198D01*
X6912920Y-9886198D02*
X6922444Y-9895722D01*
X6922444Y-9895722D02*
X6931967Y-9914770D01*
X6931967Y-9914770D02*
X6931967Y-9962389D01*
X6931967Y-9962389D02*
X6922444Y-9981436D01*
X6922444Y-9981436D02*
X6912920Y-9990960D01*
X6912920Y-9990960D02*
X6893872Y-10000484D01*
X6893872Y-10000484D02*
X6836729Y-10000484D01*
X6836729Y-10000484D02*
X6817682Y-9990960D01*
X6817682Y-9990960D02*
X6808158Y-9981436D01*
X6998634Y-9800484D02*
X7122444Y-9800484D01*
X7122444Y-9800484D02*
X7055777Y-9876674D01*
X7055777Y-9876674D02*
X7084348Y-9876674D01*
X7084348Y-9876674D02*
X7103396Y-9886198D01*
X7103396Y-9886198D02*
X7112920Y-9895722D01*
X7112920Y-9895722D02*
X7122444Y-9914770D01*
X7122444Y-9914770D02*
X7122444Y-9962389D01*
X7122444Y-9962389D02*
X7112920Y-9981436D01*
X7112920Y-9981436D02*
X7103396Y-9990960D01*
X7103396Y-9990960D02*
X7084348Y-10000484D01*
X7084348Y-10000484D02*
X7027206Y-10000484D01*
X7027206Y-10000484D02*
X7008158Y-9990960D01*
X7008158Y-9990960D02*
X6998634Y-9981436D01*
X7198634Y-9800484D02*
X7198634Y-9838579D01*
X7274825Y-9800484D02*
X7274825Y-9838579D01*
X7570063Y-10076674D02*
X7560539Y-10067150D01*
X7560539Y-10067150D02*
X7541491Y-10038579D01*
X7541491Y-10038579D02*
X7531968Y-10019531D01*
X7531968Y-10019531D02*
X7522444Y-9990960D01*
X7522444Y-9990960D02*
X7512920Y-9943341D01*
X7512920Y-9943341D02*
X7512920Y-9905246D01*
X7512920Y-9905246D02*
X7522444Y-9857627D01*
X7522444Y-9857627D02*
X7531968Y-9829055D01*
X7531968Y-9829055D02*
X7541491Y-9810008D01*
X7541491Y-9810008D02*
X7560539Y-9781436D01*
X7560539Y-9781436D02*
X7570063Y-9771912D01*
X7751015Y-10000484D02*
X7636729Y-10000484D01*
X7693872Y-10000484D02*
X7693872Y-9800484D01*
X7693872Y-9800484D02*
X7674825Y-9829055D01*
X7674825Y-9829055D02*
X7655777Y-9848103D01*
X7655777Y-9848103D02*
X7636729Y-9857627D01*
X7989110Y-10000484D02*
X7989110Y-9800484D01*
X8074825Y-10000484D02*
X8074825Y-9895722D01*
X8074825Y-9895722D02*
X8065301Y-9876674D01*
X8065301Y-9876674D02*
X8046253Y-9867150D01*
X8046253Y-9867150D02*
X8017682Y-9867150D01*
X8017682Y-9867150D02*
X7998634Y-9876674D01*
X7998634Y-9876674D02*
X7989110Y-9886198D01*
X8198634Y-10000484D02*
X8179587Y-9990960D01*
X8179587Y-9990960D02*
X8170063Y-9981436D01*
X8170063Y-9981436D02*
X8160539Y-9962389D01*
X8160539Y-9962389D02*
X8160539Y-9905246D01*
X8160539Y-9905246D02*
X8170063Y-9886198D01*
X8170063Y-9886198D02*
X8179587Y-9876674D01*
X8179587Y-9876674D02*
X8198634Y-9867150D01*
X8198634Y-9867150D02*
X8227206Y-9867150D01*
X8227206Y-9867150D02*
X8246253Y-9876674D01*
X8246253Y-9876674D02*
X8255777Y-9886198D01*
X8255777Y-9886198D02*
X8265301Y-9905246D01*
X8265301Y-9905246D02*
X8265301Y-9962389D01*
X8265301Y-9962389D02*
X8255777Y-9981436D01*
X8255777Y-9981436D02*
X8246253Y-9990960D01*
X8246253Y-9990960D02*
X8227206Y-10000484D01*
X8227206Y-10000484D02*
X8198634Y-10000484D01*
X8379587Y-10000484D02*
X8360539Y-9990960D01*
X8360539Y-9990960D02*
X8351015Y-9971912D01*
X8351015Y-9971912D02*
X8351015Y-9800484D01*
X8531968Y-9990960D02*
X8512920Y-10000484D01*
X8512920Y-10000484D02*
X8474825Y-10000484D01*
X8474825Y-10000484D02*
X8455777Y-9990960D01*
X8455777Y-9990960D02*
X8446253Y-9971912D01*
X8446253Y-9971912D02*
X8446253Y-9895722D01*
X8446253Y-9895722D02*
X8455777Y-9876674D01*
X8455777Y-9876674D02*
X8474825Y-9867150D01*
X8474825Y-9867150D02*
X8512920Y-9867150D01*
X8512920Y-9867150D02*
X8531968Y-9876674D01*
X8531968Y-9876674D02*
X8541492Y-9895722D01*
X8541492Y-9895722D02*
X8541492Y-9914770D01*
X8541492Y-9914770D02*
X8446253Y-9933817D01*
X8608158Y-10076674D02*
X8617682Y-10067150D01*
X8617682Y-10067150D02*
X8636730Y-10038579D01*
X8636730Y-10038579D02*
X8646253Y-10019531D01*
X8646253Y-10019531D02*
X8655777Y-9990960D01*
X8655777Y-9990960D02*
X8665301Y-9943341D01*
X8665301Y-9943341D02*
X8665301Y-9905246D01*
X8665301Y-9905246D02*
X8655777Y-9857627D01*
X8655777Y-9857627D02*
X8646253Y-9829055D01*
X8646253Y-9829055D02*
X8636730Y-9810008D01*
X8636730Y-9810008D02*
X8617682Y-9781436D01*
X8617682Y-9781436D02*
X8608158Y-9771912D01*
X8970063Y-10076674D02*
X8960539Y-10067150D01*
X8960539Y-10067150D02*
X8941492Y-10038579D01*
X8941492Y-10038579D02*
X8931968Y-10019531D01*
X8931968Y-10019531D02*
X8922444Y-9990960D01*
X8922444Y-9990960D02*
X8912920Y-9943341D01*
X8912920Y-9943341D02*
X8912920Y-9905246D01*
X8912920Y-9905246D02*
X8922444Y-9857627D01*
X8922444Y-9857627D02*
X8931968Y-9829055D01*
X8931968Y-9829055D02*
X8941492Y-9810008D01*
X8941492Y-9810008D02*
X8960539Y-9781436D01*
X8960539Y-9781436D02*
X8970063Y-9771912D01*
X9046253Y-9867150D02*
X9046253Y-10000484D01*
X9046253Y-9886198D02*
X9055777Y-9876674D01*
X9055777Y-9876674D02*
X9074825Y-9867150D01*
X9074825Y-9867150D02*
X9103396Y-9867150D01*
X9103396Y-9867150D02*
X9122444Y-9876674D01*
X9122444Y-9876674D02*
X9131968Y-9895722D01*
X9131968Y-9895722D02*
X9131968Y-10000484D01*
X9255777Y-10000484D02*
X9236730Y-9990960D01*
X9236730Y-9990960D02*
X9227206Y-9981436D01*
X9227206Y-9981436D02*
X9217682Y-9962389D01*
X9217682Y-9962389D02*
X9217682Y-9905246D01*
X9217682Y-9905246D02*
X9227206Y-9886198D01*
X9227206Y-9886198D02*
X9236730Y-9876674D01*
X9236730Y-9876674D02*
X9255777Y-9867150D01*
X9255777Y-9867150D02*
X9284349Y-9867150D01*
X9284349Y-9867150D02*
X9303396Y-9876674D01*
X9303396Y-9876674D02*
X9312920Y-9886198D01*
X9312920Y-9886198D02*
X9322444Y-9905246D01*
X9322444Y-9905246D02*
X9322444Y-9962389D01*
X9322444Y-9962389D02*
X9312920Y-9981436D01*
X9312920Y-9981436D02*
X9303396Y-9990960D01*
X9303396Y-9990960D02*
X9284349Y-10000484D01*
X9284349Y-10000484D02*
X9255777Y-10000484D01*
X9379587Y-9867150D02*
X9455777Y-9867150D01*
X9408158Y-9800484D02*
X9408158Y-9971912D01*
X9408158Y-9971912D02*
X9417682Y-9990960D01*
X9417682Y-9990960D02*
X9436730Y-10000484D01*
X9436730Y-10000484D02*
X9455777Y-10000484D01*
X9674825Y-9867150D02*
X9674825Y-10067150D01*
X9674825Y-9876674D02*
X9693873Y-9867150D01*
X9693873Y-9867150D02*
X9731968Y-9867150D01*
X9731968Y-9867150D02*
X9751015Y-9876674D01*
X9751015Y-9876674D02*
X9760539Y-9886198D01*
X9760539Y-9886198D02*
X9770063Y-9905246D01*
X9770063Y-9905246D02*
X9770063Y-9962389D01*
X9770063Y-9962389D02*
X9760539Y-9981436D01*
X9760539Y-9981436D02*
X9751015Y-9990960D01*
X9751015Y-9990960D02*
X9731968Y-10000484D01*
X9731968Y-10000484D02*
X9693873Y-10000484D01*
X9693873Y-10000484D02*
X9674825Y-9990960D01*
X9884349Y-10000484D02*
X9865301Y-9990960D01*
X9865301Y-9990960D02*
X9855777Y-9971912D01*
X9855777Y-9971912D02*
X9855777Y-9800484D01*
X10046254Y-10000484D02*
X10046254Y-9895722D01*
X10046254Y-9895722D02*
X10036730Y-9876674D01*
X10036730Y-9876674D02*
X10017682Y-9867150D01*
X10017682Y-9867150D02*
X9979587Y-9867150D01*
X9979587Y-9867150D02*
X9960539Y-9876674D01*
X10046254Y-9990960D02*
X10027206Y-10000484D01*
X10027206Y-10000484D02*
X9979587Y-10000484D01*
X9979587Y-10000484D02*
X9960539Y-9990960D01*
X9960539Y-9990960D02*
X9951015Y-9971912D01*
X9951015Y-9971912D02*
X9951015Y-9952865D01*
X9951015Y-9952865D02*
X9960539Y-9933817D01*
X9960539Y-9933817D02*
X9979587Y-9924293D01*
X9979587Y-9924293D02*
X10027206Y-9924293D01*
X10027206Y-9924293D02*
X10046254Y-9914770D01*
X10112920Y-9867150D02*
X10189111Y-9867150D01*
X10141492Y-9800484D02*
X10141492Y-9971912D01*
X10141492Y-9971912D02*
X10151015Y-9990960D01*
X10151015Y-9990960D02*
X10170063Y-10000484D01*
X10170063Y-10000484D02*
X10189111Y-10000484D01*
X10331968Y-9990960D02*
X10312920Y-10000484D01*
X10312920Y-10000484D02*
X10274825Y-10000484D01*
X10274825Y-10000484D02*
X10255777Y-9990960D01*
X10255777Y-9990960D02*
X10246254Y-9971912D01*
X10246254Y-9971912D02*
X10246254Y-9895722D01*
X10246254Y-9895722D02*
X10255777Y-9876674D01*
X10255777Y-9876674D02*
X10274825Y-9867150D01*
X10274825Y-9867150D02*
X10312920Y-9867150D01*
X10312920Y-9867150D02*
X10331968Y-9876674D01*
X10331968Y-9876674D02*
X10341492Y-9895722D01*
X10341492Y-9895722D02*
X10341492Y-9914770D01*
X10341492Y-9914770D02*
X10246254Y-9933817D01*
X10512920Y-10000484D02*
X10512920Y-9800484D01*
X10512920Y-9990960D02*
X10493873Y-10000484D01*
X10493873Y-10000484D02*
X10455777Y-10000484D01*
X10455777Y-10000484D02*
X10436730Y-9990960D01*
X10436730Y-9990960D02*
X10427206Y-9981436D01*
X10427206Y-9981436D02*
X10417682Y-9962389D01*
X10417682Y-9962389D02*
X10417682Y-9905246D01*
X10417682Y-9905246D02*
X10427206Y-9886198D01*
X10427206Y-9886198D02*
X10436730Y-9876674D01*
X10436730Y-9876674D02*
X10455777Y-9867150D01*
X10455777Y-9867150D02*
X10493873Y-9867150D01*
X10493873Y-9867150D02*
X10512920Y-9876674D01*
X10589111Y-10076674D02*
X10598635Y-10067150D01*
X10598635Y-10067150D02*
X10617682Y-10038579D01*
X10617682Y-10038579D02*
X10627206Y-10019531D01*
X10627206Y-10019531D02*
X10636730Y-9990960D01*
X10636730Y-9990960D02*
X10646254Y-9943341D01*
X10646254Y-9943341D02*
X10646254Y-9905246D01*
X10646254Y-9905246D02*
X10636730Y-9857627D01*
X10636730Y-9857627D02*
X10627206Y-9829055D01*
X10627206Y-9829055D02*
X10617682Y-9810008D01*
X10617682Y-9810008D02*
X10598635Y-9781436D01*
X10598635Y-9781436D02*
X10589111Y-9771912D01*
X3895000Y-10073000D02*
X3895000Y-10273000D01*
X3795000Y-10173000D02*
X3995000Y-10173000D01*
X4246253Y-10083531D02*
X4255777Y-10074008D01*
X4255777Y-10074008D02*
X4274824Y-10064484D01*
X4274824Y-10064484D02*
X4322444Y-10064484D01*
X4322444Y-10064484D02*
X4341491Y-10074008D01*
X4341491Y-10074008D02*
X4351015Y-10083531D01*
X4351015Y-10083531D02*
X4360539Y-10102579D01*
X4360539Y-10102579D02*
X4360539Y-10121627D01*
X4360539Y-10121627D02*
X4351015Y-10150198D01*
X4351015Y-10150198D02*
X4236729Y-10264484D01*
X4236729Y-10264484D02*
X4360539Y-10264484D01*
X4446253Y-10245436D02*
X4455777Y-10254960D01*
X4455777Y-10254960D02*
X4446253Y-10264484D01*
X4446253Y-10264484D02*
X4436729Y-10254960D01*
X4436729Y-10254960D02*
X4446253Y-10245436D01*
X4446253Y-10245436D02*
X4446253Y-10264484D01*
X4522444Y-10064484D02*
X4655777Y-10064484D01*
X4655777Y-10064484D02*
X4570063Y-10264484D01*
X4770063Y-10064484D02*
X4789110Y-10064484D01*
X4789110Y-10064484D02*
X4808158Y-10074008D01*
X4808158Y-10074008D02*
X4817682Y-10083531D01*
X4817682Y-10083531D02*
X4827205Y-10102579D01*
X4827205Y-10102579D02*
X4836729Y-10140674D01*
X4836729Y-10140674D02*
X4836729Y-10188293D01*
X4836729Y-10188293D02*
X4827205Y-10226389D01*
X4827205Y-10226389D02*
X4817682Y-10245436D01*
X4817682Y-10245436D02*
X4808158Y-10254960D01*
X4808158Y-10254960D02*
X4789110Y-10264484D01*
X4789110Y-10264484D02*
X4770063Y-10264484D01*
X4770063Y-10264484D02*
X4751015Y-10254960D01*
X4751015Y-10254960D02*
X4741491Y-10245436D01*
X4741491Y-10245436D02*
X4731967Y-10226389D01*
X4731967Y-10226389D02*
X4722444Y-10188293D01*
X4722444Y-10188293D02*
X4722444Y-10140674D01*
X4722444Y-10140674D02*
X4731967Y-10102579D01*
X4731967Y-10102579D02*
X4741491Y-10083531D01*
X4741491Y-10083531D02*
X4751015Y-10074008D01*
X4751015Y-10074008D02*
X4770063Y-10064484D01*
X4960539Y-10064484D02*
X4979586Y-10064484D01*
X4979586Y-10064484D02*
X4998634Y-10074008D01*
X4998634Y-10074008D02*
X5008158Y-10083531D01*
X5008158Y-10083531D02*
X5017682Y-10102579D01*
X5017682Y-10102579D02*
X5027205Y-10140674D01*
X5027205Y-10140674D02*
X5027205Y-10188293D01*
X5027205Y-10188293D02*
X5017682Y-10226389D01*
X5017682Y-10226389D02*
X5008158Y-10245436D01*
X5008158Y-10245436D02*
X4998634Y-10254960D01*
X4998634Y-10254960D02*
X4979586Y-10264484D01*
X4979586Y-10264484D02*
X4960539Y-10264484D01*
X4960539Y-10264484D02*
X4941491Y-10254960D01*
X4941491Y-10254960D02*
X4931967Y-10245436D01*
X4931967Y-10245436D02*
X4922444Y-10226389D01*
X4922444Y-10226389D02*
X4912920Y-10188293D01*
X4912920Y-10188293D02*
X4912920Y-10140674D01*
X4912920Y-10140674D02*
X4922444Y-10102579D01*
X4922444Y-10102579D02*
X4931967Y-10083531D01*
X4931967Y-10083531D02*
X4941491Y-10074008D01*
X4941491Y-10074008D02*
X4960539Y-10064484D01*
X5112920Y-10264484D02*
X5112920Y-10131150D01*
X5112920Y-10150198D02*
X5122444Y-10140674D01*
X5122444Y-10140674D02*
X5141491Y-10131150D01*
X5141491Y-10131150D02*
X5170063Y-10131150D01*
X5170063Y-10131150D02*
X5189110Y-10140674D01*
X5189110Y-10140674D02*
X5198634Y-10159722D01*
X5198634Y-10159722D02*
X5198634Y-10264484D01*
X5198634Y-10159722D02*
X5208158Y-10140674D01*
X5208158Y-10140674D02*
X5227205Y-10131150D01*
X5227205Y-10131150D02*
X5255777Y-10131150D01*
X5255777Y-10131150D02*
X5274825Y-10140674D01*
X5274825Y-10140674D02*
X5284348Y-10159722D01*
X5284348Y-10159722D02*
X5284348Y-10264484D01*
X5379586Y-10264484D02*
X5379586Y-10131150D01*
X5379586Y-10150198D02*
X5389110Y-10140674D01*
X5389110Y-10140674D02*
X5408158Y-10131150D01*
X5408158Y-10131150D02*
X5436729Y-10131150D01*
X5436729Y-10131150D02*
X5455777Y-10140674D01*
X5455777Y-10140674D02*
X5465301Y-10159722D01*
X5465301Y-10159722D02*
X5465301Y-10264484D01*
X5465301Y-10159722D02*
X5474825Y-10140674D01*
X5474825Y-10140674D02*
X5493872Y-10131150D01*
X5493872Y-10131150D02*
X5522444Y-10131150D01*
X5522444Y-10131150D02*
X5541491Y-10140674D01*
X5541491Y-10140674D02*
X5551015Y-10159722D01*
X5551015Y-10159722D02*
X5551015Y-10264484D01*
X5941491Y-10054960D02*
X5770063Y-10312103D01*
X6198634Y-10064484D02*
X6217682Y-10064484D01*
X6217682Y-10064484D02*
X6236729Y-10074008D01*
X6236729Y-10074008D02*
X6246253Y-10083531D01*
X6246253Y-10083531D02*
X6255777Y-10102579D01*
X6255777Y-10102579D02*
X6265301Y-10140674D01*
X6265301Y-10140674D02*
X6265301Y-10188293D01*
X6265301Y-10188293D02*
X6255777Y-10226389D01*
X6255777Y-10226389D02*
X6246253Y-10245436D01*
X6246253Y-10245436D02*
X6236729Y-10254960D01*
X6236729Y-10254960D02*
X6217682Y-10264484D01*
X6217682Y-10264484D02*
X6198634Y-10264484D01*
X6198634Y-10264484D02*
X6179586Y-10254960D01*
X6179586Y-10254960D02*
X6170063Y-10245436D01*
X6170063Y-10245436D02*
X6160539Y-10226389D01*
X6160539Y-10226389D02*
X6151015Y-10188293D01*
X6151015Y-10188293D02*
X6151015Y-10140674D01*
X6151015Y-10140674D02*
X6160539Y-10102579D01*
X6160539Y-10102579D02*
X6170063Y-10083531D01*
X6170063Y-10083531D02*
X6179586Y-10074008D01*
X6179586Y-10074008D02*
X6198634Y-10064484D01*
X6351015Y-10245436D02*
X6360539Y-10254960D01*
X6360539Y-10254960D02*
X6351015Y-10264484D01*
X6351015Y-10264484D02*
X6341491Y-10254960D01*
X6341491Y-10254960D02*
X6351015Y-10245436D01*
X6351015Y-10245436D02*
X6351015Y-10264484D01*
X6551015Y-10264484D02*
X6436729Y-10264484D01*
X6493872Y-10264484D02*
X6493872Y-10064484D01*
X6493872Y-10064484D02*
X6474825Y-10093055D01*
X6474825Y-10093055D02*
X6455777Y-10112103D01*
X6455777Y-10112103D02*
X6436729Y-10121627D01*
X6674825Y-10064484D02*
X6693872Y-10064484D01*
X6693872Y-10064484D02*
X6712920Y-10074008D01*
X6712920Y-10074008D02*
X6722444Y-10083531D01*
X6722444Y-10083531D02*
X6731967Y-10102579D01*
X6731967Y-10102579D02*
X6741491Y-10140674D01*
X6741491Y-10140674D02*
X6741491Y-10188293D01*
X6741491Y-10188293D02*
X6731967Y-10226389D01*
X6731967Y-10226389D02*
X6722444Y-10245436D01*
X6722444Y-10245436D02*
X6712920Y-10254960D01*
X6712920Y-10254960D02*
X6693872Y-10264484D01*
X6693872Y-10264484D02*
X6674825Y-10264484D01*
X6674825Y-10264484D02*
X6655777Y-10254960D01*
X6655777Y-10254960D02*
X6646253Y-10245436D01*
X6646253Y-10245436D02*
X6636729Y-10226389D01*
X6636729Y-10226389D02*
X6627206Y-10188293D01*
X6627206Y-10188293D02*
X6627206Y-10140674D01*
X6627206Y-10140674D02*
X6636729Y-10102579D01*
X6636729Y-10102579D02*
X6646253Y-10083531D01*
X6646253Y-10083531D02*
X6655777Y-10074008D01*
X6655777Y-10074008D02*
X6674825Y-10064484D01*
X6912920Y-10064484D02*
X6874825Y-10064484D01*
X6874825Y-10064484D02*
X6855777Y-10074008D01*
X6855777Y-10074008D02*
X6846253Y-10083531D01*
X6846253Y-10083531D02*
X6827206Y-10112103D01*
X6827206Y-10112103D02*
X6817682Y-10150198D01*
X6817682Y-10150198D02*
X6817682Y-10226389D01*
X6817682Y-10226389D02*
X6827206Y-10245436D01*
X6827206Y-10245436D02*
X6836729Y-10254960D01*
X6836729Y-10254960D02*
X6855777Y-10264484D01*
X6855777Y-10264484D02*
X6893872Y-10264484D01*
X6893872Y-10264484D02*
X6912920Y-10254960D01*
X6912920Y-10254960D02*
X6922444Y-10245436D01*
X6922444Y-10245436D02*
X6931967Y-10226389D01*
X6931967Y-10226389D02*
X6931967Y-10178770D01*
X6931967Y-10178770D02*
X6922444Y-10159722D01*
X6922444Y-10159722D02*
X6912920Y-10150198D01*
X6912920Y-10150198D02*
X6893872Y-10140674D01*
X6893872Y-10140674D02*
X6855777Y-10140674D01*
X6855777Y-10140674D02*
X6836729Y-10150198D01*
X6836729Y-10150198D02*
X6827206Y-10159722D01*
X6827206Y-10159722D02*
X6817682Y-10178770D01*
X6998634Y-10064484D02*
X7122444Y-10064484D01*
X7122444Y-10064484D02*
X7055777Y-10140674D01*
X7055777Y-10140674D02*
X7084348Y-10140674D01*
X7084348Y-10140674D02*
X7103396Y-10150198D01*
X7103396Y-10150198D02*
X7112920Y-10159722D01*
X7112920Y-10159722D02*
X7122444Y-10178770D01*
X7122444Y-10178770D02*
X7122444Y-10226389D01*
X7122444Y-10226389D02*
X7112920Y-10245436D01*
X7112920Y-10245436D02*
X7103396Y-10254960D01*
X7103396Y-10254960D02*
X7084348Y-10264484D01*
X7084348Y-10264484D02*
X7027206Y-10264484D01*
X7027206Y-10264484D02*
X7008158Y-10254960D01*
X7008158Y-10254960D02*
X6998634Y-10245436D01*
X7198634Y-10064484D02*
X7198634Y-10102579D01*
X7274825Y-10064484D02*
X7274825Y-10102579D01*
X7570063Y-10340674D02*
X7560539Y-10331150D01*
X7560539Y-10331150D02*
X7541491Y-10302579D01*
X7541491Y-10302579D02*
X7531968Y-10283531D01*
X7531968Y-10283531D02*
X7522444Y-10254960D01*
X7522444Y-10254960D02*
X7512920Y-10207341D01*
X7512920Y-10207341D02*
X7512920Y-10169246D01*
X7512920Y-10169246D02*
X7522444Y-10121627D01*
X7522444Y-10121627D02*
X7531968Y-10093055D01*
X7531968Y-10093055D02*
X7541491Y-10074008D01*
X7541491Y-10074008D02*
X7560539Y-10045436D01*
X7560539Y-10045436D02*
X7570063Y-10035912D01*
X7731968Y-10131150D02*
X7731968Y-10264484D01*
X7684348Y-10054960D02*
X7636729Y-10197817D01*
X7636729Y-10197817D02*
X7760539Y-10197817D01*
X7989110Y-10264484D02*
X7989110Y-10064484D01*
X8074825Y-10264484D02*
X8074825Y-10159722D01*
X8074825Y-10159722D02*
X8065301Y-10140674D01*
X8065301Y-10140674D02*
X8046253Y-10131150D01*
X8046253Y-10131150D02*
X8017682Y-10131150D01*
X8017682Y-10131150D02*
X7998634Y-10140674D01*
X7998634Y-10140674D02*
X7989110Y-10150198D01*
X8198634Y-10264484D02*
X8179587Y-10254960D01*
X8179587Y-10254960D02*
X8170063Y-10245436D01*
X8170063Y-10245436D02*
X8160539Y-10226389D01*
X8160539Y-10226389D02*
X8160539Y-10169246D01*
X8160539Y-10169246D02*
X8170063Y-10150198D01*
X8170063Y-10150198D02*
X8179587Y-10140674D01*
X8179587Y-10140674D02*
X8198634Y-10131150D01*
X8198634Y-10131150D02*
X8227206Y-10131150D01*
X8227206Y-10131150D02*
X8246253Y-10140674D01*
X8246253Y-10140674D02*
X8255777Y-10150198D01*
X8255777Y-10150198D02*
X8265301Y-10169246D01*
X8265301Y-10169246D02*
X8265301Y-10226389D01*
X8265301Y-10226389D02*
X8255777Y-10245436D01*
X8255777Y-10245436D02*
X8246253Y-10254960D01*
X8246253Y-10254960D02*
X8227206Y-10264484D01*
X8227206Y-10264484D02*
X8198634Y-10264484D01*
X8379587Y-10264484D02*
X8360539Y-10254960D01*
X8360539Y-10254960D02*
X8351015Y-10235912D01*
X8351015Y-10235912D02*
X8351015Y-10064484D01*
X8531968Y-10254960D02*
X8512920Y-10264484D01*
X8512920Y-10264484D02*
X8474825Y-10264484D01*
X8474825Y-10264484D02*
X8455777Y-10254960D01*
X8455777Y-10254960D02*
X8446253Y-10235912D01*
X8446253Y-10235912D02*
X8446253Y-10159722D01*
X8446253Y-10159722D02*
X8455777Y-10140674D01*
X8455777Y-10140674D02*
X8474825Y-10131150D01*
X8474825Y-10131150D02*
X8512920Y-10131150D01*
X8512920Y-10131150D02*
X8531968Y-10140674D01*
X8531968Y-10140674D02*
X8541492Y-10159722D01*
X8541492Y-10159722D02*
X8541492Y-10178770D01*
X8541492Y-10178770D02*
X8446253Y-10197817D01*
X8617682Y-10254960D02*
X8636730Y-10264484D01*
X8636730Y-10264484D02*
X8674825Y-10264484D01*
X8674825Y-10264484D02*
X8693873Y-10254960D01*
X8693873Y-10254960D02*
X8703396Y-10235912D01*
X8703396Y-10235912D02*
X8703396Y-10226389D01*
X8703396Y-10226389D02*
X8693873Y-10207341D01*
X8693873Y-10207341D02*
X8674825Y-10197817D01*
X8674825Y-10197817D02*
X8646253Y-10197817D01*
X8646253Y-10197817D02*
X8627206Y-10188293D01*
X8627206Y-10188293D02*
X8617682Y-10169246D01*
X8617682Y-10169246D02*
X8617682Y-10159722D01*
X8617682Y-10159722D02*
X8627206Y-10140674D01*
X8627206Y-10140674D02*
X8646253Y-10131150D01*
X8646253Y-10131150D02*
X8674825Y-10131150D01*
X8674825Y-10131150D02*
X8693873Y-10140674D01*
X8770063Y-10340674D02*
X8779587Y-10331150D01*
X8779587Y-10331150D02*
X8798634Y-10302579D01*
X8798634Y-10302579D02*
X8808158Y-10283531D01*
X8808158Y-10283531D02*
X8817682Y-10254960D01*
X8817682Y-10254960D02*
X8827206Y-10207341D01*
X8827206Y-10207341D02*
X8827206Y-10169246D01*
X8827206Y-10169246D02*
X8817682Y-10121627D01*
X8817682Y-10121627D02*
X8808158Y-10093055D01*
X8808158Y-10093055D02*
X8798634Y-10074008D01*
X8798634Y-10074008D02*
X8779587Y-10045436D01*
X8779587Y-10045436D02*
X8770063Y-10035912D01*
X9131968Y-10340674D02*
X9122444Y-10331150D01*
X9122444Y-10331150D02*
X9103396Y-10302579D01*
X9103396Y-10302579D02*
X9093873Y-10283531D01*
X9093873Y-10283531D02*
X9084349Y-10254960D01*
X9084349Y-10254960D02*
X9074825Y-10207341D01*
X9074825Y-10207341D02*
X9074825Y-10169246D01*
X9074825Y-10169246D02*
X9084349Y-10121627D01*
X9084349Y-10121627D02*
X9093873Y-10093055D01*
X9093873Y-10093055D02*
X9103396Y-10074008D01*
X9103396Y-10074008D02*
X9122444Y-10045436D01*
X9122444Y-10045436D02*
X9131968Y-10035912D01*
X9208158Y-10131150D02*
X9208158Y-10264484D01*
X9208158Y-10150198D02*
X9217682Y-10140674D01*
X9217682Y-10140674D02*
X9236730Y-10131150D01*
X9236730Y-10131150D02*
X9265301Y-10131150D01*
X9265301Y-10131150D02*
X9284349Y-10140674D01*
X9284349Y-10140674D02*
X9293873Y-10159722D01*
X9293873Y-10159722D02*
X9293873Y-10264484D01*
X9417682Y-10264484D02*
X9398634Y-10254960D01*
X9398634Y-10254960D02*
X9389111Y-10245436D01*
X9389111Y-10245436D02*
X9379587Y-10226389D01*
X9379587Y-10226389D02*
X9379587Y-10169246D01*
X9379587Y-10169246D02*
X9389111Y-10150198D01*
X9389111Y-10150198D02*
X9398634Y-10140674D01*
X9398634Y-10140674D02*
X9417682Y-10131150D01*
X9417682Y-10131150D02*
X9446254Y-10131150D01*
X9446254Y-10131150D02*
X9465301Y-10140674D01*
X9465301Y-10140674D02*
X9474825Y-10150198D01*
X9474825Y-10150198D02*
X9484349Y-10169246D01*
X9484349Y-10169246D02*
X9484349Y-10226389D01*
X9484349Y-10226389D02*
X9474825Y-10245436D01*
X9474825Y-10245436D02*
X9465301Y-10254960D01*
X9465301Y-10254960D02*
X9446254Y-10264484D01*
X9446254Y-10264484D02*
X9417682Y-10264484D01*
X9541492Y-10131150D02*
X9617682Y-10131150D01*
X9570063Y-10064484D02*
X9570063Y-10235912D01*
X9570063Y-10235912D02*
X9579587Y-10254960D01*
X9579587Y-10254960D02*
X9598634Y-10264484D01*
X9598634Y-10264484D02*
X9617682Y-10264484D01*
X9836730Y-10131150D02*
X9836730Y-10331150D01*
X9836730Y-10140674D02*
X9855777Y-10131150D01*
X9855777Y-10131150D02*
X9893873Y-10131150D01*
X9893873Y-10131150D02*
X9912920Y-10140674D01*
X9912920Y-10140674D02*
X9922444Y-10150198D01*
X9922444Y-10150198D02*
X9931968Y-10169246D01*
X9931968Y-10169246D02*
X9931968Y-10226389D01*
X9931968Y-10226389D02*
X9922444Y-10245436D01*
X9922444Y-10245436D02*
X9912920Y-10254960D01*
X9912920Y-10254960D02*
X9893873Y-10264484D01*
X9893873Y-10264484D02*
X9855777Y-10264484D01*
X9855777Y-10264484D02*
X9836730Y-10254960D01*
X10046254Y-10264484D02*
X10027206Y-10254960D01*
X10027206Y-10254960D02*
X10017682Y-10235912D01*
X10017682Y-10235912D02*
X10017682Y-10064484D01*
X10208158Y-10264484D02*
X10208158Y-10159722D01*
X10208158Y-10159722D02*
X10198635Y-10140674D01*
X10198635Y-10140674D02*
X10179587Y-10131150D01*
X10179587Y-10131150D02*
X10141492Y-10131150D01*
X10141492Y-10131150D02*
X10122444Y-10140674D01*
X10208158Y-10254960D02*
X10189111Y-10264484D01*
X10189111Y-10264484D02*
X10141492Y-10264484D01*
X10141492Y-10264484D02*
X10122444Y-10254960D01*
X10122444Y-10254960D02*
X10112920Y-10235912D01*
X10112920Y-10235912D02*
X10112920Y-10216865D01*
X10112920Y-10216865D02*
X10122444Y-10197817D01*
X10122444Y-10197817D02*
X10141492Y-10188293D01*
X10141492Y-10188293D02*
X10189111Y-10188293D01*
X10189111Y-10188293D02*
X10208158Y-10178770D01*
X10274825Y-10131150D02*
X10351015Y-10131150D01*
X10303396Y-10064484D02*
X10303396Y-10235912D01*
X10303396Y-10235912D02*
X10312920Y-10254960D01*
X10312920Y-10254960D02*
X10331968Y-10264484D01*
X10331968Y-10264484D02*
X10351015Y-10264484D01*
X10493873Y-10254960D02*
X10474825Y-10264484D01*
X10474825Y-10264484D02*
X10436730Y-10264484D01*
X10436730Y-10264484D02*
X10417682Y-10254960D01*
X10417682Y-10254960D02*
X10408158Y-10235912D01*
X10408158Y-10235912D02*
X10408158Y-10159722D01*
X10408158Y-10159722D02*
X10417682Y-10140674D01*
X10417682Y-10140674D02*
X10436730Y-10131150D01*
X10436730Y-10131150D02*
X10474825Y-10131150D01*
X10474825Y-10131150D02*
X10493873Y-10140674D01*
X10493873Y-10140674D02*
X10503396Y-10159722D01*
X10503396Y-10159722D02*
X10503396Y-10178770D01*
X10503396Y-10178770D02*
X10408158Y-10197817D01*
X10674825Y-10264484D02*
X10674825Y-10064484D01*
X10674825Y-10254960D02*
X10655777Y-10264484D01*
X10655777Y-10264484D02*
X10617682Y-10264484D01*
X10617682Y-10264484D02*
X10598635Y-10254960D01*
X10598635Y-10254960D02*
X10589111Y-10245436D01*
X10589111Y-10245436D02*
X10579587Y-10226389D01*
X10579587Y-10226389D02*
X10579587Y-10169246D01*
X10579587Y-10169246D02*
X10589111Y-10150198D01*
X10589111Y-10150198D02*
X10598635Y-10140674D01*
X10598635Y-10140674D02*
X10617682Y-10131150D01*
X10617682Y-10131150D02*
X10655777Y-10131150D01*
X10655777Y-10131150D02*
X10674825Y-10140674D01*
X10751016Y-10340674D02*
X10760539Y-10331150D01*
X10760539Y-10331150D02*
X10779587Y-10302579D01*
X10779587Y-10302579D02*
X10789111Y-10283531D01*
X10789111Y-10283531D02*
X10798635Y-10254960D01*
X10798635Y-10254960D02*
X10808158Y-10207341D01*
X10808158Y-10207341D02*
X10808158Y-10169246D01*
X10808158Y-10169246D02*
X10798635Y-10121627D01*
X10798635Y-10121627D02*
X10789111Y-10093055D01*
X10789111Y-10093055D02*
X10779587Y-10074008D01*
X10779587Y-10074008D02*
X10760539Y-10045436D01*
X10760539Y-10045436D02*
X10751016Y-10035912D01*
X3965711Y-10563711D02*
X3965711Y-10422289D01*
X3824289Y-10422289D01*
X3824289Y-10563711D01*
X3965711Y-10563711D01*
X4236729Y-10384484D02*
X4360539Y-10384484D01*
X4360539Y-10384484D02*
X4293872Y-10460674D01*
X4293872Y-10460674D02*
X4322444Y-10460674D01*
X4322444Y-10460674D02*
X4341491Y-10470198D01*
X4341491Y-10470198D02*
X4351015Y-10479722D01*
X4351015Y-10479722D02*
X4360539Y-10498770D01*
X4360539Y-10498770D02*
X4360539Y-10546389D01*
X4360539Y-10546389D02*
X4351015Y-10565436D01*
X4351015Y-10565436D02*
X4341491Y-10574960D01*
X4341491Y-10574960D02*
X4322444Y-10584484D01*
X4322444Y-10584484D02*
X4265301Y-10584484D01*
X4265301Y-10584484D02*
X4246253Y-10574960D01*
X4246253Y-10574960D02*
X4236729Y-10565436D01*
X4446253Y-10565436D02*
X4455777Y-10574960D01*
X4455777Y-10574960D02*
X4446253Y-10584484D01*
X4446253Y-10584484D02*
X4436729Y-10574960D01*
X4436729Y-10574960D02*
X4446253Y-10565436D01*
X4446253Y-10565436D02*
X4446253Y-10584484D01*
X4531967Y-10403531D02*
X4541491Y-10394008D01*
X4541491Y-10394008D02*
X4560539Y-10384484D01*
X4560539Y-10384484D02*
X4608158Y-10384484D01*
X4608158Y-10384484D02*
X4627205Y-10394008D01*
X4627205Y-10394008D02*
X4636729Y-10403531D01*
X4636729Y-10403531D02*
X4646253Y-10422579D01*
X4646253Y-10422579D02*
X4646253Y-10441627D01*
X4646253Y-10441627D02*
X4636729Y-10470198D01*
X4636729Y-10470198D02*
X4522444Y-10584484D01*
X4522444Y-10584484D02*
X4646253Y-10584484D01*
X4770063Y-10384484D02*
X4789110Y-10384484D01*
X4789110Y-10384484D02*
X4808158Y-10394008D01*
X4808158Y-10394008D02*
X4817682Y-10403531D01*
X4817682Y-10403531D02*
X4827205Y-10422579D01*
X4827205Y-10422579D02*
X4836729Y-10460674D01*
X4836729Y-10460674D02*
X4836729Y-10508293D01*
X4836729Y-10508293D02*
X4827205Y-10546389D01*
X4827205Y-10546389D02*
X4817682Y-10565436D01*
X4817682Y-10565436D02*
X4808158Y-10574960D01*
X4808158Y-10574960D02*
X4789110Y-10584484D01*
X4789110Y-10584484D02*
X4770063Y-10584484D01*
X4770063Y-10584484D02*
X4751015Y-10574960D01*
X4751015Y-10574960D02*
X4741491Y-10565436D01*
X4741491Y-10565436D02*
X4731967Y-10546389D01*
X4731967Y-10546389D02*
X4722444Y-10508293D01*
X4722444Y-10508293D02*
X4722444Y-10460674D01*
X4722444Y-10460674D02*
X4731967Y-10422579D01*
X4731967Y-10422579D02*
X4741491Y-10403531D01*
X4741491Y-10403531D02*
X4751015Y-10394008D01*
X4751015Y-10394008D02*
X4770063Y-10384484D01*
X4960539Y-10384484D02*
X4979586Y-10384484D01*
X4979586Y-10384484D02*
X4998634Y-10394008D01*
X4998634Y-10394008D02*
X5008158Y-10403531D01*
X5008158Y-10403531D02*
X5017682Y-10422579D01*
X5017682Y-10422579D02*
X5027205Y-10460674D01*
X5027205Y-10460674D02*
X5027205Y-10508293D01*
X5027205Y-10508293D02*
X5017682Y-10546389D01*
X5017682Y-10546389D02*
X5008158Y-10565436D01*
X5008158Y-10565436D02*
X4998634Y-10574960D01*
X4998634Y-10574960D02*
X4979586Y-10584484D01*
X4979586Y-10584484D02*
X4960539Y-10584484D01*
X4960539Y-10584484D02*
X4941491Y-10574960D01*
X4941491Y-10574960D02*
X4931967Y-10565436D01*
X4931967Y-10565436D02*
X4922444Y-10546389D01*
X4922444Y-10546389D02*
X4912920Y-10508293D01*
X4912920Y-10508293D02*
X4912920Y-10460674D01*
X4912920Y-10460674D02*
X4922444Y-10422579D01*
X4922444Y-10422579D02*
X4931967Y-10403531D01*
X4931967Y-10403531D02*
X4941491Y-10394008D01*
X4941491Y-10394008D02*
X4960539Y-10384484D01*
X5112920Y-10584484D02*
X5112920Y-10451150D01*
X5112920Y-10470198D02*
X5122444Y-10460674D01*
X5122444Y-10460674D02*
X5141491Y-10451150D01*
X5141491Y-10451150D02*
X5170063Y-10451150D01*
X5170063Y-10451150D02*
X5189110Y-10460674D01*
X5189110Y-10460674D02*
X5198634Y-10479722D01*
X5198634Y-10479722D02*
X5198634Y-10584484D01*
X5198634Y-10479722D02*
X5208158Y-10460674D01*
X5208158Y-10460674D02*
X5227205Y-10451150D01*
X5227205Y-10451150D02*
X5255777Y-10451150D01*
X5255777Y-10451150D02*
X5274825Y-10460674D01*
X5274825Y-10460674D02*
X5284348Y-10479722D01*
X5284348Y-10479722D02*
X5284348Y-10584484D01*
X5379586Y-10584484D02*
X5379586Y-10451150D01*
X5379586Y-10470198D02*
X5389110Y-10460674D01*
X5389110Y-10460674D02*
X5408158Y-10451150D01*
X5408158Y-10451150D02*
X5436729Y-10451150D01*
X5436729Y-10451150D02*
X5455777Y-10460674D01*
X5455777Y-10460674D02*
X5465301Y-10479722D01*
X5465301Y-10479722D02*
X5465301Y-10584484D01*
X5465301Y-10479722D02*
X5474825Y-10460674D01*
X5474825Y-10460674D02*
X5493872Y-10451150D01*
X5493872Y-10451150D02*
X5522444Y-10451150D01*
X5522444Y-10451150D02*
X5541491Y-10460674D01*
X5541491Y-10460674D02*
X5551015Y-10479722D01*
X5551015Y-10479722D02*
X5551015Y-10584484D01*
X5941491Y-10374960D02*
X5770063Y-10632103D01*
X6198634Y-10384484D02*
X6217682Y-10384484D01*
X6217682Y-10384484D02*
X6236729Y-10394008D01*
X6236729Y-10394008D02*
X6246253Y-10403531D01*
X6246253Y-10403531D02*
X6255777Y-10422579D01*
X6255777Y-10422579D02*
X6265301Y-10460674D01*
X6265301Y-10460674D02*
X6265301Y-10508293D01*
X6265301Y-10508293D02*
X6255777Y-10546389D01*
X6255777Y-10546389D02*
X6246253Y-10565436D01*
X6246253Y-10565436D02*
X6236729Y-10574960D01*
X6236729Y-10574960D02*
X6217682Y-10584484D01*
X6217682Y-10584484D02*
X6198634Y-10584484D01*
X6198634Y-10584484D02*
X6179586Y-10574960D01*
X6179586Y-10574960D02*
X6170063Y-10565436D01*
X6170063Y-10565436D02*
X6160539Y-10546389D01*
X6160539Y-10546389D02*
X6151015Y-10508293D01*
X6151015Y-10508293D02*
X6151015Y-10460674D01*
X6151015Y-10460674D02*
X6160539Y-10422579D01*
X6160539Y-10422579D02*
X6170063Y-10403531D01*
X6170063Y-10403531D02*
X6179586Y-10394008D01*
X6179586Y-10394008D02*
X6198634Y-10384484D01*
X6351015Y-10565436D02*
X6360539Y-10574960D01*
X6360539Y-10574960D02*
X6351015Y-10584484D01*
X6351015Y-10584484D02*
X6341491Y-10574960D01*
X6341491Y-10574960D02*
X6351015Y-10565436D01*
X6351015Y-10565436D02*
X6351015Y-10584484D01*
X6551015Y-10584484D02*
X6436729Y-10584484D01*
X6493872Y-10584484D02*
X6493872Y-10384484D01*
X6493872Y-10384484D02*
X6474825Y-10413055D01*
X6474825Y-10413055D02*
X6455777Y-10432103D01*
X6455777Y-10432103D02*
X6436729Y-10441627D01*
X6627206Y-10403531D02*
X6636729Y-10394008D01*
X6636729Y-10394008D02*
X6655777Y-10384484D01*
X6655777Y-10384484D02*
X6703396Y-10384484D01*
X6703396Y-10384484D02*
X6722444Y-10394008D01*
X6722444Y-10394008D02*
X6731967Y-10403531D01*
X6731967Y-10403531D02*
X6741491Y-10422579D01*
X6741491Y-10422579D02*
X6741491Y-10441627D01*
X6741491Y-10441627D02*
X6731967Y-10470198D01*
X6731967Y-10470198D02*
X6617682Y-10584484D01*
X6617682Y-10584484D02*
X6741491Y-10584484D01*
X6912920Y-10384484D02*
X6874825Y-10384484D01*
X6874825Y-10384484D02*
X6855777Y-10394008D01*
X6855777Y-10394008D02*
X6846253Y-10403531D01*
X6846253Y-10403531D02*
X6827206Y-10432103D01*
X6827206Y-10432103D02*
X6817682Y-10470198D01*
X6817682Y-10470198D02*
X6817682Y-10546389D01*
X6817682Y-10546389D02*
X6827206Y-10565436D01*
X6827206Y-10565436D02*
X6836729Y-10574960D01*
X6836729Y-10574960D02*
X6855777Y-10584484D01*
X6855777Y-10584484D02*
X6893872Y-10584484D01*
X6893872Y-10584484D02*
X6912920Y-10574960D01*
X6912920Y-10574960D02*
X6922444Y-10565436D01*
X6922444Y-10565436D02*
X6931967Y-10546389D01*
X6931967Y-10546389D02*
X6931967Y-10498770D01*
X6931967Y-10498770D02*
X6922444Y-10479722D01*
X6922444Y-10479722D02*
X6912920Y-10470198D01*
X6912920Y-10470198D02*
X6893872Y-10460674D01*
X6893872Y-10460674D02*
X6855777Y-10460674D01*
X6855777Y-10460674D02*
X6836729Y-10470198D01*
X6836729Y-10470198D02*
X6827206Y-10479722D01*
X6827206Y-10479722D02*
X6817682Y-10498770D01*
X7055777Y-10384484D02*
X7074825Y-10384484D01*
X7074825Y-10384484D02*
X7093872Y-10394008D01*
X7093872Y-10394008D02*
X7103396Y-10403531D01*
X7103396Y-10403531D02*
X7112920Y-10422579D01*
X7112920Y-10422579D02*
X7122444Y-10460674D01*
X7122444Y-10460674D02*
X7122444Y-10508293D01*
X7122444Y-10508293D02*
X7112920Y-10546389D01*
X7112920Y-10546389D02*
X7103396Y-10565436D01*
X7103396Y-10565436D02*
X7093872Y-10574960D01*
X7093872Y-10574960D02*
X7074825Y-10584484D01*
X7074825Y-10584484D02*
X7055777Y-10584484D01*
X7055777Y-10584484D02*
X7036729Y-10574960D01*
X7036729Y-10574960D02*
X7027206Y-10565436D01*
X7027206Y-10565436D02*
X7017682Y-10546389D01*
X7017682Y-10546389D02*
X7008158Y-10508293D01*
X7008158Y-10508293D02*
X7008158Y-10460674D01*
X7008158Y-10460674D02*
X7017682Y-10422579D01*
X7017682Y-10422579D02*
X7027206Y-10403531D01*
X7027206Y-10403531D02*
X7036729Y-10394008D01*
X7036729Y-10394008D02*
X7055777Y-10384484D01*
X7198634Y-10384484D02*
X7198634Y-10422579D01*
X7274825Y-10384484D02*
X7274825Y-10422579D01*
X7570063Y-10660674D02*
X7560539Y-10651150D01*
X7560539Y-10651150D02*
X7541491Y-10622579D01*
X7541491Y-10622579D02*
X7531968Y-10603531D01*
X7531968Y-10603531D02*
X7522444Y-10574960D01*
X7522444Y-10574960D02*
X7512920Y-10527341D01*
X7512920Y-10527341D02*
X7512920Y-10489246D01*
X7512920Y-10489246D02*
X7522444Y-10441627D01*
X7522444Y-10441627D02*
X7531968Y-10413055D01*
X7531968Y-10413055D02*
X7541491Y-10394008D01*
X7541491Y-10394008D02*
X7560539Y-10365436D01*
X7560539Y-10365436D02*
X7570063Y-10355912D01*
X7636729Y-10403531D02*
X7646253Y-10394008D01*
X7646253Y-10394008D02*
X7665301Y-10384484D01*
X7665301Y-10384484D02*
X7712920Y-10384484D01*
X7712920Y-10384484D02*
X7731968Y-10394008D01*
X7731968Y-10394008D02*
X7741491Y-10403531D01*
X7741491Y-10403531D02*
X7751015Y-10422579D01*
X7751015Y-10422579D02*
X7751015Y-10441627D01*
X7751015Y-10441627D02*
X7741491Y-10470198D01*
X7741491Y-10470198D02*
X7627206Y-10584484D01*
X7627206Y-10584484D02*
X7751015Y-10584484D01*
X7989110Y-10584484D02*
X7989110Y-10384484D01*
X8074825Y-10584484D02*
X8074825Y-10479722D01*
X8074825Y-10479722D02*
X8065301Y-10460674D01*
X8065301Y-10460674D02*
X8046253Y-10451150D01*
X8046253Y-10451150D02*
X8017682Y-10451150D01*
X8017682Y-10451150D02*
X7998634Y-10460674D01*
X7998634Y-10460674D02*
X7989110Y-10470198D01*
X8198634Y-10584484D02*
X8179587Y-10574960D01*
X8179587Y-10574960D02*
X8170063Y-10565436D01*
X8170063Y-10565436D02*
X8160539Y-10546389D01*
X8160539Y-10546389D02*
X8160539Y-10489246D01*
X8160539Y-10489246D02*
X8170063Y-10470198D01*
X8170063Y-10470198D02*
X8179587Y-10460674D01*
X8179587Y-10460674D02*
X8198634Y-10451150D01*
X8198634Y-10451150D02*
X8227206Y-10451150D01*
X8227206Y-10451150D02*
X8246253Y-10460674D01*
X8246253Y-10460674D02*
X8255777Y-10470198D01*
X8255777Y-10470198D02*
X8265301Y-10489246D01*
X8265301Y-10489246D02*
X8265301Y-10546389D01*
X8265301Y-10546389D02*
X8255777Y-10565436D01*
X8255777Y-10565436D02*
X8246253Y-10574960D01*
X8246253Y-10574960D02*
X8227206Y-10584484D01*
X8227206Y-10584484D02*
X8198634Y-10584484D01*
X8379587Y-10584484D02*
X8360539Y-10574960D01*
X8360539Y-10574960D02*
X8351015Y-10555912D01*
X8351015Y-10555912D02*
X8351015Y-10384484D01*
X8531968Y-10574960D02*
X8512920Y-10584484D01*
X8512920Y-10584484D02*
X8474825Y-10584484D01*
X8474825Y-10584484D02*
X8455777Y-10574960D01*
X8455777Y-10574960D02*
X8446253Y-10555912D01*
X8446253Y-10555912D02*
X8446253Y-10479722D01*
X8446253Y-10479722D02*
X8455777Y-10460674D01*
X8455777Y-10460674D02*
X8474825Y-10451150D01*
X8474825Y-10451150D02*
X8512920Y-10451150D01*
X8512920Y-10451150D02*
X8531968Y-10460674D01*
X8531968Y-10460674D02*
X8541492Y-10479722D01*
X8541492Y-10479722D02*
X8541492Y-10498770D01*
X8541492Y-10498770D02*
X8446253Y-10517817D01*
X8617682Y-10574960D02*
X8636730Y-10584484D01*
X8636730Y-10584484D02*
X8674825Y-10584484D01*
X8674825Y-10584484D02*
X8693873Y-10574960D01*
X8693873Y-10574960D02*
X8703396Y-10555912D01*
X8703396Y-10555912D02*
X8703396Y-10546389D01*
X8703396Y-10546389D02*
X8693873Y-10527341D01*
X8693873Y-10527341D02*
X8674825Y-10517817D01*
X8674825Y-10517817D02*
X8646253Y-10517817D01*
X8646253Y-10517817D02*
X8627206Y-10508293D01*
X8627206Y-10508293D02*
X8617682Y-10489246D01*
X8617682Y-10489246D02*
X8617682Y-10479722D01*
X8617682Y-10479722D02*
X8627206Y-10460674D01*
X8627206Y-10460674D02*
X8646253Y-10451150D01*
X8646253Y-10451150D02*
X8674825Y-10451150D01*
X8674825Y-10451150D02*
X8693873Y-10460674D01*
X8770063Y-10660674D02*
X8779587Y-10651150D01*
X8779587Y-10651150D02*
X8798634Y-10622579D01*
X8798634Y-10622579D02*
X8808158Y-10603531D01*
X8808158Y-10603531D02*
X8817682Y-10574960D01*
X8817682Y-10574960D02*
X8827206Y-10527341D01*
X8827206Y-10527341D02*
X8827206Y-10489246D01*
X8827206Y-10489246D02*
X8817682Y-10441627D01*
X8817682Y-10441627D02*
X8808158Y-10413055D01*
X8808158Y-10413055D02*
X8798634Y-10394008D01*
X8798634Y-10394008D02*
X8779587Y-10365436D01*
X8779587Y-10365436D02*
X8770063Y-10355912D01*
X9131968Y-10660674D02*
X9122444Y-10651150D01*
X9122444Y-10651150D02*
X9103396Y-10622579D01*
X9103396Y-10622579D02*
X9093873Y-10603531D01*
X9093873Y-10603531D02*
X9084349Y-10574960D01*
X9084349Y-10574960D02*
X9074825Y-10527341D01*
X9074825Y-10527341D02*
X9074825Y-10489246D01*
X9074825Y-10489246D02*
X9084349Y-10441627D01*
X9084349Y-10441627D02*
X9093873Y-10413055D01*
X9093873Y-10413055D02*
X9103396Y-10394008D01*
X9103396Y-10394008D02*
X9122444Y-10365436D01*
X9122444Y-10365436D02*
X9131968Y-10355912D01*
X9208158Y-10451150D02*
X9208158Y-10584484D01*
X9208158Y-10470198D02*
X9217682Y-10460674D01*
X9217682Y-10460674D02*
X9236730Y-10451150D01*
X9236730Y-10451150D02*
X9265301Y-10451150D01*
X9265301Y-10451150D02*
X9284349Y-10460674D01*
X9284349Y-10460674D02*
X9293873Y-10479722D01*
X9293873Y-10479722D02*
X9293873Y-10584484D01*
X9417682Y-10584484D02*
X9398634Y-10574960D01*
X9398634Y-10574960D02*
X9389111Y-10565436D01*
X9389111Y-10565436D02*
X9379587Y-10546389D01*
X9379587Y-10546389D02*
X9379587Y-10489246D01*
X9379587Y-10489246D02*
X9389111Y-10470198D01*
X9389111Y-10470198D02*
X9398634Y-10460674D01*
X9398634Y-10460674D02*
X9417682Y-10451150D01*
X9417682Y-10451150D02*
X9446254Y-10451150D01*
X9446254Y-10451150D02*
X9465301Y-10460674D01*
X9465301Y-10460674D02*
X9474825Y-10470198D01*
X9474825Y-10470198D02*
X9484349Y-10489246D01*
X9484349Y-10489246D02*
X9484349Y-10546389D01*
X9484349Y-10546389D02*
X9474825Y-10565436D01*
X9474825Y-10565436D02*
X9465301Y-10574960D01*
X9465301Y-10574960D02*
X9446254Y-10584484D01*
X9446254Y-10584484D02*
X9417682Y-10584484D01*
X9541492Y-10451150D02*
X9617682Y-10451150D01*
X9570063Y-10384484D02*
X9570063Y-10555912D01*
X9570063Y-10555912D02*
X9579587Y-10574960D01*
X9579587Y-10574960D02*
X9598634Y-10584484D01*
X9598634Y-10584484D02*
X9617682Y-10584484D01*
X9836730Y-10451150D02*
X9836730Y-10651150D01*
X9836730Y-10460674D02*
X9855777Y-10451150D01*
X9855777Y-10451150D02*
X9893873Y-10451150D01*
X9893873Y-10451150D02*
X9912920Y-10460674D01*
X9912920Y-10460674D02*
X9922444Y-10470198D01*
X9922444Y-10470198D02*
X9931968Y-10489246D01*
X9931968Y-10489246D02*
X9931968Y-10546389D01*
X9931968Y-10546389D02*
X9922444Y-10565436D01*
X9922444Y-10565436D02*
X9912920Y-10574960D01*
X9912920Y-10574960D02*
X9893873Y-10584484D01*
X9893873Y-10584484D02*
X9855777Y-10584484D01*
X9855777Y-10584484D02*
X9836730Y-10574960D01*
X10046254Y-10584484D02*
X10027206Y-10574960D01*
X10027206Y-10574960D02*
X10017682Y-10555912D01*
X10017682Y-10555912D02*
X10017682Y-10384484D01*
X10208158Y-10584484D02*
X10208158Y-10479722D01*
X10208158Y-10479722D02*
X10198635Y-10460674D01*
X10198635Y-10460674D02*
X10179587Y-10451150D01*
X10179587Y-10451150D02*
X10141492Y-10451150D01*
X10141492Y-10451150D02*
X10122444Y-10460674D01*
X10208158Y-10574960D02*
X10189111Y-10584484D01*
X10189111Y-10584484D02*
X10141492Y-10584484D01*
X10141492Y-10584484D02*
X10122444Y-10574960D01*
X10122444Y-10574960D02*
X10112920Y-10555912D01*
X10112920Y-10555912D02*
X10112920Y-10536865D01*
X10112920Y-10536865D02*
X10122444Y-10517817D01*
X10122444Y-10517817D02*
X10141492Y-10508293D01*
X10141492Y-10508293D02*
X10189111Y-10508293D01*
X10189111Y-10508293D02*
X10208158Y-10498770D01*
X10274825Y-10451150D02*
X10351015Y-10451150D01*
X10303396Y-10384484D02*
X10303396Y-10555912D01*
X10303396Y-10555912D02*
X10312920Y-10574960D01*
X10312920Y-10574960D02*
X10331968Y-10584484D01*
X10331968Y-10584484D02*
X10351015Y-10584484D01*
X10493873Y-10574960D02*
X10474825Y-10584484D01*
X10474825Y-10584484D02*
X10436730Y-10584484D01*
X10436730Y-10584484D02*
X10417682Y-10574960D01*
X10417682Y-10574960D02*
X10408158Y-10555912D01*
X10408158Y-10555912D02*
X10408158Y-10479722D01*
X10408158Y-10479722D02*
X10417682Y-10460674D01*
X10417682Y-10460674D02*
X10436730Y-10451150D01*
X10436730Y-10451150D02*
X10474825Y-10451150D01*
X10474825Y-10451150D02*
X10493873Y-10460674D01*
X10493873Y-10460674D02*
X10503396Y-10479722D01*
X10503396Y-10479722D02*
X10503396Y-10498770D01*
X10503396Y-10498770D02*
X10408158Y-10517817D01*
X10674825Y-10584484D02*
X10674825Y-10384484D01*
X10674825Y-10574960D02*
X10655777Y-10584484D01*
X10655777Y-10584484D02*
X10617682Y-10584484D01*
X10617682Y-10584484D02*
X10598635Y-10574960D01*
X10598635Y-10574960D02*
X10589111Y-10565436D01*
X10589111Y-10565436D02*
X10579587Y-10546389D01*
X10579587Y-10546389D02*
X10579587Y-10489246D01*
X10579587Y-10489246D02*
X10589111Y-10470198D01*
X10589111Y-10470198D02*
X10598635Y-10460674D01*
X10598635Y-10460674D02*
X10617682Y-10451150D01*
X10617682Y-10451150D02*
X10655777Y-10451150D01*
X10655777Y-10451150D02*
X10674825Y-10460674D01*
X10751016Y-10660674D02*
X10760539Y-10651150D01*
X10760539Y-10651150D02*
X10779587Y-10622579D01*
X10779587Y-10622579D02*
X10789111Y-10603531D01*
X10789111Y-10603531D02*
X10798635Y-10574960D01*
X10798635Y-10574960D02*
X10808158Y-10527341D01*
X10808158Y-10527341D02*
X10808158Y-10489246D01*
X10808158Y-10489246D02*
X10798635Y-10441627D01*
X10798635Y-10441627D02*
X10789111Y-10413055D01*
X10789111Y-10413055D02*
X10779587Y-10394008D01*
X10779587Y-10394008D02*
X10760539Y-10365436D01*
X10760539Y-10365436D02*
X10751016Y-10355912D01*
M02*
