%TF.GenerationSoftware,KiCad,Pcbnew,8.0.4*%
%TF.CreationDate,2024-11-24T01:25:27+11:00*%
%TF.ProjectId,cm4-bare-minimum,636d342d-6261-4726-952d-6d696e696d75,V0.1*%
%TF.SameCoordinates,Original*%
%TF.FileFunction,Legend,Top*%
%TF.FilePolarity,Positive*%
%FSLAX46Y46*%
G04 Gerber Fmt 4.6, Leading zero omitted, Abs format (unit mm)*
G04 Created by KiCad (PCBNEW 8.0.4) date 2024-11-24 01:25:27*
%MOMM*%
%LPD*%
G01*
G04 APERTURE LIST*
%ADD10C,0.150000*%
%ADD11C,0.120000*%
%ADD12C,0.200000*%
%ADD13C,0.127000*%
G04 APERTURE END LIST*
D10*
X77132142Y-80899819D02*
X76798809Y-80423628D01*
X76560714Y-80899819D02*
X76560714Y-79899819D01*
X76560714Y-79899819D02*
X76941666Y-79899819D01*
X76941666Y-79899819D02*
X77036904Y-79947438D01*
X77036904Y-79947438D02*
X77084523Y-79995057D01*
X77084523Y-79995057D02*
X77132142Y-80090295D01*
X77132142Y-80090295D02*
X77132142Y-80233152D01*
X77132142Y-80233152D02*
X77084523Y-80328390D01*
X77084523Y-80328390D02*
X77036904Y-80376009D01*
X77036904Y-80376009D02*
X76941666Y-80423628D01*
X76941666Y-80423628D02*
X76560714Y-80423628D01*
X78084523Y-80899819D02*
X77513095Y-80899819D01*
X77798809Y-80899819D02*
X77798809Y-79899819D01*
X77798809Y-79899819D02*
X77703571Y-80042676D01*
X77703571Y-80042676D02*
X77608333Y-80137914D01*
X77608333Y-80137914D02*
X77513095Y-80185533D01*
X79036904Y-80899819D02*
X78465476Y-80899819D01*
X78751190Y-80899819D02*
X78751190Y-79899819D01*
X78751190Y-79899819D02*
X78655952Y-80042676D01*
X78655952Y-80042676D02*
X78560714Y-80137914D01*
X78560714Y-80137914D02*
X78465476Y-80185533D01*
X81169580Y-63816666D02*
X81217200Y-63864285D01*
X81217200Y-63864285D02*
X81264819Y-64007142D01*
X81264819Y-64007142D02*
X81264819Y-64102380D01*
X81264819Y-64102380D02*
X81217200Y-64245237D01*
X81217200Y-64245237D02*
X81121961Y-64340475D01*
X81121961Y-64340475D02*
X81026723Y-64388094D01*
X81026723Y-64388094D02*
X80836247Y-64435713D01*
X80836247Y-64435713D02*
X80693390Y-64435713D01*
X80693390Y-64435713D02*
X80502914Y-64388094D01*
X80502914Y-64388094D02*
X80407676Y-64340475D01*
X80407676Y-64340475D02*
X80312438Y-64245237D01*
X80312438Y-64245237D02*
X80264819Y-64102380D01*
X80264819Y-64102380D02*
X80264819Y-64007142D01*
X80264819Y-64007142D02*
X80312438Y-63864285D01*
X80312438Y-63864285D02*
X80360057Y-63816666D01*
X81264819Y-62864285D02*
X81264819Y-63435713D01*
X81264819Y-63149999D02*
X80264819Y-63149999D01*
X80264819Y-63149999D02*
X80407676Y-63245237D01*
X80407676Y-63245237D02*
X80502914Y-63340475D01*
X80502914Y-63340475D02*
X80550533Y-63435713D01*
X52258333Y-62749819D02*
X51925000Y-62273628D01*
X51686905Y-62749819D02*
X51686905Y-61749819D01*
X51686905Y-61749819D02*
X52067857Y-61749819D01*
X52067857Y-61749819D02*
X52163095Y-61797438D01*
X52163095Y-61797438D02*
X52210714Y-61845057D01*
X52210714Y-61845057D02*
X52258333Y-61940295D01*
X52258333Y-61940295D02*
X52258333Y-62083152D01*
X52258333Y-62083152D02*
X52210714Y-62178390D01*
X52210714Y-62178390D02*
X52163095Y-62226009D01*
X52163095Y-62226009D02*
X52067857Y-62273628D01*
X52067857Y-62273628D02*
X51686905Y-62273628D01*
X52639286Y-61845057D02*
X52686905Y-61797438D01*
X52686905Y-61797438D02*
X52782143Y-61749819D01*
X52782143Y-61749819D02*
X53020238Y-61749819D01*
X53020238Y-61749819D02*
X53115476Y-61797438D01*
X53115476Y-61797438D02*
X53163095Y-61845057D01*
X53163095Y-61845057D02*
X53210714Y-61940295D01*
X53210714Y-61940295D02*
X53210714Y-62035533D01*
X53210714Y-62035533D02*
X53163095Y-62178390D01*
X53163095Y-62178390D02*
X52591667Y-62749819D01*
X52591667Y-62749819D02*
X53210714Y-62749819D01*
X52258333Y-65479819D02*
X51925000Y-65003628D01*
X51686905Y-65479819D02*
X51686905Y-64479819D01*
X51686905Y-64479819D02*
X52067857Y-64479819D01*
X52067857Y-64479819D02*
X52163095Y-64527438D01*
X52163095Y-64527438D02*
X52210714Y-64575057D01*
X52210714Y-64575057D02*
X52258333Y-64670295D01*
X52258333Y-64670295D02*
X52258333Y-64813152D01*
X52258333Y-64813152D02*
X52210714Y-64908390D01*
X52210714Y-64908390D02*
X52163095Y-64956009D01*
X52163095Y-64956009D02*
X52067857Y-65003628D01*
X52067857Y-65003628D02*
X51686905Y-65003628D01*
X52591667Y-64479819D02*
X53210714Y-64479819D01*
X53210714Y-64479819D02*
X52877381Y-64860771D01*
X52877381Y-64860771D02*
X53020238Y-64860771D01*
X53020238Y-64860771D02*
X53115476Y-64908390D01*
X53115476Y-64908390D02*
X53163095Y-64956009D01*
X53163095Y-64956009D02*
X53210714Y-65051247D01*
X53210714Y-65051247D02*
X53210714Y-65289342D01*
X53210714Y-65289342D02*
X53163095Y-65384580D01*
X53163095Y-65384580D02*
X53115476Y-65432200D01*
X53115476Y-65432200D02*
X53020238Y-65479819D01*
X53020238Y-65479819D02*
X52734524Y-65479819D01*
X52734524Y-65479819D02*
X52639286Y-65432200D01*
X52639286Y-65432200D02*
X52591667Y-65384580D01*
X156007142Y-73184819D02*
X155673809Y-72708628D01*
X155435714Y-73184819D02*
X155435714Y-72184819D01*
X155435714Y-72184819D02*
X155816666Y-72184819D01*
X155816666Y-72184819D02*
X155911904Y-72232438D01*
X155911904Y-72232438D02*
X155959523Y-72280057D01*
X155959523Y-72280057D02*
X156007142Y-72375295D01*
X156007142Y-72375295D02*
X156007142Y-72518152D01*
X156007142Y-72518152D02*
X155959523Y-72613390D01*
X155959523Y-72613390D02*
X155911904Y-72661009D01*
X155911904Y-72661009D02*
X155816666Y-72708628D01*
X155816666Y-72708628D02*
X155435714Y-72708628D01*
X156959523Y-73184819D02*
X156388095Y-73184819D01*
X156673809Y-73184819D02*
X156673809Y-72184819D01*
X156673809Y-72184819D02*
X156578571Y-72327676D01*
X156578571Y-72327676D02*
X156483333Y-72422914D01*
X156483333Y-72422914D02*
X156388095Y-72470533D01*
X157292857Y-72184819D02*
X157959523Y-72184819D01*
X157959523Y-72184819D02*
X157530952Y-73184819D01*
X65633333Y-83974580D02*
X65585714Y-84022200D01*
X65585714Y-84022200D02*
X65442857Y-84069819D01*
X65442857Y-84069819D02*
X65347619Y-84069819D01*
X65347619Y-84069819D02*
X65204762Y-84022200D01*
X65204762Y-84022200D02*
X65109524Y-83926961D01*
X65109524Y-83926961D02*
X65061905Y-83831723D01*
X65061905Y-83831723D02*
X65014286Y-83641247D01*
X65014286Y-83641247D02*
X65014286Y-83498390D01*
X65014286Y-83498390D02*
X65061905Y-83307914D01*
X65061905Y-83307914D02*
X65109524Y-83212676D01*
X65109524Y-83212676D02*
X65204762Y-83117438D01*
X65204762Y-83117438D02*
X65347619Y-83069819D01*
X65347619Y-83069819D02*
X65442857Y-83069819D01*
X65442857Y-83069819D02*
X65585714Y-83117438D01*
X65585714Y-83117438D02*
X65633333Y-83165057D01*
X66490476Y-83403152D02*
X66490476Y-84069819D01*
X66252381Y-83022200D02*
X66014286Y-83736485D01*
X66014286Y-83736485D02*
X66633333Y-83736485D01*
X155947319Y-70438094D02*
X154947319Y-70438094D01*
X154947319Y-70438094D02*
X154947319Y-70199999D01*
X154947319Y-70199999D02*
X154994938Y-70057142D01*
X154994938Y-70057142D02*
X155090176Y-69961904D01*
X155090176Y-69961904D02*
X155185414Y-69914285D01*
X155185414Y-69914285D02*
X155375890Y-69866666D01*
X155375890Y-69866666D02*
X155518747Y-69866666D01*
X155518747Y-69866666D02*
X155709223Y-69914285D01*
X155709223Y-69914285D02*
X155804461Y-69961904D01*
X155804461Y-69961904D02*
X155899700Y-70057142D01*
X155899700Y-70057142D02*
X155947319Y-70199999D01*
X155947319Y-70199999D02*
X155947319Y-70438094D01*
X155042557Y-69485713D02*
X154994938Y-69438094D01*
X154994938Y-69438094D02*
X154947319Y-69342856D01*
X154947319Y-69342856D02*
X154947319Y-69104761D01*
X154947319Y-69104761D02*
X154994938Y-69009523D01*
X154994938Y-69009523D02*
X155042557Y-68961904D01*
X155042557Y-68961904D02*
X155137795Y-68914285D01*
X155137795Y-68914285D02*
X155233033Y-68914285D01*
X155233033Y-68914285D02*
X155375890Y-68961904D01*
X155375890Y-68961904D02*
X155947319Y-69533332D01*
X155947319Y-69533332D02*
X155947319Y-68914285D01*
X143159819Y-57241666D02*
X142683628Y-57574999D01*
X143159819Y-57813094D02*
X142159819Y-57813094D01*
X142159819Y-57813094D02*
X142159819Y-57432142D01*
X142159819Y-57432142D02*
X142207438Y-57336904D01*
X142207438Y-57336904D02*
X142255057Y-57289285D01*
X142255057Y-57289285D02*
X142350295Y-57241666D01*
X142350295Y-57241666D02*
X142493152Y-57241666D01*
X142493152Y-57241666D02*
X142588390Y-57289285D01*
X142588390Y-57289285D02*
X142636009Y-57336904D01*
X142636009Y-57336904D02*
X142683628Y-57432142D01*
X142683628Y-57432142D02*
X142683628Y-57813094D01*
X142493152Y-56384523D02*
X143159819Y-56384523D01*
X142112200Y-56622618D02*
X142826485Y-56860713D01*
X142826485Y-56860713D02*
X142826485Y-56241666D01*
X52083333Y-55474819D02*
X51750000Y-54998628D01*
X51511905Y-55474819D02*
X51511905Y-54474819D01*
X51511905Y-54474819D02*
X51892857Y-54474819D01*
X51892857Y-54474819D02*
X51988095Y-54522438D01*
X51988095Y-54522438D02*
X52035714Y-54570057D01*
X52035714Y-54570057D02*
X52083333Y-54665295D01*
X52083333Y-54665295D02*
X52083333Y-54808152D01*
X52083333Y-54808152D02*
X52035714Y-54903390D01*
X52035714Y-54903390D02*
X51988095Y-54951009D01*
X51988095Y-54951009D02*
X51892857Y-54998628D01*
X51892857Y-54998628D02*
X51511905Y-54998628D01*
X52416667Y-54474819D02*
X53083333Y-54474819D01*
X53083333Y-54474819D02*
X52654762Y-55474819D01*
X62012319Y-81496904D02*
X62821842Y-81496904D01*
X62821842Y-81496904D02*
X62917080Y-81449285D01*
X62917080Y-81449285D02*
X62964700Y-81401666D01*
X62964700Y-81401666D02*
X63012319Y-81306428D01*
X63012319Y-81306428D02*
X63012319Y-81115952D01*
X63012319Y-81115952D02*
X62964700Y-81020714D01*
X62964700Y-81020714D02*
X62917080Y-80973095D01*
X62917080Y-80973095D02*
X62821842Y-80925476D01*
X62821842Y-80925476D02*
X62012319Y-80925476D01*
X62012319Y-79973095D02*
X62012319Y-80449285D01*
X62012319Y-80449285D02*
X62488509Y-80496904D01*
X62488509Y-80496904D02*
X62440890Y-80449285D01*
X62440890Y-80449285D02*
X62393271Y-80354047D01*
X62393271Y-80354047D02*
X62393271Y-80115952D01*
X62393271Y-80115952D02*
X62440890Y-80020714D01*
X62440890Y-80020714D02*
X62488509Y-79973095D01*
X62488509Y-79973095D02*
X62583747Y-79925476D01*
X62583747Y-79925476D02*
X62821842Y-79925476D01*
X62821842Y-79925476D02*
X62917080Y-79973095D01*
X62917080Y-79973095D02*
X62964700Y-80020714D01*
X62964700Y-80020714D02*
X63012319Y-80115952D01*
X63012319Y-80115952D02*
X63012319Y-80354047D01*
X63012319Y-80354047D02*
X62964700Y-80449285D01*
X62964700Y-80449285D02*
X62917080Y-80496904D01*
X48607142Y-69909819D02*
X48273809Y-69433628D01*
X48035714Y-69909819D02*
X48035714Y-68909819D01*
X48035714Y-68909819D02*
X48416666Y-68909819D01*
X48416666Y-68909819D02*
X48511904Y-68957438D01*
X48511904Y-68957438D02*
X48559523Y-69005057D01*
X48559523Y-69005057D02*
X48607142Y-69100295D01*
X48607142Y-69100295D02*
X48607142Y-69243152D01*
X48607142Y-69243152D02*
X48559523Y-69338390D01*
X48559523Y-69338390D02*
X48511904Y-69386009D01*
X48511904Y-69386009D02*
X48416666Y-69433628D01*
X48416666Y-69433628D02*
X48035714Y-69433628D01*
X49559523Y-69909819D02*
X48988095Y-69909819D01*
X49273809Y-69909819D02*
X49273809Y-68909819D01*
X49273809Y-68909819D02*
X49178571Y-69052676D01*
X49178571Y-69052676D02*
X49083333Y-69147914D01*
X49083333Y-69147914D02*
X48988095Y-69195533D01*
X50464285Y-68909819D02*
X49988095Y-68909819D01*
X49988095Y-68909819D02*
X49940476Y-69386009D01*
X49940476Y-69386009D02*
X49988095Y-69338390D01*
X49988095Y-69338390D02*
X50083333Y-69290771D01*
X50083333Y-69290771D02*
X50321428Y-69290771D01*
X50321428Y-69290771D02*
X50416666Y-69338390D01*
X50416666Y-69338390D02*
X50464285Y-69386009D01*
X50464285Y-69386009D02*
X50511904Y-69481247D01*
X50511904Y-69481247D02*
X50511904Y-69719342D01*
X50511904Y-69719342D02*
X50464285Y-69814580D01*
X50464285Y-69814580D02*
X50416666Y-69862200D01*
X50416666Y-69862200D02*
X50321428Y-69909819D01*
X50321428Y-69909819D02*
X50083333Y-69909819D01*
X50083333Y-69909819D02*
X49988095Y-69862200D01*
X49988095Y-69862200D02*
X49940476Y-69814580D01*
X81274819Y-61691666D02*
X80798628Y-62024999D01*
X81274819Y-62263094D02*
X80274819Y-62263094D01*
X80274819Y-62263094D02*
X80274819Y-61882142D01*
X80274819Y-61882142D02*
X80322438Y-61786904D01*
X80322438Y-61786904D02*
X80370057Y-61739285D01*
X80370057Y-61739285D02*
X80465295Y-61691666D01*
X80465295Y-61691666D02*
X80608152Y-61691666D01*
X80608152Y-61691666D02*
X80703390Y-61739285D01*
X80703390Y-61739285D02*
X80751009Y-61786904D01*
X80751009Y-61786904D02*
X80798628Y-61882142D01*
X80798628Y-61882142D02*
X80798628Y-62263094D01*
X81274819Y-60739285D02*
X81274819Y-61310713D01*
X81274819Y-61024999D02*
X80274819Y-61024999D01*
X80274819Y-61024999D02*
X80417676Y-61120237D01*
X80417676Y-61120237D02*
X80512914Y-61215475D01*
X80512914Y-61215475D02*
X80560533Y-61310713D01*
X151699405Y-71899819D02*
X151699405Y-70899819D01*
X151699405Y-70899819D02*
X151937500Y-70899819D01*
X151937500Y-70899819D02*
X152080357Y-70947438D01*
X152080357Y-70947438D02*
X152175595Y-71042676D01*
X152175595Y-71042676D02*
X152223214Y-71137914D01*
X152223214Y-71137914D02*
X152270833Y-71328390D01*
X152270833Y-71328390D02*
X152270833Y-71471247D01*
X152270833Y-71471247D02*
X152223214Y-71661723D01*
X152223214Y-71661723D02*
X152175595Y-71756961D01*
X152175595Y-71756961D02*
X152080357Y-71852200D01*
X152080357Y-71852200D02*
X151937500Y-71899819D01*
X151937500Y-71899819D02*
X151699405Y-71899819D01*
X153223214Y-71899819D02*
X152651786Y-71899819D01*
X152937500Y-71899819D02*
X152937500Y-70899819D01*
X152937500Y-70899819D02*
X152842262Y-71042676D01*
X152842262Y-71042676D02*
X152747024Y-71137914D01*
X152747024Y-71137914D02*
X152651786Y-71185533D01*
X157374819Y-80466666D02*
X156898628Y-80799999D01*
X157374819Y-81038094D02*
X156374819Y-81038094D01*
X156374819Y-81038094D02*
X156374819Y-80657142D01*
X156374819Y-80657142D02*
X156422438Y-80561904D01*
X156422438Y-80561904D02*
X156470057Y-80514285D01*
X156470057Y-80514285D02*
X156565295Y-80466666D01*
X156565295Y-80466666D02*
X156708152Y-80466666D01*
X156708152Y-80466666D02*
X156803390Y-80514285D01*
X156803390Y-80514285D02*
X156851009Y-80561904D01*
X156851009Y-80561904D02*
X156898628Y-80657142D01*
X156898628Y-80657142D02*
X156898628Y-81038094D01*
X157374819Y-79990475D02*
X157374819Y-79799999D01*
X157374819Y-79799999D02*
X157327200Y-79704761D01*
X157327200Y-79704761D02*
X157279580Y-79657142D01*
X157279580Y-79657142D02*
X157136723Y-79561904D01*
X157136723Y-79561904D02*
X156946247Y-79514285D01*
X156946247Y-79514285D02*
X156565295Y-79514285D01*
X156565295Y-79514285D02*
X156470057Y-79561904D01*
X156470057Y-79561904D02*
X156422438Y-79609523D01*
X156422438Y-79609523D02*
X156374819Y-79704761D01*
X156374819Y-79704761D02*
X156374819Y-79895237D01*
X156374819Y-79895237D02*
X156422438Y-79990475D01*
X156422438Y-79990475D02*
X156470057Y-80038094D01*
X156470057Y-80038094D02*
X156565295Y-80085713D01*
X156565295Y-80085713D02*
X156803390Y-80085713D01*
X156803390Y-80085713D02*
X156898628Y-80038094D01*
X156898628Y-80038094D02*
X156946247Y-79990475D01*
X156946247Y-79990475D02*
X156993866Y-79895237D01*
X156993866Y-79895237D02*
X156993866Y-79704761D01*
X156993866Y-79704761D02*
X156946247Y-79609523D01*
X156946247Y-79609523D02*
X156898628Y-79561904D01*
X156898628Y-79561904D02*
X156803390Y-79514285D01*
X145133333Y-76774819D02*
X144800000Y-76298628D01*
X144561905Y-76774819D02*
X144561905Y-75774819D01*
X144561905Y-75774819D02*
X144942857Y-75774819D01*
X144942857Y-75774819D02*
X145038095Y-75822438D01*
X145038095Y-75822438D02*
X145085714Y-75870057D01*
X145085714Y-75870057D02*
X145133333Y-75965295D01*
X145133333Y-75965295D02*
X145133333Y-76108152D01*
X145133333Y-76108152D02*
X145085714Y-76203390D01*
X145085714Y-76203390D02*
X145038095Y-76251009D01*
X145038095Y-76251009D02*
X144942857Y-76298628D01*
X144942857Y-76298628D02*
X144561905Y-76298628D01*
X145704762Y-76203390D02*
X145609524Y-76155771D01*
X145609524Y-76155771D02*
X145561905Y-76108152D01*
X145561905Y-76108152D02*
X145514286Y-76012914D01*
X145514286Y-76012914D02*
X145514286Y-75965295D01*
X145514286Y-75965295D02*
X145561905Y-75870057D01*
X145561905Y-75870057D02*
X145609524Y-75822438D01*
X145609524Y-75822438D02*
X145704762Y-75774819D01*
X145704762Y-75774819D02*
X145895238Y-75774819D01*
X145895238Y-75774819D02*
X145990476Y-75822438D01*
X145990476Y-75822438D02*
X146038095Y-75870057D01*
X146038095Y-75870057D02*
X146085714Y-75965295D01*
X146085714Y-75965295D02*
X146085714Y-76012914D01*
X146085714Y-76012914D02*
X146038095Y-76108152D01*
X146038095Y-76108152D02*
X145990476Y-76155771D01*
X145990476Y-76155771D02*
X145895238Y-76203390D01*
X145895238Y-76203390D02*
X145704762Y-76203390D01*
X145704762Y-76203390D02*
X145609524Y-76251009D01*
X145609524Y-76251009D02*
X145561905Y-76298628D01*
X145561905Y-76298628D02*
X145514286Y-76393866D01*
X145514286Y-76393866D02*
X145514286Y-76584342D01*
X145514286Y-76584342D02*
X145561905Y-76679580D01*
X145561905Y-76679580D02*
X145609524Y-76727200D01*
X145609524Y-76727200D02*
X145704762Y-76774819D01*
X145704762Y-76774819D02*
X145895238Y-76774819D01*
X145895238Y-76774819D02*
X145990476Y-76727200D01*
X145990476Y-76727200D02*
X146038095Y-76679580D01*
X146038095Y-76679580D02*
X146085714Y-76584342D01*
X146085714Y-76584342D02*
X146085714Y-76393866D01*
X146085714Y-76393866D02*
X146038095Y-76298628D01*
X146038095Y-76298628D02*
X145990476Y-76251009D01*
X145990476Y-76251009D02*
X145895238Y-76203390D01*
X64454819Y-53558333D02*
X65169104Y-53558333D01*
X65169104Y-53558333D02*
X65311961Y-53605952D01*
X65311961Y-53605952D02*
X65407200Y-53701190D01*
X65407200Y-53701190D02*
X65454819Y-53844047D01*
X65454819Y-53844047D02*
X65454819Y-53939285D01*
X65454819Y-52558333D02*
X65454819Y-53129761D01*
X65454819Y-52844047D02*
X64454819Y-52844047D01*
X64454819Y-52844047D02*
X64597676Y-52939285D01*
X64597676Y-52939285D02*
X64692914Y-53034523D01*
X64692914Y-53034523D02*
X64740533Y-53129761D01*
X145191666Y-77849819D02*
X145191666Y-78564104D01*
X145191666Y-78564104D02*
X145144047Y-78706961D01*
X145144047Y-78706961D02*
X145048809Y-78802200D01*
X145048809Y-78802200D02*
X144905952Y-78849819D01*
X144905952Y-78849819D02*
X144810714Y-78849819D01*
X146144047Y-77849819D02*
X145667857Y-77849819D01*
X145667857Y-77849819D02*
X145620238Y-78326009D01*
X145620238Y-78326009D02*
X145667857Y-78278390D01*
X145667857Y-78278390D02*
X145763095Y-78230771D01*
X145763095Y-78230771D02*
X146001190Y-78230771D01*
X146001190Y-78230771D02*
X146096428Y-78278390D01*
X146096428Y-78278390D02*
X146144047Y-78326009D01*
X146144047Y-78326009D02*
X146191666Y-78421247D01*
X146191666Y-78421247D02*
X146191666Y-78659342D01*
X146191666Y-78659342D02*
X146144047Y-78754580D01*
X146144047Y-78754580D02*
X146096428Y-78802200D01*
X146096428Y-78802200D02*
X146001190Y-78849819D01*
X146001190Y-78849819D02*
X145763095Y-78849819D01*
X145763095Y-78849819D02*
X145667857Y-78802200D01*
X145667857Y-78802200D02*
X145620238Y-78754580D01*
X153617319Y-84411904D02*
X154426842Y-84411904D01*
X154426842Y-84411904D02*
X154522080Y-84364285D01*
X154522080Y-84364285D02*
X154569700Y-84316666D01*
X154569700Y-84316666D02*
X154617319Y-84221428D01*
X154617319Y-84221428D02*
X154617319Y-84030952D01*
X154617319Y-84030952D02*
X154569700Y-83935714D01*
X154569700Y-83935714D02*
X154522080Y-83888095D01*
X154522080Y-83888095D02*
X154426842Y-83840476D01*
X154426842Y-83840476D02*
X153617319Y-83840476D01*
X153950652Y-82935714D02*
X154617319Y-82935714D01*
X153569700Y-83173809D02*
X154283985Y-83411904D01*
X154283985Y-83411904D02*
X154283985Y-82792857D01*
X52233333Y-52749819D02*
X51900000Y-52273628D01*
X51661905Y-52749819D02*
X51661905Y-51749819D01*
X51661905Y-51749819D02*
X52042857Y-51749819D01*
X52042857Y-51749819D02*
X52138095Y-51797438D01*
X52138095Y-51797438D02*
X52185714Y-51845057D01*
X52185714Y-51845057D02*
X52233333Y-51940295D01*
X52233333Y-51940295D02*
X52233333Y-52083152D01*
X52233333Y-52083152D02*
X52185714Y-52178390D01*
X52185714Y-52178390D02*
X52138095Y-52226009D01*
X52138095Y-52226009D02*
X52042857Y-52273628D01*
X52042857Y-52273628D02*
X51661905Y-52273628D01*
X53090476Y-51749819D02*
X52900000Y-51749819D01*
X52900000Y-51749819D02*
X52804762Y-51797438D01*
X52804762Y-51797438D02*
X52757143Y-51845057D01*
X52757143Y-51845057D02*
X52661905Y-51987914D01*
X52661905Y-51987914D02*
X52614286Y-52178390D01*
X52614286Y-52178390D02*
X52614286Y-52559342D01*
X52614286Y-52559342D02*
X52661905Y-52654580D01*
X52661905Y-52654580D02*
X52709524Y-52702200D01*
X52709524Y-52702200D02*
X52804762Y-52749819D01*
X52804762Y-52749819D02*
X52995238Y-52749819D01*
X52995238Y-52749819D02*
X53090476Y-52702200D01*
X53090476Y-52702200D02*
X53138095Y-52654580D01*
X53138095Y-52654580D02*
X53185714Y-52559342D01*
X53185714Y-52559342D02*
X53185714Y-52321247D01*
X53185714Y-52321247D02*
X53138095Y-52226009D01*
X53138095Y-52226009D02*
X53090476Y-52178390D01*
X53090476Y-52178390D02*
X52995238Y-52130771D01*
X52995238Y-52130771D02*
X52804762Y-52130771D01*
X52804762Y-52130771D02*
X52709524Y-52178390D01*
X52709524Y-52178390D02*
X52661905Y-52226009D01*
X52661905Y-52226009D02*
X52614286Y-52321247D01*
X74404819Y-62261904D02*
X75214342Y-62261904D01*
X75214342Y-62261904D02*
X75309580Y-62214285D01*
X75309580Y-62214285D02*
X75357200Y-62166666D01*
X75357200Y-62166666D02*
X75404819Y-62071428D01*
X75404819Y-62071428D02*
X75404819Y-61880952D01*
X75404819Y-61880952D02*
X75357200Y-61785714D01*
X75357200Y-61785714D02*
X75309580Y-61738095D01*
X75309580Y-61738095D02*
X75214342Y-61690476D01*
X75214342Y-61690476D02*
X74404819Y-61690476D01*
X74500057Y-61261904D02*
X74452438Y-61214285D01*
X74452438Y-61214285D02*
X74404819Y-61119047D01*
X74404819Y-61119047D02*
X74404819Y-60880952D01*
X74404819Y-60880952D02*
X74452438Y-60785714D01*
X74452438Y-60785714D02*
X74500057Y-60738095D01*
X74500057Y-60738095D02*
X74595295Y-60690476D01*
X74595295Y-60690476D02*
X74690533Y-60690476D01*
X74690533Y-60690476D02*
X74833390Y-60738095D01*
X74833390Y-60738095D02*
X75404819Y-61309523D01*
X75404819Y-61309523D02*
X75404819Y-60690476D01*
X48654819Y-55433333D02*
X49369104Y-55433333D01*
X49369104Y-55433333D02*
X49511961Y-55480952D01*
X49511961Y-55480952D02*
X49607200Y-55576190D01*
X49607200Y-55576190D02*
X49654819Y-55719047D01*
X49654819Y-55719047D02*
X49654819Y-55814285D01*
X48988152Y-54528571D02*
X49654819Y-54528571D01*
X48607200Y-54766666D02*
X49321485Y-55004761D01*
X49321485Y-55004761D02*
X49321485Y-54385714D01*
X155982142Y-75504819D02*
X155648809Y-75028628D01*
X155410714Y-75504819D02*
X155410714Y-74504819D01*
X155410714Y-74504819D02*
X155791666Y-74504819D01*
X155791666Y-74504819D02*
X155886904Y-74552438D01*
X155886904Y-74552438D02*
X155934523Y-74600057D01*
X155934523Y-74600057D02*
X155982142Y-74695295D01*
X155982142Y-74695295D02*
X155982142Y-74838152D01*
X155982142Y-74838152D02*
X155934523Y-74933390D01*
X155934523Y-74933390D02*
X155886904Y-74981009D01*
X155886904Y-74981009D02*
X155791666Y-75028628D01*
X155791666Y-75028628D02*
X155410714Y-75028628D01*
X156934523Y-75504819D02*
X156363095Y-75504819D01*
X156648809Y-75504819D02*
X156648809Y-74504819D01*
X156648809Y-74504819D02*
X156553571Y-74647676D01*
X156553571Y-74647676D02*
X156458333Y-74742914D01*
X156458333Y-74742914D02*
X156363095Y-74790533D01*
X157791666Y-74504819D02*
X157601190Y-74504819D01*
X157601190Y-74504819D02*
X157505952Y-74552438D01*
X157505952Y-74552438D02*
X157458333Y-74600057D01*
X157458333Y-74600057D02*
X157363095Y-74742914D01*
X157363095Y-74742914D02*
X157315476Y-74933390D01*
X157315476Y-74933390D02*
X157315476Y-75314342D01*
X157315476Y-75314342D02*
X157363095Y-75409580D01*
X157363095Y-75409580D02*
X157410714Y-75457200D01*
X157410714Y-75457200D02*
X157505952Y-75504819D01*
X157505952Y-75504819D02*
X157696428Y-75504819D01*
X157696428Y-75504819D02*
X157791666Y-75457200D01*
X157791666Y-75457200D02*
X157839285Y-75409580D01*
X157839285Y-75409580D02*
X157886904Y-75314342D01*
X157886904Y-75314342D02*
X157886904Y-75076247D01*
X157886904Y-75076247D02*
X157839285Y-74981009D01*
X157839285Y-74981009D02*
X157791666Y-74933390D01*
X157791666Y-74933390D02*
X157696428Y-74885771D01*
X157696428Y-74885771D02*
X157505952Y-74885771D01*
X157505952Y-74885771D02*
X157410714Y-74933390D01*
X157410714Y-74933390D02*
X157363095Y-74981009D01*
X157363095Y-74981009D02*
X157315476Y-75076247D01*
X151166438Y-67079451D02*
X151166438Y-67794226D01*
X151166438Y-67794226D02*
X151118786Y-67937181D01*
X151118786Y-67937181D02*
X151023483Y-68032485D01*
X151023483Y-68032485D02*
X150880528Y-68080136D01*
X150880528Y-68080136D02*
X150785225Y-68080136D01*
X151547652Y-67079451D02*
X152167123Y-67079451D01*
X152167123Y-67079451D02*
X151833562Y-67460665D01*
X151833562Y-67460665D02*
X151976517Y-67460665D01*
X151976517Y-67460665D02*
X152071820Y-67508316D01*
X152071820Y-67508316D02*
X152119472Y-67555968D01*
X152119472Y-67555968D02*
X152167123Y-67651271D01*
X152167123Y-67651271D02*
X152167123Y-67889530D01*
X152167123Y-67889530D02*
X152119472Y-67984833D01*
X152119472Y-67984833D02*
X152071820Y-68032485D01*
X152071820Y-68032485D02*
X151976517Y-68080136D01*
X151976517Y-68080136D02*
X151690607Y-68080136D01*
X151690607Y-68080136D02*
X151595303Y-68032485D01*
X151595303Y-68032485D02*
X151547652Y-67984833D01*
X52208333Y-58579580D02*
X52160714Y-58627200D01*
X52160714Y-58627200D02*
X52017857Y-58674819D01*
X52017857Y-58674819D02*
X51922619Y-58674819D01*
X51922619Y-58674819D02*
X51779762Y-58627200D01*
X51779762Y-58627200D02*
X51684524Y-58531961D01*
X51684524Y-58531961D02*
X51636905Y-58436723D01*
X51636905Y-58436723D02*
X51589286Y-58246247D01*
X51589286Y-58246247D02*
X51589286Y-58103390D01*
X51589286Y-58103390D02*
X51636905Y-57912914D01*
X51636905Y-57912914D02*
X51684524Y-57817676D01*
X51684524Y-57817676D02*
X51779762Y-57722438D01*
X51779762Y-57722438D02*
X51922619Y-57674819D01*
X51922619Y-57674819D02*
X52017857Y-57674819D01*
X52017857Y-57674819D02*
X52160714Y-57722438D01*
X52160714Y-57722438D02*
X52208333Y-57770057D01*
X52541667Y-57674819D02*
X53160714Y-57674819D01*
X53160714Y-57674819D02*
X52827381Y-58055771D01*
X52827381Y-58055771D02*
X52970238Y-58055771D01*
X52970238Y-58055771D02*
X53065476Y-58103390D01*
X53065476Y-58103390D02*
X53113095Y-58151009D01*
X53113095Y-58151009D02*
X53160714Y-58246247D01*
X53160714Y-58246247D02*
X53160714Y-58484342D01*
X53160714Y-58484342D02*
X53113095Y-58579580D01*
X53113095Y-58579580D02*
X53065476Y-58627200D01*
X53065476Y-58627200D02*
X52970238Y-58674819D01*
X52970238Y-58674819D02*
X52684524Y-58674819D01*
X52684524Y-58674819D02*
X52589286Y-58627200D01*
X52589286Y-58627200D02*
X52541667Y-58579580D01*
X149704819Y-73017857D02*
X149228628Y-73351190D01*
X149704819Y-73589285D02*
X148704819Y-73589285D01*
X148704819Y-73589285D02*
X148704819Y-73208333D01*
X148704819Y-73208333D02*
X148752438Y-73113095D01*
X148752438Y-73113095D02*
X148800057Y-73065476D01*
X148800057Y-73065476D02*
X148895295Y-73017857D01*
X148895295Y-73017857D02*
X149038152Y-73017857D01*
X149038152Y-73017857D02*
X149133390Y-73065476D01*
X149133390Y-73065476D02*
X149181009Y-73113095D01*
X149181009Y-73113095D02*
X149228628Y-73208333D01*
X149228628Y-73208333D02*
X149228628Y-73589285D01*
X149704819Y-72065476D02*
X149704819Y-72636904D01*
X149704819Y-72351190D02*
X148704819Y-72351190D01*
X148704819Y-72351190D02*
X148847676Y-72446428D01*
X148847676Y-72446428D02*
X148942914Y-72541666D01*
X148942914Y-72541666D02*
X148990533Y-72636904D01*
X148704819Y-71446428D02*
X148704819Y-71351190D01*
X148704819Y-71351190D02*
X148752438Y-71255952D01*
X148752438Y-71255952D02*
X148800057Y-71208333D01*
X148800057Y-71208333D02*
X148895295Y-71160714D01*
X148895295Y-71160714D02*
X149085771Y-71113095D01*
X149085771Y-71113095D02*
X149323866Y-71113095D01*
X149323866Y-71113095D02*
X149514342Y-71160714D01*
X149514342Y-71160714D02*
X149609580Y-71208333D01*
X149609580Y-71208333D02*
X149657200Y-71255952D01*
X149657200Y-71255952D02*
X149704819Y-71351190D01*
X149704819Y-71351190D02*
X149704819Y-71446428D01*
X149704819Y-71446428D02*
X149657200Y-71541666D01*
X149657200Y-71541666D02*
X149609580Y-71589285D01*
X149609580Y-71589285D02*
X149514342Y-71636904D01*
X149514342Y-71636904D02*
X149323866Y-71684523D01*
X149323866Y-71684523D02*
X149085771Y-71684523D01*
X149085771Y-71684523D02*
X148895295Y-71636904D01*
X148895295Y-71636904D02*
X148800057Y-71589285D01*
X148800057Y-71589285D02*
X148752438Y-71541666D01*
X148752438Y-71541666D02*
X148704819Y-71446428D01*
X158387319Y-70067857D02*
X157911128Y-70401190D01*
X158387319Y-70639285D02*
X157387319Y-70639285D01*
X157387319Y-70639285D02*
X157387319Y-70258333D01*
X157387319Y-70258333D02*
X157434938Y-70163095D01*
X157434938Y-70163095D02*
X157482557Y-70115476D01*
X157482557Y-70115476D02*
X157577795Y-70067857D01*
X157577795Y-70067857D02*
X157720652Y-70067857D01*
X157720652Y-70067857D02*
X157815890Y-70115476D01*
X157815890Y-70115476D02*
X157863509Y-70163095D01*
X157863509Y-70163095D02*
X157911128Y-70258333D01*
X157911128Y-70258333D02*
X157911128Y-70639285D01*
X158387319Y-69115476D02*
X158387319Y-69686904D01*
X158387319Y-69401190D02*
X157387319Y-69401190D01*
X157387319Y-69401190D02*
X157530176Y-69496428D01*
X157530176Y-69496428D02*
X157625414Y-69591666D01*
X157625414Y-69591666D02*
X157673033Y-69686904D01*
X157482557Y-68734523D02*
X157434938Y-68686904D01*
X157434938Y-68686904D02*
X157387319Y-68591666D01*
X157387319Y-68591666D02*
X157387319Y-68353571D01*
X157387319Y-68353571D02*
X157434938Y-68258333D01*
X157434938Y-68258333D02*
X157482557Y-68210714D01*
X157482557Y-68210714D02*
X157577795Y-68163095D01*
X157577795Y-68163095D02*
X157673033Y-68163095D01*
X157673033Y-68163095D02*
X157815890Y-68210714D01*
X157815890Y-68210714D02*
X158387319Y-68782142D01*
X158387319Y-68782142D02*
X158387319Y-68163095D01*
X146163095Y-69054819D02*
X146163095Y-69864342D01*
X146163095Y-69864342D02*
X146210714Y-69959580D01*
X146210714Y-69959580D02*
X146258333Y-70007200D01*
X146258333Y-70007200D02*
X146353571Y-70054819D01*
X146353571Y-70054819D02*
X146544047Y-70054819D01*
X146544047Y-70054819D02*
X146639285Y-70007200D01*
X146639285Y-70007200D02*
X146686904Y-69959580D01*
X146686904Y-69959580D02*
X146734523Y-69864342D01*
X146734523Y-69864342D02*
X146734523Y-69054819D01*
X147115476Y-69054819D02*
X147734523Y-69054819D01*
X147734523Y-69054819D02*
X147401190Y-69435771D01*
X147401190Y-69435771D02*
X147544047Y-69435771D01*
X147544047Y-69435771D02*
X147639285Y-69483390D01*
X147639285Y-69483390D02*
X147686904Y-69531009D01*
X147686904Y-69531009D02*
X147734523Y-69626247D01*
X147734523Y-69626247D02*
X147734523Y-69864342D01*
X147734523Y-69864342D02*
X147686904Y-69959580D01*
X147686904Y-69959580D02*
X147639285Y-70007200D01*
X147639285Y-70007200D02*
X147544047Y-70054819D01*
X147544047Y-70054819D02*
X147258333Y-70054819D01*
X147258333Y-70054819D02*
X147163095Y-70007200D01*
X147163095Y-70007200D02*
X147115476Y-69959580D01*
X71511666Y-67824819D02*
X71511666Y-68539104D01*
X71511666Y-68539104D02*
X71464047Y-68681961D01*
X71464047Y-68681961D02*
X71368809Y-68777200D01*
X71368809Y-68777200D02*
X71225952Y-68824819D01*
X71225952Y-68824819D02*
X71130714Y-68824819D01*
X71892619Y-67824819D02*
X72559285Y-67824819D01*
X72559285Y-67824819D02*
X72130714Y-68824819D01*
X129662857Y-68549819D02*
X129662857Y-67549819D01*
X129662857Y-67549819D02*
X129996190Y-68264104D01*
X129996190Y-68264104D02*
X130329523Y-67549819D01*
X130329523Y-67549819D02*
X130329523Y-68549819D01*
X130948571Y-68549819D02*
X130853333Y-68502200D01*
X130853333Y-68502200D02*
X130805714Y-68454580D01*
X130805714Y-68454580D02*
X130758095Y-68359342D01*
X130758095Y-68359342D02*
X130758095Y-68073628D01*
X130758095Y-68073628D02*
X130805714Y-67978390D01*
X130805714Y-67978390D02*
X130853333Y-67930771D01*
X130853333Y-67930771D02*
X130948571Y-67883152D01*
X130948571Y-67883152D02*
X131091428Y-67883152D01*
X131091428Y-67883152D02*
X131186666Y-67930771D01*
X131186666Y-67930771D02*
X131234285Y-67978390D01*
X131234285Y-67978390D02*
X131281904Y-68073628D01*
X131281904Y-68073628D02*
X131281904Y-68359342D01*
X131281904Y-68359342D02*
X131234285Y-68454580D01*
X131234285Y-68454580D02*
X131186666Y-68502200D01*
X131186666Y-68502200D02*
X131091428Y-68549819D01*
X131091428Y-68549819D02*
X130948571Y-68549819D01*
X132139047Y-68549819D02*
X132139047Y-67549819D01*
X132139047Y-68502200D02*
X132043809Y-68549819D01*
X132043809Y-68549819D02*
X131853333Y-68549819D01*
X131853333Y-68549819D02*
X131758095Y-68502200D01*
X131758095Y-68502200D02*
X131710476Y-68454580D01*
X131710476Y-68454580D02*
X131662857Y-68359342D01*
X131662857Y-68359342D02*
X131662857Y-68073628D01*
X131662857Y-68073628D02*
X131710476Y-67978390D01*
X131710476Y-67978390D02*
X131758095Y-67930771D01*
X131758095Y-67930771D02*
X131853333Y-67883152D01*
X131853333Y-67883152D02*
X132043809Y-67883152D01*
X132043809Y-67883152D02*
X132139047Y-67930771D01*
X133043809Y-67883152D02*
X133043809Y-68549819D01*
X132615238Y-67883152D02*
X132615238Y-68406961D01*
X132615238Y-68406961D02*
X132662857Y-68502200D01*
X132662857Y-68502200D02*
X132758095Y-68549819D01*
X132758095Y-68549819D02*
X132900952Y-68549819D01*
X132900952Y-68549819D02*
X132996190Y-68502200D01*
X132996190Y-68502200D02*
X133043809Y-68454580D01*
X133662857Y-68549819D02*
X133567619Y-68502200D01*
X133567619Y-68502200D02*
X133520000Y-68406961D01*
X133520000Y-68406961D02*
X133520000Y-67549819D01*
X134424762Y-68502200D02*
X134329524Y-68549819D01*
X134329524Y-68549819D02*
X134139048Y-68549819D01*
X134139048Y-68549819D02*
X134043810Y-68502200D01*
X134043810Y-68502200D02*
X133996191Y-68406961D01*
X133996191Y-68406961D02*
X133996191Y-68026009D01*
X133996191Y-68026009D02*
X134043810Y-67930771D01*
X134043810Y-67930771D02*
X134139048Y-67883152D01*
X134139048Y-67883152D02*
X134329524Y-67883152D01*
X134329524Y-67883152D02*
X134424762Y-67930771D01*
X134424762Y-67930771D02*
X134472381Y-68026009D01*
X134472381Y-68026009D02*
X134472381Y-68121247D01*
X134472381Y-68121247D02*
X133996191Y-68216485D01*
X135424762Y-68549819D02*
X134853334Y-68549819D01*
X135139048Y-68549819D02*
X135139048Y-67549819D01*
X135139048Y-67549819D02*
X135043810Y-67692676D01*
X135043810Y-67692676D02*
X134948572Y-67787914D01*
X134948572Y-67787914D02*
X134853334Y-67835533D01*
X143184819Y-59116666D02*
X142708628Y-59449999D01*
X143184819Y-59688094D02*
X142184819Y-59688094D01*
X142184819Y-59688094D02*
X142184819Y-59307142D01*
X142184819Y-59307142D02*
X142232438Y-59211904D01*
X142232438Y-59211904D02*
X142280057Y-59164285D01*
X142280057Y-59164285D02*
X142375295Y-59116666D01*
X142375295Y-59116666D02*
X142518152Y-59116666D01*
X142518152Y-59116666D02*
X142613390Y-59164285D01*
X142613390Y-59164285D02*
X142661009Y-59211904D01*
X142661009Y-59211904D02*
X142708628Y-59307142D01*
X142708628Y-59307142D02*
X142708628Y-59688094D01*
X142184819Y-58211904D02*
X142184819Y-58688094D01*
X142184819Y-58688094D02*
X142661009Y-58735713D01*
X142661009Y-58735713D02*
X142613390Y-58688094D01*
X142613390Y-58688094D02*
X142565771Y-58592856D01*
X142565771Y-58592856D02*
X142565771Y-58354761D01*
X142565771Y-58354761D02*
X142613390Y-58259523D01*
X142613390Y-58259523D02*
X142661009Y-58211904D01*
X142661009Y-58211904D02*
X142756247Y-58164285D01*
X142756247Y-58164285D02*
X142994342Y-58164285D01*
X142994342Y-58164285D02*
X143089580Y-58211904D01*
X143089580Y-58211904D02*
X143137200Y-58259523D01*
X143137200Y-58259523D02*
X143184819Y-58354761D01*
X143184819Y-58354761D02*
X143184819Y-58592856D01*
X143184819Y-58592856D02*
X143137200Y-58688094D01*
X143137200Y-58688094D02*
X143089580Y-58735713D01*
X149614580Y-75691666D02*
X149662200Y-75739285D01*
X149662200Y-75739285D02*
X149709819Y-75882142D01*
X149709819Y-75882142D02*
X149709819Y-75977380D01*
X149709819Y-75977380D02*
X149662200Y-76120237D01*
X149662200Y-76120237D02*
X149566961Y-76215475D01*
X149566961Y-76215475D02*
X149471723Y-76263094D01*
X149471723Y-76263094D02*
X149281247Y-76310713D01*
X149281247Y-76310713D02*
X149138390Y-76310713D01*
X149138390Y-76310713D02*
X148947914Y-76263094D01*
X148947914Y-76263094D02*
X148852676Y-76215475D01*
X148852676Y-76215475D02*
X148757438Y-76120237D01*
X148757438Y-76120237D02*
X148709819Y-75977380D01*
X148709819Y-75977380D02*
X148709819Y-75882142D01*
X148709819Y-75882142D02*
X148757438Y-75739285D01*
X148757438Y-75739285D02*
X148805057Y-75691666D01*
X148805057Y-75310713D02*
X148757438Y-75263094D01*
X148757438Y-75263094D02*
X148709819Y-75167856D01*
X148709819Y-75167856D02*
X148709819Y-74929761D01*
X148709819Y-74929761D02*
X148757438Y-74834523D01*
X148757438Y-74834523D02*
X148805057Y-74786904D01*
X148805057Y-74786904D02*
X148900295Y-74739285D01*
X148900295Y-74739285D02*
X148995533Y-74739285D01*
X148995533Y-74739285D02*
X149138390Y-74786904D01*
X149138390Y-74786904D02*
X149709819Y-75358332D01*
X149709819Y-75358332D02*
X149709819Y-74739285D01*
X44029819Y-71392857D02*
X43553628Y-71726190D01*
X44029819Y-71964285D02*
X43029819Y-71964285D01*
X43029819Y-71964285D02*
X43029819Y-71583333D01*
X43029819Y-71583333D02*
X43077438Y-71488095D01*
X43077438Y-71488095D02*
X43125057Y-71440476D01*
X43125057Y-71440476D02*
X43220295Y-71392857D01*
X43220295Y-71392857D02*
X43363152Y-71392857D01*
X43363152Y-71392857D02*
X43458390Y-71440476D01*
X43458390Y-71440476D02*
X43506009Y-71488095D01*
X43506009Y-71488095D02*
X43553628Y-71583333D01*
X43553628Y-71583333D02*
X43553628Y-71964285D01*
X44029819Y-70440476D02*
X44029819Y-71011904D01*
X44029819Y-70726190D02*
X43029819Y-70726190D01*
X43029819Y-70726190D02*
X43172676Y-70821428D01*
X43172676Y-70821428D02*
X43267914Y-70916666D01*
X43267914Y-70916666D02*
X43315533Y-71011904D01*
X43363152Y-69583333D02*
X44029819Y-69583333D01*
X42982200Y-69821428D02*
X43696485Y-70059523D01*
X43696485Y-70059523D02*
X43696485Y-69440476D01*
X46654819Y-63083333D02*
X47369104Y-63083333D01*
X47369104Y-63083333D02*
X47511961Y-63130952D01*
X47511961Y-63130952D02*
X47607200Y-63226190D01*
X47607200Y-63226190D02*
X47654819Y-63369047D01*
X47654819Y-63369047D02*
X47654819Y-63464285D01*
X46750057Y-62654761D02*
X46702438Y-62607142D01*
X46702438Y-62607142D02*
X46654819Y-62511904D01*
X46654819Y-62511904D02*
X46654819Y-62273809D01*
X46654819Y-62273809D02*
X46702438Y-62178571D01*
X46702438Y-62178571D02*
X46750057Y-62130952D01*
X46750057Y-62130952D02*
X46845295Y-62083333D01*
X46845295Y-62083333D02*
X46940533Y-62083333D01*
X46940533Y-62083333D02*
X47083390Y-62130952D01*
X47083390Y-62130952D02*
X47654819Y-62702380D01*
X47654819Y-62702380D02*
X47654819Y-62083333D01*
X49079819Y-65486904D02*
X49889342Y-65486904D01*
X49889342Y-65486904D02*
X49984580Y-65439285D01*
X49984580Y-65439285D02*
X50032200Y-65391666D01*
X50032200Y-65391666D02*
X50079819Y-65296428D01*
X50079819Y-65296428D02*
X50079819Y-65105952D01*
X50079819Y-65105952D02*
X50032200Y-65010714D01*
X50032200Y-65010714D02*
X49984580Y-64963095D01*
X49984580Y-64963095D02*
X49889342Y-64915476D01*
X49889342Y-64915476D02*
X49079819Y-64915476D01*
X50079819Y-63915476D02*
X50079819Y-64486904D01*
X50079819Y-64201190D02*
X49079819Y-64201190D01*
X49079819Y-64201190D02*
X49222676Y-64296428D01*
X49222676Y-64296428D02*
X49317914Y-64391666D01*
X49317914Y-64391666D02*
X49365533Y-64486904D01*
X149516666Y-77874819D02*
X149516666Y-78589104D01*
X149516666Y-78589104D02*
X149469047Y-78731961D01*
X149469047Y-78731961D02*
X149373809Y-78827200D01*
X149373809Y-78827200D02*
X149230952Y-78874819D01*
X149230952Y-78874819D02*
X149135714Y-78874819D01*
X150421428Y-77874819D02*
X150230952Y-77874819D01*
X150230952Y-77874819D02*
X150135714Y-77922438D01*
X150135714Y-77922438D02*
X150088095Y-77970057D01*
X150088095Y-77970057D02*
X149992857Y-78112914D01*
X149992857Y-78112914D02*
X149945238Y-78303390D01*
X149945238Y-78303390D02*
X149945238Y-78684342D01*
X149945238Y-78684342D02*
X149992857Y-78779580D01*
X149992857Y-78779580D02*
X150040476Y-78827200D01*
X150040476Y-78827200D02*
X150135714Y-78874819D01*
X150135714Y-78874819D02*
X150326190Y-78874819D01*
X150326190Y-78874819D02*
X150421428Y-78827200D01*
X150421428Y-78827200D02*
X150469047Y-78779580D01*
X150469047Y-78779580D02*
X150516666Y-78684342D01*
X150516666Y-78684342D02*
X150516666Y-78446247D01*
X150516666Y-78446247D02*
X150469047Y-78351009D01*
X150469047Y-78351009D02*
X150421428Y-78303390D01*
X150421428Y-78303390D02*
X150326190Y-78255771D01*
X150326190Y-78255771D02*
X150135714Y-78255771D01*
X150135714Y-78255771D02*
X150040476Y-78303390D01*
X150040476Y-78303390D02*
X149992857Y-78351009D01*
X149992857Y-78351009D02*
X149945238Y-78446247D01*
X77232142Y-78699819D02*
X76898809Y-78223628D01*
X76660714Y-78699819D02*
X76660714Y-77699819D01*
X76660714Y-77699819D02*
X77041666Y-77699819D01*
X77041666Y-77699819D02*
X77136904Y-77747438D01*
X77136904Y-77747438D02*
X77184523Y-77795057D01*
X77184523Y-77795057D02*
X77232142Y-77890295D01*
X77232142Y-77890295D02*
X77232142Y-78033152D01*
X77232142Y-78033152D02*
X77184523Y-78128390D01*
X77184523Y-78128390D02*
X77136904Y-78176009D01*
X77136904Y-78176009D02*
X77041666Y-78223628D01*
X77041666Y-78223628D02*
X76660714Y-78223628D01*
X78184523Y-78699819D02*
X77613095Y-78699819D01*
X77898809Y-78699819D02*
X77898809Y-77699819D01*
X77898809Y-77699819D02*
X77803571Y-77842676D01*
X77803571Y-77842676D02*
X77708333Y-77937914D01*
X77708333Y-77937914D02*
X77613095Y-77985533D01*
X78517857Y-77699819D02*
X79136904Y-77699819D01*
X79136904Y-77699819D02*
X78803571Y-78080771D01*
X78803571Y-78080771D02*
X78946428Y-78080771D01*
X78946428Y-78080771D02*
X79041666Y-78128390D01*
X79041666Y-78128390D02*
X79089285Y-78176009D01*
X79089285Y-78176009D02*
X79136904Y-78271247D01*
X79136904Y-78271247D02*
X79136904Y-78509342D01*
X79136904Y-78509342D02*
X79089285Y-78604580D01*
X79089285Y-78604580D02*
X79041666Y-78652200D01*
X79041666Y-78652200D02*
X78946428Y-78699819D01*
X78946428Y-78699819D02*
X78660714Y-78699819D01*
X78660714Y-78699819D02*
X78565476Y-78652200D01*
X78565476Y-78652200D02*
X78517857Y-78604580D01*
D11*
%TO.C,R11*%
X77928641Y-78895000D02*
X77621359Y-78895000D01*
X77928641Y-79655000D02*
X77621359Y-79655000D01*
%TO.C,C1*%
X79290000Y-63542164D02*
X79290000Y-63757836D01*
X80010000Y-63542164D02*
X80010000Y-63757836D01*
%TO.C,R2*%
X52170276Y-63202500D02*
X52679724Y-63202500D01*
X52170276Y-64247500D02*
X52679724Y-64247500D01*
%TO.C,R3*%
X52170276Y-65712500D02*
X52679724Y-65712500D01*
X52170276Y-66757500D02*
X52679724Y-66757500D01*
%TO.C,R17*%
X156496359Y-73520000D02*
X156803641Y-73520000D01*
X156496359Y-74280000D02*
X156803641Y-74280000D01*
%TO.C,C4*%
X65692164Y-84415000D02*
X65907836Y-84415000D01*
X65692164Y-85135000D02*
X65907836Y-85135000D01*
%TO.C,D2*%
X153327500Y-68215000D02*
X153327500Y-70500000D01*
X154797500Y-68215000D02*
X153327500Y-68215000D01*
X154797500Y-70500000D02*
X154797500Y-68215000D01*
%TO.C,R4*%
X143495000Y-57228641D02*
X143495000Y-56921359D01*
X144255000Y-57228641D02*
X144255000Y-56921359D01*
%TO.C,R7*%
X51995276Y-55927500D02*
X52504724Y-55927500D01*
X51995276Y-56972500D02*
X52504724Y-56972500D01*
%TO.C,U5*%
X40217500Y-88845000D02*
X40217500Y-72605000D01*
X40337500Y-72825000D02*
X40087500Y-72825000D01*
X40487500Y-72725000D02*
X40487500Y-72475000D01*
X52667500Y-72605000D02*
X40217500Y-72605000D01*
X52667500Y-88845000D02*
X40217500Y-88845000D01*
X61857500Y-72605000D02*
X55947500Y-72605000D01*
X61857500Y-72605000D02*
X61857500Y-88845000D01*
X61857500Y-88845000D02*
X55947500Y-88845000D01*
%TO.C,R15*%
X49096359Y-70245000D02*
X49403641Y-70245000D01*
X49096359Y-71005000D02*
X49403641Y-71005000D01*
%TO.C,R1*%
X79270000Y-61371359D02*
X79270000Y-61678641D01*
X80030000Y-61371359D02*
X80030000Y-61678641D01*
%TO.C,D1*%
X150952500Y-72140000D02*
X150952500Y-73610000D01*
X150952500Y-73610000D02*
X153237500Y-73610000D01*
X153237500Y-72140000D02*
X150952500Y-72140000D01*
%TO.C,R9*%
X155370000Y-80146359D02*
X155370000Y-80453641D01*
X156130000Y-80146359D02*
X156130000Y-80453641D01*
%TO.C,R8*%
X145453641Y-74770000D02*
X145146359Y-74770000D01*
X145453641Y-75530000D02*
X145146359Y-75530000D01*
%TO.C,J1*%
X66005000Y-50600000D02*
X71755000Y-50600000D01*
X66005000Y-56600000D02*
X66005000Y-50600000D01*
X67355000Y-55490000D02*
X72435000Y-55490000D01*
X67355000Y-56500000D02*
X67355000Y-55490000D01*
X72435000Y-55490000D02*
X72435000Y-56500000D01*
X73105000Y-50650000D02*
X76305000Y-50650000D01*
X76305000Y-50650000D02*
X76305000Y-56600000D01*
X76305000Y-56600000D02*
X66005000Y-56600000D01*
%TO.C,J5*%
X144195000Y-79395000D02*
X145525000Y-79395000D01*
X144195000Y-80725000D02*
X144195000Y-79395000D01*
X144195000Y-81995000D02*
X144195000Y-87135000D01*
X144195000Y-81995000D02*
X146855000Y-81995000D01*
X144195000Y-87135000D02*
X146855000Y-87135000D01*
X146855000Y-81995000D02*
X146855000Y-87135000D01*
%TO.C,U4*%
X155252500Y-84360000D02*
X155252500Y-82950000D01*
X157572500Y-84350000D02*
X157572500Y-82950000D01*
X155302500Y-84730000D02*
X154972500Y-84970000D01*
X154972500Y-84490000D01*
X155302500Y-84730000D01*
G36*
X155302500Y-84730000D02*
G01*
X154972500Y-84970000D01*
X154972500Y-84490000D01*
X155302500Y-84730000D01*
G37*
%TO.C,R6*%
X52145276Y-53202500D02*
X52654724Y-53202500D01*
X52145276Y-54247500D02*
X52654724Y-54247500D01*
%TO.C,U2*%
X75790000Y-61500000D02*
X75790000Y-60000000D01*
X75790000Y-61500000D02*
X75790000Y-63000000D01*
X79010000Y-61500000D02*
X79010000Y-60000000D01*
X79010000Y-61500000D02*
X79010000Y-63000000D01*
X75965000Y-63712500D02*
X75635000Y-63952500D01*
X75635000Y-63472500D01*
X75965000Y-63712500D01*
G36*
X75965000Y-63712500D02*
G01*
X75635000Y-63952500D01*
X75635000Y-63472500D01*
X75965000Y-63712500D01*
G37*
D12*
%TO.C,J4*%
X40300000Y-59565000D02*
X41580000Y-59565000D01*
X41580000Y-50625000D02*
X40300000Y-50625000D01*
X45550000Y-50625000D02*
X44300000Y-50625000D01*
X45550000Y-59565000D02*
X44300000Y-59565000D01*
X49000000Y-51845000D02*
G75*
G02*
X48800000Y-51845000I-100000J0D01*
G01*
X48800000Y-51845000D02*
G75*
G02*
X49000000Y-51845000I100000J0D01*
G01*
D11*
%TO.C,R16*%
X156471359Y-75745000D02*
X156778641Y-75745000D01*
X156471359Y-76505000D02*
X156778641Y-76505000D01*
D13*
%TO.C,J3*%
X150526000Y-52650000D02*
X145524000Y-52650000D01*
X157276000Y-52650000D02*
X156274000Y-52650000D01*
X157950000Y-58100000D02*
X157950000Y-56000000D01*
X157950000Y-64000000D02*
X157950000Y-61100000D01*
X157950000Y-66700000D02*
X144850000Y-66700000D01*
D12*
X153880000Y-67150000D02*
G75*
G02*
X153680000Y-67150000I-100000J0D01*
G01*
X153680000Y-67150000D02*
G75*
G02*
X153880000Y-67150000I100000J0D01*
G01*
D11*
%TO.C,C3*%
X52113748Y-59165000D02*
X52636252Y-59165000D01*
X52113748Y-60635000D02*
X52636252Y-60635000D01*
%TO.C,R10*%
X149882500Y-72503641D02*
X149882500Y-72196359D01*
X150642500Y-72503641D02*
X150642500Y-72196359D01*
%TO.C,R12*%
X156382500Y-69271359D02*
X156382500Y-69578641D01*
X157142500Y-69271359D02*
X157142500Y-69578641D01*
%TO.C,U3*%
X146875000Y-70277500D02*
X146075000Y-70277500D01*
X146875000Y-70277500D02*
X147675000Y-70277500D01*
X146875000Y-73397500D02*
X146075000Y-73397500D01*
X146875000Y-73397500D02*
X147675000Y-73397500D01*
X148415000Y-73677500D02*
X147935000Y-73677500D01*
X148175000Y-73347500D01*
X148415000Y-73677500D01*
G36*
X148415000Y-73677500D02*
G01*
X147935000Y-73677500D01*
X148175000Y-73347500D01*
X148415000Y-73677500D01*
G37*
%TO.C,J7*%
X69245000Y-69370000D02*
X70575000Y-69370000D01*
X69245000Y-70700000D02*
X69245000Y-69370000D01*
X69245000Y-71970000D02*
X69245000Y-74570000D01*
X69245000Y-71970000D02*
X71845000Y-71970000D01*
X69245000Y-74570000D02*
X74445000Y-74570000D01*
X71845000Y-69370000D02*
X74445000Y-69370000D01*
X71845000Y-71970000D02*
X71845000Y-69370000D01*
X74445000Y-69370000D02*
X74445000Y-74570000D01*
%TO.C,Module1*%
X86100000Y-53475000D02*
X86100000Y-86475000D01*
X89600000Y-89975000D02*
X137600000Y-89975000D01*
X104700000Y-51125000D02*
X105700000Y-51125000D01*
X104700000Y-54905000D02*
X104700000Y-51125000D01*
X104700000Y-54905000D02*
X105700000Y-54905000D01*
X104700000Y-88825000D02*
X104700000Y-85045000D01*
X127500000Y-51125000D02*
X126500000Y-51125000D01*
X127500000Y-54905000D02*
X126500000Y-54905000D01*
X127500000Y-54905000D02*
X127500000Y-51125000D01*
X127500000Y-85045000D02*
X126500000Y-85045000D01*
X127500000Y-88825000D02*
X126500000Y-88825000D01*
X127500000Y-88825000D02*
X127500000Y-85045000D01*
X137600000Y-49975000D02*
X89600000Y-49975000D01*
X141100000Y-86475000D02*
X141100000Y-53475000D01*
X86100000Y-53475000D02*
G75*
G02*
X89600000Y-49975026I3499974J0D01*
G01*
X89600000Y-89975000D02*
G75*
G02*
X86100000Y-86475000I-1J3499999D01*
G01*
X137600000Y-49975000D02*
G75*
G02*
X141100004Y-53475000I4J-3500000D01*
G01*
X141100000Y-86475000D02*
G75*
G02*
X137600000Y-89975000I-3499996J-4D01*
G01*
%TO.C,R5*%
X143520000Y-59103641D02*
X143520000Y-58796359D01*
X144280000Y-59103641D02*
X144280000Y-58796359D01*
%TO.C,C2*%
X146840000Y-75263748D02*
X146840000Y-75786252D01*
X148310000Y-75263748D02*
X148310000Y-75786252D01*
%TO.C,R14*%
X44946359Y-70445000D02*
X45253641Y-70445000D01*
X44946359Y-71205000D02*
X45253641Y-71205000D01*
%TO.C,J2*%
X40880000Y-61175000D02*
X43680000Y-61175000D01*
X40880000Y-68875000D02*
X43680000Y-68875000D01*
X43680000Y-60875000D02*
X43680000Y-61175000D01*
X43680000Y-60875000D02*
X45230000Y-60875000D01*
X43680000Y-68875000D02*
X43680000Y-69175000D01*
X43680000Y-69175000D02*
X45230000Y-69175000D01*
X46480000Y-63725000D02*
X46930000Y-63325000D01*
X46930000Y-63325000D02*
X46930000Y-64125000D01*
X46930000Y-64125000D02*
X46480000Y-63725000D01*
%TO.C,U1*%
X47712500Y-64297500D02*
X47712500Y-64497500D01*
X47712500Y-65597500D02*
X47712500Y-65397500D01*
X48262500Y-64297500D02*
X47712500Y-64297500D01*
X48262500Y-65597500D02*
X47712500Y-65597500D01*
X48692500Y-65987500D02*
X48692500Y-65707500D01*
X48972500Y-65707500D01*
X48692500Y-65987500D01*
G36*
X48692500Y-65987500D02*
G01*
X48692500Y-65707500D01*
X48972500Y-65707500D01*
X48692500Y-65987500D01*
G37*
%TO.C,J6*%
X148520000Y-79420000D02*
X149850000Y-79420000D01*
X148520000Y-80750000D02*
X148520000Y-79420000D01*
X148520000Y-82020000D02*
X148520000Y-87160000D01*
X148520000Y-82020000D02*
X151180000Y-82020000D01*
X148520000Y-87160000D02*
X151180000Y-87160000D01*
X151180000Y-82020000D02*
X151180000Y-87160000D01*
%TO.C,R13*%
X78028641Y-76695000D02*
X77721359Y-76695000D01*
X78028641Y-77455000D02*
X77721359Y-77455000D01*
%TD*%
M02*
