%TF.GenerationSoftware,KiCad,Pcbnew,8.0.4*%
%TF.CreationDate,2024-11-24T01:25:27+11:00*%
%TF.ProjectId,cm4-bare-minimum,636d342d-6261-4726-952d-6d696e696d75,V0.1*%
%TF.SameCoordinates,Original*%
%TF.FileFunction,Soldermask,Bot*%
%TF.FilePolarity,Negative*%
%FSLAX46Y46*%
G04 Gerber Fmt 4.6, Leading zero omitted, Abs format (unit mm)*
G04 Created by KiCad (PCBNEW 8.0.4) date 2024-11-24 01:25:27*
%MOMM*%
%LPD*%
G01*
G04 APERTURE LIST*
G04 Aperture macros list*
%AMRoundRect*
0 Rectangle with rounded corners*
0 $1 Rounding radius*
0 $2 $3 $4 $5 $6 $7 $8 $9 X,Y pos of 4 corners*
0 Add a 4 corners polygon primitive as box body*
4,1,4,$2,$3,$4,$5,$6,$7,$8,$9,$2,$3,0*
0 Add four circle primitives for the rounded corners*
1,1,$1+$1,$2,$3*
1,1,$1+$1,$4,$5*
1,1,$1+$1,$6,$7*
1,1,$1+$1,$8,$9*
0 Add four rect primitives between the rounded corners*
20,1,$1+$1,$2,$3,$4,$5,0*
20,1,$1+$1,$4,$5,$6,$7,0*
20,1,$1+$1,$6,$7,$8,$9,0*
20,1,$1+$1,$8,$9,$2,$3,0*%
G04 Aperture macros list end*
%ADD10C,3.200000*%
%ADD11RoundRect,0.250500X-0.499500X0.499500X-0.499500X-0.499500X0.499500X-0.499500X0.499500X0.499500X0*%
%ADD12C,1.500000*%
%ADD13C,2.500000*%
%ADD14C,1.100000*%
%ADD15R,1.730000X2.030000*%
%ADD16O,1.730000X2.030000*%
%ADD17R,1.700000X1.700000*%
%ADD18O,1.700000X1.700000*%
%ADD19C,0.650000*%
%ADD20O,2.304000X1.204000*%
%ADD21O,2.004000X1.204000*%
%ADD22C,6.100000*%
%ADD23O,1.700000X1.300000*%
%ADD24O,1.400000X1.000000*%
G04 APERTURE END LIST*
D10*
%TO.C,U5*%
X51237500Y-75010000D03*
X51237500Y-86440000D03*
D11*
X60127500Y-75010000D03*
D12*
X57587500Y-76280000D03*
X60127500Y-77550000D03*
X57587500Y-78820000D03*
X60127500Y-80090000D03*
X57587500Y-81360000D03*
X60127500Y-82630000D03*
X57587500Y-83900000D03*
X60127500Y-85170000D03*
X57587500Y-86440000D03*
X55067500Y-75010000D03*
X53797500Y-77550000D03*
X53797500Y-83900000D03*
X55067500Y-86440000D03*
X47177500Y-74095000D03*
X47177500Y-76635000D03*
X47177500Y-84815000D03*
X47177500Y-87355000D03*
D13*
X54287500Y-72850000D03*
X54287500Y-88600000D03*
%TD*%
D14*
%TO.C,J1*%
X72435000Y-51040000D03*
D15*
X67355000Y-53200000D03*
D16*
X69895000Y-53200000D03*
X72435000Y-53200000D03*
X74975000Y-53200000D03*
%TD*%
D17*
%TO.C,J5*%
X145525000Y-80725000D03*
D18*
X145525000Y-83265000D03*
X145525000Y-85805000D03*
%TD*%
D19*
%TO.C,J4*%
X46580000Y-52205000D03*
X46580000Y-57985000D03*
D20*
X47080000Y-50775000D03*
X47080000Y-59415000D03*
D21*
X42900000Y-50775000D03*
X42900000Y-59415000D03*
%TD*%
D17*
%TO.C,J7*%
X70575000Y-70700000D03*
D18*
X73115000Y-70700000D03*
X70575000Y-73240000D03*
X73115000Y-73240000D03*
%TD*%
D22*
%TO.C,Module1*%
X89600000Y-86475000D03*
X137600000Y-86475000D03*
X89600000Y-53475000D03*
X137600000Y-53475000D03*
%TD*%
D23*
%TO.C,J2*%
X42500000Y-62300000D03*
D24*
X45530000Y-62600000D03*
X45530000Y-67450000D03*
D23*
X42500000Y-67750000D03*
%TD*%
D17*
%TO.C,J6*%
X149850000Y-80750000D03*
D18*
X149850000Y-83290000D03*
X149850000Y-85830000D03*
%TD*%
M02*
